<svg width="770" height="508" viewBox="0 0 770 508" fill="none" xmlns="http://www.w3.org/2000/svg">
<g filter="url(#filter0_d_980_9734)">
<path d="M722.691 16C722.691 35.0924 735.707 50.5703 751.764 50.5703C752.516 50.5703 753.262 50.5365 754 50.4697V449.552C753.262 449.485 752.516 449.452 751.764 449.452C735.707 449.452 722.692 464.929 722.691 484.021C722.691 486.767 722.962 489.439 723.471 492H44.2939C44.8028 489.439 45.0732 486.767 45.0732 484.021C45.073 464.929 32.0563 449.452 16 449.452V50.5703C31.8056 50.5703 44.6655 35.5727 45.0635 16.8926L45.0732 16H722.691Z" fill="white"/>
</g>
<defs>
<filter id="filter0_d_980_9734" x="0" y="0" width="770" height="508" filterUnits="userSpaceOnUse" color-interpolation-filters="sRGB">
<feFlood flood-opacity="0" result="BackgroundImageFix"/>
<feColorMatrix in="SourceAlpha" type="matrix" values="0 0 0 0 0 0 0 0 0 0 0 0 0 0 0 0 0 0 127 0" result="hardAlpha"/>
<feOffset/>
<feGaussianBlur stdDeviation="8"/>
<feComposite in2="hardAlpha" operator="out"/>
<feColorMatrix type="matrix" values="0 0 0 0 0.44391 0 0 0 0 0.44391 0 0 0 0 0.44391 0 0 0 0.25 0"/>
<feBlend mode="normal" in2="BackgroundImageFix" result="effect1_dropShadow_980_9734"/>
<feBlend mode="normal" in="SourceGraphic" in2="effect1_dropShadow_980_9734" result="shape"/>
</filter>
</defs>
</svg>
