<svg width="563" height="686" viewBox="0 0 563 686" fill="none" xmlns="http://www.w3.org/2000/svg">
<g filter="url(#filter0_d_172_1844)">
<path d="M524.473 16C524.473 42.2314 533.838 63.4958 545.391 63.4961C545.932 63.4961 546.469 63.4492 547 63.3574V611.68C546.469 611.588 545.932 611.541 545.391 611.541C533.838 611.541 524.473 632.806 524.473 659.038C524.473 662.81 524.667 666.478 525.033 669.996H36.3574C36.7233 666.478 36.918 662.81 36.918 659.038C36.918 633.011 27.6987 611.874 16.2705 611.545L16 611.541V63.4961C27.5527 63.4961 36.9178 42.2316 36.918 16H524.473Z" fill="white"/>
</g>
<mask id="path-2-inside-1_172_1844" fill="white">
<path d="M515.945 33C515.945 57.9886 524.946 78.2461 536.049 78.2461C536.57 78.2461 537.086 78.201 537.598 78.1133V600.447C537.087 600.36 536.57 600.315 536.049 600.315C524.946 600.315 515.945 620.572 515.945 645.561C515.945 649.153 516.133 652.649 516.484 656H46.8467C47.1983 652.649 47.3857 649.153 47.3857 645.561C47.3856 620.574 38.3867 600.318 27.2852 600.315V78.2451C38.3868 78.2424 47.3857 57.9869 47.3857 33H515.945Z"/>
</mask>
<path d="M515.945 33C515.945 57.9886 524.946 78.2461 536.049 78.2461C536.57 78.2461 537.086 78.201 537.598 78.1133V600.447C537.087 600.36 536.57 600.315 536.049 600.315C524.946 600.315 515.945 620.572 515.945 645.561C515.945 649.153 516.133 652.649 516.484 656H46.8467C47.1983 652.649 47.3857 649.153 47.3857 645.561C47.3856 620.574 38.3867 600.318 27.2852 600.315V78.2451C38.3868 78.2424 47.3857 57.9869 47.3857 33H515.945Z" fill="white"/>
<path d="M515.945 33H516.945V32H515.945V33ZM536.049 78.2461L536.049 79.2461L536.049 79.2461L536.049 78.2461ZM537.598 78.1133H538.598V76.9271L537.429 77.1277L537.598 78.1133ZM537.598 600.447L537.429 601.433L538.598 601.633V600.447H537.598ZM536.049 600.315L536.049 599.315H536.049V600.315ZM515.945 645.561L514.945 645.561V645.561H515.945ZM516.484 656V657H517.595L517.479 655.896L516.484 656ZM46.8467 656L45.8521 655.896L45.7363 657H46.8467V656ZM47.3857 645.561L48.3857 645.561L48.3857 645.561L47.3857 645.561ZM27.2852 600.315H26.2852V601.315L27.2849 601.315L27.2852 600.315ZM27.2852 78.2451L27.2849 77.2451L26.2852 77.2454V78.2451H27.2852ZM47.3857 33V32H46.3857V33H47.3857ZM515.945 33H514.945C514.945 45.6007 517.213 57.0566 520.92 65.3998C522.773 69.5701 525.005 73.0069 527.534 75.4147C530.069 77.8274 532.948 79.2461 536.049 79.2461V78.2461V77.2461C533.599 77.2461 531.189 76.1326 528.913 73.9661C526.632 71.7947 524.533 68.6053 522.747 64.5877C519.178 56.555 516.945 45.3879 516.945 33H515.945ZM536.049 78.2461L536.049 79.2461C536.628 79.2461 537.201 79.1959 537.767 79.0989L537.598 78.1133L537.429 77.1277C536.972 77.206 536.512 77.2461 536.049 77.2461L536.049 78.2461ZM537.598 78.1133H536.598V600.447H537.598H538.598V78.1133H537.598ZM537.598 600.447L537.767 599.462C537.2 599.364 536.627 599.315 536.049 599.315L536.049 600.315L536.049 601.315C536.513 601.315 536.973 601.355 537.429 601.433L537.598 600.447ZM536.049 600.315V599.315C532.948 599.315 530.069 600.734 527.534 603.147C525.005 605.554 522.773 608.991 520.92 613.161C517.213 621.504 514.945 632.96 514.945 645.561L515.945 645.561L516.945 645.561C516.945 633.173 519.178 622.006 522.747 613.973C524.533 609.956 526.632 606.767 528.913 604.595C531.189 602.429 533.599 601.315 536.049 601.315V600.315ZM515.945 645.561H514.945C514.945 649.188 515.135 652.718 515.49 656.104L516.484 656L517.479 655.896C517.131 652.579 516.945 649.119 516.945 645.561H515.945ZM516.484 656V655H46.8467V656V657H516.484V656ZM46.8467 656L47.8412 656.104C48.1965 652.718 48.3857 649.188 48.3857 645.561H47.3857H46.3857C46.3857 649.119 46.2001 652.579 45.8521 655.896L46.8467 656ZM47.3857 645.561L48.3857 645.561C48.3857 632.961 46.1188 621.506 42.4124 613.163C40.5597 608.993 38.3278 605.556 35.7989 603.148C33.2649 600.735 30.3862 599.316 27.2854 599.315L27.2852 600.315L27.2849 601.315C29.7349 601.316 32.1442 602.43 34.4198 604.597C36.7005 606.768 38.7998 609.958 40.5846 613.975C44.1531 622.007 46.3857 633.174 46.3857 645.561L47.3857 645.561ZM27.2852 600.315H28.2852V78.2451H27.2852H26.2852V600.315H27.2852ZM27.2852 78.2451L27.2854 79.2451C30.3863 79.2443 33.2649 77.8252 35.799 75.4124C38.3279 73.0045 40.5598 69.5677 42.4124 65.3976C46.1188 57.0548 48.3857 45.5998 48.3857 33H47.3857H46.3857C46.3857 45.3871 44.1532 56.5533 40.5847 64.5856C38.7999 68.603 36.7005 71.7924 34.4198 73.964C32.1442 76.1307 29.7349 77.2445 27.2849 77.2451L27.2852 78.2451ZM47.3857 33V34H515.945V33V32H47.3857V33Z" fill="#D9B881" mask="url(#path-2-inside-1_172_1844)"/>
<defs>
<filter id="filter0_d_172_1844" x="0" y="0" width="563" height="685.996" filterUnits="userSpaceOnUse" color-interpolation-filters="sRGB">
<feFlood flood-opacity="0" result="BackgroundImageFix"/>
<feColorMatrix in="SourceAlpha" type="matrix" values="0 0 0 0 0 0 0 0 0 0 0 0 0 0 0 0 0 0 127 0" result="hardAlpha"/>
<feOffset/>
<feGaussianBlur stdDeviation="8"/>
<feComposite in2="hardAlpha" operator="out"/>
<feColorMatrix type="matrix" values="0 0 0 0 0.44391 0 0 0 0 0.44391 0 0 0 0 0.44391 0 0 0 0.25 0"/>
<feBlend mode="normal" in2="BackgroundImageFix" result="effect1_dropShadow_172_1844"/>
<feBlend mode="normal" in="SourceGraphic" in2="effect1_dropShadow_172_1844" result="shape"/>
</filter>
</defs>
</svg>
