<svg width="427" height="157" viewBox="0 0 427 157" fill="none" xmlns="http://www.w3.org/2000/svg">
<g filter="url(#filter0_d_0_2919)">
<path d="M394.243 16C394.243 21.0137 401.21 25.0781 409.804 25.0781C410.206 25.0781 410.605 25.0654 411 25.0479V129.855C410.605 129.838 410.206 129.826 409.804 129.826C401.21 129.826 394.243 133.891 394.243 138.904C394.243 139.626 394.388 140.327 394.66 141H31.1436C31.416 140.327 31.5605 139.626 31.5605 138.904C31.5602 133.891 24.5937 129.826 16 129.826V25.0781C24.5939 25.0781 31.5605 21.0137 31.5605 16L394.243 16Z" fill="white"/>
</g>
<mask id="path-2-inside-1_0_2919" fill="white">
<path d="M388.837 24C388.837 28.3319 395.556 31.8437 403.846 31.8437C404.234 31.8437 404.619 31.8325 405 31.8174V122.371C404.619 122.356 404.234 122.347 403.846 122.347C395.556 122.347 388.837 125.859 388.837 130.19C388.837 130.813 388.976 131.419 389.238 132H38.6084C38.8709 131.419 39.0097 130.813 39.0098 130.19C39.0098 125.859 32.2902 122.347 24.001 122.347H24V31.8428C32.2893 31.8428 39.0098 28.3319 39.0098 24L388.837 24Z"/>
</mask>
<path d="M388.837 24C388.837 28.3319 395.556 31.8437 403.846 31.8437C404.234 31.8437 404.619 31.8325 405 31.8174V122.371C404.619 122.356 404.234 122.347 403.846 122.347C395.556 122.347 388.837 125.859 388.837 130.19C388.837 130.813 388.976 131.419 389.238 132H38.6084C38.8709 131.419 39.0097 130.813 39.0098 130.19C39.0098 125.859 32.2902 122.347 24.001 122.347H24V31.8428C32.2893 31.8428 39.0098 28.3319 39.0098 24L388.837 24Z" fill="white"/>
<path d="M388.837 24H389.837V23H388.837V24ZM403.846 31.8437V32.8437V31.8437ZM405 31.8174H406V30.7768L404.96 30.8182L405 31.8174ZM405 122.371L404.96 123.37L406 123.412V122.371H405ZM403.846 122.347V121.347V122.347ZM388.837 130.19H387.837V130.19L388.837 130.19ZM389.238 132V133H390.788L390.15 131.588L389.238 132ZM38.6084 132L37.6971 131.588L37.0591 133H38.6084V132ZM39.0098 130.19L40.0098 130.19V130.19H39.0098ZM24.001 122.347L24.001 121.347H24.001V122.347ZM24 122.347H23V123.347H24V122.347ZM24 31.8428V30.8428H23V31.8428H24ZM39.0098 24V23H38.0098V24H39.0098ZM388.837 24H387.837C387.837 26.7256 389.932 28.9494 392.77 30.4326C395.656 31.9408 399.573 32.8437 403.846 32.8437V31.8437V30.8437C399.829 30.8437 396.242 29.9907 393.696 28.6601C391.102 27.3044 389.837 25.6063 389.837 24H388.837ZM403.846 31.8437V32.8437C404.253 32.8437 404.652 32.832 405.04 32.8166L405 31.8174L404.96 30.8182C404.586 30.8331 404.216 30.8437 403.846 30.8437V31.8437ZM405 31.8174H404V122.371H405H406V31.8174H405ZM405 122.371L405.04 121.372C404.648 121.356 404.25 121.347 403.846 121.347V122.347V123.347C404.218 123.347 404.59 123.356 404.96 123.37L405 122.371ZM403.846 122.347V121.347C399.573 121.347 395.656 122.25 392.77 123.758C389.932 125.241 387.837 127.465 387.837 130.19H388.837H389.837C389.837 128.584 391.102 126.886 393.696 125.53C396.242 124.2 399.829 123.347 403.846 123.347V122.347ZM388.837 130.19L387.837 130.19C387.837 130.966 388.01 131.711 388.327 132.412L389.238 132L390.15 131.588C389.941 131.127 389.837 130.661 389.837 130.19L388.837 130.19ZM389.238 132V131H38.6084V132V133H389.238V132ZM38.6084 132L39.5197 132.412C39.8362 131.711 40.0097 130.966 40.0098 130.19L39.0098 130.19L38.0098 130.19C38.0097 130.661 37.9056 131.127 37.6971 131.588L38.6084 132ZM39.0098 130.19H40.0098C40.0098 127.465 37.915 125.241 35.077 123.758C32.191 122.25 28.2735 121.347 24.001 121.347L24.001 122.347L24.001 123.347C28.0177 123.347 31.6045 124.2 34.1506 125.53C36.7447 126.886 38.0098 128.584 38.0098 130.19H39.0098ZM24.001 122.347V121.347H24V122.347V123.347H24.001V122.347ZM24 122.347H25V31.8428H24H23V122.347H24ZM24 31.8428V32.8428C28.2725 32.8428 32.1903 31.9401 35.0764 30.4322C37.9146 28.9493 40.0098 26.7257 40.0098 24H39.0098H38.0098C38.0098 25.6062 36.7447 27.304 34.1503 28.6595C31.6039 29.99 28.0168 30.8428 24 30.8428V31.8428ZM39.0098 24V25L388.837 25V24V23L39.0098 23V24Z" fill="#D9B881" mask="url(#path-2-inside-1_0_2919)"/>
<path d="M167.51 74.2585V71.3778H168.59C169.076 71.3778 169.476 71.3071 169.79 71.1655C170.104 71.0239 170.357 70.8208 170.547 70.5561C170.744 70.2914 170.907 69.9837 171.037 69.6328L171.286 68.9957L164.528 55.0909H168.11L172.819 65.2102L176.89 55.0909H180.417L173.899 70.5099C173.597 71.1747 173.25 71.7933 172.856 72.3658C172.462 72.9321 171.948 73.3906 171.314 73.7415C170.686 74.0862 169.867 74.2585 168.858 74.2585H167.51ZM181.669 79.3182V59.8182H184.955V62.1634H185.149C185.322 61.8187 185.565 61.4524 185.879 61.0646C186.193 60.6707 186.617 60.3352 187.153 60.0582C187.688 59.7751 188.372 59.6335 189.203 59.6335C190.298 59.6335 191.286 59.9136 192.166 60.4737C193.053 61.0277 193.754 61.8494 194.271 62.9389C194.795 64.0223 195.056 65.3518 195.056 66.9276C195.056 68.4848 194.801 69.8082 194.29 70.8977C193.779 71.9872 193.084 72.8182 192.203 73.3906C191.323 73.9631 190.326 74.2493 189.212 74.2493C188.399 74.2493 187.725 74.1139 187.19 73.843C186.654 73.5722 186.223 73.246 185.897 72.8643C185.577 72.4766 185.328 72.1103 185.149 71.7656H185.011V79.3182H181.669ZM184.946 66.9091C184.946 67.8262 185.075 68.6295 185.334 69.3189C185.599 70.0083 185.977 70.5469 186.47 70.9347C186.968 71.3163 187.571 71.5071 188.279 71.5071C189.018 71.5071 189.637 71.3101 190.135 70.9162C190.634 70.5161 191.009 69.9714 191.262 69.282C191.52 68.5864 191.649 67.7955 191.649 66.9091C191.649 66.0289 191.523 65.2472 191.271 64.5639C191.018 63.8807 190.643 63.3452 190.144 62.9574C189.646 62.5696 189.024 62.3757 188.279 62.3757C187.565 62.3757 186.959 62.5634 186.46 62.9389C185.962 63.3144 185.583 63.8407 185.325 64.5178C185.072 65.1948 184.946 65.992 184.946 66.9091ZM204.105 74.277C202.72 74.277 201.519 73.9723 200.504 73.3629C199.488 72.7536 198.7 71.901 198.14 70.8054C197.586 69.7098 197.309 68.4295 197.309 66.9645C197.309 65.4995 197.586 64.2161 198.14 63.1143C198.7 62.0125 199.488 61.157 200.504 60.5476C201.519 59.9382 202.72 59.6335 204.105 59.6335C205.49 59.6335 206.69 59.9382 207.705 60.5476C208.721 61.157 209.506 62.0125 210.06 63.1143C210.62 64.2161 210.9 65.4995 210.9 66.9645C210.9 68.4295 210.62 69.7098 210.06 70.8054C209.506 71.901 208.721 72.7536 207.705 73.3629C206.69 73.9723 205.49 74.277 204.105 74.277ZM204.123 71.5994C204.874 71.5994 205.502 71.3932 206.007 70.9808C206.511 70.5623 206.887 70.0021 207.133 69.3004C207.385 68.5987 207.512 67.817 207.512 66.9553C207.512 66.0874 207.385 65.3026 207.133 64.6009C206.887 63.893 206.511 63.3298 206.007 62.9112C205.502 62.4927 204.874 62.2834 204.123 62.2834C203.354 62.2834 202.713 62.4927 202.203 62.9112C201.698 63.3298 201.319 63.893 201.067 64.6009C200.821 65.3026 200.698 66.0874 200.698 66.9553C200.698 67.817 200.821 68.5987 201.067 69.3004C201.319 70.0021 201.698 70.5623 202.203 70.9808C202.713 71.3932 203.354 71.5994 204.123 71.5994ZM213.737 74V59.8182H217.079V65.5426H218.298L222.564 59.8182H226.589L221.336 66.7798L226.645 74H222.6L218.713 68.6541H217.079V74H213.737ZM231.762 69.4759L237.44 59.8182H240.875V74H237.643V64.3331L231.983 74H228.54V59.8182H231.762V69.4759ZM256.942 74.277C255.527 74.277 254.311 73.9661 253.295 73.3445C252.286 72.7228 251.507 71.8641 250.96 70.7685C250.418 69.6667 250.147 68.3987 250.147 66.9645C250.147 65.5241 250.424 64.2531 250.978 63.1513C251.532 62.0433 252.314 61.1816 253.323 60.5661C254.339 59.9444 255.539 59.6335 256.924 59.6335C258.075 59.6335 259.094 59.8459 259.98 60.2706C260.873 60.6892 261.584 61.2831 262.113 62.0526C262.642 62.8158 262.944 63.7083 263.018 64.7301H259.823C259.694 64.0469 259.386 63.4775 258.9 63.022C258.42 62.5604 257.777 62.3295 256.97 62.3295C256.287 62.3295 255.687 62.5142 255.17 62.8835C254.653 63.2467 254.25 63.7699 253.96 64.4531C253.677 65.1364 253.536 65.955 253.536 66.9091C253.536 67.8755 253.677 68.7064 253.96 69.402C254.243 70.0914 254.64 70.6238 255.151 70.9993C255.668 71.3686 256.275 71.5533 256.97 71.5533C257.463 71.5533 257.903 71.4609 258.29 71.2763C258.684 71.0855 259.014 70.8116 259.278 70.4545C259.543 70.0975 259.725 69.6636 259.823 69.1527H263.018C262.938 70.156 262.642 71.0455 262.131 71.821C261.621 72.5904 260.925 73.1937 260.045 73.6307C259.165 74.0616 258.13 74.277 256.942 74.277ZM154.948 93.5241V96.2663H147.396V93.5241H154.948ZM148.43 87.8182V102H145.208V87.8182H148.43ZM157.137 87.8182V102H153.923V87.8182H157.137ZM166.704 102.277C165.319 102.277 164.119 101.972 163.103 101.363C162.088 100.754 161.3 99.901 160.74 98.8054C160.186 97.7098 159.909 96.4295 159.909 94.9645C159.909 93.4995 160.186 92.2161 160.74 91.1143C161.3 90.0125 162.088 89.157 163.103 88.5476C164.119 87.9382 165.319 87.6335 166.704 87.6335C168.089 87.6335 169.289 87.9382 170.305 88.5476C171.321 89.157 172.105 90.0125 172.659 91.1143C173.22 92.2161 173.5 93.4995 173.5 94.9645C173.5 96.4295 173.22 97.7098 172.659 98.8054C172.105 99.901 171.321 100.754 170.305 101.363C169.289 101.972 168.089 102.277 166.704 102.277ZM166.723 99.5994C167.474 99.5994 168.101 99.3932 168.606 98.9808C169.111 98.5623 169.486 98.0021 169.733 97.3004C169.985 96.5987 170.111 95.817 170.111 94.9553C170.111 94.0874 169.985 93.3026 169.733 92.6009C169.486 91.893 169.111 91.3298 168.606 90.9112C168.101 90.4927 167.474 90.2834 166.723 90.2834C165.953 90.2834 165.313 90.4927 164.802 90.9112C164.297 91.3298 163.919 91.893 163.667 92.6009C163.42 93.3026 163.297 94.0874 163.297 94.9553C163.297 95.817 163.42 96.5987 163.667 97.3004C163.919 98.0021 164.297 98.5623 164.802 98.9808C165.313 99.3932 165.953 99.5994 166.723 99.5994ZM182.523 102.277C181.107 102.277 179.891 101.966 178.876 101.344C177.866 100.723 177.087 99.8641 176.54 98.7685C175.998 97.6667 175.727 96.3987 175.727 94.9645C175.727 93.5241 176.004 92.2531 176.558 91.1513C177.112 90.0433 177.894 89.1816 178.903 88.5661C179.919 87.9444 181.119 87.6335 182.504 87.6335C183.655 87.6335 184.674 87.8459 185.56 88.2706C186.453 88.6892 187.164 89.2831 187.693 90.0526C188.222 90.8158 188.524 91.7083 188.598 92.7301H185.403C185.274 92.0469 184.966 91.4775 184.48 91.022C184 90.5604 183.357 90.3295 182.55 90.3295C181.867 90.3295 181.267 90.5142 180.75 90.8835C180.233 91.2467 179.83 91.7699 179.54 92.4531C179.257 93.1364 179.116 93.955 179.116 94.9091C179.116 95.8755 179.257 96.7064 179.54 97.402C179.823 98.0914 180.22 98.6238 180.731 98.9993C181.248 99.3686 181.855 99.5533 182.55 99.5533C183.043 99.5533 183.483 99.4609 183.871 99.2763C184.265 99.0855 184.594 98.8116 184.858 98.4545C185.123 98.0975 185.305 97.6636 185.403 97.1527H188.598C188.518 98.156 188.222 99.0455 187.711 99.821C187.201 100.59 186.505 101.194 185.625 101.631C184.745 102.062 183.711 102.277 182.523 102.277ZM194.565 97.4759L200.243 87.8182H203.678V102H200.446V92.3331L194.786 102H191.342V87.8182H194.565V97.4759ZM205.522 90.5604V87.8182H217.931V90.5604H213.342V102H210.111V90.5604H205.522ZM226.287 102.277C224.865 102.277 223.637 101.982 222.603 101.391C221.575 100.794 220.784 99.9503 220.23 98.8608C219.676 97.7652 219.399 96.4756 219.399 94.9922C219.399 93.5334 219.676 92.2531 220.23 91.1513C220.79 90.0433 221.572 89.1816 222.575 88.5661C223.578 87.9444 224.757 87.6335 226.111 87.6335C226.985 87.6335 227.81 87.7751 228.586 88.0582C229.367 88.3352 230.057 88.7661 230.654 89.3509C231.257 89.9356 231.731 90.6804 232.076 91.5852C232.421 92.4839 232.593 93.5549 232.593 94.7983V95.8232H220.969V93.5703H229.389C229.383 92.9302 229.244 92.3608 228.974 91.8622C228.703 91.3575 228.324 90.9605 227.838 90.6712C227.358 90.3819 226.798 90.2372 226.157 90.2372C225.474 90.2372 224.874 90.4034 224.357 90.7358C223.84 91.062 223.437 91.4929 223.148 92.0284C222.864 92.5578 222.72 93.1394 222.714 93.7734V95.7401C222.714 96.5649 222.864 97.2727 223.166 97.8636C223.468 98.4484 223.889 98.8977 224.431 99.2116C224.973 99.5194 225.607 99.6733 226.333 99.6733C226.819 99.6733 227.259 99.6056 227.653 99.4702C228.047 99.3286 228.389 99.1224 228.678 98.8516C228.967 98.5807 229.186 98.2453 229.334 97.8452L232.454 98.196C232.257 99.0208 231.882 99.741 231.328 100.357C230.78 100.966 230.078 101.44 229.223 101.778C228.367 102.111 227.389 102.277 226.287 102.277ZM234.442 102L234.423 99.2486H234.913C235.282 99.2486 235.593 99.1655 235.845 98.9993C236.098 98.8331 236.307 98.5561 236.473 98.1683C236.639 97.7744 236.768 97.245 236.861 96.5803C236.953 95.9155 237.018 95.0876 237.055 94.0966L237.304 87.8182H247.645V102H244.413V90.5604H240.342L240.12 95.1307C240.065 96.3125 239.932 97.3374 239.723 98.2053C239.52 99.067 239.231 99.7779 238.855 100.338C238.486 100.898 238.021 101.317 237.461 101.594C236.901 101.865 236.239 102 235.476 102H234.442ZM257.289 102.277C255.867 102.277 254.639 101.982 253.605 101.391C252.577 100.794 251.786 99.9503 251.232 98.8608C250.678 97.7652 250.401 96.4756 250.401 94.9922C250.401 93.5334 250.678 92.2531 251.232 91.1513C251.792 90.0433 252.574 89.1816 253.577 88.5661C254.58 87.9444 255.759 87.6335 257.113 87.6335C257.987 87.6335 258.812 87.7751 259.588 88.0582C260.369 88.3352 261.059 88.7661 261.656 89.3509C262.259 89.9356 262.733 90.6804 263.078 91.5852C263.422 92.4839 263.595 93.5549 263.595 94.7983V95.8232H251.971V93.5703H260.391C260.385 92.9302 260.246 92.3608 259.975 91.8622C259.705 91.3575 259.326 90.9605 258.84 90.6712C258.36 90.3819 257.8 90.2372 257.159 90.2372C256.476 90.2372 255.876 90.4034 255.359 90.7358C254.842 91.062 254.439 91.4929 254.15 92.0284C253.866 92.5578 253.722 93.1394 253.716 93.7734V95.7401C253.716 96.5649 253.866 97.2727 254.168 97.8636C254.47 98.4484 254.891 98.8977 255.433 99.2116C255.975 99.5194 256.609 99.6733 257.335 99.6733C257.821 99.6733 258.261 99.6056 258.655 99.4702C259.049 99.3286 259.391 99.1224 259.68 98.8516C259.969 98.5807 260.188 98.2453 260.336 97.8452L263.456 98.196C263.259 99.0208 262.884 99.741 262.33 100.357C261.782 100.966 261.08 101.44 260.225 101.778C259.369 102.111 258.391 102.277 257.289 102.277ZM274.584 98.1129L278.795 87.8182H281.491L275.757 102H273.421L267.817 87.8182H270.485L274.584 98.1129ZM269.645 87.8182V102H266.422V87.8182H269.645ZM279.662 102V87.8182H282.857V102H279.662Z" fill="#502E12"/>
<defs>
<filter id="filter0_d_0_2919" x="0" y="0" width="427" height="157" filterUnits="userSpaceOnUse" color-interpolation-filters="sRGB">
<feFlood flood-opacity="0" result="BackgroundImageFix"/>
<feColorMatrix in="SourceAlpha" type="matrix" values="0 0 0 0 0 0 0 0 0 0 0 0 0 0 0 0 0 0 127 0" result="hardAlpha"/>
<feOffset/>
<feGaussianBlur stdDeviation="8"/>
<feComposite in2="hardAlpha" operator="out"/>
<feColorMatrix type="matrix" values="0 0 0 0 0.44391 0 0 0 0 0.44391 0 0 0 0 0.44391 0 0 0 0.25 0"/>
<feBlend mode="normal" in2="BackgroundImageFix" result="effect1_dropShadow_0_2919"/>
<feBlend mode="normal" in="SourceGraphic" in2="effect1_dropShadow_0_2919" result="shape"/>
</filter>
</defs>
</svg>
