<svg width="427" height="157" viewBox="0 0 427 157" fill="none" xmlns="http://www.w3.org/2000/svg">
<g filter="url(#filter0_d_878_398)">
<path d="M394.243 16C394.243 21.0137 401.21 25.0781 409.804 25.0781C410.206 25.0781 410.605 25.0654 411 25.0479V129.855C410.605 129.838 410.206 129.826 409.804 129.826C401.21 129.826 394.243 133.891 394.243 138.904C394.243 139.626 394.388 140.327 394.66 141H31.1436C31.416 140.327 31.5605 139.626 31.5605 138.904C31.5602 133.891 24.5937 129.826 16 129.826L16 25.0781C24.5939 25.0781 31.5605 21.0137 31.5605 16L394.243 16Z" fill="white"/>
</g>
<mask id="path-2-inside-1_878_398" fill="white">
<path d="M388.837 24C388.837 28.3319 395.556 31.8437 403.846 31.8437C404.234 31.8437 404.619 31.8325 405 31.8174V122.371C404.619 122.356 404.234 122.347 403.846 122.347C395.556 122.347 388.837 125.859 388.837 130.19C388.837 130.813 388.976 131.419 389.238 132H38.6084C38.8709 131.419 39.0097 130.813 39.0098 130.19C39.0098 125.859 32.2902 122.347 24.001 122.347H24V31.8428C32.2893 31.8428 39.0098 28.3319 39.0098 24H388.837Z"/>
</mask>
<path d="M388.837 24C388.837 28.3319 395.556 31.8437 403.846 31.8437C404.234 31.8437 404.619 31.8325 405 31.8174V122.371C404.619 122.356 404.234 122.347 403.846 122.347C395.556 122.347 388.837 125.859 388.837 130.19C388.837 130.813 388.976 131.419 389.238 132H38.6084C38.8709 131.419 39.0097 130.813 39.0098 130.19C39.0098 125.859 32.2902 122.347 24.001 122.347H24V31.8428C32.2893 31.8428 39.0098 28.3319 39.0098 24H388.837Z" fill="white"/>
<path d="M388.837 24H389.837V23H388.837V24ZM403.846 31.8437V32.8437V31.8437ZM405 31.8174H406V30.7768L404.96 30.8182L405 31.8174ZM405 122.371L404.96 123.37L406 123.412V122.371H405ZM403.846 122.347V121.347V122.347ZM388.837 130.19H387.837V130.19L388.837 130.19ZM389.238 132V133H390.788L390.15 131.588L389.238 132ZM38.6084 132L37.6971 131.588L37.0591 133H38.6084V132ZM39.0098 130.19L40.0098 130.19V130.19H39.0098ZM24.001 122.347L24.001 121.347H24.001V122.347ZM24 122.347H23V123.347H24V122.347ZM24 31.8428V30.8428H23V31.8428H24ZM39.0098 24V23H38.0098V24H39.0098ZM388.837 24H387.837C387.837 26.7256 389.932 28.9494 392.77 30.4326C395.656 31.9408 399.573 32.8437 403.846 32.8437V31.8437V30.8437C399.829 30.8437 396.242 29.9907 393.696 28.6601C391.102 27.3044 389.837 25.6063 389.837 24H388.837ZM403.846 31.8437V32.8437C404.253 32.8437 404.652 32.832 405.04 32.8166L405 31.8174L404.96 30.8182C404.586 30.8331 404.216 30.8437 403.846 30.8437V31.8437ZM405 31.8174H404V122.371H405H406V31.8174H405ZM405 122.371L405.04 121.372C404.648 121.356 404.25 121.347 403.846 121.347V122.347V123.347C404.218 123.347 404.59 123.356 404.96 123.37L405 122.371ZM403.846 122.347V121.347C399.573 121.347 395.656 122.25 392.77 123.758C389.932 125.241 387.837 127.465 387.837 130.19H388.837H389.837C389.837 128.584 391.102 126.886 393.696 125.53C396.242 124.2 399.829 123.347 403.846 123.347V122.347ZM388.837 130.19L387.837 130.19C387.837 130.966 388.01 131.711 388.327 132.412L389.238 132L390.15 131.588C389.941 131.127 389.837 130.661 389.837 130.19L388.837 130.19ZM389.238 132V131H38.6084V132V133H389.238V132ZM38.6084 132L39.5197 132.412C39.8362 131.711 40.0097 130.966 40.0098 130.19L39.0098 130.19L38.0098 130.19C38.0097 130.661 37.9056 131.127 37.6971 131.588L38.6084 132ZM39.0098 130.19H40.0098C40.0098 127.465 37.915 125.241 35.077 123.758C32.191 122.25 28.2735 121.347 24.001 121.347L24.001 122.347L24.001 123.347C28.0177 123.347 31.6045 124.2 34.1506 125.53C36.7447 126.886 38.0098 128.584 38.0098 130.19H39.0098ZM24.001 122.347V121.347H24V122.347V123.347H24.001V122.347ZM24 122.347H25V31.8428H24H23V122.347H24ZM24 31.8428V32.8428C28.2725 32.8428 32.1903 31.9401 35.0764 30.4322C37.9146 28.9493 40.0098 26.7257 40.0098 24H39.0098H38.0098C38.0098 25.6062 36.7447 27.304 34.1503 28.6595C31.6039 29.99 28.0168 30.8428 24 30.8428V31.8428ZM39.0098 24V25L388.837 25V24V23L39.0098 23V24Z" fill="#D9B881" mask="url(#path-2-inside-1_878_398)"/>
<path d="M176.948 66.984C176.468 68.072 175.956 69.016 175.412 69.816C174.884 70.6 174.204 71.2 173.372 71.616C172.54 72.032 171.452 72.24 170.108 72.24C169.692 72.24 169.236 72.208 168.74 72.144C168.244 72.08 167.788 71.992 167.372 71.88V68.76C167.756 68.92 168.18 69.032 168.644 69.096C169.108 69.16 169.54 69.192 169.94 69.192C170.468 69.192 170.892 69.104 171.212 68.928C171.548 68.752 171.812 68.512 172.004 68.208C172.212 67.888 172.38 67.544 172.508 67.176L166.58 54.864H170.42L173.612 62.28C173.692 62.44 173.788 62.648 173.9 62.904C174.012 63.16 174.124 63.424 174.236 63.696C174.348 63.968 174.436 64.208 174.5 64.416H174.62C174.684 64.224 174.764 63.992 174.86 63.72C174.972 63.432 175.084 63.144 175.196 62.856C175.324 62.552 175.436 62.288 175.532 62.064L178.508 54.864H182.252L176.948 66.984ZM191.422 58.656C192.894 58.656 194.086 59.232 194.998 60.384C195.91 61.52 196.366 63.2 196.366 65.424C196.366 66.912 196.15 68.168 195.718 69.192C195.286 70.2 194.694 70.96 193.942 71.472C193.19 71.984 192.318 72.24 191.326 72.24C190.702 72.24 190.158 72.16 189.694 72C189.246 71.84 188.862 71.632 188.542 71.376C188.222 71.12 187.942 70.848 187.702 70.56H187.51C187.574 70.864 187.622 71.184 187.654 71.52C187.686 71.84 187.702 72.16 187.702 72.48V77.76H184.126V58.896H187.03L187.534 60.6H187.702C187.942 60.248 188.23 59.928 188.566 59.64C188.902 59.336 189.302 59.096 189.766 58.92C190.246 58.744 190.798 58.656 191.422 58.656ZM190.27 61.512C189.646 61.512 189.15 61.64 188.782 61.896C188.414 62.152 188.142 62.544 187.966 63.072C187.806 63.584 187.718 64.232 187.702 65.016V65.4C187.702 66.248 187.782 66.968 187.942 67.56C188.102 68.136 188.374 68.576 188.758 68.88C189.142 69.184 189.662 69.336 190.318 69.336C190.862 69.336 191.31 69.184 191.662 68.88C192.014 68.576 192.278 68.128 192.454 67.536C192.63 66.944 192.718 66.224 192.718 65.376C192.718 64.096 192.518 63.136 192.118 62.496C191.734 61.84 191.118 61.512 190.27 61.512ZM211.217 65.424C211.217 66.512 211.065 67.48 210.761 68.328C210.473 69.176 210.049 69.896 209.489 70.488C208.945 71.064 208.281 71.504 207.497 71.808C206.713 72.096 205.825 72.24 204.833 72.24C203.921 72.24 203.073 72.096 202.289 71.808C201.521 71.504 200.857 71.064 200.297 70.488C199.737 69.896 199.297 69.176 198.977 68.328C198.673 67.48 198.521 66.512 198.521 65.424C198.521 63.968 198.777 62.744 199.289 61.752C199.801 60.744 200.537 59.976 201.497 59.448C202.457 58.92 203.593 58.656 204.905 58.656C206.137 58.656 207.225 58.92 208.169 59.448C209.113 59.976 209.857 60.744 210.401 61.752C210.945 62.744 211.217 63.968 211.217 65.424ZM202.169 65.424C202.169 66.288 202.257 67.016 202.433 67.608C202.625 68.184 202.921 68.624 203.321 68.928C203.721 69.216 204.241 69.36 204.881 69.36C205.521 69.36 206.033 69.216 206.417 68.928C206.817 68.624 207.105 68.184 207.281 67.608C207.473 67.016 207.569 66.288 207.569 65.424C207.569 64.56 207.473 63.84 207.281 63.264C207.105 62.688 206.817 62.256 206.417 61.968C206.017 61.68 205.497 61.536 204.857 61.536C203.913 61.536 203.225 61.864 202.793 62.52C202.377 63.16 202.169 64.128 202.169 65.424ZM222.765 58.896H226.701L221.517 65.184L227.157 72H223.101L217.749 65.352V72H214.173V58.896H217.749V65.256L222.765 58.896ZM232.488 64.08C232.488 64.352 232.472 64.688 232.44 65.088C232.424 65.488 232.4 65.896 232.368 66.312C232.352 66.728 232.328 67.096 232.296 67.416C232.264 67.736 232.24 67.96 232.224 68.088L238.272 58.896H242.568V72H239.112V66.768C239.112 66.336 239.128 65.864 239.16 65.352C239.192 64.824 239.224 64.336 239.256 63.888C239.304 63.424 239.336 63.072 239.352 62.832L233.328 72H229.032V58.896H232.488V64.08ZM256.532 72.24C255.236 72.24 254.132 72.008 253.22 71.544C252.308 71.064 251.612 70.328 251.132 69.336C250.652 68.344 250.412 67.072 250.412 65.52C250.412 63.92 250.684 62.616 251.228 61.608C251.772 60.6 252.524 59.856 253.484 59.376C254.46 58.896 255.58 58.656 256.844 58.656C257.74 58.656 258.516 58.744 259.172 58.92C259.844 59.096 260.428 59.304 260.924 59.544L259.868 62.304C259.308 62.08 258.78 61.896 258.284 61.752C257.804 61.608 257.324 61.536 256.844 61.536C256.22 61.536 255.7 61.688 255.284 61.992C254.868 62.28 254.556 62.72 254.348 63.312C254.156 63.888 254.06 64.616 254.06 65.496C254.06 66.36 254.164 67.08 254.372 67.656C254.596 68.216 254.916 68.64 255.332 68.928C255.748 69.2 256.252 69.336 256.844 69.336C257.596 69.336 258.26 69.24 258.836 69.048C259.412 68.84 259.972 68.56 260.516 68.208V71.256C259.972 71.608 259.396 71.856 258.788 72C258.196 72.16 257.444 72.24 256.532 72.24ZM150.718 86.896V91.936H155.71V86.896H159.286V100H155.71V94.6H150.718V100H147.142V86.896H150.718ZM174.936 93.424C174.936 94.512 174.784 95.48 174.48 96.328C174.192 97.176 173.768 97.896 173.208 98.488C172.664 99.064 172 99.504 171.216 99.808C170.432 100.096 169.544 100.24 168.552 100.24C167.64 100.24 166.792 100.096 166.008 99.808C165.24 99.504 164.576 99.064 164.016 98.488C163.456 97.896 163.016 97.176 162.696 96.328C162.392 95.48 162.24 94.512 162.24 93.424C162.24 91.968 162.496 90.744 163.008 89.752C163.52 88.744 164.256 87.976 165.216 87.448C166.176 86.92 167.312 86.656 168.624 86.656C169.856 86.656 170.944 86.92 171.888 87.448C172.832 87.976 173.576 88.744 174.12 89.752C174.664 90.744 174.936 91.968 174.936 93.424ZM165.888 93.424C165.888 94.288 165.976 95.016 166.152 95.608C166.344 96.184 166.64 96.624 167.04 96.928C167.44 97.216 167.96 97.36 168.6 97.36C169.24 97.36 169.752 97.216 170.136 96.928C170.536 96.624 170.824 96.184 171 95.608C171.192 95.016 171.288 94.288 171.288 93.424C171.288 92.56 171.192 91.84 171 91.264C170.824 90.688 170.536 90.256 170.136 89.968C169.736 89.68 169.216 89.536 168.576 89.536C167.632 89.536 166.944 89.864 166.512 90.52C166.096 91.16 165.888 92.128 165.888 93.424ZM183.22 100.24C181.924 100.24 180.82 100.008 179.908 99.544C178.996 99.064 178.3 98.328 177.82 97.336C177.34 96.344 177.1 95.072 177.1 93.52C177.1 91.92 177.372 90.616 177.916 89.608C178.46 88.6 179.212 87.856 180.172 87.376C181.148 86.896 182.268 86.656 183.532 86.656C184.428 86.656 185.204 86.744 185.86 86.92C186.532 87.096 187.116 87.304 187.612 87.544L186.556 90.304C185.996 90.08 185.468 89.896 184.972 89.752C184.492 89.608 184.012 89.536 183.532 89.536C182.908 89.536 182.388 89.688 181.972 89.992C181.556 90.28 181.244 90.72 181.036 91.312C180.844 91.888 180.748 92.616 180.748 93.496C180.748 94.36 180.852 95.08 181.06 95.656C181.284 96.216 181.604 96.64 182.02 96.928C182.436 97.2 182.94 97.336 183.532 97.336C184.284 97.336 184.948 97.24 185.524 97.048C186.1 96.84 186.66 96.56 187.204 96.208V99.256C186.66 99.608 186.084 99.856 185.476 100C184.884 100.16 184.132 100.24 183.22 100.24ZM193.676 92.08C193.676 92.352 193.66 92.688 193.628 93.088C193.612 93.488 193.588 93.896 193.556 94.312C193.54 94.728 193.516 95.096 193.484 95.416C193.452 95.736 193.428 95.96 193.412 96.088L199.46 86.896H203.756V100H200.3V94.768C200.3 94.336 200.316 93.864 200.348 93.352C200.38 92.824 200.412 92.336 200.444 91.888C200.492 91.424 200.524 91.072 200.54 90.832L194.516 100H190.22V86.896H193.676V92.08ZM218.341 89.584H214.045V100H210.469V89.584H206.173V86.896H218.341V89.584ZM225.924 86.656C227.14 86.656 228.18 86.888 229.044 87.352C229.924 87.816 230.604 88.488 231.084 89.368C231.564 90.248 231.804 91.328 231.804 92.608V94.336H223.356C223.388 95.344 223.684 96.136 224.244 96.712C224.82 97.288 225.612 97.576 226.62 97.576C227.468 97.576 228.236 97.496 228.924 97.336C229.612 97.16 230.324 96.896 231.06 96.544V99.304C230.42 99.624 229.74 99.856 229.02 100C228.316 100.16 227.46 100.24 226.452 100.24C225.14 100.24 223.98 100 222.972 99.52C221.964 99.024 221.172 98.28 220.596 97.288C220.02 96.296 219.732 95.048 219.732 93.544C219.732 92.008 219.988 90.736 220.5 89.728C221.028 88.704 221.756 87.936 222.684 87.424C223.612 86.912 224.692 86.656 225.924 86.656ZM225.948 89.2C225.26 89.2 224.684 89.424 224.22 89.872C223.772 90.32 223.508 91.016 223.428 91.96H228.444C228.444 91.432 228.348 90.96 228.156 90.544C227.98 90.128 227.708 89.8 227.34 89.56C226.972 89.32 226.508 89.2 225.948 89.2ZM246.44 100H242.864V89.584H239.576C239.416 91.504 239.216 93.144 238.976 94.504C238.752 95.848 238.464 96.944 238.112 97.792C237.776 98.64 237.344 99.264 236.816 99.664C236.288 100.048 235.64 100.24 234.872 100.24C234.456 100.24 234.08 100.208 233.744 100.144C233.408 100.08 233.104 99.984 232.832 99.856V97C233.008 97.064 233.192 97.12 233.384 97.168C233.576 97.216 233.776 97.24 233.984 97.24C234.208 97.24 234.416 97.152 234.608 96.976C234.816 96.8 235.008 96.488 235.184 96.04C235.376 95.592 235.552 94.976 235.712 94.192C235.872 93.408 236.016 92.424 236.144 91.24C236.288 90.04 236.416 88.592 236.528 86.896H246.44V100ZM255.573 86.656C256.789 86.656 257.829 86.888 258.693 87.352C259.573 87.816 260.253 88.488 260.733 89.368C261.213 90.248 261.453 91.328 261.453 92.608V94.336H253.005C253.037 95.344 253.333 96.136 253.893 96.712C254.469 97.288 255.261 97.576 256.269 97.576C257.117 97.576 257.885 97.496 258.573 97.336C259.261 97.16 259.973 96.896 260.709 96.544V99.304C260.069 99.624 259.389 99.856 258.669 100C257.965 100.16 257.109 100.24 256.101 100.24C254.789 100.24 253.629 100 252.621 99.52C251.613 99.024 250.821 98.28 250.245 97.288C249.669 96.296 249.381 95.048 249.381 93.544C249.381 92.008 249.637 90.736 250.149 89.728C250.677 88.704 251.405 87.936 252.333 87.424C253.261 86.912 254.341 86.656 255.573 86.656ZM255.597 89.2C254.909 89.2 254.333 89.424 253.869 89.872C253.421 90.32 253.157 91.016 253.077 91.96H258.093C258.093 91.432 257.997 90.96 257.805 90.544C257.629 90.128 257.357 89.8 256.989 89.56C256.621 89.32 256.157 89.2 255.597 89.2ZM280.864 86.896V100H277.528V93.568C277.528 92.928 277.536 92.304 277.552 91.696C277.584 91.088 277.624 90.528 277.672 90.016H277.6L273.976 100H271.288L267.616 89.992H267.52C267.584 90.52 267.624 91.088 267.64 91.696C267.672 92.288 267.688 92.944 267.688 93.664V100H264.352V86.896H269.416L272.68 95.776L275.992 86.896H280.864Z" fill="#62432B"/>
<defs>
<filter id="filter0_d_878_398" x="0" y="0" width="427" height="157" filterUnits="userSpaceOnUse" color-interpolation-filters="sRGB">
<feFlood flood-opacity="0" result="BackgroundImageFix"/>
<feColorMatrix in="SourceAlpha" type="matrix" values="0 0 0 0 0 0 0 0 0 0 0 0 0 0 0 0 0 0 127 0" result="hardAlpha"/>
<feOffset/>
<feGaussianBlur stdDeviation="8"/>
<feComposite in2="hardAlpha" operator="out"/>
<feColorMatrix type="matrix" values="0 0 0 0 0.44391 0 0 0 0 0.44391 0 0 0 0 0.44391 0 0 0 0.25 0"/>
<feBlend mode="normal" in2="BackgroundImageFix" result="effect1_dropShadow_878_398"/>
<feBlend mode="normal" in="SourceGraphic" in2="effect1_dropShadow_878_398" result="shape"/>
</filter>
</defs>
</svg>
