<svg width="652" height="183" viewBox="0 0 652 183" fill="none" xmlns="http://www.w3.org/2000/svg">
<g filter="url(#filter0_d_874_181)">
<path d="M609.697 16.9017C609.697 22.8938 620.633 27.7513 634.122 27.7513C634.754 27.7513 635.38 27.7371 635.999 27.7162V152.974C635.38 152.953 634.754 152.939 634.122 152.939C620.633 152.939 609.698 157.797 609.697 163.788C609.697 164.65 609.925 165.488 610.353 166.292H39.7695C40.197 165.489 40.4238 164.65 40.4238 163.788C40.4234 157.797 29.4889 152.939 16 152.939V27.7513C29.4891 27.7513 40.4238 22.8938 40.4238 16.9017H609.697Z" fill="white"/>
</g>
<mask id="path-2-inside-1_874_181" fill="white">
<path d="M596.171 26.5245C596.172 31.6956 606.593 35.8878 619.448 35.8878C620.05 35.8878 620.647 35.8746 621.238 35.8566V143.955C620.647 143.937 620.05 143.926 619.448 143.926C606.593 143.926 596.171 148.118 596.171 153.289C596.171 154.032 596.387 154.755 596.794 155.448H53.0308C53.4377 154.755 53.6537 154.032 53.6538 153.289C53.6538 148.28 43.8741 144.188 31.5757 143.938L30.3774 143.926V35.8878C43.2325 35.8878 53.6537 31.6956 53.6538 26.5245H596.171Z"/>
</mask>
<path d="M596.171 26.5245C596.172 31.6956 606.593 35.8878 619.448 35.8878C620.05 35.8878 620.647 35.8746 621.238 35.8566V143.955C620.647 143.937 620.05 143.926 619.448 143.926C606.593 143.926 596.171 148.118 596.171 153.289C596.171 154.032 596.387 154.755 596.794 155.448H53.0308C53.4377 154.755 53.6537 154.032 53.6538 153.289C53.6538 148.28 43.8741 144.188 31.5757 143.938L30.3774 143.926V35.8878C43.2325 35.8878 53.6537 31.6956 53.6538 26.5245H596.171Z" fill="white"/>
<path d="M596.171 26.5245L597.171 26.5245V25.5245H596.171V26.5245ZM619.448 35.8878V36.8878V35.8878ZM621.238 35.8566H622.238V34.8255L621.207 34.857L621.238 35.8566ZM621.238 143.955L621.207 144.955L622.238 144.986V143.955H621.238ZM619.448 143.926V142.926V143.926ZM596.171 153.289H595.171V153.289L596.171 153.289ZM596.794 155.448V156.448H598.541L597.657 154.942L596.794 155.448ZM53.0308 155.448L52.1684 154.942L51.2842 156.448H53.0308V155.448ZM53.6538 153.289L54.6538 153.289V153.289H53.6538ZM31.5757 143.938L31.5961 142.938L31.5855 142.938L31.5757 143.938ZM30.3774 143.926H29.3774V144.916L30.3677 144.926L30.3774 143.926ZM30.3774 35.8878V34.8878H29.3774V35.8878H30.3774ZM53.6538 26.5245V25.5245H52.6538L52.6538 26.5245L53.6538 26.5245ZM596.171 26.5245L595.171 26.5246C595.171 28.1788 596.009 29.655 597.311 30.8937C598.612 32.1302 600.44 33.1977 602.616 34.0731C606.974 35.8261 612.925 36.8878 619.448 36.8878V35.8878V34.8878C613.115 34.8878 607.429 33.8535 603.362 32.2176C601.326 31.3986 599.745 30.4484 598.69 29.4445C597.637 28.4428 597.171 27.4559 597.171 26.5245L596.171 26.5245ZM619.448 35.8878V36.8878C620.064 36.8878 620.672 36.8743 621.268 36.8561L621.238 35.8566L621.207 34.857C620.622 34.875 620.036 34.8878 619.448 34.8878V35.8878ZM621.238 35.8566H620.238V143.955H621.238H622.238V35.8566H621.238ZM621.238 143.955L621.268 142.956C620.67 142.937 620.062 142.926 619.448 142.926V143.926V144.926C620.038 144.926 620.624 144.937 621.207 144.955L621.238 143.955ZM619.448 143.926V142.926C612.925 142.926 606.973 143.988 602.616 145.741C600.44 146.616 598.612 147.683 597.311 148.92C596.009 150.159 595.171 151.635 595.171 153.289H596.171H597.171C597.171 152.358 597.636 151.371 598.69 150.369C599.745 149.365 601.326 148.415 603.362 147.596C607.429 145.96 613.115 144.926 619.448 144.926V143.926ZM596.171 153.289L595.171 153.289C595.172 154.234 595.448 155.13 595.932 155.955L596.794 155.448L597.657 154.942C597.327 154.38 597.171 153.831 597.171 153.289L596.171 153.289ZM596.794 155.448V154.448H53.0308V155.448V156.448H596.794V155.448ZM53.0308 155.448L53.8932 155.955C54.3773 155.13 54.6537 154.234 54.6538 153.289L53.6538 153.289L52.6538 153.289C52.6537 153.831 52.4981 154.38 52.1684 154.942L53.0308 155.448ZM53.6538 153.289H54.6538C54.6538 151.687 53.8677 150.251 52.6352 149.037C51.406 147.827 49.6768 146.777 47.6154 145.908C43.4881 144.166 37.8371 143.065 31.5961 142.938L31.5757 143.938L31.5553 144.937C37.6127 145.061 43.0007 146.131 46.8379 147.75C48.7587 148.561 50.243 149.489 51.232 150.462C52.2175 151.433 52.6538 152.386 52.6538 153.289H53.6538ZM31.5757 143.938L31.5855 142.938L30.3872 142.926L30.3774 143.926L30.3677 144.926L31.5659 144.938L31.5757 143.938ZM30.3774 143.926H31.3774V35.8878H30.3774H29.3774V143.926H30.3774ZM30.3774 35.8878V36.8878C36.9002 36.8878 42.8517 35.8261 47.2094 34.0731C49.3856 33.1977 51.2136 32.1302 52.5137 30.8937C53.8162 29.655 54.6538 28.1788 54.6538 26.5246L53.6538 26.5245L52.6538 26.5245C52.6538 27.4559 52.1887 28.4428 51.1354 29.4445C50.0798 30.4484 48.499 31.3986 46.463 32.2176C42.3964 33.8535 36.7097 34.8878 30.3774 34.8878V35.8878ZM53.6538 26.5245V27.5245H596.171V26.5245V25.5245H53.6538V26.5245Z" fill="#D9C29D" mask="url(#path-2-inside-1_874_181)"/>
<defs>
<filter id="filter0_d_874_181" x="0" y="0.901733" width="651.999" height="181.391" filterUnits="userSpaceOnUse" color-interpolation-filters="sRGB">
<feFlood flood-opacity="0" result="BackgroundImageFix"/>
<feColorMatrix in="SourceAlpha" type="matrix" values="0 0 0 0 0 0 0 0 0 0 0 0 0 0 0 0 0 0 127 0" result="hardAlpha"/>
<feOffset/>
<feGaussianBlur stdDeviation="8"/>
<feComposite in2="hardAlpha" operator="out"/>
<feColorMatrix type="matrix" values="0 0 0 0 0.44391 0 0 0 0 0.44391 0 0 0 0 0.44391 0 0 0 0.25 0"/>
<feBlend mode="normal" in2="BackgroundImageFix" result="effect1_dropShadow_874_181"/>
<feBlend mode="normal" in="SourceGraphic" in2="effect1_dropShadow_874_181" result="shape"/>
</filter>
</defs>
</svg>
