<svg width="427" height="157" viewBox="0 0 427 157" fill="none" xmlns="http://www.w3.org/2000/svg">
<g filter="url(#filter0_d_63_446)">
<path d="M394.243 16C394.243 21.0137 401.21 25.0781 409.804 25.0781C410.206 25.0781 410.605 25.0654 411 25.0479V129.855C410.605 129.838 410.206 129.826 409.804 129.826C401.21 129.826 394.244 133.891 394.243 138.904C394.243 139.626 394.388 140.327 394.66 141H31.1436C31.416 140.327 31.5605 139.626 31.5605 138.904C31.5602 133.891 24.5937 129.826 16 129.826V25.0781C24.5939 25.0781 31.5605 21.0137 31.5605 16L394.243 16Z" fill="white"/>
</g>
<mask id="path-2-inside-1_63_446" fill="white">
<path d="M388.837 24C388.837 28.3319 395.556 31.8437 403.846 31.8437C404.234 31.8437 404.619 31.8325 405 31.8174V122.371C404.619 122.356 404.234 122.347 403.846 122.347C395.556 122.347 388.837 125.859 388.837 130.19C388.837 130.813 388.976 131.419 389.238 132H38.6084C38.8709 131.419 39.0097 130.813 39.0098 130.19C39.0098 125.859 32.2902 122.347 24.001 122.347H24V31.8428C32.2893 31.8428 39.0098 28.3319 39.0098 24L388.837 24Z"/>
</mask>
<path d="M388.837 24C388.837 28.3319 395.556 31.8437 403.846 31.8437C404.234 31.8437 404.619 31.8325 405 31.8174V122.371C404.619 122.356 404.234 122.347 403.846 122.347C395.556 122.347 388.837 125.859 388.837 130.19C388.837 130.813 388.976 131.419 389.238 132H38.6084C38.8709 131.419 39.0097 130.813 39.0098 130.19C39.0098 125.859 32.2902 122.347 24.001 122.347H24V31.8428C32.2893 31.8428 39.0098 28.3319 39.0098 24L388.837 24Z" fill="white"/>
<path d="M388.837 24H389.837V23H388.837V24ZM403.846 31.8437L403.846 32.8438L403.846 32.8437L403.846 31.8437ZM405 31.8174H406V30.7768L404.96 30.8182L405 31.8174ZM405 122.371L404.96 123.37L406 123.412V122.371H405ZM403.846 122.347L403.846 121.347H403.846V122.347ZM388.837 130.19L387.837 130.19L387.837 130.19L388.837 130.19ZM389.238 132V133H390.788L390.15 131.588L389.238 132ZM38.6084 132L37.6971 131.588L37.0591 133H38.6084V132ZM39.0098 130.19L40.0098 130.19V130.19H39.0098ZM24.001 122.347L24.001 121.347H24.001V122.347ZM24 122.347H23V123.347H24V122.347ZM24 31.8428V30.8428H23V31.8428H24ZM39.0098 24V23H38.0098V24H39.0098ZM388.837 24H387.837C387.837 26.7256 389.932 28.9494 392.77 30.4326C395.656 31.9408 399.573 32.8437 403.846 32.8437V31.8437V30.8437C399.829 30.8437 396.242 29.9907 393.696 28.6601C391.102 27.3044 389.837 25.6063 389.837 24H388.837ZM403.846 31.8437L403.846 32.8437C404.253 32.8437 404.652 32.832 405.04 32.8166L405 31.8174L404.96 30.8182C404.586 30.8331 404.216 30.8437 403.846 30.8438L403.846 31.8437ZM405 31.8174H404V122.371H405H406V31.8174H405ZM405 122.371L405.04 121.372C404.648 121.356 404.25 121.347 403.846 121.347L403.846 122.347L403.846 123.347C404.218 123.347 404.59 123.356 404.96 123.37L405 122.371ZM403.846 122.347V121.347C399.573 121.347 395.656 122.25 392.77 123.758C389.932 125.241 387.837 127.465 387.837 130.19H388.837H389.837C389.837 128.584 391.102 126.886 393.696 125.53C396.242 124.2 399.829 123.347 403.846 123.347V122.347ZM388.837 130.19L387.837 130.19C387.837 130.966 388.01 131.711 388.327 132.412L389.238 132L390.15 131.588C389.941 131.127 389.837 130.661 389.837 130.19L388.837 130.19ZM389.238 132V131H38.6084V132V133H389.238V132ZM38.6084 132L39.5197 132.412C39.8362 131.711 40.0097 130.966 40.0098 130.19L39.0098 130.19L38.0098 130.19C38.0097 130.661 37.9056 131.127 37.6971 131.588L38.6084 132ZM39.0098 130.19H40.0098C40.0098 127.465 37.915 125.241 35.077 123.758C32.191 122.25 28.2735 121.347 24.001 121.347L24.001 122.347L24.001 123.347C28.0177 123.347 31.6045 124.2 34.1506 125.53C36.7447 126.886 38.0098 128.584 38.0098 130.19H39.0098ZM24.001 122.347V121.347H24V122.347V123.347H24.001V122.347ZM24 122.347H25V31.8428H24H23V122.347H24ZM24 31.8428V32.8428C28.2725 32.8428 32.1903 31.9401 35.0764 30.4322C37.9146 28.9493 40.0098 26.7257 40.0098 24H39.0098H38.0098C38.0098 25.6062 36.7447 27.304 34.1503 28.6595C31.6039 29.99 28.0168 30.8428 24 30.8428V31.8428ZM39.0098 24V25L388.837 25V24V23L39.0098 23V24Z" fill="#D9B881" mask="url(#path-2-inside-1_63_446)"/>
<path d="M158.723 74.2585C157.394 74.2585 156.212 74.0308 155.178 73.5753C154.15 73.1198 153.338 72.4858 152.741 71.6733C152.143 70.8608 151.826 69.9221 151.79 68.8572H155.261C155.292 69.3681 155.461 69.8144 155.769 70.196C156.077 70.5715 156.486 70.8639 156.997 71.0732C157.508 71.2824 158.08 71.3871 158.714 71.3871C159.391 71.3871 159.991 71.2701 160.515 71.0362C161.038 70.7962 161.447 70.4638 161.743 70.0391C162.038 69.6143 162.183 69.125 162.177 68.571C162.183 67.9986 162.035 67.4938 161.733 67.0568C161.432 66.6198 160.995 66.2782 160.422 66.032C159.856 65.7857 159.173 65.6626 158.373 65.6626H156.701V63.022H158.373C159.031 63.022 159.607 62.9081 160.099 62.6804C160.598 62.4527 160.989 62.1326 161.272 61.7202C161.555 61.3016 161.693 60.8184 161.687 60.2706C161.693 59.7351 161.573 59.2704 161.327 58.8764C161.087 58.4763 160.745 58.1655 160.302 57.9439C159.865 57.7223 159.351 57.6115 158.76 57.6115C158.182 57.6115 157.646 57.7161 157.154 57.9254C156.661 58.1347 156.264 58.4332 155.963 58.821C155.661 59.2027 155.501 59.6581 155.483 60.1875H152.187C152.211 59.1288 152.516 58.1993 153.101 57.3991C153.691 56.5928 154.479 55.965 155.464 55.5156C156.449 55.0601 157.554 54.8324 158.779 54.8324C160.041 54.8324 161.136 55.0694 162.066 55.5433C163.001 56.0111 163.725 56.642 164.236 57.4361C164.746 58.2301 165.002 59.1072 165.002 60.0675C165.008 61.1323 164.694 62.0249 164.06 62.745C163.432 63.4652 162.607 63.9361 161.586 64.1577V64.3054C162.915 64.4901 163.934 64.9825 164.642 65.7827C165.356 66.5767 165.71 67.5646 165.704 68.7464C165.704 69.8052 165.402 70.7531 164.799 71.5902C164.202 72.4212 163.377 73.0736 162.324 73.5476C161.278 74.0215 160.078 74.2585 158.723 74.2585ZM172.991 74.2862C172.092 74.2862 171.283 74.1262 170.562 73.8061C169.848 73.4799 169.282 72.9998 168.864 72.3658C168.451 71.7318 168.245 70.95 168.245 70.0206C168.245 69.2204 168.393 68.5587 168.688 68.0355C168.984 67.5123 169.387 67.0938 169.898 66.7798C170.409 66.4659 170.984 66.2289 171.624 66.0689C172.271 65.9027 172.938 65.7827 173.628 65.7088C174.459 65.6226 175.133 65.5457 175.65 65.478C176.167 65.4041 176.542 65.2933 176.776 65.1456C177.016 64.9917 177.136 64.7547 177.136 64.4347V64.3793C177.136 63.6837 176.93 63.1451 176.518 62.7635C176.105 62.3819 175.511 62.1911 174.736 62.1911C173.917 62.1911 173.268 62.3696 172.788 62.7266C172.314 63.0836 171.994 63.5052 171.827 63.9915L168.707 63.5483C168.953 62.6866 169.359 61.9664 169.925 61.3878C170.492 60.803 171.184 60.366 172.003 60.0767C172.821 59.7812 173.726 59.6335 174.717 59.6335C175.4 59.6335 176.081 59.7135 176.758 59.8736C177.435 60.0336 178.053 60.2983 178.614 60.6676C179.174 61.0308 179.623 61.5263 179.962 62.1541C180.306 62.782 180.479 63.5668 180.479 64.5085V74H177.266V72.0518H177.155C176.952 72.4458 176.665 72.8151 176.296 73.1598C175.933 73.4983 175.474 73.7723 174.92 73.9815C174.373 74.1847 173.729 74.2862 172.991 74.2862ZM173.859 71.8303C174.53 71.8303 175.111 71.6979 175.604 71.4332C176.096 71.1624 176.475 70.8054 176.739 70.3622C177.01 69.919 177.146 69.4358 177.146 68.9126V67.2415C177.041 67.3277 176.862 67.4077 176.61 67.4815C176.364 67.5554 176.087 67.62 175.779 67.6754C175.471 67.7308 175.167 67.7801 174.865 67.8232C174.563 67.8662 174.302 67.9032 174.08 67.9339C173.582 68.0017 173.135 68.1125 172.741 68.2663C172.347 68.4202 172.037 68.6357 171.809 68.9126C171.581 69.1835 171.467 69.5343 171.467 69.9652C171.467 70.5807 171.692 71.0455 172.141 71.3594C172.591 71.6733 173.163 71.8303 173.859 71.8303ZM193.58 65.5241V68.2663H186.028V65.5241H193.58ZM187.062 59.8182V74H183.839V59.8182H187.062ZM195.768 59.8182V74H192.555V59.8182H195.768ZM207.533 74V62.5327H204.505C203.736 62.5327 203.145 62.7112 202.732 63.0682C202.32 63.4252 202.117 63.8684 202.123 64.3977C202.117 64.9271 202.311 65.3641 202.705 65.7088C203.099 66.0535 203.662 66.2259 204.394 66.2259H208.586V68.6634H204.394C203.262 68.6634 202.283 68.4848 201.458 68.1278C200.633 67.7708 199.999 67.2661 199.556 66.6136C199.113 65.9612 198.891 65.1979 198.891 64.3239C198.891 63.4129 199.116 62.6219 199.565 61.951C200.021 61.2739 200.667 60.7507 201.504 60.3814C202.348 60.0059 203.348 59.8182 204.505 59.8182H210.663V74H207.533ZM198.374 74L202.335 66.7244H205.631L201.661 74H198.374ZM212.441 62.5604V59.8182H224.85V62.5604H220.261V74H217.03V62.5604H212.441ZM230.734 69.4759L236.412 59.8182H239.847V74H236.615V64.3331L230.955 74H227.511V59.8182H230.734V69.4759ZM251.662 74V62.5327H248.634C247.865 62.5327 247.274 62.7112 246.861 63.0682C246.449 63.4252 246.246 63.8684 246.252 64.3977C246.246 64.9271 246.44 65.3641 246.834 65.7088C247.227 66.0535 247.791 66.2259 248.523 66.2259H252.715V68.6634H248.523C247.391 68.6634 246.412 68.4848 245.587 68.1278C244.762 67.7708 244.128 67.2661 243.685 66.6136C243.242 65.9612 243.02 65.1979 243.02 64.3239C243.02 63.4129 243.245 62.6219 243.694 61.951C244.15 61.2739 244.796 60.7507 245.633 60.3814C246.477 60.0059 247.477 59.8182 248.634 59.8182H254.792V74H251.662ZM242.503 74L246.464 66.7244H249.76L245.79 74H242.503ZM264.607 74V59.8182H270.562C272.243 59.8182 273.569 60.1536 274.542 60.8246C275.52 61.4955 276.01 62.4311 276.01 63.6314C276.01 64.4254 275.733 65.0748 275.179 65.5795C274.631 66.0781 273.883 66.4136 272.935 66.5859C273.68 66.6475 274.332 66.8352 274.892 67.1491C275.459 67.4631 275.902 67.8755 276.222 68.3864C276.542 68.8973 276.702 69.4851 276.702 70.1499C276.702 70.9316 276.496 71.6117 276.084 72.1903C275.677 72.7628 275.083 73.209 274.302 73.5291C273.526 73.843 272.584 74 271.476 74H264.607ZM267.737 71.3686H271.476C272.092 71.3686 272.575 71.224 272.926 70.9347C273.277 70.6392 273.452 70.2391 273.452 69.7344C273.452 69.1496 273.277 68.6911 272.926 68.3587C272.575 68.0201 272.092 67.8509 271.476 67.8509H267.737V71.3686ZM267.737 65.6903H270.627C271.082 65.6903 271.473 65.6257 271.799 65.4964C272.126 65.361 272.375 65.1733 272.547 64.9332C272.72 64.687 272.806 64.3946 272.806 64.0561C272.806 63.5698 272.606 63.1882 272.206 62.9112C271.812 62.6342 271.264 62.4957 270.562 62.4957H267.737V65.6903ZM180.576 87.8182V90.5604H174.463V102H171.195V87.8182H180.576ZM183.255 107.318V87.8182H186.542V90.1634H186.736C186.909 89.8187 187.152 89.4524 187.466 89.0646C187.78 88.6707 188.204 88.3352 188.74 88.0582C189.275 87.7751 189.959 87.6335 190.79 87.6335C191.885 87.6335 192.873 87.9136 193.753 88.4737C194.64 89.0277 195.341 89.8494 195.858 90.9389C196.382 92.0223 196.643 93.3518 196.643 94.9276C196.643 96.4848 196.388 97.8082 195.877 98.8977C195.366 99.9872 194.67 100.818 193.79 101.391C192.91 101.963 191.913 102.249 190.799 102.249C189.986 102.249 189.312 102.114 188.777 101.843C188.241 101.572 187.81 101.246 187.484 100.864C187.164 100.477 186.915 100.11 186.736 99.7656H186.598V107.318H183.255ZM186.533 94.9091C186.533 95.8262 186.662 96.6295 186.921 97.3189C187.186 98.0083 187.564 98.5469 188.057 98.9347C188.555 99.3163 189.158 99.5071 189.866 99.5071C190.605 99.5071 191.223 99.3101 191.722 98.9162C192.221 98.5161 192.596 97.9714 192.848 97.282C193.107 96.5864 193.236 95.7955 193.236 94.9091C193.236 94.0289 193.11 93.2472 192.858 92.5639C192.605 91.8807 192.23 91.3452 191.731 90.9574C191.233 90.5696 190.611 90.3757 189.866 90.3757C189.152 90.3757 188.546 90.5634 188.047 90.9389C187.549 91.3144 187.17 91.8407 186.912 92.5178C186.659 93.1948 186.533 93.992 186.533 94.9091ZM201.1 107.318C200.645 107.318 200.223 107.281 199.835 107.207C199.454 107.14 199.149 107.06 198.921 106.967L199.697 104.364C200.183 104.505 200.617 104.573 200.999 104.567C201.38 104.561 201.716 104.441 202.005 104.207C202.301 103.979 202.55 103.597 202.753 103.062L203.039 102.295L197.897 87.8182H201.442L204.71 98.5284H204.858L208.136 87.8182H211.691L206.012 103.717C205.748 104.468 205.397 105.112 204.96 105.647C204.523 106.189 203.987 106.601 203.353 106.884C202.725 107.174 201.974 107.318 201.1 107.318ZM214.003 102V87.8182H225.979V102H222.756V90.5604H217.198V102H214.003ZM229.416 102V87.8182H241.391V102H238.168V90.5604H232.61V102H229.416ZM251.106 102.277C249.684 102.277 248.456 101.982 247.422 101.391C246.394 100.794 245.603 99.9503 245.049 98.8608C244.495 97.7652 244.218 96.4756 244.218 94.9922C244.218 93.5334 244.495 92.2531 245.049 91.1513C245.609 90.0433 246.391 89.1816 247.394 88.5661C248.398 87.9444 249.576 87.6335 250.931 87.6335C251.805 87.6335 252.63 87.7751 253.405 88.0582C254.187 88.3352 254.876 88.7661 255.473 89.3509C256.076 89.9356 256.55 90.6804 256.895 91.5852C257.24 92.4839 257.412 93.5549 257.412 94.7983V95.8232H245.788V93.5703H254.208C254.202 92.9302 254.064 92.3608 253.793 91.8622C253.522 91.3575 253.143 90.9605 252.657 90.6712C252.177 90.3819 251.617 90.2372 250.977 90.2372C250.294 90.2372 249.693 90.4034 249.176 90.7358C248.659 91.062 248.256 91.4929 247.967 92.0284C247.684 92.5578 247.539 93.1394 247.533 93.7734V95.7401C247.533 96.5649 247.684 97.2727 247.985 97.8636C248.287 98.4484 248.709 98.8977 249.25 99.2116C249.792 99.5194 250.426 99.6733 251.152 99.6733C251.639 99.6733 252.079 99.6056 252.473 99.4702C252.867 99.3286 253.208 99.1224 253.497 98.8516C253.787 98.5807 254.005 98.2453 254.153 97.8452L257.274 98.196C257.077 99.0208 256.701 99.741 256.147 100.357C255.599 100.966 254.898 101.44 254.042 101.778C253.187 102.111 252.208 102.277 251.106 102.277Z" fill="#502E12"/>
<defs>
<filter id="filter0_d_63_446" x="0" y="0" width="427" height="157" filterUnits="userSpaceOnUse" color-interpolation-filters="sRGB">
<feFlood flood-opacity="0" result="BackgroundImageFix"/>
<feColorMatrix in="SourceAlpha" type="matrix" values="0 0 0 0 0 0 0 0 0 0 0 0 0 0 0 0 0 0 127 0" result="hardAlpha"/>
<feOffset/>
<feGaussianBlur stdDeviation="8"/>
<feComposite in2="hardAlpha" operator="out"/>
<feColorMatrix type="matrix" values="0 0 0 0 0.44391 0 0 0 0 0.44391 0 0 0 0 0.44391 0 0 0 0.25 0"/>
<feBlend mode="normal" in2="BackgroundImageFix" result="effect1_dropShadow_63_446"/>
<feBlend mode="normal" in="SourceGraphic" in2="effect1_dropShadow_63_446" result="shape"/>
</filter>
</defs>
</svg>
