<svg width="467" height="463" viewBox="0 0 467 463" fill="none" xmlns="http://www.w3.org/2000/svg">
<g filter="url(#filter0_d_3189_362)">
<path d="M447.752 0C447.752 18.5708 455.962 33.625 466.09 33.625C466.564 33.625 467.035 33.5923 467.5 33.5273V421.715C467.035 421.65 466.564 421.617 466.09 421.617C455.962 421.617 447.752 436.671 447.752 455.242C447.752 457.912 447.921 460.51 448.242 463H19.8467C20.1674 460.51 20.3379 457.912 20.3379 455.242C20.3378 436.962 12.3825 422.088 2.47363 421.628L2 421.617V33.625C12.1277 33.625 20.3378 18.5708 20.3379 0H447.752Z" fill="white"/>
</g>
<mask id="path-2-inside-1_3189_362" fill="white">
<path d="M434.809 11.71C434.809 29.2143 442.51 43.4043 452.01 43.4043C452.455 43.4043 452.896 43.3736 453.332 43.3125V409.203C452.896 409.142 452.455 409.112 452.01 409.112C442.51 409.112 434.809 423.302 434.809 440.807C434.809 443.323 434.969 445.771 435.27 448.118H33.4307C33.7315 445.771 33.8916 443.323 33.8916 440.807C33.8916 423.576 26.4293 409.556 17.1348 409.122L16.6904 409.112V43.4043C26.0418 43.4043 33.6502 29.6545 33.8857 12.5283L33.8916 11.71H434.809Z"/>
</mask>
<path d="M434.809 11.71C434.809 29.2143 442.51 43.4043 452.01 43.4043C452.455 43.4043 452.896 43.3736 453.332 43.3125V409.203C452.896 409.142 452.455 409.112 452.01 409.112C442.51 409.112 434.809 423.302 434.809 440.807C434.809 443.323 434.969 445.771 435.27 448.118H33.4307C33.7315 445.771 33.8916 443.323 33.8916 440.807C33.8916 423.576 26.4293 409.556 17.1348 409.122L16.6904 409.112V43.4043C26.0418 43.4043 33.6502 29.6545 33.8857 12.5283L33.8916 11.71H434.809Z" fill="white"/>
<path d="M434.809 11.71H435.809V10.71H434.809V11.71ZM452.01 43.4043V44.4043H452.01L452.01 43.4043ZM453.332 43.3125H454.332V42.1626L453.193 42.3222L453.332 43.3125ZM453.332 409.203L453.193 410.193L454.332 410.353V409.203H453.332ZM452.01 409.112L452.01 408.112H452.01V409.112ZM434.809 440.807H433.809H434.809ZM435.27 448.118V449.118H436.406L436.261 447.991L435.27 448.118ZM33.4307 448.118L32.4388 447.991L32.2943 449.118H33.4307V448.118ZM33.8916 440.807H34.8916H33.8916ZM17.1348 409.122L17.1814 408.123L17.1691 408.123L17.1567 408.122L17.1348 409.122ZM16.6904 409.112H15.6904V410.091L16.6685 410.112L16.6904 409.112ZM16.6904 43.4043L16.6904 42.4043L15.6904 42.4043V43.4043H16.6904ZM33.8857 12.5283L34.8857 12.5421L34.8857 12.5355L33.8857 12.5283ZM33.8916 11.71V10.71H32.8987L32.8916 11.7028L33.8916 11.71ZM434.809 11.71H433.809C433.809 20.5957 435.761 28.6898 438.968 34.5983C442.153 40.4678 446.72 44.4043 452.01 44.4043V43.4043V42.4043C447.8 42.4043 443.766 39.2458 440.726 33.6443C437.707 28.0817 435.809 20.3286 435.809 11.71H434.809ZM452.01 43.4043L452.01 44.4043C452.501 44.4043 452.988 44.3705 453.471 44.3028L453.332 43.3125L453.193 42.3222C452.803 42.3768 452.409 42.4043 452.01 42.4043L452.01 43.4043ZM453.332 43.3125H452.332V409.203H453.332H454.332V43.3125H453.332ZM453.332 409.203L453.471 408.213C452.987 408.145 452.499 408.112 452.01 408.112L452.01 409.112L452.01 410.112C452.41 410.112 452.805 410.139 453.193 410.193L453.332 409.203ZM452.01 409.112V408.112C446.72 408.112 442.153 412.049 438.968 417.918C435.761 423.827 433.809 431.921 433.809 440.807H434.809H435.809C435.809 432.188 437.707 424.435 440.726 418.872C443.766 413.271 447.8 410.112 452.01 410.112V409.112ZM434.809 440.807H433.809C433.809 443.365 433.971 445.856 434.278 448.245L435.27 448.118L436.261 447.991C435.966 445.686 435.809 443.281 435.809 440.807H434.809ZM435.27 448.118V447.118H33.4307V448.118V449.118H435.27V448.118ZM33.4307 448.118L34.4226 448.245C34.7288 445.856 34.8916 443.365 34.8916 440.807H33.8916H32.8916C32.8916 443.281 32.7342 445.686 32.4388 447.991L33.4307 448.118ZM33.8916 440.807H34.8916C34.8916 432.059 32.9994 424.08 29.8822 418.198C26.7857 412.354 22.3479 408.365 17.1814 408.123L17.1348 409.122L17.0881 410.121C21.2162 410.314 25.1568 413.551 28.115 419.134C31.0526 424.678 32.8916 432.323 32.8916 440.807H33.8916ZM17.1348 409.122L17.1567 408.122L16.7124 408.113L16.6904 409.112L16.6685 410.112L17.1128 410.122L17.1348 409.122ZM16.6904 409.112H17.6904V43.4043H16.6904H15.6904V409.112H16.6904ZM16.6904 43.4043L16.6904 44.4043C21.8979 44.4043 26.4046 40.5885 29.5806 34.8744C32.7765 29.1246 34.7661 21.2365 34.8856 12.5421L33.8857 12.5283L32.8858 12.5146C32.7699 20.9464 30.8375 28.4962 27.8325 33.9028C24.8075 39.3452 20.8344 42.4043 16.6904 42.4043L16.6904 43.4043ZM33.8857 12.5283L34.8857 12.5355L34.8916 11.7171L33.8916 11.71L32.8916 11.7028L32.8858 12.5212L33.8857 12.5283ZM33.8916 11.71V12.71H434.809V11.71V10.71H33.8916V11.71Z" fill="#D9B881" mask="url(#path-2-inside-1_3189_362)"/>
<defs>
<filter id="filter0_d_3189_362" x="-14" y="-16" width="497.5" height="495" filterUnits="userSpaceOnUse" color-interpolation-filters="sRGB">
<feFlood flood-opacity="0" result="BackgroundImageFix"/>
<feColorMatrix in="SourceAlpha" type="matrix" values="0 0 0 0 0 0 0 0 0 0 0 0 0 0 0 0 0 0 127 0" result="hardAlpha"/>
<feOffset/>
<feGaussianBlur stdDeviation="8"/>
<feComposite in2="hardAlpha" operator="out"/>
<feColorMatrix type="matrix" values="0 0 0 0 0.44391 0 0 0 0 0.44391 0 0 0 0 0.44391 0 0 0 0.25 0"/>
<feBlend mode="normal" in2="BackgroundImageFix" result="effect1_dropShadow_3189_362"/>
<feBlend mode="normal" in="SourceGraphic" in2="effect1_dropShadow_3189_362" result="shape"/>
</filter>
</defs>
</svg>
