<svg width="427" height="157" viewBox="0 0 427 157" fill="none" xmlns="http://www.w3.org/2000/svg">
<g filter="url(#filter0_d_161_444)">
<path d="M394.243 16C394.243 21.0137 401.21 25.0781 409.804 25.0781C410.206 25.0781 410.605 25.0654 411 25.0479V129.855C410.605 129.838 410.206 129.826 409.804 129.826C401.21 129.826 394.244 133.891 394.243 138.904C394.243 139.626 394.388 140.327 394.66 141H31.1436C31.416 140.327 31.5605 139.626 31.5605 138.904C31.5602 133.891 24.5937 129.826 16 129.826V25.0781C24.5939 25.0781 31.5605 21.0137 31.5605 16L394.243 16Z" fill="white"/>
</g>
<mask id="path-2-inside-1_161_444" fill="white">
<path d="M388.837 24C388.837 28.3319 395.556 31.8437 403.846 31.8437C404.234 31.8437 404.619 31.8325 405 31.8174V122.371C404.619 122.356 404.234 122.347 403.846 122.347C395.556 122.347 388.837 125.859 388.837 130.19C388.837 130.813 388.976 131.419 389.238 132H38.6084C38.8709 131.419 39.0097 130.813 39.0098 130.19C39.0098 125.859 32.2902 122.347 24.001 122.347H24V31.8428C32.2893 31.8428 39.0098 28.3319 39.0098 24L388.837 24Z"/>
</mask>
<path d="M388.837 24C388.837 28.3319 395.556 31.8437 403.846 31.8437C404.234 31.8437 404.619 31.8325 405 31.8174V122.371C404.619 122.356 404.234 122.347 403.846 122.347C395.556 122.347 388.837 125.859 388.837 130.19C388.837 130.813 388.976 131.419 389.238 132H38.6084C38.8709 131.419 39.0097 130.813 39.0098 130.19C39.0098 125.859 32.2902 122.347 24.001 122.347H24V31.8428C32.2893 31.8428 39.0098 28.3319 39.0098 24L388.837 24Z" fill="white"/>
<path d="M388.837 24H389.837V23H388.837V24ZM403.846 31.8437L403.846 32.8438L403.846 32.8437L403.846 31.8437ZM405 31.8174H406V30.7768L404.96 30.8182L405 31.8174ZM405 122.371L404.96 123.37L406 123.412V122.371H405ZM403.846 122.347L403.846 121.347H403.846V122.347ZM388.837 130.19L387.837 130.19L387.837 130.19L388.837 130.19ZM389.238 132V133H390.788L390.15 131.588L389.238 132ZM38.6084 132L37.6971 131.588L37.0591 133H38.6084V132ZM39.0098 130.19L40.0098 130.19V130.19H39.0098ZM24.001 122.347L24.001 121.347H24.001V122.347ZM24 122.347H23V123.347H24V122.347ZM24 31.8428V30.8428H23V31.8428H24ZM39.0098 24V23H38.0098V24H39.0098ZM388.837 24H387.837C387.837 26.7256 389.932 28.9494 392.77 30.4326C395.656 31.9408 399.573 32.8437 403.846 32.8437V31.8437V30.8437C399.829 30.8437 396.242 29.9907 393.696 28.6601C391.102 27.3044 389.837 25.6063 389.837 24H388.837ZM403.846 31.8437L403.846 32.8437C404.253 32.8437 404.652 32.832 405.04 32.8166L405 31.8174L404.96 30.8182C404.586 30.8331 404.216 30.8437 403.846 30.8438L403.846 31.8437ZM405 31.8174H404V122.371H405H406V31.8174H405ZM405 122.371L405.04 121.372C404.648 121.356 404.25 121.347 403.846 121.347L403.846 122.347L403.846 123.347C404.218 123.347 404.59 123.356 404.96 123.37L405 122.371ZM403.846 122.347V121.347C399.573 121.347 395.656 122.25 392.77 123.758C389.932 125.241 387.837 127.465 387.837 130.19H388.837H389.837C389.837 128.584 391.102 126.886 393.696 125.53C396.242 124.2 399.829 123.347 403.846 123.347V122.347ZM388.837 130.19L387.837 130.19C387.837 130.966 388.01 131.711 388.327 132.412L389.238 132L390.15 131.588C389.941 131.127 389.837 130.661 389.837 130.19L388.837 130.19ZM389.238 132V131H38.6084V132V133H389.238V132ZM38.6084 132L39.5197 132.412C39.8362 131.711 40.0097 130.966 40.0098 130.19L39.0098 130.19L38.0098 130.19C38.0097 130.661 37.9056 131.127 37.6971 131.588L38.6084 132ZM39.0098 130.19H40.0098C40.0098 127.465 37.915 125.241 35.077 123.758C32.191 122.25 28.2735 121.347 24.001 121.347L24.001 122.347L24.001 123.347C28.0177 123.347 31.6045 124.2 34.1506 125.53C36.7447 126.886 38.0098 128.584 38.0098 130.19H39.0098ZM24.001 122.347V121.347H24V122.347V123.347H24.001V122.347ZM24 122.347H25V31.8428H24H23V122.347H24ZM24 31.8428V32.8428C28.2725 32.8428 32.1903 31.9401 35.0764 30.4322C37.9146 28.9493 40.0098 26.7257 40.0098 24H39.0098H38.0098C38.0098 25.6062 36.7447 27.304 34.1503 28.6595C31.6039 29.99 28.0168 30.8428 24 30.8428V31.8428ZM39.0098 24V25L388.837 25V24V23L39.0098 23V24Z" fill="#D9B881" mask="url(#path-2-inside-1_161_444)"/>
<path d="M122.313 74V55.0909H125.739V71.1286H134.067V74H122.313ZM143.171 74.277C141.749 74.277 140.521 73.9815 139.487 73.3906C138.459 72.7936 137.668 71.9503 137.114 70.8608C136.56 69.7652 136.283 68.4756 136.283 66.9922C136.283 65.5334 136.56 64.2531 137.114 63.1513C137.674 62.0433 138.456 61.1816 139.459 60.5661C140.462 59.9444 141.641 59.6335 142.995 59.6335C143.869 59.6335 144.694 59.7751 145.47 60.0582C146.251 60.3352 146.941 60.7661 147.538 61.3509C148.141 61.9356 148.615 62.6804 148.96 63.5852C149.304 64.4839 149.477 65.5549 149.477 66.7983V67.8232H137.852V65.5703H146.273C146.267 64.9302 146.128 64.3608 145.857 63.8622C145.587 63.3575 145.208 62.9605 144.722 62.6712C144.242 62.3819 143.681 62.2372 143.041 62.2372C142.358 62.2372 141.758 62.4034 141.241 62.7358C140.724 63.062 140.321 63.4929 140.031 64.0284C139.748 64.5578 139.604 65.1394 139.597 65.7734V67.7401C139.597 68.5649 139.748 69.2727 140.05 69.8636C140.351 70.4484 140.773 70.8977 141.315 71.2116C141.856 71.5194 142.49 71.6733 143.217 71.6733C143.703 71.6733 144.143 71.6056 144.537 71.4702C144.931 71.3286 145.273 71.1224 145.562 70.8516C145.851 70.5807 146.07 70.2453 146.217 69.8452L149.338 70.196C149.141 71.0208 148.766 71.741 148.212 72.3565C147.664 72.9659 146.962 73.4399 146.107 73.7784C145.251 74.1108 144.272 74.277 143.171 74.277ZM163.513 63.5668L160.466 63.8991C160.38 63.5914 160.229 63.3021 160.014 63.0312C159.804 62.7604 159.521 62.5419 159.164 62.3757C158.807 62.2095 158.37 62.1264 157.853 62.1264C157.158 62.1264 156.573 62.2772 156.099 62.5788C155.631 62.8804 155.4 63.2713 155.407 63.7514C155.4 64.1638 155.551 64.4993 155.859 64.7578C156.173 65.0163 156.69 65.2287 157.41 65.3949L159.829 65.9119C161.171 66.2012 162.168 66.6598 162.821 67.2876C163.479 67.9155 163.812 68.7372 163.818 69.7528C163.812 70.6454 163.55 71.4332 163.033 72.1165C162.522 72.7936 161.811 73.3229 160.9 73.7045C159.989 74.0862 158.943 74.277 157.761 74.277C156.025 74.277 154.628 73.9138 153.569 73.1875C152.51 72.455 151.88 71.4363 151.676 70.1314L154.936 69.8175C155.083 70.4576 155.397 70.9408 155.877 71.267C156.358 71.5933 156.982 71.7564 157.752 71.7564C158.546 71.7564 159.183 71.5933 159.663 71.267C160.149 70.9408 160.392 70.5376 160.392 70.0575C160.392 69.6513 160.235 69.3158 159.921 69.0511C159.614 68.7865 159.134 68.5833 158.481 68.4418L156.062 67.9339C154.702 67.6508 153.695 67.1738 153.043 66.5028C152.39 65.8258 152.067 64.9702 152.073 63.9361C152.067 63.062 152.304 62.3049 152.784 61.6648C153.271 61.0185 153.945 60.5199 154.806 60.169C155.674 59.812 156.675 59.6335 157.807 59.6335C159.469 59.6335 160.777 59.9875 161.731 60.6953C162.691 61.4032 163.285 62.3603 163.513 63.5668ZM177.783 63.5668L174.736 63.8991C174.65 63.5914 174.499 63.3021 174.283 63.0312C174.074 62.7604 173.791 62.5419 173.434 62.3757C173.077 62.2095 172.64 62.1264 172.123 62.1264C171.427 62.1264 170.842 62.2772 170.369 62.5788C169.901 62.8804 169.67 63.2713 169.676 63.7514C169.67 64.1638 169.821 64.4993 170.128 64.7578C170.442 65.0163 170.959 65.2287 171.68 65.3949L174.099 65.9119C175.44 66.2012 176.438 66.6598 177.09 67.2876C177.749 67.9155 178.081 68.7372 178.087 69.7528C178.081 70.6454 177.82 71.4332 177.302 72.1165C176.792 72.7936 176.081 73.3229 175.17 73.7045C174.259 74.0862 173.212 74.277 172.03 74.277C170.295 74.277 168.897 73.9138 167.839 73.1875C166.78 72.455 166.149 71.4363 165.946 70.1314L169.205 69.8175C169.353 70.4576 169.667 70.9408 170.147 71.267C170.627 71.5933 171.252 71.7564 172.021 71.7564C172.815 71.7564 173.452 71.5933 173.932 71.267C174.419 70.9408 174.662 70.5376 174.662 70.0575C174.662 69.6513 174.505 69.3158 174.191 69.0511C173.883 68.7865 173.403 68.5833 172.751 68.4418L170.332 67.9339C168.971 67.6508 167.965 67.1738 167.312 66.5028C166.66 65.8258 166.337 64.9702 166.343 63.9361C166.337 63.062 166.574 62.3049 167.054 61.6648C167.54 61.0185 168.214 60.5199 169.076 60.169C169.944 59.812 170.944 59.6335 172.077 59.6335C173.739 59.6335 175.047 59.9875 176.001 60.6953C176.961 61.4032 177.555 62.3603 177.783 63.5668ZM187.029 74.277C185.644 74.277 184.444 73.9723 183.429 73.3629C182.413 72.7536 181.625 71.901 181.065 70.8054C180.511 69.7098 180.234 68.4295 180.234 66.9645C180.234 65.4995 180.511 64.2161 181.065 63.1143C181.625 62.0125 182.413 61.157 183.429 60.5476C184.444 59.9382 185.644 59.6335 187.029 59.6335C188.414 59.6335 189.615 59.9382 190.63 60.5476C191.646 61.157 192.431 62.0125 192.985 63.1143C193.545 64.2161 193.825 65.4995 193.825 66.9645C193.825 68.4295 193.545 69.7098 192.985 70.8054C192.431 71.901 191.646 72.7536 190.63 73.3629C189.615 73.9723 188.414 74.277 187.029 74.277ZM187.048 71.5994C187.799 71.5994 188.427 71.3932 188.931 70.9808C189.436 70.5623 189.812 70.0021 190.058 69.3004C190.31 68.5987 190.436 67.817 190.436 66.9553C190.436 66.0874 190.31 65.3026 190.058 64.6009C189.812 63.893 189.436 63.3298 188.931 62.9112C188.427 62.4927 187.799 62.2834 187.048 62.2834C186.278 62.2834 185.638 62.4927 185.127 62.9112C184.623 63.3298 184.244 63.893 183.992 64.6009C183.746 65.3026 183.622 66.0874 183.622 66.9553C183.622 67.817 183.746 68.5987 183.992 69.3004C184.244 70.0021 184.623 70.5623 185.127 70.9808C185.638 71.3932 186.278 71.5994 187.048 71.5994ZM200.004 65.6903V74H196.662V59.8182H199.856V62.228H200.022C200.349 61.4339 200.869 60.803 201.583 60.3352C202.303 59.8674 203.192 59.6335 204.251 59.6335C205.23 59.6335 206.082 59.8428 206.809 60.2614C207.541 60.6799 208.107 61.2862 208.508 62.0803C208.914 62.8743 209.114 63.8376 209.108 64.9702V74H205.765V65.4872C205.765 64.5393 205.519 63.7976 205.027 63.2621C204.54 62.7266 203.866 62.4588 203.005 62.4588C202.42 62.4588 201.9 62.5881 201.444 62.8466C200.995 63.099 200.641 63.4652 200.383 63.9453C200.13 64.4254 200.004 65.0071 200.004 65.6903ZM223.714 63.5668L220.667 63.8991C220.581 63.5914 220.43 63.3021 220.215 63.0312C220.006 62.7604 219.723 62.5419 219.366 62.3757C219.008 62.2095 218.571 62.1264 218.054 62.1264C217.359 62.1264 216.774 62.2772 216.3 62.5788C215.832 62.8804 215.602 63.2713 215.608 63.7514C215.602 64.1638 215.752 64.4993 216.06 64.7578C216.374 65.0163 216.891 65.2287 217.611 65.3949L220.03 65.9119C221.372 66.2012 222.369 66.6598 223.022 67.2876C223.68 67.9155 224.013 68.7372 224.019 69.7528C224.013 70.6454 223.751 71.4332 223.234 72.1165C222.723 72.7936 222.012 73.3229 221.101 73.7045C220.19 74.0862 219.144 74.277 217.962 74.277C216.226 74.277 214.829 73.9138 213.77 73.1875C212.712 72.455 212.081 71.4363 211.878 70.1314L215.137 69.8175C215.285 70.4576 215.598 70.9408 216.079 71.267C216.559 71.5933 217.183 71.7564 217.953 71.7564C218.747 71.7564 219.384 71.5933 219.864 71.267C220.35 70.9408 220.593 70.5376 220.593 70.0575C220.593 69.6513 220.437 69.3158 220.123 69.0511C219.815 68.7865 219.335 68.5833 218.682 68.4418L216.263 67.9339C214.903 67.6508 213.897 67.1738 213.244 66.5028C212.592 65.8258 212.268 64.9702 212.275 63.9361C212.268 63.062 212.505 62.3049 212.986 61.6648C213.472 61.0185 214.146 60.5199 215.008 60.169C215.875 59.812 216.876 59.6335 218.008 59.6335C219.67 59.6335 220.978 59.9875 221.932 60.6953C222.892 61.4032 223.486 62.3603 223.714 63.5668ZM236.151 74L232.144 59.8182H235.551L238.044 69.7898H238.173L240.721 59.8182H244.091L246.64 69.7344H246.778L249.234 59.8182H252.65L248.634 74H245.153L242.494 64.4162H242.3L239.641 74H236.151ZM254.984 74V59.8182H258.326V74H254.984ZM256.664 57.8054C256.135 57.8054 255.679 57.63 255.298 57.2791C254.916 56.9221 254.725 56.4943 254.725 55.9957C254.725 55.491 254.916 55.0632 255.298 54.7124C255.679 54.3553 256.135 54.1768 256.664 54.1768C257.2 54.1768 257.655 54.3553 258.031 54.7124C258.412 55.0632 258.603 55.491 258.603 55.9957C258.603 56.4943 258.412 56.9221 258.031 57.2791C257.655 57.63 257.2 57.8054 256.664 57.8054ZM268.845 59.8182V62.4034H260.692V59.8182H268.845ZM262.705 56.4205H266.047V69.7344C266.047 70.1837 266.115 70.5284 266.25 70.7685C266.392 71.0024 266.577 71.1624 266.804 71.2486C267.032 71.3348 267.285 71.3778 267.562 71.3778C267.771 71.3778 267.962 71.3625 268.134 71.3317C268.312 71.3009 268.448 71.2732 268.54 71.2486L269.103 73.8615C268.925 73.9231 268.669 73.9908 268.337 74.0646C268.011 74.1385 267.611 74.1816 267.137 74.1939C266.3 74.2185 265.546 74.0923 264.875 73.8153C264.204 73.5322 263.671 73.0952 263.277 72.5043C262.89 71.9134 262.699 71.1747 262.705 70.2884V56.4205ZM275.287 65.6903V74H271.945V55.0909H275.213V62.228H275.38C275.712 61.4278 276.226 60.7969 276.921 60.3352C277.623 59.8674 278.516 59.6335 279.599 59.6335C280.584 59.6335 281.443 59.8397 282.175 60.2521C282.907 60.6645 283.474 61.2678 283.874 62.0618C284.28 62.8558 284.483 63.8253 284.483 64.9702V74H281.141V65.4872C281.141 64.5331 280.895 63.7914 280.402 63.2621C279.916 62.7266 279.233 62.4588 278.353 62.4588C277.762 62.4588 277.232 62.5881 276.764 62.8466C276.303 63.099 275.94 63.4652 275.675 63.9453C275.416 64.4254 275.287 65.0071 275.287 65.6903ZM298.42 74.2862C297.522 74.2862 296.712 74.1262 295.992 73.8061C295.278 73.4799 294.712 72.9998 294.293 72.3658C293.881 71.7318 293.675 70.95 293.675 70.0206C293.675 69.2204 293.822 68.5587 294.118 68.0355C294.413 67.5123 294.816 67.0938 295.327 66.7798C295.838 66.4659 296.414 66.2289 297.054 66.0689C297.7 65.9027 298.368 65.7827 299.057 65.7088C299.888 65.6226 300.562 65.5457 301.079 65.478C301.597 65.4041 301.972 65.2933 302.206 65.1456C302.446 64.9917 302.566 64.7547 302.566 64.4347V64.3793C302.566 63.6837 302.36 63.1451 301.947 62.7635C301.535 62.3819 300.941 62.1911 300.165 62.1911C299.347 62.1911 298.697 62.3696 298.217 62.7266C297.743 63.0836 297.423 63.5052 297.257 63.9915L294.136 63.5483C294.382 62.6866 294.789 61.9664 295.355 61.3878C295.921 60.803 296.614 60.366 297.432 60.0767C298.251 59.7812 299.156 59.6335 300.147 59.6335C300.83 59.6335 301.51 59.7135 302.187 59.8736C302.864 60.0336 303.483 60.2983 304.043 60.6676C304.603 61.0308 305.053 61.5263 305.391 62.1541C305.736 62.782 305.908 63.5668 305.908 64.5085V74H302.695V72.0518H302.584C302.381 72.4458 302.095 72.8151 301.726 73.1598C301.363 73.4983 300.904 73.7723 300.35 73.9815C299.802 74.1847 299.159 74.2862 298.42 74.2862ZM299.288 71.8303C299.959 71.8303 300.541 71.6979 301.033 71.4332C301.526 71.1624 301.904 70.8054 302.169 70.3622C302.44 69.919 302.575 69.4358 302.575 68.9126V67.2415C302.471 67.3277 302.292 67.4077 302.04 67.4815C301.793 67.5554 301.516 67.62 301.209 67.6754C300.901 67.7308 300.596 67.7801 300.295 67.8232C299.993 67.8662 299.731 67.9032 299.51 67.9339C299.011 68.0017 298.565 68.1125 298.171 68.2663C297.777 68.4202 297.466 68.6357 297.239 68.9126C297.011 69.1835 296.897 69.5343 296.897 69.9652C296.897 70.5807 297.122 71.0455 297.571 71.3594C298.02 71.6733 298.593 71.8303 299.288 71.8303ZM126.765 93.6903V102H123.422V87.8182H126.617V90.228H126.783C127.109 89.4339 127.63 88.803 128.344 88.3352C129.064 87.8674 129.953 87.6335 131.012 87.6335C131.991 87.6335 132.843 87.8428 133.569 88.2614C134.302 88.6799 134.868 89.2862 135.268 90.0803C135.675 90.8743 135.875 91.8376 135.868 92.9702V102H132.526V93.4872C132.526 92.5393 132.28 91.7976 131.787 91.2621C131.301 90.7266 130.627 90.4588 129.765 90.4588C129.181 90.4588 128.661 90.5881 128.205 90.8466C127.756 91.099 127.402 91.4652 127.143 91.9453C126.891 92.4254 126.765 93.0071 126.765 93.6903ZM143.347 102.286C142.448 102.286 141.639 102.126 140.919 101.806C140.205 101.48 139.639 101 139.22 100.366C138.808 99.7318 138.601 98.95 138.601 98.0206C138.601 97.2204 138.749 96.5587 139.045 96.0355C139.34 95.5123 139.743 95.0938 140.254 94.7798C140.765 94.4659 141.34 94.2289 141.981 94.0689C142.627 93.9027 143.295 93.7827 143.984 93.7088C144.815 93.6226 145.489 93.5457 146.006 93.478C146.523 93.4041 146.899 93.2933 147.133 93.1456C147.373 92.9917 147.493 92.7547 147.493 92.4347V92.3793C147.493 91.6837 147.287 91.1451 146.874 90.7635C146.462 90.3819 145.868 90.1911 145.092 90.1911C144.273 90.1911 143.624 90.3696 143.144 90.7266C142.67 91.0836 142.35 91.5052 142.184 91.9915L139.063 91.5483C139.309 90.6866 139.715 89.9664 140.282 89.3878C140.848 88.803 141.541 88.366 142.359 88.0767C143.178 87.7812 144.083 87.6335 145.074 87.6335C145.757 87.6335 146.437 87.7135 147.114 87.8736C147.791 88.0336 148.41 88.2983 148.97 88.6676C149.53 89.0308 149.979 89.5263 150.318 90.1541C150.663 90.782 150.835 91.5668 150.835 92.5085V102H147.622V100.052H147.511C147.308 100.446 147.022 100.815 146.653 101.16C146.289 101.498 145.831 101.772 145.277 101.982C144.729 102.185 144.086 102.286 143.347 102.286ZM144.215 99.8303C144.886 99.8303 145.468 99.6979 145.96 99.4332C146.452 99.1624 146.831 98.8054 147.096 98.3622C147.367 97.919 147.502 97.4358 147.502 96.9126V95.2415C147.397 95.3277 147.219 95.4077 146.966 95.4815C146.72 95.5554 146.443 95.62 146.135 95.6754C145.828 95.7308 145.523 95.7801 145.221 95.8232C144.92 95.8662 144.658 95.9032 144.437 95.9339C143.938 96.0017 143.492 96.1125 143.098 96.2663C142.704 96.4202 142.393 96.6357 142.165 96.9126C141.938 97.1835 141.824 97.5343 141.824 97.9652C141.824 98.5807 142.048 99.0455 142.498 99.3594C142.947 99.6733 143.519 99.8303 144.215 99.8303ZM161.278 87.8182V90.4034H153.125V87.8182H161.278ZM155.138 84.4205H158.48V97.7344C158.48 98.1837 158.548 98.5284 158.683 98.7685C158.825 99.0024 159.009 99.1624 159.237 99.2486C159.465 99.3348 159.717 99.3778 159.994 99.3778C160.203 99.3778 160.394 99.3625 160.567 99.3317C160.745 99.3009 160.881 99.2732 160.973 99.2486L161.536 101.862C161.358 101.923 161.102 101.991 160.77 102.065C160.443 102.138 160.043 102.182 159.569 102.194C158.732 102.219 157.978 102.092 157.307 101.815C156.636 101.532 156.104 101.095 155.71 100.504C155.322 99.9134 155.131 99.1747 155.138 98.2884V84.4205ZM164.073 102V87.8182H167.415V102H164.073ZM165.753 85.8054C165.224 85.8054 164.768 85.63 164.387 85.2791C164.005 84.9221 163.814 84.4943 163.814 83.9957C163.814 83.491 164.005 83.0632 164.387 82.7124C164.768 82.3553 165.224 82.1768 165.753 82.1768C166.289 82.1768 166.744 82.3553 167.12 82.7124C167.501 83.0632 167.692 83.491 167.692 83.9957C167.692 84.4943 167.501 84.9221 167.12 85.2791C166.744 85.63 166.289 85.8054 165.753 85.8054ZM183.52 87.8182L178.469 102H174.776L169.726 87.8182H173.29L176.549 98.353H176.697L179.965 87.8182H183.52ZM191.629 102.277C190.207 102.277 188.979 101.982 187.945 101.391C186.917 100.794 186.126 99.9503 185.572 98.8608C185.018 97.7652 184.741 96.4756 184.741 94.9922C184.741 93.5334 185.018 92.2531 185.572 91.1513C186.132 90.0433 186.914 89.1816 187.917 88.5661C188.92 87.9444 190.099 87.6335 191.453 87.6335C192.327 87.6335 193.152 87.7751 193.928 88.0582C194.709 88.3352 195.399 88.7661 195.996 89.3509C196.599 89.9356 197.073 90.6804 197.418 91.5852C197.762 92.4839 197.935 93.5549 197.935 94.7983V95.8232H186.31V93.5703H194.731C194.725 92.9302 194.586 92.3608 194.315 91.8622C194.045 91.3575 193.666 90.9605 193.18 90.6712C192.7 90.3819 192.139 90.2372 191.499 90.2372C190.816 90.2372 190.216 90.4034 189.699 90.7358C189.182 91.062 188.779 91.4929 188.489 92.0284C188.206 92.5578 188.062 93.1394 188.055 93.7734V95.7401C188.055 96.5649 188.206 97.2727 188.508 97.8636C188.809 98.4484 189.231 98.8977 189.773 99.2116C190.314 99.5194 190.948 99.6733 191.675 99.6733C192.161 99.6733 192.601 99.6056 192.995 99.4702C193.389 99.3286 193.731 99.1224 194.02 98.8516C194.309 98.5807 194.528 98.2453 194.675 97.8452L197.796 98.196C197.599 99.0208 197.224 99.741 196.67 100.357C196.122 100.966 195.42 101.44 194.565 101.778C193.709 102.111 192.73 102.277 191.629 102.277ZM218.42 91.5668L215.373 91.8991C215.287 91.5914 215.136 91.3021 214.921 91.0312C214.712 90.7604 214.429 90.5419 214.072 90.3757C213.715 90.2095 213.278 90.1264 212.76 90.1264C212.065 90.1264 211.48 90.2772 211.006 90.5788C210.538 90.8804 210.308 91.2713 210.314 91.7514C210.308 92.1638 210.458 92.4993 210.766 92.7578C211.08 93.0163 211.597 93.2287 212.317 93.3949L214.736 93.9119C216.078 94.2012 217.075 94.6598 217.728 95.2876C218.386 95.9155 218.719 96.7372 218.725 97.7528C218.719 98.6454 218.457 99.4332 217.94 100.116C217.429 100.794 216.718 101.323 215.807 101.705C214.896 102.086 213.85 102.277 212.668 102.277C210.932 102.277 209.535 101.914 208.476 101.188C207.418 100.455 206.787 99.4363 206.584 98.1314L209.843 97.8175C209.991 98.4576 210.305 98.9408 210.785 99.267C211.265 99.5933 211.89 99.7564 212.659 99.7564C213.453 99.7564 214.09 99.5933 214.57 99.267C215.056 98.9408 215.3 98.5376 215.3 98.0575C215.3 97.6513 215.143 97.3158 214.829 97.0511C214.521 96.7865 214.041 96.5833 213.388 96.4418L210.969 95.9339C209.609 95.6508 208.603 95.1738 207.95 94.5028C207.298 93.8258 206.974 92.9702 206.981 91.9361C206.974 91.062 207.211 90.3049 207.692 89.6648C208.178 89.0185 208.852 88.5199 209.714 88.169C210.581 87.812 211.582 87.6335 212.714 87.6335C214.376 87.6335 215.684 87.9875 216.638 88.6953C217.599 89.4032 218.193 90.3603 218.42 91.5668ZM221.481 107.318V87.8182H224.768V90.1634H224.962C225.134 89.8187 225.377 89.4524 225.691 89.0646C226.005 88.6707 226.43 88.3352 226.965 88.0582C227.501 87.7751 228.184 87.6335 229.015 87.6335C230.111 87.6335 231.099 87.9136 231.979 88.4737C232.865 89.0277 233.567 89.8494 234.084 90.9389C234.607 92.0223 234.869 93.3518 234.869 94.9276C234.869 96.4848 234.613 97.8082 234.102 98.8977C233.592 99.9872 232.896 100.818 232.016 101.391C231.136 101.963 230.138 102.249 229.024 102.249C228.212 102.249 227.538 102.114 227.002 101.843C226.467 101.572 226.036 101.246 225.71 100.864C225.39 100.477 225.14 100.11 224.962 99.7656H224.823V107.318H221.481ZM224.759 94.9091C224.759 95.8262 224.888 96.6295 225.146 97.3189C225.411 98.0083 225.79 98.5469 226.282 98.9347C226.781 99.3163 227.384 99.5071 228.092 99.5071C228.83 99.5071 229.449 99.3101 229.948 98.9162C230.446 98.5161 230.822 97.9714 231.074 97.282C231.333 96.5864 231.462 95.7955 231.462 94.9091C231.462 94.0289 231.336 93.2472 231.083 92.5639C230.831 91.8807 230.455 91.3452 229.957 90.9574C229.458 90.5696 228.837 90.3757 228.092 90.3757C227.378 90.3757 226.771 90.5634 226.273 90.9389C225.774 91.3144 225.396 91.8407 225.137 92.5178C224.885 93.1948 224.759 93.992 224.759 94.9091ZM244.009 102.277C242.588 102.277 241.36 101.982 240.325 101.391C239.298 100.794 238.507 99.9503 237.953 98.8608C237.399 97.7652 237.122 96.4756 237.122 94.9922C237.122 93.5334 237.399 92.2531 237.953 91.1513C238.513 90.0433 239.294 89.1816 240.298 88.5661C241.301 87.9444 242.48 87.6335 243.834 87.6335C244.708 87.6335 245.533 87.7751 246.308 88.0582C247.09 88.3352 247.78 88.7661 248.377 89.3509C248.98 89.9356 249.454 90.6804 249.798 91.5852C250.143 92.4839 250.316 93.5549 250.316 94.7983V95.8232H238.691V93.5703H247.112C247.106 92.9302 246.967 92.3608 246.696 91.8622C246.425 91.3575 246.047 90.9605 245.561 90.6712C245.08 90.3819 244.52 90.2372 243.88 90.2372C243.197 90.2372 242.597 90.4034 242.08 90.7358C241.563 91.062 241.16 91.4929 240.87 92.0284C240.587 92.5578 240.442 93.1394 240.436 93.7734V95.7401C240.436 96.5649 240.587 97.2727 240.889 97.8636C241.19 98.4484 241.612 98.8977 242.154 99.2116C242.695 99.5194 243.329 99.6733 244.056 99.6733C244.542 99.6733 244.982 99.6056 245.376 99.4702C245.77 99.3286 246.111 99.1224 246.401 98.8516C246.69 98.5807 246.909 98.2453 247.056 97.8452L250.177 98.196C249.98 99.0208 249.605 99.741 249.051 100.357C248.503 100.966 247.801 101.44 246.945 101.778C246.09 102.111 245.111 102.277 244.009 102.277ZM257.224 102.286C256.325 102.286 255.516 102.126 254.796 101.806C254.082 101.48 253.516 101 253.097 100.366C252.685 99.7318 252.478 98.95 252.478 98.0206C252.478 97.2204 252.626 96.5587 252.922 96.0355C253.217 95.5123 253.62 95.0938 254.131 94.7798C254.642 94.4659 255.217 94.2289 255.858 94.0689C256.504 93.9027 257.172 93.7827 257.861 93.7088C258.692 93.6226 259.366 93.5457 259.883 93.478C260.4 93.4041 260.776 93.2933 261.01 93.1456C261.25 92.9917 261.37 92.7547 261.37 92.4347V92.3793C261.37 91.6837 261.163 91.1451 260.751 90.7635C260.339 90.3819 259.745 90.1911 258.969 90.1911C258.15 90.1911 257.501 90.3696 257.021 90.7266C256.547 91.0836 256.227 91.5052 256.061 91.9915L252.94 91.5483C253.186 90.6866 253.592 89.9664 254.159 89.3878C254.725 88.803 255.417 88.366 256.236 88.0767C257.055 87.7812 257.96 87.6335 258.951 87.6335C259.634 87.6335 260.314 87.7135 260.991 87.8736C261.668 88.0336 262.287 88.2983 262.847 88.6676C263.407 89.0308 263.856 89.5263 264.195 90.1541C264.54 90.782 264.712 91.5668 264.712 92.5085V102H261.499V100.052H261.388C261.185 100.446 260.899 100.815 260.529 101.16C260.166 101.498 259.708 101.772 259.154 101.982C258.606 102.185 257.963 102.286 257.224 102.286ZM258.092 99.8303C258.763 99.8303 259.345 99.6979 259.837 99.4332C260.329 99.1624 260.708 98.8054 260.973 98.3622C261.243 97.919 261.379 97.4358 261.379 96.9126V95.2415C261.274 95.3277 261.096 95.4077 260.843 95.4815C260.597 95.5554 260.32 95.62 260.012 95.6754C259.705 95.7308 259.4 95.7801 259.098 95.8232C258.797 95.8662 258.535 95.9032 258.314 95.9339C257.815 96.0017 257.369 96.1125 256.975 96.2663C256.581 96.4202 256.27 96.6357 256.042 96.9126C255.815 97.1835 255.701 97.5343 255.701 97.9652C255.701 98.5807 255.925 99.0455 256.375 99.3594C256.824 99.6733 257.396 99.8303 258.092 99.8303ZM271.12 97.5497L271.11 93.5149H271.646L276.743 87.8182H280.648L274.379 94.7983H273.686L271.12 97.5497ZM268.073 102V83.0909H271.415V102H268.073ZM276.973 102L272.357 95.5462L274.61 93.1918L280.971 102H276.973ZM288.57 102.277C287.148 102.277 285.92 101.982 284.886 101.391C283.858 100.794 283.067 99.9503 282.513 98.8608C281.959 97.7652 281.682 96.4756 281.682 94.9922C281.682 93.5334 281.959 92.2531 282.513 91.1513C283.073 90.0433 283.855 89.1816 284.858 88.5661C285.862 87.9444 287.04 87.6335 288.395 87.6335C289.269 87.6335 290.093 87.7751 290.869 88.0582C291.651 88.3352 292.34 88.7661 292.937 89.3509C293.54 89.9356 294.014 90.6804 294.359 91.5852C294.704 92.4839 294.876 93.5549 294.876 94.7983V95.8232H283.252V93.5703H291.672C291.666 92.9302 291.528 92.3608 291.257 91.8622C290.986 91.3575 290.607 90.9605 290.121 90.6712C289.641 90.3819 289.081 90.2372 288.441 90.2372C287.757 90.2372 287.157 90.4034 286.64 90.7358C286.123 91.062 285.72 91.4929 285.431 92.0284C285.148 92.5578 285.003 93.1394 284.997 93.7734V95.7401C284.997 96.5649 285.148 97.2727 285.449 97.8636C285.751 98.4484 286.172 98.8977 286.714 99.2116C287.256 99.5194 287.89 99.6733 288.616 99.6733C289.102 99.6733 289.542 99.6056 289.936 99.4702C290.33 99.3286 290.672 99.1224 290.961 98.8516C291.251 98.5807 291.469 98.2453 291.617 97.8452L294.738 98.196C294.541 99.0208 294.165 99.741 293.611 100.357C293.063 100.966 292.362 101.44 291.506 101.778C290.65 102.111 289.672 102.277 288.57 102.277ZM297.704 102V87.8182H300.944V90.1818H301.092C301.351 89.3632 301.794 88.7322 302.422 88.2891C303.056 87.8397 303.779 87.6151 304.591 87.6151C304.776 87.6151 304.982 87.6243 305.21 87.6428C305.444 87.6551 305.638 87.6766 305.792 87.7074V90.782C305.65 90.7327 305.425 90.6896 305.118 90.6527C304.816 90.6096 304.524 90.5881 304.241 90.5881C303.631 90.5881 303.083 90.7204 302.597 90.9851C302.117 91.2436 301.738 91.6037 301.461 92.0653C301.184 92.527 301.046 93.0594 301.046 93.6626V102H297.704Z" fill="#502E12"/>
<path d="M122.313 74V55.0909H125.739V71.1286H134.067V74H122.313ZM143.171 74.277C141.749 74.277 140.521 73.9815 139.487 73.3906C138.459 72.7936 137.668 71.9503 137.114 70.8608C136.56 69.7652 136.283 68.4756 136.283 66.9922C136.283 65.5334 136.56 64.2531 137.114 63.1513C137.674 62.0433 138.456 61.1816 139.459 60.5661C140.462 59.9444 141.641 59.6335 142.995 59.6335C143.869 59.6335 144.694 59.7751 145.47 60.0582C146.251 60.3352 146.941 60.7661 147.538 61.3509C148.141 61.9356 148.615 62.6804 148.96 63.5852C149.304 64.4839 149.477 65.5549 149.477 66.7983V67.8232H137.852V65.5703H146.273C146.267 64.9302 146.128 64.3608 145.857 63.8622C145.587 63.3575 145.208 62.9605 144.722 62.6712C144.242 62.3819 143.681 62.2372 143.041 62.2372C142.358 62.2372 141.758 62.4034 141.241 62.7358C140.724 63.062 140.321 63.4929 140.031 64.0284C139.748 64.5578 139.604 65.1394 139.597 65.7734V67.7401C139.597 68.5649 139.748 69.2727 140.05 69.8636C140.351 70.4484 140.773 70.8977 141.315 71.2116C141.856 71.5194 142.49 71.6733 143.217 71.6733C143.703 71.6733 144.143 71.6056 144.537 71.4702C144.931 71.3286 145.273 71.1224 145.562 70.8516C145.851 70.5807 146.07 70.2453 146.217 69.8452L149.338 70.196C149.141 71.0208 148.766 71.741 148.212 72.3565C147.664 72.9659 146.962 73.4399 146.107 73.7784C145.251 74.1108 144.272 74.277 143.171 74.277ZM163.513 63.5668L160.466 63.8991C160.38 63.5914 160.229 63.3021 160.014 63.0312C159.804 62.7604 159.521 62.5419 159.164 62.3757C158.807 62.2095 158.37 62.1264 157.853 62.1264C157.158 62.1264 156.573 62.2772 156.099 62.5788C155.631 62.8804 155.4 63.2713 155.407 63.7514C155.4 64.1638 155.551 64.4993 155.859 64.7578C156.173 65.0163 156.69 65.2287 157.41 65.3949L159.829 65.9119C161.171 66.2012 162.168 66.6598 162.821 67.2876C163.479 67.9155 163.812 68.7372 163.818 69.7528C163.812 70.6454 163.55 71.4332 163.033 72.1165C162.522 72.7936 161.811 73.3229 160.9 73.7045C159.989 74.0862 158.943 74.277 157.761 74.277C156.025 74.277 154.628 73.9138 153.569 73.1875C152.51 72.455 151.88 71.4363 151.676 70.1314L154.936 69.8175C155.083 70.4576 155.397 70.9408 155.877 71.267C156.358 71.5933 156.982 71.7564 157.752 71.7564C158.546 71.7564 159.183 71.5933 159.663 71.267C160.149 70.9408 160.392 70.5376 160.392 70.0575C160.392 69.6513 160.235 69.3158 159.921 69.0511C159.614 68.7865 159.134 68.5833 158.481 68.4418L156.062 67.9339C154.702 67.6508 153.695 67.1738 153.043 66.5028C152.39 65.8258 152.067 64.9702 152.073 63.9361C152.067 63.062 152.304 62.3049 152.784 61.6648C153.271 61.0185 153.945 60.5199 154.806 60.169C155.674 59.812 156.675 59.6335 157.807 59.6335C159.469 59.6335 160.777 59.9875 161.731 60.6953C162.691 61.4032 163.285 62.3603 163.513 63.5668ZM177.783 63.5668L174.736 63.8991C174.65 63.5914 174.499 63.3021 174.283 63.0312C174.074 62.7604 173.791 62.5419 173.434 62.3757C173.077 62.2095 172.64 62.1264 172.123 62.1264C171.427 62.1264 170.842 62.2772 170.369 62.5788C169.901 62.8804 169.67 63.2713 169.676 63.7514C169.67 64.1638 169.821 64.4993 170.128 64.7578C170.442 65.0163 170.959 65.2287 171.68 65.3949L174.099 65.9119C175.44 66.2012 176.438 66.6598 177.09 67.2876C177.749 67.9155 178.081 68.7372 178.087 69.7528C178.081 70.6454 177.82 71.4332 177.302 72.1165C176.792 72.7936 176.081 73.3229 175.17 73.7045C174.259 74.0862 173.212 74.277 172.03 74.277C170.295 74.277 168.897 73.9138 167.839 73.1875C166.78 72.455 166.149 71.4363 165.946 70.1314L169.205 69.8175C169.353 70.4576 169.667 70.9408 170.147 71.267C170.627 71.5933 171.252 71.7564 172.021 71.7564C172.815 71.7564 173.452 71.5933 173.932 71.267C174.419 70.9408 174.662 70.5376 174.662 70.0575C174.662 69.6513 174.505 69.3158 174.191 69.0511C173.883 68.7865 173.403 68.5833 172.751 68.4418L170.332 67.9339C168.971 67.6508 167.965 67.1738 167.312 66.5028C166.66 65.8258 166.337 64.9702 166.343 63.9361C166.337 63.062 166.574 62.3049 167.054 61.6648C167.54 61.0185 168.214 60.5199 169.076 60.169C169.944 59.812 170.944 59.6335 172.077 59.6335C173.739 59.6335 175.047 59.9875 176.001 60.6953C176.961 61.4032 177.555 62.3603 177.783 63.5668ZM187.029 74.277C185.644 74.277 184.444 73.9723 183.429 73.3629C182.413 72.7536 181.625 71.901 181.065 70.8054C180.511 69.7098 180.234 68.4295 180.234 66.9645C180.234 65.4995 180.511 64.2161 181.065 63.1143C181.625 62.0125 182.413 61.157 183.429 60.5476C184.444 59.9382 185.644 59.6335 187.029 59.6335C188.414 59.6335 189.615 59.9382 190.63 60.5476C191.646 61.157 192.431 62.0125 192.985 63.1143C193.545 64.2161 193.825 65.4995 193.825 66.9645C193.825 68.4295 193.545 69.7098 192.985 70.8054C192.431 71.901 191.646 72.7536 190.63 73.3629C189.615 73.9723 188.414 74.277 187.029 74.277ZM187.048 71.5994C187.799 71.5994 188.427 71.3932 188.931 70.9808C189.436 70.5623 189.812 70.0021 190.058 69.3004C190.31 68.5987 190.436 67.817 190.436 66.9553C190.436 66.0874 190.31 65.3026 190.058 64.6009C189.812 63.893 189.436 63.3298 188.931 62.9112C188.427 62.4927 187.799 62.2834 187.048 62.2834C186.278 62.2834 185.638 62.4927 185.127 62.9112C184.623 63.3298 184.244 63.893 183.992 64.6009C183.746 65.3026 183.622 66.0874 183.622 66.9553C183.622 67.817 183.746 68.5987 183.992 69.3004C184.244 70.0021 184.623 70.5623 185.127 70.9808C185.638 71.3932 186.278 71.5994 187.048 71.5994ZM200.004 65.6903V74H196.662V59.8182H199.856V62.228H200.022C200.349 61.4339 200.869 60.803 201.583 60.3352C202.303 59.8674 203.192 59.6335 204.251 59.6335C205.23 59.6335 206.082 59.8428 206.809 60.2614C207.541 60.6799 208.107 61.2862 208.508 62.0803C208.914 62.8743 209.114 63.8376 209.108 64.9702V74H205.765V65.4872C205.765 64.5393 205.519 63.7976 205.027 63.2621C204.54 62.7266 203.866 62.4588 203.005 62.4588C202.42 62.4588 201.9 62.5881 201.444 62.8466C200.995 63.099 200.641 63.4652 200.383 63.9453C200.13 64.4254 200.004 65.0071 200.004 65.6903ZM223.714 63.5668L220.667 63.8991C220.581 63.5914 220.43 63.3021 220.215 63.0312C220.006 62.7604 219.723 62.5419 219.366 62.3757C219.008 62.2095 218.571 62.1264 218.054 62.1264C217.359 62.1264 216.774 62.2772 216.3 62.5788C215.832 62.8804 215.602 63.2713 215.608 63.7514C215.602 64.1638 215.752 64.4993 216.06 64.7578C216.374 65.0163 216.891 65.2287 217.611 65.3949L220.03 65.9119C221.372 66.2012 222.369 66.6598 223.022 67.2876C223.68 67.9155 224.013 68.7372 224.019 69.7528C224.013 70.6454 223.751 71.4332 223.234 72.1165C222.723 72.7936 222.012 73.3229 221.101 73.7045C220.19 74.0862 219.144 74.277 217.962 74.277C216.226 74.277 214.829 73.9138 213.77 73.1875C212.712 72.455 212.081 71.4363 211.878 70.1314L215.137 69.8175C215.285 70.4576 215.598 70.9408 216.079 71.267C216.559 71.5933 217.183 71.7564 217.953 71.7564C218.747 71.7564 219.384 71.5933 219.864 71.267C220.35 70.9408 220.593 70.5376 220.593 70.0575C220.593 69.6513 220.437 69.3158 220.123 69.0511C219.815 68.7865 219.335 68.5833 218.682 68.4418L216.263 67.9339C214.903 67.6508 213.897 67.1738 213.244 66.5028C212.592 65.8258 212.268 64.9702 212.275 63.9361C212.268 63.062 212.505 62.3049 212.986 61.6648C213.472 61.0185 214.146 60.5199 215.008 60.169C215.875 59.812 216.876 59.6335 218.008 59.6335C219.67 59.6335 220.978 59.9875 221.932 60.6953C222.892 61.4032 223.486 62.3603 223.714 63.5668ZM236.151 74L232.144 59.8182H235.551L238.044 69.7898H238.173L240.721 59.8182H244.091L246.64 69.7344H246.778L249.234 59.8182H252.65L248.634 74H245.153L242.494 64.4162H242.3L239.641 74H236.151ZM254.984 74V59.8182H258.326V74H254.984ZM256.664 57.8054C256.135 57.8054 255.679 57.63 255.298 57.2791C254.916 56.9221 254.725 56.4943 254.725 55.9957C254.725 55.491 254.916 55.0632 255.298 54.7124C255.679 54.3553 256.135 54.1768 256.664 54.1768C257.2 54.1768 257.655 54.3553 258.031 54.7124C258.412 55.0632 258.603 55.491 258.603 55.9957C258.603 56.4943 258.412 56.9221 258.031 57.2791C257.655 57.63 257.2 57.8054 256.664 57.8054ZM268.845 59.8182V62.4034H260.692V59.8182H268.845ZM262.705 56.4205H266.047V69.7344C266.047 70.1837 266.115 70.5284 266.25 70.7685C266.392 71.0024 266.577 71.1624 266.804 71.2486C267.032 71.3348 267.285 71.3778 267.562 71.3778C267.771 71.3778 267.962 71.3625 268.134 71.3317C268.312 71.3009 268.448 71.2732 268.54 71.2486L269.103 73.8615C268.925 73.9231 268.669 73.9908 268.337 74.0646C268.011 74.1385 267.611 74.1816 267.137 74.1939C266.3 74.2185 265.546 74.0923 264.875 73.8153C264.204 73.5322 263.671 73.0952 263.277 72.5043C262.89 71.9134 262.699 71.1747 262.705 70.2884V56.4205ZM275.287 65.6903V74H271.945V55.0909H275.213V62.228H275.38C275.712 61.4278 276.226 60.7969 276.921 60.3352C277.623 59.8674 278.516 59.6335 279.599 59.6335C280.584 59.6335 281.443 59.8397 282.175 60.2521C282.907 60.6645 283.474 61.2678 283.874 62.0618C284.28 62.8558 284.483 63.8253 284.483 64.9702V74H281.141V65.4872C281.141 64.5331 280.895 63.7914 280.402 63.2621C279.916 62.7266 279.233 62.4588 278.353 62.4588C277.762 62.4588 277.232 62.5881 276.764 62.8466C276.303 63.099 275.94 63.4652 275.675 63.9453C275.416 64.4254 275.287 65.0071 275.287 65.6903ZM298.42 74.2862C297.522 74.2862 296.712 74.1262 295.992 73.8061C295.278 73.4799 294.712 72.9998 294.293 72.3658C293.881 71.7318 293.675 70.95 293.675 70.0206C293.675 69.2204 293.822 68.5587 294.118 68.0355C294.413 67.5123 294.816 67.0938 295.327 66.7798C295.838 66.4659 296.414 66.2289 297.054 66.0689C297.7 65.9027 298.368 65.7827 299.057 65.7088C299.888 65.6226 300.562 65.5457 301.079 65.478C301.597 65.4041 301.972 65.2933 302.206 65.1456C302.446 64.9917 302.566 64.7547 302.566 64.4347V64.3793C302.566 63.6837 302.36 63.1451 301.947 62.7635C301.535 62.3819 300.941 62.1911 300.165 62.1911C299.347 62.1911 298.697 62.3696 298.217 62.7266C297.743 63.0836 297.423 63.5052 297.257 63.9915L294.136 63.5483C294.382 62.6866 294.789 61.9664 295.355 61.3878C295.921 60.803 296.614 60.366 297.432 60.0767C298.251 59.7812 299.156 59.6335 300.147 59.6335C300.83 59.6335 301.51 59.7135 302.187 59.8736C302.864 60.0336 303.483 60.2983 304.043 60.6676C304.603 61.0308 305.053 61.5263 305.391 62.1541C305.736 62.782 305.908 63.5668 305.908 64.5085V74H302.695V72.0518H302.584C302.381 72.4458 302.095 72.8151 301.726 73.1598C301.363 73.4983 300.904 73.7723 300.35 73.9815C299.802 74.1847 299.159 74.2862 298.42 74.2862ZM299.288 71.8303C299.959 71.8303 300.541 71.6979 301.033 71.4332C301.526 71.1624 301.904 70.8054 302.169 70.3622C302.44 69.919 302.575 69.4358 302.575 68.9126V67.2415C302.471 67.3277 302.292 67.4077 302.04 67.4815C301.793 67.5554 301.516 67.62 301.209 67.6754C300.901 67.7308 300.596 67.7801 300.295 67.8232C299.993 67.8662 299.731 67.9032 299.51 67.9339C299.011 68.0017 298.565 68.1125 298.171 68.2663C297.777 68.4202 297.466 68.6357 297.239 68.9126C297.011 69.1835 296.897 69.5343 296.897 69.9652C296.897 70.5807 297.122 71.0455 297.571 71.3594C298.02 71.6733 298.593 71.8303 299.288 71.8303ZM126.765 93.6903V102H123.422V87.8182H126.617V90.228H126.783C127.109 89.4339 127.63 88.803 128.344 88.3352C129.064 87.8674 129.953 87.6335 131.012 87.6335C131.991 87.6335 132.843 87.8428 133.569 88.2614C134.302 88.6799 134.868 89.2862 135.268 90.0803C135.675 90.8743 135.875 91.8376 135.868 92.9702V102H132.526V93.4872C132.526 92.5393 132.28 91.7976 131.787 91.2621C131.301 90.7266 130.627 90.4588 129.765 90.4588C129.181 90.4588 128.661 90.5881 128.205 90.8466C127.756 91.099 127.402 91.4652 127.143 91.9453C126.891 92.4254 126.765 93.0071 126.765 93.6903ZM143.347 102.286C142.448 102.286 141.639 102.126 140.919 101.806C140.205 101.48 139.639 101 139.22 100.366C138.808 99.7318 138.601 98.95 138.601 98.0206C138.601 97.2204 138.749 96.5587 139.045 96.0355C139.34 95.5123 139.743 95.0938 140.254 94.7798C140.765 94.4659 141.34 94.2289 141.981 94.0689C142.627 93.9027 143.295 93.7827 143.984 93.7088C144.815 93.6226 145.489 93.5457 146.006 93.478C146.523 93.4041 146.899 93.2933 147.133 93.1456C147.373 92.9917 147.493 92.7547 147.493 92.4347V92.3793C147.493 91.6837 147.287 91.1451 146.874 90.7635C146.462 90.3819 145.868 90.1911 145.092 90.1911C144.273 90.1911 143.624 90.3696 143.144 90.7266C142.67 91.0836 142.35 91.5052 142.184 91.9915L139.063 91.5483C139.309 90.6866 139.715 89.9664 140.282 89.3878C140.848 88.803 141.541 88.366 142.359 88.0767C143.178 87.7812 144.083 87.6335 145.074 87.6335C145.757 87.6335 146.437 87.7135 147.114 87.8736C147.791 88.0336 148.41 88.2983 148.97 88.6676C149.53 89.0308 149.979 89.5263 150.318 90.1541C150.663 90.782 150.835 91.5668 150.835 92.5085V102H147.622V100.052H147.511C147.308 100.446 147.022 100.815 146.653 101.16C146.289 101.498 145.831 101.772 145.277 101.982C144.729 102.185 144.086 102.286 143.347 102.286ZM144.215 99.8303C144.886 99.8303 145.468 99.6979 145.96 99.4332C146.452 99.1624 146.831 98.8054 147.096 98.3622C147.367 97.919 147.502 97.4358 147.502 96.9126V95.2415C147.397 95.3277 147.219 95.4077 146.966 95.4815C146.72 95.5554 146.443 95.62 146.135 95.6754C145.828 95.7308 145.523 95.7801 145.221 95.8232C144.92 95.8662 144.658 95.9032 144.437 95.9339C143.938 96.0017 143.492 96.1125 143.098 96.2663C142.704 96.4202 142.393 96.6357 142.165 96.9126C141.938 97.1835 141.824 97.5343 141.824 97.9652C141.824 98.5807 142.048 99.0455 142.498 99.3594C142.947 99.6733 143.519 99.8303 144.215 99.8303ZM161.278 87.8182V90.4034H153.125V87.8182H161.278ZM155.138 84.4205H158.48V97.7344C158.48 98.1837 158.548 98.5284 158.683 98.7685C158.825 99.0024 159.009 99.1624 159.237 99.2486C159.465 99.3348 159.717 99.3778 159.994 99.3778C160.203 99.3778 160.394 99.3625 160.567 99.3317C160.745 99.3009 160.881 99.2732 160.973 99.2486L161.536 101.862C161.358 101.923 161.102 101.991 160.77 102.065C160.443 102.138 160.043 102.182 159.569 102.194C158.732 102.219 157.978 102.092 157.307 101.815C156.636 101.532 156.104 101.095 155.71 100.504C155.322 99.9134 155.131 99.1747 155.138 98.2884V84.4205ZM164.073 102V87.8182H167.415V102H164.073ZM165.753 85.8054C165.224 85.8054 164.768 85.63 164.387 85.2791C164.005 84.9221 163.814 84.4943 163.814 83.9957C163.814 83.491 164.005 83.0632 164.387 82.7124C164.768 82.3553 165.224 82.1768 165.753 82.1768C166.289 82.1768 166.744 82.3553 167.12 82.7124C167.501 83.0632 167.692 83.491 167.692 83.9957C167.692 84.4943 167.501 84.9221 167.12 85.2791C166.744 85.63 166.289 85.8054 165.753 85.8054ZM183.52 87.8182L178.469 102H174.776L169.726 87.8182H173.29L176.549 98.353H176.697L179.965 87.8182H183.52ZM191.629 102.277C190.207 102.277 188.979 101.982 187.945 101.391C186.917 100.794 186.126 99.9503 185.572 98.8608C185.018 97.7652 184.741 96.4756 184.741 94.9922C184.741 93.5334 185.018 92.2531 185.572 91.1513C186.132 90.0433 186.914 89.1816 187.917 88.5661C188.92 87.9444 190.099 87.6335 191.453 87.6335C192.327 87.6335 193.152 87.7751 193.928 88.0582C194.709 88.3352 195.399 88.7661 195.996 89.3509C196.599 89.9356 197.073 90.6804 197.418 91.5852C197.762 92.4839 197.935 93.5549 197.935 94.7983V95.8232H186.31V93.5703H194.731C194.725 92.9302 194.586 92.3608 194.315 91.8622C194.045 91.3575 193.666 90.9605 193.18 90.6712C192.7 90.3819 192.139 90.2372 191.499 90.2372C190.816 90.2372 190.216 90.4034 189.699 90.7358C189.182 91.062 188.779 91.4929 188.489 92.0284C188.206 92.5578 188.062 93.1394 188.055 93.7734V95.7401C188.055 96.5649 188.206 97.2727 188.508 97.8636C188.809 98.4484 189.231 98.8977 189.773 99.2116C190.314 99.5194 190.948 99.6733 191.675 99.6733C192.161 99.6733 192.601 99.6056 192.995 99.4702C193.389 99.3286 193.731 99.1224 194.02 98.8516C194.309 98.5807 194.528 98.2453 194.675 97.8452L197.796 98.196C197.599 99.0208 197.224 99.741 196.67 100.357C196.122 100.966 195.42 101.44 194.565 101.778C193.709 102.111 192.73 102.277 191.629 102.277ZM218.42 91.5668L215.373 91.8991C215.287 91.5914 215.136 91.3021 214.921 91.0312C214.712 90.7604 214.429 90.5419 214.072 90.3757C213.715 90.2095 213.278 90.1264 212.76 90.1264C212.065 90.1264 211.48 90.2772 211.006 90.5788C210.538 90.8804 210.308 91.2713 210.314 91.7514C210.308 92.1638 210.458 92.4993 210.766 92.7578C211.08 93.0163 211.597 93.2287 212.317 93.3949L214.736 93.9119C216.078 94.2012 217.075 94.6598 217.728 95.2876C218.386 95.9155 218.719 96.7372 218.725 97.7528C218.719 98.6454 218.457 99.4332 217.94 100.116C217.429 100.794 216.718 101.323 215.807 101.705C214.896 102.086 213.85 102.277 212.668 102.277C210.932 102.277 209.535 101.914 208.476 101.188C207.418 100.455 206.787 99.4363 206.584 98.1314L209.843 97.8175C209.991 98.4576 210.305 98.9408 210.785 99.267C211.265 99.5933 211.89 99.7564 212.659 99.7564C213.453 99.7564 214.09 99.5933 214.57 99.267C215.056 98.9408 215.3 98.5376 215.3 98.0575C215.3 97.6513 215.143 97.3158 214.829 97.0511C214.521 96.7865 214.041 96.5833 213.388 96.4418L210.969 95.9339C209.609 95.6508 208.603 95.1738 207.95 94.5028C207.298 93.8258 206.974 92.9702 206.981 91.9361C206.974 91.062 207.211 90.3049 207.692 89.6648C208.178 89.0185 208.852 88.5199 209.714 88.169C210.581 87.812 211.582 87.6335 212.714 87.6335C214.376 87.6335 215.684 87.9875 216.638 88.6953C217.599 89.4032 218.193 90.3603 218.42 91.5668ZM221.481 107.318V87.8182H224.768V90.1634H224.962C225.134 89.8187 225.377 89.4524 225.691 89.0646C226.005 88.6707 226.43 88.3352 226.965 88.0582C227.501 87.7751 228.184 87.6335 229.015 87.6335C230.111 87.6335 231.099 87.9136 231.979 88.4737C232.865 89.0277 233.567 89.8494 234.084 90.9389C234.607 92.0223 234.869 93.3518 234.869 94.9276C234.869 96.4848 234.613 97.8082 234.102 98.8977C233.592 99.9872 232.896 100.818 232.016 101.391C231.136 101.963 230.138 102.249 229.024 102.249C228.212 102.249 227.538 102.114 227.002 101.843C226.467 101.572 226.036 101.246 225.71 100.864C225.39 100.477 225.14 100.11 224.962 99.7656H224.823V107.318H221.481ZM224.759 94.9091C224.759 95.8262 224.888 96.6295 225.146 97.3189C225.411 98.0083 225.79 98.5469 226.282 98.9347C226.781 99.3163 227.384 99.5071 228.092 99.5071C228.83 99.5071 229.449 99.3101 229.948 98.9162C230.446 98.5161 230.822 97.9714 231.074 97.282C231.333 96.5864 231.462 95.7955 231.462 94.9091C231.462 94.0289 231.336 93.2472 231.083 92.5639C230.831 91.8807 230.455 91.3452 229.957 90.9574C229.458 90.5696 228.837 90.3757 228.092 90.3757C227.378 90.3757 226.771 90.5634 226.273 90.9389C225.774 91.3144 225.396 91.8407 225.137 92.5178C224.885 93.1948 224.759 93.992 224.759 94.9091ZM244.009 102.277C242.588 102.277 241.36 101.982 240.325 101.391C239.298 100.794 238.507 99.9503 237.953 98.8608C237.399 97.7652 237.122 96.4756 237.122 94.9922C237.122 93.5334 237.399 92.2531 237.953 91.1513C238.513 90.0433 239.294 89.1816 240.298 88.5661C241.301 87.9444 242.48 87.6335 243.834 87.6335C244.708 87.6335 245.533 87.7751 246.308 88.0582C247.09 88.3352 247.78 88.7661 248.377 89.3509C248.98 89.9356 249.454 90.6804 249.798 91.5852C250.143 92.4839 250.316 93.5549 250.316 94.7983V95.8232H238.691V93.5703H247.112C247.106 92.9302 246.967 92.3608 246.696 91.8622C246.425 91.3575 246.047 90.9605 245.561 90.6712C245.08 90.3819 244.52 90.2372 243.88 90.2372C243.197 90.2372 242.597 90.4034 242.08 90.7358C241.563 91.062 241.16 91.4929 240.87 92.0284C240.587 92.5578 240.442 93.1394 240.436 93.7734V95.7401C240.436 96.5649 240.587 97.2727 240.889 97.8636C241.19 98.4484 241.612 98.8977 242.154 99.2116C242.695 99.5194 243.329 99.6733 244.056 99.6733C244.542 99.6733 244.982 99.6056 245.376 99.4702C245.77 99.3286 246.111 99.1224 246.401 98.8516C246.69 98.5807 246.909 98.2453 247.056 97.8452L250.177 98.196C249.98 99.0208 249.605 99.741 249.051 100.357C248.503 100.966 247.801 101.44 246.945 101.778C246.09 102.111 245.111 102.277 244.009 102.277ZM257.224 102.286C256.325 102.286 255.516 102.126 254.796 101.806C254.082 101.48 253.516 101 253.097 100.366C252.685 99.7318 252.478 98.95 252.478 98.0206C252.478 97.2204 252.626 96.5587 252.922 96.0355C253.217 95.5123 253.62 95.0938 254.131 94.7798C254.642 94.4659 255.217 94.2289 255.858 94.0689C256.504 93.9027 257.172 93.7827 257.861 93.7088C258.692 93.6226 259.366 93.5457 259.883 93.478C260.4 93.4041 260.776 93.2933 261.01 93.1456C261.25 92.9917 261.37 92.7547 261.37 92.4347V92.3793C261.37 91.6837 261.163 91.1451 260.751 90.7635C260.339 90.3819 259.745 90.1911 258.969 90.1911C258.15 90.1911 257.501 90.3696 257.021 90.7266C256.547 91.0836 256.227 91.5052 256.061 91.9915L252.94 91.5483C253.186 90.6866 253.592 89.9664 254.159 89.3878C254.725 88.803 255.417 88.366 256.236 88.0767C257.055 87.7812 257.96 87.6335 258.951 87.6335C259.634 87.6335 260.314 87.7135 260.991 87.8736C261.668 88.0336 262.287 88.2983 262.847 88.6676C263.407 89.0308 263.856 89.5263 264.195 90.1541C264.54 90.782 264.712 91.5668 264.712 92.5085V102H261.499V100.052H261.388C261.185 100.446 260.899 100.815 260.529 101.16C260.166 101.498 259.708 101.772 259.154 101.982C258.606 102.185 257.963 102.286 257.224 102.286ZM258.092 99.8303C258.763 99.8303 259.345 99.6979 259.837 99.4332C260.329 99.1624 260.708 98.8054 260.973 98.3622C261.243 97.919 261.379 97.4358 261.379 96.9126V95.2415C261.274 95.3277 261.096 95.4077 260.843 95.4815C260.597 95.5554 260.32 95.62 260.012 95.6754C259.705 95.7308 259.4 95.7801 259.098 95.8232C258.797 95.8662 258.535 95.9032 258.314 95.9339C257.815 96.0017 257.369 96.1125 256.975 96.2663C256.581 96.4202 256.27 96.6357 256.042 96.9126C255.815 97.1835 255.701 97.5343 255.701 97.9652C255.701 98.5807 255.925 99.0455 256.375 99.3594C256.824 99.6733 257.396 99.8303 258.092 99.8303ZM271.12 97.5497L271.11 93.5149H271.646L276.743 87.8182H280.648L274.379 94.7983H273.686L271.12 97.5497ZM268.073 102V83.0909H271.415V102H268.073ZM276.973 102L272.357 95.5462L274.61 93.1918L280.971 102H276.973ZM288.57 102.277C287.148 102.277 285.92 101.982 284.886 101.391C283.858 100.794 283.067 99.9503 282.513 98.8608C281.959 97.7652 281.682 96.4756 281.682 94.9922C281.682 93.5334 281.959 92.2531 282.513 91.1513C283.073 90.0433 283.855 89.1816 284.858 88.5661C285.862 87.9444 287.04 87.6335 288.395 87.6335C289.269 87.6335 290.093 87.7751 290.869 88.0582C291.651 88.3352 292.34 88.7661 292.937 89.3509C293.54 89.9356 294.014 90.6804 294.359 91.5852C294.704 92.4839 294.876 93.5549 294.876 94.7983V95.8232H283.252V93.5703H291.672C291.666 92.9302 291.528 92.3608 291.257 91.8622C290.986 91.3575 290.607 90.9605 290.121 90.6712C289.641 90.3819 289.081 90.2372 288.441 90.2372C287.757 90.2372 287.157 90.4034 286.64 90.7358C286.123 91.062 285.72 91.4929 285.431 92.0284C285.148 92.5578 285.003 93.1394 284.997 93.7734V95.7401C284.997 96.5649 285.148 97.2727 285.449 97.8636C285.751 98.4484 286.172 98.8977 286.714 99.2116C287.256 99.5194 287.89 99.6733 288.616 99.6733C289.102 99.6733 289.542 99.6056 289.936 99.4702C290.33 99.3286 290.672 99.1224 290.961 98.8516C291.251 98.5807 291.469 98.2453 291.617 97.8452L294.738 98.196C294.541 99.0208 294.165 99.741 293.611 100.357C293.063 100.966 292.362 101.44 291.506 101.778C290.65 102.111 289.672 102.277 288.57 102.277ZM297.704 102V87.8182H300.944V90.1818H301.092C301.351 89.3632 301.794 88.7322 302.422 88.2891C303.056 87.8397 303.779 87.6151 304.591 87.6151C304.776 87.6151 304.982 87.6243 305.21 87.6428C305.444 87.6551 305.638 87.6766 305.792 87.7074V90.782C305.65 90.7327 305.425 90.6896 305.118 90.6527C304.816 90.6096 304.524 90.5881 304.241 90.5881C303.631 90.5881 303.083 90.7204 302.597 90.9851C302.117 91.2436 301.738 91.6037 301.461 92.0653C301.184 92.527 301.046 93.0594 301.046 93.6626V102H297.704Z" fill="#502E12"/>
<defs>
<filter id="filter0_d_161_444" x="0" y="0" width="427" height="157" filterUnits="userSpaceOnUse" color-interpolation-filters="sRGB">
<feFlood flood-opacity="0" result="BackgroundImageFix"/>
<feColorMatrix in="SourceAlpha" type="matrix" values="0 0 0 0 0 0 0 0 0 0 0 0 0 0 0 0 0 0 127 0" result="hardAlpha"/>
<feOffset/>
<feGaussianBlur stdDeviation="8"/>
<feComposite in2="hardAlpha" operator="out"/>
<feColorMatrix type="matrix" values="0 0 0 0 0.44391 0 0 0 0 0.44391 0 0 0 0 0.44391 0 0 0 0.25 0"/>
<feBlend mode="normal" in2="BackgroundImageFix" result="effect1_dropShadow_161_444"/>
<feBlend mode="normal" in="SourceGraphic" in2="effect1_dropShadow_161_444" result="shape"/>
</filter>
</defs>
</svg>
