<svg width="427" height="157" viewBox="0 0 427 157" fill="none" xmlns="http://www.w3.org/2000/svg">
<g filter="url(#filter0_d_161_474)">
<path d="M394.243 16C394.243 21.0137 401.21 25.0781 409.804 25.0781C410.206 25.0781 410.605 25.0654 411 25.0479V129.855C410.605 129.838 410.206 129.826 409.804 129.826C401.21 129.826 394.244 133.891 394.243 138.904C394.243 139.626 394.388 140.327 394.66 141H31.1436C31.416 140.327 31.5605 139.626 31.5605 138.904C31.5602 133.891 24.5937 129.826 16 129.826V25.0781C24.5939 25.0781 31.5605 21.0137 31.5605 16L394.243 16Z" fill="white"/>
</g>
<mask id="path-2-inside-1_161_474" fill="white">
<path d="M388.837 24C388.837 28.3319 395.556 31.8437 403.846 31.8437C404.234 31.8437 404.619 31.8325 405 31.8174V122.371C404.619 122.356 404.234 122.347 403.846 122.347C395.556 122.347 388.837 125.859 388.837 130.19C388.837 130.813 388.976 131.419 389.238 132H38.6084C38.8709 131.419 39.0097 130.813 39.0098 130.19C39.0098 125.859 32.2902 122.347 24.001 122.347H24V31.8428C32.2893 31.8428 39.0098 28.3319 39.0098 24L388.837 24Z"/>
</mask>
<path d="M388.837 24C388.837 28.3319 395.556 31.8437 403.846 31.8437C404.234 31.8437 404.619 31.8325 405 31.8174V122.371C404.619 122.356 404.234 122.347 403.846 122.347C395.556 122.347 388.837 125.859 388.837 130.19C388.837 130.813 388.976 131.419 389.238 132H38.6084C38.8709 131.419 39.0097 130.813 39.0098 130.19C39.0098 125.859 32.2902 122.347 24.001 122.347H24V31.8428C32.2893 31.8428 39.0098 28.3319 39.0098 24L388.837 24Z" fill="white"/>
<path d="M388.837 24H389.837V23H388.837V24ZM403.846 31.8437L403.846 32.8438L403.846 32.8437L403.846 31.8437ZM405 31.8174H406V30.7768L404.96 30.8182L405 31.8174ZM405 122.371L404.96 123.37L406 123.412V122.371H405ZM403.846 122.347L403.846 121.347H403.846V122.347ZM388.837 130.19L387.837 130.19L387.837 130.19L388.837 130.19ZM389.238 132V133H390.788L390.15 131.588L389.238 132ZM38.6084 132L37.6971 131.588L37.0591 133H38.6084V132ZM39.0098 130.19L40.0098 130.19V130.19H39.0098ZM24.001 122.347L24.001 121.347H24.001V122.347ZM24 122.347H23V123.347H24V122.347ZM24 31.8428V30.8428H23V31.8428H24ZM39.0098 24V23H38.0098V24H39.0098ZM388.837 24H387.837C387.837 26.7256 389.932 28.9494 392.77 30.4326C395.656 31.9408 399.573 32.8437 403.846 32.8437V31.8437V30.8437C399.829 30.8437 396.242 29.9907 393.696 28.6601C391.102 27.3044 389.837 25.6063 389.837 24H388.837ZM403.846 31.8437L403.846 32.8437C404.253 32.8437 404.652 32.832 405.04 32.8166L405 31.8174L404.96 30.8182C404.586 30.8331 404.216 30.8437 403.846 30.8438L403.846 31.8437ZM405 31.8174H404V122.371H405H406V31.8174H405ZM405 122.371L405.04 121.372C404.648 121.356 404.25 121.347 403.846 121.347L403.846 122.347L403.846 123.347C404.218 123.347 404.59 123.356 404.96 123.37L405 122.371ZM403.846 122.347V121.347C399.573 121.347 395.656 122.25 392.77 123.758C389.932 125.241 387.837 127.465 387.837 130.19H388.837H389.837C389.837 128.584 391.102 126.886 393.696 125.53C396.242 124.2 399.829 123.347 403.846 123.347V122.347ZM388.837 130.19L387.837 130.19C387.837 130.966 388.01 131.711 388.327 132.412L389.238 132L390.15 131.588C389.941 131.127 389.837 130.661 389.837 130.19L388.837 130.19ZM389.238 132V131H38.6084V132V133H389.238V132ZM38.6084 132L39.5197 132.412C39.8362 131.711 40.0097 130.966 40.0098 130.19L39.0098 130.19L38.0098 130.19C38.0097 130.661 37.9056 131.127 37.6971 131.588L38.6084 132ZM39.0098 130.19H40.0098C40.0098 127.465 37.915 125.241 35.077 123.758C32.191 122.25 28.2735 121.347 24.001 121.347L24.001 122.347L24.001 123.347C28.0177 123.347 31.6045 124.2 34.1506 125.53C36.7447 126.886 38.0098 128.584 38.0098 130.19H39.0098ZM24.001 122.347V121.347H24V122.347V123.347H24.001V122.347ZM24 122.347H25V31.8428H24H23V122.347H24ZM24 31.8428V32.8428C28.2725 32.8428 32.1903 31.9401 35.0764 30.4322C37.9146 28.9493 40.0098 26.7257 40.0098 24H39.0098H38.0098C38.0098 25.6062 36.7447 27.304 34.1503 28.6595C31.6039 29.99 28.0168 30.8428 24 30.8428V31.8428ZM39.0098 24V25L388.837 25V24V23L39.0098 23V24Z" fill="#D9B881" mask="url(#path-2-inside-1_161_474)"/>
<path d="M188.951 74V55.0909H192.376V63.0959H201.138V55.0909H204.573V74H201.138V65.9673H192.376V74H188.951ZM218.575 60.2891C218.489 59.4827 218.126 58.8549 217.485 58.4055C216.851 57.9562 216.027 57.7315 215.011 57.7315C214.297 57.7315 213.685 57.8393 213.174 58.0547C212.663 58.2701 212.272 58.5625 212.001 58.9318C211.73 59.3011 211.592 59.7228 211.586 60.1967C211.586 60.5907 211.675 60.9323 211.853 61.2216C212.038 61.5109 212.287 61.7571 212.601 61.9602C212.915 62.1572 213.263 62.3234 213.645 62.4588C214.026 62.5942 214.411 62.7081 214.799 62.8004L216.571 63.2436C217.285 63.4098 217.972 63.6345 218.63 63.9176C219.295 64.2008 219.889 64.5578 220.412 64.9886C220.942 65.4195 221.36 65.9396 221.668 66.549C221.976 67.1584 222.13 67.8724 222.13 68.6911C222.13 69.799 221.846 70.7746 221.28 71.6179C220.714 72.455 219.895 73.1106 218.824 73.5845C217.759 74.0523 216.47 74.2862 214.956 74.2862C213.484 74.2862 212.207 74.0585 211.124 73.603C210.047 73.1475 209.203 72.4827 208.594 71.6087C207.991 70.7346 207.665 69.6697 207.615 68.4141H210.985C211.035 69.0727 211.238 69.6205 211.595 70.0575C211.952 70.4946 212.417 70.8208 212.989 71.0362C213.568 71.2517 214.214 71.3594 214.928 71.3594C215.673 71.3594 216.325 71.2486 216.885 71.027C217.452 70.7992 217.895 70.4853 218.215 70.0852C218.535 69.679 218.698 69.205 218.704 68.6634C218.698 68.1709 218.553 67.7647 218.27 67.4446C217.987 67.1184 217.59 66.8475 217.079 66.6321C216.574 66.4105 215.984 66.2135 215.306 66.0412L213.155 65.4872C211.598 65.0871 210.367 64.4808 209.462 63.6683C208.563 62.8497 208.114 61.7633 208.114 60.4091C208.114 59.295 208.416 58.3194 209.019 57.4822C209.628 56.6451 210.456 55.9957 211.502 55.5341C212.549 55.0663 213.734 54.8324 215.057 54.8324C216.399 54.8324 217.575 55.0663 218.584 55.5341C219.6 55.9957 220.397 56.639 220.975 57.4638C221.554 58.2824 221.853 59.2242 221.871 60.2891H218.575ZM225.183 74V55.0909H228.609V63.7791H228.84L236.217 55.0909H240.399L233.087 63.576L240.464 74H236.346L230.705 65.8935L228.609 68.3679V74H225.183ZM142.783 107.318V87.8182H146.07V90.1634H146.264C146.436 89.8187 146.679 89.4524 146.993 89.0646C147.307 88.6707 147.732 88.3352 148.267 88.0582C148.803 87.7751 149.486 87.6335 150.317 87.6335C151.412 87.6335 152.4 87.9136 153.281 88.4737C154.167 89.0277 154.869 89.8494 155.386 90.9389C155.909 92.0223 156.171 93.3518 156.171 94.9276C156.171 96.4848 155.915 97.8082 155.404 98.8977C154.893 99.9872 154.198 100.818 153.318 101.391C152.437 101.963 151.44 102.249 150.326 102.249C149.514 102.249 148.84 102.114 148.304 101.843C147.769 101.572 147.338 101.246 147.011 100.864C146.691 100.477 146.442 100.11 146.264 99.7656H146.125V107.318H142.783ZM146.06 94.9091C146.06 95.8262 146.19 96.6295 146.448 97.3189C146.713 98.0083 147.091 98.5469 147.584 98.9347C148.082 99.3163 148.686 99.5071 149.394 99.5071C150.132 99.5071 150.751 99.3101 151.249 98.9162C151.748 98.5161 152.123 97.9714 152.376 97.282C152.634 96.5864 152.764 95.7955 152.764 94.9091C152.764 94.0289 152.637 93.2472 152.385 92.5639C152.133 91.8807 151.757 91.3452 151.259 90.9574C150.76 90.5696 150.138 90.3757 149.394 90.3757C148.68 90.3757 148.073 90.5634 147.575 90.9389C147.076 91.3144 146.698 91.8407 146.439 92.5178C146.187 93.1948 146.06 93.992 146.06 94.9091ZM159.033 102V87.8182H162.274V90.1818H162.421C162.68 89.3632 163.123 88.7322 163.751 88.2891C164.385 87.8397 165.108 87.6151 165.921 87.6151C166.105 87.6151 166.311 87.6243 166.539 87.6428C166.773 87.6551 166.967 87.6766 167.121 87.7074V90.782C166.979 90.7327 166.755 90.6896 166.447 90.6527C166.145 90.6096 165.853 90.5881 165.57 90.5881C164.96 90.5881 164.412 90.7204 163.926 90.9851C163.446 91.2436 163.068 91.6037 162.791 92.0653C162.514 92.527 162.375 93.0594 162.375 93.6626V102H159.033ZM175.036 102.277C173.614 102.277 172.386 101.982 171.352 101.391C170.324 100.794 169.533 99.9503 168.979 98.8608C168.425 97.7652 168.148 96.4756 168.148 94.9922C168.148 93.5334 168.425 92.2531 168.979 91.1513C169.539 90.0433 170.321 89.1816 171.324 88.5661C172.327 87.9444 173.506 87.6335 174.86 87.6335C175.734 87.6335 176.559 87.7751 177.335 88.0582C178.117 88.3352 178.806 88.7661 179.403 89.3509C180.006 89.9356 180.48 90.6804 180.825 91.5852C181.17 92.4839 181.342 93.5549 181.342 94.7983V95.8232H169.718V93.5703H178.138C178.132 92.9302 177.993 92.3608 177.723 91.8622C177.452 91.3575 177.073 90.9605 176.587 90.6712C176.107 90.3819 175.547 90.2372 174.907 90.2372C174.223 90.2372 173.623 90.4034 173.106 90.7358C172.589 91.062 172.186 91.4929 171.897 92.0284C171.613 92.5578 171.469 93.1394 171.463 93.7734V95.7401C171.463 96.5649 171.613 97.2727 171.915 97.8636C172.217 98.4484 172.638 98.8977 173.18 99.2116C173.722 99.5194 174.356 99.6733 175.082 99.6733C175.568 99.6733 176.008 99.6056 176.402 99.4702C176.796 99.3286 177.138 99.1224 177.427 98.8516C177.716 98.5807 177.935 98.2453 178.083 97.8452L181.203 98.196C181.006 99.0208 180.631 99.741 180.077 100.357C179.529 100.966 178.827 101.44 177.972 101.778C177.116 102.111 176.138 102.277 175.036 102.277ZM184.169 107.318V87.8182H187.456V90.1634H187.65C187.823 89.8187 188.066 89.4524 188.38 89.0646C188.694 88.6707 189.118 88.3352 189.654 88.0582C190.189 87.7751 190.873 87.6335 191.704 87.6335C192.799 87.6335 193.787 87.9136 194.667 88.4737C195.554 89.0277 196.255 89.8494 196.772 90.9389C197.296 92.0223 197.557 93.3518 197.557 94.9276C197.557 96.4848 197.302 97.8082 196.791 98.8977C196.28 99.9872 195.584 100.818 194.704 101.391C193.824 101.963 192.827 102.249 191.713 102.249C190.9 102.249 190.226 102.114 189.691 101.843C189.155 101.572 188.724 101.246 188.398 100.864C188.078 100.477 187.829 100.11 187.65 99.7656H187.512V107.318H184.169ZM187.447 94.9091C187.447 95.8262 187.576 96.6295 187.835 97.3189C188.1 98.0083 188.478 98.5469 188.971 98.9347C189.469 99.3163 190.072 99.5071 190.78 99.5071C191.519 99.5071 192.138 99.3101 192.636 98.9162C193.135 98.5161 193.51 97.9714 193.763 97.282C194.021 96.5864 194.15 95.7955 194.15 94.9091C194.15 94.0289 194.024 93.2472 193.772 92.5639C193.519 91.8807 193.144 91.3452 192.645 90.9574C192.147 90.5696 191.525 90.3757 190.78 90.3757C190.066 90.3757 189.46 90.5634 188.961 90.9389C188.463 91.3144 188.084 91.8407 187.826 92.5178C187.573 93.1948 187.447 93.992 187.447 94.9091ZM204.5 102.286C203.602 102.286 202.792 102.126 202.072 101.806C201.358 101.48 200.792 101 200.373 100.366C199.961 99.7318 199.755 98.95 199.755 98.0206C199.755 97.2204 199.902 96.5587 200.198 96.0355C200.493 95.5123 200.897 95.0938 201.407 94.7798C201.918 94.4659 202.494 94.2289 203.134 94.0689C203.78 93.9027 204.448 93.7827 205.138 93.7088C205.968 93.6226 206.642 93.5457 207.16 93.478C207.677 93.4041 208.052 93.2933 208.286 93.1456C208.526 92.9917 208.646 92.7547 208.646 92.4347V92.3793C208.646 91.6837 208.44 91.1451 208.027 90.7635C207.615 90.3819 207.021 90.1911 206.245 90.1911C205.427 90.1911 204.777 90.3696 204.297 90.7266C203.823 91.0836 203.503 91.5052 203.337 91.9915L200.216 91.5483C200.463 90.6866 200.869 89.9664 201.435 89.3878C202.001 88.803 202.694 88.366 203.513 88.0767C204.331 87.7812 205.236 87.6335 206.227 87.6335C206.91 87.6335 207.59 87.7135 208.267 87.8736C208.945 88.0336 209.563 88.2983 210.123 88.6676C210.683 89.0308 211.133 89.5263 211.471 90.1541C211.816 90.782 211.988 91.5668 211.988 92.5085V102H208.775V100.052H208.665C208.461 100.446 208.175 100.815 207.806 101.16C207.443 101.498 206.984 101.772 206.43 101.982C205.882 102.185 205.239 102.286 204.5 102.286ZM205.368 99.8303C206.039 99.8303 206.621 99.6979 207.113 99.4332C207.606 99.1624 207.984 98.8054 208.249 98.3622C208.52 97.919 208.655 97.4358 208.655 96.9126V95.2415C208.551 95.3277 208.372 95.4077 208.12 95.4815C207.874 95.5554 207.597 95.62 207.289 95.6754C206.981 95.7308 206.676 95.7801 206.375 95.8232C206.073 95.8662 205.812 95.9032 205.59 95.9339C205.091 96.0017 204.645 96.1125 204.251 96.2663C203.857 96.4202 203.546 96.6357 203.319 96.9126C203.091 97.1835 202.977 97.5343 202.977 97.9652C202.977 98.5807 203.202 99.0455 203.651 99.3594C204.1 99.6733 204.673 99.8303 205.368 99.8303ZM215.349 102V87.8182H218.59V90.1818H218.738C218.996 89.3632 219.439 88.7322 220.067 88.2891C220.701 87.8397 221.424 87.6151 222.237 87.6151C222.422 87.6151 222.628 87.6243 222.856 87.6428C223.089 87.6551 223.283 87.6766 223.437 87.7074V90.782C223.296 90.7327 223.071 90.6896 222.763 90.6527C222.462 90.6096 222.169 90.5881 221.886 90.5881C221.277 90.5881 220.729 90.7204 220.243 90.9851C219.763 91.2436 219.384 91.6037 219.107 92.0653C218.83 92.527 218.691 93.0594 218.691 93.6626V102H215.349ZM229.485 102.286C228.586 102.286 227.777 102.126 227.057 101.806C226.343 101.48 225.776 101 225.358 100.366C224.945 99.7318 224.739 98.95 224.739 98.0206C224.739 97.2204 224.887 96.5587 225.182 96.0355C225.478 95.5123 225.881 95.0938 226.392 94.7798C226.903 94.4659 227.478 94.2289 228.118 94.0689C228.765 93.9027 229.432 93.7827 230.122 93.7088C230.953 93.6226 231.627 93.5457 232.144 93.478C232.661 93.4041 233.036 93.2933 233.27 93.1456C233.51 92.9917 233.63 92.7547 233.63 92.4347V92.3793C233.63 91.6837 233.424 91.1451 233.012 90.7635C232.599 90.3819 232.005 90.1911 231.23 90.1911C230.411 90.1911 229.762 90.3696 229.282 90.7266C228.808 91.0836 228.488 91.5052 228.321 91.9915L225.201 91.5483C225.447 90.6866 225.853 89.9664 226.419 89.3878C226.986 88.803 227.678 88.366 228.497 88.0767C229.316 87.7812 230.22 87.6335 231.211 87.6335C231.895 87.6335 232.575 87.7135 233.252 87.8736C233.929 88.0336 234.548 88.2983 235.108 88.6676C235.668 89.0308 236.117 89.5263 236.456 90.1541C236.8 90.782 236.973 91.5668 236.973 92.5085V102H233.76V100.052H233.649C233.446 100.446 233.16 100.815 232.79 101.16C232.427 101.498 231.968 101.772 231.415 101.982C230.867 102.185 230.223 102.286 229.485 102.286ZM230.353 99.8303C231.024 99.8303 231.605 99.6979 232.098 99.4332C232.59 99.1624 232.969 98.8054 233.233 98.3622C233.504 97.919 233.64 97.4358 233.64 96.9126V95.2415C233.535 95.3277 233.357 95.4077 233.104 95.4815C232.858 95.5554 232.581 95.62 232.273 95.6754C231.965 95.7308 231.661 95.7801 231.359 95.8232C231.057 95.8662 230.796 95.9032 230.574 95.9339C230.076 96.0017 229.629 96.1125 229.236 96.2663C228.842 96.4202 228.531 96.6357 228.303 96.9126C228.075 97.1835 227.961 97.5343 227.961 97.9652C227.961 98.5807 228.186 99.0455 228.635 99.3594C229.085 99.6733 229.657 99.8303 230.353 99.8303ZM247.415 87.8182V90.4034H239.263V87.8182H247.415ZM241.275 84.4205H244.618V97.7344C244.618 98.1837 244.685 98.5284 244.821 98.7685C244.962 99.0024 245.147 99.1624 245.375 99.2486C245.602 99.3348 245.855 99.3778 246.132 99.3778C246.341 99.3778 246.532 99.3625 246.704 99.3317C246.883 99.3009 247.018 99.2732 247.111 99.2486L247.674 101.862C247.495 101.923 247.24 101.991 246.907 102.065C246.581 102.138 246.181 102.182 245.707 102.194C244.87 102.219 244.116 102.092 243.445 101.815C242.774 101.532 242.242 101.095 241.848 100.504C241.46 99.9134 241.269 99.1747 241.275 98.2884V84.4205ZM250.21 102V87.8182H253.553V102H250.21ZM251.891 85.8054C251.362 85.8054 250.906 85.63 250.524 85.2791C250.143 84.9221 249.952 84.4943 249.952 83.9957C249.952 83.491 250.143 83.0632 250.524 82.7124C250.906 82.3553 251.362 82.1768 251.891 82.1768C252.426 82.1768 252.882 82.3553 253.257 82.7124C253.639 83.0632 253.83 83.491 253.83 83.9957C253.83 84.4943 253.639 84.9221 253.257 85.2791C252.882 85.63 252.426 85.8054 251.891 85.8054ZM263.176 102.277C261.791 102.277 260.591 101.972 259.575 101.363C258.559 100.754 257.772 99.901 257.211 98.8054C256.657 97.7098 256.38 96.4295 256.38 94.9645C256.38 93.4995 256.657 92.2161 257.211 91.1143C257.772 90.0125 258.559 89.157 259.575 88.5476C260.591 87.9382 261.791 87.6335 263.176 87.6335C264.561 87.6335 265.761 87.9382 266.777 88.5476C267.792 89.157 268.577 90.0125 269.131 91.1143C269.691 92.2161 269.971 93.4995 269.971 94.9645C269.971 96.4295 269.691 97.7098 269.131 98.8054C268.577 99.901 267.792 100.754 266.777 101.363C265.761 101.972 264.561 102.277 263.176 102.277ZM263.194 99.5994C263.945 99.5994 264.573 99.3932 265.078 98.9808C265.583 98.5623 265.958 98.0021 266.204 97.3004C266.457 96.5987 266.583 95.817 266.583 94.9553C266.583 94.0874 266.457 93.3026 266.204 92.6009C265.958 91.893 265.583 91.3298 265.078 90.9112C264.573 90.4927 263.945 90.2834 263.194 90.2834C262.425 90.2834 261.785 90.4927 261.274 90.9112C260.769 91.3298 260.391 91.893 260.138 92.6009C259.892 93.3026 259.769 94.0874 259.769 94.9553C259.769 95.817 259.892 96.5987 260.138 97.3004C260.391 98.0021 260.769 98.5623 261.274 98.9808C261.785 99.3932 262.425 99.5994 263.194 99.5994ZM276.15 93.6903V102H272.808V87.8182H276.003V90.228H276.169C276.495 89.4339 277.015 88.803 277.729 88.3352C278.449 87.8674 279.339 87.6335 280.398 87.6335C281.376 87.6335 282.229 87.8428 282.955 88.2614C283.688 88.6799 284.254 89.2862 284.654 90.0803C285.06 90.8743 285.26 91.8376 285.254 92.9702V102H281.912V93.4872C281.912 92.5393 281.666 91.7976 281.173 91.2621C280.687 90.7266 280.013 90.4588 279.151 90.4588C278.566 90.4588 278.046 90.5881 277.591 90.8466C277.141 91.099 276.788 91.4652 276.529 91.9453C276.277 92.4254 276.15 93.0071 276.15 93.6903Z" fill="#502E12"/>
<defs>
<filter id="filter0_d_161_474" x="0" y="0" width="427" height="157" filterUnits="userSpaceOnUse" color-interpolation-filters="sRGB">
<feFlood flood-opacity="0" result="BackgroundImageFix"/>
<feColorMatrix in="SourceAlpha" type="matrix" values="0 0 0 0 0 0 0 0 0 0 0 0 0 0 0 0 0 0 127 0" result="hardAlpha"/>
<feOffset/>
<feGaussianBlur stdDeviation="8"/>
<feComposite in2="hardAlpha" operator="out"/>
<feColorMatrix type="matrix" values="0 0 0 0 0.44391 0 0 0 0 0.44391 0 0 0 0 0.44391 0 0 0 0.25 0"/>
<feBlend mode="normal" in2="BackgroundImageFix" result="effect1_dropShadow_161_474"/>
<feBlend mode="normal" in="SourceGraphic" in2="effect1_dropShadow_161_474" result="shape"/>
</filter>
</defs>
</svg>
