<svg width="427" height="157" viewBox="0 0 427 157" fill="none" xmlns="http://www.w3.org/2000/svg">
<g filter="url(#filter0_d_63_461)">
<path d="M394.243 16C394.243 21.0137 401.21 25.0781 409.804 25.0781C410.206 25.0781 410.605 25.0654 411 25.0479V129.855C410.605 129.838 410.206 129.826 409.804 129.826C401.21 129.826 394.244 133.891 394.243 138.904C394.243 139.626 394.388 140.327 394.66 141H31.1436C31.416 140.327 31.5605 139.626 31.5605 138.904C31.5602 133.891 24.5937 129.826 16 129.826V25.0781C24.5939 25.0781 31.5605 21.0137 31.5605 16L394.243 16Z" fill="white"/>
</g>
<mask id="path-2-inside-1_63_461" fill="white">
<path d="M388.837 24C388.837 28.3319 395.556 31.8437 403.846 31.8437C404.234 31.8437 404.619 31.8325 405 31.8174V122.371C404.619 122.356 404.234 122.347 403.846 122.347C395.556 122.347 388.837 125.859 388.837 130.19C388.837 130.813 388.976 131.419 389.238 132H38.6084C38.8709 131.419 39.0097 130.813 39.0098 130.19C39.0098 125.859 32.2902 122.347 24.001 122.347H24V31.8428C32.2893 31.8428 39.0098 28.3319 39.0098 24L388.837 24Z"/>
</mask>
<path d="M388.837 24C388.837 28.3319 395.556 31.8437 403.846 31.8437C404.234 31.8437 404.619 31.8325 405 31.8174V122.371C404.619 122.356 404.234 122.347 403.846 122.347C395.556 122.347 388.837 125.859 388.837 130.19C388.837 130.813 388.976 131.419 389.238 132H38.6084C38.8709 131.419 39.0097 130.813 39.0098 130.19C39.0098 125.859 32.2902 122.347 24.001 122.347H24V31.8428C32.2893 31.8428 39.0098 28.3319 39.0098 24L388.837 24Z" fill="white"/>
<path d="M388.837 24H389.837V23H388.837V24ZM403.846 31.8437L403.846 32.8438L403.846 32.8437L403.846 31.8437ZM405 31.8174H406V30.7768L404.96 30.8182L405 31.8174ZM405 122.371L404.96 123.37L406 123.412V122.371H405ZM403.846 122.347L403.846 121.347H403.846V122.347ZM388.837 130.19L387.837 130.19L387.837 130.19L388.837 130.19ZM389.238 132V133H390.788L390.15 131.588L389.238 132ZM38.6084 132L37.6971 131.588L37.0591 133H38.6084V132ZM39.0098 130.19L40.0098 130.19V130.19H39.0098ZM24.001 122.347L24.001 121.347H24.001V122.347ZM24 122.347H23V123.347H24V122.347ZM24 31.8428V30.8428H23V31.8428H24ZM39.0098 24V23H38.0098V24H39.0098ZM388.837 24H387.837C387.837 26.7256 389.932 28.9494 392.77 30.4326C395.656 31.9408 399.573 32.8437 403.846 32.8437V31.8437V30.8437C399.829 30.8437 396.242 29.9907 393.696 28.6601C391.102 27.3044 389.837 25.6063 389.837 24H388.837ZM403.846 31.8437L403.846 32.8437C404.253 32.8437 404.652 32.832 405.04 32.8166L405 31.8174L404.96 30.8182C404.586 30.8331 404.216 30.8437 403.846 30.8438L403.846 31.8437ZM405 31.8174H404V122.371H405H406V31.8174H405ZM405 122.371L405.04 121.372C404.648 121.356 404.25 121.347 403.846 121.347L403.846 122.347L403.846 123.347C404.218 123.347 404.59 123.356 404.96 123.37L405 122.371ZM403.846 122.347V121.347C399.573 121.347 395.656 122.25 392.77 123.758C389.932 125.241 387.837 127.465 387.837 130.19H388.837H389.837C389.837 128.584 391.102 126.886 393.696 125.53C396.242 124.2 399.829 123.347 403.846 123.347V122.347ZM388.837 130.19L387.837 130.19C387.837 130.966 388.01 131.711 388.327 132.412L389.238 132L390.15 131.588C389.941 131.127 389.837 130.661 389.837 130.19L388.837 130.19ZM389.238 132V131H38.6084V132V133H389.238V132ZM38.6084 132L39.5197 132.412C39.8362 131.711 40.0097 130.966 40.0098 130.19L39.0098 130.19L38.0098 130.19C38.0097 130.661 37.9056 131.127 37.6971 131.588L38.6084 132ZM39.0098 130.19H40.0098C40.0098 127.465 37.915 125.241 35.077 123.758C32.191 122.25 28.2735 121.347 24.001 121.347L24.001 122.347L24.001 123.347C28.0177 123.347 31.6045 124.2 34.1506 125.53C36.7447 126.886 38.0098 128.584 38.0098 130.19H39.0098ZM24.001 122.347V121.347H24V122.347V123.347H24.001V122.347ZM24 122.347H25V31.8428H24H23V122.347H24ZM24 31.8428V32.8428C28.2725 32.8428 32.1903 31.9401 35.0764 30.4322C37.9146 28.9493 40.0098 26.7257 40.0098 24H39.0098H38.0098C38.0098 25.6062 36.7447 27.304 34.1503 28.6595C31.6039 29.99 28.0168 30.8428 24 30.8428V31.8428ZM39.0098 24V25L388.837 25V24V23L39.0098 23V24Z" fill="#D9B881" mask="url(#path-2-inside-1_63_461)"/>
<path d="M149.537 56.5455V74H146.401V59.1705H138.765V74H135.628V56.5455H149.537ZM158.893 74.2557C157.615 74.2557 156.507 73.9744 155.569 73.4119C154.632 72.8494 153.904 72.0625 153.387 71.0511C152.876 70.0398 152.62 68.858 152.62 67.5057C152.62 66.1534 152.876 64.9687 153.387 63.9517C153.904 62.9347 154.632 62.1449 155.569 61.5824C156.507 61.0199 157.615 60.7386 158.893 60.7386C160.172 60.7386 161.279 61.0199 162.217 61.5824C163.154 62.1449 163.879 62.9347 164.39 63.9517C164.907 64.9687 165.166 66.1534 165.166 67.5057C165.166 68.858 164.907 70.0398 164.39 71.0511C163.879 72.0625 163.154 72.8494 162.217 73.4119C161.279 73.9744 160.172 74.2557 158.893 74.2557ZM158.91 71.7841C159.603 71.7841 160.183 71.5937 160.649 71.2131C161.115 70.8267 161.461 70.3097 161.689 69.6619C161.922 69.0142 162.038 68.2926 162.038 67.4972C162.038 66.696 161.922 65.9716 161.689 65.3239C161.461 64.6705 161.115 64.1506 160.649 63.7642C160.183 63.3778 159.603 63.1847 158.91 63.1847C158.2 63.1847 157.609 63.3778 157.137 63.7642C156.672 64.1506 156.322 64.6705 156.089 65.3239C155.862 65.9716 155.748 66.696 155.748 67.4972C155.748 68.2926 155.862 69.0142 156.089 69.6619C156.322 70.3097 156.672 70.8267 157.137 71.2131C157.609 71.5937 158.2 71.7841 158.91 71.7841ZM166.625 77.8011V71.4602H167.665C167.944 71.2443 168.176 70.9517 168.364 70.5824C168.551 70.2074 168.705 69.767 168.824 69.2614C168.949 68.75 169.051 68.179 169.131 67.5483C169.211 66.9119 169.282 66.2273 169.344 65.4943L169.719 60.9091H179.179V71.4602H181.208V77.8011H178.225V74H169.659V77.8011H166.625ZM170.836 71.4602H176.23V63.3977H172.395L172.191 65.4943C172.077 66.8807 171.926 68.0682 171.739 69.0568C171.551 70.0455 171.25 70.8466 170.836 71.4602ZM192.17 60.9091V63.4403H186.528V74H183.511V60.9091H192.17ZM199.815 74.2557C198.537 74.2557 197.429 73.9744 196.491 73.4119C195.554 72.8494 194.826 72.0625 194.309 71.0511C193.798 70.0398 193.542 68.858 193.542 67.5057C193.542 66.1534 193.798 64.9687 194.309 63.9517C194.826 62.9347 195.554 62.1449 196.491 61.5824C197.429 61.0199 198.537 60.7386 199.815 60.7386C201.093 60.7386 202.201 61.0199 203.139 61.5824C204.076 62.1449 204.801 62.9347 205.312 63.9517C205.829 64.9687 206.088 66.1534 206.088 67.5057C206.088 68.858 205.829 70.0398 205.312 71.0511C204.801 72.0625 204.076 72.8494 203.139 73.4119C202.201 73.9744 201.093 74.2557 199.815 74.2557ZM199.832 71.7841C200.525 71.7841 201.105 71.5937 201.571 71.2131C202.037 70.8267 202.383 70.3097 202.61 69.6619C202.843 69.0142 202.96 68.2926 202.96 67.4972C202.96 66.696 202.843 65.9716 202.61 65.3239C202.383 64.6705 202.037 64.1506 201.571 63.7642C201.105 63.3778 200.525 63.1847 199.832 63.1847C199.122 63.1847 198.531 63.3778 198.059 63.7642C197.593 64.1506 197.244 64.6705 197.011 65.3239C196.784 65.9716 196.67 66.696 196.67 67.4972C196.67 68.2926 196.784 69.0142 197.011 69.6619C197.244 70.3097 197.593 70.8267 198.059 71.2131C198.531 71.5937 199.122 71.7841 199.832 71.7841ZM207.264 63.4403V60.9091H218.718V63.4403H214.483V74H211.5V63.4403H207.264ZM226.346 74.2557C225.068 74.2557 223.96 73.9744 223.022 73.4119C222.085 72.8494 221.358 72.0625 220.841 71.0511C220.329 70.0398 220.074 68.858 220.074 67.5057C220.074 66.1534 220.329 64.9687 220.841 63.9517C221.358 62.9347 222.085 62.1449 223.022 61.5824C223.96 61.0199 225.068 60.7386 226.346 60.7386C227.625 60.7386 228.733 61.0199 229.67 61.5824C230.608 62.1449 231.332 62.9347 231.843 63.9517C232.36 64.9687 232.619 66.1534 232.619 67.5057C232.619 68.858 232.36 70.0398 231.843 71.0511C231.332 72.0625 230.608 72.8494 229.67 73.4119C228.733 73.9744 227.625 74.2557 226.346 74.2557ZM226.363 71.7841C227.056 71.7841 227.636 71.5937 228.102 71.2131C228.568 70.8267 228.914 70.3097 229.142 69.6619C229.375 69.0142 229.491 68.2926 229.491 67.4972C229.491 66.696 229.375 65.9716 229.142 65.3239C228.914 64.6705 228.568 64.1506 228.102 63.7642C227.636 63.3778 227.056 63.1847 226.363 63.1847C225.653 63.1847 225.062 63.3778 224.591 63.7642C224.125 64.1506 223.775 64.6705 223.542 65.3239C223.315 65.9716 223.201 66.696 223.201 67.4972C223.201 68.2926 223.315 69.0142 223.542 69.6619C223.775 70.3097 224.125 70.8267 224.591 71.2131C225.062 71.5937 225.653 71.7841 226.363 71.7841ZM235.238 74V60.9091H240.735C242.286 60.9091 243.51 61.2187 244.408 61.8381C245.311 62.4574 245.763 63.321 245.763 64.429C245.763 65.1619 245.507 65.7614 244.996 66.2273C244.49 66.6875 243.8 66.9972 242.925 67.1562C243.613 67.2131 244.215 67.3864 244.732 67.6761C245.255 67.9659 245.664 68.3466 245.959 68.8182C246.255 69.2898 246.402 69.8324 246.402 70.446C246.402 71.1676 246.212 71.7955 245.831 72.3295C245.456 72.858 244.908 73.2699 244.186 73.5653C243.471 73.8551 242.601 74 241.578 74H235.238ZM238.127 71.571H241.578C242.147 71.571 242.593 71.4375 242.917 71.1705C243.24 70.8977 243.402 70.5284 243.402 70.0625C243.402 69.5227 243.24 69.0994 242.917 68.7926C242.593 68.4801 242.147 68.3239 241.578 68.3239H238.127V71.571ZM238.127 66.3295H240.794C241.215 66.3295 241.576 66.2699 241.877 66.1506C242.178 66.0256 242.408 65.8523 242.567 65.6307C242.726 65.4034 242.806 65.1335 242.806 64.821C242.806 64.3722 242.621 64.0199 242.252 63.7642C241.888 63.5085 241.382 63.3807 240.735 63.3807H238.127V66.3295ZM248.949 74V60.9091H252.034V66.1932H253.159L257.096 60.9091H260.812L255.963 67.3352L260.863 74H257.13L253.542 69.0653H252.034V74H248.949ZM266.38 74.2642C265.55 74.2642 264.803 74.1165 264.138 73.821C263.479 73.5199 262.956 73.0767 262.57 72.4915C262.189 71.9062 261.999 71.1847 261.999 70.3267C261.999 69.5881 262.135 68.9773 262.408 68.4943C262.681 68.0114 263.053 67.625 263.525 67.3352C263.996 67.0455 264.527 66.8267 265.118 66.679C265.715 66.5256 266.331 66.4148 266.968 66.3466C267.735 66.267 268.357 66.196 268.834 66.1335C269.311 66.0653 269.658 65.9631 269.874 65.8267C270.096 65.6847 270.206 65.4659 270.206 65.1705V65.1193C270.206 64.4773 270.016 63.9801 269.635 63.6278C269.255 63.2756 268.706 63.0994 267.99 63.0994C267.235 63.0994 266.635 63.2642 266.192 63.5938C265.755 63.9233 265.459 64.3125 265.306 64.7614L262.425 64.3523C262.652 63.5568 263.027 62.892 263.55 62.358C264.073 61.8182 264.712 61.4148 265.468 61.1477C266.223 60.875 267.059 60.7386 267.973 60.7386C268.604 60.7386 269.232 60.8125 269.857 60.9602C270.482 61.108 271.053 61.3523 271.57 61.6932C272.087 62.0284 272.502 62.4858 272.814 63.0653C273.132 63.6449 273.292 64.3693 273.292 65.2386V74H270.326V72.2017H270.223C270.036 72.5653 269.772 72.9062 269.431 73.2244C269.096 73.5369 268.672 73.7898 268.161 73.983C267.655 74.1705 267.061 74.2642 266.38 74.2642ZM267.181 71.9972C267.8 71.9972 268.337 71.875 268.792 71.6307C269.246 71.3807 269.596 71.0511 269.84 70.642C270.09 70.233 270.215 69.7869 270.215 69.304V67.7614C270.118 67.8409 269.953 67.9148 269.721 67.983C269.493 68.0511 269.238 68.1108 268.953 68.1619C268.669 68.2131 268.388 68.2585 268.11 68.2983C267.831 68.3381 267.59 68.3722 267.385 68.4006C266.925 68.4631 266.513 68.5653 266.15 68.7074C265.786 68.8494 265.499 69.0483 265.289 69.304C265.078 69.554 264.973 69.8778 264.973 70.2756C264.973 70.8438 265.181 71.2727 265.596 71.5625C266.01 71.8523 266.539 71.9972 267.181 71.9972ZM282.347 74V60.9091H285.432V66.1932H286.557L290.495 60.9091H294.211L289.361 67.3352L294.262 74H290.529L286.941 69.0653H285.432V74H282.347ZM190.878 102V84.5455H194.04V91.9347H202.128V84.5455H205.298V102H202.128V94.5852H194.04V102H190.878ZM218.223 89.3438C218.143 88.5994 217.808 88.0199 217.217 87.6051C216.632 87.1903 215.871 86.983 214.933 86.983C214.274 86.983 213.709 87.0824 213.237 87.2812C212.766 87.4801 212.405 87.75 212.155 88.0909C211.905 88.4318 211.777 88.821 211.771 89.2585C211.771 89.6222 211.854 89.9375 212.018 90.2045C212.189 90.4716 212.419 90.6989 212.709 90.8864C212.999 91.0682 213.32 91.2216 213.672 91.3466C214.024 91.4716 214.379 91.5767 214.737 91.6619L216.374 92.071C217.033 92.2244 217.666 92.4318 218.274 92.6932C218.888 92.9545 219.436 93.2841 219.919 93.6818C220.408 94.0795 220.794 94.5597 221.078 95.1222C221.362 95.6847 221.504 96.3437 221.504 97.0994C221.504 98.1222 221.243 99.0227 220.72 99.8011C220.197 100.574 219.442 101.179 218.453 101.616C217.47 102.048 216.28 102.264 214.882 102.264C213.524 102.264 212.345 102.054 211.345 101.634C210.351 101.213 209.572 100.599 209.01 99.7926C208.453 98.9858 208.152 98.0028 208.107 96.8438H211.217C211.263 97.4517 211.45 97.9574 211.78 98.3608C212.109 98.7642 212.538 99.0653 213.067 99.2642C213.601 99.4631 214.197 99.5625 214.857 99.5625C215.544 99.5625 216.146 99.4602 216.663 99.2557C217.186 99.0455 217.595 98.7557 217.891 98.3864C218.186 98.0114 218.337 97.5739 218.342 97.0739C218.337 96.6193 218.203 96.2443 217.942 95.9489C217.68 95.6477 217.314 95.3977 216.842 95.1989C216.376 94.9943 215.831 94.8125 215.206 94.6534L213.22 94.142C211.783 93.7727 210.646 93.2131 209.811 92.4631C208.982 91.7074 208.567 90.7045 208.567 89.4545C208.567 88.4261 208.845 87.5256 209.402 86.7528C209.964 85.9801 210.729 85.3807 211.695 84.9545C212.661 84.5227 213.754 84.3068 214.976 84.3068C216.214 84.3068 217.3 84.5227 218.232 84.9545C219.169 85.3807 219.905 85.9744 220.439 86.7358C220.973 87.4915 221.249 88.3608 221.266 89.3438H218.223ZM224.323 102V84.5455H227.485V92.5653H227.698L234.508 84.5455H238.369L231.619 92.3778L238.428 102H234.627L229.42 94.517L227.485 96.8011V102H224.323Z" fill="#502E12"/>
<defs>
<filter id="filter0_d_63_461" x="0" y="0" width="427" height="157" filterUnits="userSpaceOnUse" color-interpolation-filters="sRGB">
<feFlood flood-opacity="0" result="BackgroundImageFix"/>
<feColorMatrix in="SourceAlpha" type="matrix" values="0 0 0 0 0 0 0 0 0 0 0 0 0 0 0 0 0 0 127 0" result="hardAlpha"/>
<feOffset/>
<feGaussianBlur stdDeviation="8"/>
<feComposite in2="hardAlpha" operator="out"/>
<feColorMatrix type="matrix" values="0 0 0 0 0.44391 0 0 0 0 0.44391 0 0 0 0 0.44391 0 0 0 0.25 0"/>
<feBlend mode="normal" in2="BackgroundImageFix" result="effect1_dropShadow_63_461"/>
<feBlend mode="normal" in="SourceGraphic" in2="effect1_dropShadow_63_461" result="shape"/>
</filter>
</defs>
</svg>
