<svg width="427" height="157" viewBox="0 0 427 157" fill="none" xmlns="http://www.w3.org/2000/svg">
<g filter="url(#filter0_d_161_459)">
<path d="M394.243 16C394.243 21.0137 401.21 25.0781 409.804 25.0781C410.206 25.0781 410.605 25.0654 411 25.0479V129.855C410.605 129.838 410.206 129.826 409.804 129.826C401.21 129.826 394.244 133.891 394.243 138.904C394.243 139.626 394.388 140.327 394.66 141H31.1436C31.416 140.327 31.5605 139.626 31.5605 138.904C31.5602 133.891 24.5937 129.826 16 129.826V25.0781C24.5939 25.0781 31.5605 21.0137 31.5605 16L394.243 16Z" fill="white"/>
</g>
<mask id="path-2-inside-1_161_459" fill="white">
<path d="M388.837 24C388.837 28.3319 395.556 31.8437 403.846 31.8437C404.234 31.8437 404.619 31.8325 405 31.8174V122.371C404.619 122.356 404.234 122.347 403.846 122.347C395.556 122.347 388.837 125.859 388.837 130.19C388.837 130.813 388.976 131.419 389.238 132H38.6084C38.8709 131.419 39.0097 130.813 39.0098 130.19C39.0098 125.859 32.2902 122.347 24.001 122.347H24V31.8428C32.2893 31.8428 39.0098 28.3319 39.0098 24L388.837 24Z"/>
</mask>
<path d="M388.837 24C388.837 28.3319 395.556 31.8437 403.846 31.8437C404.234 31.8437 404.619 31.8325 405 31.8174V122.371C404.619 122.356 404.234 122.347 403.846 122.347C395.556 122.347 388.837 125.859 388.837 130.19C388.837 130.813 388.976 131.419 389.238 132H38.6084C38.8709 131.419 39.0097 130.813 39.0098 130.19C39.0098 125.859 32.2902 122.347 24.001 122.347H24V31.8428C32.2893 31.8428 39.0098 28.3319 39.0098 24L388.837 24Z" fill="white"/>
<path d="M388.837 24H389.837V23H388.837V24ZM403.846 31.8437L403.846 32.8438L403.846 32.8437L403.846 31.8437ZM405 31.8174H406V30.7768L404.96 30.8182L405 31.8174ZM405 122.371L404.96 123.37L406 123.412V122.371H405ZM403.846 122.347L403.846 121.347H403.846V122.347ZM388.837 130.19L387.837 130.19L387.837 130.19L388.837 130.19ZM389.238 132V133H390.788L390.15 131.588L389.238 132ZM38.6084 132L37.6971 131.588L37.0591 133H38.6084V132ZM39.0098 130.19L40.0098 130.19V130.19H39.0098ZM24.001 122.347L24.001 121.347H24.001V122.347ZM24 122.347H23V123.347H24V122.347ZM24 31.8428V30.8428H23V31.8428H24ZM39.0098 24V23H38.0098V24H39.0098ZM388.837 24H387.837C387.837 26.7256 389.932 28.9494 392.77 30.4326C395.656 31.9408 399.573 32.8437 403.846 32.8437V31.8437V30.8437C399.829 30.8437 396.242 29.9907 393.696 28.6601C391.102 27.3044 389.837 25.6063 389.837 24H388.837ZM403.846 31.8437L403.846 32.8437C404.253 32.8437 404.652 32.832 405.04 32.8166L405 31.8174L404.96 30.8182C404.586 30.8331 404.216 30.8437 403.846 30.8438L403.846 31.8437ZM405 31.8174H404V122.371H405H406V31.8174H405ZM405 122.371L405.04 121.372C404.648 121.356 404.25 121.347 403.846 121.347L403.846 122.347L403.846 123.347C404.218 123.347 404.59 123.356 404.96 123.37L405 122.371ZM403.846 122.347V121.347C399.573 121.347 395.656 122.25 392.77 123.758C389.932 125.241 387.837 127.465 387.837 130.19H388.837H389.837C389.837 128.584 391.102 126.886 393.696 125.53C396.242 124.2 399.829 123.347 403.846 123.347V122.347ZM388.837 130.19L387.837 130.19C387.837 130.966 388.01 131.711 388.327 132.412L389.238 132L390.15 131.588C389.941 131.127 389.837 130.661 389.837 130.19L388.837 130.19ZM389.238 132V131H38.6084V132V133H389.238V132ZM38.6084 132L39.5197 132.412C39.8362 131.711 40.0097 130.966 40.0098 130.19L39.0098 130.19L38.0098 130.19C38.0097 130.661 37.9056 131.127 37.6971 131.588L38.6084 132ZM39.0098 130.19H40.0098C40.0098 127.465 37.915 125.241 35.077 123.758C32.191 122.25 28.2735 121.347 24.001 121.347L24.001 122.347L24.001 123.347C28.0177 123.347 31.6045 124.2 34.1506 125.53C36.7447 126.886 38.0098 128.584 38.0098 130.19H39.0098ZM24.001 122.347V121.347H24V122.347V123.347H24.001V122.347ZM24 122.347H25V31.8428H24H23V122.347H24ZM24 31.8428V32.8428C28.2725 32.8428 32.1903 31.9401 35.0764 30.4322C37.9146 28.9493 40.0098 26.7257 40.0098 24H39.0098H38.0098C38.0098 25.6062 36.7447 27.304 34.1503 28.6595C31.6039 29.99 28.0168 30.8428 24 30.8428V31.8428ZM39.0098 24V25L388.837 25V24V23L39.0098 23V24Z" fill="#D9B881" mask="url(#path-2-inside-1_161_459)"/>
<path d="M186.689 61.1293C186.535 60.6307 186.323 60.1844 186.052 59.7905C185.787 59.3904 185.467 59.0488 185.092 58.7656C184.722 58.4825 184.298 58.2701 183.817 58.1286C183.337 57.9808 182.814 57.907 182.248 57.907C181.232 57.907 180.327 58.1624 179.533 58.6733C178.739 59.1842 178.115 59.9351 177.659 60.9261C177.21 61.911 176.985 63.1113 176.985 64.527C176.985 65.955 177.21 67.1645 177.659 68.1555C178.108 69.1465 178.733 69.9006 179.533 70.4176C180.334 70.9285 181.263 71.1839 182.322 71.1839C183.282 71.1839 184.113 70.9993 184.815 70.63C185.522 70.2607 186.067 69.7375 186.449 69.0604C186.83 68.3771 187.021 67.5769 187.021 66.6598L187.797 66.7798H182.663V64.1023H190.336V66.3736C190.336 67.9924 189.991 69.3928 189.302 70.5746C188.612 71.7564 187.665 72.6674 186.458 73.3075C185.252 73.9415 183.867 74.2585 182.303 74.2585C180.561 74.2585 179.032 73.8677 177.714 73.0859C176.403 72.2981 175.379 71.1809 174.64 69.7344C173.907 68.2817 173.541 66.5582 173.541 64.5639C173.541 63.0374 173.757 61.674 174.188 60.4737C174.625 59.2734 175.234 58.2547 176.016 57.4176C176.797 56.5743 177.714 55.9342 178.767 55.4972C179.82 55.054 180.964 54.8324 182.202 54.8324C183.248 54.8324 184.224 54.9863 185.129 55.294C186.033 55.5956 186.837 56.0265 187.538 56.5866C188.246 57.1468 188.828 57.8116 189.283 58.581C189.739 59.3504 190.037 60.1998 190.179 61.1293H186.689ZM193.501 74V59.8182H196.741V62.1818H196.889C197.148 61.3632 197.591 60.7322 198.219 60.2891C198.853 59.8397 199.576 59.6151 200.388 59.6151C200.573 59.6151 200.779 59.6243 201.007 59.6428C201.241 59.6551 201.435 59.6766 201.589 59.7074V62.782C201.447 62.7327 201.222 62.6896 200.915 62.6527C200.613 62.6096 200.321 62.5881 200.037 62.5881C199.428 62.5881 198.88 62.7204 198.394 62.9851C197.914 63.2436 197.535 63.6037 197.258 64.0653C196.981 64.527 196.843 65.0594 196.843 65.6626V74H193.501ZM209.411 74.277C208.026 74.277 206.826 73.9723 205.81 73.3629C204.795 72.7536 204.007 71.901 203.447 70.8054C202.893 69.7098 202.616 68.4295 202.616 66.9645C202.616 65.4995 202.893 64.2161 203.447 63.1143C204.007 62.0125 204.795 61.157 205.81 60.5476C206.826 59.9382 208.026 59.6335 209.411 59.6335C210.796 59.6335 211.996 59.9382 213.012 60.5476C214.028 61.157 214.813 62.0125 215.366 63.1143C215.927 64.2161 216.207 65.4995 216.207 66.9645C216.207 68.4295 215.927 69.7098 215.366 70.8054C214.813 71.901 214.028 72.7536 213.012 73.3629C211.996 73.9723 210.796 74.277 209.411 74.277ZM209.43 71.5994C210.181 71.5994 210.808 71.3932 211.313 70.9808C211.818 70.5623 212.193 70.0021 212.44 69.3004C212.692 68.5987 212.818 67.817 212.818 66.9553C212.818 66.0874 212.692 65.3026 212.44 64.6009C212.193 63.893 211.818 63.3298 211.313 62.9112C210.808 62.4927 210.181 62.2834 209.43 62.2834C208.66 62.2834 208.02 62.4927 207.509 62.9112C207.004 63.3298 206.626 63.893 206.374 64.6009C206.127 65.3026 206.004 66.0874 206.004 66.9553C206.004 67.817 206.127 68.5987 206.374 69.3004C206.626 70.0021 207.004 70.5623 207.509 70.9808C208.02 71.3932 208.66 71.5994 209.43 71.5994ZM228.083 68.0355V59.8182H231.425V74H228.184V71.4794H228.036C227.716 72.2734 227.19 72.9228 226.458 73.4276C225.731 73.9323 224.836 74.1847 223.771 74.1847C222.841 74.1847 222.02 73.9785 221.306 73.5661C220.598 73.1475 220.044 72.5412 219.644 71.7472C219.244 70.947 219.044 69.9806 219.044 68.848V59.8182H222.386V68.331C222.386 69.2296 222.632 69.9437 223.124 70.473C223.617 71.0024 224.263 71.267 225.063 71.267C225.556 71.267 226.033 71.147 226.494 70.907C226.956 70.6669 227.335 70.3099 227.63 69.8359C227.932 69.3558 228.083 68.7557 228.083 68.0355ZM234.862 79.3182V59.8182H238.149V62.1634H238.343C238.515 61.8187 238.758 61.4524 239.072 61.0646C239.386 60.6707 239.811 60.3352 240.346 60.0582C240.882 59.7751 241.565 59.6335 242.396 59.6335C243.492 59.6335 244.48 59.9136 245.36 60.4737C246.246 61.0277 246.948 61.8494 247.465 62.9389C247.988 64.0223 248.25 65.3518 248.25 66.9276C248.25 68.4848 247.994 69.8082 247.483 70.8977C246.972 71.9872 246.277 72.8182 245.397 73.3906C244.516 73.9631 243.519 74.2493 242.405 74.2493C241.593 74.2493 240.919 74.1139 240.383 73.843C239.848 73.5722 239.417 73.246 239.091 72.8643C238.77 72.4766 238.521 72.1103 238.343 71.7656H238.204V79.3182H234.862ZM238.14 66.9091C238.14 67.8262 238.269 68.6295 238.527 69.3189C238.792 70.0083 239.171 70.5469 239.663 70.9347C240.162 71.3163 240.765 71.5071 241.473 71.5071C242.211 71.5071 242.83 71.3101 243.328 70.9162C243.827 70.5161 244.203 69.9714 244.455 69.282C244.713 68.5864 244.843 67.7955 244.843 66.9091C244.843 66.0289 244.717 65.2472 244.464 64.5639C244.212 63.8807 243.836 63.3452 243.338 62.9574C242.839 62.5696 242.217 62.3757 241.473 62.3757C240.759 62.3757 240.152 62.5634 239.654 62.9389C239.155 63.3144 238.777 63.8407 238.518 64.5178C238.266 65.1948 238.14 65.992 238.14 66.9091ZM174.436 102.277C173.02 102.277 171.804 101.966 170.789 101.344C169.779 100.723 169.001 99.8641 168.453 98.7685C167.911 97.6667 167.64 96.3987 167.64 94.9645C167.64 93.5241 167.917 92.2531 168.471 91.1513C169.025 90.0433 169.807 89.1816 170.816 88.5661C171.832 87.9444 173.032 87.6335 174.417 87.6335C175.568 87.6335 176.587 87.8459 177.473 88.2706C178.366 88.6892 179.077 89.2831 179.606 90.0526C180.135 90.8158 180.437 91.7083 180.511 92.7301H177.316C177.187 92.0469 176.879 91.4775 176.393 91.022C175.913 90.5604 175.27 90.3295 174.463 90.3295C173.78 90.3295 173.18 90.5142 172.663 90.8835C172.146 91.2467 171.743 91.7699 171.453 92.4531C171.17 93.1364 171.029 93.955 171.029 94.9091C171.029 95.8755 171.17 96.7064 171.453 97.402C171.737 98.0914 172.134 98.6238 172.644 98.9993C173.161 99.3686 173.768 99.5533 174.463 99.5533C174.956 99.5533 175.396 99.4609 175.784 99.2763C176.178 99.0855 176.507 98.8116 176.772 98.4545C177.036 98.0975 177.218 97.6636 177.316 97.1527H180.511C180.431 98.156 180.135 99.0455 179.625 99.821C179.114 100.59 178.418 101.194 177.538 101.631C176.658 102.062 175.624 102.277 174.436 102.277ZM186.598 83.0909V102H183.255V83.0909H186.598ZM194.116 102.286C193.217 102.286 192.408 102.126 191.687 101.806C190.973 101.48 190.407 101 189.989 100.366C189.576 99.7318 189.37 98.95 189.37 98.0206C189.37 97.2204 189.518 96.5587 189.813 96.0355C190.109 95.5123 190.512 95.0938 191.023 94.7798C191.534 94.4659 192.109 94.2289 192.749 94.0689C193.396 93.9027 194.063 93.7827 194.753 93.7088C195.584 93.6226 196.258 93.5457 196.775 93.478C197.292 93.4041 197.667 93.2933 197.901 93.1456C198.141 92.9917 198.261 92.7547 198.261 92.4347V92.3793C198.261 91.6837 198.055 91.1451 197.643 90.7635C197.23 90.3819 196.636 90.1911 195.861 90.1911C195.042 90.1911 194.393 90.3696 193.913 90.7266C193.439 91.0836 193.119 91.5052 192.952 91.9915L189.832 91.5483C190.078 90.6866 190.484 89.9664 191.05 89.3878C191.617 88.803 192.309 88.366 193.128 88.0767C193.946 87.7812 194.851 87.6335 195.842 87.6335C196.525 87.6335 197.206 87.7135 197.883 87.8736C198.56 88.0336 199.178 88.2983 199.739 88.6676C200.299 89.0308 200.748 89.5263 201.087 90.1541C201.431 90.782 201.604 91.5668 201.604 92.5085V102H198.391V100.052H198.28C198.077 100.446 197.79 100.815 197.421 101.16C197.058 101.498 196.599 101.772 196.045 101.982C195.498 102.185 194.854 102.286 194.116 102.286ZM194.984 99.8303C195.655 99.8303 196.236 99.6979 196.729 99.4332C197.221 99.1624 197.6 98.8054 197.864 98.3622C198.135 97.919 198.271 97.4358 198.271 96.9126V95.2415C198.166 95.3277 197.987 95.4077 197.735 95.4815C197.489 95.5554 197.212 95.62 196.904 95.6754C196.596 95.7308 196.292 95.7801 195.99 95.8232C195.688 95.8662 195.427 95.9032 195.205 95.9339C194.707 96.0017 194.26 96.1125 193.866 96.2663C193.472 96.4202 193.162 96.6357 192.934 96.9126C192.706 97.1835 192.592 97.5343 192.592 97.9652C192.592 98.5807 192.817 99.0455 193.266 99.3594C193.716 99.6733 194.288 99.8303 194.984 99.8303ZM216.173 91.5668L213.126 91.8991C213.04 91.5914 212.889 91.3021 212.674 91.0312C212.465 90.7604 212.181 90.5419 211.824 90.3757C211.467 90.2095 211.03 90.1264 210.513 90.1264C209.818 90.1264 209.233 90.2772 208.759 90.5788C208.291 90.8804 208.061 91.2713 208.067 91.7514C208.061 92.1638 208.211 92.4993 208.519 92.7578C208.833 93.0163 209.35 93.2287 210.07 93.3949L212.489 93.9119C213.831 94.2012 214.828 94.6598 215.481 95.2876C216.139 95.9155 216.472 96.7372 216.478 97.7528C216.472 98.6454 216.21 99.4332 215.693 100.116C215.182 100.794 214.471 101.323 213.56 101.705C212.649 102.086 211.603 102.277 210.421 102.277C208.685 102.277 207.288 101.914 206.229 101.188C205.171 100.455 204.54 99.4363 204.337 98.1314L207.596 97.8175C207.744 98.4576 208.057 98.9408 208.538 99.267C209.018 99.5933 209.642 99.7564 210.412 99.7564C211.206 99.7564 211.843 99.5933 212.323 99.267C212.809 98.9408 213.052 98.5376 213.052 98.0575C213.052 97.6513 212.896 97.3158 212.582 97.0511C212.274 96.7865 211.794 96.5833 211.141 96.4418L208.722 95.9339C207.362 95.6508 206.355 95.1738 205.703 94.5028C205.051 93.8258 204.727 92.9702 204.734 91.9361C204.727 91.062 204.964 90.3049 205.445 89.6648C205.931 89.0185 206.605 88.5199 207.467 88.169C208.334 87.812 209.335 87.6335 210.467 87.6335C212.129 87.6335 213.437 87.9875 214.391 88.6953C215.351 89.4032 215.945 90.3603 216.173 91.5668ZM230.443 91.5668L227.396 91.8991C227.31 91.5914 227.159 91.3021 226.943 91.0312C226.734 90.7604 226.451 90.5419 226.094 90.3757C225.737 90.2095 225.3 90.1264 224.783 90.1264C224.087 90.1264 223.503 90.2772 223.029 90.5788C222.561 90.8804 222.33 91.2713 222.336 91.7514C222.33 92.1638 222.481 92.4993 222.789 92.7578C223.103 93.0163 223.62 93.2287 224.34 93.3949L226.759 93.9119C228.101 94.2012 229.098 94.6598 229.75 95.2876C230.409 95.9155 230.741 96.7372 230.747 97.7528C230.741 98.6454 230.48 99.4332 229.963 100.116C229.452 100.794 228.741 101.323 227.83 101.705C226.919 102.086 225.872 102.277 224.691 102.277C222.955 102.277 221.558 101.914 220.499 101.188C219.44 100.455 218.809 99.4363 218.606 98.1314L221.865 97.8175C222.013 98.4576 222.327 98.9408 222.807 99.267C223.287 99.5933 223.912 99.7564 224.681 99.7564C225.475 99.7564 226.112 99.5933 226.593 99.267C227.079 98.9408 227.322 98.5376 227.322 98.0575C227.322 97.6513 227.165 97.3158 226.851 97.0511C226.543 96.7865 226.063 96.5833 225.411 96.4418L222.992 95.9339C221.631 95.6508 220.625 95.1738 219.973 94.5028C219.32 93.8258 218.997 92.9702 219.003 91.9361C218.997 91.062 219.234 90.3049 219.714 89.6648C220.2 89.0185 220.874 88.5199 221.736 88.169C222.604 87.812 223.604 87.6335 224.737 87.6335C226.399 87.6335 227.707 87.9875 228.661 88.6953C229.621 89.4032 230.215 90.3603 230.443 91.5668ZM239.782 102.277C238.36 102.277 237.132 101.982 236.098 101.391C235.07 100.794 234.279 99.9503 233.725 98.8608C233.171 97.7652 232.894 96.4756 232.894 94.9922C232.894 93.5334 233.171 92.2531 233.725 91.1513C234.285 90.0433 235.067 89.1816 236.07 88.5661C237.074 87.9444 238.252 87.6335 239.606 87.6335C240.48 87.6335 241.305 87.7751 242.081 88.0582C242.863 88.3352 243.552 88.7661 244.149 89.3509C244.752 89.9356 245.226 90.6804 245.571 91.5852C245.916 92.4839 246.088 93.5549 246.088 94.7983V95.8232H234.464V93.5703H242.884C242.878 92.9302 242.739 92.3608 242.469 91.8622C242.198 91.3575 241.819 90.9605 241.333 90.6712C240.853 90.3819 240.293 90.2372 239.653 90.2372C238.969 90.2372 238.369 90.4034 237.852 90.7358C237.335 91.062 236.932 91.4929 236.643 92.0284C236.36 92.5578 236.215 93.1394 236.209 93.7734V95.7401C236.209 96.5649 236.36 97.2727 236.661 97.8636C236.963 98.4484 237.384 98.8977 237.926 99.2116C238.468 99.5194 239.102 99.6733 239.828 99.6733C240.314 99.6733 240.754 99.6056 241.148 99.4702C241.542 99.3286 241.884 99.1224 242.173 98.8516C242.463 98.5807 242.681 98.2453 242.829 97.8452L245.949 98.196C245.753 99.0208 245.377 99.741 244.823 100.357C244.275 100.966 243.574 101.44 242.718 101.778C241.862 102.111 240.884 102.277 239.782 102.277ZM260.124 91.5668L257.078 91.8991C256.991 91.5914 256.841 91.3021 256.625 91.0312C256.416 90.7604 256.133 90.5419 255.776 90.3757C255.419 90.2095 254.982 90.1264 254.465 90.1264C253.769 90.1264 253.184 90.2772 252.71 90.5788C252.243 90.8804 252.012 91.2713 252.018 91.7514C252.012 92.1638 252.162 92.4993 252.47 92.7578C252.784 93.0163 253.301 93.2287 254.021 93.3949L256.44 93.9119C257.782 94.2012 258.779 94.6598 259.432 95.2876C260.091 95.9155 260.423 96.7372 260.429 97.7528C260.423 98.6454 260.161 99.4332 259.644 100.116C259.133 100.794 258.422 101.323 257.511 101.705C256.6 102.086 255.554 102.277 254.372 102.277C252.636 102.277 251.239 101.914 250.18 101.188C249.122 100.455 248.491 99.4363 248.288 98.1314L251.547 97.8175C251.695 98.4576 252.009 98.9408 252.489 99.267C252.969 99.5933 253.594 99.7564 254.363 99.7564C255.157 99.7564 255.794 99.5933 256.274 99.267C256.761 98.9408 257.004 98.5376 257.004 98.0575C257.004 97.6513 256.847 97.3158 256.533 97.0511C256.225 96.7865 255.745 96.5833 255.092 96.4418L252.673 95.9339C251.313 95.6508 250.307 95.1738 249.654 94.5028C249.002 93.8258 248.679 92.9702 248.685 91.9361C248.679 91.062 248.916 90.3049 249.396 89.6648C249.882 89.0185 250.556 88.5199 251.418 88.169C252.286 87.812 253.286 87.6335 254.418 87.6335C256.08 87.6335 257.388 87.9875 258.342 88.6953C259.303 89.4032 259.897 90.3603 260.124 91.5668Z" fill="#502E12"/>
<defs>
<filter id="filter0_d_161_459" x="0" y="0" width="427" height="157" filterUnits="userSpaceOnUse" color-interpolation-filters="sRGB">
<feFlood flood-opacity="0" result="BackgroundImageFix"/>
<feColorMatrix in="SourceAlpha" type="matrix" values="0 0 0 0 0 0 0 0 0 0 0 0 0 0 0 0 0 0 127 0" result="hardAlpha"/>
<feOffset/>
<feGaussianBlur stdDeviation="8"/>
<feComposite in2="hardAlpha" operator="out"/>
<feColorMatrix type="matrix" values="0 0 0 0 0.44391 0 0 0 0 0.44391 0 0 0 0 0.44391 0 0 0 0.25 0"/>
<feBlend mode="normal" in2="BackgroundImageFix" result="effect1_dropShadow_161_459"/>
<feBlend mode="normal" in="SourceGraphic" in2="effect1_dropShadow_161_459" result="shape"/>
</filter>
</defs>
</svg>
