<svg width="427" height="157" viewBox="0 0 427 157" fill="none" xmlns="http://www.w3.org/2000/svg">
<g filter="url(#filter0_d_63_476)">
<path d="M394.243 16C394.243 21.0137 401.21 25.0781 409.804 25.0781C410.206 25.0781 410.605 25.0654 411 25.0479V129.855C410.605 129.838 410.206 129.826 409.804 129.826C401.21 129.826 394.244 133.891 394.243 138.904C394.243 139.626 394.388 140.327 394.66 141H31.1436C31.416 140.327 31.5605 139.626 31.5605 138.904C31.5602 133.891 24.5937 129.826 16 129.826V25.0781C24.5939 25.0781 31.5605 21.0137 31.5605 16L394.243 16Z" fill="white"/>
</g>
<mask id="path-2-inside-1_63_476" fill="white">
<path d="M388.837 24C388.837 28.3319 395.556 31.8437 403.846 31.8437C404.234 31.8437 404.619 31.8325 405 31.8174V122.371C404.619 122.356 404.234 122.347 403.846 122.347C395.556 122.347 388.837 125.859 388.837 130.19C388.837 130.813 388.976 131.419 389.238 132H38.6084C38.8709 131.419 39.0097 130.813 39.0098 130.19C39.0098 125.859 32.2902 122.347 24.001 122.347H24V31.8428C32.2893 31.8428 39.0098 28.3319 39.0098 24L388.837 24Z"/>
</mask>
<path d="M388.837 24C388.837 28.3319 395.556 31.8437 403.846 31.8437C404.234 31.8437 404.619 31.8325 405 31.8174V122.371C404.619 122.356 404.234 122.347 403.846 122.347C395.556 122.347 388.837 125.859 388.837 130.19C388.837 130.813 388.976 131.419 389.238 132H38.6084C38.8709 131.419 39.0097 130.813 39.0098 130.19C39.0098 125.859 32.2902 122.347 24.001 122.347H24V31.8428C32.2893 31.8428 39.0098 28.3319 39.0098 24L388.837 24Z" fill="white"/>
<path d="M388.837 24H389.837V23H388.837V24ZM403.846 31.8437L403.846 32.8438L403.846 32.8437L403.846 31.8437ZM405 31.8174H406V30.7768L404.96 30.8182L405 31.8174ZM405 122.371L404.96 123.37L406 123.412V122.371H405ZM403.846 122.347L403.846 121.347H403.846V122.347ZM388.837 130.19L387.837 130.19L387.837 130.19L388.837 130.19ZM389.238 132V133H390.788L390.15 131.588L389.238 132ZM38.6084 132L37.6971 131.588L37.0591 133H38.6084V132ZM39.0098 130.19L40.0098 130.19V130.19H39.0098ZM24.001 122.347L24.001 121.347H24.001V122.347ZM24 122.347H23V123.347H24V122.347ZM24 31.8428V30.8428H23V31.8428H24ZM39.0098 24V23H38.0098V24H39.0098ZM388.837 24H387.837C387.837 26.7256 389.932 28.9494 392.77 30.4326C395.656 31.9408 399.573 32.8437 403.846 32.8437V31.8437V30.8437C399.829 30.8437 396.242 29.9907 393.696 28.6601C391.102 27.3044 389.837 25.6063 389.837 24H388.837ZM403.846 31.8437L403.846 32.8437C404.253 32.8437 404.652 32.832 405.04 32.8166L405 31.8174L404.96 30.8182C404.586 30.8331 404.216 30.8437 403.846 30.8438L403.846 31.8437ZM405 31.8174H404V122.371H405H406V31.8174H405ZM405 122.371L405.04 121.372C404.648 121.356 404.25 121.347 403.846 121.347L403.846 122.347L403.846 123.347C404.218 123.347 404.59 123.356 404.96 123.37L405 122.371ZM403.846 122.347V121.347C399.573 121.347 395.656 122.25 392.77 123.758C389.932 125.241 387.837 127.465 387.837 130.19H388.837H389.837C389.837 128.584 391.102 126.886 393.696 125.53C396.242 124.2 399.829 123.347 403.846 123.347V122.347ZM388.837 130.19L387.837 130.19C387.837 130.966 388.01 131.711 388.327 132.412L389.238 132L390.15 131.588C389.941 131.127 389.837 130.661 389.837 130.19L388.837 130.19ZM389.238 132V131H38.6084V132V133H389.238V132ZM38.6084 132L39.5197 132.412C39.8362 131.711 40.0097 130.966 40.0098 130.19L39.0098 130.19L38.0098 130.19C38.0097 130.661 37.9056 131.127 37.6971 131.588L38.6084 132ZM39.0098 130.19H40.0098C40.0098 127.465 37.915 125.241 35.077 123.758C32.191 122.25 28.2735 121.347 24.001 121.347L24.001 122.347L24.001 123.347C28.0177 123.347 31.6045 124.2 34.1506 125.53C36.7447 126.886 38.0098 128.584 38.0098 130.19H39.0098ZM24.001 122.347V121.347H24V122.347V123.347H24.001V122.347ZM24 122.347H25V31.8428H24H23V122.347H24ZM24 31.8428V32.8428C28.2725 32.8428 32.1903 31.9401 35.0764 30.4322C37.9146 28.9493 40.0098 26.7257 40.0098 24H39.0098H38.0098C38.0098 25.6062 36.7447 27.304 34.1503 28.6595C31.6039 29.99 28.0168 30.8428 24 30.8428V31.8428ZM39.0098 24V25L388.837 25V24V23L39.0098 23V24Z" fill="#D9B881" mask="url(#path-2-inside-1_63_476)"/>
<path d="M163.441 74H160.007V57.9531H156.868C156.018 57.9531 155.32 58.0793 154.772 58.3317C154.23 58.5779 153.827 58.9411 153.562 59.4212C153.304 59.8951 153.174 60.4676 153.174 61.1385C153.174 61.8094 153.304 62.3757 153.562 62.8374C153.821 63.2928 154.221 63.6406 154.763 63.8807C155.31 64.1146 156.006 64.2315 156.849 64.2315H161.447V67.0753H156.388C154.935 67.0753 153.71 66.8352 152.713 66.3551C151.716 65.8688 150.959 65.1825 150.441 64.2962C149.931 63.4036 149.675 62.3511 149.675 61.1385C149.675 59.9321 149.928 58.8764 150.432 57.9716C150.943 57.0606 151.694 56.3527 152.685 55.848C153.676 55.3433 154.895 55.0909 156.341 55.0909H163.441V74ZM153.664 65.4318H157.403L152.805 74H148.983L153.664 65.4318ZM166.221 70.1129H169.535C169.566 70.6423 169.803 71.0516 170.246 71.3409C170.689 71.6302 171.265 71.7749 171.973 71.7749C172.693 71.7749 173.299 71.6179 173.792 71.304C174.29 70.9839 174.54 70.5007 174.54 69.8544C174.54 69.4728 174.444 69.1373 174.253 68.848C174.062 68.5526 173.795 68.3248 173.45 68.1648C173.105 68.0047 172.699 67.9247 172.231 67.9247H170.062V65.5518H172.231C172.927 65.5518 173.453 65.3918 173.81 65.0717C174.173 64.7517 174.355 64.3485 174.355 63.8622C174.355 63.339 174.164 62.9143 173.782 62.5881C173.407 62.2618 172.887 62.0987 172.222 62.0987C171.557 62.0987 171.003 62.2495 170.56 62.5511C170.123 62.8527 169.895 63.2405 169.877 63.7145H166.581C166.593 62.8897 166.839 62.1726 167.319 61.5632C167.806 60.9538 168.458 60.4799 169.277 60.1413C170.102 59.8028 171.031 59.6335 172.065 59.6335C173.173 59.6335 174.13 59.7997 174.937 60.1321C175.743 60.4645 176.365 60.9292 176.802 61.5263C177.239 62.1172 177.457 62.8127 177.457 63.6129C177.457 64.3823 177.217 65.0194 176.737 65.5241C176.257 66.0227 175.611 66.3797 174.798 66.5952V66.7429C175.358 66.7737 175.863 66.9337 176.312 67.223C176.762 67.5062 177.119 67.8909 177.383 68.3771C177.648 68.8634 177.78 69.4266 177.78 70.0668C177.78 70.9347 177.531 71.6856 177.032 72.3196C176.534 72.9474 175.848 73.4306 174.973 73.7692C174.106 74.1077 173.111 74.277 171.991 74.277C170.902 74.277 169.926 74.1139 169.064 73.7876C168.209 73.4553 167.529 72.9782 167.024 72.3565C166.519 71.7348 166.251 70.987 166.221 70.1129ZM182.674 64.4347H186.856C188.666 64.4347 190.066 64.8748 191.057 65.755C192.048 66.6352 192.547 67.7893 192.553 69.2173C192.547 70.1468 192.319 70.9716 191.87 71.6918C191.427 72.4119 190.78 72.9782 189.931 73.3906C189.088 73.7969 188.063 74 186.856 74H180.412V59.8182H183.634V71.2578H186.856C187.583 71.2578 188.18 71.0732 188.647 70.7038C189.115 70.3284 189.349 69.8482 189.349 69.2635C189.349 68.648 189.115 68.1463 188.647 67.7585C188.18 67.3707 187.583 67.1768 186.856 67.1768H182.674V64.4347ZM194.316 74V59.8182H197.659V74H194.316ZM201.105 74V59.8182H204.447V65.5426H205.666L209.932 59.8182H213.957L208.704 66.7798L214.013 74H209.969L206.082 68.6541H204.447V74H201.105ZM221.51 74.277C220.125 74.277 218.925 73.9723 217.909 73.3629C216.893 72.7536 216.105 71.901 215.545 70.8054C214.991 69.7098 214.714 68.4295 214.714 66.9645C214.714 65.4995 214.991 64.2161 215.545 63.1143C216.105 62.0125 216.893 61.157 217.909 60.5476C218.925 59.9382 220.125 59.6335 221.51 59.6335C222.895 59.6335 224.095 59.9382 225.111 60.5476C226.126 61.157 226.911 62.0125 227.465 63.1143C228.025 64.2161 228.305 65.4995 228.305 66.9645C228.305 68.4295 228.025 69.7098 227.465 70.8054C226.911 71.901 226.126 72.7536 225.111 73.3629C224.095 73.9723 222.895 74.277 221.51 74.277ZM221.528 71.5994C222.279 71.5994 222.907 71.3932 223.412 70.9808C223.917 70.5623 224.292 70.0021 224.538 69.3004C224.791 68.5987 224.917 67.817 224.917 66.9553C224.917 66.0874 224.791 65.3026 224.538 64.6009C224.292 63.893 223.917 63.3298 223.412 62.9112C222.907 62.4927 222.279 62.2834 221.528 62.2834C220.759 62.2834 220.119 62.4927 219.608 62.9112C219.103 63.3298 218.725 63.893 218.472 64.6009C218.226 65.3026 218.103 66.0874 218.103 66.9553C218.103 67.817 218.226 68.5987 218.472 69.3004C218.725 70.0021 219.103 70.5623 219.608 70.9808C220.119 71.3932 220.759 71.5994 221.528 71.5994ZM231.142 74V59.8182H237.097C238.778 59.8182 240.104 60.1536 241.077 60.8246C242.055 61.4955 242.545 62.4311 242.545 63.6314C242.545 64.4254 242.268 65.0748 241.714 65.5795C241.166 66.0781 240.418 66.4136 239.47 66.5859C240.215 66.6475 240.868 66.8352 241.428 67.1491C241.994 67.4631 242.437 67.8755 242.757 68.3864C243.077 68.8973 243.237 69.4851 243.237 70.1499C243.237 70.9316 243.031 71.6117 242.619 72.1903C242.212 72.7628 241.618 73.209 240.837 73.5291C240.061 73.843 239.119 74 238.011 74H231.142ZM234.272 71.3686H238.011C238.627 71.3686 239.11 71.224 239.461 70.9347C239.812 70.6392 239.987 70.2391 239.987 69.7344C239.987 69.1496 239.812 68.6911 239.461 68.3587C239.11 68.0201 238.627 67.8509 238.011 67.8509H234.272V71.3686ZM234.272 65.6903H237.162C237.618 65.6903 238.008 65.6257 238.335 65.4964C238.661 65.361 238.91 65.1733 239.082 64.9332C239.255 64.687 239.341 64.3946 239.341 64.0561C239.341 63.5698 239.141 63.1882 238.741 62.9112C238.347 62.6342 237.799 62.4957 237.097 62.4957H234.272V65.6903ZM248.258 64.4347H252.44C254.25 64.4347 255.65 64.8748 256.641 65.755C257.632 66.6352 258.131 67.7893 258.137 69.2173C258.131 70.1468 257.903 70.9716 257.454 71.6918C257.011 72.4119 256.364 72.9782 255.515 73.3906C254.672 73.7969 253.647 74 252.44 74H245.996V59.8182H249.218V71.2578H252.44C253.167 71.2578 253.764 71.0732 254.231 70.7038C254.699 70.3284 254.933 69.8482 254.933 69.2635C254.933 68.648 254.699 68.1463 254.231 67.7585C253.764 67.3707 253.167 67.1768 252.44 67.1768H248.258V64.4347ZM259.9 74V59.8182H263.243V74H259.9ZM272.967 74.277C271.546 74.277 270.318 73.9815 269.283 73.3906C268.256 72.7936 267.465 71.9503 266.911 70.8608C266.357 69.7652 266.08 68.4756 266.08 66.9922C266.08 65.5334 266.357 64.2531 266.911 63.1513C267.471 62.0433 268.252 61.1816 269.256 60.5661C270.259 59.9444 271.438 59.6335 272.792 59.6335C273.666 59.6335 274.491 59.7751 275.266 60.0582C276.048 60.3352 276.738 60.7661 277.335 61.3509C277.938 61.9356 278.412 62.6804 278.756 63.5852C279.101 64.4839 279.274 65.5549 279.274 66.7983V67.8232H267.649V65.5703H276.07C276.064 64.9302 275.925 64.3608 275.654 63.8622C275.383 63.3575 275.005 62.9605 274.519 62.6712C274.038 62.3819 273.478 62.2372 272.838 62.2372C272.155 62.2372 271.555 62.4034 271.038 62.7358C270.521 63.062 270.118 63.4929 269.828 64.0284C269.545 64.5578 269.4 65.1394 269.394 65.7734V67.7401C269.394 68.5649 269.545 69.2727 269.847 69.8636C270.148 70.4484 270.57 70.8977 271.112 71.2116C271.653 71.5194 272.287 71.6733 273.014 71.6733C273.5 71.6733 273.94 71.6056 274.334 71.4702C274.728 71.3286 275.069 71.1224 275.359 70.8516C275.648 70.5807 275.867 70.2453 276.014 69.8452L279.135 70.196C278.938 71.0208 278.563 71.741 278.009 72.3565C277.461 72.9659 276.759 73.4399 275.903 73.7784C275.048 74.1108 274.069 74.277 272.967 74.277ZM174.775 102V87.8182H178.117V93.5426H179.336L183.602 87.8182H187.627L182.374 94.7798L187.683 102H183.639L179.752 96.6541H178.117V102H174.775ZM191.807 107.318C191.352 107.318 190.93 107.281 190.543 107.207C190.161 107.14 189.856 107.06 189.628 106.967L190.404 104.364C190.89 104.505 191.324 104.573 191.706 104.567C192.088 104.561 192.423 104.441 192.712 104.207C193.008 103.979 193.257 103.597 193.46 103.062L193.746 102.295L188.604 87.8182H192.149L195.418 98.5284H195.565L198.843 87.8182H202.398L196.719 103.717C196.455 104.468 196.104 105.112 195.667 105.647C195.23 106.189 194.694 106.601 194.06 106.884C193.432 107.174 192.681 107.318 191.807 107.318ZM204.71 107.318V87.8182H207.997V90.1634H208.191C208.364 89.8187 208.607 89.4524 208.921 89.0646C209.235 88.6707 209.659 88.3352 210.195 88.0582C210.73 87.7751 211.414 87.6335 212.245 87.6335C213.34 87.6335 214.328 87.9136 215.208 88.4737C216.095 89.0277 216.796 89.8494 217.313 90.9389C217.837 92.0223 218.098 93.3518 218.098 94.9276C218.098 96.4848 217.843 97.8082 217.332 98.8977C216.821 99.9872 216.126 100.818 215.245 101.391C214.365 101.963 213.368 102.249 212.254 102.249C211.441 102.249 210.767 102.114 210.232 101.843C209.696 101.572 209.265 101.246 208.939 100.864C208.619 100.477 208.37 100.11 208.191 99.7656H208.053V107.318H204.71ZM207.988 94.9091C207.988 95.8262 208.117 96.6295 208.376 97.3189C208.641 98.0083 209.019 98.5469 209.512 98.9347C210.01 99.3163 210.613 99.5071 211.321 99.5071C212.06 99.5071 212.679 99.3101 213.177 98.9162C213.676 98.5161 214.051 97.9714 214.304 97.282C214.562 96.5864 214.691 95.7955 214.691 94.9091C214.691 94.0289 214.565 93.2472 214.313 92.5639C214.06 91.8807 213.685 91.3452 213.186 90.9574C212.688 90.5696 212.066 90.3757 211.321 90.3757C210.607 90.3757 210.001 90.5634 209.502 90.9389C209.004 91.3144 208.625 91.8407 208.367 92.5178C208.114 93.1948 207.988 93.992 207.988 94.9091ZM227.147 102.277C225.731 102.277 224.515 101.966 223.5 101.344C222.49 100.723 221.711 99.8641 221.164 98.7685C220.622 97.6667 220.351 96.3987 220.351 94.9645C220.351 93.5241 220.628 92.2531 221.182 91.1513C221.736 90.0433 222.518 89.1816 223.527 88.5661C224.543 87.9444 225.743 87.6335 227.128 87.6335C228.279 87.6335 229.298 87.8459 230.184 88.2706C231.077 88.6892 231.788 89.2831 232.317 90.0526C232.846 90.8158 233.148 91.7083 233.222 92.7301H230.027C229.898 92.0469 229.59 91.4775 229.104 91.022C228.624 90.5604 227.981 90.3295 227.174 90.3295C226.491 90.3295 225.891 90.5142 225.374 90.8835C224.857 91.2467 224.454 91.7699 224.164 92.4531C223.881 93.1364 223.74 93.955 223.74 94.9091C223.74 95.8755 223.881 96.7064 224.164 97.402C224.447 98.0914 224.844 98.6238 225.355 98.9993C225.872 99.3686 226.479 99.5533 227.174 99.5533C227.667 99.5533 228.107 99.4609 228.495 99.2763C228.889 99.0855 229.218 98.8116 229.483 98.4545C229.747 98.0975 229.929 97.6636 230.027 97.1527H233.222C233.142 98.156 232.846 99.0455 232.335 99.821C231.825 100.59 231.129 101.194 230.249 101.631C229.369 102.062 228.335 102.277 227.147 102.277ZM238.228 92.4347H242.411C244.221 92.4347 245.621 92.8748 246.612 93.755C247.603 94.6352 248.102 95.7893 248.108 97.2173C248.102 98.1468 247.874 98.9716 247.424 99.6918C246.981 100.412 246.335 100.978 245.486 101.391C244.642 101.797 243.617 102 242.411 102H235.966V87.8182H239.189V99.2578H242.411C243.137 99.2578 243.734 99.0732 244.202 98.7038C244.67 98.3284 244.904 97.8482 244.904 97.2635C244.904 96.648 244.67 96.1463 244.202 95.7585C243.734 95.3707 243.137 95.1768 242.411 95.1768H238.228V92.4347ZM249.871 102V87.8182H253.214V102H249.871Z" fill="#502E12"/>
<defs>
<filter id="filter0_d_63_476" x="0" y="0" width="427" height="157" filterUnits="userSpaceOnUse" color-interpolation-filters="sRGB">
<feFlood flood-opacity="0" result="BackgroundImageFix"/>
<feColorMatrix in="SourceAlpha" type="matrix" values="0 0 0 0 0 0 0 0 0 0 0 0 0 0 0 0 0 0 127 0" result="hardAlpha"/>
<feOffset/>
<feGaussianBlur stdDeviation="8"/>
<feComposite in2="hardAlpha" operator="out"/>
<feColorMatrix type="matrix" values="0 0 0 0 0.44391 0 0 0 0 0.44391 0 0 0 0 0.44391 0 0 0 0.25 0"/>
<feBlend mode="normal" in2="BackgroundImageFix" result="effect1_dropShadow_63_476"/>
<feBlend mode="normal" in="SourceGraphic" in2="effect1_dropShadow_63_476" result="shape"/>
</filter>
</defs>
</svg>
