<svg width="427" height="157" viewBox="0 0 427 157" fill="none" xmlns="http://www.w3.org/2000/svg">
<g filter="url(#filter0_d_161_504)">
<path d="M394.243 16C394.243 21.0137 401.21 25.0781 409.804 25.0781C410.206 25.0781 410.605 25.0654 411 25.0479V129.855C410.605 129.838 410.206 129.826 409.804 129.826C401.21 129.826 394.244 133.891 394.243 138.904C394.243 139.626 394.388 140.327 394.66 141H31.1436C31.416 140.327 31.5605 139.626 31.5605 138.904C31.5602 133.891 24.5937 129.826 16 129.826V25.0781C24.5939 25.0781 31.5605 21.0137 31.5605 16L394.243 16Z" fill="white"/>
</g>
<mask id="path-2-inside-1_161_504" fill="white">
<path d="M388.837 24C388.837 28.3319 395.556 31.8437 403.846 31.8437C404.234 31.8437 404.619 31.8325 405 31.8174V122.371C404.619 122.356 404.234 122.347 403.846 122.347C395.556 122.347 388.837 125.859 388.837 130.19C388.837 130.813 388.976 131.419 389.238 132H38.6084C38.8709 131.419 39.0097 130.813 39.0098 130.19C39.0098 125.859 32.2902 122.347 24.001 122.347H24V31.8428C32.2893 31.8428 39.0098 28.3319 39.0098 24L388.837 24Z"/>
</mask>
<path d="M388.837 24C388.837 28.3319 395.556 31.8437 403.846 31.8437C404.234 31.8437 404.619 31.8325 405 31.8174V122.371C404.619 122.356 404.234 122.347 403.846 122.347C395.556 122.347 388.837 125.859 388.837 130.19C388.837 130.813 388.976 131.419 389.238 132H38.6084C38.8709 131.419 39.0097 130.813 39.0098 130.19C39.0098 125.859 32.2902 122.347 24.001 122.347H24V31.8428C32.2893 31.8428 39.0098 28.3319 39.0098 24L388.837 24Z" fill="white"/>
<path d="M388.837 24H389.837V23H388.837V24ZM403.846 31.8437L403.846 32.8438L403.846 32.8437L403.846 31.8437ZM405 31.8174H406V30.7768L404.96 30.8182L405 31.8174ZM405 122.371L404.96 123.37L406 123.412V122.371H405ZM403.846 122.347L403.846 121.347H403.846V122.347ZM388.837 130.19L387.837 130.19L387.837 130.19L388.837 130.19ZM389.238 132V133H390.788L390.15 131.588L389.238 132ZM38.6084 132L37.6971 131.588L37.0591 133H38.6084V132ZM39.0098 130.19L40.0098 130.19V130.19H39.0098ZM24.001 122.347L24.001 121.347H24.001V122.347ZM24 122.347H23V123.347H24V122.347ZM24 31.8428V30.8428H23V31.8428H24ZM39.0098 24V23H38.0098V24H39.0098ZM388.837 24H387.837C387.837 26.7256 389.932 28.9494 392.77 30.4326C395.656 31.9408 399.573 32.8437 403.846 32.8437V31.8437V30.8437C399.829 30.8437 396.242 29.9907 393.696 28.6601C391.102 27.3044 389.837 25.6063 389.837 24H388.837ZM403.846 31.8437L403.846 32.8437C404.253 32.8437 404.652 32.832 405.04 32.8166L405 31.8174L404.96 30.8182C404.586 30.8331 404.216 30.8437 403.846 30.8438L403.846 31.8437ZM405 31.8174H404V122.371H405H406V31.8174H405ZM405 122.371L405.04 121.372C404.648 121.356 404.25 121.347 403.846 121.347L403.846 122.347L403.846 123.347C404.218 123.347 404.59 123.356 404.96 123.37L405 122.371ZM403.846 122.347V121.347C399.573 121.347 395.656 122.25 392.77 123.758C389.932 125.241 387.837 127.465 387.837 130.19H388.837H389.837C389.837 128.584 391.102 126.886 393.696 125.53C396.242 124.2 399.829 123.347 403.846 123.347V122.347ZM388.837 130.19L387.837 130.19C387.837 130.966 388.01 131.711 388.327 132.412L389.238 132L390.15 131.588C389.941 131.127 389.837 130.661 389.837 130.19L388.837 130.19ZM389.238 132V131H38.6084V132V133H389.238V132ZM38.6084 132L39.5197 132.412C39.8362 131.711 40.0097 130.966 40.0098 130.19L39.0098 130.19L38.0098 130.19C38.0097 130.661 37.9056 131.127 37.6971 131.588L38.6084 132ZM39.0098 130.19H40.0098C40.0098 127.465 37.915 125.241 35.077 123.758C32.191 122.25 28.2735 121.347 24.001 121.347L24.001 122.347L24.001 123.347C28.0177 123.347 31.6045 124.2 34.1506 125.53C36.7447 126.886 38.0098 128.584 38.0098 130.19H39.0098ZM24.001 122.347V121.347H24V122.347V123.347H24.001V122.347ZM24 122.347H25V31.8428H24H23V122.347H24ZM24 31.8428V32.8428C28.2725 32.8428 32.1903 31.9401 35.0764 30.4322C37.9146 28.9493 40.0098 26.7257 40.0098 24H39.0098H38.0098C38.0098 25.6062 36.7447 27.304 34.1503 28.6595C31.6039 29.99 28.0168 30.8428 24 30.8428V31.8428ZM39.0098 24V25L388.837 25V24V23L39.0098 23V24Z" fill="#D9B881" mask="url(#path-2-inside-1_161_504)"/>
<path d="M153.785 74V55.0909H157.21V71.1286H165.539V74H153.785ZM172.445 74.2862C171.546 74.2862 170.737 74.1262 170.017 73.8061C169.302 73.4799 168.736 72.9998 168.318 72.3658C167.905 71.7318 167.699 70.95 167.699 70.0206C167.699 69.2204 167.847 68.5587 168.142 68.0355C168.438 67.5123 168.841 67.0938 169.352 66.7798C169.863 66.4659 170.438 66.2289 171.078 66.0689C171.725 65.9027 172.392 65.7827 173.082 65.7088C173.913 65.6226 174.587 65.5457 175.104 65.478C175.621 65.4041 175.996 65.2933 176.23 65.1456C176.47 64.9917 176.59 64.7547 176.59 64.4347V64.3793C176.59 63.6837 176.384 63.1451 175.972 62.7635C175.559 62.3819 174.965 62.1911 174.19 62.1911C173.371 62.1911 172.722 62.3696 172.242 62.7266C171.768 63.0836 171.448 63.5052 171.281 63.9915L168.161 63.5483C168.407 62.6866 168.813 61.9664 169.379 61.3878C169.946 60.803 170.638 60.366 171.457 60.0767C172.276 59.7812 173.18 59.6335 174.171 59.6335C174.855 59.6335 175.535 59.7135 176.212 59.8736C176.889 60.0336 177.508 60.2983 178.068 60.6676C178.628 61.0308 179.077 61.5263 179.416 62.1541C179.76 62.782 179.933 63.5668 179.933 64.5085V74H176.72V72.0518H176.609C176.406 72.4458 176.119 72.8151 175.75 73.1598C175.387 73.4983 174.928 73.7723 174.374 73.9815C173.827 74.1847 173.183 74.2862 172.445 74.2862ZM173.313 71.8303C173.984 71.8303 174.565 71.6979 175.058 71.4332C175.55 71.1624 175.929 70.8054 176.193 70.3622C176.464 69.919 176.6 69.4358 176.6 68.9126V67.2415C176.495 67.3277 176.316 67.4077 176.064 67.4815C175.818 67.5554 175.541 67.62 175.233 67.6754C174.925 67.7308 174.621 67.7801 174.319 67.8232C174.017 67.8662 173.756 67.9032 173.534 67.9339C173.036 68.0017 172.589 68.1125 172.195 68.2663C171.802 68.4202 171.491 68.6357 171.263 68.9126C171.035 69.1835 170.921 69.5343 170.921 69.9652C170.921 70.5807 171.146 71.0455 171.595 71.3594C172.045 71.6733 172.617 71.8303 173.313 71.8303ZM186.636 65.6903V74H183.294V59.8182H186.488V62.228H186.654C186.981 61.4339 187.501 60.803 188.215 60.3352C188.935 59.8674 189.824 59.6335 190.883 59.6335C191.862 59.6335 192.714 59.8428 193.441 60.2614C194.173 60.6799 194.739 61.2862 195.139 62.0803C195.546 62.8743 195.746 63.8376 195.74 64.9702V74H192.397V65.4872C192.397 64.5393 192.151 63.7976 191.659 63.2621C191.172 62.7266 190.498 62.4588 189.637 62.4588C189.052 62.4588 188.532 62.5881 188.076 62.8466C187.627 63.099 187.273 63.4652 187.014 63.9453C186.762 64.4254 186.636 65.0071 186.636 65.6903ZM205.305 79.6136C204.105 79.6136 203.074 79.4505 202.212 79.1243C201.35 78.8042 200.658 78.3733 200.134 77.8317C199.611 77.29 199.248 76.6899 199.045 76.0312L202.055 75.3018C202.19 75.5788 202.387 75.8527 202.646 76.1236C202.904 76.4006 203.252 76.6283 203.689 76.8068C204.132 76.9915 204.689 77.0838 205.36 77.0838C206.308 77.0838 207.093 76.853 207.715 76.3913C208.336 75.9358 208.647 75.1849 208.647 74.1385V71.4517H208.481C208.309 71.7964 208.056 72.1503 207.724 72.5135C207.398 72.8767 206.964 73.1813 206.422 73.4276C205.887 73.6738 205.213 73.7969 204.4 73.7969C203.311 73.7969 202.323 73.5414 201.436 73.0305C200.556 72.5135 199.854 71.7441 199.331 70.7223C198.814 69.6944 198.556 68.4079 198.556 66.8629C198.556 65.3056 198.814 63.9915 199.331 62.9205C199.854 61.8433 200.559 61.0277 201.445 60.4737C202.332 59.9136 203.32 59.6335 204.409 59.6335C205.24 59.6335 205.923 59.7751 206.459 60.0582C207.001 60.3352 207.432 60.6707 207.752 61.0646C208.072 61.4524 208.315 61.8187 208.481 62.1634H208.666V59.8182H211.962V74.2308C211.962 75.4434 211.673 76.4467 211.094 77.2408C210.515 78.0348 209.724 78.6288 208.721 79.0227C207.718 79.4167 206.579 79.6136 205.305 79.6136ZM205.333 71.1747C206.04 71.1747 206.644 71.0024 207.142 70.6577C207.641 70.313 208.019 69.8175 208.278 69.1712C208.536 68.5249 208.666 67.7493 208.666 66.8445C208.666 65.9519 208.536 65.1702 208.278 64.4993C208.026 63.8284 207.65 63.3082 207.151 62.9389C206.659 62.5634 206.053 62.3757 205.333 62.3757C204.588 62.3757 203.966 62.5696 203.468 62.9574C202.969 63.3452 202.593 63.8776 202.341 64.5547C202.089 65.2256 201.963 65.9889 201.963 66.8445C201.963 67.7124 202.089 68.4725 202.341 69.125C202.6 69.7713 202.978 70.276 203.477 70.6392C203.981 70.9962 204.6 71.1747 205.333 71.1747ZM224.426 68.0355V59.8182H227.769V74H224.528V71.4794H224.38C224.06 72.2734 223.534 72.9228 222.801 73.4276C222.075 73.9323 221.179 74.1847 220.115 74.1847C219.185 74.1847 218.363 73.9785 217.649 73.5661C216.941 73.1475 216.387 72.5412 215.987 71.7472C215.587 70.947 215.387 69.9806 215.387 68.848V59.8182H218.73V68.331C218.73 69.2296 218.976 69.9437 219.468 70.473C219.961 71.0024 220.607 71.267 221.407 71.267C221.9 71.267 222.377 71.147 222.838 70.907C223.3 70.6669 223.678 70.3099 223.974 69.8359C224.276 69.3558 224.426 68.7557 224.426 68.0355ZM235.287 74.2862C234.388 74.2862 233.578 74.1262 232.858 73.8061C232.144 73.4799 231.578 72.9998 231.159 72.3658C230.747 71.7318 230.541 70.95 230.541 70.0206C230.541 69.2204 230.689 68.5587 230.984 68.0355C231.279 67.5123 231.683 67.0938 232.194 66.7798C232.704 66.4659 233.28 66.2289 233.92 66.0689C234.566 65.9027 235.234 65.7827 235.924 65.7088C236.755 65.6226 237.429 65.5457 237.946 65.478C238.463 65.4041 238.838 65.2933 239.072 65.1456C239.312 64.9917 239.432 64.7547 239.432 64.4347V64.3793C239.432 63.6837 239.226 63.1451 238.814 62.7635C238.401 62.3819 237.807 62.1911 237.032 62.1911C236.213 62.1911 235.564 62.3696 235.083 62.7266C234.609 63.0836 234.289 63.5052 234.123 63.9915L231.002 63.5483C231.249 62.6866 231.655 61.9664 232.221 61.3878C232.788 60.803 233.48 60.366 234.299 60.0767C235.117 59.7812 236.022 59.6335 237.013 59.6335C237.696 59.6335 238.377 59.7135 239.054 59.8736C239.731 60.0336 240.349 60.2983 240.909 60.6676C241.47 61.0308 241.919 61.5263 242.257 62.1541C242.602 62.782 242.775 63.5668 242.775 64.5085V74H239.561V72.0518H239.451C239.248 72.4458 238.961 72.8151 238.592 73.1598C238.229 73.4983 237.77 73.7723 237.216 73.9815C236.668 74.1847 236.025 74.2862 235.287 74.2862ZM236.154 71.8303C236.825 71.8303 237.407 71.6979 237.9 71.4332C238.392 71.1624 238.77 70.8054 239.035 70.3622C239.306 69.919 239.441 69.4358 239.441 68.9126V67.2415C239.337 67.3277 239.158 67.4077 238.906 67.4815C238.66 67.5554 238.383 67.62 238.075 67.6754C237.767 67.7308 237.462 67.7801 237.161 67.8232C236.859 67.8662 236.598 67.9032 236.376 67.9339C235.877 68.0017 235.431 68.1125 235.037 68.2663C234.643 68.4202 234.333 68.6357 234.105 68.9126C233.877 69.1835 233.763 69.5343 233.763 69.9652C233.763 70.5807 233.988 71.0455 234.437 71.3594C234.886 71.6733 235.459 71.8303 236.154 71.8303ZM252.303 79.6136C251.103 79.6136 250.072 79.4505 249.21 79.1243C248.348 78.8042 247.656 78.3733 247.132 77.8317C246.609 77.29 246.246 76.6899 246.043 76.0312L249.053 75.3018C249.188 75.5788 249.385 75.8527 249.644 76.1236C249.902 76.4006 250.25 76.6283 250.687 76.8068C251.13 76.9915 251.687 77.0838 252.358 77.0838C253.306 77.0838 254.091 76.853 254.713 76.3913C255.334 75.9358 255.645 75.1849 255.645 74.1385V71.4517H255.479C255.307 71.7964 255.054 72.1503 254.722 72.5135C254.396 72.8767 253.962 73.1813 253.42 73.4276C252.885 73.6738 252.211 73.7969 251.398 73.7969C250.309 73.7969 249.321 73.5414 248.434 73.0305C247.554 72.5135 246.852 71.7441 246.329 70.7223C245.812 69.6944 245.554 68.4079 245.554 66.8629C245.554 65.3056 245.812 63.9915 246.329 62.9205C246.852 61.8433 247.557 61.0277 248.444 60.4737C249.33 59.9136 250.318 59.6335 251.407 59.6335C252.238 59.6335 252.922 59.7751 253.457 60.0582C253.999 60.3352 254.43 60.6707 254.75 61.0646C255.07 61.4524 255.313 61.8187 255.479 62.1634H255.664V59.8182H258.96V74.2308C258.96 75.4434 258.671 76.4467 258.092 77.2408C257.513 78.0348 256.722 78.6288 255.719 79.0227C254.716 79.4167 253.577 79.6136 252.303 79.6136ZM252.331 71.1747C253.038 71.1747 253.642 71.0024 254.14 70.6577C254.639 70.313 255.017 69.8175 255.276 69.1712C255.534 68.5249 255.664 67.7493 255.664 66.8445C255.664 65.9519 255.534 65.1702 255.276 64.4993C255.024 63.8284 254.648 63.3082 254.15 62.9389C253.657 62.5634 253.051 62.3757 252.331 62.3757C251.586 62.3757 250.964 62.5696 250.466 62.9574C249.967 63.3452 249.592 63.8776 249.339 64.5547C249.087 65.2256 248.961 65.9889 248.961 66.8445C248.961 67.7124 249.087 68.4725 249.339 69.125C249.598 69.7713 249.976 70.276 250.475 70.6392C250.98 70.9962 251.598 71.1747 252.331 71.1747ZM268.664 74.277C267.242 74.277 266.014 73.9815 264.98 73.3906C263.952 72.7936 263.161 71.9503 262.607 70.8608C262.053 69.7652 261.776 68.4756 261.776 66.9922C261.776 65.5334 262.053 64.2531 262.607 63.1513C263.167 62.0433 263.949 61.1816 264.952 60.5661C265.955 59.9444 267.134 59.6335 268.488 59.6335C269.362 59.6335 270.187 59.7751 270.963 60.0582C271.744 60.3352 272.434 60.7661 273.031 61.3509C273.634 61.9356 274.108 62.6804 274.453 63.5852C274.797 64.4839 274.97 65.5549 274.97 66.7983V67.8232H263.346V65.5703H271.766C271.76 64.9302 271.621 64.3608 271.35 63.8622C271.08 63.3575 270.701 62.9605 270.215 62.6712C269.735 62.3819 269.175 62.2372 268.534 62.2372C267.851 62.2372 267.251 62.4034 266.734 62.7358C266.217 63.062 265.814 63.4929 265.525 64.0284C265.241 64.5578 265.097 65.1394 265.091 65.7734V67.7401C265.091 68.5649 265.241 69.2727 265.543 69.8636C265.845 70.4484 266.266 70.8977 266.808 71.2116C267.35 71.5194 267.984 71.6733 268.71 71.6733C269.196 71.6733 269.636 71.6056 270.03 71.4702C270.424 71.3286 270.766 71.1224 271.055 70.8516C271.344 70.5807 271.563 70.2453 271.711 69.8452L274.831 70.196C274.634 71.0208 274.259 71.741 273.705 72.3565C273.157 72.9659 272.455 73.4399 271.6 73.7784C270.744 74.1108 269.766 74.277 268.664 74.277ZM171.452 102.277C170.037 102.277 168.821 101.966 167.805 101.344C166.796 100.723 166.017 99.8641 165.469 98.7685C164.928 97.6667 164.657 96.3987 164.657 94.9645C164.657 93.5241 164.934 92.2531 165.488 91.1513C166.042 90.0433 166.823 89.1816 167.833 88.5661C168.849 87.9444 170.049 87.6335 171.434 87.6335C172.585 87.6335 173.604 87.8459 174.49 88.2706C175.382 88.6892 176.093 89.2831 176.623 90.0526C177.152 90.8158 177.454 91.7083 177.528 92.7301H174.333C174.204 92.0469 173.896 91.4775 173.41 91.022C172.93 90.5604 172.286 90.3295 171.48 90.3295C170.797 90.3295 170.197 90.5142 169.68 90.8835C169.162 91.2467 168.759 91.7699 168.47 92.4531C168.187 93.1364 168.045 93.955 168.045 94.9091C168.045 95.8755 168.187 96.7064 168.47 97.402C168.753 98.0914 169.15 98.6238 169.661 98.9993C170.178 99.3686 170.784 99.5533 171.48 99.5533C171.972 99.5533 172.412 99.4609 172.8 99.2763C173.194 99.0855 173.523 98.8116 173.788 98.4545C174.053 98.0975 174.234 97.6636 174.333 97.1527H177.528C177.448 98.156 177.152 99.0455 176.641 99.821C176.13 100.59 175.435 101.194 174.555 101.631C173.674 102.062 172.64 102.277 171.452 102.277ZM186.458 102.277C185.073 102.277 183.873 101.972 182.857 101.363C181.842 100.754 181.054 99.901 180.494 98.8054C179.94 97.7098 179.663 96.4295 179.663 94.9645C179.663 93.4995 179.94 92.2161 180.494 91.1143C181.054 90.0125 181.842 89.157 182.857 88.5476C183.873 87.9382 185.073 87.6335 186.458 87.6335C187.843 87.6335 189.043 87.9382 190.059 88.5476C191.075 89.157 191.859 90.0125 192.413 91.1143C192.973 92.2161 193.254 93.4995 193.254 94.9645C193.254 96.4295 192.973 97.7098 192.413 98.8054C191.859 99.901 191.075 100.754 190.059 101.363C189.043 101.972 187.843 102.277 186.458 102.277ZM186.477 99.5994C187.228 99.5994 187.855 99.3932 188.36 98.9808C188.865 98.5623 189.24 98.0021 189.487 97.3004C189.739 96.5987 189.865 95.817 189.865 94.9553C189.865 94.0874 189.739 93.3026 189.487 92.6009C189.24 91.893 188.865 91.3298 188.36 90.9112C187.855 90.4927 187.228 90.2834 186.477 90.2834C185.707 90.2834 185.067 90.4927 184.556 90.9112C184.051 91.3298 183.673 91.893 183.42 92.6009C183.174 93.3026 183.051 94.0874 183.051 94.9553C183.051 95.817 183.174 96.5987 183.42 97.3004C183.673 98.0021 184.051 98.5623 184.556 98.9808C185.067 99.3932 185.707 99.5994 186.477 99.5994ZM205.129 96.0355V87.8182H208.472V102H205.231V99.4794H205.083C204.763 100.273 204.237 100.923 203.504 101.428C202.778 101.932 201.883 102.185 200.818 102.185C199.888 102.185 199.066 101.978 198.352 101.566C197.645 101.147 197.091 100.541 196.691 99.7472C196.29 98.947 196.09 97.9806 196.09 96.848V87.8182H199.433V96.331C199.433 97.2296 199.679 97.9437 200.171 98.473C200.664 99.0024 201.31 99.267 202.11 99.267C202.603 99.267 203.08 99.147 203.541 98.907C204.003 98.6669 204.382 98.3099 204.677 97.8359C204.979 97.3558 205.129 96.7557 205.129 96.0355ZM211.909 102V87.8182H215.15V90.1818H215.297C215.556 89.3632 215.999 88.7322 216.627 88.2891C217.261 87.8397 217.984 87.6151 218.797 87.6151C218.981 87.6151 219.187 87.6243 219.415 87.6428C219.649 87.6551 219.843 87.6766 219.997 87.7074V90.782C219.855 90.7327 219.631 90.6896 219.323 90.6527C219.021 90.6096 218.729 90.5881 218.446 90.5881C217.836 90.5881 217.288 90.7204 216.802 90.9851C216.322 91.2436 215.944 91.6037 215.667 92.0653C215.39 92.527 215.251 93.0594 215.251 93.6626V102H211.909ZM233.426 91.5668L230.379 91.8991C230.293 91.5914 230.142 91.3021 229.927 91.0312C229.718 90.7604 229.434 90.5419 229.077 90.3757C228.72 90.2095 228.283 90.1264 227.766 90.1264C227.071 90.1264 226.486 90.2772 226.012 90.5788C225.544 90.8804 225.313 91.2713 225.32 91.7514C225.313 92.1638 225.464 92.4993 225.772 92.7578C226.086 93.0163 226.603 93.2287 227.323 93.3949L229.742 93.9119C231.084 94.2012 232.081 94.6598 232.734 95.2876C233.392 95.9155 233.725 96.7372 233.731 97.7528C233.725 98.6454 233.463 99.4332 232.946 100.116C232.435 100.794 231.724 101.323 230.813 101.705C229.902 102.086 228.856 102.277 227.674 102.277C225.938 102.277 224.541 101.914 223.482 101.188C222.424 100.455 221.793 99.4363 221.589 98.1314L224.849 97.8175C224.996 98.4576 225.31 98.9408 225.79 99.267C226.271 99.5933 226.895 99.7564 227.665 99.7564C228.459 99.7564 229.096 99.5933 229.576 99.267C230.062 98.9408 230.305 98.5376 230.305 98.0575C230.305 97.6513 230.148 97.3158 229.835 97.0511C229.527 96.7865 229.047 96.5833 228.394 96.4418L225.975 95.9339C224.615 95.6508 223.608 95.1738 222.956 94.5028C222.304 93.8258 221.98 92.9702 221.987 91.9361C221.98 91.062 222.217 90.3049 222.697 89.6648C223.184 89.0185 223.858 88.5199 224.719 88.169C225.587 87.812 226.588 87.6335 227.72 87.6335C229.382 87.6335 230.69 87.9875 231.644 88.6953C232.604 89.4032 233.198 90.3603 233.426 91.5668ZM242.765 102.277C241.343 102.277 240.115 101.982 239.081 101.391C238.053 100.794 237.262 99.9503 236.708 98.8608C236.154 97.7652 235.877 96.4756 235.877 94.9922C235.877 93.5334 236.154 92.2531 236.708 91.1513C237.269 90.0433 238.05 89.1816 239.054 88.5661C240.057 87.9444 241.236 87.6335 242.59 87.6335C243.464 87.6335 244.289 87.7751 245.064 88.0582C245.846 88.3352 246.535 88.7661 247.132 89.3509C247.736 89.9356 248.21 90.6804 248.554 91.5852C248.899 92.4839 249.071 93.5549 249.071 94.7983V95.8232H237.447V93.5703H245.868C245.861 92.9302 245.723 92.3608 245.452 91.8622C245.181 91.3575 244.803 90.9605 244.316 90.6712C243.836 90.3819 243.276 90.2372 242.636 90.2372C241.953 90.2372 241.353 90.4034 240.836 90.7358C240.319 91.062 239.915 91.4929 239.626 92.0284C239.343 92.5578 239.198 93.1394 239.192 93.7734V95.7401C239.192 96.5649 239.343 97.2727 239.645 97.8636C239.946 98.4484 240.368 98.8977 240.909 99.2116C241.451 99.5194 242.085 99.6733 242.811 99.6733C243.298 99.6733 243.738 99.6056 244.132 99.4702C244.526 99.3286 244.867 99.1224 245.157 98.8516C245.446 98.5807 245.664 98.2453 245.812 97.8452L248.933 98.196C248.736 99.0208 248.36 99.741 247.806 100.357C247.259 100.966 246.557 101.44 245.701 101.778C244.846 102.111 243.867 102.277 242.765 102.277ZM263.108 91.5668L260.061 91.8991C259.975 91.5914 259.824 91.3021 259.608 91.0312C259.399 90.7604 259.116 90.5419 258.759 90.3757C258.402 90.2095 257.965 90.1264 257.448 90.1264C256.752 90.1264 256.168 90.2772 255.694 90.5788C255.226 90.8804 254.995 91.2713 255.001 91.7514C254.995 92.1638 255.146 92.4993 255.454 92.7578C255.768 93.0163 256.285 93.2287 257.005 93.3949L259.424 93.9119C260.766 94.2012 261.763 94.6598 262.415 95.2876C263.074 95.9155 263.406 96.7372 263.412 97.7528C263.406 98.6454 263.145 99.4332 262.628 100.116C262.117 100.794 261.406 101.323 260.495 101.705C259.584 102.086 258.537 102.277 257.356 102.277C255.62 102.277 254.223 101.914 253.164 101.188C252.105 100.455 251.474 99.4363 251.271 98.1314L254.53 97.8175C254.678 98.4576 254.992 98.9408 255.472 99.267C255.952 99.5933 256.577 99.7564 257.346 99.7564C258.14 99.7564 258.778 99.5933 259.258 99.267C259.744 98.9408 259.987 98.5376 259.987 98.0575C259.987 97.6513 259.83 97.3158 259.516 97.0511C259.208 96.7865 258.728 96.5833 258.076 96.4418L255.657 95.9339C254.296 95.6508 253.29 95.1738 252.638 94.5028C251.985 93.8258 251.662 92.9702 251.668 91.9361C251.662 91.062 251.899 90.3049 252.379 89.6648C252.865 89.0185 253.539 88.5199 254.401 88.169C255.269 87.812 256.269 87.6335 257.402 87.6335C259.064 87.6335 260.372 87.9875 261.326 88.6953C262.286 89.4032 262.88 90.3603 263.108 91.5668Z" fill="#502E12"/>
<defs>
<filter id="filter0_d_161_504" x="0" y="0" width="427" height="157" filterUnits="userSpaceOnUse" color-interpolation-filters="sRGB">
<feFlood flood-opacity="0" result="BackgroundImageFix"/>
<feColorMatrix in="SourceAlpha" type="matrix" values="0 0 0 0 0 0 0 0 0 0 0 0 0 0 0 0 0 0 127 0" result="hardAlpha"/>
<feOffset/>
<feGaussianBlur stdDeviation="8"/>
<feComposite in2="hardAlpha" operator="out"/>
<feColorMatrix type="matrix" values="0 0 0 0 0.44391 0 0 0 0 0.44391 0 0 0 0 0.44391 0 0 0 0.25 0"/>
<feBlend mode="normal" in2="BackgroundImageFix" result="effect1_dropShadow_161_504"/>
<feBlend mode="normal" in="SourceGraphic" in2="effect1_dropShadow_161_504" result="shape"/>
</filter>
</defs>
</svg>
