<svg width="482" height="629" viewBox="0 0 482 629" fill="none" xmlns="http://www.w3.org/2000/svg">
<g filter="url(#filter0_d_0_1)">
<path d="M446.909 16C446.909 39.9457 454.846 59.3574 464.637 59.3574C465.095 59.3574 465.55 59.3152 466 59.2314V559.763C465.55 559.679 465.095 559.637 464.637 559.637C454.846 559.637 446.909 579.048 446.909 602.994C446.909 606.438 447.075 609.788 447.385 613H33.252C33.5622 609.788 33.7275 606.438 33.7275 602.994C33.7275 579.423 26.0369 560.244 16.458 559.65L16 559.637V59.3574C25.6375 59.3574 33.479 40.5477 33.7217 17.1191L33.7275 16H446.909Z" fill="white"/>
</g>
<mask id="path-2-inside-1_0_1" fill="white">
<path d="M439.588 24C439.588 47.0631 447.242 65.7594 456.685 65.7598C457.127 65.7598 457.566 65.7193 458 65.6387V547.726C457.566 547.645 457.127 547.604 456.685 547.604C447.242 547.604 439.588 566.3 439.588 589.363C439.588 592.68 439.747 595.907 440.046 599H40.6396C40.9388 595.907 41.0977 592.68 41.0977 589.363C41.0976 566.3 33.4432 547.604 24.001 547.604H24V65.7588L24.001 65.7598C33.4433 65.7595 41.0977 47.0631 41.0977 24H439.588Z"/>
</mask>
<path d="M439.588 24C439.588 47.0631 447.242 65.7594 456.685 65.7598C457.127 65.7598 457.566 65.7193 458 65.6387V547.726C457.566 547.645 457.127 547.604 456.685 547.604C447.242 547.604 439.588 566.3 439.588 589.363C439.588 592.68 439.747 595.907 440.046 599H40.6396C40.9388 595.907 41.0977 592.68 41.0977 589.363C41.0976 566.3 33.4432 547.604 24.001 547.604H24V65.7588L24.001 65.7598C33.4433 65.7595 41.0977 47.0631 41.0977 24H439.588Z" fill="white"/>
<path d="M439.588 24H440.588V23H439.588V24ZM456.685 65.7598L456.685 66.7598H456.685V65.7598ZM458 65.6387H459V64.4358L457.817 64.6555L458 65.6387ZM458 547.726L457.817 548.709L459 548.929V547.726H458ZM456.685 547.604V546.604H456.685L456.685 547.604ZM439.588 589.363H438.588H439.588ZM440.046 599V600H441.147L441.041 598.904L440.046 599ZM40.6396 599L39.6443 598.904L39.5383 600H40.6396V599ZM41.0977 589.363H42.0977H41.0977ZM24.001 547.604L24.001 546.604H24.001V547.604ZM24 547.604H23V548.604H24V547.604ZM24 65.7588L24.7071 65.0517L23 63.3446V65.7588H24ZM24.001 65.7598L23.2939 66.4669L23.5868 66.7598L24.001 66.7598L24.001 65.7598ZM41.0977 24V23H40.0977V24H41.0977ZM439.588 24H438.588C438.588 35.6287 440.516 46.203 443.67 53.9073C445.246 57.757 447.148 60.9385 449.311 63.1734C451.477 65.4112 453.969 66.7597 456.685 66.7598L456.685 65.7598L456.685 64.7598C454.679 64.7597 452.673 63.771 450.748 61.7824C448.821 59.7909 447.039 56.8568 445.521 53.1495C442.487 45.7398 440.588 35.4344 440.588 24H439.588ZM456.685 65.7598V66.7598C457.188 66.7598 457.688 66.7137 458.183 66.6218L458 65.6387L457.817 64.6555C457.444 64.7249 457.066 64.7598 456.685 64.7598V65.7598ZM458 65.6387H457V547.726H458H459V65.6387H458ZM458 547.726L458.183 546.742C457.69 546.651 457.19 546.604 456.685 546.604V547.604V548.604C457.064 548.604 457.442 548.639 457.817 548.709L458 547.726ZM456.685 547.604L456.685 546.604C453.969 546.604 451.477 547.952 449.311 550.19C447.148 552.425 445.246 555.606 443.67 559.456C440.516 567.16 438.588 577.735 438.588 589.363H439.588H440.588C440.588 577.929 442.487 567.624 445.521 560.214C447.039 556.507 448.821 553.572 450.748 551.581C452.673 549.592 454.679 548.604 456.685 548.604L456.685 547.604ZM439.588 589.363H438.588C438.588 592.712 438.748 595.971 439.051 599.096L440.046 599L441.041 598.904C440.745 595.843 440.588 592.648 440.588 589.363H439.588ZM440.046 599V598H40.6396V599V600H440.046V599ZM40.6396 599L41.635 599.096C41.9373 595.971 42.0977 592.712 42.0977 589.363H41.0977H40.0977C40.0977 592.648 39.9403 595.843 39.6443 598.904L40.6396 599ZM41.0977 589.363H42.0977C42.0976 577.735 40.1697 567.16 37.0156 559.456C35.4395 555.606 33.5375 552.425 31.3743 550.19C29.2082 547.952 26.7164 546.604 24.001 546.604L24.001 547.604L24.0009 548.604C26.0067 548.604 28.0124 549.592 29.9372 551.581C31.8649 553.572 33.6469 556.506 35.1647 560.214C38.1982 567.624 40.0976 577.929 40.0977 589.363H41.0977ZM24.001 547.604V546.604H24V547.604V548.604H24.001V547.604ZM24 547.604H25V65.7588H24H23V547.604H24ZM24 65.7588L23.2929 66.4659L23.2939 66.4669L24.001 65.7598L24.7081 65.0527L24.7071 65.0517L24 65.7588ZM24.001 65.7598L24.001 66.7598C26.7164 66.7597 29.2083 65.4113 31.3743 63.1734C33.5375 60.9386 35.4395 57.757 37.0156 53.9073C40.1698 46.203 42.0977 35.6287 42.0977 24H41.0977H40.0977C40.0977 35.4344 38.1983 45.7398 35.1647 53.1496C33.6469 56.8569 31.8649 59.7909 29.9373 61.7824C28.0125 63.771 26.0067 64.7597 24.0009 64.7598L24.001 65.7598ZM41.0977 24V25H439.588V24V23H41.0977V24Z" fill="#D9B881" mask="url(#path-2-inside-1_0_1)"/>
<defs>
<filter id="filter0_d_0_1" x="0" y="0" width="482" height="629" filterUnits="userSpaceOnUse" color-interpolation-filters="sRGB">
<feFlood flood-opacity="0" result="BackgroundImageFix"/>
<feColorMatrix in="SourceAlpha" type="matrix" values="0 0 0 0 0 0 0 0 0 0 0 0 0 0 0 0 0 0 127 0" result="hardAlpha"/>
<feOffset/>
<feGaussianBlur stdDeviation="8"/>
<feComposite in2="hardAlpha" operator="out"/>
<feColorMatrix type="matrix" values="0 0 0 0 0.44391 0 0 0 0 0.44391 0 0 0 0 0.44391 0 0 0 0.25 0"/>
<feBlend mode="normal" in2="BackgroundImageFix" result="effect1_dropShadow_0_1"/>
<feBlend mode="normal" in="SourceGraphic" in2="effect1_dropShadow_0_1" result="shape"/>
</filter>
</defs>
</svg>
