<svg width="191" height="727" viewBox="0 0 191 727" fill="none" xmlns="http://www.w3.org/2000/svg">
<mask id="path-1-outside-1_0_1" maskUnits="userSpaceOnUse" x="-133.201" y="513.943" width="200.118" height="117.254" fill="black">
<rect fill="white" x="-133.201" y="513.943" width="200.118" height="117.254"/>
<path d="M-122.415 604.104C-119.765 602.747 -118.332 600.683 -117.422 599.056C-116.802 597.945 -116.396 596.758 -116.004 595.609C-115.275 593.475 -114.646 591.632 -112.824 590.731C-109.461 589.066 -105.036 590.358 -102.109 591.214C-97.3843 592.592 -93.5774 591.787 -91.2416 588.965C-90.8694 589.48 -90.4841 589.98 -90.101 590.472C-88.6329 592.358 -87.2472 594.14 -86.9825 596.535C-86.9432 596.894 -87.0304 597.263 -87.187 597.392C-87.6419 597.767 -87.7478 598.497 -87.4228 599.023C-87.2203 599.351 -86.8985 599.522 -86.5749 599.513C-86.3785 599.508 -86.1819 599.437 -86.01 599.295C-85.2336 598.655 -84.8364 597.484 -84.9733 596.238C-85.3176 593.117 -86.9838 590.977 -88.5946 588.906C-89.8079 587.346 -90.9546 585.873 -91.488 584.06C-92.2501 581.47 -91.7215 578.522 -90.0373 575.972C-86.8309 571.114 -79.9887 568.133 -74.9148 571.435C-73.8028 572.159 -72.2737 573.48 -71.4633 574.893C-69.635 579.206 -66.4782 581.522 -62.3116 581.589C-61.9526 581.594 -61.5541 581.533 -61.1708 581.473C-60.7704 581.411 -60.0322 581.296 -59.8154 581.414C-59.8203 581.427 -59.8036 581.503 -59.8026 581.652C-59.7979 582.474 -59.8358 583.308 -59.8718 584.114C-59.9951 586.839 -60.1228 589.657 -58.6575 592.424C-54.7304 599.836 -46.5952 602.613 -40.8215 602.739C-40.5433 602.745 -40.2604 602.744 -39.9762 602.736C-32.9356 602.549 -24.3116 598.199 -20.7884 589.901C-20.542 589.321 -20.7489 588.619 -21.2509 588.335C-21.7516 588.052 -22.3597 588.29 -22.6061 588.871C-25.8998 596.626 -34.2405 600.534 -40.7833 600.399C-46.0454 600.285 -53.4314 597.807 -56.9308 591.201C-58.0683 589.054 -57.9672 586.821 -57.8501 584.235C-57.8119 583.395 -57.7729 582.527 -57.7775 581.636C-57.7823 580.781 -58.0194 580.112 -58.4833 579.647C-59.3044 578.822 -60.4899 579.006 -61.4407 579.155C-61.7639 579.205 -62.072 579.249 -62.2823 579.249C-65.5843 579.196 -68.0057 577.466 -69.508 574.144C-69.5309 574.063 -69.56 573.982 -69.6 573.905C-69.6375 573.833 -69.6792 573.764 -69.7185 573.693C-69.725 573.677 -69.7334 573.663 -69.7403 573.646C-72.4568 566.923 -70.8045 556.67 -67.5138 551.995C-64.4826 547.69 -57.9794 544.295 -53.1331 546.107C-51.3189 546.784 -49.8821 545.349 -48.7288 544.195C-48.3871 543.853 -48.0645 543.529 -47.7626 543.288C-45.5894 541.544 -42.1583 540.967 -39.0277 541.817C-36.6627 542.459 -33.3947 544.174 -31.2326 548.69C-33.1804 553.073 -32.7468 558.454 -31.5766 562.396C-31.5898 562.499 -31.5958 562.605 -31.5841 562.713C-31.0543 567.576 -34.5058 573.307 -38.9707 574.978C-43.4427 576.652 -49.7389 574.974 -51.6278 569.891C-52.3523 567.939 -52.3622 565.855 -51.6564 563.861C-50.7238 561.227 -48.6412 558.932 -46.0854 557.72C-44.7981 557.11 -42.2112 556.451 -40.7487 557.278C-40.2846 557.541 -40.006 557.924 -39.8717 558.484C-39.7548 558.973 -39.8031 559.419 -40.0197 559.849C-40.4223 560.647 -41.3898 561.368 -42.4848 561.687C-43.0276 561.845 -43.357 562.481 -43.2208 563.108C-43.0847 563.734 -42.5337 564.115 -41.9919 563.957C-40.7199 563.587 -39.074 562.623 -38.2693 561.026C-37.7781 560.051 -37.6571 558.955 -37.9196 557.859C-38.207 556.659 -38.8764 555.732 -39.8561 555.176C-42.09 553.911 -45.4097 554.871 -46.8526 555.555C-49.9003 556.999 -52.3965 559.773 -53.5301 562.976C-54.4465 565.564 -54.4315 568.274 -53.4885 570.815C-51.6687 575.713 -46.8422 578.07 -42.2435 577.947C-40.8975 577.912 -39.5719 577.663 -38.3462 577.205C-34.1753 575.644 -30.8419 571.257 -29.83 566.584C-26.96 571.859 -21.9216 576.146 -16.2021 577.97C-11.661 579.417 -3.28954 579.467 -0.146248 573.441C0.481492 572.238 0.571895 570.985 0.651405 569.88C0.707422 569.103 0.760476 568.368 0.996019 567.766C1.26096 567.09 1.44944 567.043 2.40611 566.907C2.60397 566.879 2.81181 566.85 3.03129 566.81C6.04099 566.263 8.41462 564.04 9.54433 560.711C10.8356 556.906 10.2621 552.385 8.08222 549.193C5.78303 545.825 1.8997 544.029 -2.30169 544.393C-6.3657 544.744 -9.85232 547.095 -11.6282 550.683C-11.9054 551.244 -11.7372 551.959 -11.252 552.279C-10.7668 552.599 -10.1478 552.405 -9.86967 551.843C-8.42894 548.932 -5.54373 547.019 -2.15169 546.726C1.3295 546.429 4.6393 547.927 6.49236 550.642C8.23446 553.194 8.69296 556.811 7.65883 559.857C6.78631 562.43 5.03184 564.078 2.71791 564.498C2.52255 564.533 2.33747 564.559 2.1609 564.584C1.09818 564.734 -0.106563 564.905 -0.849859 566.803C-1.2301 567.773 -1.29938 568.746 -1.36738 569.687C-1.43762 570.659 -1.49766 571.498 -1.8806 572.233C-4.31015 576.89 -11.4021 577.072 -15.6619 575.714C-22.019 573.687 -27.4447 568.384 -29.4851 562.204C-30.6542 558.662 -31.2528 553.095 -29.0921 549.061C-27.611 546.296 -24.5418 541.799 -20.6197 542.737L-20.6178 542.737C-20.0717 542.869 -19.5343 542.461 -19.4208 541.829C-19.3617 541.504 -19.4268 541.182 -19.5775 540.928C-19.6721 539.806 -19.1759 535.463 -19.0083 534.715C-16.8994 525.917 -8.61104 521.323 -1.55784 519.959C6.46387 518.409 15.1688 522.333 20.612 529.96C21.2987 530.923 21.9334 531.947 22.498 533.001C24.3228 536.409 25.3714 540.151 25.53 543.822C25.6793 547.282 24.8075 549.845 23.798 552.813C23.5888 553.428 23.3751 554.057 23.1639 554.712C23.0493 555.019 22.9506 555.336 22.8687 555.66C22.7144 556.269 23.0079 556.909 23.5305 557.102C24.0508 557.297 24.6141 556.974 24.7956 556.376C24.8781 556.105 24.9617 555.839 25.0462 555.575C25.6492 554 26.836 552.77 28.5832 551.912C32.5613 549.959 38.3407 550.528 41.2402 552.286C46.3528 555.385 50.4056 562.04 50.876 568.109C51.0592 570.467 50.3276 571.747 49.316 573.518C48.9098 574.228 48.4903 574.963 48.0944 575.836C48.093 575.837 48.0926 575.839 48.0916 575.841C47.8318 576.413 48.0231 577.12 48.5184 577.42C48.8796 577.638 49.3028 577.581 49.6061 577.31C50.4072 577.303 52.8832 578.299 53.4036 578.646C58.998 582.379 63.1771 589.859 63.3397 596.433C63.4535 601.042 61.6402 604.901 58.0961 607.593C54.8477 610.06 50.9726 611.432 47.1856 611.456C45.5448 611.466 43.9406 611.111 42.2434 610.735C39.9526 610.228 37.5847 609.706 35.1103 610.148C31.3705 610.818 27.9116 612.572 24.5665 614.267C21.3915 615.877 18.1088 617.541 14.669 618.206C12.6389 618.6 5.67784 619.554 1.40423 615.325C-4.62113 609.361 -5.83149 598.437 -1.2389 591.468C1.82911 586.811 6.72354 583.532 11.8541 582.693C15.7241 582.059 19.5494 583.067 22.0801 585.387C25.2092 588.255 25.8876 593.336 23.5925 596.712C22.8797 597.761 21.9298 598.561 20.9181 598.965C18.8668 599.784 16.4044 599.086 14.4263 598.526C13.8879 598.372 13.3352 598.755 13.2013 599.383C13.0679 600.011 13.4002 600.645 13.9434 600.799C16.1796 601.433 18.9648 602.221 21.5789 601.177C22.9745 600.62 24.221 599.576 25.1849 598.157C28.1661 593.771 27.3379 587.22 23.3392 583.554C20.3826 580.844 15.9852 579.653 11.571 580.376C5.92423 581.299 0.532766 584.916 -2.85103 590.052C-6.61056 595.757 -7.04397 603.504 -4.51988 609.977C-8.99601 608.695 -14.6011 611.34 -17.1813 614.506C-21.3692 619.643 -26.026 624.685 -32.8159 624.995C-32.8785 624.998 -32.9416 625.001 -33.0037 625.002C-37.7092 625.128 -41.6169 621.841 -45.3977 618.662C-45.7616 618.355 -46.1245 618.051 -46.4869 617.749C-49.0336 615.632 -54.5123 612.429 -58.8946 613.861C-60.8605 614.503 -62.3382 616.054 -63.1679 618.344C-63.3836 618.94 -63.1409 619.625 -62.6248 619.874C-62.1087 620.124 -61.5156 619.843 -61.2999 619.246C-60.7005 617.591 -59.7341 616.566 -58.3441 616.112C-56.455 615.496 -53.9336 616.053 -51.5721 617.17C-51.5737 617.257 -51.5686 617.346 -51.5522 617.435C-51.2925 618.844 -54.0172 621.269 -55.9815 622.215C-58.2335 623.3 -61.0833 623.699 -64.0082 623.34C-67.92 622.858 -72.2549 620.541 -73.0262 615.518C-72.6758 615.349 -72.3286 615.169 -71.9883 614.97C-68.7628 613.078 -66.3556 609.927 -65.3831 606.325C-64.5416 603.21 -64.8273 600.007 -66.2083 597.062C-67.3673 594.592 -69.336 593.048 -71.6103 592.827C-73.7152 592.623 -75.7366 593.559 -76.8994 595.269C-77.245 595.778 -77.1684 596.513 -76.7287 596.913C-76.2884 597.312 -75.6527 597.223 -75.3066 596.715C-74.5711 595.633 -73.1852 595.017 -71.7812 595.159C-70.8514 595.249 -69.1225 595.763 -67.9888 598.178C-66.8743 600.555 -66.6412 603.131 -67.3153 605.629C-68.1258 608.631 -70.1627 611.275 -72.9035 612.883C-77.0075 615.291 -82.0737 615.223 -86.802 612.696C-89.5655 611.22 -91.7465 608.674 -94.0553 605.98C-95.4941 604.301 -96.9815 602.565 -98.6169 601.126C-100.325 599.623 -102.961 597.619 -106.123 597.577C-109.209 597.524 -111.53 599.433 -113.783 601.269C-115.922 603.013 -117.938 604.66 -120.455 604.498C-121.1 604.459 -121.745 604.296 -122.415 604.104Z"/>
</mask>
<path d="M-122.415 604.104C-119.765 602.747 -118.332 600.683 -117.422 599.056C-116.802 597.945 -116.396 596.758 -116.004 595.609C-115.275 593.475 -114.646 591.632 -112.824 590.731C-109.461 589.066 -105.036 590.358 -102.109 591.214C-97.3843 592.592 -93.5774 591.787 -91.2416 588.965C-90.8694 589.48 -90.4841 589.98 -90.101 590.472C-88.6329 592.358 -87.2472 594.14 -86.9825 596.535C-86.9432 596.894 -87.0304 597.263 -87.187 597.392C-87.6419 597.767 -87.7478 598.497 -87.4228 599.023C-87.2203 599.351 -86.8985 599.522 -86.5749 599.513C-86.3785 599.508 -86.1819 599.437 -86.01 599.295C-85.2336 598.655 -84.8364 597.484 -84.9733 596.238C-85.3176 593.117 -86.9838 590.977 -88.5946 588.906C-89.8079 587.346 -90.9546 585.873 -91.488 584.06C-92.2501 581.47 -91.7215 578.522 -90.0373 575.972C-86.8309 571.114 -79.9887 568.133 -74.9148 571.435C-73.8028 572.159 -72.2737 573.48 -71.4633 574.893C-69.635 579.206 -66.4782 581.522 -62.3116 581.589C-61.9526 581.594 -61.5541 581.533 -61.1708 581.473C-60.7704 581.411 -60.0322 581.296 -59.8154 581.414C-59.8203 581.427 -59.8036 581.503 -59.8026 581.652C-59.7979 582.474 -59.8358 583.308 -59.8718 584.114C-59.9951 586.839 -60.1228 589.657 -58.6575 592.424C-54.7304 599.836 -46.5952 602.613 -40.8215 602.739C-40.5433 602.745 -40.2604 602.744 -39.9762 602.736C-32.9356 602.549 -24.3116 598.199 -20.7884 589.901C-20.542 589.321 -20.7489 588.619 -21.2509 588.335C-21.7516 588.052 -22.3597 588.29 -22.6061 588.871C-25.8998 596.626 -34.2405 600.534 -40.7833 600.399C-46.0454 600.285 -53.4314 597.807 -56.9308 591.201C-58.0683 589.054 -57.9672 586.821 -57.8501 584.235C-57.8119 583.395 -57.7729 582.527 -57.7775 581.636C-57.7823 580.781 -58.0194 580.112 -58.4833 579.647C-59.3044 578.822 -60.4899 579.006 -61.4407 579.155C-61.7639 579.205 -62.072 579.249 -62.2823 579.249C-65.5843 579.196 -68.0057 577.466 -69.508 574.144C-69.5309 574.063 -69.56 573.982 -69.6 573.905C-69.6375 573.833 -69.6792 573.764 -69.7185 573.693C-69.725 573.677 -69.7334 573.663 -69.7403 573.646C-72.4568 566.923 -70.8045 556.67 -67.5138 551.995C-64.4826 547.69 -57.9794 544.295 -53.1331 546.107C-51.3189 546.784 -49.8821 545.349 -48.7288 544.195C-48.3871 543.853 -48.0645 543.529 -47.7626 543.288C-45.5894 541.544 -42.1583 540.967 -39.0277 541.817C-36.6627 542.459 -33.3947 544.174 -31.2326 548.69C-33.1804 553.073 -32.7468 558.454 -31.5766 562.396C-31.5898 562.499 -31.5958 562.605 -31.5841 562.713C-31.0543 567.576 -34.5058 573.307 -38.9707 574.978C-43.4427 576.652 -49.7389 574.974 -51.6278 569.891C-52.3523 567.939 -52.3622 565.855 -51.6564 563.861C-50.7238 561.227 -48.6412 558.932 -46.0854 557.72C-44.7981 557.11 -42.2112 556.451 -40.7487 557.278C-40.2846 557.541 -40.006 557.924 -39.8717 558.484C-39.7548 558.973 -39.8031 559.419 -40.0197 559.849C-40.4223 560.647 -41.3898 561.368 -42.4848 561.687C-43.0276 561.845 -43.357 562.481 -43.2208 563.108C-43.0847 563.734 -42.5337 564.115 -41.9919 563.957C-40.7199 563.587 -39.074 562.623 -38.2693 561.026C-37.7781 560.051 -37.6571 558.955 -37.9196 557.859C-38.207 556.659 -38.8764 555.732 -39.8561 555.176C-42.09 553.911 -45.4097 554.871 -46.8526 555.555C-49.9003 556.999 -52.3965 559.773 -53.5301 562.976C-54.4465 565.564 -54.4315 568.274 -53.4885 570.815C-51.6687 575.713 -46.8422 578.07 -42.2435 577.947C-40.8975 577.912 -39.5719 577.663 -38.3462 577.205C-34.1753 575.644 -30.8419 571.257 -29.83 566.584C-26.96 571.859 -21.9216 576.146 -16.2021 577.97C-11.661 579.417 -3.28954 579.467 -0.146248 573.441C0.481492 572.238 0.571895 570.985 0.651405 569.88C0.707422 569.103 0.760476 568.368 0.996019 567.766C1.26096 567.09 1.44944 567.043 2.40611 566.907C2.60397 566.879 2.81181 566.85 3.03129 566.81C6.04099 566.263 8.41462 564.04 9.54433 560.711C10.8356 556.906 10.2621 552.385 8.08222 549.193C5.78303 545.825 1.8997 544.029 -2.30169 544.393C-6.3657 544.744 -9.85232 547.095 -11.6282 550.683C-11.9054 551.244 -11.7372 551.959 -11.252 552.279C-10.7668 552.599 -10.1478 552.405 -9.86967 551.843C-8.42894 548.932 -5.54373 547.019 -2.15169 546.726C1.3295 546.429 4.6393 547.927 6.49236 550.642C8.23446 553.194 8.69296 556.811 7.65883 559.857C6.78631 562.43 5.03184 564.078 2.71791 564.498C2.52255 564.533 2.33747 564.559 2.1609 564.584C1.09818 564.734 -0.106563 564.905 -0.849859 566.803C-1.2301 567.773 -1.29938 568.746 -1.36738 569.687C-1.43762 570.659 -1.49766 571.498 -1.8806 572.233C-4.31015 576.89 -11.4021 577.072 -15.6619 575.714C-22.019 573.687 -27.4447 568.384 -29.4851 562.204C-30.6542 558.662 -31.2528 553.095 -29.0921 549.061C-27.611 546.296 -24.5418 541.799 -20.6197 542.737L-20.6178 542.737C-20.0717 542.869 -19.5343 542.461 -19.4208 541.829C-19.3617 541.504 -19.4268 541.182 -19.5775 540.928C-19.6721 539.806 -19.1759 535.463 -19.0083 534.715C-16.8994 525.917 -8.61104 521.323 -1.55784 519.959C6.46387 518.409 15.1688 522.333 20.612 529.96C21.2987 530.923 21.9334 531.947 22.498 533.001C24.3228 536.409 25.3714 540.151 25.53 543.822C25.6793 547.282 24.8075 549.845 23.798 552.813C23.5888 553.428 23.3751 554.057 23.1639 554.712C23.0493 555.019 22.9506 555.336 22.8687 555.66C22.7144 556.269 23.0079 556.909 23.5305 557.102C24.0508 557.297 24.6141 556.974 24.7956 556.376C24.8781 556.105 24.9617 555.839 25.0462 555.575C25.6492 554 26.836 552.77 28.5832 551.912C32.5613 549.959 38.3407 550.528 41.2402 552.286C46.3528 555.385 50.4056 562.04 50.876 568.109C51.0592 570.467 50.3276 571.747 49.316 573.518C48.9098 574.228 48.4903 574.963 48.0944 575.836C48.093 575.837 48.0926 575.839 48.0916 575.841C47.8318 576.413 48.0231 577.12 48.5184 577.42C48.8796 577.638 49.3028 577.581 49.6061 577.31C50.4072 577.303 52.8832 578.299 53.4036 578.646C58.998 582.379 63.1771 589.859 63.3397 596.433C63.4535 601.042 61.6402 604.901 58.0961 607.593C54.8477 610.06 50.9726 611.432 47.1856 611.456C45.5448 611.466 43.9406 611.111 42.2434 610.735C39.9526 610.228 37.5847 609.706 35.1103 610.148C31.3705 610.818 27.9116 612.572 24.5665 614.267C21.3915 615.877 18.1088 617.541 14.669 618.206C12.6389 618.6 5.67784 619.554 1.40423 615.325C-4.62113 609.361 -5.83149 598.437 -1.2389 591.468C1.82911 586.811 6.72354 583.532 11.8541 582.693C15.7241 582.059 19.5494 583.067 22.0801 585.387C25.2092 588.255 25.8876 593.336 23.5925 596.712C22.8797 597.761 21.9298 598.561 20.9181 598.965C18.8668 599.784 16.4044 599.086 14.4263 598.526C13.8879 598.372 13.3352 598.755 13.2013 599.383C13.0679 600.011 13.4002 600.645 13.9434 600.799C16.1796 601.433 18.9648 602.221 21.5789 601.177C22.9745 600.62 24.221 599.576 25.1849 598.157C28.1661 593.771 27.3379 587.22 23.3392 583.554C20.3826 580.844 15.9852 579.653 11.571 580.376C5.92423 581.299 0.532766 584.916 -2.85103 590.052C-6.61056 595.757 -7.04397 603.504 -4.51988 609.977C-8.99601 608.695 -14.6011 611.34 -17.1813 614.506C-21.3692 619.643 -26.026 624.685 -32.8159 624.995C-32.8785 624.998 -32.9416 625.001 -33.0037 625.002C-37.7092 625.128 -41.6169 621.841 -45.3977 618.662C-45.7616 618.355 -46.1245 618.051 -46.4869 617.749C-49.0336 615.632 -54.5123 612.429 -58.8946 613.861C-60.8605 614.503 -62.3382 616.054 -63.1679 618.344C-63.3836 618.94 -63.1409 619.625 -62.6248 619.874C-62.1087 620.124 -61.5156 619.843 -61.2999 619.246C-60.7005 617.591 -59.7341 616.566 -58.3441 616.112C-56.455 615.496 -53.9336 616.053 -51.5721 617.17C-51.5737 617.257 -51.5686 617.346 -51.5522 617.435C-51.2925 618.844 -54.0172 621.269 -55.9815 622.215C-58.2335 623.3 -61.0833 623.699 -64.0082 623.34C-67.92 622.858 -72.2549 620.541 -73.0262 615.518C-72.6758 615.349 -72.3286 615.169 -71.9883 614.97C-68.7628 613.078 -66.3556 609.927 -65.3831 606.325C-64.5416 603.21 -64.8273 600.007 -66.2083 597.062C-67.3673 594.592 -69.336 593.048 -71.6103 592.827C-73.7152 592.623 -75.7366 593.559 -76.8994 595.269C-77.245 595.778 -77.1684 596.513 -76.7287 596.913C-76.2884 597.312 -75.6527 597.223 -75.3066 596.715C-74.5711 595.633 -73.1852 595.017 -71.7812 595.159C-70.8514 595.249 -69.1225 595.763 -67.9888 598.178C-66.8743 600.555 -66.6412 603.131 -67.3153 605.629C-68.1258 608.631 -70.1627 611.275 -72.9035 612.883C-77.0075 615.291 -82.0737 615.223 -86.802 612.696C-89.5655 611.22 -91.7465 608.674 -94.0553 605.98C-95.4941 604.301 -96.9815 602.565 -98.6169 601.126C-100.325 599.623 -102.961 597.619 -106.123 597.577C-109.209 597.524 -111.53 599.433 -113.783 601.269C-115.922 603.013 -117.938 604.66 -120.455 604.498C-121.1 604.459 -121.745 604.296 -122.415 604.104Z" fill="white"/>
<path d="M-122.415 604.104C-119.765 602.747 -118.332 600.683 -117.422 599.056C-116.802 597.945 -116.396 596.758 -116.004 595.609C-115.275 593.475 -114.646 591.632 -112.824 590.731C-109.461 589.066 -105.036 590.358 -102.109 591.214C-97.3843 592.592 -93.5774 591.787 -91.2416 588.965C-90.8694 589.48 -90.4841 589.98 -90.101 590.472C-88.6329 592.358 -87.2472 594.14 -86.9825 596.535C-86.9432 596.894 -87.0304 597.263 -87.187 597.392C-87.6419 597.767 -87.7478 598.497 -87.4228 599.023C-87.2203 599.351 -86.8985 599.522 -86.5749 599.513C-86.3785 599.508 -86.1819 599.437 -86.01 599.295C-85.2336 598.655 -84.8364 597.484 -84.9733 596.238C-85.3176 593.117 -86.9838 590.977 -88.5946 588.906C-89.8079 587.346 -90.9546 585.873 -91.488 584.06C-92.2501 581.47 -91.7215 578.522 -90.0373 575.972C-86.8309 571.114 -79.9887 568.133 -74.9148 571.435C-73.8028 572.159 -72.2737 573.48 -71.4633 574.893C-69.635 579.206 -66.4782 581.522 -62.3116 581.589C-61.9526 581.594 -61.5541 581.533 -61.1708 581.473C-60.7704 581.411 -60.0322 581.296 -59.8154 581.414C-59.8203 581.427 -59.8036 581.503 -59.8026 581.652C-59.7979 582.474 -59.8358 583.308 -59.8718 584.114C-59.9951 586.839 -60.1228 589.657 -58.6575 592.424C-54.7304 599.836 -46.5952 602.613 -40.8215 602.739C-40.5433 602.745 -40.2604 602.744 -39.9762 602.736C-32.9356 602.549 -24.3116 598.199 -20.7884 589.901C-20.542 589.321 -20.7489 588.619 -21.2509 588.335C-21.7516 588.052 -22.3597 588.29 -22.6061 588.871C-25.8998 596.626 -34.2405 600.534 -40.7833 600.399C-46.0454 600.285 -53.4314 597.807 -56.9308 591.201C-58.0683 589.054 -57.9672 586.821 -57.8501 584.235C-57.8119 583.395 -57.7729 582.527 -57.7775 581.636C-57.7823 580.781 -58.0194 580.112 -58.4833 579.647C-59.3044 578.822 -60.4899 579.006 -61.4407 579.155C-61.7639 579.205 -62.072 579.249 -62.2823 579.249C-65.5843 579.196 -68.0057 577.466 -69.508 574.144C-69.5309 574.063 -69.56 573.982 -69.6 573.905C-69.6375 573.833 -69.6792 573.764 -69.7185 573.693C-69.725 573.677 -69.7334 573.663 -69.7403 573.646C-72.4568 566.923 -70.8045 556.67 -67.5138 551.995C-64.4826 547.69 -57.9794 544.295 -53.1331 546.107C-51.3189 546.784 -49.8821 545.349 -48.7288 544.195C-48.3871 543.853 -48.0645 543.529 -47.7626 543.288C-45.5894 541.544 -42.1583 540.967 -39.0277 541.817C-36.6627 542.459 -33.3947 544.174 -31.2326 548.69C-33.1804 553.073 -32.7468 558.454 -31.5766 562.396C-31.5898 562.499 -31.5958 562.605 -31.5841 562.713C-31.0543 567.576 -34.5058 573.307 -38.9707 574.978C-43.4427 576.652 -49.7389 574.974 -51.6278 569.891C-52.3523 567.939 -52.3622 565.855 -51.6564 563.861C-50.7238 561.227 -48.6412 558.932 -46.0854 557.72C-44.7981 557.11 -42.2112 556.451 -40.7487 557.278C-40.2846 557.541 -40.006 557.924 -39.8717 558.484C-39.7548 558.973 -39.8031 559.419 -40.0197 559.849C-40.4223 560.647 -41.3898 561.368 -42.4848 561.687C-43.0276 561.845 -43.357 562.481 -43.2208 563.108C-43.0847 563.734 -42.5337 564.115 -41.9919 563.957C-40.7199 563.587 -39.074 562.623 -38.2693 561.026C-37.7781 560.051 -37.6571 558.955 -37.9196 557.859C-38.207 556.659 -38.8764 555.732 -39.8561 555.176C-42.09 553.911 -45.4097 554.871 -46.8526 555.555C-49.9003 556.999 -52.3965 559.773 -53.5301 562.976C-54.4465 565.564 -54.4315 568.274 -53.4885 570.815C-51.6687 575.713 -46.8422 578.07 -42.2435 577.947C-40.8975 577.912 -39.5719 577.663 -38.3462 577.205C-34.1753 575.644 -30.8419 571.257 -29.83 566.584C-26.96 571.859 -21.9216 576.146 -16.2021 577.97C-11.661 579.417 -3.28954 579.467 -0.146248 573.441C0.481492 572.238 0.571895 570.985 0.651405 569.88C0.707422 569.103 0.760476 568.368 0.996019 567.766C1.26096 567.09 1.44944 567.043 2.40611 566.907C2.60397 566.879 2.81181 566.85 3.03129 566.81C6.04099 566.263 8.41462 564.04 9.54433 560.711C10.8356 556.906 10.2621 552.385 8.08222 549.193C5.78303 545.825 1.8997 544.029 -2.30169 544.393C-6.3657 544.744 -9.85232 547.095 -11.6282 550.683C-11.9054 551.244 -11.7372 551.959 -11.252 552.279C-10.7668 552.599 -10.1478 552.405 -9.86967 551.843C-8.42894 548.932 -5.54373 547.019 -2.15169 546.726C1.3295 546.429 4.6393 547.927 6.49236 550.642C8.23446 553.194 8.69296 556.811 7.65883 559.857C6.78631 562.43 5.03184 564.078 2.71791 564.498C2.52255 564.533 2.33747 564.559 2.1609 564.584C1.09818 564.734 -0.106563 564.905 -0.849859 566.803C-1.2301 567.773 -1.29938 568.746 -1.36738 569.687C-1.43762 570.659 -1.49766 571.498 -1.8806 572.233C-4.31015 576.89 -11.4021 577.072 -15.6619 575.714C-22.019 573.687 -27.4447 568.384 -29.4851 562.204C-30.6542 558.662 -31.2528 553.095 -29.0921 549.061C-27.611 546.296 -24.5418 541.799 -20.6197 542.737L-20.6178 542.737C-20.0717 542.869 -19.5343 542.461 -19.4208 541.829C-19.3617 541.504 -19.4268 541.182 -19.5775 540.928C-19.6721 539.806 -19.1759 535.463 -19.0083 534.715C-16.8994 525.917 -8.61104 521.323 -1.55784 519.959C6.46387 518.409 15.1688 522.333 20.612 529.96C21.2987 530.923 21.9334 531.947 22.498 533.001C24.3228 536.409 25.3714 540.151 25.53 543.822C25.6793 547.282 24.8075 549.845 23.798 552.813C23.5888 553.428 23.3751 554.057 23.1639 554.712C23.0493 555.019 22.9506 555.336 22.8687 555.66C22.7144 556.269 23.0079 556.909 23.5305 557.102C24.0508 557.297 24.6141 556.974 24.7956 556.376C24.8781 556.105 24.9617 555.839 25.0462 555.575C25.6492 554 26.836 552.77 28.5832 551.912C32.5613 549.959 38.3407 550.528 41.2402 552.286C46.3528 555.385 50.4056 562.04 50.876 568.109C51.0592 570.467 50.3276 571.747 49.316 573.518C48.9098 574.228 48.4903 574.963 48.0944 575.836C48.093 575.837 48.0926 575.839 48.0916 575.841C47.8318 576.413 48.0231 577.12 48.5184 577.42C48.8796 577.638 49.3028 577.581 49.6061 577.31C50.4072 577.303 52.8832 578.299 53.4036 578.646C58.998 582.379 63.1771 589.859 63.3397 596.433C63.4535 601.042 61.6402 604.901 58.0961 607.593C54.8477 610.06 50.9726 611.432 47.1856 611.456C45.5448 611.466 43.9406 611.111 42.2434 610.735C39.9526 610.228 37.5847 609.706 35.1103 610.148C31.3705 610.818 27.9116 612.572 24.5665 614.267C21.3915 615.877 18.1088 617.541 14.669 618.206C12.6389 618.6 5.67784 619.554 1.40423 615.325C-4.62113 609.361 -5.83149 598.437 -1.2389 591.468C1.82911 586.811 6.72354 583.532 11.8541 582.693C15.7241 582.059 19.5494 583.067 22.0801 585.387C25.2092 588.255 25.8876 593.336 23.5925 596.712C22.8797 597.761 21.9298 598.561 20.9181 598.965C18.8668 599.784 16.4044 599.086 14.4263 598.526C13.8879 598.372 13.3352 598.755 13.2013 599.383C13.0679 600.011 13.4002 600.645 13.9434 600.799C16.1796 601.433 18.9648 602.221 21.5789 601.177C22.9745 600.62 24.221 599.576 25.1849 598.157C28.1661 593.771 27.3379 587.22 23.3392 583.554C20.3826 580.844 15.9852 579.653 11.571 580.376C5.92423 581.299 0.532766 584.916 -2.85103 590.052C-6.61056 595.757 -7.04397 603.504 -4.51988 609.977C-8.99601 608.695 -14.6011 611.34 -17.1813 614.506C-21.3692 619.643 -26.026 624.685 -32.8159 624.995C-32.8785 624.998 -32.9416 625.001 -33.0037 625.002C-37.7092 625.128 -41.6169 621.841 -45.3977 618.662C-45.7616 618.355 -46.1245 618.051 -46.4869 617.749C-49.0336 615.632 -54.5123 612.429 -58.8946 613.861C-60.8605 614.503 -62.3382 616.054 -63.1679 618.344C-63.3836 618.94 -63.1409 619.625 -62.6248 619.874C-62.1087 620.124 -61.5156 619.843 -61.2999 619.246C-60.7005 617.591 -59.7341 616.566 -58.3441 616.112C-56.455 615.496 -53.9336 616.053 -51.5721 617.17C-51.5737 617.257 -51.5686 617.346 -51.5522 617.435C-51.2925 618.844 -54.0172 621.269 -55.9815 622.215C-58.2335 623.3 -61.0833 623.699 -64.0082 623.34C-67.92 622.858 -72.2549 620.541 -73.0262 615.518C-72.6758 615.349 -72.3286 615.169 -71.9883 614.97C-68.7628 613.078 -66.3556 609.927 -65.3831 606.325C-64.5416 603.21 -64.8273 600.007 -66.2083 597.062C-67.3673 594.592 -69.336 593.048 -71.6103 592.827C-73.7152 592.623 -75.7366 593.559 -76.8994 595.269C-77.245 595.778 -77.1684 596.513 -76.7287 596.913C-76.2884 597.312 -75.6527 597.223 -75.3066 596.715C-74.5711 595.633 -73.1852 595.017 -71.7812 595.159C-70.8514 595.249 -69.1225 595.763 -67.9888 598.178C-66.8743 600.555 -66.6412 603.131 -67.3153 605.629C-68.1258 608.631 -70.1627 611.275 -72.9035 612.883C-77.0075 615.291 -82.0737 615.223 -86.802 612.696C-89.5655 611.22 -91.7465 608.674 -94.0553 605.98C-95.4941 604.301 -96.9815 602.565 -98.6169 601.126C-100.325 599.623 -102.961 597.619 -106.123 597.577C-109.209 597.524 -111.53 599.433 -113.783 601.269C-115.922 603.013 -117.938 604.66 -120.455 604.498C-121.1 604.459 -121.745 604.296 -122.415 604.104Z" stroke="#ECE1D6" stroke-width="6" mask="url(#path-1-outside-1_0_1)"/>
<mask id="path-2-outside-2_0_1" maskUnits="userSpaceOnUse" x="-66.7532" y="616.724" width="176.041" height="112.632" fill="black">
<rect fill="white" x="-66.7532" y="616.724" width="176.041" height="112.632"/>
<path d="M-56.2563 675.348C-58.7434 674.326 -61.4216 674.67 -64.0314 675.069C-63.1224 674.653 -62.2464 674.187 -61.3883 673.731C-61.0114 673.53 -60.6345 673.33 -60.2564 673.135C-56.9086 671.406 -53.6178 669.954 -50.1819 671.124C-46.1548 672.495 -42.5546 675.94 -39.8683 678.787C-39.7702 678.891 -39.6919 679.015 -39.6104 679.134C-39.4504 679.369 -39.2506 679.661 -38.9719 679.921C-33.9362 684.626 -23.9707 689.528 -17.1704 683.758C-14.9591 681.882 -13.3963 679.355 -12.1048 677.134C-8.20155 670.417 -3.54236 664.524 4.0383 666.845C4.21837 666.9 4.40465 666.99 4.62029 667.094C4.86978 667.215 5.11993 667.333 5.38654 667.425C5.4937 667.463 5.63402 667.519 5.79138 667.581C6.759 667.964 7.49809 668.224 8.12277 668.112C8.54373 668.036 8.89573 667.727 9.04839 667.302C9.53435 665.948 8.40011 664.915 7.79044 664.36C7.69184 664.27 7.60191 664.192 7.54132 664.125C7.16491 663.709 6.7553 663.385 6.35807 663.072C5.89835 662.709 5.46408 662.365 5.20906 661.96C2.48937 657.64 2.33949 653.308 4.77514 649.434C8.52439 643.471 17.795 639.77 25.0211 641.356C28.5349 642.126 32.962 644.436 34.0938 651.06L34.926 655.93C35.0433 656.624 35.6578 657.087 36.315 656.958C36.9644 656.832 37.4005 656.171 37.2901 655.475C36.628 651.303 35.8775 646.575 37.1136 642.365C37.9012 639.684 39.562 637.005 42.1915 634.176C51.6473 624.001 66.1812 619.517 79.2099 622.753C85.3372 624.276 90.3941 627.609 95.1241 633.245C98.1688 636.872 101.845 641.777 103.258 647.557C105.311 655.953 102.207 665.617 95.5332 671.604C89.2876 677.207 80.358 679.468 71.6479 677.651C69.1681 677.134 66.922 676.314 64.9543 675.24C63.8485 674.27 62.6214 673.384 61.2691 672.613C60.9927 672.356 60.7169 672.099 60.4623 671.826C54.8166 665.792 55.4344 655.924 59.244 650.243C62.6098 645.224 67.7166 644.012 73.2553 646.915C74.9804 647.819 77.0196 649.801 77.4203 652.016C77.6288 653.172 77.3417 654.201 76.5402 655.161C76.0978 655.691 76.1402 656.502 76.634 656.973C77.1271 657.443 77.8853 657.395 78.329 656.865C79.6272 655.309 80.1282 653.46 79.7777 651.519C79.2196 648.43 76.6342 645.823 74.319 644.61C67.718 641.152 61.3537 642.7 57.295 648.753C53.509 654.399 52.4941 663.654 56.4989 670.572C52.7529 669.44 48.3381 669.098 43.2328 669.937C37.9528 670.804 30.9558 674.365 28.6126 681.546C26.0975 689.251 30.5602 697.139 36.0375 700.648C39.6484 702.961 44.6731 703.394 48.2577 701.705C50.9893 700.416 52.7529 698.08 53.3575 694.948C54.2969 690.079 51.5112 685.168 47.275 684.224C44.9372 683.703 42.7609 684.118 41.4524 685.334C40.756 685.981 39.9521 687.179 40.076 689.21C40.1528 690.468 40.8555 691.696 41.9085 692.417C42.8783 693.081 44.0023 693.231 44.9944 692.827C45.6149 692.575 45.929 691.833 45.6947 691.171C45.4612 690.509 44.7675 690.178 44.1485 690.429C43.7597 690.588 43.3623 690.36 43.2092 690.254C42.7886 689.967 42.4993 689.487 42.4709 689.032C42.4226 688.235 42.6029 687.658 43.0229 687.268C43.7446 686.597 45.2152 686.388 46.7748 686.737C50.054 687.467 51.6094 691.31 51.0059 694.44C50.56 696.752 49.3116 698.406 47.2956 699.357C44.3819 700.732 40.2606 700.357 37.2781 698.445C32.6102 695.454 28.7812 688.808 30.8788 682.382C32.8693 676.282 38.9683 673.232 43.5868 672.473C50.3559 671.362 55.7822 672.486 59.9254 674.783C61.0042 675.75 62.227 676.601 63.5542 677.353C65.9402 679.476 67.6716 682.028 68.7621 684.621C72.1453 692.661 70.3921 703.855 65.1779 711.869C65.0741 711.909 64.9723 711.958 64.8783 712.03C64.5622 712.271 64.3924 712.645 64.3777 713.029C63.0942 714.806 61.6328 716.399 60.0086 717.724C52.9753 723.461 41.2297 725.064 33.8212 721.298C28.6317 718.659 24.2562 713.718 21.3944 707.302C22.7056 706.833 23.889 706.192 24.9062 705.391C27.4301 703.403 28.9679 700.305 28.919 697.307C28.9078 696.598 28.3603 696.036 27.6976 696.052C27.6962 696.052 27.6954 696.052 27.6936 696.052C27.0325 696.069 26.5069 696.655 26.5181 697.363C26.5535 699.541 25.3925 701.827 23.4867 703.328C21.8051 704.653 19.5164 705.448 16.8689 705.628C11.1815 706.02 5.86092 703.595 0.0937575 698.018C-0.397223 697.544 -1.15622 697.586 -1.60192 698.113C-2.04763 698.639 -2.01157 699.451 -1.52059 699.925C4.41586 705.665 10.2324 708.387 16.2337 708.226C16.4925 708.219 16.7515 708.207 17.0108 708.19C17.667 708.145 18.3022 708.06 18.9217 707.949C19.8725 712.16 15.9453 716.377 13.3012 718.305C8.94704 721.478 2.84565 722.154 -2.62301 720.067C-7.67347 718.141 -12.1068 713.503 -15.1267 707.003C-13.3441 704.757 -12.6442 701.792 -12.9772 699.253C-13.406 695.977 -15.693 692.481 -20.8221 692.494C-21.4475 692.495 -23.6446 692.656 -25.3091 694.653C-26.6789 696.297 -27.2154 698.609 -26.9038 701.525C-26.8282 702.229 -26.2195 702.731 -25.5755 702.649C-24.9164 702.565 -24.4434 701.927 -24.519 701.223C-24.7496 699.065 -24.4132 697.428 -23.5199 696.356C-22.7252 695.404 -21.5945 695.065 -20.8267 695.06C-16.4283 695.049 -15.5344 698.245 -15.3544 699.619C-14.9561 702.658 -16.6569 706.461 -20.1932 707.565C-24.7959 709.001 -32.1918 707.448 -35.4455 702.921C-36.2098 701.858 -36.1007 700.991 -35.9355 699.678C-35.8022 698.617 -35.6503 697.414 -36.0185 696.021C-36.9176 692.611 -39.8157 692.859 -41.5413 693.006C-42.1057 693.055 -42.6277 693.068 -43.2325 693.122C-43.6579 693.16 -44.1417 693.204 -44.4066 693.127C-46.8086 692.43 -47.4522 689.979 -48.1591 686.32C-48.3443 685.36 -48.5192 684.453 -48.7587 683.597C-49.8444 679.72 -52.3675 676.945 -56.2563 675.348Z"/>
</mask>
<path d="M-56.2563 675.348C-58.7434 674.326 -61.4216 674.67 -64.0314 675.069C-63.1224 674.653 -62.2464 674.187 -61.3883 673.731C-61.0114 673.53 -60.6345 673.33 -60.2564 673.135C-56.9086 671.406 -53.6178 669.954 -50.1819 671.124C-46.1548 672.495 -42.5546 675.94 -39.8683 678.787C-39.7702 678.891 -39.6919 679.015 -39.6104 679.134C-39.4504 679.369 -39.2506 679.661 -38.9719 679.921C-33.9362 684.626 -23.9707 689.528 -17.1704 683.758C-14.9591 681.882 -13.3963 679.355 -12.1048 677.134C-8.20155 670.417 -3.54236 664.524 4.0383 666.845C4.21837 666.9 4.40465 666.99 4.62029 667.094C4.86978 667.215 5.11993 667.333 5.38654 667.425C5.4937 667.463 5.63402 667.519 5.79138 667.581C6.759 667.964 7.49809 668.224 8.12277 668.112C8.54373 668.036 8.89573 667.727 9.04839 667.302C9.53435 665.948 8.40011 664.915 7.79044 664.36C7.69184 664.27 7.60191 664.192 7.54132 664.125C7.16491 663.709 6.7553 663.385 6.35807 663.072C5.89835 662.709 5.46408 662.365 5.20906 661.96C2.48937 657.64 2.33949 653.308 4.77514 649.434C8.52439 643.471 17.795 639.77 25.0211 641.356C28.5349 642.126 32.962 644.436 34.0938 651.06L34.926 655.93C35.0433 656.624 35.6578 657.087 36.315 656.958C36.9644 656.832 37.4005 656.171 37.2901 655.475C36.628 651.303 35.8775 646.575 37.1136 642.365C37.9012 639.684 39.562 637.005 42.1915 634.176C51.6473 624.001 66.1812 619.517 79.2099 622.753C85.3372 624.276 90.3941 627.609 95.1241 633.245C98.1688 636.872 101.845 641.777 103.258 647.557C105.311 655.953 102.207 665.617 95.5332 671.604C89.2876 677.207 80.358 679.468 71.6479 677.651C69.1681 677.134 66.922 676.314 64.9543 675.24C63.8485 674.27 62.6214 673.384 61.2691 672.613C60.9927 672.356 60.7169 672.099 60.4623 671.826C54.8166 665.792 55.4344 655.924 59.244 650.243C62.6098 645.224 67.7166 644.012 73.2553 646.915C74.9804 647.819 77.0196 649.801 77.4203 652.016C77.6288 653.172 77.3417 654.201 76.5402 655.161C76.0978 655.691 76.1402 656.502 76.634 656.973C77.1271 657.443 77.8853 657.395 78.329 656.865C79.6272 655.309 80.1282 653.46 79.7777 651.519C79.2196 648.43 76.6342 645.823 74.319 644.61C67.718 641.152 61.3537 642.7 57.295 648.753C53.509 654.399 52.4941 663.654 56.4989 670.572C52.7529 669.44 48.3381 669.098 43.2328 669.937C37.9528 670.804 30.9558 674.365 28.6126 681.546C26.0975 689.251 30.5602 697.139 36.0375 700.648C39.6484 702.961 44.6731 703.394 48.2577 701.705C50.9893 700.416 52.7529 698.08 53.3575 694.948C54.2969 690.079 51.5112 685.168 47.275 684.224C44.9372 683.703 42.7609 684.118 41.4524 685.334C40.756 685.981 39.9521 687.179 40.076 689.21C40.1528 690.468 40.8555 691.696 41.9085 692.417C42.8783 693.081 44.0023 693.231 44.9944 692.827C45.6149 692.575 45.929 691.833 45.6947 691.171C45.4612 690.509 44.7675 690.178 44.1485 690.429C43.7597 690.588 43.3623 690.36 43.2092 690.254C42.7886 689.967 42.4993 689.487 42.4709 689.032C42.4226 688.235 42.6029 687.658 43.0229 687.268C43.7446 686.597 45.2152 686.388 46.7748 686.737C50.054 687.467 51.6094 691.31 51.0059 694.44C50.56 696.752 49.3116 698.406 47.2956 699.357C44.3819 700.732 40.2606 700.357 37.2781 698.445C32.6102 695.454 28.7812 688.808 30.8788 682.382C32.8693 676.282 38.9683 673.232 43.5868 672.473C50.3559 671.362 55.7822 672.486 59.9254 674.783C61.0042 675.75 62.227 676.601 63.5542 677.353C65.9402 679.476 67.6716 682.028 68.7621 684.621C72.1453 692.661 70.3921 703.855 65.1779 711.869C65.0741 711.909 64.9723 711.958 64.8783 712.03C64.5622 712.271 64.3924 712.645 64.3777 713.029C63.0942 714.806 61.6328 716.399 60.0086 717.724C52.9753 723.461 41.2297 725.064 33.8212 721.298C28.6317 718.659 24.2562 713.718 21.3944 707.302C22.7056 706.833 23.889 706.192 24.9062 705.391C27.4301 703.403 28.9679 700.305 28.919 697.307C28.9078 696.598 28.3603 696.036 27.6976 696.052C27.6962 696.052 27.6954 696.052 27.6936 696.052C27.0325 696.069 26.5069 696.655 26.5181 697.363C26.5535 699.541 25.3925 701.827 23.4867 703.328C21.8051 704.653 19.5164 705.448 16.8689 705.628C11.1815 706.02 5.86092 703.595 0.0937575 698.018C-0.397223 697.544 -1.15622 697.586 -1.60192 698.113C-2.04763 698.639 -2.01157 699.451 -1.52059 699.925C4.41586 705.665 10.2324 708.387 16.2337 708.226C16.4925 708.219 16.7515 708.207 17.0108 708.19C17.667 708.145 18.3022 708.06 18.9217 707.949C19.8725 712.16 15.9453 716.377 13.3012 718.305C8.94704 721.478 2.84565 722.154 -2.62301 720.067C-7.67347 718.141 -12.1068 713.503 -15.1267 707.003C-13.3441 704.757 -12.6442 701.792 -12.9772 699.253C-13.406 695.977 -15.693 692.481 -20.8221 692.494C-21.4475 692.495 -23.6446 692.656 -25.3091 694.653C-26.6789 696.297 -27.2154 698.609 -26.9038 701.525C-26.8282 702.229 -26.2195 702.731 -25.5755 702.649C-24.9164 702.565 -24.4434 701.927 -24.519 701.223C-24.7496 699.065 -24.4132 697.428 -23.5199 696.356C-22.7252 695.404 -21.5945 695.065 -20.8267 695.06C-16.4283 695.049 -15.5344 698.245 -15.3544 699.619C-14.9561 702.658 -16.6569 706.461 -20.1932 707.565C-24.7959 709.001 -32.1918 707.448 -35.4455 702.921C-36.2098 701.858 -36.1007 700.991 -35.9355 699.678C-35.8022 698.617 -35.6503 697.414 -36.0185 696.021C-36.9176 692.611 -39.8157 692.859 -41.5413 693.006C-42.1057 693.055 -42.6277 693.068 -43.2325 693.122C-43.6579 693.16 -44.1417 693.204 -44.4066 693.127C-46.8086 692.43 -47.4522 689.979 -48.1591 686.32C-48.3443 685.36 -48.5192 684.453 -48.7587 683.597C-49.8444 679.72 -52.3675 676.945 -56.2563 675.348Z" fill="white"/>
<path d="M-56.2563 675.348C-58.7434 674.326 -61.4216 674.67 -64.0314 675.069C-63.1224 674.653 -62.2464 674.187 -61.3883 673.731C-61.0114 673.53 -60.6345 673.33 -60.2564 673.135C-56.9086 671.406 -53.6178 669.954 -50.1819 671.124C-46.1548 672.495 -42.5546 675.94 -39.8683 678.787C-39.7702 678.891 -39.6919 679.015 -39.6104 679.134C-39.4504 679.369 -39.2506 679.661 -38.9719 679.921C-33.9362 684.626 -23.9707 689.528 -17.1704 683.758C-14.9591 681.882 -13.3963 679.355 -12.1048 677.134C-8.20155 670.417 -3.54236 664.524 4.0383 666.845C4.21837 666.9 4.40465 666.99 4.62029 667.094C4.86978 667.215 5.11993 667.333 5.38654 667.425C5.4937 667.463 5.63402 667.519 5.79138 667.581C6.759 667.964 7.49809 668.224 8.12277 668.112C8.54373 668.036 8.89573 667.727 9.04839 667.302C9.53435 665.948 8.40011 664.915 7.79044 664.36C7.69184 664.27 7.60191 664.192 7.54132 664.125C7.16491 663.709 6.7553 663.385 6.35807 663.072C5.89835 662.709 5.46408 662.365 5.20906 661.96C2.48937 657.64 2.33949 653.308 4.77514 649.434C8.52439 643.471 17.795 639.77 25.0211 641.356C28.5349 642.126 32.962 644.436 34.0938 651.06L34.926 655.93C35.0433 656.624 35.6578 657.087 36.315 656.958C36.9644 656.832 37.4005 656.171 37.2901 655.475C36.628 651.303 35.8775 646.575 37.1136 642.365C37.9012 639.684 39.562 637.005 42.1915 634.176C51.6473 624.001 66.1812 619.517 79.2099 622.753C85.3372 624.276 90.3941 627.609 95.1241 633.245C98.1688 636.872 101.845 641.777 103.258 647.557C105.311 655.953 102.207 665.617 95.5332 671.604C89.2876 677.207 80.358 679.468 71.6479 677.651C69.1681 677.134 66.922 676.314 64.9543 675.24C63.8485 674.27 62.6214 673.384 61.2691 672.613C60.9927 672.356 60.7169 672.099 60.4623 671.826C54.8166 665.792 55.4344 655.924 59.244 650.243C62.6098 645.224 67.7166 644.012 73.2553 646.915C74.9804 647.819 77.0196 649.801 77.4203 652.016C77.6288 653.172 77.3417 654.201 76.5402 655.161C76.0978 655.691 76.1402 656.502 76.634 656.973C77.1271 657.443 77.8853 657.395 78.329 656.865C79.6272 655.309 80.1282 653.46 79.7777 651.519C79.2196 648.43 76.6342 645.823 74.319 644.61C67.718 641.152 61.3537 642.7 57.295 648.753C53.509 654.399 52.4941 663.654 56.4989 670.572C52.7529 669.44 48.3381 669.098 43.2328 669.937C37.9528 670.804 30.9558 674.365 28.6126 681.546C26.0975 689.251 30.5602 697.139 36.0375 700.648C39.6484 702.961 44.6731 703.394 48.2577 701.705C50.9893 700.416 52.7529 698.08 53.3575 694.948C54.2969 690.079 51.5112 685.168 47.275 684.224C44.9372 683.703 42.7609 684.118 41.4524 685.334C40.756 685.981 39.9521 687.179 40.076 689.21C40.1528 690.468 40.8555 691.696 41.9085 692.417C42.8783 693.081 44.0023 693.231 44.9944 692.827C45.6149 692.575 45.929 691.833 45.6947 691.171C45.4612 690.509 44.7675 690.178 44.1485 690.429C43.7597 690.588 43.3623 690.36 43.2092 690.254C42.7886 689.967 42.4993 689.487 42.4709 689.032C42.4226 688.235 42.6029 687.658 43.0229 687.268C43.7446 686.597 45.2152 686.388 46.7748 686.737C50.054 687.467 51.6094 691.31 51.0059 694.44C50.56 696.752 49.3116 698.406 47.2956 699.357C44.3819 700.732 40.2606 700.357 37.2781 698.445C32.6102 695.454 28.7812 688.808 30.8788 682.382C32.8693 676.282 38.9683 673.232 43.5868 672.473C50.3559 671.362 55.7822 672.486 59.9254 674.783C61.0042 675.75 62.227 676.601 63.5542 677.353C65.9402 679.476 67.6716 682.028 68.7621 684.621C72.1453 692.661 70.3921 703.855 65.1779 711.869C65.0741 711.909 64.9723 711.958 64.8783 712.03C64.5622 712.271 64.3924 712.645 64.3777 713.029C63.0942 714.806 61.6328 716.399 60.0086 717.724C52.9753 723.461 41.2297 725.064 33.8212 721.298C28.6317 718.659 24.2562 713.718 21.3944 707.302C22.7056 706.833 23.889 706.192 24.9062 705.391C27.4301 703.403 28.9679 700.305 28.919 697.307C28.9078 696.598 28.3603 696.036 27.6976 696.052C27.6962 696.052 27.6954 696.052 27.6936 696.052C27.0325 696.069 26.5069 696.655 26.5181 697.363C26.5535 699.541 25.3925 701.827 23.4867 703.328C21.8051 704.653 19.5164 705.448 16.8689 705.628C11.1815 706.02 5.86092 703.595 0.0937575 698.018C-0.397223 697.544 -1.15622 697.586 -1.60192 698.113C-2.04763 698.639 -2.01157 699.451 -1.52059 699.925C4.41586 705.665 10.2324 708.387 16.2337 708.226C16.4925 708.219 16.7515 708.207 17.0108 708.19C17.667 708.145 18.3022 708.06 18.9217 707.949C19.8725 712.16 15.9453 716.377 13.3012 718.305C8.94704 721.478 2.84565 722.154 -2.62301 720.067C-7.67347 718.141 -12.1068 713.503 -15.1267 707.003C-13.3441 704.757 -12.6442 701.792 -12.9772 699.253C-13.406 695.977 -15.693 692.481 -20.8221 692.494C-21.4475 692.495 -23.6446 692.656 -25.3091 694.653C-26.6789 696.297 -27.2154 698.609 -26.9038 701.525C-26.8282 702.229 -26.2195 702.731 -25.5755 702.649C-24.9164 702.565 -24.4434 701.927 -24.519 701.223C-24.7496 699.065 -24.4132 697.428 -23.5199 696.356C-22.7252 695.404 -21.5945 695.065 -20.8267 695.06C-16.4283 695.049 -15.5344 698.245 -15.3544 699.619C-14.9561 702.658 -16.6569 706.461 -20.1932 707.565C-24.7959 709.001 -32.1918 707.448 -35.4455 702.921C-36.2098 701.858 -36.1007 700.991 -35.9355 699.678C-35.8022 698.617 -35.6503 697.414 -36.0185 696.021C-36.9176 692.611 -39.8157 692.859 -41.5413 693.006C-42.1057 693.055 -42.6277 693.068 -43.2325 693.122C-43.6579 693.16 -44.1417 693.204 -44.4066 693.127C-46.8086 692.43 -47.4522 689.979 -48.1591 686.32C-48.3443 685.36 -48.5192 684.453 -48.7587 683.597C-49.8444 679.72 -52.3675 676.945 -56.2563 675.348Z" stroke="#ECE1D8" stroke-width="6" mask="url(#path-2-outside-2_0_1)"/>
<path d="M103.489 660.97C102.083 665.45 99.516 669.594 96.012 672.737C89.5975 678.49 80.4154 680.855 71.4341 678.982L71.4331 678.982C70.6566 678.82 69.9 678.617 69.1399 678.39L65.0726 677.176L67.4606 680.679C68.29 681.896 68.9734 683.16 69.5076 684.43C73.0431 692.829 71.3736 704.332 65.9006 712.718L65.3268 713.598L65.9496 714.434C68.1298 717.36 71.084 719.877 74.4127 721.039C77.808 722.225 81.5547 721.974 85.024 719.394L85.613 718.943C86.1964 718.484 86.7576 718.005 87.2416 717.559C87.8491 716.998 88.4481 716.385 88.769 715.89L88.9766 715.571C89.1999 715.836 89.4223 716.099 89.6426 716.363L89.6426 716.364C91.8631 719.025 94.0147 721.641 97.7627 723.165C101.281 724.596 105.41 724.939 109.123 724.113C114.92 722.823 118.057 719.703 121.996 715.832C122.491 715.346 122.994 714.852 123.516 714.347L123.882 713.985C124.742 713.119 125.652 712.09 126.565 711.059C127.238 710.3 127.938 709.512 128.674 708.719L127.101 706.795C127.155 706.762 127.208 706.73 127.262 706.697C132.122 703.7 136.622 700.989 141.507 701.135L141.55 701.137L141.592 701.135C142.337 701.116 143.101 701.163 143.892 701.296L144.096 701.49L144.454 701.588C145.043 701.751 145.611 701.935 146.178 702.175C148.433 703.132 150.514 704.504 152.654 705.921C156.415 708.411 160.455 711.139 165.599 710.881L166.1 710.846C169.07 710.587 171.32 709.454 173.101 707.584C174.827 705.771 176.046 703.334 177.137 700.586L177.504 699.678C177.898 698.727 178.383 697.663 179.016 696.667C179.864 695.335 180.888 694.272 182.153 693.754L186.249 692.077L181.998 690.918C181.92 690.897 181.847 690.877 181.777 690.857L181.773 690.856C180.536 690.508 179.349 690.413 177.887 690.498L177.885 690.498C176.822 690.561 175.904 691.001 175.197 691.325C175.034 691.4 174.88 691.47 174.73 691.537L174.289 691.722L174.288 691.723C173.329 692.103 172.49 692.528 171.741 692.907C169.81 693.883 168.287 694.641 165.819 694.5C164.061 694.4 162.485 694.234 161.098 693.535C158.049 691.999 156.154 689.203 154.092 686.098C152.53 683.747 150.89 681.249 148.546 679.495L148.545 679.495C143.05 675.386 135.237 675.449 129.892 679.684L129.768 679.782C129.397 677.628 128.691 675.536 127.77 673.603C126.094 670.088 123.666 666.996 121.085 664.898C116.99 661.567 111.236 659.869 104.921 659.91L103.82 659.918L103.489 660.97Z" fill="white" stroke="#ECE1D8" stroke-width="3"/>
<path d="M-38.1787 331.5C-46.8027 331.5 -53.7354 338.727 -53.7354 347.512C-53.7354 347.664 -53.7295 347.817 -53.7246 347.974C-53.7569 347.973 -53.7891 347.973 -53.8213 347.973C-59.1721 347.973 -63.4414 352.451 -63.4414 357.856C-63.4414 359.56 -63.0122 361.224 -62.1973 362.705C-64.9598 365.697 -66.5005 369.479 -66.5 373.426L-66.4941 373.865C-66.2339 383.056 -57.8374 390.192 -47.9043 390.192C-43.0996 390.192 -38.5686 388.563 -35.0811 385.56L-34.8955 385.4C-34.5578 385.637 -34.215 385.865 -33.8652 386.079L-33.8008 386.118L-33.7334 386.15C-29.9426 387.981 -25.6897 388.937 -21.3115 388.938C-15.9248 388.938 -10.7955 387.514 -6.43164 384.794C-3.50066 389.388 2.23819 391.503 10.1592 391.652C18.5437 391.81 29.8208 389.791 44.0352 385.688C48.2063 384.485 52.0473 384.008 55.5234 384.008C64.164 384.008 70.6143 386.96 74.2188 389.158L76.1855 386.959C69.0805 377.789 60.1506 372.352 49.5547 370.833L49.5283 370.829L49.502 370.826C48.303 370.698 45.289 370.434 41.1514 370.496C41.4287 369.341 41.5781 368.152 41.5781 366.945C41.5781 358.777 35.1315 352.052 27.1045 352.052L26.6582 352.062L26.6172 352.064C26.5539 352.068 26.4908 352.075 26.4277 352.08L26.3945 351.973C23.0054 340.742 9.8195 333.069 -4.89941 333.069C-12.3074 333.069 -19.5005 335.011 -25.2598 338.597C-28.1259 334.21 -32.991 331.5 -38.1787 331.5Z" fill="white" stroke="#ECE1D8" stroke-width="3"/>
<path d="M31.0615 75.9951C24.9271 81.3842 15.5061 82.5933 8.5676 78.7647L8.56858 78.7647C7.476 78.162 6.48517 78.4256 5.16974 78.8437L5.16777 78.8446C4.77028 78.9706 4.30551 79.1198 3.83257 79.2185L3.83159 79.2185C1.90041 79.6195 -0.298687 79.6754 -2.6855 79.4118L-2.68451 79.4108C-8.82181 78.7401 -14.197 75.5115 -18.2083 71.2413C-22.214 66.9769 -24.9501 61.5812 -25.7481 56.4043L-25.9736 54.9383C-26.1554 54.877 -26.3338 54.8142 -26.5068 54.7452C-29.8961 53.3933 -32.0789 50.2366 -33.3039 46.7493C-34.5372 43.2381 -34.8933 39.1537 -34.4611 35.5118C-33.1069 24.0967 -25.4709 13.966 -13.749 7.61667L-13.7499 7.61567C-1.17479 0.803571 13.7041 -0.372434 25.2812 4.67814L25.8299 4.9234C29.764 6.7231 33.3561 9.25077 36.7022 11.5991C39.6972 13.7015 42.697 15.8034 45.9308 17.4658C51.584 20.3726 58.1047 21.1725 63.7873 19.7086C65.2945 19.3203 66.7641 18.8159 68.2461 18.3061C72.7424 16.7599 77.2665 15.1423 82.4353 17.5196L82.4354 17.5186C84.5346 18.4836 87.214 20.6156 88.7078 22.8893L91.2301 26.728L86.9327 25.1131C85.5711 24.6014 83.9738 24.4017 82.3176 24.5911C78.3037 25.051 74.985 27.141 71.4587 29.3929L71.4587 29.3939C69.4039 30.7056 67.3392 32.028 65.0858 32.9854C58.6386 35.7247 52.3711 34.0893 48.3722 32.3342L48.3712 32.3342C48.2481 32.28 48.1363 32.2239 48.0569 32.1837L47.8665 32.089L47.7271 32.025L47.628 31.9522C47.6232 31.9505 47.6187 31.9484 47.6145 31.9469L47.564 31.93L47.4806 31.9006L47.4004 31.8624C44.7725 30.5946 42.3779 29.0114 39.9635 27.3897L38.8007 26.6113C37.6355 25.8353 36.4606 25.0712 35.2617 24.3657L34.7028 24.044C22.9559 17.4285 11.216 20.0169 5.26732 25.0621C-1.39652 30.7155 -4.17665 40.9204 -1.3198 48.7755C-0.534282 47.1304 0.779809 45.6898 2.72319 44.6811C5.56408 43.2067 8.23415 43.6376 10.7185 44.0003L10.7185 44.0013C11.1402 44.0628 11.5529 44.1226 11.9709 44.1772C12.9959 44.3099 13.7267 43.9167 14.5833 43.3107L14.9601 43.0388C15.3293 42.7684 15.7874 42.428 16.2832 42.1655L16.2842 42.1655C19.9792 40.2112 24.491 40.6149 28.1465 43.037L28.497 43.2783C32.4109 46.0527 34.7292 51.3344 34.4786 56.2973L34.7276 55.6393L35.9389 60.1007C37.5627 66.0841 35.8364 71.8008 31.0615 75.9951ZM-25.7297 45.7932L-25.7307 45.7931L-25.7307 45.7922L-25.7332 45.7716L-25.7341 45.7716L-25.5539 46.9219L-25.7297 45.7932Z" fill="white" stroke="#ECE1D6" stroke-width="3"/>
<path d="M-2.50433 47.0763C-4.43291 39.2134 -1.49813 29.914 4.86246 24.5171C11.1869 19.1514 23.1891 16.7823 34.9879 23.4327L35.5496 23.7564C36.7167 24.443 37.8647 25.1878 38.9722 25.9236L37.7258 28.6111C34.4641 27.6455 31.2378 26.9475 28.0051 26.8667C25.3313 26.7995 22.6492 27.149 19.9384 28.1147C15.0554 29.8545 11.3253 32.9675 9.79006 36.2523C8.84645 38.271 8.68073 40.3371 9.28512 42.4661L9.85589 44.4752L7.77173 44.3684C6.17379 44.2863 4.61928 44.464 2.98356 45.3134L2.53695 45.5602C1.52846 46.1525 0.744998 46.8643 0.139673 47.6464L-1.76128 50.1036L-2.50433 47.0763Z" fill="white" stroke="#ECE1D6" stroke-width="3"/>
</svg>
