<svg width="194" height="577" viewBox="0 0 194 577" fill="none" xmlns="http://www.w3.org/2000/svg">
<path d="M63.8154 485.007C69.9379 478.448 79.4895 476.877 86.5439 481.615C87.5435 482.286 88.41 482.017 89.7436 481.499L89.7455 481.499C90.1404 481.346 90.6168 481.158 91.1045 481.034L91.1065 481.034C93.0751 480.533 95.3102 480.462 97.7249 480.784L97.7239 480.785C103.958 481.608 109.348 485.586 113.325 490.745C117.308 495.913 119.995 502.412 120.773 508.594L121.026 510.606C121.228 510.688 121.426 510.773 121.617 510.866L121.616 510.866C125.032 512.523 127.16 516.335 128.347 520.462C129.554 524.658 129.903 529.548 129.475 533.908C128.135 547.594 120.599 559.894 108.84 567.668C96.0258 576.14 80.7564 577.54 69.0077 571C65.5554 569.078 62.3699 566.478 59.3875 563.944L58.1213 562.863C55.1233 560.3 52.1246 557.742 48.8942 555.721C43.2689 552.201 36.8213 551.257 31.2124 553.025L31.2115 553.025C29.7125 553.497 28.2488 554.111 26.7637 554.735C22.4324 556.555 17.9323 558.53 12.8557 555.966L12.3622 555.703C10.2367 554.514 7.58073 551.92 6.12192 549.213L4.01702 545.306L8.05025 547.15C9.37686 547.756 10.9254 547.99 12.533 547.764L12.9023 547.705C16.6942 547.048 19.8947 544.595 23.336 541.914C25.3908 540.313 27.4612 538.695 29.725 537.52C36.0639 534.231 42.2416 536.03 46.2752 538.097L46.6594 538.297L46.6603 538.298C46.7874 538.366 46.9021 538.437 46.9813 538.486L47.1678 538.598L47.3138 538.68L47.409 538.765C47.4289 538.773 47.4411 538.779 47.4526 538.784L47.5476 538.824L47.6356 538.875C50.2715 540.422 52.6705 542.354 55.0838 544.328L55.0828 544.328C56.6305 545.593 58.1868 546.864 59.7848 548.009L59.7858 548.009C71.6306 556.491 83.5342 553.374 89.591 547.11C96.3071 540.161 99.2017 527.534 96.3134 517.707C95.5551 519.583 94.2899 521.263 92.3809 522.472C89.4776 524.312 86.7159 523.773 84.2281 523.333L84.2281 523.334C83.8049 523.259 83.3939 523.186 82.9778 523.121L82.9778 523.12C81.9402 522.958 81.2102 523.527 80.131 524.492L80.131 524.493C79.7625 524.822 79.3048 525.235 78.8073 525.557L78.8063 525.558C75.0279 527.997 70.3955 527.472 66.7123 524.503L66.3591 524.208C64.0967 522.255 62.428 519.33 61.46 516.163C60.7232 513.753 60.3708 511.132 60.4966 508.573L60.2388 509.398L59.0158 503.892C57.4498 496.84 59.0925 490.065 63.8154 485.007Z" fill="white" stroke="#ECE1D6" stroke-width="3"/>
<path d="M97.4851 520.06C99.3601 529.406 96.5048 540.561 90.1914 547.093C83.7584 553.749 71.3315 556.694 59.2582 548.043C58.0895 547.206 56.9407 546.298 55.8329 545.402L57.2604 542.828C60.5163 543.999 63.7172 544.837 66.9127 544.931C69.5506 545.008 72.2005 544.585 74.8896 543.415C79.7249 541.31 83.5233 537.508 85.1176 533.355C86.1079 530.776 86.2872 528.109 85.6525 525.376L85.2015 523.432L87.1878 523.554C88.7372 523.649 90.2465 523.443 91.8607 522.42L92.087 522.272C93.2002 521.522 94.0715 520.586 94.7463 519.524L96.7456 516.375L97.4851 520.06Z" fill="white" stroke="#ECE1D6" stroke-width="3"/>
<mask id="path-3-outside-1_0_1" maskUnits="userSpaceOnUse" x="91.9236" y="404.833" width="213.27" height="125.599" fill="black">
<rect fill="white" x="91.9236" y="404.833" width="213.27" height="125.599"/>
<path d="M294.854 501.275C292.011 499.819 290.474 497.605 289.497 495.858C288.832 494.666 288.397 493.393 287.976 492.16C287.194 489.871 286.518 487.893 284.563 486.926C280.955 485.14 276.207 486.526 273.066 487.444C267.997 488.922 263.912 488.059 261.406 485.031C261.007 485.583 260.593 486.12 260.182 486.648C258.607 488.672 257.12 490.584 256.836 493.153C256.794 493.539 256.888 493.935 257.056 494.073C257.544 494.476 257.657 495.259 257.309 495.824C257.091 496.175 256.746 496.358 256.399 496.349C256.188 496.343 255.977 496.267 255.793 496.115C254.96 495.429 254.534 494.171 254.68 492.835C255.05 489.487 256.838 487.19 258.566 484.968C259.868 483.294 261.098 481.714 261.671 479.768C262.488 476.99 261.921 473.827 260.114 471.09C256.674 465.877 249.332 462.679 243.888 466.222C242.695 466.999 241.054 468.416 240.185 469.933C238.223 474.56 234.836 477.045 230.365 477.117C229.98 477.122 229.552 477.057 229.141 476.993C228.712 476.926 227.919 476.803 227.687 476.929C227.692 476.943 227.674 477.025 227.673 477.185C227.668 478.067 227.709 478.961 227.747 479.826C227.88 482.75 228.017 485.773 226.444 488.742C222.231 496.696 213.502 499.675 207.307 499.81C207.008 499.817 206.705 499.815 206.4 499.807C198.846 499.607 189.592 494.939 185.812 486.035C185.548 485.413 185.77 484.66 186.308 484.355C186.845 484.051 187.498 484.307 187.762 484.93C191.296 493.251 200.246 497.444 207.266 497.299C212.912 497.177 220.837 494.518 224.592 487.431C225.812 485.126 225.704 482.73 225.578 479.956C225.537 479.055 225.495 478.123 225.5 477.168C225.505 476.25 225.76 475.532 226.257 475.034C227.139 474.148 228.411 474.345 229.431 474.505C229.777 474.559 230.108 474.607 230.334 474.606C233.877 474.549 236.475 472.693 238.087 469.128C238.111 469.041 238.143 468.955 238.185 468.873C238.226 468.795 238.27 468.721 238.313 468.645C238.32 468.627 238.328 468.613 238.336 468.595C241.251 461.381 239.478 450.38 235.947 445.364C232.695 440.744 225.717 437.101 220.517 439.046C218.57 439.772 217.029 438.232 215.791 436.994C215.425 436.627 215.078 436.28 214.754 436.021C212.423 434.15 208.741 433.531 205.382 434.443C202.845 435.132 199.338 436.972 197.018 441.818C199.108 446.52 198.643 452.293 197.387 456.523C197.402 456.634 197.408 456.747 197.396 456.864C196.827 462.081 200.53 468.23 205.321 470.024C210.119 471.819 216.875 470.02 218.902 464.565C219.679 462.471 219.69 460.235 218.932 458.095C217.932 455.269 215.697 452.806 212.955 451.506C211.574 450.852 208.798 450.144 207.229 451.032C206.731 451.314 206.432 451.725 206.288 452.326C206.162 452.851 206.214 453.329 206.447 453.791C206.879 454.647 207.917 455.421 209.092 455.763C209.674 455.932 210.027 456.615 209.881 457.287C209.735 457.959 209.144 458.368 208.563 458.198C207.198 457.801 205.432 456.767 204.569 455.054C204.041 454.007 203.912 452.832 204.193 451.656C204.502 450.368 205.22 449.373 206.271 448.777C208.668 447.42 212.23 448.449 213.778 449.183C217.048 450.733 219.727 453.709 220.943 457.146C221.926 459.923 221.91 462.83 220.898 465.556C218.946 470.813 213.767 473.341 208.833 473.21C207.388 473.171 205.966 472.905 204.651 472.413C200.176 470.738 196.599 466.031 195.513 461.018C192.434 466.677 187.028 471.277 180.891 473.234C176.019 474.786 167.036 474.84 163.664 468.375C162.99 467.083 162.893 465.739 162.808 464.553C162.748 463.719 162.691 462.932 162.438 462.286C162.154 461.56 161.951 461.509 160.925 461.364C160.713 461.333 160.49 461.302 160.254 461.259C157.025 460.673 154.478 458.288 153.266 454.716C151.88 450.633 152.496 445.782 154.835 442.357C157.302 438.743 161.468 436.816 165.976 437.207C170.337 437.583 174.078 440.106 175.983 443.955C176.281 444.557 176.1 445.324 175.58 445.668C175.059 446.011 174.395 445.803 174.097 445.2C172.551 442.077 169.455 440.024 165.815 439.71C162.08 439.391 158.529 440.998 156.541 443.912C154.671 446.65 154.179 450.531 155.289 453.8C156.225 456.559 158.108 458.328 160.59 458.778C160.8 458.816 160.999 458.845 161.188 458.871C162.328 459.033 163.621 459.216 164.419 461.252C164.827 462.293 164.901 463.337 164.974 464.346C165.049 465.389 165.114 466.29 165.525 467.078C168.131 472.075 175.741 472.27 180.311 470.813C187.132 468.638 192.954 462.948 195.143 456.317C196.398 452.517 197.04 446.543 194.722 442.216C193.132 439.249 189.839 434.423 185.631 435.43L185.629 435.43C185.043 435.572 184.466 435.134 184.345 434.456C184.281 434.107 184.351 433.761 184.513 433.489C184.614 432.285 184.082 427.626 183.902 426.822C181.639 417.382 172.746 412.453 165.178 410.99C156.571 409.326 147.231 413.538 141.391 421.721C140.654 422.754 139.973 423.852 139.367 424.984C137.409 428.64 136.284 432.656 136.114 436.595C135.954 440.306 136.889 443.056 137.972 446.241C138.197 446.901 138.426 447.576 138.653 448.279C138.775 448.609 138.881 448.948 138.969 449.296C139.135 449.949 138.82 450.636 138.259 450.843C137.701 451.052 137.097 450.706 136.902 450.064C136.813 449.774 136.724 449.488 136.633 449.205C135.986 447.515 134.712 446.195 132.838 445.275C128.569 443.179 122.368 443.79 119.257 445.676C113.771 449.001 109.423 456.141 108.918 462.654C108.722 465.183 109.507 466.557 110.592 468.457C111.028 469.219 111.478 470.008 111.903 470.944C111.904 470.946 111.905 470.947 111.906 470.949C112.185 471.563 111.979 472.322 111.448 472.644C111.06 472.878 110.606 472.816 110.281 472.526C109.421 472.518 106.765 473.587 106.206 473.959C100.204 477.964 95.7196 485.991 95.5451 493.044C95.423 497.989 97.3686 502.13 101.171 505.019C104.657 507.666 108.815 509.138 112.878 509.163C114.638 509.174 116.36 508.793 118.181 508.39C120.639 507.846 123.179 507.285 125.834 507.76C129.847 508.479 133.558 510.36 137.148 512.18C140.554 513.907 144.076 515.692 147.767 516.406C149.946 516.829 157.415 517.853 162 513.315C168.465 506.916 169.764 495.194 164.836 487.716C161.544 482.721 156.293 479.201 150.788 478.301C146.635 477.622 142.531 478.703 139.815 481.192C136.458 484.269 135.73 489.721 138.193 493.344C138.957 494.469 139.977 495.327 141.062 495.761C143.263 496.639 145.905 495.891 148.028 495.29C148.605 495.125 149.198 495.536 149.342 496.21C149.485 496.883 149.129 497.563 148.546 497.729C146.146 498.408 143.158 499.255 140.353 498.135C138.856 497.536 137.518 496.416 136.484 494.894C133.285 490.187 134.174 483.159 138.464 479.225C141.637 476.317 146.355 475.04 151.091 475.815C157.15 476.806 162.935 480.687 166.566 486.197C170.6 492.318 171.065 500.631 168.356 507.576C173.159 506.2 179.173 509.039 181.942 512.435C186.435 517.948 191.432 523.357 198.717 523.69C198.784 523.694 198.852 523.696 198.919 523.698C203.967 523.833 208.16 520.306 212.217 516.895C212.607 516.566 212.997 516.239 213.386 515.916C216.118 513.644 221.997 510.208 226.699 511.743C228.808 512.433 230.394 514.097 231.284 516.554C231.515 517.194 231.255 517.929 230.701 518.196C230.147 518.464 229.511 518.162 229.28 517.522C228.636 515.746 227.6 514.646 226.108 514.159C224.081 513.498 221.376 514.096 218.842 515.294C218.844 515.388 218.838 515.483 218.821 515.578C218.542 517.091 221.466 519.692 223.573 520.708C225.989 521.872 229.047 522.3 232.186 521.915C236.383 521.398 241.034 518.912 241.862 513.522C241.486 513.34 241.113 513.148 240.748 512.934C237.287 510.903 234.704 507.523 233.661 503.658C232.758 500.316 233.064 496.879 234.546 493.719C235.79 491.069 237.902 489.413 240.342 489.175C242.601 488.956 244.77 489.96 246.017 491.796C246.388 492.341 246.306 493.13 245.834 493.559C245.362 493.987 244.68 493.892 244.308 493.346C243.519 492.185 242.032 491.525 240.526 491.677C239.528 491.774 237.673 492.325 236.457 494.917C235.261 497.466 235.011 500.231 235.734 502.911C236.604 506.133 238.789 508.97 241.73 510.694C246.133 513.278 251.569 513.206 256.643 510.494C259.608 508.91 261.948 506.178 264.425 503.288C265.969 501.486 267.565 499.624 269.32 498.08C271.152 496.467 273.981 494.317 277.374 494.272C280.685 494.215 283.175 496.264 285.592 498.233C287.887 500.104 290.051 501.871 292.751 501.698C293.443 501.655 294.135 501.481 294.854 501.275Z"/>
</mask>
<path d="M294.854 501.275C292.011 499.819 290.474 497.605 289.497 495.858C288.832 494.666 288.397 493.393 287.976 492.16C287.194 489.871 286.518 487.893 284.563 486.926C280.955 485.14 276.207 486.526 273.066 487.444C267.997 488.922 263.912 488.059 261.406 485.031C261.007 485.583 260.593 486.12 260.182 486.648C258.607 488.672 257.12 490.584 256.836 493.153C256.794 493.539 256.888 493.935 257.056 494.073C257.544 494.476 257.657 495.259 257.309 495.824C257.091 496.175 256.746 496.358 256.399 496.349C256.188 496.343 255.977 496.267 255.793 496.115C254.96 495.429 254.534 494.171 254.68 492.835C255.05 489.487 256.838 487.19 258.566 484.968C259.868 483.294 261.098 481.714 261.671 479.768C262.488 476.99 261.921 473.827 260.114 471.09C256.674 465.877 249.332 462.679 243.888 466.222C242.695 466.999 241.054 468.416 240.185 469.933C238.223 474.56 234.836 477.045 230.365 477.117C229.98 477.122 229.552 477.057 229.141 476.993C228.712 476.926 227.919 476.803 227.687 476.929C227.692 476.943 227.674 477.025 227.673 477.185C227.668 478.067 227.709 478.961 227.747 479.826C227.88 482.75 228.017 485.773 226.444 488.742C222.231 496.696 213.502 499.675 207.307 499.81C207.008 499.817 206.705 499.815 206.4 499.807C198.846 499.607 189.592 494.939 185.812 486.035C185.548 485.413 185.77 484.66 186.308 484.355C186.845 484.051 187.498 484.307 187.762 484.93C191.296 493.251 200.246 497.444 207.266 497.299C212.912 497.177 220.837 494.518 224.592 487.431C225.812 485.126 225.704 482.73 225.578 479.956C225.537 479.055 225.495 478.123 225.5 477.168C225.505 476.25 225.76 475.532 226.257 475.034C227.139 474.148 228.411 474.345 229.431 474.505C229.777 474.559 230.108 474.607 230.334 474.606C233.877 474.549 236.475 472.693 238.087 469.128C238.111 469.041 238.143 468.955 238.185 468.873C238.226 468.795 238.27 468.721 238.313 468.645C238.32 468.627 238.328 468.613 238.336 468.595C241.251 461.381 239.478 450.38 235.947 445.364C232.695 440.744 225.717 437.101 220.517 439.046C218.57 439.772 217.029 438.232 215.791 436.994C215.425 436.627 215.078 436.28 214.754 436.021C212.423 434.15 208.741 433.531 205.382 434.443C202.845 435.132 199.338 436.972 197.018 441.818C199.108 446.52 198.643 452.293 197.387 456.523C197.402 456.634 197.408 456.747 197.396 456.864C196.827 462.081 200.53 468.23 205.321 470.024C210.119 471.819 216.875 470.02 218.902 464.565C219.679 462.471 219.69 460.235 218.932 458.095C217.932 455.269 215.697 452.806 212.955 451.506C211.574 450.852 208.798 450.144 207.229 451.032C206.731 451.314 206.432 451.725 206.288 452.326C206.162 452.851 206.214 453.329 206.447 453.791C206.879 454.647 207.917 455.421 209.092 455.763C209.674 455.932 210.027 456.615 209.881 457.287C209.735 457.959 209.144 458.368 208.563 458.198C207.198 457.801 205.432 456.767 204.569 455.054C204.041 454.007 203.912 452.832 204.193 451.656C204.502 450.368 205.22 449.373 206.271 448.777C208.668 447.42 212.23 448.449 213.778 449.183C217.048 450.733 219.727 453.709 220.943 457.146C221.926 459.923 221.91 462.83 220.898 465.556C218.946 470.813 213.767 473.341 208.833 473.21C207.388 473.171 205.966 472.905 204.651 472.413C200.176 470.738 196.599 466.031 195.513 461.018C192.434 466.677 187.028 471.277 180.891 473.234C176.019 474.786 167.036 474.84 163.664 468.375C162.99 467.083 162.893 465.739 162.808 464.553C162.748 463.719 162.691 462.932 162.438 462.286C162.154 461.56 161.951 461.509 160.925 461.364C160.713 461.333 160.49 461.302 160.254 461.259C157.025 460.673 154.478 458.288 153.266 454.716C151.88 450.633 152.496 445.782 154.835 442.357C157.302 438.743 161.468 436.816 165.976 437.207C170.337 437.583 174.078 440.106 175.983 443.955C176.281 444.557 176.1 445.324 175.58 445.668C175.059 446.011 174.395 445.803 174.097 445.2C172.551 442.077 169.455 440.024 165.815 439.71C162.08 439.391 158.529 440.998 156.541 443.912C154.671 446.65 154.179 450.531 155.289 453.8C156.225 456.559 158.108 458.328 160.59 458.778C160.8 458.816 160.999 458.845 161.188 458.871C162.328 459.033 163.621 459.216 164.419 461.252C164.827 462.293 164.901 463.337 164.974 464.346C165.049 465.389 165.114 466.29 165.525 467.078C168.131 472.075 175.741 472.27 180.311 470.813C187.132 468.638 192.954 462.948 195.143 456.317C196.398 452.517 197.04 446.543 194.722 442.216C193.132 439.249 189.839 434.423 185.631 435.43L185.629 435.43C185.043 435.572 184.466 435.134 184.345 434.456C184.281 434.107 184.351 433.761 184.513 433.489C184.614 432.285 184.082 427.626 183.902 426.822C181.639 417.382 172.746 412.453 165.178 410.99C156.571 409.326 147.231 413.538 141.391 421.721C140.654 422.754 139.973 423.852 139.367 424.984C137.409 428.64 136.284 432.656 136.114 436.595C135.954 440.306 136.889 443.056 137.972 446.241C138.197 446.901 138.426 447.576 138.653 448.279C138.775 448.609 138.881 448.948 138.969 449.296C139.135 449.949 138.82 450.636 138.259 450.843C137.701 451.052 137.097 450.706 136.902 450.064C136.813 449.774 136.724 449.488 136.633 449.205C135.986 447.515 134.712 446.195 132.838 445.275C128.569 443.179 122.368 443.79 119.257 445.676C113.771 449.001 109.423 456.141 108.918 462.654C108.722 465.183 109.507 466.557 110.592 468.457C111.028 469.219 111.478 470.008 111.903 470.944C111.904 470.946 111.905 470.947 111.906 470.949C112.185 471.563 111.979 472.322 111.448 472.644C111.06 472.878 110.606 472.816 110.281 472.526C109.421 472.518 106.765 473.587 106.206 473.959C100.204 477.964 95.7196 485.991 95.5451 493.044C95.423 497.989 97.3686 502.13 101.171 505.019C104.657 507.666 108.815 509.138 112.878 509.163C114.638 509.174 116.36 508.793 118.181 508.39C120.639 507.846 123.179 507.285 125.834 507.76C129.847 508.479 133.558 510.36 137.148 512.18C140.554 513.907 144.076 515.692 147.767 516.406C149.946 516.829 157.415 517.853 162 513.315C168.465 506.916 169.764 495.194 164.836 487.716C161.544 482.721 156.293 479.201 150.788 478.301C146.635 477.622 142.531 478.703 139.815 481.192C136.458 484.269 135.73 489.721 138.193 493.344C138.957 494.469 139.977 495.327 141.062 495.761C143.263 496.639 145.905 495.891 148.028 495.29C148.605 495.125 149.198 495.536 149.342 496.21C149.485 496.883 149.129 497.563 148.546 497.729C146.146 498.408 143.158 499.255 140.353 498.135C138.856 497.536 137.518 496.416 136.484 494.894C133.285 490.187 134.174 483.159 138.464 479.225C141.637 476.317 146.355 475.04 151.091 475.815C157.15 476.806 162.935 480.687 166.566 486.197C170.6 492.318 171.065 500.631 168.356 507.576C173.159 506.2 179.173 509.039 181.942 512.435C186.435 517.948 191.432 523.357 198.717 523.69C198.784 523.694 198.852 523.696 198.919 523.698C203.967 523.833 208.16 520.306 212.217 516.895C212.607 516.566 212.997 516.239 213.386 515.916C216.118 513.644 221.997 510.208 226.699 511.743C228.808 512.433 230.394 514.097 231.284 516.554C231.515 517.194 231.255 517.929 230.701 518.196C230.147 518.464 229.511 518.162 229.28 517.522C228.636 515.746 227.6 514.646 226.108 514.159C224.081 513.498 221.376 514.096 218.842 515.294C218.844 515.388 218.838 515.483 218.821 515.578C218.542 517.091 221.466 519.692 223.573 520.708C225.989 521.872 229.047 522.3 232.186 521.915C236.383 521.398 241.034 518.912 241.862 513.522C241.486 513.34 241.113 513.148 240.748 512.934C237.287 510.903 234.704 507.523 233.661 503.658C232.758 500.316 233.064 496.879 234.546 493.719C235.79 491.069 237.902 489.413 240.342 489.175C242.601 488.956 244.77 489.96 246.017 491.796C246.388 492.341 246.306 493.13 245.834 493.559C245.362 493.987 244.68 493.892 244.308 493.346C243.519 492.185 242.032 491.525 240.526 491.677C239.528 491.774 237.673 492.325 236.457 494.917C235.261 497.466 235.011 500.231 235.734 502.911C236.604 506.133 238.789 508.97 241.73 510.694C246.133 513.278 251.569 513.206 256.643 510.494C259.608 508.91 261.948 506.178 264.425 503.288C265.969 501.486 267.565 499.624 269.32 498.08C271.152 496.467 273.981 494.317 277.374 494.272C280.685 494.215 283.175 496.264 285.592 498.233C287.887 500.104 290.051 501.871 292.751 501.698C293.443 501.655 294.135 501.481 294.854 501.275Z" fill="white"/>
<path d="M294.854 501.275C292.011 499.819 290.474 497.605 289.497 495.858C288.832 494.666 288.397 493.393 287.976 492.16C287.194 489.871 286.518 487.893 284.563 486.926C280.955 485.14 276.207 486.526 273.066 487.444C267.997 488.922 263.912 488.059 261.406 485.031C261.007 485.583 260.593 486.12 260.182 486.648C258.607 488.672 257.12 490.584 256.836 493.153C256.794 493.539 256.888 493.935 257.056 494.073C257.544 494.476 257.657 495.259 257.309 495.824C257.091 496.175 256.746 496.358 256.399 496.349C256.188 496.343 255.977 496.267 255.793 496.115C254.96 495.429 254.534 494.171 254.68 492.835C255.05 489.487 256.838 487.19 258.566 484.968C259.868 483.294 261.098 481.714 261.671 479.768C262.488 476.99 261.921 473.827 260.114 471.09C256.674 465.877 249.332 462.679 243.888 466.222C242.695 466.999 241.054 468.416 240.185 469.933C238.223 474.56 234.836 477.045 230.365 477.117C229.98 477.122 229.552 477.057 229.141 476.993C228.712 476.926 227.919 476.803 227.687 476.929C227.692 476.943 227.674 477.025 227.673 477.185C227.668 478.067 227.709 478.961 227.747 479.826C227.88 482.75 228.017 485.773 226.444 488.742C222.231 496.696 213.502 499.675 207.307 499.81C207.008 499.817 206.705 499.815 206.4 499.807C198.846 499.607 189.592 494.939 185.812 486.035C185.548 485.413 185.77 484.66 186.308 484.355C186.845 484.051 187.498 484.307 187.762 484.93C191.296 493.251 200.246 497.444 207.266 497.299C212.912 497.177 220.837 494.518 224.592 487.431C225.812 485.126 225.704 482.73 225.578 479.956C225.537 479.055 225.495 478.123 225.5 477.168C225.505 476.25 225.76 475.532 226.257 475.034C227.139 474.148 228.411 474.345 229.431 474.505C229.777 474.559 230.108 474.607 230.334 474.606C233.877 474.549 236.475 472.693 238.087 469.128C238.111 469.041 238.143 468.955 238.185 468.873C238.226 468.795 238.27 468.721 238.313 468.645C238.32 468.627 238.328 468.613 238.336 468.595C241.251 461.381 239.478 450.38 235.947 445.364C232.695 440.744 225.717 437.101 220.517 439.046C218.57 439.772 217.029 438.232 215.791 436.994C215.425 436.627 215.078 436.28 214.754 436.021C212.423 434.15 208.741 433.531 205.382 434.443C202.845 435.132 199.338 436.972 197.018 441.818C199.108 446.52 198.643 452.293 197.387 456.523C197.402 456.634 197.408 456.747 197.396 456.864C196.827 462.081 200.53 468.23 205.321 470.024C210.119 471.819 216.875 470.02 218.902 464.565C219.679 462.471 219.69 460.235 218.932 458.095C217.932 455.269 215.697 452.806 212.955 451.506C211.574 450.852 208.798 450.144 207.229 451.032C206.731 451.314 206.432 451.725 206.288 452.326C206.162 452.851 206.214 453.329 206.447 453.791C206.879 454.647 207.917 455.421 209.092 455.763C209.674 455.932 210.027 456.615 209.881 457.287C209.735 457.959 209.144 458.368 208.563 458.198C207.198 457.801 205.432 456.767 204.569 455.054C204.041 454.007 203.912 452.832 204.193 451.656C204.502 450.368 205.22 449.373 206.271 448.777C208.668 447.42 212.23 448.449 213.778 449.183C217.048 450.733 219.727 453.709 220.943 457.146C221.926 459.923 221.91 462.83 220.898 465.556C218.946 470.813 213.767 473.341 208.833 473.21C207.388 473.171 205.966 472.905 204.651 472.413C200.176 470.738 196.599 466.031 195.513 461.018C192.434 466.677 187.028 471.277 180.891 473.234C176.019 474.786 167.036 474.84 163.664 468.375C162.99 467.083 162.893 465.739 162.808 464.553C162.748 463.719 162.691 462.932 162.438 462.286C162.154 461.56 161.951 461.509 160.925 461.364C160.713 461.333 160.49 461.302 160.254 461.259C157.025 460.673 154.478 458.288 153.266 454.716C151.88 450.633 152.496 445.782 154.835 442.357C157.302 438.743 161.468 436.816 165.976 437.207C170.337 437.583 174.078 440.106 175.983 443.955C176.281 444.557 176.1 445.324 175.58 445.668C175.059 446.011 174.395 445.803 174.097 445.2C172.551 442.077 169.455 440.024 165.815 439.71C162.08 439.391 158.529 440.998 156.541 443.912C154.671 446.65 154.179 450.531 155.289 453.8C156.225 456.559 158.108 458.328 160.59 458.778C160.8 458.816 160.999 458.845 161.188 458.871C162.328 459.033 163.621 459.216 164.419 461.252C164.827 462.293 164.901 463.337 164.974 464.346C165.049 465.389 165.114 466.29 165.525 467.078C168.131 472.075 175.741 472.27 180.311 470.813C187.132 468.638 192.954 462.948 195.143 456.317C196.398 452.517 197.04 446.543 194.722 442.216C193.132 439.249 189.839 434.423 185.631 435.43L185.629 435.43C185.043 435.572 184.466 435.134 184.345 434.456C184.281 434.107 184.351 433.761 184.513 433.489C184.614 432.285 184.082 427.626 183.902 426.822C181.639 417.382 172.746 412.453 165.178 410.99C156.571 409.326 147.231 413.538 141.391 421.721C140.654 422.754 139.973 423.852 139.367 424.984C137.409 428.64 136.284 432.656 136.114 436.595C135.954 440.306 136.889 443.056 137.972 446.241C138.197 446.901 138.426 447.576 138.653 448.279C138.775 448.609 138.881 448.948 138.969 449.296C139.135 449.949 138.82 450.636 138.259 450.843C137.701 451.052 137.097 450.706 136.902 450.064C136.813 449.774 136.724 449.488 136.633 449.205C135.986 447.515 134.712 446.195 132.838 445.275C128.569 443.179 122.368 443.79 119.257 445.676C113.771 449.001 109.423 456.141 108.918 462.654C108.722 465.183 109.507 466.557 110.592 468.457C111.028 469.219 111.478 470.008 111.903 470.944C111.904 470.946 111.905 470.947 111.906 470.949C112.185 471.563 111.979 472.322 111.448 472.644C111.06 472.878 110.606 472.816 110.281 472.526C109.421 472.518 106.765 473.587 106.206 473.959C100.204 477.964 95.7196 485.991 95.5451 493.044C95.423 497.989 97.3686 502.13 101.171 505.019C104.657 507.666 108.815 509.138 112.878 509.163C114.638 509.174 116.36 508.793 118.181 508.39C120.639 507.846 123.179 507.285 125.834 507.76C129.847 508.479 133.558 510.36 137.148 512.18C140.554 513.907 144.076 515.692 147.767 516.406C149.946 516.829 157.415 517.853 162 513.315C168.465 506.916 169.764 495.194 164.836 487.716C161.544 482.721 156.293 479.201 150.788 478.301C146.635 477.622 142.531 478.703 139.815 481.192C136.458 484.269 135.73 489.721 138.193 493.344C138.957 494.469 139.977 495.327 141.062 495.761C143.263 496.639 145.905 495.891 148.028 495.29C148.605 495.125 149.198 495.536 149.342 496.21C149.485 496.883 149.129 497.563 148.546 497.729C146.146 498.408 143.158 499.255 140.353 498.135C138.856 497.536 137.518 496.416 136.484 494.894C133.285 490.187 134.174 483.159 138.464 479.225C141.637 476.317 146.355 475.04 151.091 475.815C157.15 476.806 162.935 480.687 166.566 486.197C170.6 492.318 171.065 500.631 168.356 507.576C173.159 506.2 179.173 509.039 181.942 512.435C186.435 517.948 191.432 523.357 198.717 523.69C198.784 523.694 198.852 523.696 198.919 523.698C203.967 523.833 208.16 520.306 212.217 516.895C212.607 516.566 212.997 516.239 213.386 515.916C216.118 513.644 221.997 510.208 226.699 511.743C228.808 512.433 230.394 514.097 231.284 516.554C231.515 517.194 231.255 517.929 230.701 518.196C230.147 518.464 229.511 518.162 229.28 517.522C228.636 515.746 227.6 514.646 226.108 514.159C224.081 513.498 221.376 514.096 218.842 515.294C218.844 515.388 218.838 515.483 218.821 515.578C218.542 517.091 221.466 519.692 223.573 520.708C225.989 521.872 229.047 522.3 232.186 521.915C236.383 521.398 241.034 518.912 241.862 513.522C241.486 513.34 241.113 513.148 240.748 512.934C237.287 510.903 234.704 507.523 233.661 503.658C232.758 500.316 233.064 496.879 234.546 493.719C235.79 491.069 237.902 489.413 240.342 489.175C242.601 488.956 244.77 489.96 246.017 491.796C246.388 492.341 246.306 493.13 245.834 493.559C245.362 493.987 244.68 493.892 244.308 493.346C243.519 492.185 242.032 491.525 240.526 491.677C239.528 491.774 237.673 492.325 236.457 494.917C235.261 497.466 235.011 500.231 235.734 502.911C236.604 506.133 238.789 508.97 241.73 510.694C246.133 513.278 251.569 513.206 256.643 510.494C259.608 508.91 261.948 506.178 264.425 503.288C265.969 501.486 267.565 499.624 269.32 498.08C271.152 496.467 273.981 494.317 277.374 494.272C280.685 494.215 283.175 496.264 285.592 498.233C287.887 500.104 290.051 501.871 292.751 501.698C293.443 501.655 294.135 501.481 294.854 501.275Z" stroke="#ECE1D6" stroke-width="6" mask="url(#path-3-outside-1_0_1)"/>
<path d="M225.179 2.43739C233.803 2.43739 240.735 9.66436 240.735 18.4491C240.735 18.6012 240.729 18.7547 240.725 18.911C240.757 18.9107 240.789 18.9101 240.821 18.91C246.172 18.91 250.441 23.3884 250.441 28.7938C250.441 30.4971 250.012 32.1611 249.197 33.6425C251.96 36.6341 253.501 40.416 253.5 44.3632L253.494 44.8026C253.234 53.9937 244.837 61.1297 234.904 61.1298C230.099 61.1298 225.568 59.5003 222.08 56.497L221.896 56.3378C221.558 56.5747 221.215 56.8023 220.865 57.0165L220.801 57.0556L220.733 57.0878C216.943 58.918 212.69 59.8748 208.312 59.8749C202.925 59.8749 197.796 58.4511 193.432 55.7313C190.501 60.3257 184.762 62.4408 176.841 62.5897C168.456 62.7474 157.179 60.7281 142.965 56.6259C138.794 55.422 134.953 54.9452 131.477 54.9452C122.836 54.9452 116.386 57.8969 112.781 60.0956L110.814 57.8964C117.92 48.7259 126.849 43.2898 137.445 41.7704L137.472 41.7665L137.498 41.7636C138.697 41.6352 141.711 41.3713 145.849 41.4335C145.571 40.2785 145.422 39.0894 145.422 37.8827C145.422 29.7149 151.869 22.9892 159.896 22.9892L160.342 22.9999L160.383 23.0018C160.446 23.0056 160.509 23.0123 160.572 23.0175L160.605 22.91C163.995 11.6793 177.181 4.00673 191.899 4.00673C199.307 4.00681 206.501 5.94815 212.26 9.53407C215.126 5.14748 219.991 2.43744 225.179 2.43739Z" fill="white" stroke="#ECE1D8" stroke-width="3"/>
</svg>
