<svg width="393" height="90" viewBox="0 0 393 90" fill="none" xmlns="http://www.w3.org/2000/svg">
<mask id="path-1-outside-1_0_1" maskUnits="userSpaceOnUse" x="-37.1784" y="-0.541414" width="155.991" height="92.4906" fill="black">
<rect fill="white" x="-37.1784" y="-0.541414" width="155.991" height="92.4906"/>
<path d="M109.39 46.7798C111.585 45.9414 113.946 46.2179 116.247 46.5388C115.446 46.2011 114.674 45.8223 113.918 45.4512C113.586 45.2881 113.254 45.1253 112.921 44.9667C109.971 43.5612 107.071 42.3809 104.039 43.342C100.485 44.4682 97.3051 47.2861 94.9318 49.6151C94.8451 49.7002 94.7759 49.8011 94.7038 49.8991C94.5624 50.0909 94.3858 50.3295 94.1396 50.5421C89.6916 54.3913 80.8955 58.4098 74.9066 53.7113C72.9591 52.1841 71.5845 50.1241 70.4488 48.3127C67.0162 42.8363 62.9157 38.0337 56.2267 39.9415C56.0678 39.9871 55.9034 40.0608 55.7131 40.1461C55.4929 40.2452 55.2721 40.3417 55.0368 40.4176C54.9422 40.4482 54.8184 40.4943 54.6795 40.5451C53.8256 40.8595 53.1734 41.0731 52.6227 40.9827C52.2515 40.9216 51.9415 40.6703 51.8075 40.323C51.3809 39.2191 52.3827 38.3737 52.9212 37.9194C53.0083 37.8462 53.0877 37.7818 53.1413 37.7274C53.4738 37.387 53.8356 37.1221 54.1864 36.8656C54.5923 36.5683 54.9758 36.2872 55.2013 35.9562C57.6062 32.4245 57.7447 28.8887 55.6023 25.7304C52.3044 20.8693 44.1338 17.8636 37.7586 19.1709C34.6585 19.8055 30.7508 21.6981 29.7429 27.1079L29.0019 31.0847C28.8974 31.6511 28.3548 32.0298 27.7754 31.9256C27.2028 31.8245 26.8192 31.2848 26.9176 30.717C27.5076 27.3104 28.1764 23.4492 27.0923 20.0146C26.4017 17.8278 24.9409 15.644 22.626 13.3388C14.3015 5.04891 1.49014 1.41384 -10.005 4.0777C-15.411 5.33066 -19.8757 8.0605 -24.0555 12.669C-26.746 15.6354 -29.9955 19.6452 -31.2498 24.3655C-33.0729 31.223 -30.3494 39.1064 -24.4723 43.9824C-18.9723 48.5454 -11.1003 50.3759 -3.41602 48.8773C-1.22818 48.4514 0.753869 47.778 2.49086 46.898C3.46746 46.1044 4.55099 45.3791 5.74476 44.7476C5.98893 44.5375 6.23247 44.3268 6.45744 44.1041C11.4454 39.1686 10.9149 31.1144 7.56344 26.4831C4.60237 22.3922 0.100252 21.4118 -4.78873 23.791C-6.31141 24.5317 -8.11275 26.1533 -8.4694 27.9614C-8.65498 28.9058 -8.40325 29.7451 -7.69777 30.5276C-7.30844 30.9594 -7.34695 31.6218 -7.78317 32.0068C-8.21873 32.3911 -8.8873 32.3537 -9.27792 31.9216C-10.4205 30.6535 -10.8597 29.1453 -10.5477 27.5598C-10.051 25.0373 -7.76709 22.9052 -5.72348 21.911C0.103194 19.077 5.71382 20.3298 9.28446 25.2639C12.6152 29.8662 13.4968 37.419 9.95473 43.073C13.26 42.1429 17.1541 41.8562 21.6554 42.5322C26.3108 43.2313 32.4763 46.1257 34.5325 51.9842C36.7393 58.2691 32.792 64.7155 27.9563 67.5895C24.7684 69.4841 20.3363 69.846 17.1774 68.4728C14.7702 67.4255 13.2182 65.5214 12.6896 62.9662C11.8682 58.9933 14.3322 54.9799 18.0696 54.2018C20.1321 53.7726 22.0509 54.1078 23.2031 55.0979C23.8163 55.6247 24.5235 56.6011 24.4113 58.2599C24.3418 59.2866 23.7202 60.2905 22.7905 60.8808C21.9343 61.4239 20.9427 61.5488 20.0684 61.2206C19.5215 61.0157 19.2456 60.4107 19.4531 59.8701C19.6601 59.3289 20.2723 59.0578 20.8179 59.2618C21.1605 59.3904 21.5114 59.2037 21.6465 59.1174C22.0179 58.882 22.2737 58.4897 22.2994 58.1182C22.3432 57.4678 22.185 56.9969 21.8152 56.6794C21.1797 56.133 19.883 55.9646 18.5071 56.252C15.614 56.8537 14.2366 59.993 14.7643 62.5473C15.1542 64.4338 16.2527 65.7822 18.0293 66.5548C20.597 67.6726 24.2322 67.359 26.8654 65.7937C30.9865 63.3439 34.3731 57.9124 32.5326 52.6706C30.786 47.6945 25.4116 45.2147 21.3395 44.6034C15.3713 43.7076 10.584 44.6346 6.92662 46.5166C5.97379 47.3075 4.89414 48.0049 3.72249 48.6206C1.61516 50.3576 0.084484 52.4442 -0.881091 54.562C-3.87661 61.1311 -2.34675 70.266 2.24009 76.799C2.3316 76.8309 2.42132 76.8709 2.5041 76.9297C2.78253 77.126 2.93179 77.4311 2.94412 77.7447C4.07353 79.1928 5.36001 80.4905 6.7905 81.5695C12.9851 86.2403 23.3415 87.5294 29.8807 84.4423C34.4614 82.2791 38.3275 78.2386 40.8608 72.9964C39.705 72.6153 38.6623 72.0946 37.7664 71.4424C35.5434 69.8238 34.1917 67.2977 34.2392 64.8498C34.2501 64.2716 34.7338 63.8119 35.3182 63.8233C35.3195 63.8233 35.3201 63.8234 35.3218 63.8234C35.9048 63.8367 36.3675 64.3142 36.3566 64.8914C36.3222 66.6696 37.3427 68.5336 39.0213 69.7557C40.5025 70.8346 42.5197 71.4799 44.8544 71.6222C49.8697 71.9324 54.5656 69.944 59.66 65.3818C60.0937 64.9935 60.763 65.0265 61.1553 65.4558C61.5476 65.8847 61.5147 66.5472 61.0809 66.9355C55.837 71.6312 50.7033 73.8628 45.4108 73.742C45.1826 73.7368 44.9541 73.7271 44.7255 73.7135C44.1468 73.6781 43.5868 73.6094 43.0406 73.5198C42.1959 76.9589 45.6533 80.395 47.9823 81.9646C51.8178 84.5471 57.1978 85.0883 62.0238 83.3757C66.4807 81.7945 70.3974 78.001 73.0703 72.69C71.5013 70.8591 70.8884 68.4405 71.1858 66.3672C71.5688 63.692 73.5909 60.8345 78.1144 60.8362C78.6659 60.8365 80.6034 60.9637 82.0684 62.5916C83.2741 63.9306 83.7439 65.8174 83.4648 68.1983C83.3971 68.7729 82.8596 69.1842 82.2917 69.1176C81.7106 69.0506 81.2943 68.5308 81.362 67.9559C81.5685 66.1941 81.2742 64.858 80.488 63.9846C79.7886 63.2083 78.7918 62.9343 78.1147 62.9311C74.2356 62.9299 73.4426 65.5401 73.2819 66.6622C72.9261 69.1435 74.4206 72.2446 77.5377 73.1397C81.5949 74.3043 88.1198 73.0242 90.996 69.3233C91.6716 68.4543 91.5766 67.7468 91.4328 66.6754C91.3168 65.8096 91.1846 64.8274 91.5114 63.6896C92.3093 60.9046 94.8649 61.1025 96.3865 61.2191C96.8842 61.2581 97.3445 61.2676 97.8779 61.311C98.253 61.3411 98.6796 61.3762 98.9133 61.3128C101.033 60.7397 101.604 58.7385 102.233 55.7498C102.397 54.9659 102.553 54.2256 102.765 53.5264C103.729 50.3599 105.958 48.0903 109.39 46.7798Z"/>
</mask>
<path d="M109.39 46.7798C111.585 45.9414 113.946 46.2179 116.247 46.5388C115.446 46.2011 114.674 45.8223 113.918 45.4512C113.586 45.2881 113.254 45.1253 112.921 44.9667C109.971 43.5612 107.071 42.3809 104.039 43.342C100.485 44.4682 97.3051 47.2861 94.9318 49.6151C94.8451 49.7002 94.7759 49.8011 94.7038 49.8991C94.5624 50.0909 94.3858 50.3295 94.1396 50.5421C89.6916 54.3913 80.8955 58.4098 74.9066 53.7113C72.9591 52.1841 71.5845 50.1241 70.4488 48.3127C67.0162 42.8363 62.9157 38.0337 56.2267 39.9415C56.0678 39.9871 55.9034 40.0608 55.7131 40.1461C55.4929 40.2452 55.2721 40.3417 55.0368 40.4176C54.9422 40.4482 54.8184 40.4943 54.6795 40.5451C53.8256 40.8595 53.1734 41.0731 52.6227 40.9827C52.2515 40.9216 51.9415 40.6703 51.8075 40.323C51.3809 39.2191 52.3827 38.3737 52.9212 37.9194C53.0083 37.8462 53.0877 37.7818 53.1413 37.7274C53.4738 37.387 53.8356 37.1221 54.1864 36.8656C54.5923 36.5683 54.9758 36.2872 55.2013 35.9562C57.6062 32.4245 57.7447 28.8887 55.6023 25.7304C52.3044 20.8693 44.1338 17.8636 37.7586 19.1709C34.6585 19.8055 30.7508 21.6981 29.7429 27.1079L29.0019 31.0847C28.8974 31.6511 28.3548 32.0298 27.7754 31.9256C27.2028 31.8245 26.8192 31.2848 26.9176 30.717C27.5076 27.3104 28.1764 23.4492 27.0923 20.0146C26.4017 17.8278 24.9409 15.644 22.626 13.3388C14.3015 5.04891 1.49014 1.41384 -10.005 4.0777C-15.411 5.33066 -19.8757 8.0605 -24.0555 12.669C-26.746 15.6354 -29.9955 19.6452 -31.2498 24.3655C-33.0729 31.223 -30.3494 39.1064 -24.4723 43.9824C-18.9723 48.5454 -11.1003 50.3759 -3.41602 48.8773C-1.22818 48.4514 0.753869 47.778 2.49086 46.898C3.46746 46.1044 4.55099 45.3791 5.74476 44.7476C5.98893 44.5375 6.23247 44.3268 6.45744 44.1041C11.4454 39.1686 10.9149 31.1144 7.56344 26.4831C4.60237 22.3922 0.100252 21.4118 -4.78873 23.791C-6.31141 24.5317 -8.11275 26.1533 -8.4694 27.9614C-8.65498 28.9058 -8.40325 29.7451 -7.69777 30.5276C-7.30844 30.9594 -7.34695 31.6218 -7.78317 32.0068C-8.21873 32.3911 -8.8873 32.3537 -9.27792 31.9216C-10.4205 30.6535 -10.8597 29.1453 -10.5477 27.5598C-10.051 25.0373 -7.76709 22.9052 -5.72348 21.911C0.103194 19.077 5.71382 20.3298 9.28446 25.2639C12.6152 29.8662 13.4968 37.419 9.95473 43.073C13.26 42.1429 17.1541 41.8562 21.6554 42.5322C26.3108 43.2313 32.4763 46.1257 34.5325 51.9842C36.7393 58.2691 32.792 64.7155 27.9563 67.5895C24.7684 69.4841 20.3363 69.846 17.1774 68.4728C14.7702 67.4255 13.2182 65.5214 12.6896 62.9662C11.8682 58.9933 14.3322 54.9799 18.0696 54.2018C20.1321 53.7726 22.0509 54.1078 23.2031 55.0979C23.8163 55.6247 24.5235 56.6011 24.4113 58.2599C24.3418 59.2866 23.7202 60.2905 22.7905 60.8808C21.9343 61.4239 20.9427 61.5488 20.0684 61.2206C19.5215 61.0157 19.2456 60.4107 19.4531 59.8701C19.6601 59.3289 20.2723 59.0578 20.8179 59.2618C21.1605 59.3904 21.5114 59.2037 21.6465 59.1174C22.0179 58.882 22.2737 58.4897 22.2994 58.1182C22.3432 57.4678 22.185 56.9969 21.8152 56.6794C21.1797 56.133 19.883 55.9646 18.5071 56.252C15.614 56.8537 14.2366 59.993 14.7643 62.5473C15.1542 64.4338 16.2527 65.7822 18.0293 66.5548C20.597 67.6726 24.2322 67.359 26.8654 65.7937C30.9865 63.3439 34.3731 57.9124 32.5326 52.6706C30.786 47.6945 25.4116 45.2147 21.3395 44.6034C15.3713 43.7076 10.584 44.6346 6.92662 46.5166C5.97379 47.3075 4.89414 48.0049 3.72249 48.6206C1.61516 50.3576 0.084484 52.4442 -0.881091 54.562C-3.87661 61.1311 -2.34675 70.266 2.24009 76.799C2.3316 76.8309 2.42132 76.8709 2.5041 76.9297C2.78253 77.126 2.93179 77.4311 2.94412 77.7447C4.07353 79.1928 5.36001 80.4905 6.7905 81.5695C12.9851 86.2403 23.3415 87.5294 29.8807 84.4423C34.4614 82.2791 38.3275 78.2386 40.8608 72.9964C39.705 72.6153 38.6623 72.0946 37.7664 71.4424C35.5434 69.8238 34.1917 67.2977 34.2392 64.8498C34.2501 64.2716 34.7338 63.8119 35.3182 63.8233C35.3195 63.8233 35.3201 63.8234 35.3218 63.8234C35.9048 63.8367 36.3675 64.3142 36.3566 64.8914C36.3222 66.6696 37.3427 68.5336 39.0213 69.7557C40.5025 70.8346 42.5197 71.4799 44.8544 71.6222C49.8697 71.9324 54.5656 69.944 59.66 65.3818C60.0937 64.9935 60.763 65.0265 61.1553 65.4558C61.5476 65.8847 61.5147 66.5472 61.0809 66.9355C55.837 71.6312 50.7033 73.8628 45.4108 73.742C45.1826 73.7368 44.9541 73.7271 44.7255 73.7135C44.1468 73.6781 43.5868 73.6094 43.0406 73.5198C42.1959 76.9589 45.6533 80.395 47.9823 81.9646C51.8178 84.5471 57.1978 85.0883 62.0238 83.3757C66.4807 81.7945 70.3974 78.001 73.0703 72.69C71.5013 70.8591 70.8884 68.4405 71.1858 66.3672C71.5688 63.692 73.5909 60.8345 78.1144 60.8362C78.6659 60.8365 80.6034 60.9637 82.0684 62.5916C83.2741 63.9306 83.7439 65.8174 83.4648 68.1983C83.3971 68.7729 82.8596 69.1842 82.2917 69.1176C81.7106 69.0506 81.2943 68.5308 81.362 67.9559C81.5685 66.1941 81.2742 64.858 80.488 63.9846C79.7886 63.2083 78.7918 62.9343 78.1147 62.9311C74.2356 62.9299 73.4426 65.5401 73.2819 66.6622C72.9261 69.1435 74.4206 72.2446 77.5377 73.1397C81.5949 74.3043 88.1198 73.0242 90.996 69.3233C91.6716 68.4543 91.5766 67.7468 91.4328 66.6754C91.3168 65.8096 91.1846 64.8274 91.5114 63.6896C92.3093 60.9046 94.8649 61.1025 96.3865 61.2191C96.8842 61.2581 97.3445 61.2676 97.8779 61.311C98.253 61.3411 98.6796 61.3762 98.9133 61.3128C101.033 60.7397 101.604 58.7385 102.233 55.7498C102.397 54.9659 102.553 54.2256 102.765 53.5264C103.729 50.3599 105.958 48.0903 109.39 46.7798Z" fill="white"/>
<path d="M109.39 46.7798C111.585 45.9414 113.946 46.2179 116.247 46.5388C115.446 46.2011 114.674 45.8223 113.918 45.4512C113.586 45.2881 113.254 45.1253 112.921 44.9667C109.971 43.5612 107.071 42.3809 104.039 43.342C100.485 44.4682 97.3051 47.2861 94.9318 49.6151C94.8451 49.7002 94.7759 49.8011 94.7038 49.8991C94.5624 50.0909 94.3858 50.3295 94.1396 50.5421C89.6916 54.3913 80.8955 58.4098 74.9066 53.7113C72.9591 52.1841 71.5845 50.1241 70.4488 48.3127C67.0162 42.8363 62.9157 38.0337 56.2267 39.9415C56.0678 39.9871 55.9034 40.0608 55.7131 40.1461C55.4929 40.2452 55.2721 40.3417 55.0368 40.4176C54.9422 40.4482 54.8184 40.4943 54.6795 40.5451C53.8256 40.8595 53.1734 41.0731 52.6227 40.9827C52.2515 40.9216 51.9415 40.6703 51.8075 40.323C51.3809 39.2191 52.3827 38.3737 52.9212 37.9194C53.0083 37.8462 53.0877 37.7818 53.1413 37.7274C53.4738 37.387 53.8356 37.1221 54.1864 36.8656C54.5923 36.5683 54.9758 36.2872 55.2013 35.9562C57.6062 32.4245 57.7447 28.8887 55.6023 25.7304C52.3044 20.8693 44.1338 17.8636 37.7586 19.1709C34.6585 19.8055 30.7508 21.6981 29.7429 27.1079L29.0019 31.0847C28.8974 31.6511 28.3548 32.0298 27.7754 31.9256C27.2028 31.8245 26.8192 31.2848 26.9176 30.717C27.5076 27.3104 28.1764 23.4492 27.0923 20.0146C26.4017 17.8278 24.9409 15.644 22.626 13.3388C14.3015 5.04891 1.49014 1.41384 -10.005 4.0777C-15.411 5.33066 -19.8757 8.0605 -24.0555 12.669C-26.746 15.6354 -29.9955 19.6452 -31.2498 24.3655C-33.0729 31.223 -30.3494 39.1064 -24.4723 43.9824C-18.9723 48.5454 -11.1003 50.3759 -3.41602 48.8773C-1.22818 48.4514 0.753869 47.778 2.49086 46.898C3.46746 46.1044 4.55099 45.3791 5.74476 44.7476C5.98893 44.5375 6.23247 44.3268 6.45744 44.1041C11.4454 39.1686 10.9149 31.1144 7.56344 26.4831C4.60237 22.3922 0.100252 21.4118 -4.78873 23.791C-6.31141 24.5317 -8.11275 26.1533 -8.4694 27.9614C-8.65498 28.9058 -8.40325 29.7451 -7.69777 30.5276C-7.30844 30.9594 -7.34695 31.6218 -7.78317 32.0068C-8.21873 32.3911 -8.8873 32.3537 -9.27792 31.9216C-10.4205 30.6535 -10.8597 29.1453 -10.5477 27.5598C-10.051 25.0373 -7.76709 22.9052 -5.72348 21.911C0.103194 19.077 5.71382 20.3298 9.28446 25.2639C12.6152 29.8662 13.4968 37.419 9.95473 43.073C13.26 42.1429 17.1541 41.8562 21.6554 42.5322C26.3108 43.2313 32.4763 46.1257 34.5325 51.9842C36.7393 58.2691 32.792 64.7155 27.9563 67.5895C24.7684 69.4841 20.3363 69.846 17.1774 68.4728C14.7702 67.4255 13.2182 65.5214 12.6896 62.9662C11.8682 58.9933 14.3322 54.9799 18.0696 54.2018C20.1321 53.7726 22.0509 54.1078 23.2031 55.0979C23.8163 55.6247 24.5235 56.6011 24.4113 58.2599C24.3418 59.2866 23.7202 60.2905 22.7905 60.8808C21.9343 61.4239 20.9427 61.5488 20.0684 61.2206C19.5215 61.0157 19.2456 60.4107 19.4531 59.8701C19.6601 59.3289 20.2723 59.0578 20.8179 59.2618C21.1605 59.3904 21.5114 59.2037 21.6465 59.1174C22.0179 58.882 22.2737 58.4897 22.2994 58.1182C22.3432 57.4678 22.185 56.9969 21.8152 56.6794C21.1797 56.133 19.883 55.9646 18.5071 56.252C15.614 56.8537 14.2366 59.993 14.7643 62.5473C15.1542 64.4338 16.2527 65.7822 18.0293 66.5548C20.597 67.6726 24.2322 67.359 26.8654 65.7937C30.9865 63.3439 34.3731 57.9124 32.5326 52.6706C30.786 47.6945 25.4116 45.2147 21.3395 44.6034C15.3713 43.7076 10.584 44.6346 6.92662 46.5166C5.97379 47.3075 4.89414 48.0049 3.72249 48.6206C1.61516 50.3576 0.084484 52.4442 -0.881091 54.562C-3.87661 61.1311 -2.34675 70.266 2.24009 76.799C2.3316 76.8309 2.42132 76.8709 2.5041 76.9297C2.78253 77.126 2.93179 77.4311 2.94412 77.7447C4.07353 79.1928 5.36001 80.4905 6.7905 81.5695C12.9851 86.2403 23.3415 87.5294 29.8807 84.4423C34.4614 82.2791 38.3275 78.2386 40.8608 72.9964C39.705 72.6153 38.6623 72.0946 37.7664 71.4424C35.5434 69.8238 34.1917 67.2977 34.2392 64.8498C34.2501 64.2716 34.7338 63.8119 35.3182 63.8233C35.3195 63.8233 35.3201 63.8234 35.3218 63.8234C35.9048 63.8367 36.3675 64.3142 36.3566 64.8914C36.3222 66.6696 37.3427 68.5336 39.0213 69.7557C40.5025 70.8346 42.5197 71.4799 44.8544 71.6222C49.8697 71.9324 54.5656 69.944 59.66 65.3818C60.0937 64.9935 60.763 65.0265 61.1553 65.4558C61.5476 65.8847 61.5147 66.5472 61.0809 66.9355C55.837 71.6312 50.7033 73.8628 45.4108 73.742C45.1826 73.7368 44.9541 73.7271 44.7255 73.7135C44.1468 73.6781 43.5868 73.6094 43.0406 73.5198C42.1959 76.9589 45.6533 80.395 47.9823 81.9646C51.8178 84.5471 57.1978 85.0883 62.0238 83.3757C66.4807 81.7945 70.3974 78.001 73.0703 72.69C71.5013 70.8591 70.8884 68.4405 71.1858 66.3672C71.5688 63.692 73.5909 60.8345 78.1144 60.8362C78.6659 60.8365 80.6034 60.9637 82.0684 62.5916C83.2741 63.9306 83.7439 65.8174 83.4648 68.1983C83.3971 68.7729 82.8596 69.1842 82.2917 69.1176C81.7106 69.0506 81.2943 68.5308 81.362 67.9559C81.5685 66.1941 81.2742 64.858 80.488 63.9846C79.7886 63.2083 78.7918 62.9343 78.1147 62.9311C74.2356 62.9299 73.4426 65.5401 73.2819 66.6622C72.9261 69.1435 74.4206 72.2446 77.5377 73.1397C81.5949 74.3043 88.1198 73.0242 90.996 69.3233C91.6716 68.4543 91.5766 67.7468 91.4328 66.6754C91.3168 65.8096 91.1846 64.8274 91.5114 63.6896C92.3093 60.9046 94.8649 61.1025 96.3865 61.2191C96.8842 61.2581 97.3445 61.2676 97.8779 61.311C98.253 61.3411 98.6796 61.3762 98.9133 61.3128C101.033 60.7397 101.604 58.7385 102.233 55.7498C102.397 54.9659 102.553 54.2256 102.765 53.5264C103.729 50.3599 105.958 48.0903 109.39 46.7798Z" stroke="#ECE1D8" stroke-width="6" mask="url(#path-1-outside-1_0_1)"/>
<path d="M-31.3722 34.9631C-30.1582 38.5601 -27.9318 41.8979 -24.8757 44.4332C-19.27 49.0837 -11.2055 51.0032 -3.29436 49.4611L-3.29339 49.4611C-2.61139 49.3284 -1.94685 49.1608 -1.27786 48.9747L2.91191 47.8103L0.332364 51.3099C-0.389672 52.2897 -0.983314 53.3054 -1.44678 54.3219C-4.51374 61.0477 -3.10257 70.3024 1.66667 77.0766L2.31763 78.0009L1.6079 78.8814C-0.346336 81.3079 -2.98592 83.3905 -5.95057 84.3539C-8.96616 85.3337 -12.2973 85.1388 -15.3931 83.0102L-15.3931 83.0111C-16.0937 82.5298 -16.7885 81.9938 -17.3621 81.5039C-17.8952 81.0487 -18.4443 80.532 -18.7474 80.0989L-18.8269 79.9857C-18.9852 80.1604 -19.1436 80.3337 -19.3009 80.5082C-21.2669 82.689 -23.1977 84.8625 -26.5443 86.1276C-29.6689 87.3092 -33.3253 87.5963 -36.612 86.9255C-41.1116 86.0068 -43.8093 83.9273 -46.7422 81.3042L-48.0189 80.1488L-49.3569 78.9392C-50.2138 78.1726 -51.1356 77.2079 -52.053 76.2491C-52.6454 75.63 -53.2592 74.989 -53.9056 74.345L-52.6548 72.7003C-56.9228 70.2696 -60.8541 68.0919 -65.1252 68.2183L-65.1643 68.2203L-65.2033 68.2194C-65.8458 68.2047 -66.5051 68.2448 -67.1863 68.35L-67.3598 68.5023L-67.7066 68.5911C-68.2241 68.7241 -68.7205 68.8745 -69.215 69.0695C-71.1929 69.8492 -73.0194 70.9666 -74.9103 72.1279C-78.2351 74.1705 -81.8289 76.4206 -86.3933 76.2175L-86.8381 76.1907C-89.4684 75.9831 -91.4823 75.0563 -93.0878 73.4957C-94.6427 71.9843 -95.7327 69.955 -96.6977 67.6979C-97.0964 66.7661 -97.5957 65.6099 -98.3207 64.5536C-99.0439 63.4999 -99.9146 62.6627 -100.995 62.2547L-105.455 60.5715L-100.836 59.3973C-100.767 59.3797 -100.703 59.3633 -100.642 59.347L-100.638 59.3461C-99.5356 59.0572 -98.4798 58.9776 -97.1859 59.0449L-97.1849 59.0449C-96.231 59.0956 -95.4075 59.4596 -94.7847 59.7229L-94.3745 59.8944C-94.2439 59.9476 -94.1175 59.9974 -93.9901 60.0439L-93.9882 60.0439C-93.1383 60.3547 -92.3943 60.7028 -91.7342 61.0106C-90.0382 61.8018 -88.7131 62.4102 -86.5551 62.2922C-85.0022 62.207 -83.6287 62.0688 -82.4267 61.5063C-79.783 60.2692 -78.1395 58.0303 -76.3162 55.4918C-74.9381 53.573 -73.4636 51.4937 -71.3583 50.0332L-70.8932 49.7254C-66.0516 46.6571 -59.4475 46.7833 -54.846 50.1092C-54.495 48.4215 -53.8828 46.7895 -53.1045 45.2815C-51.6003 42.3667 -49.4266 39.8075 -47.122 38.0704C-43.4666 35.3146 -38.3623 33.919 -32.7878 33.9423L-31.7154 33.9472L-31.3722 34.9631Z" fill="white" stroke="#ECE1D8" stroke-width="3"/>
<path d="M174.192 34.6354C171.117 34.7573 168.036 35.4778 165.669 36.8592L165.668 36.8592C162.607 38.6473 160.995 41.3583 161.114 44.7896C161.178 46.6382 162.166 48.4068 163.694 49.4542L163.695 49.4552C164.55 50.0395 165.994 50.6676 167.864 50.2802L167.864 50.2793C168.245 50.2009 168.665 50.0664 169.025 49.8791C169.199 49.7886 169.434 49.647 169.645 49.4377C169.823 49.2607 170.235 48.7825 170.174 48.0618L170.174 48.0589C170.173 48.0559 170.168 48.0251 170.223 47.9678C170.28 47.9072 170.394 47.8365 170.563 47.8216C170.757 47.8081 170.894 47.8654 170.969 47.9219C171.04 47.9762 171.045 48.0176 171.046 48.0293L171.046 48.0323C171.131 49.0034 170.408 50.2351 168.104 50.708L167.762 50.7702C166.052 51.0356 164.384 50.6616 163.018 49.7241L163.017 49.7231C161.684 48.8089 160.768 47.4533 160.411 45.9744L160.281 45.4365L159.832 45.1136C159.772 45.0705 159.717 45.038 159.674 45.013C153.684 39.4713 148.493 36.5378 142.931 35.866L142.148 35.78C134.039 34.9866 125.187 37.0323 115.862 41.7201L115.163 42.0795C111.692 43.9081 108.532 46.1835 105.302 48.5059L103.332 49.9167C98.7308 53.1841 94.0544 56.226 88.4584 57.7928L87.8056 57.9634C84.516 58.7628 80.8808 58.7616 77.6636 57.8128L72.5649 56.3085L76.1173 60.2573C77.3495 61.627 78.7676 62.8622 80.4894 63.9757L80.4894 63.9766C84.6391 66.6598 89.1617 67.0683 93.6636 66.4469C97.5645 65.9084 101.555 64.5799 105.382 63.2193L107.011 62.6365C107.553 62.4424 108.085 62.2503 108.612 62.0633L110.172 61.5174C124.858 56.4658 140.575 56.8186 153.278 62.3984C158.564 64.7205 163.477 67.7172 168.324 70.6753C174.959 74.7244 181.411 78.6708 188.951 81.0414L189.685 81.2653C212.275 87.99 231.004 77.5538 247.759 66.7149C269.648 52.5535 300.318 49.4813 341.841 57.7356L341.84 57.7366C348.67 59.0942 355.611 60.6645 362.346 62.1888C377.079 65.5233 392.429 68.9996 407.575 70.4283C422.994 71.8817 437.933 69.7735 452.913 64.0171L452.017 61.1636C451.988 61.1708 451.961 61.1781 451.947 61.1819C451.929 61.1868 451.923 61.1877 451.92 61.1885L451.921 61.1884C447.335 62.3204 442.448 62.9534 437.286 63.0821C431.338 63.2304 425.026 62.7091 418.397 61.5094C413.091 60.548 407.652 59.1518 402.236 57.3591C397.337 55.7383 392.342 53.9883 387.499 52.2903L387.499 52.2893C377.696 48.8528 367.499 45.2798 357.276 42.4967C348.123 40.0047 338.749 38.3528 329.411 37.59C313.521 36.2918 297.273 37.5367 281.12 41.2849C273.445 43.0658 265.548 45.5281 257.645 48.6007L256.298 49.1306C254.957 49.6637 253.634 50.2052 252.328 50.7398L249.189 52.0156C241.926 54.9324 234.983 57.3408 226.741 57.441C218.525 57.5338 210.508 55.2354 202.896 50.5654C199.972 48.7717 197.335 46.4946 194.684 44.1998L194.683 44.1998C191.11 41.1091 187.53 37.9959 183.177 36.1326C180.497 34.9856 177.274 34.513 174.192 34.6354Z" fill="white" stroke="#ECE1D6" stroke-width="3"/>
<path d="M228.425 10.0739C218.41 9.41999 208.02 14.4153 203.177 22.3987C201.243 25.5863 200.091 29.3524 199.714 33.5601L199.691 33.8576C199.491 36.9658 200.429 41.0887 202.237 44.7992C204.102 48.6277 207.04 52.3159 211.01 53.9722L211.01 53.9712C211.043 53.9852 211.07 54.0011 211.092 54.016L211.228 54.1064L211.381 54.1651C216.372 56.0873 221.511 57.0503 226.735 56.9908L226.734 56.9918C235.962 56.891 243.852 53.6541 251.851 50.3751C253.179 49.8312 254.505 49.2882 255.844 48.7551L257.189 48.2252C265.154 45.1241 273.11 42.6421 280.831 40.8483C297.132 37.0595 313.521 35.8073 329.535 37.1169C338.949 37.887 348.403 39.5517 357.63 42.0659C366.597 44.5084 375.502 47.5438 384.214 50.589L387.935 51.8937C392.758 53.5853 397.759 55.3393 402.656 56.9606C408.012 58.7349 413.393 60.1191 418.651 61.0714C430.381 63.1966 441.169 63.1837 450.712 60.9831L451.632 60.7637C454.486 60.0582 457.362 59.0817 460.263 58.0128L459.619 55.112C456.861 55.3656 454.078 55.5339 451.273 55.6041C441.144 55.8576 430.725 54.9168 420.289 52.7701C407.022 50.0419 395.225 44.0944 383.624 38.2357C370.494 31.6051 357.843 25.202 342.921 23.1352C323.375 20.4271 304.809 21.544 286.184 26.5576C279.223 28.4325 272.018 31.0345 262.852 34.9731C260.936 35.7961 259.06 36.7176 257.118 37.671C252.25 40.0617 247.444 42.4103 242.073 43.2738L242.072 43.2738C238.764 43.8076 234.284 43.6672 230.31 42.5268C226.297 41.3753 223.143 39.314 221.908 36.2859L221.908 36.2849C220.891 33.7917 221.683 30.1559 223.877 27.988L223.877 27.9871C224.452 27.418 225.43 26.8764 226.629 26.5222C227.815 26.1719 229.074 26.0469 230.129 26.1885L230.128 26.1895C231.633 26.3929 232.581 27.0917 233.033 27.9933L233.033 27.9943C233.042 28.0128 233.042 28.0214 233.043 28.0234C233.043 28.0267 233.042 28.0363 233.035 28.0529C233.025 28.0762 232.996 28.1259 232.923 28.1729L232.834 28.2181L232.832 28.2191C232.691 28.2768 232.529 28.2791 232.391 28.2331C232.253 28.1869 232.196 28.1145 232.178 28.0792L232.101 27.9326C231.999 27.7541 231.811 27.4807 231.485 27.2311C231.068 26.9124 230.545 26.7196 229.927 26.6361L229.923 26.6352C228.894 26.4992 227.806 26.6816 226.935 26.9473C226.11 27.1988 225.194 27.6126 224.637 28.1634L224.636 28.1634C223.59 29.1984 222.891 30.5869 222.56 31.9763C222.231 33.3577 222.232 34.8933 222.773 36.2193L222.774 36.2183C224.132 39.5525 227.806 41.3901 231.41 42.3L231.867 42.4156L232.31 42.2472C232.385 42.2187 232.454 42.2055 232.521 42.2038C236.519 42.1038 239.898 40.9223 242.42 38.5596L242.661 38.3269C245.667 35.3546 247.131 30.7884 246.74 26.1596C246.387 21.9707 244.044 18.0927 240.741 15.2194C237.431 12.3402 233.052 10.3741 228.425 10.0748L228.425 10.0739Z" fill="white" stroke="#ECE1D6" stroke-width="3"/>
</svg>
