<svg width="317" height="221" viewBox="0 0 317 221" fill="none" xmlns="http://www.w3.org/2000/svg">
<mask id="path-1-outside-1_0_1" maskUnits="userSpaceOnUse" x="-2.83195" y="-1.40067" width="389.268" height="227.11" fill="black">
<rect fill="white" x="-2.83195" y="-1.40067" width="389.268" height="227.11"/>
<path d="M19.0446 115.342C13.4465 113.165 7.42968 113.869 1.56714 114.687C3.60688 113.818 5.57203 112.843 7.49708 111.887C8.34268 111.467 9.18827 111.048 10.0366 110.639C17.5474 107.021 24.9324 103.984 32.664 106.482C41.7263 109.41 49.8451 116.708 55.905 122.739C56.1264 122.96 56.3033 123.221 56.4875 123.474C56.8489 123.971 57.3002 124.588 57.9287 125.139C69.2838 135.109 91.7208 145.537 106.96 133.421C111.915 129.483 115.408 124.165 118.293 119.489C127.013 105.35 137.439 92.956 154.495 97.9188C154.901 98.0373 155.32 98.2286 155.805 98.45C156.367 98.7071 156.93 98.9576 157.53 99.155C157.771 99.2345 158.087 99.3541 158.441 99.4861C160.619 100.303 162.282 100.858 163.686 100.627C164.631 100.471 165.42 99.8226 165.76 98.9257C166.841 96.0744 164.284 93.8845 162.909 92.7077C162.687 92.5181 162.484 92.3513 162.347 92.2105C161.498 91.329 160.575 90.6427 159.68 89.9781C158.643 89.2078 157.665 88.4794 157.088 87.6228C150.942 78.4831 150.571 69.3433 156.015 61.1902C164.395 48.6412 185.202 40.9111 201.456 44.3202C209.36 45.9752 219.328 50.8854 221.924 64.8727L223.833 75.1551C224.102 76.6195 225.487 77.6009 226.962 77.3344C228.421 77.0758 229.396 75.6828 229.142 74.2147C227.622 65.4067 225.898 55.4236 228.643 46.5513C230.392 40.9024 234.104 35.2647 239.991 29.3175C261.164 7.92985 293.795 -1.4052 323.104 5.5344C336.888 8.79847 348.28 15.8754 358.955 27.8068C365.827 35.4867 374.129 45.8663 377.349 58.0728C382.03 75.8058 375.129 96.1694 360.176 108.745C346.182 120.513 326.13 125.207 306.539 121.297C300.961 120.186 295.907 118.436 291.476 116.153C288.983 114.097 286.218 112.217 283.172 110.579C282.549 110.035 281.927 109.49 281.353 108.913C268.616 96.1325 269.927 75.3173 278.445 63.3626C285.97 52.8029 297.439 50.2903 309.91 56.4629C313.795 58.3845 318.394 62.5842 319.312 67.2594C319.789 69.7012 319.152 71.8694 317.358 73.8887C316.368 75.0028 316.47 76.7151 317.583 77.7122C318.695 78.7077 320.399 78.6141 321.392 77.4991C324.298 74.2268 325.409 70.3307 324.606 66.2312C323.328 59.709 317.496 54.1874 312.283 51.608C297.42 44.2553 283.127 47.4669 274.053 60.2034C265.588 72.083 263.379 91.6008 272.435 106.231C264.006 103.812 254.081 103.052 242.613 104.778C230.752 106.563 215.054 114.015 209.844 129.148C204.252 145.382 214.344 162.063 226.682 169.514C234.816 174.426 246.113 175.383 254.156 171.848C260.286 169.153 264.231 164.238 265.566 157.636C267.639 147.371 261.339 136.987 251.81 134.958C246.552 133.839 241.664 134.696 238.732 137.249C237.172 138.608 235.375 141.129 235.669 145.417C235.852 148.071 237.441 150.668 239.813 152.198C241.998 153.606 244.525 153.934 246.752 153.09C248.145 152.563 248.845 151 248.313 149.602C247.783 148.202 246.221 147.499 244.832 148.023C243.959 148.354 243.064 147.87 242.72 147.646C241.772 147.036 241.118 146.021 241.051 145.06C240.936 143.379 241.336 142.163 242.277 141.344C243.894 139.935 247.198 139.505 250.706 140.255C258.082 141.824 261.608 149.944 260.276 156.544C259.292 161.418 256.499 164.898 251.976 166.887C245.437 169.764 236.172 168.936 229.453 164.878C218.938 158.526 210.28 144.471 214.944 130.932C219.37 118.078 233.054 111.694 243.428 110.133C258.634 107.846 270.839 110.265 280.169 115.146C282.601 117.195 285.356 119.003 288.345 120.6C293.725 125.099 297.636 130.5 300.108 135.978C307.775 152.972 303.922 176.575 292.266 193.439C292.033 193.522 291.805 193.625 291.594 193.776C290.885 194.282 290.506 195.07 290.477 195.881C287.606 199.618 284.334 202.966 280.694 205.748C264.93 217.792 238.544 221.075 221.863 213.065C210.178 207.452 200.305 196.99 193.823 183.428C196.766 182.449 199.421 181.108 201.701 179.426C207.358 175.253 210.79 168.731 210.656 162.403C210.626 160.909 209.391 159.718 207.901 159.745C207.898 159.745 207.896 159.745 207.892 159.745C206.406 159.777 205.23 161.009 205.26 162.501C205.357 167.097 202.766 171.91 198.494 175.061C194.725 177.842 189.587 179.501 183.638 179.858C170.858 180.636 158.881 175.474 145.875 163.658C144.767 162.652 143.062 162.734 142.064 163.842C141.066 164.949 141.154 166.662 142.261 167.667C155.649 179.829 168.744 185.621 182.231 185.334C182.812 185.322 183.394 185.298 183.977 185.264C185.452 185.175 186.879 185 188.27 184.771C190.44 193.664 181.647 202.529 175.719 206.575C165.957 213.232 152.249 214.605 139.942 210.156C128.575 206.048 118.574 196.224 111.736 182.484C115.725 177.759 117.275 171.511 116.506 166.151C115.517 159.234 110.349 151.839 98.8208 151.822C97.4153 151.82 92.4783 152.14 88.7528 156.34C85.6871 159.796 84.4994 164.67 85.2227 170.825C85.3981 172.311 86.77 173.376 88.2169 173.207C89.6976 173.037 90.7558 171.695 90.5803 170.209C90.0451 165.654 90.7884 162.202 92.7876 159.948C94.5662 157.945 97.105 157.242 98.8307 157.236C108.716 157.252 110.751 164.002 111.166 166.903C112.085 173.318 108.292 181.327 100.353 183.625C90.019 186.616 73.3839 183.277 66.0353 173.698C64.3092 171.448 64.5475 169.62 64.9085 166.851C65.1998 164.614 65.5317 162.076 64.6933 159.134C62.6457 151.932 56.1338 152.431 52.2566 152.725C50.9884 152.824 49.8152 152.846 48.4563 152.956C47.5005 153.032 46.4134 153.12 45.8176 152.955C40.4134 151.464 38.9475 146.289 37.3299 138.561C36.9062 136.534 36.5059 134.62 35.9609 132.812C33.4902 124.623 27.7974 118.746 19.0446 115.342Z"/>
</mask>
<path d="M19.0446 115.342C13.4465 113.165 7.42968 113.869 1.56714 114.687C3.60688 113.818 5.57203 112.843 7.49708 111.887C8.34268 111.467 9.18827 111.048 10.0366 110.639C17.5474 107.021 24.9324 103.984 32.664 106.482C41.7263 109.41 49.8451 116.708 55.905 122.739C56.1264 122.96 56.3033 123.221 56.4875 123.474C56.8489 123.971 57.3002 124.588 57.9287 125.139C69.2838 135.109 91.7208 145.537 106.96 133.421C111.915 129.483 115.408 124.165 118.293 119.489C127.013 105.35 137.439 92.956 154.495 97.9188C154.901 98.0373 155.32 98.2286 155.805 98.45C156.367 98.7071 156.93 98.9576 157.53 99.155C157.771 99.2345 158.087 99.3541 158.441 99.4861C160.619 100.303 162.282 100.858 163.686 100.627C164.631 100.471 165.42 99.8226 165.76 98.9257C166.841 96.0744 164.284 93.8845 162.909 92.7077C162.687 92.5181 162.484 92.3513 162.347 92.2105C161.498 91.329 160.575 90.6427 159.68 89.9781C158.643 89.2078 157.665 88.4794 157.088 87.6228C150.942 78.4831 150.571 69.3433 156.015 61.1902C164.395 48.6412 185.202 40.9111 201.456 44.3202C209.36 45.9752 219.328 50.8854 221.924 64.8727L223.833 75.1551C224.102 76.6195 225.487 77.6009 226.962 77.3344C228.421 77.0758 229.396 75.6828 229.142 74.2147C227.622 65.4067 225.898 55.4236 228.643 46.5513C230.392 40.9024 234.104 35.2647 239.991 29.3175C261.164 7.92985 293.795 -1.4052 323.104 5.5344C336.888 8.79847 348.28 15.8754 358.955 27.8068C365.827 35.4867 374.129 45.8663 377.349 58.0728C382.03 75.8058 375.129 96.1694 360.176 108.745C346.182 120.513 326.13 125.207 306.539 121.297C300.961 120.186 295.907 118.436 291.476 116.153C288.983 114.097 286.218 112.217 283.172 110.579C282.549 110.035 281.927 109.49 281.353 108.913C268.616 96.1325 269.927 75.3173 278.445 63.3626C285.97 52.8029 297.439 50.2903 309.91 56.4629C313.795 58.3845 318.394 62.5842 319.312 67.2594C319.789 69.7012 319.152 71.8694 317.358 73.8887C316.368 75.0028 316.47 76.7151 317.583 77.7122C318.695 78.7077 320.399 78.6141 321.392 77.4991C324.298 74.2268 325.409 70.3307 324.606 66.2312C323.328 59.709 317.496 54.1874 312.283 51.608C297.42 44.2553 283.127 47.4669 274.053 60.2034C265.588 72.083 263.379 91.6008 272.435 106.231C264.006 103.812 254.081 103.052 242.613 104.778C230.752 106.563 215.054 114.015 209.844 129.148C204.252 145.382 214.344 162.063 226.682 169.514C234.816 174.426 246.113 175.383 254.156 171.848C260.286 169.153 264.231 164.238 265.566 157.636C267.639 147.371 261.339 136.987 251.81 134.958C246.552 133.839 241.664 134.696 238.732 137.249C237.172 138.608 235.375 141.129 235.669 145.417C235.852 148.071 237.441 150.668 239.813 152.198C241.998 153.606 244.525 153.934 246.752 153.09C248.145 152.563 248.845 151 248.313 149.602C247.783 148.202 246.221 147.499 244.832 148.023C243.959 148.354 243.064 147.87 242.72 147.646C241.772 147.036 241.118 146.021 241.051 145.06C240.936 143.379 241.336 142.163 242.277 141.344C243.894 139.935 247.198 139.505 250.706 140.255C258.082 141.824 261.608 149.944 260.276 156.544C259.292 161.418 256.499 164.898 251.976 166.887C245.437 169.764 236.172 168.936 229.453 164.878C218.938 158.526 210.28 144.471 214.944 130.932C219.37 118.078 233.054 111.694 243.428 110.133C258.634 107.846 270.839 110.265 280.169 115.146C282.601 117.195 285.356 119.003 288.345 120.6C293.725 125.099 297.636 130.5 300.108 135.978C307.775 152.972 303.922 176.575 292.266 193.439C292.033 193.522 291.805 193.625 291.594 193.776C290.885 194.282 290.506 195.07 290.477 195.881C287.606 199.618 284.334 202.966 280.694 205.748C264.93 217.792 238.544 221.075 221.863 213.065C210.178 207.452 200.305 196.99 193.823 183.428C196.766 182.449 199.421 181.108 201.701 179.426C207.358 175.253 210.79 168.731 210.656 162.403C210.626 160.909 209.391 159.718 207.901 159.745C207.898 159.745 207.896 159.745 207.892 159.745C206.406 159.777 205.23 161.009 205.26 162.501C205.357 167.097 202.766 171.91 198.494 175.061C194.725 177.842 189.587 179.501 183.638 179.858C170.858 180.636 158.881 175.474 145.875 163.658C144.767 162.652 143.062 162.734 142.064 163.842C141.066 164.949 141.154 166.662 142.261 167.667C155.649 179.829 168.744 185.621 182.231 185.334C182.812 185.322 183.394 185.298 183.977 185.264C185.452 185.175 186.879 185 188.27 184.771C190.44 193.664 181.647 202.529 175.719 206.575C165.957 213.232 152.249 214.605 139.942 210.156C128.575 206.048 118.574 196.224 111.736 182.484C115.725 177.759 117.275 171.511 116.506 166.151C115.517 159.234 110.349 151.839 98.8208 151.822C97.4153 151.82 92.4783 152.14 88.7528 156.34C85.6871 159.796 84.4994 164.67 85.2227 170.825C85.3981 172.311 86.77 173.376 88.2169 173.207C89.6976 173.037 90.7558 171.695 90.5803 170.209C90.0451 165.654 90.7884 162.202 92.7876 159.948C94.5662 157.945 97.105 157.242 98.8307 157.236C108.716 157.252 110.751 164.002 111.166 166.903C112.085 173.318 108.292 181.327 100.353 183.625C90.019 186.616 73.3839 183.277 66.0353 173.698C64.3092 171.448 64.5475 169.62 64.9085 166.851C65.1998 164.614 65.5317 162.076 64.6933 159.134C62.6457 151.932 56.1338 152.431 52.2566 152.725C50.9884 152.824 49.8152 152.846 48.4563 152.956C47.5005 153.032 46.4134 153.12 45.8176 152.955C40.4134 151.464 38.9475 146.289 37.3299 138.561C36.9062 136.534 36.5059 134.62 35.9609 132.812C33.4902 124.623 27.7974 118.746 19.0446 115.342Z" fill="white"/>
<path d="M19.0446 115.342C13.4465 113.165 7.42968 113.869 1.56714 114.687C3.60688 113.818 5.57203 112.843 7.49708 111.887C8.34268 111.467 9.18827 111.048 10.0366 110.639C17.5474 107.021 24.9324 103.984 32.664 106.482C41.7263 109.41 49.8451 116.708 55.905 122.739C56.1264 122.96 56.3033 123.221 56.4875 123.474C56.8489 123.971 57.3002 124.588 57.9287 125.139C69.2838 135.109 91.7208 145.537 106.96 133.421C111.915 129.483 115.408 124.165 118.293 119.489C127.013 105.35 137.439 92.956 154.495 97.9188C154.901 98.0373 155.32 98.2286 155.805 98.45C156.367 98.7071 156.93 98.9576 157.53 99.155C157.771 99.2345 158.087 99.3541 158.441 99.4861C160.619 100.303 162.282 100.858 163.686 100.627C164.631 100.471 165.42 99.8226 165.76 98.9257C166.841 96.0744 164.284 93.8845 162.909 92.7077C162.687 92.5181 162.484 92.3513 162.347 92.2105C161.498 91.329 160.575 90.6427 159.68 89.9781C158.643 89.2078 157.665 88.4794 157.088 87.6228C150.942 78.4831 150.571 69.3433 156.015 61.1902C164.395 48.6412 185.202 40.9111 201.456 44.3202C209.36 45.9752 219.328 50.8854 221.924 64.8727L223.833 75.1551C224.102 76.6195 225.487 77.6009 226.962 77.3344C228.421 77.0758 229.396 75.6828 229.142 74.2147C227.622 65.4067 225.898 55.4236 228.643 46.5513C230.392 40.9024 234.104 35.2647 239.991 29.3175C261.164 7.92985 293.795 -1.4052 323.104 5.5344C336.888 8.79847 348.28 15.8754 358.955 27.8068C365.827 35.4867 374.129 45.8663 377.349 58.0728C382.03 75.8058 375.129 96.1694 360.176 108.745C346.182 120.513 326.13 125.207 306.539 121.297C300.961 120.186 295.907 118.436 291.476 116.153C288.983 114.097 286.218 112.217 283.172 110.579C282.549 110.035 281.927 109.49 281.353 108.913C268.616 96.1325 269.927 75.3173 278.445 63.3626C285.97 52.8029 297.439 50.2903 309.91 56.4629C313.795 58.3845 318.394 62.5842 319.312 67.2594C319.789 69.7012 319.152 71.8694 317.358 73.8887C316.368 75.0028 316.47 76.7151 317.583 77.7122C318.695 78.7077 320.399 78.6141 321.392 77.4991C324.298 74.2268 325.409 70.3307 324.606 66.2312C323.328 59.709 317.496 54.1874 312.283 51.608C297.42 44.2553 283.127 47.4669 274.053 60.2034C265.588 72.083 263.379 91.6008 272.435 106.231C264.006 103.812 254.081 103.052 242.613 104.778C230.752 106.563 215.054 114.015 209.844 129.148C204.252 145.382 214.344 162.063 226.682 169.514C234.816 174.426 246.113 175.383 254.156 171.848C260.286 169.153 264.231 164.238 265.566 157.636C267.639 147.371 261.339 136.987 251.81 134.958C246.552 133.839 241.664 134.696 238.732 137.249C237.172 138.608 235.375 141.129 235.669 145.417C235.852 148.071 237.441 150.668 239.813 152.198C241.998 153.606 244.525 153.934 246.752 153.09C248.145 152.563 248.845 151 248.313 149.602C247.783 148.202 246.221 147.499 244.832 148.023C243.959 148.354 243.064 147.87 242.72 147.646C241.772 147.036 241.118 146.021 241.051 145.06C240.936 143.379 241.336 142.163 242.277 141.344C243.894 139.935 247.198 139.505 250.706 140.255C258.082 141.824 261.608 149.944 260.276 156.544C259.292 161.418 256.499 164.898 251.976 166.887C245.437 169.764 236.172 168.936 229.453 164.878C218.938 158.526 210.28 144.471 214.944 130.932C219.37 118.078 233.054 111.694 243.428 110.133C258.634 107.846 270.839 110.265 280.169 115.146C282.601 117.195 285.356 119.003 288.345 120.6C293.725 125.099 297.636 130.5 300.108 135.978C307.775 152.972 303.922 176.575 292.266 193.439C292.033 193.522 291.805 193.625 291.594 193.776C290.885 194.282 290.506 195.07 290.477 195.881C287.606 199.618 284.334 202.966 280.694 205.748C264.93 217.792 238.544 221.075 221.863 213.065C210.178 207.452 200.305 196.99 193.823 183.428C196.766 182.449 199.421 181.108 201.701 179.426C207.358 175.253 210.79 168.731 210.656 162.403C210.626 160.909 209.391 159.718 207.901 159.745C207.898 159.745 207.896 159.745 207.892 159.745C206.406 159.777 205.23 161.009 205.26 162.501C205.357 167.097 202.766 171.91 198.494 175.061C194.725 177.842 189.587 179.501 183.638 179.858C170.858 180.636 158.881 175.474 145.875 163.658C144.767 162.652 143.062 162.734 142.064 163.842C141.066 164.949 141.154 166.662 142.261 167.667C155.649 179.829 168.744 185.621 182.231 185.334C182.812 185.322 183.394 185.298 183.977 185.264C185.452 185.175 186.879 185 188.27 184.771C190.44 193.664 181.647 202.529 175.719 206.575C165.957 213.232 152.249 214.605 139.942 210.156C128.575 206.048 118.574 196.224 111.736 182.484C115.725 177.759 117.275 171.511 116.506 166.151C115.517 159.234 110.349 151.839 98.8208 151.822C97.4153 151.82 92.4783 152.14 88.7528 156.34C85.6871 159.796 84.4994 164.67 85.2227 170.825C85.3981 172.311 86.77 173.376 88.2169 173.207C89.6976 173.037 90.7558 171.695 90.5803 170.209C90.0451 165.654 90.7884 162.202 92.7876 159.948C94.5662 157.945 97.105 157.242 98.8307 157.236C108.716 157.252 110.751 164.002 111.166 166.903C112.085 173.318 108.292 181.327 100.353 183.625C90.019 186.616 73.3839 183.277 66.0353 173.698C64.3092 171.448 64.5475 169.62 64.9085 166.851C65.1998 164.614 65.5317 162.076 64.6933 159.134C62.6457 151.932 56.1338 152.431 52.2566 152.725C50.9884 152.824 49.8152 152.846 48.4563 152.956C47.5005 153.032 46.4134 153.12 45.8176 152.955C40.4134 151.464 38.9475 146.289 37.3299 138.561C36.9062 136.534 36.5059 134.62 35.9609 132.812C33.4902 124.623 27.7974 118.746 19.0446 115.342Z" stroke="#ECE1D8" stroke-width="6" mask="url(#path-1-outside-1_0_1)"/>
<path d="M379.914 86.2345C376.704 95.9338 370.801 104.924 362.684 111.75C347.835 124.236 326.573 129.281 305.795 125.136C303.977 124.775 302.218 124.324 300.475 123.83L296.308 122.647L298.858 126.153C300.797 128.818 302.399 131.588 303.655 134.371C311.925 152.699 308.118 177.513 295.623 195.541L294.99 196.455L295.684 197.329C300.464 203.342 306.848 208.414 313.884 210.744C320.974 213.092 328.704 212.639 335.924 207.61L335.924 207.609C337.64 206.415 339.341 205.084 340.739 203.875C342.096 202.7 343.285 201.539 343.868 200.693L344.232 200.164L344.099 199.534C344.024 199.177 344.111 198.801 344.35 198.514L344.461 198.396C344.941 197.955 345.686 197.983 346.132 198.453L346.156 198.48C347.097 199.51 348.002 200.526 348.896 201.532L348.896 201.533C353.942 207.207 358.533 212.403 366.477 215.461C374.035 218.372 382.911 219.098 390.862 217.466L390.863 217.466C403.277 214.918 409.953 208.73 418.808 200.566C419.916 199.544 421.049 198.501 422.224 197.434C424.323 195.53 426.6 193.113 428.952 190.619C430.457 189.023 432.037 187.35 433.704 185.666L431.883 183.31C423.273 188.272 414.652 193.192 405.401 194.753C402.784 195.194 400.166 195.439 397.577 195.494C385.754 195.746 374.57 192.047 366.595 185.143L366.595 185.143C366.09 184.705 366.032 183.942 366.465 183.438L366.552 183.347C366.993 182.927 367.682 182.906 368.149 183.312L368.151 183.313C377.311 191.239 390.803 194.584 404.353 192.474L404.998 192.37C414.002 190.85 422.741 185.791 430.902 181.087C441.682 174.873 452.287 168.832 463.962 169.204L464.002 169.205L464.042 169.204C465.914 169.164 467.842 169.29 469.839 169.63L469.84 169.629C470.057 169.666 470.256 169.767 470.428 169.921L470.698 170.16L471.048 170.252C472.426 170.614 473.79 171.031 475.167 171.584L475.168 171.584C480.433 173.697 485.263 176.706 490.06 179.699C498.917 185.228 507.776 190.798 519.088 189.917L519.089 189.917C525.297 189.431 529.906 187.252 533.574 183.636C537.19 180.071 539.811 175.184 542.225 169.435C543.23 167.043 544.576 163.85 546.567 160.904C548.556 157.96 551.11 155.384 554.467 154.105L558.853 152.433L554.302 151.251C554.125 151.205 553.954 151.161 553.786 151.116L553.782 151.115C551.25 150.438 548.804 150.235 545.685 150.393L545.684 150.393C543.725 150.495 542.003 151.247 540.345 151.956C539.619 152.265 538.926 152.561 538.213 152.824L538.212 152.824C536.154 153.584 534.346 154.439 532.656 155.235C528.303 157.289 524.478 159.086 518.365 158.736C514.41 158.508 510.499 158.139 506.986 156.467C499.611 152.956 495.088 146.627 490.479 140.128C486.91 135.096 483.366 130.074 478.382 126.562L477.829 126.181C466.155 118.321 449.914 118.529 438.809 126.773L438.108 127.293L438.217 128.16C438.592 131.168 438.641 134.18 438.271 137.147L438.168 137.9C437.009 145.67 432.938 152.964 426.932 157.993C421.442 162.588 412.796 165.283 404.162 165.467C399.104 165.575 394.137 164.816 389.911 163.138L389.205 162.846C381.995 159.746 377.632 154.103 376.721 146.868L376.72 146.867C375.429 136.624 382.46 129.469 389.684 127.175L389.685 127.175C397.746 124.614 405.473 127.779 409.499 135.304L409.499 135.305C409.816 135.897 409.593 136.629 409.011 136.942C408.434 137.251 407.706 137.034 407.393 136.447L407.392 136.445C405.351 132.63 402.476 130.411 399.37 129.403C396.299 128.406 393.106 128.624 390.413 129.48C384.261 131.433 377.968 137.596 379.099 146.573C379.954 153.355 383.981 158.193 390.784 160.894C396.171 163.032 402.778 163.527 409.001 162.678C415.216 161.83 421.24 159.614 425.399 156.133C431.145 151.323 434.968 144.297 435.895 136.84C436.895 128.799 434.784 120.565 431.092 113.33C427.399 106.093 422.072 99.7499 416.482 95.4727L415.645 94.8497C406.884 88.5063 394.754 85.1779 381.33 85.21L380.253 85.2124L379.914 86.2345Z" fill="white" stroke="#ECE1D8" stroke-width="3"/>
</svg>
