<svg width="1920" height="1160" viewBox="0 0 1920 1160" fill="none" xmlns="http://www.w3.org/2000/svg">
<mask id="path-1-outside-1_0_1" maskUnits="userSpaceOnUse" x="-320.025" y="601.929" width="537.688" height="280.646" fill="black">
<rect fill="white" x="-320.025" y="601.929" width="537.688" height="280.646"/>
<path d="M-305.589 820.765C-298.189 817.38 -294.188 812.232 -291.646 808.172C-289.913 805.401 -288.78 802.44 -287.684 799.573C-285.649 794.252 -283.89 789.654 -278.801 787.407C-269.409 783.253 -257.051 786.474 -248.877 788.607C-235.684 792.043 -225.052 790.035 -218.528 782.995C-217.489 784.279 -216.413 785.526 -215.343 786.753C-211.243 791.459 -207.374 795.903 -206.635 801.876C-206.525 802.773 -206.769 803.692 -207.206 804.013C-208.477 804.951 -208.773 806.772 -207.865 808.084C-207.3 808.901 -206.401 809.327 -205.497 809.305C-204.949 809.292 -204.4 809.115 -203.92 808.761C-201.751 807.165 -200.642 804.242 -201.024 801.135C-201.985 793.351 -206.638 788.012 -211.135 782.847C-214.524 778.958 -217.726 775.283 -219.215 770.76C-221.343 764.301 -219.866 756.948 -215.162 750.585C-206.206 738.467 -187.097 731.029 -172.928 739.265C-169.823 741.071 -165.552 744.365 -163.29 747.891C-158.185 758.647 -149.369 764.424 -137.733 764.589C-136.73 764.601 -135.617 764.45 -134.547 764.301C-133.429 764.146 -131.367 763.858 -130.761 764.152C-130.775 764.184 -130.729 764.374 -130.726 764.746C-130.713 766.797 -130.819 768.876 -130.919 770.887C-131.264 777.685 -131.622 784.713 -127.53 791.614C-116.564 810.104 -93.8454 817.028 -77.7213 817.339C-76.9441 817.354 -76.1541 817.352 -75.3604 817.333C-55.6979 816.865 -31.6127 806.012 -21.7715 785.311C-21.0832 783.865 -21.6608 782.115 -23.0629 781.406C-24.461 780.699 -26.1594 781.294 -26.8477 782.743C-36.0477 802.087 -59.3417 811.838 -77.6139 811.503C-92.3097 811.219 -112.936 805.041 -122.708 788.565C-125.884 783.208 -125.601 777.638 -125.274 771.188C-125.167 769.094 -125.058 766.928 -125.07 764.707C-125.084 762.573 -125.746 760.904 -127.041 759.745C-129.334 757.688 -132.645 758.146 -135.3 758.517C-136.203 758.643 -137.063 758.753 -137.651 758.752C-146.872 758.621 -153.634 754.306 -157.829 746.02C-157.893 745.818 -157.974 745.617 -158.086 745.426C-158.19 745.246 -158.307 745.072 -158.417 744.896C-158.435 744.855 -158.458 744.822 -158.478 744.78C-166.063 728.01 -161.446 702.435 -152.255 690.773C-143.789 680.033 -125.626 671.563 -112.092 676.083C-107.026 677.77 -103.013 674.19 -99.7921 671.311C-98.8376 670.458 -97.9366 669.651 -97.0933 669.048C-91.0239 664.697 -81.4415 663.258 -72.699 665.379C-66.0942 666.979 -56.9679 671.256 -50.9306 682.521C-56.3715 693.453 -55.1616 706.874 -51.8943 716.707C-51.9311 716.965 -51.9479 717.228 -51.9154 717.499C-50.4368 729.628 -60.077 743.923 -72.5466 748.095C-85.0361 752.269 -102.619 748.087 -107.893 735.407C-109.916 730.54 -109.943 725.341 -107.972 720.367C-105.367 713.797 -99.5503 708.07 -92.4126 705.047C-88.8174 703.526 -81.5927 701.88 -77.5084 703.943C-76.2122 704.599 -75.4345 705.554 -75.0594 706.951C-74.7332 708.171 -74.868 709.284 -75.473 710.357C-76.5975 712.347 -79.2997 714.146 -82.3579 714.942C-83.8738 715.335 -84.7937 716.922 -84.4136 718.485C-84.0336 720.047 -82.4949 720.999 -80.9817 720.603C-77.4292 719.679 -72.8326 717.275 -70.5849 713.292C-69.2129 710.859 -68.8747 708.127 -69.6078 705.393C-70.4101 702.398 -72.2793 700.086 -75.0151 698.701C-81.2535 695.546 -90.5247 697.94 -94.5546 699.647C-103.066 703.25 -110.038 710.171 -113.205 718.159C-115.764 724.615 -115.723 731.375 -113.09 737.712C-108.009 749.931 -94.5302 755.808 -81.6873 755.501C-77.9284 755.411 -74.2261 754.792 -70.803 753.647C-59.1545 749.753 -49.8442 738.81 -47.0175 727.154C-39.0035 740.31 -24.9333 751.004 -8.96073 755.551C3.72091 759.158 27.1002 759.282 35.8798 744.25C37.6332 741.248 37.8859 738.122 38.1082 735.366C38.2648 733.428 38.4131 731.596 39.071 730.095C39.8111 728.407 40.3375 728.29 43.0092 727.951C43.5618 727.881 44.1423 727.808 44.7552 727.708C53.1606 726.343 59.7899 720.799 62.9456 712.494C66.5526 703.002 64.952 691.725 58.8647 683.764C52.4444 675.363 41.5997 670.884 29.8663 671.794C18.5165 672.67 8.77888 678.535 3.81847 687.485C3.04429 688.884 3.514 690.668 4.86897 691.466C6.22395 692.264 7.95267 691.781 8.72945 690.379C12.7536 683.117 20.8116 678.344 30.2847 677.614C40.0068 676.871 49.2499 680.607 54.4244 687.38C59.2891 693.744 60.5688 702.766 57.6801 710.365C55.2429 716.781 50.3427 720.893 43.8805 721.941C43.3349 722.029 42.818 722.095 42.3249 722.157C39.357 722.532 35.9924 722.958 33.9162 727.691C32.8541 730.112 32.6604 732.538 32.4703 734.885C32.2739 737.31 32.1061 739.404 31.0365 741.237C24.2505 752.854 4.4445 753.309 -7.45151 749.922C-25.2048 744.869 -40.3563 731.643 -46.0533 716.228C-49.3174 707.394 -50.9881 693.506 -44.953 683.445C-40.8161 676.548 -32.2438 665.328 -21.2906 667.667L-21.2853 667.669C-19.7602 667.998 -18.2592 666.979 -17.9423 665.403C-17.777 664.591 -17.9589 663.789 -18.3797 663.154C-18.6435 660.356 -17.257 649.524 -16.7887 647.657C-10.8972 625.711 12.2508 614.25 31.9488 610.846C54.3515 606.977 78.6613 616.765 93.8609 635.787C95.7785 638.189 97.5509 640.742 99.1274 643.372C104.223 651.872 107.151 661.207 107.593 670.364C108.009 678.992 105.574 685.386 102.754 692.789C102.169 694.323 101.573 695.893 100.983 697.528C100.663 698.293 100.387 699.083 100.158 699.893C99.727 701.41 100.546 703.007 102.006 703.489C103.459 703.974 105.032 703.169 105.539 701.677C105.77 701.002 106.003 700.337 106.239 699.679C107.923 695.75 111.238 692.682 116.118 690.542C127.228 685.669 143.368 687.087 151.465 691.472C165.743 699.199 177.06 715.798 178.372 730.937C178.883 736.817 176.84 740.011 174.014 744.43C172.88 746.201 171.708 748.035 170.602 750.211C170.598 750.215 170.597 750.219 170.595 750.223C169.869 751.651 170.403 753.415 171.786 754.162C172.795 754.707 173.977 754.563 174.824 753.888C177.061 753.871 183.976 756.354 185.429 757.219C201.052 766.528 212.721 785.187 213.174 801.583C213.491 813.08 208.426 822.707 198.528 829.423C189.455 835.577 178.633 839 168.057 839.06C163.475 839.086 158.995 838.201 154.255 837.265C147.857 836.001 141.244 834.698 134.334 835.801C123.89 837.474 114.23 841.849 104.887 846.079C96.02 850.096 86.8521 854.247 77.2454 855.907C71.5758 856.889 52.1353 859.272 40.2012 848.723C23.3752 833.849 19.9973 806.599 32.8246 789.215C41.3937 777.6 55.0632 769.418 69.3916 767.324C80.1997 765.743 90.8823 768.257 97.9495 774.042C106.688 781.195 108.581 793.867 102.171 802.291C100.18 804.906 97.527 806.903 94.7014 807.91C88.9727 809.953 82.0958 808.214 76.5718 806.817C75.0682 806.434 73.5247 807.389 73.1505 808.956C72.7777 810.522 73.7056 812.103 75.2226 812.487C81.4677 814.067 89.2458 816.033 96.5464 813.429C100.444 812.037 103.925 809.433 106.618 805.895C114.944 794.952 112.633 778.612 101.466 769.469C93.2098 762.709 80.9293 759.741 68.6015 761.545C52.8314 763.85 37.7737 772.874 28.3226 785.683C17.8221 799.915 16.6101 819.239 23.6579 835.384C11.1575 832.188 -4.49653 838.788 -11.703 846.684C-23.3997 859.5 -36.4059 872.077 -55.3684 872.853C-55.5432 872.861 -55.7194 872.867 -55.8929 872.871C-69.034 873.185 -79.9464 864.988 -90.5045 857.059C-91.5207 856.294 -92.5342 855.535 -93.5461 854.783C-100.658 849.502 -115.958 841.514 -128.197 845.086C-133.687 846.69 -137.814 850.557 -140.132 856.27C-140.734 857.758 -140.057 859.467 -138.615 860.087C-137.174 860.711 -135.518 860.008 -134.915 858.52C-133.241 854.392 -130.542 851.835 -126.66 850.703C-121.384 849.165 -114.342 850.553 -107.748 853.338C-107.752 853.556 -107.738 853.777 -107.692 853.999C-106.967 857.516 -114.577 863.564 -120.063 865.925C-126.352 868.632 -134.311 869.628 -142.48 868.733C-153.404 867.532 -165.51 861.754 -167.663 849.224C-166.684 848.801 -165.714 848.354 -164.764 847.856C-155.756 843.136 -149.032 835.277 -146.316 826.292C-143.965 818.521 -144.762 810.531 -148.618 803.185C-151.855 797.025 -157.352 793.175 -163.704 792.623C-169.582 792.115 -175.228 794.449 -178.475 798.717C-179.441 799.986 -179.227 801.821 -177.999 802.816C-176.77 803.811 -174.994 803.591 -174.027 802.322C-171.973 799.622 -168.103 798.088 -164.181 798.44C-161.585 798.665 -156.757 799.946 -153.591 805.97C-150.479 811.898 -149.829 818.325 -151.712 824.556C-153.976 832.045 -159.665 838.641 -167.319 842.65C-178.781 848.658 -192.93 848.491 -206.134 842.189C-213.852 838.506 -219.942 832.157 -226.389 825.438C-230.407 821.25 -234.561 816.921 -239.128 813.332C-243.897 809.583 -251.259 804.586 -260.09 804.481C-268.708 804.349 -275.191 809.113 -281.481 813.692C-287.455 818.041 -293.087 822.15 -300.115 821.748C-301.918 821.65 -303.719 821.244 -305.589 820.765Z"/>
</mask>
<path d="M-305.589 820.765C-298.189 817.38 -294.188 812.232 -291.646 808.172C-289.913 805.401 -288.78 802.44 -287.684 799.573C-285.649 794.252 -283.89 789.654 -278.801 787.407C-269.409 783.253 -257.051 786.474 -248.877 788.607C-235.684 792.043 -225.052 790.035 -218.528 782.995C-217.489 784.279 -216.413 785.526 -215.343 786.753C-211.243 791.459 -207.374 795.903 -206.635 801.876C-206.525 802.773 -206.769 803.692 -207.206 804.013C-208.477 804.951 -208.773 806.772 -207.865 808.084C-207.3 808.901 -206.401 809.327 -205.497 809.305C-204.949 809.292 -204.4 809.115 -203.92 808.761C-201.751 807.165 -200.642 804.242 -201.024 801.135C-201.985 793.351 -206.638 788.012 -211.135 782.847C-214.524 778.958 -217.726 775.283 -219.215 770.76C-221.343 764.301 -219.866 756.948 -215.162 750.585C-206.206 738.467 -187.097 731.029 -172.928 739.265C-169.823 741.071 -165.552 744.365 -163.29 747.891C-158.185 758.647 -149.369 764.424 -137.733 764.589C-136.73 764.601 -135.617 764.45 -134.547 764.301C-133.429 764.146 -131.367 763.858 -130.761 764.152C-130.775 764.184 -130.729 764.374 -130.726 764.746C-130.713 766.797 -130.819 768.876 -130.919 770.887C-131.264 777.685 -131.622 784.713 -127.53 791.614C-116.564 810.104 -93.8454 817.028 -77.7213 817.339C-76.9441 817.354 -76.1541 817.352 -75.3604 817.333C-55.6979 816.865 -31.6127 806.012 -21.7715 785.311C-21.0832 783.865 -21.6608 782.115 -23.0629 781.406C-24.461 780.699 -26.1594 781.294 -26.8477 782.743C-36.0477 802.087 -59.3417 811.838 -77.6139 811.503C-92.3097 811.219 -112.936 805.041 -122.708 788.565C-125.884 783.208 -125.601 777.638 -125.274 771.188C-125.167 769.094 -125.058 766.928 -125.07 764.707C-125.084 762.573 -125.746 760.904 -127.041 759.745C-129.334 757.688 -132.645 758.146 -135.3 758.517C-136.203 758.643 -137.063 758.753 -137.651 758.752C-146.872 758.621 -153.634 754.306 -157.829 746.02C-157.893 745.818 -157.974 745.617 -158.086 745.426C-158.19 745.246 -158.307 745.072 -158.417 744.896C-158.435 744.855 -158.458 744.822 -158.478 744.78C-166.063 728.01 -161.446 702.435 -152.255 690.773C-143.789 680.033 -125.626 671.563 -112.092 676.083C-107.026 677.77 -103.013 674.19 -99.7921 671.311C-98.8376 670.458 -97.9366 669.651 -97.0933 669.048C-91.0239 664.697 -81.4415 663.258 -72.699 665.379C-66.0942 666.979 -56.9679 671.256 -50.9306 682.521C-56.3715 693.453 -55.1616 706.874 -51.8943 716.707C-51.9311 716.965 -51.9479 717.228 -51.9154 717.499C-50.4368 729.628 -60.077 743.923 -72.5466 748.095C-85.0361 752.269 -102.619 748.087 -107.893 735.407C-109.916 730.54 -109.943 725.341 -107.972 720.367C-105.367 713.797 -99.5503 708.07 -92.4126 705.047C-88.8174 703.526 -81.5927 701.88 -77.5084 703.943C-76.2122 704.599 -75.4345 705.554 -75.0594 706.951C-74.7332 708.171 -74.868 709.284 -75.473 710.357C-76.5975 712.347 -79.2997 714.146 -82.3579 714.942C-83.8738 715.335 -84.7937 716.922 -84.4136 718.485C-84.0336 720.047 -82.4949 720.999 -80.9817 720.603C-77.4292 719.679 -72.8326 717.275 -70.5849 713.292C-69.2129 710.859 -68.8747 708.127 -69.6078 705.393C-70.4101 702.398 -72.2793 700.086 -75.0151 698.701C-81.2535 695.546 -90.5247 697.94 -94.5546 699.647C-103.066 703.25 -110.038 710.171 -113.205 718.159C-115.764 724.615 -115.723 731.375 -113.09 737.712C-108.009 749.931 -94.5302 755.808 -81.6873 755.501C-77.9284 755.411 -74.2261 754.792 -70.803 753.647C-59.1545 749.753 -49.8442 738.81 -47.0175 727.154C-39.0035 740.31 -24.9333 751.004 -8.96073 755.551C3.72091 759.158 27.1002 759.282 35.8798 744.25C37.6332 741.248 37.8859 738.122 38.1082 735.366C38.2648 733.428 38.4131 731.596 39.071 730.095C39.8111 728.407 40.3375 728.29 43.0092 727.951C43.5618 727.881 44.1423 727.808 44.7552 727.708C53.1606 726.343 59.7899 720.799 62.9456 712.494C66.5526 703.002 64.952 691.725 58.8647 683.764C52.4444 675.363 41.5997 670.884 29.8663 671.794C18.5165 672.67 8.77888 678.535 3.81847 687.485C3.04429 688.884 3.514 690.668 4.86897 691.466C6.22395 692.264 7.95267 691.781 8.72945 690.379C12.7536 683.117 20.8116 678.344 30.2847 677.614C40.0068 676.871 49.2499 680.607 54.4244 687.38C59.2891 693.744 60.5688 702.766 57.6801 710.365C55.2429 716.781 50.3427 720.893 43.8805 721.941C43.3349 722.029 42.818 722.095 42.3249 722.157C39.357 722.532 35.9924 722.958 33.9162 727.691C32.8541 730.112 32.6604 732.538 32.4703 734.885C32.2739 737.31 32.1061 739.404 31.0365 741.237C24.2505 752.854 4.4445 753.309 -7.45151 749.922C-25.2048 744.869 -40.3563 731.643 -46.0533 716.228C-49.3174 707.394 -50.9881 693.506 -44.953 683.445C-40.8161 676.548 -32.2438 665.328 -21.2906 667.667L-21.2853 667.669C-19.7602 667.998 -18.2592 666.979 -17.9423 665.403C-17.777 664.591 -17.9589 663.789 -18.3797 663.154C-18.6435 660.356 -17.257 649.524 -16.7887 647.657C-10.8972 625.711 12.2508 614.25 31.9488 610.846C54.3515 606.977 78.6613 616.765 93.8609 635.787C95.7785 638.189 97.5509 640.742 99.1274 643.372C104.223 651.872 107.151 661.207 107.593 670.364C108.009 678.992 105.574 685.386 102.754 692.789C102.169 694.323 101.573 695.893 100.983 697.528C100.663 698.293 100.387 699.083 100.158 699.893C99.727 701.41 100.546 703.007 102.006 703.489C103.459 703.974 105.032 703.169 105.539 701.677C105.77 701.002 106.003 700.337 106.239 699.679C107.923 695.75 111.238 692.682 116.118 690.542C127.228 685.669 143.368 687.087 151.465 691.472C165.743 699.199 177.06 715.798 178.372 730.937C178.883 736.817 176.84 740.011 174.014 744.43C172.88 746.201 171.708 748.035 170.602 750.211C170.598 750.215 170.597 750.219 170.595 750.223C169.869 751.651 170.403 753.415 171.786 754.162C172.795 754.707 173.977 754.563 174.824 753.888C177.061 753.871 183.976 756.354 185.429 757.219C201.052 766.528 212.721 785.187 213.174 801.583C213.491 813.08 208.426 822.707 198.528 829.423C189.455 835.577 178.633 839 168.057 839.06C163.475 839.086 158.995 838.201 154.255 837.265C147.857 836.001 141.244 834.698 134.334 835.801C123.89 837.474 114.23 841.849 104.887 846.079C96.02 850.096 86.8521 854.247 77.2454 855.907C71.5758 856.889 52.1353 859.272 40.2012 848.723C23.3752 833.849 19.9973 806.599 32.8246 789.215C41.3937 777.6 55.0632 769.418 69.3916 767.324C80.1997 765.743 90.8823 768.257 97.9495 774.042C106.688 781.195 108.581 793.867 102.171 802.291C100.18 804.906 97.527 806.903 94.7014 807.91C88.9727 809.953 82.0958 808.214 76.5718 806.817C75.0682 806.434 73.5247 807.389 73.1505 808.956C72.7777 810.522 73.7056 812.103 75.2226 812.487C81.4677 814.067 89.2458 816.033 96.5464 813.429C100.444 812.037 103.925 809.433 106.618 805.895C114.944 794.952 112.633 778.612 101.466 769.469C93.2098 762.709 80.9293 759.741 68.6015 761.545C52.8314 763.85 37.7737 772.874 28.3226 785.683C17.8221 799.915 16.6101 819.239 23.6579 835.384C11.1575 832.188 -4.49653 838.788 -11.703 846.684C-23.3997 859.5 -36.4059 872.077 -55.3684 872.853C-55.5432 872.861 -55.7194 872.867 -55.8929 872.871C-69.034 873.185 -79.9464 864.988 -90.5045 857.059C-91.5207 856.294 -92.5342 855.535 -93.5461 854.783C-100.658 849.502 -115.958 841.514 -128.197 845.086C-133.687 846.69 -137.814 850.557 -140.132 856.27C-140.734 857.758 -140.057 859.467 -138.615 860.087C-137.174 860.711 -135.518 860.008 -134.915 858.52C-133.241 854.392 -130.542 851.835 -126.66 850.703C-121.384 849.165 -114.342 850.553 -107.748 853.338C-107.752 853.556 -107.738 853.777 -107.692 853.999C-106.967 857.516 -114.577 863.564 -120.063 865.925C-126.352 868.632 -134.311 869.628 -142.48 868.733C-153.404 867.532 -165.51 861.754 -167.663 849.224C-166.684 848.801 -165.714 848.354 -164.764 847.856C-155.756 843.136 -149.032 835.277 -146.316 826.292C-143.965 818.521 -144.762 810.531 -148.618 803.185C-151.855 797.025 -157.352 793.175 -163.704 792.623C-169.582 792.115 -175.228 794.449 -178.475 798.717C-179.441 799.986 -179.227 801.821 -177.999 802.816C-176.77 803.811 -174.994 803.591 -174.027 802.322C-171.973 799.622 -168.103 798.088 -164.181 798.44C-161.585 798.665 -156.757 799.946 -153.591 805.97C-150.479 811.898 -149.829 818.325 -151.712 824.556C-153.976 832.045 -159.665 838.641 -167.319 842.65C-178.781 848.658 -192.93 848.491 -206.134 842.189C-213.852 838.506 -219.942 832.157 -226.389 825.438C-230.407 821.25 -234.561 816.921 -239.128 813.332C-243.897 809.583 -251.259 804.586 -260.09 804.481C-268.708 804.349 -275.191 809.113 -281.481 813.692C-287.455 818.041 -293.087 822.15 -300.115 821.748C-301.918 821.65 -303.719 821.244 -305.589 820.765Z" fill="white"/>
<path d="M-305.589 820.765C-298.189 817.38 -294.188 812.232 -291.646 808.172C-289.913 805.401 -288.78 802.44 -287.684 799.573C-285.649 794.252 -283.89 789.654 -278.801 787.407C-269.409 783.253 -257.051 786.474 -248.877 788.607C-235.684 792.043 -225.052 790.035 -218.528 782.995C-217.489 784.279 -216.413 785.526 -215.343 786.753C-211.243 791.459 -207.374 795.903 -206.635 801.876C-206.525 802.773 -206.769 803.692 -207.206 804.013C-208.477 804.951 -208.773 806.772 -207.865 808.084C-207.3 808.901 -206.401 809.327 -205.497 809.305C-204.949 809.292 -204.4 809.115 -203.92 808.761C-201.751 807.165 -200.642 804.242 -201.024 801.135C-201.985 793.351 -206.638 788.012 -211.135 782.847C-214.524 778.958 -217.726 775.283 -219.215 770.76C-221.343 764.301 -219.866 756.948 -215.162 750.585C-206.206 738.467 -187.097 731.029 -172.928 739.265C-169.823 741.071 -165.552 744.365 -163.29 747.891C-158.185 758.647 -149.369 764.424 -137.733 764.589C-136.73 764.601 -135.617 764.45 -134.547 764.301C-133.429 764.146 -131.367 763.858 -130.761 764.152C-130.775 764.184 -130.729 764.374 -130.726 764.746C-130.713 766.797 -130.819 768.876 -130.919 770.887C-131.264 777.685 -131.622 784.713 -127.53 791.614C-116.564 810.104 -93.8454 817.028 -77.7213 817.339C-76.9441 817.354 -76.1541 817.352 -75.3604 817.333C-55.6979 816.865 -31.6127 806.012 -21.7715 785.311C-21.0832 783.865 -21.6608 782.115 -23.0629 781.406C-24.461 780.699 -26.1594 781.294 -26.8477 782.743C-36.0477 802.087 -59.3417 811.838 -77.6139 811.503C-92.3097 811.219 -112.936 805.041 -122.708 788.565C-125.884 783.208 -125.601 777.638 -125.274 771.188C-125.167 769.094 -125.058 766.928 -125.07 764.707C-125.084 762.573 -125.746 760.904 -127.041 759.745C-129.334 757.688 -132.645 758.146 -135.3 758.517C-136.203 758.643 -137.063 758.753 -137.651 758.752C-146.872 758.621 -153.634 754.306 -157.829 746.02C-157.893 745.818 -157.974 745.617 -158.086 745.426C-158.19 745.246 -158.307 745.072 -158.417 744.896C-158.435 744.855 -158.458 744.822 -158.478 744.78C-166.063 728.01 -161.446 702.435 -152.255 690.773C-143.789 680.033 -125.626 671.563 -112.092 676.083C-107.026 677.77 -103.013 674.19 -99.7921 671.311C-98.8376 670.458 -97.9366 669.651 -97.0933 669.048C-91.0239 664.697 -81.4415 663.258 -72.699 665.379C-66.0942 666.979 -56.9679 671.256 -50.9306 682.521C-56.3715 693.453 -55.1616 706.874 -51.8943 716.707C-51.9311 716.965 -51.9479 717.228 -51.9154 717.499C-50.4368 729.628 -60.077 743.923 -72.5466 748.095C-85.0361 752.269 -102.619 748.087 -107.893 735.407C-109.916 730.54 -109.943 725.341 -107.972 720.367C-105.367 713.797 -99.5503 708.07 -92.4126 705.047C-88.8174 703.526 -81.5927 701.88 -77.5084 703.943C-76.2122 704.599 -75.4345 705.554 -75.0594 706.951C-74.7332 708.171 -74.868 709.284 -75.473 710.357C-76.5975 712.347 -79.2997 714.146 -82.3579 714.942C-83.8738 715.335 -84.7937 716.922 -84.4136 718.485C-84.0336 720.047 -82.4949 720.999 -80.9817 720.603C-77.4292 719.679 -72.8326 717.275 -70.5849 713.292C-69.2129 710.859 -68.8747 708.127 -69.6078 705.393C-70.4101 702.398 -72.2793 700.086 -75.0151 698.701C-81.2535 695.546 -90.5247 697.94 -94.5546 699.647C-103.066 703.25 -110.038 710.171 -113.205 718.159C-115.764 724.615 -115.723 731.375 -113.09 737.712C-108.009 749.931 -94.5302 755.808 -81.6873 755.501C-77.9284 755.411 -74.2261 754.792 -70.803 753.647C-59.1545 749.753 -49.8442 738.81 -47.0175 727.154C-39.0035 740.31 -24.9333 751.004 -8.96073 755.551C3.72091 759.158 27.1002 759.282 35.8798 744.25C37.6332 741.248 37.8859 738.122 38.1082 735.366C38.2648 733.428 38.4131 731.596 39.071 730.095C39.8111 728.407 40.3375 728.29 43.0092 727.951C43.5618 727.881 44.1423 727.808 44.7552 727.708C53.1606 726.343 59.7899 720.799 62.9456 712.494C66.5526 703.002 64.952 691.725 58.8647 683.764C52.4444 675.363 41.5997 670.884 29.8663 671.794C18.5165 672.67 8.77888 678.535 3.81847 687.485C3.04429 688.884 3.514 690.668 4.86897 691.466C6.22395 692.264 7.95267 691.781 8.72945 690.379C12.7536 683.117 20.8116 678.344 30.2847 677.614C40.0068 676.871 49.2499 680.607 54.4244 687.38C59.2891 693.744 60.5688 702.766 57.6801 710.365C55.2429 716.781 50.3427 720.893 43.8805 721.941C43.3349 722.029 42.818 722.095 42.3249 722.157C39.357 722.532 35.9924 722.958 33.9162 727.691C32.8541 730.112 32.6604 732.538 32.4703 734.885C32.2739 737.31 32.1061 739.404 31.0365 741.237C24.2505 752.854 4.4445 753.309 -7.45151 749.922C-25.2048 744.869 -40.3563 731.643 -46.0533 716.228C-49.3174 707.394 -50.9881 693.506 -44.953 683.445C-40.8161 676.548 -32.2438 665.328 -21.2906 667.667L-21.2853 667.669C-19.7602 667.998 -18.2592 666.979 -17.9423 665.403C-17.777 664.591 -17.9589 663.789 -18.3797 663.154C-18.6435 660.356 -17.257 649.524 -16.7887 647.657C-10.8972 625.711 12.2508 614.25 31.9488 610.846C54.3515 606.977 78.6613 616.765 93.8609 635.787C95.7785 638.189 97.5509 640.742 99.1274 643.372C104.223 651.872 107.151 661.207 107.593 670.364C108.009 678.992 105.574 685.386 102.754 692.789C102.169 694.323 101.573 695.893 100.983 697.528C100.663 698.293 100.387 699.083 100.158 699.893C99.727 701.41 100.546 703.007 102.006 703.489C103.459 703.974 105.032 703.169 105.539 701.677C105.77 701.002 106.003 700.337 106.239 699.679C107.923 695.75 111.238 692.682 116.118 690.542C127.228 685.669 143.368 687.087 151.465 691.472C165.743 699.199 177.06 715.798 178.372 730.937C178.883 736.817 176.84 740.011 174.014 744.43C172.88 746.201 171.708 748.035 170.602 750.211C170.598 750.215 170.597 750.219 170.595 750.223C169.869 751.651 170.403 753.415 171.786 754.162C172.795 754.707 173.977 754.563 174.824 753.888C177.061 753.871 183.976 756.354 185.429 757.219C201.052 766.528 212.721 785.187 213.174 801.583C213.491 813.08 208.426 822.707 198.528 829.423C189.455 835.577 178.633 839 168.057 839.06C163.475 839.086 158.995 838.201 154.255 837.265C147.857 836.001 141.244 834.698 134.334 835.801C123.89 837.474 114.23 841.849 104.887 846.079C96.02 850.096 86.8521 854.247 77.2454 855.907C71.5758 856.889 52.1353 859.272 40.2012 848.723C23.3752 833.849 19.9973 806.599 32.8246 789.215C41.3937 777.6 55.0632 769.418 69.3916 767.324C80.1997 765.743 90.8823 768.257 97.9495 774.042C106.688 781.195 108.581 793.867 102.171 802.291C100.18 804.906 97.527 806.903 94.7014 807.91C88.9727 809.953 82.0958 808.214 76.5718 806.817C75.0682 806.434 73.5247 807.389 73.1505 808.956C72.7777 810.522 73.7056 812.103 75.2226 812.487C81.4677 814.067 89.2458 816.033 96.5464 813.429C100.444 812.037 103.925 809.433 106.618 805.895C114.944 794.952 112.633 778.612 101.466 769.469C93.2098 762.709 80.9293 759.741 68.6015 761.545C52.8314 763.85 37.7737 772.874 28.3226 785.683C17.8221 799.915 16.6101 819.239 23.6579 835.384C11.1575 832.188 -4.49653 838.788 -11.703 846.684C-23.3997 859.5 -36.4059 872.077 -55.3684 872.853C-55.5432 872.861 -55.7194 872.867 -55.8929 872.871C-69.034 873.185 -79.9464 864.988 -90.5045 857.059C-91.5207 856.294 -92.5342 855.535 -93.5461 854.783C-100.658 849.502 -115.958 841.514 -128.197 845.086C-133.687 846.69 -137.814 850.557 -140.132 856.27C-140.734 857.758 -140.057 859.467 -138.615 860.087C-137.174 860.711 -135.518 860.008 -134.915 858.52C-133.241 854.392 -130.542 851.835 -126.66 850.703C-121.384 849.165 -114.342 850.553 -107.748 853.338C-107.752 853.556 -107.738 853.777 -107.692 853.999C-106.967 857.516 -114.577 863.564 -120.063 865.925C-126.352 868.632 -134.311 869.628 -142.48 868.733C-153.404 867.532 -165.51 861.754 -167.663 849.224C-166.684 848.801 -165.714 848.354 -164.764 847.856C-155.756 843.136 -149.032 835.277 -146.316 826.292C-143.965 818.521 -144.762 810.531 -148.618 803.185C-151.855 797.025 -157.352 793.175 -163.704 792.623C-169.582 792.115 -175.228 794.449 -178.475 798.717C-179.441 799.986 -179.227 801.821 -177.999 802.816C-176.77 803.811 -174.994 803.591 -174.027 802.322C-171.973 799.622 -168.103 798.088 -164.181 798.44C-161.585 798.665 -156.757 799.946 -153.591 805.97C-150.479 811.898 -149.829 818.325 -151.712 824.556C-153.976 832.045 -159.665 838.641 -167.319 842.65C-178.781 848.658 -192.93 848.491 -206.134 842.189C-213.852 838.506 -219.942 832.157 -226.389 825.438C-230.407 821.25 -234.561 816.921 -239.128 813.332C-243.897 809.583 -251.259 804.586 -260.09 804.481C-268.708 804.349 -275.191 809.113 -281.481 813.692C-287.455 818.041 -293.087 822.15 -300.115 821.748C-301.918 821.65 -303.719 821.244 -305.589 820.765Z" stroke="#ECE1D6" stroke-width="6" mask="url(#path-1-outside-1_0_1)"/>
<mask id="path-2-outside-2_0_1" maskUnits="userSpaceOnUse" x="-177.496" y="882.662" width="480.982" height="269.431" fill="black">
<rect fill="white" x="-177.496" y="882.662" width="480.982" height="269.431"/>
<path d="M-151.373 1021.35C-158.318 1018.78 -165.789 1019.63 -173.068 1020.61C-170.534 1019.58 -168.092 1018.42 -165.7 1017.28C-164.649 1016.78 -163.599 1016.28 -162.545 1015.79C-153.212 1011.48 -144.037 1007.87 -134.445 1010.81C-123.202 1014.27 -113.141 1022.9 -105.633 1030.04C-105.359 1030.31 -105.14 1030.61 -104.912 1030.92C-104.465 1031.5 -103.906 1032.23 -103.127 1032.89C-89.0551 1044.69 -61.2273 1057.01 -42.2802 1042.6C-36.1192 1037.92 -31.7703 1031.6 -28.1772 1026.05C-17.3177 1009.26 -4.34524 994.538 16.8164 1000.39C17.3191 1000.53 17.8393 1000.75 18.4414 1001.01C19.1381 1001.32 19.8366 1001.61 20.5809 1001.85C20.8801 1001.94 21.2718 1002.08 21.7111 1002.24C24.4127 1003.2 26.4761 1003.86 28.2185 1003.58C29.3927 1003.39 30.3733 1002.62 30.7973 1001.56C32.1469 998.172 28.9775 995.581 27.2739 994.188C26.9984 993.963 26.7471 993.766 26.5777 993.599C25.5256 992.556 24.3812 991.743 23.2715 990.957C21.9871 990.046 20.7738 989.184 20.0605 988.169C12.4522 977.342 12.014 966.502 18.7919 956.819C29.2252 941.916 55.0743 932.701 75.2432 936.709C85.0509 938.655 97.4135 944.457 100.602 961.042L102.946 973.234C103.277 974.97 104.994 976.131 106.827 975.812C108.638 975.502 109.852 973.848 109.54 972.107C107.674 961.663 105.558 949.825 108.988 939.296C111.173 932.591 115.794 925.896 123.118 918.829C149.453 893.414 189.984 882.269 226.351 890.436C243.454 894.278 257.578 902.647 270.802 916.775C279.314 925.87 289.594 938.163 293.562 952.634C299.33 973.658 290.714 997.827 272.121 1012.78C254.72 1026.77 229.816 1032.38 205.506 1027.78C198.584 1026.48 192.314 1024.41 186.818 1021.71C183.729 1019.28 180.301 1017.06 176.524 1015.12C175.752 1014.48 174.981 1013.83 174.269 1013.15C158.489 998.018 160.167 973.325 170.77 959.126C180.138 946.585 194.381 943.579 209.848 950.873C214.666 953.144 220.365 958.115 221.493 963.659C222.08 966.554 221.284 969.127 219.052 971.526C217.82 972.85 217.942 974.881 219.322 976.061C220.7 977.239 222.815 977.125 224.051 975.8C227.666 971.912 229.055 967.288 228.068 962.428C226.497 954.694 219.271 948.158 212.806 945.11C194.372 936.421 176.622 940.262 165.326 955.389C154.788 969.498 151.999 992.654 163.205 1009.99C152.748 1007.14 140.429 1006.26 126.188 1008.33C111.46 1010.47 91.9545 1019.35 85.4497 1037.31C78.468 1056.58 90.956 1076.34 106.254 1085.15C116.34 1090.96 130.361 1092.07 140.355 1087.86C147.971 1084.65 152.881 1078.81 154.553 1070.98C157.151 1058.8 149.356 1046.49 137.533 1044.11C131.007 1042.79 124.937 1043.82 121.292 1046.85C119.352 1048.47 117.114 1051.46 117.47 1056.55C117.69 1059.7 119.656 1062.77 122.597 1064.58C125.306 1066.25 128.443 1066.63 131.209 1065.62C132.939 1065 133.812 1063.14 133.155 1061.48C132.501 1059.82 130.564 1058.99 128.838 1059.62C127.754 1060.01 126.644 1059.44 126.216 1059.18C125.041 1058.45 124.232 1057.25 124.151 1056.11C124.012 1054.12 124.513 1052.68 125.683 1051.7C127.693 1050.03 131.796 1049.51 136.148 1050.39C145.301 1052.24 149.659 1061.86 147.989 1069.69C146.756 1075.48 143.28 1079.61 137.66 1081.98C129.537 1085.4 118.036 1084.44 109.706 1079.64C96.6678 1072.13 85.9538 1055.48 91.7766 1039.41C97.3022 1024.16 114.305 1016.55 127.188 1014.68C146.069 1011.93 161.215 1014.78 172.785 1020.54C175.8 1022.97 179.215 1025.11 182.922 1027C189.589 1032.32 194.431 1038.72 197.486 1045.21C206.963 1065.35 202.123 1093.36 187.612 1113.38C187.322 1113.48 187.038 1113.61 186.776 1113.79C185.896 1114.39 185.423 1115.32 185.384 1116.28C181.811 1120.72 177.741 1124.7 173.216 1128.01C153.618 1142.33 120.854 1146.28 100.166 1136.82C85.6744 1130.19 73.4434 1117.8 65.4291 1101.73C69.0854 1100.56 72.3843 1098.96 75.2185 1096.96C82.2514 1092 86.5276 1084.26 86.3776 1076.75C86.343 1074.98 84.8127 1073.57 82.9639 1073.6C82.9598 1073.6 82.9577 1073.6 82.9526 1073.6C81.1081 1073.64 79.6443 1075.11 79.6788 1076.88C79.7877 1082.33 76.5591 1088.04 71.2485 1091.79C66.5626 1095.1 60.1807 1097.08 52.7946 1097.51C36.9278 1098.46 22.0716 1092.37 5.95474 1078.38C4.58264 1077.19 2.46514 1077.29 1.22403 1078.61C-0.0171104 1079.92 0.0872286 1081.95 1.45932 1083.15C18.0493 1097.54 34.2907 1104.38 51.0344 1104.01C51.7563 1104 52.479 1103.97 53.2025 1103.93C55.0331 1103.82 56.8049 1103.61 58.5329 1103.33C61.2053 1113.87 50.2673 1124.41 42.8989 1129.22C30.7649 1137.14 13.7444 1138.8 -1.52349 1133.55C-15.6238 1128.7 -28.0148 1117.07 -36.4708 1100.79C-31.5073 1095.17 -29.5682 1087.76 -30.5091 1081.4C-31.7206 1073.2 -38.118 1064.44 -52.4287 1064.45C-54.1735 1064.45 -60.303 1064.84 -64.938 1069.83C-68.7522 1073.93 -70.2385 1079.72 -69.3555 1087.02C-69.1414 1088.78 -67.4408 1090.04 -65.6443 1089.83C-63.8057 1089.63 -62.4889 1088.04 -62.7031 1086.27C-63.3564 1080.87 -62.4253 1076.78 -59.938 1074.1C-57.7251 1071.72 -54.5718 1070.88 -52.4295 1070.87C-40.1574 1070.86 -37.6487 1078.87 -37.1403 1082.31C-36.0147 1089.91 -40.7427 1099.42 -50.6043 1102.17C-63.4398 1105.74 -84.0824 1101.81 -93.1815 1090.47C-95.3189 1087.8 -95.0186 1085.63 -94.5637 1082.35C-94.1966 1079.69 -93.7784 1076.68 -94.8121 1073.19C-97.3365 1064.66 -105.421 1065.26 -110.235 1065.62C-111.81 1065.74 -113.266 1065.77 -114.954 1065.9C-116.14 1065.99 -117.49 1066.1 -118.229 1065.91C-124.934 1064.15 -126.741 1058.01 -128.731 1048.85C-129.252 1046.45 -129.744 1044.18 -130.416 1042.04C-133.464 1032.33 -140.516 1025.37 -151.373 1021.35Z"/>
</mask>
<path d="M-151.373 1021.35C-158.318 1018.78 -165.789 1019.63 -173.068 1020.61C-170.534 1019.58 -168.092 1018.42 -165.7 1017.28C-164.649 1016.78 -163.599 1016.28 -162.545 1015.79C-153.212 1011.48 -144.037 1007.87 -134.445 1010.81C-123.202 1014.27 -113.141 1022.9 -105.633 1030.04C-105.359 1030.31 -105.14 1030.61 -104.912 1030.92C-104.465 1031.5 -103.906 1032.23 -103.127 1032.89C-89.0551 1044.69 -61.2273 1057.01 -42.2802 1042.6C-36.1192 1037.92 -31.7703 1031.6 -28.1772 1026.05C-17.3177 1009.26 -4.34524 994.538 16.8164 1000.39C17.3191 1000.53 17.8393 1000.75 18.4414 1001.01C19.1381 1001.32 19.8366 1001.61 20.5809 1001.85C20.8801 1001.94 21.2718 1002.08 21.7111 1002.24C24.4127 1003.2 26.4761 1003.86 28.2185 1003.58C29.3927 1003.39 30.3733 1002.62 30.7973 1001.56C32.1469 998.172 28.9775 995.581 27.2739 994.188C26.9984 993.963 26.7471 993.766 26.5777 993.599C25.5256 992.556 24.3812 991.743 23.2715 990.957C21.9871 990.046 20.7738 989.184 20.0605 988.169C12.4522 977.342 12.014 966.502 18.7919 956.819C29.2252 941.916 55.0743 932.701 75.2432 936.709C85.0509 938.655 97.4135 944.457 100.602 961.042L102.946 973.234C103.277 974.97 104.994 976.131 106.827 975.812C108.638 975.502 109.852 973.848 109.54 972.107C107.674 961.663 105.558 949.825 108.988 939.296C111.173 932.591 115.794 925.896 123.118 918.829C149.453 893.414 189.984 882.269 226.351 890.436C243.454 894.278 257.578 902.647 270.802 916.775C279.314 925.87 289.594 938.163 293.562 952.634C299.33 973.658 290.714 997.827 272.121 1012.78C254.72 1026.77 229.816 1032.38 205.506 1027.78C198.584 1026.48 192.314 1024.41 186.818 1021.71C183.729 1019.28 180.301 1017.06 176.524 1015.12C175.752 1014.48 174.981 1013.83 174.269 1013.15C158.489 998.018 160.167 973.325 170.77 959.126C180.138 946.585 194.381 943.579 209.848 950.873C214.666 953.144 220.365 958.115 221.493 963.659C222.08 966.554 221.284 969.127 219.052 971.526C217.82 972.85 217.942 974.881 219.322 976.061C220.7 977.239 222.815 977.125 224.051 975.8C227.666 971.912 229.055 967.288 228.068 962.428C226.497 954.694 219.271 948.158 212.806 945.11C194.372 936.421 176.622 940.262 165.326 955.389C154.788 969.498 151.999 992.654 163.205 1009.99C152.748 1007.14 140.429 1006.26 126.188 1008.33C111.46 1010.47 91.9545 1019.35 85.4497 1037.31C78.468 1056.58 90.956 1076.34 106.254 1085.15C116.34 1090.96 130.361 1092.07 140.355 1087.86C147.971 1084.65 152.881 1078.81 154.553 1070.98C157.151 1058.8 149.356 1046.49 137.533 1044.11C131.007 1042.79 124.937 1043.82 121.292 1046.85C119.352 1048.47 117.114 1051.46 117.47 1056.55C117.69 1059.7 119.656 1062.77 122.597 1064.58C125.306 1066.25 128.443 1066.63 131.209 1065.62C132.939 1065 133.812 1063.14 133.155 1061.48C132.501 1059.82 130.564 1058.99 128.838 1059.62C127.754 1060.01 126.644 1059.44 126.216 1059.18C125.041 1058.45 124.232 1057.25 124.151 1056.11C124.012 1054.12 124.513 1052.68 125.683 1051.7C127.693 1050.03 131.796 1049.51 136.148 1050.39C145.301 1052.24 149.659 1061.86 147.989 1069.69C146.756 1075.48 143.28 1079.61 137.66 1081.98C129.537 1085.4 118.036 1084.44 109.706 1079.64C96.6678 1072.13 85.9538 1055.48 91.7766 1039.41C97.3022 1024.16 114.305 1016.55 127.188 1014.68C146.069 1011.93 161.215 1014.78 172.785 1020.54C175.8 1022.97 179.215 1025.11 182.922 1027C189.589 1032.32 194.431 1038.72 197.486 1045.21C206.963 1065.35 202.123 1093.36 187.612 1113.38C187.322 1113.48 187.038 1113.61 186.776 1113.79C185.896 1114.39 185.423 1115.32 185.384 1116.28C181.811 1120.72 177.741 1124.7 173.216 1128.01C153.618 1142.33 120.854 1146.28 100.166 1136.82C85.6744 1130.19 73.4434 1117.8 65.4291 1101.73C69.0854 1100.56 72.3843 1098.96 75.2185 1096.96C82.2514 1092 86.5276 1084.26 86.3776 1076.75C86.343 1074.98 84.8127 1073.57 82.9639 1073.6C82.9598 1073.6 82.9577 1073.6 82.9526 1073.6C81.1081 1073.64 79.6443 1075.11 79.6788 1076.88C79.7877 1082.33 76.5591 1088.04 71.2485 1091.79C66.5626 1095.1 60.1807 1097.08 52.7946 1097.51C36.9278 1098.46 22.0716 1092.37 5.95474 1078.38C4.58264 1077.19 2.46514 1077.29 1.22403 1078.61C-0.0171104 1079.92 0.0872286 1081.95 1.45932 1083.15C18.0493 1097.54 34.2907 1104.38 51.0344 1104.01C51.7563 1104 52.479 1103.97 53.2025 1103.93C55.0331 1103.82 56.8049 1103.61 58.5329 1103.33C61.2053 1113.87 50.2673 1124.41 42.8989 1129.22C30.7649 1137.14 13.7444 1138.8 -1.52349 1133.55C-15.6238 1128.7 -28.0148 1117.07 -36.4708 1100.79C-31.5073 1095.17 -29.5682 1087.76 -30.5091 1081.4C-31.7206 1073.2 -38.118 1064.44 -52.4287 1064.45C-54.1735 1064.45 -60.303 1064.84 -64.938 1069.83C-68.7522 1073.93 -70.2385 1079.72 -69.3555 1087.02C-69.1414 1088.78 -67.4408 1090.04 -65.6443 1089.83C-63.8057 1089.63 -62.4889 1088.04 -62.7031 1086.27C-63.3564 1080.87 -62.4253 1076.78 -59.938 1074.1C-57.7251 1071.72 -54.5718 1070.88 -52.4295 1070.87C-40.1574 1070.86 -37.6487 1078.87 -37.1403 1082.31C-36.0147 1089.91 -40.7427 1099.42 -50.6043 1102.17C-63.4398 1105.74 -84.0824 1101.81 -93.1815 1090.47C-95.3189 1087.8 -95.0186 1085.63 -94.5637 1082.35C-94.1966 1079.69 -93.7784 1076.68 -94.8121 1073.19C-97.3365 1064.66 -105.421 1065.26 -110.235 1065.62C-111.81 1065.74 -113.266 1065.77 -114.954 1065.9C-116.14 1065.99 -117.49 1066.1 -118.229 1065.91C-124.934 1064.15 -126.741 1058.01 -128.731 1048.85C-129.252 1046.45 -129.744 1044.18 -130.416 1042.04C-133.464 1032.33 -140.516 1025.37 -151.373 1021.35Z" fill="white"/>
<path d="M-151.373 1021.35C-158.318 1018.78 -165.789 1019.63 -173.068 1020.61C-170.534 1019.58 -168.092 1018.42 -165.7 1017.28C-164.649 1016.78 -163.599 1016.28 -162.545 1015.79C-153.212 1011.48 -144.037 1007.87 -134.445 1010.81C-123.202 1014.27 -113.141 1022.9 -105.633 1030.04C-105.359 1030.31 -105.14 1030.61 -104.912 1030.92C-104.465 1031.5 -103.906 1032.23 -103.127 1032.89C-89.0551 1044.69 -61.2273 1057.01 -42.2802 1042.6C-36.1192 1037.92 -31.7703 1031.6 -28.1772 1026.05C-17.3177 1009.26 -4.34524 994.538 16.8164 1000.39C17.3191 1000.53 17.8393 1000.75 18.4414 1001.01C19.1381 1001.32 19.8366 1001.61 20.5809 1001.85C20.8801 1001.94 21.2718 1002.08 21.7111 1002.24C24.4127 1003.2 26.4761 1003.86 28.2185 1003.58C29.3927 1003.39 30.3733 1002.62 30.7973 1001.56C32.1469 998.172 28.9775 995.581 27.2739 994.188C26.9984 993.963 26.7471 993.766 26.5777 993.599C25.5256 992.556 24.3812 991.743 23.2715 990.957C21.9871 990.046 20.7738 989.184 20.0605 988.169C12.4522 977.342 12.014 966.502 18.7919 956.819C29.2252 941.916 55.0743 932.701 75.2432 936.709C85.0509 938.655 97.4135 944.457 100.602 961.042L102.946 973.234C103.277 974.97 104.994 976.131 106.827 975.812C108.638 975.502 109.852 973.848 109.54 972.107C107.674 961.663 105.558 949.825 108.988 939.296C111.173 932.591 115.794 925.896 123.118 918.829C149.453 893.414 189.984 882.269 226.351 890.436C243.454 894.278 257.578 902.647 270.802 916.775C279.314 925.87 289.594 938.163 293.562 952.634C299.33 973.658 290.714 997.827 272.121 1012.78C254.72 1026.77 229.816 1032.38 205.506 1027.78C198.584 1026.48 192.314 1024.41 186.818 1021.71C183.729 1019.28 180.301 1017.06 176.524 1015.12C175.752 1014.48 174.981 1013.83 174.269 1013.15C158.489 998.018 160.167 973.325 170.77 959.126C180.138 946.585 194.381 943.579 209.848 950.873C214.666 953.144 220.365 958.115 221.493 963.659C222.08 966.554 221.284 969.127 219.052 971.526C217.82 972.85 217.942 974.881 219.322 976.061C220.7 977.239 222.815 977.125 224.051 975.8C227.666 971.912 229.055 967.288 228.068 962.428C226.497 954.694 219.271 948.158 212.806 945.11C194.372 936.421 176.622 940.262 165.326 955.389C154.788 969.498 151.999 992.654 163.205 1009.99C152.748 1007.14 140.429 1006.26 126.188 1008.33C111.46 1010.47 91.9545 1019.35 85.4497 1037.31C78.468 1056.58 90.956 1076.34 106.254 1085.15C116.34 1090.96 130.361 1092.07 140.355 1087.86C147.971 1084.65 152.881 1078.81 154.553 1070.98C157.151 1058.8 149.356 1046.49 137.533 1044.11C131.007 1042.79 124.937 1043.82 121.292 1046.85C119.352 1048.47 117.114 1051.46 117.47 1056.55C117.69 1059.7 119.656 1062.77 122.597 1064.58C125.306 1066.25 128.443 1066.63 131.209 1065.62C132.939 1065 133.812 1063.14 133.155 1061.48C132.501 1059.82 130.564 1058.99 128.838 1059.62C127.754 1060.01 126.644 1059.44 126.216 1059.18C125.041 1058.45 124.232 1057.25 124.151 1056.11C124.012 1054.12 124.513 1052.68 125.683 1051.7C127.693 1050.03 131.796 1049.51 136.148 1050.39C145.301 1052.24 149.659 1061.86 147.989 1069.69C146.756 1075.48 143.28 1079.61 137.66 1081.98C129.537 1085.4 118.036 1084.44 109.706 1079.64C96.6678 1072.13 85.9538 1055.48 91.7766 1039.41C97.3022 1024.16 114.305 1016.55 127.188 1014.68C146.069 1011.93 161.215 1014.78 172.785 1020.54C175.8 1022.97 179.215 1025.11 182.922 1027C189.589 1032.32 194.431 1038.72 197.486 1045.21C206.963 1065.35 202.123 1093.36 187.612 1113.38C187.322 1113.48 187.038 1113.61 186.776 1113.79C185.896 1114.39 185.423 1115.32 185.384 1116.28C181.811 1120.72 177.741 1124.7 173.216 1128.01C153.618 1142.33 120.854 1146.28 100.166 1136.82C85.6744 1130.19 73.4434 1117.8 65.4291 1101.73C69.0854 1100.56 72.3843 1098.96 75.2185 1096.96C82.2514 1092 86.5276 1084.26 86.3776 1076.75C86.343 1074.98 84.8127 1073.57 82.9639 1073.6C82.9598 1073.6 82.9577 1073.6 82.9526 1073.6C81.1081 1073.64 79.6443 1075.11 79.6788 1076.88C79.7877 1082.33 76.5591 1088.04 71.2485 1091.79C66.5626 1095.1 60.1807 1097.08 52.7946 1097.51C36.9278 1098.46 22.0716 1092.37 5.95474 1078.38C4.58264 1077.19 2.46514 1077.29 1.22403 1078.61C-0.0171104 1079.92 0.0872286 1081.95 1.45932 1083.15C18.0493 1097.54 34.2907 1104.38 51.0344 1104.01C51.7563 1104 52.479 1103.97 53.2025 1103.93C55.0331 1103.82 56.8049 1103.61 58.5329 1103.33C61.2053 1113.87 50.2673 1124.41 42.8989 1129.22C30.7649 1137.14 13.7444 1138.8 -1.52349 1133.55C-15.6238 1128.7 -28.0148 1117.07 -36.4708 1100.79C-31.5073 1095.17 -29.5682 1087.76 -30.5091 1081.4C-31.7206 1073.2 -38.118 1064.44 -52.4287 1064.45C-54.1735 1064.45 -60.303 1064.84 -64.938 1069.83C-68.7522 1073.93 -70.2385 1079.72 -69.3555 1087.02C-69.1414 1088.78 -67.4408 1090.04 -65.6443 1089.83C-63.8057 1089.63 -62.4889 1088.04 -62.7031 1086.27C-63.3564 1080.87 -62.4253 1076.78 -59.938 1074.1C-57.7251 1071.72 -54.5718 1070.88 -52.4295 1070.87C-40.1574 1070.86 -37.6487 1078.87 -37.1403 1082.31C-36.0147 1089.91 -40.7427 1099.42 -50.6043 1102.17C-63.4398 1105.74 -84.0824 1101.81 -93.1815 1090.47C-95.3189 1087.8 -95.0186 1085.63 -94.5637 1082.35C-94.1966 1079.69 -93.7784 1076.68 -94.8121 1073.19C-97.3365 1064.66 -105.421 1065.26 -110.235 1065.62C-111.81 1065.74 -113.266 1065.77 -114.954 1065.9C-116.14 1065.99 -117.49 1066.1 -118.229 1065.91C-124.934 1064.15 -126.741 1058.01 -128.731 1048.85C-129.252 1046.45 -129.744 1044.18 -130.416 1042.04C-133.464 1032.33 -140.516 1025.37 -151.373 1021.35Z" stroke="#ECE1D8" stroke-width="6" mask="url(#path-2-outside-2_0_1)"/>
<path d="M297.03 986.098C293.008 997.648 285.63 1008.37 275.486 1016.53C256.929 1031.44 230.392 1037.5 204.489 1032.61L204.488 1032.61C202.218 1032.18 200.025 1031.65 197.856 1031.06L193.613 1029.92L196.274 1033.42C198.686 1036.59 200.678 1039.89 202.237 1043.2C212.497 1065.01 207.693 1094.53 192.092 1116L191.407 1116.94L192.153 1117.84C198.047 1124.93 205.906 1130.88 214.543 1133.6C223.224 1136.34 232.679 1135.79 241.543 1129.89C243.666 1128.47 245.772 1126.9 247.501 1125.47C249.188 1124.07 250.637 1122.71 251.337 1121.74L251.73 1121.2L251.586 1120.55C251.467 1120 251.636 1119.4 252.127 1118.97L252.127 1118.97C252.89 1118.3 254.089 1118.35 254.774 1119.06L254.792 1119.08C255.376 1119.69 255.948 1120.3 256.512 1120.9L258.188 1122.7C264.446 1129.42 270.082 1135.51 279.838 1139.09C289.14 1142.5 300.075 1143.33 309.869 1141.4C325.162 1138.37 333.394 1131.09 344.414 1121.38C345.103 1120.77 345.8 1120.16 346.508 1119.54L348.665 1117.65C351.264 1115.4 354.086 1112.54 357.015 1109.57C358.887 1107.68 360.855 1105.69 362.931 1103.68L361.162 1101.29C350.476 1107.19 339.699 1113.08 328.124 1114.97C324.853 1115.5 321.583 1115.8 318.347 1115.87C303.575 1116.2 289.6 1111.8 279.641 1103.57L279.641 1103.57C278.891 1102.95 278.819 1101.91 279.452 1101.2L279.454 1101.2C280.123 1100.46 281.322 1100.37 282.104 1101.01L282.106 1101.02C293.543 1110.47 310.507 1114.36 327.491 1111.59C337.198 1110.01 346.678 1105.24 355.702 1100.31L359.541 1098.2C372.913 1090.82 386.196 1083.56 400.831 1083.98L400.869 1083.98L400.907 1083.98C403.257 1083.93 405.678 1084.08 408.183 1084.48L408.184 1084.48C408.538 1084.54 408.85 1084.69 409.107 1084.91L409.376 1085.14L409.718 1085.22C411.225 1085.6 412.722 1086.02 414.231 1086.57L414.878 1086.81C421.446 1089.32 427.463 1092.9 433.406 1096.43C444.412 1102.98 455.283 1109.49 469.167 1108.43L469.168 1108.43C476.778 1107.85 482.418 1105.29 486.918 1101.05C491.37 1096.86 494.618 1091.1 497.627 1084.28C498.879 1081.44 500.567 1077.63 503.062 1074.11C505.555 1070.59 508.781 1067.46 513.056 1065.9L517.672 1064.21L512.895 1063.03C512.676 1062.98 512.463 1062.93 512.252 1062.87L512.248 1062.87C509.158 1062.09 506.169 1061.85 502.331 1062.05L502.329 1062.05C499.985 1062.17 497.915 1063.03 495.84 1063.88L495.841 1063.88C494.941 1064.25 494.07 1064.6 493.174 1064.92L493.173 1064.92C490.635 1065.82 488.402 1066.83 486.301 1067.78L486.3 1067.78C480.887 1070.23 476.051 1072.41 468.347 1072C463.437 1071.74 458.51 1071.31 454.073 1069.3C444.827 1065.11 439.182 1057.53 433.488 1049.85C429.061 1043.88 424.705 1037.98 418.583 1033.86L418.582 1033.86C404.2 1024.2 383.817 1024.33 369.933 1034.19L369.199 1034.71L369.315 1035.6C369.748 1038.96 369.822 1042.33 369.442 1045.65L369.36 1046.32C368.091 1055.92 362.906 1065.01 355.13 1071.24L354.471 1071.75C347.545 1076.96 337.047 1080.01 326.594 1080.24C320.268 1080.38 314.046 1079.48 308.745 1077.48C299.15 1073.85 293.366 1066.92 292.208 1057.99L292.14 1057.42C290.89 1045.46 299.591 1037.05 308.583 1034.31C318.811 1031.19 328.58 1035.04 333.621 1044.06L333.621 1044.06C334.035 1044.8 333.814 1045.75 333.034 1046.25L332.871 1046.35L332.693 1046.43C331.793 1046.78 330.766 1046.41 330.335 1045.64L330.335 1045.64C325.277 1036.58 316.285 1035.56 309.734 1037.56C302.367 1039.81 294.756 1046.82 295.823 1057.08L295.881 1057.57C296.915 1065.54 301.838 1071.17 310.15 1074.31C316.751 1076.81 324.875 1077.38 332.547 1076.37C340.21 1075.35 347.615 1072.73 352.718 1068.65C359.795 1062.99 364.528 1054.71 365.691 1045.91C366.945 1036.42 364.359 1026.7 359.81 1018.16C355.26 1009.62 348.69 1002.14 341.805 997.113L341.293 996.744C330.476 989.058 315.303 985.025 298.438 985.093L297.379 985.098L297.03 986.098Z" fill="white" stroke="#ECE1D8" stroke-width="3"/>
<path d="M257.541 1.77018C252.47 1.96896 247.455 3.26437 243.663 5.70797C238.818 8.83259 236.428 13.4471 236.632 19.245L236.632 19.2459C236.738 22.2115 238.189 25.1343 240.494 26.8942L240.495 26.8942C241.769 27.8646 243.955 28.9385 246.806 28.2974L246.806 28.2984C247.387 28.1693 248.009 27.9467 248.52 27.6537C248.77 27.5098 249.064 27.309 249.31 27.0388C249.537 26.7887 249.898 26.2808 249.841 25.5761L249.841 25.5732C249.769 24.7014 250.38 23.9069 251.264 23.7453L251.444 23.7216C252.462 23.6506 253.258 24.3666 253.332 25.2913L253.333 25.2942C253.569 28.1585 251.59 30.7551 247.581 31.6497C244.304 32.3796 241.028 31.6602 238.341 29.6071L238.34 29.6062C235.882 27.7312 234.151 24.9289 233.463 21.8219L233.348 21.3058L232.936 20.9762C232.844 20.9032 232.761 20.8483 232.703 20.8126C232.685 20.8012 232.667 20.7903 232.653 20.7815C222.606 10.4443 214.028 5.06787 204.918 3.80342C191.149 1.88646 176.019 5.51821 160.008 14.3914L158.853 15.0478C153.112 18.3843 147.877 22.552 142.461 26.8605C133.681 33.8468 124.855 40.8469 113.948 44.1865L113.949 44.1864C108.011 46.0015 101.285 46.0998 95.3411 44.1286L90.4699 42.5137L93.7043 46.4986C95.7185 48.9799 98.0368 51.224 100.859 53.257C107.592 58.1057 114.954 58.9103 122.389 57.807C129.764 56.7124 137.345 53.7177 144.596 50.8619C145.956 50.3267 147.29 49.8013 148.602 49.2965L149.907 48.7988C174.712 39.4372 201.334 40.2111 222.942 50.8253C231.905 55.2287 240.233 60.8921 248.387 66.4373C259.933 74.2899 271.035 81.851 284.114 86.2308C321.688 98.8063 352.748 79.7605 380.785 59.7135C417.733 33.2925 469.483 27.8691 539.363 43.6057C550.855 46.1938 562.535 49.1795 573.854 52.0738C598.631 58.409 624.378 64.9938 649.758 67.7718C675.527 70.5904 700.463 66.806 725.45 56.2556L724.466 53.4277C724.425 53.4391 724.385 53.4511 724.36 53.4585C724.338 53.4649 724.325 53.4691 724.314 53.4722C716.551 55.5646 708.282 56.7129 699.553 56.9121C689.5 57.1416 678.837 56.1111 667.646 53.8112C658.685 51.9681 649.502 49.3117 640.355 45.9133L637.254 44.7542C630.007 42.0257 622.678 39.1443 615.552 36.342C599.058 29.8573 581.939 23.1289 564.787 17.8714C549.45 13.1699 533.75 10.0276 518.117 8.53543C491.513 5.99602 464.326 8.1746 437.313 15.0058C424.483 18.2503 411.281 22.7601 398.071 28.4047C395.056 29.6921 392.094 31.0257 389.174 32.3401L389.173 32.3401C375.03 38.7093 361.939 44.553 345.935 44.6912L344.627 44.6879C331.117 44.5189 317.917 40.1173 305.355 31.5297C300.348 28.1069 295.839 23.7791 291.379 19.491L291.378 19.491C285.335 13.6838 279.418 7.97962 272.259 4.55131C267.9 2.46477 262.619 1.57115 257.541 1.77018Z" fill="white" stroke="#ECE1D8" stroke-width="3"/>
<path d="M584.216 1085.49C580.429 1085.63 576.661 1086.6 573.792 1088.45C570.22 1090.75 568.392 1094.14 568.422 1098.36L568.432 1098.77C568.513 1101.07 569.634 1103.33 571.432 1104.7L571.433 1104.71C572.431 1105.47 574.158 1106.32 576.408 1105.81L576.408 1105.81C576.866 1105.71 577.364 1105.53 577.781 1105.29C577.985 1105.18 578.24 1105 578.459 1104.76C578.659 1104.54 579.005 1104.06 578.951 1103.39L578.951 1103.39C578.915 1102.95 579.22 1102.54 579.678 1102.46L579.771 1102.45C580.308 1102.41 580.7 1102.78 580.737 1103.24L580.737 1103.24C580.89 1105.1 579.627 1106.88 576.806 1107.51C574.505 1108.02 572.212 1107.52 570.324 1106.08L570.323 1106.08C568.592 1104.75 567.364 1102.77 566.876 1100.57L566.761 1100.05L566.349 1099.72C566.267 1099.66 566.192 1099.61 566.142 1099.58C558.73 1091.96 552.343 1087.94 545.514 1086.99L545.514 1086.99C535.259 1085.56 524.025 1088.27 512.18 1094.83L512.179 1094.83C508.152 1097.07 504.487 1099.86 500.786 1102.79L499.196 1104.06L499.196 1104.06C492.718 1109.21 486.272 1114.32 478.319 1116.75C474.015 1118.07 469.144 1118.14 464.849 1116.71L459.978 1115.1L463.212 1119.08C464.717 1120.94 466.45 1122.62 468.56 1124.14C473.627 1127.79 479.165 1128.38 484.711 1127.56C489.512 1126.85 494.422 1125.05 499.147 1123.21L501.16 1122.42C501.828 1122.15 502.487 1121.89 503.138 1121.64L505.068 1120.9C523.252 1114.04 542.752 1114.61 558.564 1122.38C565.139 1125.61 571.253 1129.76 577.265 1133.85C585.764 1139.63 593.987 1145.24 603.684 1148.48C631.576 1157.82 654.615 1143.66 675.265 1128.89C702.355 1109.52 740.349 1105.51 791.787 1117.09C800.248 1118.99 808.847 1121.19 817.188 1123.33C835.437 1127.99 854.435 1132.85 873.167 1134.9C892.223 1136.99 910.663 1134.19 929.132 1126.39L928.149 1123.56C928.115 1123.57 928.082 1123.58 928.064 1123.58C928.052 1123.59 928.044 1123.59 928.039 1123.59C922.352 1125.12 916.292 1125.97 909.89 1126.11C902.516 1126.28 894.69 1125.53 886.469 1123.84L885.233 1123.58C879.045 1122.24 872.721 1120.38 866.419 1118.03C860.345 1115.78 854.153 1113.34 848.152 1110.98L843.575 1109.19C832.845 1104.98 821.793 1100.76 810.72 1097.37C799.396 1093.89 787.802 1091.57 776.256 1090.47C756.608 1088.6 736.532 1090.21 716.588 1095.25C707.114 1097.65 697.367 1100.97 687.617 1105.14C685.391 1106.09 683.205 1107.08 681.053 1108.04C670.625 1112.74 661.052 1117.01 649.356 1117.11C639.155 1117.19 629.178 1113.97 619.683 1107.48C616.025 1104.98 612.726 1101.82 609.436 1098.65L607.769 1097.05C603.877 1093.35 599.92 1089.81 595.245 1087.57C591.965 1086 588.009 1085.34 584.216 1085.49Z" fill="white" stroke="#ECE1D8" stroke-width="3"/>
<path d="M651.179 1052.15C638.819 1051.2 626.127 1057.98 620.289 1068.69C617.963 1072.96 616.582 1078.02 616.147 1083.7L616.121 1084.09C615.9 1088.19 617.043 1093.73 619.269 1098.76C621.559 1103.93 625.143 1108.9 629.96 1111.15L629.961 1111.15C630.018 1111.17 630.07 1111.21 630.117 1111.24L630.255 1111.34L630.414 1111.41C636.378 1113.98 642.51 1115.33 648.74 1115.37L649.343 1115.36C660.715 1115.28 670.423 1110.91 680.302 1106.46C681.941 1105.72 683.579 1104.99 685.234 1104.26L686.897 1103.55C696.746 1099.34 706.586 1095.98 716.139 1093.56C736.306 1088.46 756.594 1086.84 776.435 1088.74C788.099 1089.85 799.818 1092.19 811.262 1095.7C822.378 1099.11 833.42 1103.33 844.215 1107.56L848.826 1109.37C854.803 1111.72 860.998 1114.15 867.063 1116.4C873.688 1118.87 880.344 1120.79 886.843 1122.13L886.842 1122.13C901.813 1125.21 915.524 1125.16 927.562 1121.91C931.076 1120.96 934.621 1119.65 938.2 1118.2L937.494 1115.32C934.078 1115.65 930.631 1115.86 927.158 1115.94C914.612 1116.23 901.7 1114.87 888.762 1111.86C872.296 1108.03 857.639 1099.79 843.256 1091.68L843.256 1091.68C826.972 1082.51 811.322 1073.67 792.892 1070.76C768.719 1066.93 745.783 1068.35 722.797 1075.1C714.744 1077.47 706.429 1080.71 696.101 1085.5L694.008 1086.48L693.126 1086.91C691.071 1087.91 689.041 1089.01 686.943 1090.14C680.935 1093.39 674.969 1096.6 668.292 1097.76L668.291 1097.76C664.175 1098.47 658.603 1098.25 653.646 1096.66C648.677 1095.05 644.596 1092.16 642.958 1087.75L642.958 1087.75C641.575 1084.03 642.637 1078.77 645.457 1075.68L645.607 1075.52C646.386 1074.74 647.583 1074.04 648.988 1073.59C650.478 1073.11 652.063 1072.94 653.4 1073.15C655.294 1073.44 656.612 1074.44 657.275 1075.9L657.275 1075.9C657.457 1076.3 657.306 1076.77 656.911 1077L656.829 1077.04L656.826 1077.04C656.365 1077.25 655.834 1077.04 655.638 1076.61L655.636 1076.6C655.565 1076.45 655.372 1076.02 654.912 1075.63C654.458 1075.24 653.861 1074.99 653.116 1074.87L653.111 1074.87C651.873 1074.68 650.558 1074.92 649.501 1075.27C648.485 1075.61 647.416 1076.15 646.798 1076.83C645.578 1078.17 644.768 1079.97 644.389 1081.76C644.012 1083.55 644.031 1085.5 644.647 1087.16L644.646 1087.16C646.243 1091.46 650.609 1093.98 655.098 1095.25L655.602 1095.4L656.085 1095.2C656.202 1095.15 656.312 1095.12 656.418 1095.12C661.34 1095.01 665.442 1093.41 668.466 1090.28L668.755 1089.97C672.342 1086.04 674.074 1079.98 673.58 1073.82C672.701 1062.85 662.451 1053.02 651.179 1052.15L651.179 1052.15Z" fill="white" stroke="#ECE1D8" stroke-width="3"/>
<path d="M98.4439 249.859C83.765 262.236 61.6827 264.849 45.4809 255.909C41.8118 253.885 38.4427 254.907 35.2156 255.932L35.2146 255.932C34.1968 256.255 33.1471 256.59 32.0961 256.809L32.0951 256.809C27.5515 257.753 22.3001 257.899 16.5093 257.259L16.5103 257.259C1.81383 255.653 -11.1509 247.906 -20.8922 237.535C-30.6278 227.171 -37.2345 214.093 -39.152 201.653L-39.467 199.61L-37.4287 199.95C-32.3024 200.807 -26.4652 200.621 -21.3241 198.978C-16.1953 197.34 -11.8543 194.29 -9.47167 189.472C-7.06991 184.614 -7.23391 179.133 -10.0359 173.907L-10.3155 173.402L-10.3155 173.401C-13.9792 166.975 -20.9572 162.333 -28.0099 161.579C-30.9496 161.264 -34.0345 161.974 -36.6588 163.484L-38.892 164.769L-38.9106 162.188C-38.9793 152.797 -37.2024 130.247 -20.3477 111.668C-3.05662 92.6059 24.9335 82.8726 62.5152 82.4075L64.3118 82.393C65.0947 82.3892 65.677 81.8137 65.7404 81.1432L65.7462 81.0076L65.7462 81.0056C65.739 80.2903 65.1387 79.6501 64.3243 79.6297C64.2951 79.629 64.2838 79.6286 64.2765 79.6285C24.4339 79.8089 -4.68238 90.1077 -22.6116 109.92C-45.2087 134.89 -41.7311 165.825 -41.5806 167.05L-41.5806 167.051C-41.5721 167.119 -41.5548 167.2 -41.5232 167.298L-41.3278 167.905L-41.6296 168.465C-42.7936 170.631 -43.2186 173.081 -42.7946 175.643L-42.7652 175.777C-42.5818 176.437 -41.887 176.919 -41.1221 176.802L-41.1211 176.802C-40.3512 176.684 -39.8689 176.036 -39.9094 175.368L-39.9242 175.234L-39.9242 175.233C-40.5213 171.626 -38.9311 169.103 -37.539 167.673L-37.54 167.672C-35.2083 165.276 -31.6261 163.983 -28.3209 164.323L-28.3151 164.323L-28.3151 164.324C-22.384 164.959 -16.4172 168.893 -13.1703 174.189L-12.8646 174.705C-10.3219 179.163 -9.98865 184.015 -12.0999 188.285C-14.7099 193.562 -20.1754 196.29 -25.8582 197.285C-31.5568 198.283 -37.7951 197.607 -42.446 195.75L-42.445 195.75C-50.0702 192.709 -55.189 185.511 -58.1381 177.116C-61.0955 168.697 -61.9635 158.839 -60.9195 150.04C-57.6376 122.372 -39.1031 97.6152 -10.3053 82.0164C21.1167 64.9948 58.2428 62.3688 86.62 75.3528C95.0313 79.2006 102.829 84.4217 110.27 89.6135L113.438 91.8322C120.904 97.0729 128.526 102.42 136.771 106.658C151.357 114.158 168.22 116.248 182.995 112.442C186.862 111.445 190.617 110.156 194.309 108.886C205.667 104.98 216.119 101.321 228.105 106.834L228.105 106.835C233.004 109.087 239.357 114.149 242.837 119.444L245.359 123.283L241.061 121.668C237.302 120.255 232.948 119.721 228.475 120.232L227.485 120.359C217.303 121.796 208.857 127.162 200.383 132.574L198.452 133.805C193.959 136.658 189.535 139.359 184.783 141.378C169.484 147.878 154.523 144.036 144.79 139.764L144.789 139.764C144.543 139.655 144.311 139.539 144.113 139.439L143.565 139.167L143.426 139.103L143.304 139.013C143.185 138.926 143.085 138.867 142.996 138.827L142.91 138.794L142.909 138.793L142.599 138.684L142.515 138.656L142.435 138.617C136.029 135.526 130.167 131.656 124.124 127.597C120.266 125.007 116.321 122.358 112.257 119.966C81.6279 101.949 50.5412 108.483 34.6908 121.926C17.1797 136.782 9.94412 163.658 17.8016 184.305L17.797 184.292C17.8046 184.306 17.8118 184.32 17.828 184.35C17.842 184.376 17.863 184.413 17.8844 184.455L18.1689 185.006L17.9828 185.595C15.8332 192.405 16.765 200.183 19.6422 206.692C26.3059 221.767 41.4841 230.352 57.3943 228.109L57.3943 228.108C67.2468 226.723 73.158 216.991 72.3781 208.979L72.3353 208.599L72.2428 207.973C71.7139 204.885 70.1972 202.504 67.9881 200.922C65.6139 199.221 62.3141 198.356 58.3135 198.7L58.1617 198.721C57.4182 198.859 56.9434 199.515 57.0088 200.191L57.0088 200.192C57.079 200.917 57.7857 201.523 58.5923 201.451L58.5943 201.451C62.3273 201.122 64.9924 201.913 66.7871 203.486C68.5598 205.04 69.2307 207.137 69.4513 208.905L69.4513 208.906C69.8861 212.396 68.7852 216.207 66.6191 219.27C64.4425 222.348 61.105 224.791 56.9511 225.375L56.9501 225.375C42.5884 227.39 28.8693 219.711 22.6114 206.28L22.319 205.636L22.3191 205.635C19.9891 200.362 18.9715 194.295 20.1123 188.691C21.2633 183.036 24.6057 177.915 30.8344 174.682C37.2073 171.375 43.1675 172.289 49.4598 173.208L49.4598 173.207C50.5109 173.36 51.5615 173.514 52.6279 173.654L52.6279 173.655C56.5402 174.161 59.1797 172.253 61.7122 170.396L61.7122 170.395C62.6658 169.696 63.6762 168.952 64.7449 168.386L64.7459 168.385C73.445 163.785 84.2456 164.86 92.9188 171.01C103.371 178.419 109.045 193.709 106.258 206.675C105.033 212.376 100.936 222.564 87.5587 225.298C86.8001 225.454 86.3521 226.122 86.4278 226.79L86.4504 226.923C86.61 227.65 87.3669 228.168 88.1843 228L88.1862 228C97.6341 226.07 104.542 220.21 107.795 211.655L109.434 207.345L110.645 211.807C114.474 225.918 110.443 239.33 99.1371 249.261L98.4439 249.859Z" fill="white" stroke="#ECE1D6" stroke-width="3"/>
<path d="M18.9105 178.144C14.2928 159.318 21.3466 136.944 36.5993 124.002C51.8982 111.022 81.5569 105.165 110.709 122.319L110.709 122.32C113.573 124.005 116.402 125.839 119.16 127.672L117.913 130.358C109.667 127.917 101.39 126.116 93.0315 125.907L91.7318 125.887C85.2333 125.853 78.6839 126.797 72.0604 129.156C59.4767 133.64 49.5799 141.748 45.4166 150.655C42.8306 156.188 42.3712 161.908 44.0306 167.754L44.6003 169.763L42.5172 169.656C38.2518 169.437 33.9403 169.909 29.3998 172.267L29.3988 172.267C26.0465 174.006 23.4847 176.22 21.5545 178.714L19.6525 181.171L18.9105 178.144Z" fill="white" stroke="#ECE1D6" stroke-width="3"/>
<path d="M1899.44 809.859C1884.77 822.236 1862.68 824.849 1846.48 815.909C1842.81 813.885 1839.44 814.907 1836.22 815.932L1836.21 815.932C1835.2 816.255 1834.15 816.59 1833.1 816.81L1833.1 816.809C1828.55 817.753 1823.3 817.899 1817.51 817.259L1817.51 817.259C1802.81 815.653 1789.85 807.906 1780.11 797.535C1770.37 787.171 1763.77 774.093 1761.85 761.653L1761.53 759.61L1763.57 759.95C1768.7 760.807 1774.53 760.621 1779.68 758.978C1784.8 757.34 1789.15 754.29 1791.53 749.472C1793.93 744.614 1793.77 739.133 1790.96 733.907L1790.68 733.402L1790.68 733.401C1787.02 726.975 1780.04 722.333 1772.99 721.579C1770.05 721.264 1766.97 721.974 1764.34 723.484L1762.11 724.769L1762.09 722.188C1762.02 712.797 1763.8 690.247 1780.65 671.668C1797.94 652.606 1825.93 642.873 1863.52 642.408L1865.31 642.393C1866.09 642.389 1866.68 641.814 1866.74 641.143L1866.75 641.008L1866.75 641.006C1866.74 640.29 1866.14 639.65 1865.32 639.63C1865.3 639.629 1865.28 639.629 1865.28 639.629C1825.43 639.809 1796.32 650.108 1778.39 669.92C1755.79 694.89 1759.27 725.825 1759.42 727.05L1759.42 727.051C1759.43 727.119 1759.45 727.2 1759.48 727.298L1759.67 727.906L1759.37 728.466C1758.21 730.631 1757.78 733.082 1758.21 735.643L1758.23 735.777C1758.42 736.437 1759.11 736.919 1759.88 736.802L1759.88 736.802C1760.65 736.684 1761.13 736.036 1761.09 735.368L1761.08 735.234L1761.08 735.233C1760.48 731.626 1762.07 729.103 1763.46 727.673L1763.46 727.672C1765.79 725.276 1769.37 723.983 1772.68 724.323L1772.68 724.323L1772.68 724.324C1778.62 724.959 1784.58 728.893 1787.83 734.189L1788.14 734.705C1790.68 739.163 1791.01 744.015 1788.9 748.285C1786.29 753.562 1780.82 756.291 1775.14 757.285C1769.44 758.283 1763.2 757.607 1758.55 755.75L1758.55 755.75C1750.93 752.709 1745.81 745.511 1742.86 737.116C1739.9 728.697 1739.04 718.839 1740.08 710.04C1743.36 682.372 1761.9 657.615 1790.69 642.016C1822.12 624.995 1859.24 622.369 1887.62 635.353C1896.03 639.201 1903.83 644.422 1911.27 649.613L1914.44 651.832C1921.9 657.073 1929.53 662.42 1937.77 666.658C1952.36 674.159 1969.22 676.248 1984 672.442C1987.86 671.445 1991.62 670.156 1995.31 668.886C2006.67 664.98 2017.12 661.321 2029.11 666.834L2029.11 666.835C2034 669.087 2040.36 674.149 2043.84 679.444L2046.36 683.283L2042.06 681.668C2038.3 680.255 2033.95 679.721 2029.48 680.232L2028.49 680.359C2018.3 681.796 2009.86 687.162 2001.38 692.574L1999.45 693.805C1994.96 696.658 1990.53 699.359 1985.78 701.378C1970.48 707.878 1955.52 704.036 1945.79 699.764L1945.79 699.764C1945.54 699.655 1945.31 699.539 1945.11 699.439L1944.57 699.168L1944.43 699.103L1944.3 699.013C1944.18 698.926 1944.09 698.867 1944 698.827L1943.91 698.794L1943.91 698.793L1943.6 698.684L1943.51 698.656L1943.43 698.617C1937.03 695.526 1931.17 691.656 1925.12 687.597C1921.27 685.007 1917.32 682.358 1913.26 679.966C1882.63 661.949 1851.54 668.483 1835.69 681.926C1818.18 696.782 1810.94 723.658 1818.8 744.305L1818.8 744.292C1818.8 744.306 1818.81 744.32 1818.83 744.35C1818.84 744.376 1818.86 744.413 1818.88 744.455L1819.17 745.006L1818.98 745.595C1816.83 752.405 1817.76 760.183 1820.64 766.692C1827.31 781.767 1842.48 790.352 1858.39 788.109L1858.39 788.108C1868.25 786.723 1874.16 776.991 1873.38 768.979L1873.34 768.599L1873.24 767.973C1872.71 764.885 1871.2 762.504 1868.99 760.922C1866.61 759.221 1863.31 758.356 1859.31 758.7L1859.16 758.721C1858.42 758.859 1857.94 759.515 1858.01 760.191L1858.01 760.192C1858.08 760.917 1858.79 761.523 1859.59 761.451L1859.59 761.451C1863.33 761.122 1865.99 761.913 1867.79 763.486C1869.56 765.04 1870.23 767.137 1870.45 768.905L1870.45 768.906C1870.89 772.396 1869.79 776.207 1867.62 779.27C1865.44 782.348 1862.1 784.791 1857.95 785.375L1857.95 785.375C1843.59 787.391 1829.87 779.711 1823.61 766.28L1823.32 765.636L1823.32 765.635C1820.99 760.362 1819.97 754.295 1821.11 748.691C1822.26 743.036 1825.61 737.915 1831.83 734.682C1838.21 731.375 1844.17 732.289 1850.46 733.208L1850.46 733.207C1851.51 733.36 1852.56 733.515 1853.63 733.654L1853.63 733.655C1857.54 734.161 1860.18 732.253 1862.71 730.396L1862.71 730.395C1863.67 729.696 1864.68 728.952 1865.74 728.386L1865.75 728.385C1874.45 723.785 1885.25 724.86 1893.92 731.011C1904.37 738.419 1910.05 753.709 1907.26 766.675C1906.03 772.376 1901.94 782.564 1888.56 785.298C1887.8 785.454 1887.35 786.122 1887.43 786.79L1887.45 786.923C1887.61 787.65 1888.37 788.168 1889.18 788L1889.19 788C1898.63 786.07 1905.54 780.21 1908.79 771.655L1910.43 767.345L1911.64 771.807C1915.47 785.918 1911.44 799.33 1900.14 809.261L1899.44 809.859Z" fill="white" stroke="#ECE1D6" stroke-width="3"/>
<path d="M1819.91 738.144C1815.29 719.318 1822.35 696.944 1837.6 684.002C1852.9 671.022 1882.56 665.165 1911.71 682.319L1911.71 682.32C1914.57 684.005 1917.4 685.839 1920.16 687.672L1918.91 690.358C1910.67 687.917 1902.39 686.116 1894.03 685.907L1892.73 685.887C1886.23 685.853 1879.68 686.797 1873.06 689.156C1860.48 693.64 1850.58 701.748 1846.42 710.655C1843.83 716.188 1843.37 721.908 1845.03 727.754L1845.6 729.763L1843.52 729.656C1839.25 729.437 1834.94 729.909 1830.4 732.267L1830.4 732.267C1827.05 734.006 1824.48 736.22 1822.55 738.714L1820.65 741.171L1819.91 738.144Z" fill="white" stroke="#ECE1D6" stroke-width="3"/>
<path d="M1944.59 23.5C1973.04 23.5002 1996.09 47.3345 1996.09 76.5371C1996.09 77.97 1996.03 79.466 1995.89 81.1045V81.1055C1995.87 81.3835 1995.96 81.6484 1996.11 81.8457L1996.18 81.9258L1996.19 81.9297C1996.36 82.1064 1996.59 82.1993 1996.82 82.2002L1996.92 82.1953C1998.09 82.0655 1999.18 82.001 2000.24 82.001C2017.03 82.001 2030.62 96.0727 2030.62 113.274C2030.62 119.333 2028.91 125.231 2025.69 130.325C2025.42 130.742 2025.49 131.295 2025.82 131.63L2026.29 132.109C2036.09 142.219 2041.5 155.139 2041.5 168.567C2041.5 199.451 2013.38 224.287 1979.19 224.287C1962.97 224.287 1947.75 218.796 1936.08 208.76L1934.73 207.601L1936.1 206.467C1950.21 194.797 1959.67 177.483 1960.52 158.169C1961.15 144.078 1956.41 130.598 1947.19 120.197C1937.97 109.798 1925.4 103.731 1911.77 103.094H1911.77C1889.54 102.041 1870.5 119.565 1868.93 142.424L1868.87 143.517C1868.47 152.637 1871.53 161.357 1877.49 168.086C1883.45 174.814 1891.58 178.734 1900.39 179.145H1900.39C1907.49 179.484 1914.28 176.948 1919.54 171.997L1920.02 171.527C1924.99 166.624 1927.89 160.052 1928.2 152.928L1928.22 152.372C1928.33 146.82 1926.47 141.528 1922.94 137.35L1922.58 136.936C1918.71 132.558 1913.43 130.013 1907.7 129.746H1907.7C1898.21 129.256 1890 136.932 1889.56 146.868C1889.53 147.465 1889.97 147.893 1890.44 147.921C1890.92 147.938 1891.4 147.54 1891.42 146.966V146.965C1891.81 138.215 1899.03 131.411 1907.61 131.758H1907.62L1908.12 131.787C1913.01 132.142 1917.52 134.323 1920.91 137.96L1921.24 138.328L1921.24 138.329C1924.77 142.311 1926.57 147.465 1926.34 152.832C1926.04 159.615 1923.19 165.888 1918.32 170.479C1913.43 175.073 1907.11 177.436 1900.48 177.133H1900.47C1892.14 176.744 1884.46 173.029 1878.85 166.695C1873.24 160.363 1870.36 152.162 1870.73 143.614V143.613C1871.71 121.412 1890.02 104.102 1911.69 105.105H1911.69C1924.64 105.71 1936.6 111.401 1945.43 121.122L1945.85 121.588L1946.26 122.059C1954.85 131.997 1959.25 144.767 1958.66 158.072C1957.92 174.97 1950.36 190.782 1937.42 202.593C1934.25 205.487 1930.84 208.044 1927.24 210.241L1927.18 210.28L1927.11 210.312C1914.17 216.553 1899.61 219.828 1884.59 219.828C1865.06 219.828 1846.59 214.391 1831.18 204.08V204.081C1830.97 203.941 1830.72 203.896 1830.48 203.955C1830.24 204.018 1830.02 204.184 1829.89 204.43L1829.89 204.429C1821.03 220.778 1801.78 228.921 1772.58 229.47C1744.24 230.002 1706.12 223.41 1657.91 209.783L1653.21 208.443C1638.02 204.067 1624 202.323 1611.28 202.323C1579.65 202.323 1556.02 213.113 1542.78 221.176L1540.82 218.975C1565.54 187.111 1596.45 168.39 1633.06 163.148L1633.08 163.145L1633.11 163.142C1642.69 162.118 1685.93 158.591 1733.34 172.086C1737.15 173.169 1740.78 173.991 1744.26 174.599L1745.75 174.846L1745.8 174.855L1745.82 174.858C1745.82 174.859 1745.82 174.859 1745.83 174.859C1745.83 174.861 1745.85 174.862 1745.86 174.864C1745.88 174.867 1745.91 174.872 1745.95 174.878C1750.46 175.587 1754.7 175.922 1758.64 175.922C1777.78 175.922 1790.26 168.291 1796.36 159.52L1796.64 159.101C1802.47 150.396 1802.69 139.933 1797.48 132.278L1797.23 131.916C1796.92 131.481 1796.35 131.402 1795.95 131.707C1795.55 132.012 1795.43 132.599 1795.69 133.053L1795.75 133.142L1795.75 133.143C1800.71 140.118 1800.53 149.277 1795.62 157.164L1795.13 157.924C1789.65 166.11 1778.69 172.919 1762.41 173.818L1757.1 174.111L1761.47 171.087C1762.8 170.165 1764.02 169.094 1765.11 167.852C1769.39 162.945 1771.04 156.347 1771.58 150.737C1772.1 145.155 1771.5 140.76 1771.46 140.458V140.456C1771.38 139.87 1770.86 139.541 1770.41 139.61L1770.41 139.611C1769.93 139.684 1769.53 140.166 1769.62 140.763C1769.66 141.068 1770.18 145.067 1769.75 150.126C1769.32 155.251 1767.89 161.726 1763.75 166.468H1763.75C1759.7 171.109 1753.73 173.196 1746.27 172.896L1746.18 172.892L1746.1 172.878C1742.22 172.262 1738.12 171.366 1733.82 170.139V170.14C1709.49 163.219 1686.24 160.756 1667.99 160.136L1666.88 160.098L1666.59 159.037C1665.38 154.658 1664.72 150.136 1664.72 145.553C1664.72 118.541 1686.05 96.4884 1712.37 96.4883C1712.62 96.4883 1712.87 96.4936 1713.12 96.501L1713.83 96.5244L1713.88 96.5264C1727.57 97.34 1739.71 108.727 1740.8 122.733L1740.84 123.306C1741.48 135.307 1732.68 145.818 1720.89 146.792H1720.88C1711.38 147.571 1703.12 140.256 1702.37 130.58V130.579C1701.77 122.959 1707.31 116.195 1714.8 115.572L1714.81 115.571C1720.52 115.105 1725.51 119.355 1726.24 125.06L1726.3 125.616L1726.32 126.052C1726.45 130.536 1723.13 134.461 1718.64 134.831V134.83C1716.91 134.974 1715.21 134.407 1713.9 133.251L1713.89 133.25C1712.58 132.095 1711.79 130.485 1711.65 128.733V128.732C1711.6 128.133 1711.12 127.771 1710.65 127.811L1710.65 127.812C1710.2 127.849 1709.8 128.248 1709.79 128.789L1709.79 128.899C1709.97 131.222 1711.01 133.316 1712.72 134.813V134.814C1714.42 136.311 1716.57 137.024 1718.79 136.84C1724.36 136.379 1728.61 131.306 1728.16 125.45L1728.13 125.116C1727.41 118.125 1721.4 113.011 1714.66 113.563L1714.66 113.564C1706.35 114.251 1700.02 121.699 1700.48 130.336L1700.51 130.748V130.749C1701.31 141.073 1709.7 148.863 1719.49 148.863C1720 148.863 1720.51 148.843 1721.02 148.801L1721.63 148.743C1734.05 147.387 1743.39 136.155 1742.7 123.193L1742.66 122.564C1741.63 109.362 1731.87 98.5134 1719.63 95.3721L1718.12 94.9834L1718.57 93.4854C1729.96 55.7795 1774.87 29.0743 1826.21 29.0742C1853 29.0742 1878.88 36.379 1899.08 49.6992C1899.3 49.8421 1899.54 49.8802 1899.77 49.8252L1899.77 49.8232C1900.01 49.7664 1900.22 49.6124 1900.36 49.376L1900.8 48.6328C1910.14 33.1193 1926.83 23.5 1944.59 23.5Z" fill="white" stroke="#ECE1D8" stroke-width="3"/>
<path d="M1483.16 971.253C1499.71 958.275 1525.17 955.61 1543.82 964.953L1543.82 964.953C1548.14 967.119 1552.11 966.057 1555.77 965.042L1555.77 965.042C1556.93 964.721 1558.1 964.393 1559.28 964.182L1559.28 964.181C1564.4 963.265 1570.33 963.161 1576.9 963.861L1576.9 963.861C1610.09 967.365 1635.9 995.661 1640.41 1021.04L1640.78 1023.09L1638.72 1022.77C1632.84 1021.84 1626.14 1021.98 1620.24 1023.63C1614.34 1025.28 1609.39 1028.39 1606.71 1033.28C1603.94 1038.34 1604.25 1044.1 1607.77 1049.6L1607.77 1049.6C1611.98 1056.19 1620 1061.06 1628.17 1061.9C1631.6 1062.26 1635.18 1061.54 1638.2 1060L1640.36 1058.9L1640.39 1061.34C1640.53 1070.95 1638.64 1093.97 1619.58 1112.78C1599.76 1132.35 1567.35 1142.02 1523.63 1141.86C1522.48 1141.86 1521.87 1142.58 1521.81 1143.16L1521.8 1143.28L1521.8 1143.28C1521.82 1143.89 1522.45 1144.7 1523.64 1144.74C1523.67 1144.74 1523.69 1144.74 1523.7 1144.74C1569.11 1144.91 1602.27 1134.63 1622.59 1114.52C1648.15 1089.23 1643.99 1057.67 1643.82 1056.43L1643.79 1056.33C1643.78 1056.29 1643.77 1056.25 1643.75 1056.2L1643.51 1055.53L1643.87 1054.92C1645.18 1052.73 1645.64 1050.26 1645.14 1047.68L1645.11 1047.55C1644.92 1046.97 1644.18 1046.36 1643.18 1046.4L1642.96 1046.42C1641.85 1046.57 1641.41 1047.33 1641.45 1047.9L1641.46 1048.01L1641.46 1048.01C1642.18 1051.76 1640.34 1054.35 1638.79 1055.77L1638.79 1055.77C1636.19 1058.17 1632.2 1059.41 1628.56 1059.05L1628.56 1059.05C1621.93 1058.36 1615.17 1054.36 1611.45 1048.93L1611.1 1048.4C1608.17 1043.82 1607.75 1038.82 1610.14 1034.44C1613.07 1029.09 1619.22 1026.39 1625.59 1025.44C1632.01 1024.48 1639.04 1025.22 1644.29 1027.13L1644.29 1027.13C1652.88 1030.26 1658.75 1037.6 1662.17 1046.23C1665.59 1054.86 1666.65 1064.95 1665.51 1073.94C1661.95 1102.21 1640.98 1127.29 1608.39 1142.92C1573.36 1159.73 1532 1162.25 1499.95 1149.5L1498.43 1148.88C1487.49 1144.32 1477.44 1137.94 1467.85 1131.85C1459.32 1126.44 1450.6 1120.9 1441.17 1116.5C1424.46 1108.69 1405.17 1106.39 1388.29 1110.17C1383.88 1111.15 1379.61 1112.44 1375.41 1113.71C1362.69 1117.54 1351.12 1121.08 1337.86 1115.78L1337.22 1115.52C1331.68 1113.2 1324.45 1108 1320.46 1102.58L1317.64 1098.73L1322.13 1100.28C1326.47 1101.77 1331.49 1102.36 1336.63 1101.87L1337.77 1101.75C1349.43 1100.36 1359.06 1094.92 1368.65 1089.48C1374.51 1086.16 1380.17 1082.95 1386.31 1080.65L1387.12 1080.35C1403.55 1074.51 1419.61 1078.04 1430.51 1082.23L1431.56 1082.64L1431.96 1082.81C1432.08 1082.86 1432.2 1082.92 1432.32 1082.97C1432.55 1083.08 1432.75 1083.17 1432.95 1083.26L1433.09 1083.31L1433.21 1083.39C1433.4 1083.52 1433.57 1083.6 1433.73 1083.66L1433.73 1083.66C1433.81 1083.68 1434.04 1083.76 1434.09 1083.77L1434.16 1083.79L1434.24 1083.83C1441.53 1087.03 1448.21 1091.02 1455.11 1095.22C1459.52 1097.89 1464.03 1100.63 1468.68 1103.11C1503.77 1121.84 1539.27 1115.42 1557.3 1101.78L1558.22 1101.06C1577.41 1085.89 1585.03 1059.09 1576.14 1038.35L1576.11 1038.29C1576.09 1038.26 1576.07 1038.22 1576.04 1038.18L1575.7 1037.58L1575.92 1036.93C1578.31 1030.04 1577.21 1022.13 1573.9 1015.47C1566.35 1000.28 1549.37 991.309 1531.39 993.107L1530.53 993.202C1518.9 994.58 1512.32 1004.88 1513.5 1012.98L1513.5 1012.99C1514 1016.41 1515.78 1019.09 1518.53 1020.86C1521.3 1022.66 1525.14 1023.59 1529.77 1023.27L1529.99 1023.24C1530.96 1023.09 1531.41 1022.4 1531.42 1021.86L1531.41 1021.75C1531.34 1021.11 1530.54 1020.31 1529.35 1020.4L1529.35 1020.4C1525.18 1020.69 1522.24 1019.88 1520.25 1018.31C1518.26 1016.73 1517.47 1014.59 1517.2 1012.75C1516.16 1005.61 1522.02 997.136 1531.17 996.051L1531.94 995.968C1548.05 994.368 1563.49 1002.46 1570.43 1016.42L1570.43 1016.42C1573.12 1021.83 1574.32 1028.06 1573.05 1033.8C1571.77 1039.61 1567.98 1044.78 1560.99 1047.99C1553.86 1051.26 1547.18 1050.3 1540.01 1049.3C1538.81 1049.14 1537.61 1048.97 1536.4 1048.82L1536.4 1048.82C1531.78 1048.25 1528.7 1050.25 1525.85 1052.11L1525.85 1052.11C1524.76 1052.82 1523.63 1053.56 1522.44 1054.12L1522.44 1054.12C1512.84 1058.61 1500.91 1057.56 1491.16 1051.51L1490.7 1051.22C1478.83 1043.61 1472.22 1027.95 1475.33 1014.66C1476.01 1011.74 1477.5 1007.7 1480.72 1004.05C1483.97 1000.37 1488.91 997.171 1496.36 995.861L1496.57 995.815C1497.56 995.552 1497.88 994.766 1497.74 994.224C1497.57 993.548 1496.66 992.837 1495.47 993.047L1495.47 993.047C1484.6 994.957 1476.76 1000.94 1473.12 1009.62L1471.53 1013.42L1470.31 1009.45C1465.84 994.942 1470.39 981.261 1483.16 971.253Z" fill="white" stroke="#ECE1D6" stroke-width="3"/>
<path d="M1574.2 1044.58C1579.59 1063.92 1571.66 1086.74 1554.42 1099.8C1537.16 1112.86 1503.6 1118.57 1470.43 1100.85C1467.16 1099.11 1463.94 1097.21 1460.79 1095.32L1461.92 1092.59C1471.34 1095.16 1480.81 1097.08 1490.37 1097.37C1498.29 1097.61 1506.27 1096.74 1514.34 1094.21L1515.68 1093.78C1529.4 1089.21 1540.09 1081.21 1544.63 1072.43L1544.89 1071.91C1547.56 1066.46 1547.95 1060.83 1546.1 1055.06L1545.44 1053L1547.58 1053.12C1552.49 1053.38 1557.46 1052.93 1562.67 1050.54L1563.38 1050.2C1566.87 1048.49 1569.57 1046.36 1571.62 1043.98L1573.44 1041.86L1574.2 1044.58Z" fill="white" stroke="#ECE1D6" stroke-width="3"/>
<mask id="path-14-outside-3_0_1" maskUnits="userSpaceOnUse" x="1627.81" y="853.941" width="585.247" height="255.477" fill="black">
<rect fill="white" x="1627.81" y="853.941" width="585.247" height="255.477"/>
<path d="M2196.71 1052.91C2188.66 1049.82 2184.31 1045.12 2181.55 1041.42C2179.66 1038.89 2178.43 1036.19 2177.24 1033.58C2175.02 1028.72 2173.11 1024.53 2167.58 1022.48C2157.36 1018.69 2143.92 1021.63 2135.03 1023.57C2120.68 1026.71 2109.11 1024.88 2102.02 1018.45C2100.89 1019.63 2099.71 1020.76 2098.55 1021.88C2094.09 1026.18 2089.88 1030.23 2089.08 1035.68C2088.96 1036.5 2089.22 1037.34 2089.7 1037.63C2091.08 1038.49 2091.4 1040.15 2090.42 1041.35C2089.8 1042.09 2088.82 1042.48 2087.84 1042.46C2087.24 1042.45 2086.65 1042.29 2086.12 1041.97C2083.76 1040.51 2082.56 1037.84 2082.97 1035.01C2084.02 1027.91 2089.08 1023.03 2093.97 1018.32C2097.66 1014.77 2101.14 1011.42 2102.76 1007.29C2105.08 1001.4 2103.47 994.69 2098.36 988.884C2088.62 977.829 2067.83 971.044 2052.42 978.56C2049.04 980.208 2044.4 983.213 2041.93 986.431C2036.38 996.245 2026.79 1001.52 2014.13 1001.67C2013.04 1001.68 2011.83 1001.54 2010.67 1001.41C2009.45 1001.26 2007.21 1001 2006.55 1001.27C2006.57 1001.3 2006.51 1001.47 2006.51 1001.81C2006.5 1003.68 2006.61 1005.58 2006.72 1007.41C2007.1 1013.62 2007.48 1020.03 2003.03 1026.33C1991.1 1043.2 1966.39 1049.52 1948.85 1049.8C1948.01 1049.82 1947.15 1049.81 1946.28 1049.8C1924.9 1049.37 1898.7 1039.47 1888 1020.58C1887.25 1019.27 1887.88 1017.67 1889.4 1017.02C1890.92 1016.38 1892.77 1016.92 1893.52 1018.24C1903.52 1035.89 1928.86 1044.78 1948.74 1044.48C1964.72 1044.22 1987.16 1038.58 1997.79 1023.54C2001.24 1018.66 2000.94 1013.58 2000.58 1007.69C2000.46 1005.78 2000.35 1003.8 2000.36 1001.78C2000.37 999.83 2001.09 998.307 2002.5 997.25C2005 995.372 2008.6 995.79 2011.49 996.128C2012.47 996.243 2013.41 996.344 2014.04 996.343C2024.08 996.222 2031.43 992.285 2035.99 984.724C2036.06 984.54 2036.15 984.357 2036.27 984.182C2036.39 984.018 2036.51 983.86 2036.63 983.698C2036.65 983.661 2036.68 983.631 2036.7 983.592C2044.95 968.291 2039.93 944.957 2029.94 934.317C2020.73 924.519 2000.97 916.792 1986.25 920.917C1980.74 922.457 1976.38 919.191 1972.87 916.564C1971.83 915.786 1970.85 915.05 1969.94 914.5C1963.34 910.531 1952.91 909.218 1943.4 911.154C1936.22 912.614 1926.29 916.518 1919.72 926.796C1925.64 936.77 1924.32 949.016 1920.77 957.987C1920.81 958.223 1920.83 958.463 1920.79 958.71C1919.18 969.777 1929.67 982.819 1943.23 986.624C1956.81 990.432 1975.94 986.614 1981.68 975.045C1983.88 970.604 1983.91 965.86 1981.77 961.322C1978.93 955.328 1972.61 950.104 1964.84 947.346C1960.93 945.958 1953.07 944.457 1948.63 946.339C1947.22 946.938 1946.37 947.81 1945.97 949.085C1945.61 950.197 1945.76 951.213 1946.42 952.192C1947.64 954.008 1950.58 955.649 1953.9 956.375C1955.55 956.733 1956.55 958.181 1956.14 959.607C1955.73 961.032 1954.05 961.901 1952.41 961.54C1948.54 960.698 1943.54 958.504 1941.1 954.871C1939.61 952.65 1939.24 950.157 1940.04 947.663C1940.91 944.931 1942.94 942.821 1945.92 941.557C1952.71 938.678 1962.79 940.861 1967.17 942.418C1976.43 945.705 1984.01 952.019 1987.46 959.308C1990.24 965.198 1990.2 971.366 1987.33 977.148C1981.8 988.297 1967.14 993.66 1953.17 993.381C1949.08 993.299 1945.06 992.735 1941.33 991.69C1928.66 988.138 1918.54 978.155 1915.46 967.52C1906.74 979.524 1891.44 989.282 1874.06 993.433C1860.27 996.725 1834.84 996.84 1825.29 983.125C1823.38 980.386 1823.11 977.535 1822.87 975.02C1822.7 973.251 1822.54 971.58 1821.82 970.21C1821.02 968.67 1820.44 968.564 1817.54 968.255C1816.94 968.19 1816.3 968.124 1815.64 968.033C1806.5 966.789 1799.28 961.73 1795.85 954.153C1791.93 945.493 1793.67 935.204 1800.29 927.94C1807.28 920.274 1819.08 916.187 1831.84 917.016C1844.18 917.814 1854.78 923.165 1860.17 931.33C1861.01 932.606 1860.5 934.234 1859.03 934.962C1857.55 935.69 1855.67 935.25 1854.83 933.971C1850.45 927.345 1841.69 922.991 1831.38 922.326C1820.81 921.649 1810.75 925.058 1805.12 931.238C1799.83 937.046 1798.44 945.277 1801.58 952.211C1804.23 958.064 1809.56 961.816 1816.59 962.771C1817.18 962.852 1817.75 962.911 1818.28 962.968C1821.51 963.31 1825.17 963.699 1827.43 968.017C1828.58 970.226 1828.79 972.439 1829 974.58C1829.21 976.793 1829.4 978.704 1830.56 980.376C1837.94 990.975 1859.48 991.388 1872.42 988.297C1891.73 983.685 1908.22 971.616 1914.41 957.551C1917.97 949.491 1919.78 936.82 1913.22 927.64C1908.72 921.347 1899.4 911.111 1887.48 913.246L1887.48 913.248C1885.82 913.548 1884.19 912.619 1883.84 911.18C1883.66 910.44 1883.86 909.708 1884.32 909.129C1884.61 906.576 1883.1 896.693 1882.59 894.989C1876.18 874.966 1851 864.511 1829.58 861.407C1805.21 857.878 1778.77 866.811 1762.23 884.169C1760.15 886.36 1758.22 888.689 1756.5 891.089C1750.96 898.845 1747.77 907.362 1747.29 915.717C1746.84 923.59 1749.49 929.423 1752.55 936.178C1753.19 937.577 1753.84 939.009 1754.48 940.501C1754.83 941.2 1755.13 941.92 1755.38 942.659C1755.85 944.044 1754.95 945.5 1753.37 945.94C1751.79 946.383 1750.07 945.649 1749.52 944.287C1749.27 943.672 1749.02 943.065 1748.76 942.464C1746.93 938.88 1743.32 936.081 1738.02 934.128C1725.93 929.683 1708.38 930.979 1699.57 934.98C1684.04 942.032 1671.73 957.177 1670.3 970.99C1669.74 976.356 1671.96 979.27 1675.04 983.301C1676.27 984.917 1677.54 986.59 1678.75 988.575C1678.75 988.579 1678.75 988.583 1678.76 988.586C1679.55 989.889 1678.96 991.499 1677.46 992.18C1676.36 992.678 1675.08 992.546 1674.16 991.931C1671.72 991.915 1664.2 994.181 1662.62 994.971C1645.62 1003.47 1632.93 1020.49 1632.44 1035.45C1632.09 1045.94 1637.6 1054.72 1648.36 1060.85C1658.23 1066.47 1670 1069.59 1681.51 1069.64C1686.49 1069.66 1691.37 1068.86 1696.52 1068C1703.48 1066.85 1710.67 1065.66 1718.19 1066.66C1729.55 1068.19 1740.06 1072.18 1750.22 1076.04C1759.86 1079.7 1769.84 1083.49 1780.29 1085C1786.45 1085.9 1807.6 1088.07 1820.58 1078.45C1838.88 1064.87 1842.56 1040.01 1828.61 1024.15C1819.29 1013.55 1804.42 1006.09 1788.84 1004.18C1777.08 1002.74 1765.46 1005.03 1757.77 1010.31C1748.27 1016.84 1746.21 1028.4 1753.18 1036.09C1755.34 1038.47 1758.23 1040.29 1761.3 1041.21C1767.53 1043.08 1775.01 1041.49 1781.02 1040.21C1782.66 1039.87 1784.34 1040.74 1784.74 1042.17C1785.15 1043.59 1784.14 1045.04 1782.49 1045.39C1775.7 1046.83 1767.24 1048.62 1759.29 1046.25C1755.06 1044.98 1751.27 1042.6 1748.34 1039.38C1739.28 1029.39 1741.8 1014.48 1753.95 1006.14C1762.93 999.973 1776.29 997.263 1789.7 998.908C1806.85 1001.01 1823.23 1009.24 1833.51 1020.93C1844.93 1033.91 1846.24 1051.54 1838.58 1066.28C1852.17 1063.36 1869.2 1069.38 1877.04 1076.58C1889.76 1088.27 1903.91 1099.75 1924.53 1100.46C1924.72 1100.46 1924.91 1100.47 1925.1 1100.47C1939.4 1100.76 1951.27 1093.28 1962.75 1086.04C1963.86 1085.34 1964.96 1084.65 1966.06 1083.97C1973.8 1079.15 1990.44 1071.86 2003.75 1075.11C2009.73 1076.58 2014.21 1080.11 2016.73 1085.32C2017.39 1086.68 2016.65 1088.23 2015.08 1088.8C2013.52 1089.37 2011.72 1088.73 2011.06 1087.37C2009.24 1083.61 2006.3 1081.27 2002.08 1080.24C1996.34 1078.84 1988.68 1080.1 1981.51 1082.65C1981.51 1082.84 1981.5 1083.05 1981.45 1083.25C1980.66 1086.46 1988.94 1091.98 1994.9 1094.13C2001.75 1096.6 2010.4 1097.51 2019.29 1096.69C2031.17 1095.59 2044.34 1090.32 2046.68 1078.89C2045.62 1078.5 2044.56 1078.09 2043.53 1077.64C2033.73 1073.33 2026.42 1066.16 2023.46 1057.97C2020.91 1050.88 2021.78 1043.59 2025.97 1036.88C2029.49 1031.26 2035.47 1027.75 2042.38 1027.24C2048.77 1026.78 2054.92 1028.91 2058.45 1032.8C2059.5 1033.96 2059.26 1035.63 2057.93 1036.54C2056.59 1037.45 2054.66 1037.25 2053.61 1036.09C2051.37 1033.63 2047.16 1032.23 2042.9 1032.55C2040.08 1032.76 2034.82 1033.93 2031.38 1039.42C2027.99 1044.83 2027.29 1050.7 2029.33 1056.38C2031.8 1063.21 2037.98 1069.23 2046.31 1072.89C2058.78 1078.37 2074.17 1078.22 2088.53 1072.47C2096.92 1069.1 2103.55 1063.31 2110.56 1057.18C2114.93 1053.36 2119.45 1049.41 2124.42 1046.13C2129.61 1042.71 2137.62 1038.15 2147.22 1038.06C2156.6 1037.93 2163.65 1042.28 2170.49 1046.46C2176.99 1050.43 2183.11 1054.17 2190.76 1053.81C2192.72 1053.72 2194.68 1053.35 2196.71 1052.91Z"/>
</mask>
<path d="M2196.71 1052.91C2188.66 1049.82 2184.31 1045.12 2181.55 1041.42C2179.66 1038.89 2178.43 1036.19 2177.24 1033.58C2175.02 1028.72 2173.11 1024.53 2167.58 1022.48C2157.36 1018.69 2143.92 1021.63 2135.03 1023.57C2120.68 1026.71 2109.11 1024.88 2102.02 1018.45C2100.89 1019.63 2099.71 1020.76 2098.55 1021.88C2094.09 1026.18 2089.88 1030.23 2089.08 1035.68C2088.96 1036.5 2089.22 1037.34 2089.7 1037.63C2091.08 1038.49 2091.4 1040.15 2090.42 1041.35C2089.8 1042.09 2088.82 1042.48 2087.84 1042.46C2087.24 1042.45 2086.65 1042.29 2086.12 1041.97C2083.76 1040.51 2082.56 1037.84 2082.97 1035.01C2084.02 1027.91 2089.08 1023.03 2093.97 1018.32C2097.66 1014.77 2101.14 1011.42 2102.76 1007.29C2105.08 1001.4 2103.47 994.69 2098.36 988.884C2088.62 977.829 2067.83 971.044 2052.42 978.56C2049.04 980.208 2044.4 983.213 2041.93 986.431C2036.38 996.245 2026.79 1001.52 2014.13 1001.67C2013.04 1001.68 2011.83 1001.54 2010.67 1001.41C2009.45 1001.26 2007.21 1001 2006.55 1001.27C2006.57 1001.3 2006.51 1001.47 2006.51 1001.81C2006.5 1003.68 2006.61 1005.58 2006.72 1007.41C2007.1 1013.62 2007.48 1020.03 2003.03 1026.33C1991.1 1043.2 1966.39 1049.52 1948.85 1049.8C1948.01 1049.82 1947.15 1049.81 1946.28 1049.8C1924.9 1049.37 1898.7 1039.47 1888 1020.58C1887.25 1019.27 1887.88 1017.67 1889.4 1017.02C1890.92 1016.38 1892.77 1016.92 1893.52 1018.24C1903.52 1035.89 1928.86 1044.78 1948.74 1044.48C1964.72 1044.22 1987.16 1038.58 1997.79 1023.54C2001.24 1018.66 2000.94 1013.58 2000.58 1007.69C2000.46 1005.78 2000.35 1003.8 2000.36 1001.78C2000.37 999.83 2001.09 998.307 2002.5 997.25C2005 995.372 2008.6 995.79 2011.49 996.128C2012.47 996.243 2013.41 996.344 2014.04 996.343C2024.08 996.222 2031.43 992.285 2035.99 984.724C2036.06 984.54 2036.15 984.357 2036.27 984.182C2036.39 984.018 2036.51 983.86 2036.63 983.698C2036.65 983.661 2036.68 983.631 2036.7 983.592C2044.95 968.291 2039.93 944.957 2029.94 934.317C2020.73 924.519 2000.97 916.792 1986.25 920.917C1980.74 922.457 1976.38 919.191 1972.87 916.564C1971.83 915.786 1970.85 915.05 1969.94 914.5C1963.34 910.531 1952.91 909.218 1943.4 911.154C1936.22 912.614 1926.29 916.518 1919.72 926.796C1925.64 936.77 1924.32 949.016 1920.77 957.987C1920.81 958.223 1920.83 958.463 1920.79 958.71C1919.18 969.777 1929.67 982.819 1943.23 986.624C1956.81 990.432 1975.94 986.614 1981.68 975.045C1983.88 970.604 1983.91 965.86 1981.77 961.322C1978.93 955.328 1972.61 950.104 1964.84 947.346C1960.93 945.958 1953.07 944.457 1948.63 946.339C1947.22 946.938 1946.37 947.81 1945.97 949.085C1945.61 950.197 1945.76 951.213 1946.42 952.192C1947.64 954.008 1950.58 955.649 1953.9 956.375C1955.55 956.733 1956.55 958.181 1956.14 959.607C1955.73 961.032 1954.05 961.901 1952.41 961.54C1948.54 960.698 1943.54 958.504 1941.1 954.871C1939.61 952.65 1939.24 950.157 1940.04 947.663C1940.91 944.931 1942.94 942.821 1945.92 941.557C1952.71 938.678 1962.79 940.861 1967.17 942.418C1976.43 945.705 1984.01 952.019 1987.46 959.308C1990.24 965.198 1990.2 971.366 1987.33 977.148C1981.8 988.297 1967.14 993.66 1953.17 993.381C1949.08 993.299 1945.06 992.735 1941.33 991.69C1928.66 988.138 1918.54 978.155 1915.46 967.52C1906.74 979.524 1891.44 989.282 1874.06 993.433C1860.27 996.725 1834.84 996.84 1825.29 983.125C1823.38 980.386 1823.11 977.535 1822.87 975.02C1822.7 973.251 1822.54 971.58 1821.82 970.21C1821.02 968.67 1820.44 968.564 1817.54 968.255C1816.94 968.19 1816.3 968.124 1815.64 968.033C1806.5 966.789 1799.28 961.73 1795.85 954.153C1791.93 945.493 1793.67 935.204 1800.29 927.94C1807.28 920.274 1819.08 916.187 1831.84 917.016C1844.18 917.814 1854.78 923.165 1860.17 931.33C1861.01 932.606 1860.5 934.234 1859.03 934.962C1857.55 935.69 1855.67 935.25 1854.83 933.971C1850.45 927.345 1841.69 922.991 1831.38 922.326C1820.81 921.649 1810.75 925.058 1805.12 931.238C1799.83 937.046 1798.44 945.277 1801.58 952.211C1804.23 958.064 1809.56 961.816 1816.59 962.771C1817.18 962.852 1817.75 962.911 1818.28 962.968C1821.51 963.31 1825.17 963.699 1827.43 968.017C1828.58 970.226 1828.79 972.439 1829 974.58C1829.21 976.793 1829.4 978.704 1830.56 980.376C1837.94 990.975 1859.48 991.388 1872.42 988.297C1891.73 983.685 1908.22 971.616 1914.41 957.551C1917.97 949.491 1919.78 936.82 1913.22 927.64C1908.72 921.347 1899.4 911.111 1887.48 913.246L1887.48 913.248C1885.82 913.548 1884.19 912.619 1883.84 911.18C1883.66 910.44 1883.86 909.708 1884.32 909.129C1884.61 906.576 1883.1 896.693 1882.59 894.989C1876.18 874.966 1851 864.511 1829.58 861.407C1805.21 857.878 1778.77 866.811 1762.23 884.169C1760.15 886.36 1758.22 888.689 1756.5 891.089C1750.96 898.845 1747.77 907.362 1747.29 915.717C1746.84 923.59 1749.49 929.423 1752.55 936.178C1753.19 937.577 1753.84 939.009 1754.48 940.501C1754.83 941.2 1755.13 941.92 1755.38 942.659C1755.85 944.044 1754.95 945.5 1753.37 945.94C1751.79 946.383 1750.07 945.649 1749.52 944.287C1749.27 943.672 1749.02 943.065 1748.76 942.464C1746.93 938.88 1743.32 936.081 1738.02 934.128C1725.93 929.683 1708.38 930.979 1699.57 934.98C1684.04 942.032 1671.73 957.177 1670.3 970.99C1669.74 976.356 1671.96 979.27 1675.04 983.301C1676.27 984.917 1677.54 986.59 1678.75 988.575C1678.75 988.579 1678.75 988.583 1678.76 988.586C1679.55 989.889 1678.96 991.499 1677.46 992.18C1676.36 992.678 1675.08 992.546 1674.16 991.931C1671.72 991.915 1664.2 994.181 1662.62 994.971C1645.62 1003.47 1632.93 1020.49 1632.44 1035.45C1632.09 1045.94 1637.6 1054.72 1648.36 1060.85C1658.23 1066.47 1670 1069.59 1681.51 1069.64C1686.49 1069.66 1691.37 1068.86 1696.52 1068C1703.48 1066.85 1710.67 1065.66 1718.19 1066.66C1729.55 1068.19 1740.06 1072.18 1750.22 1076.04C1759.86 1079.7 1769.84 1083.49 1780.29 1085C1786.45 1085.9 1807.6 1088.07 1820.58 1078.45C1838.88 1064.87 1842.56 1040.01 1828.61 1024.15C1819.29 1013.55 1804.42 1006.09 1788.84 1004.18C1777.08 1002.74 1765.46 1005.03 1757.77 1010.31C1748.27 1016.84 1746.21 1028.4 1753.18 1036.09C1755.34 1038.47 1758.23 1040.29 1761.3 1041.21C1767.53 1043.08 1775.01 1041.49 1781.02 1040.21C1782.66 1039.87 1784.34 1040.74 1784.74 1042.17C1785.15 1043.59 1784.14 1045.04 1782.49 1045.39C1775.7 1046.83 1767.24 1048.62 1759.29 1046.25C1755.06 1044.98 1751.27 1042.6 1748.34 1039.38C1739.28 1029.39 1741.8 1014.48 1753.95 1006.14C1762.93 999.973 1776.29 997.263 1789.7 998.908C1806.85 1001.01 1823.23 1009.24 1833.51 1020.93C1844.93 1033.91 1846.24 1051.54 1838.58 1066.28C1852.17 1063.36 1869.2 1069.38 1877.04 1076.58C1889.76 1088.27 1903.91 1099.75 1924.53 1100.46C1924.72 1100.46 1924.91 1100.47 1925.1 1100.47C1939.4 1100.76 1951.27 1093.28 1962.75 1086.04C1963.86 1085.34 1964.96 1084.65 1966.06 1083.97C1973.8 1079.15 1990.44 1071.86 2003.75 1075.11C2009.73 1076.58 2014.21 1080.11 2016.73 1085.32C2017.39 1086.68 2016.65 1088.23 2015.08 1088.8C2013.52 1089.37 2011.72 1088.73 2011.06 1087.37C2009.24 1083.61 2006.3 1081.27 2002.08 1080.24C1996.34 1078.84 1988.68 1080.1 1981.51 1082.65C1981.51 1082.84 1981.5 1083.05 1981.45 1083.25C1980.66 1086.46 1988.94 1091.98 1994.9 1094.13C2001.75 1096.6 2010.4 1097.51 2019.29 1096.69C2031.17 1095.59 2044.34 1090.32 2046.68 1078.89C2045.62 1078.5 2044.56 1078.09 2043.53 1077.64C2033.73 1073.33 2026.42 1066.16 2023.46 1057.97C2020.91 1050.88 2021.78 1043.59 2025.97 1036.88C2029.49 1031.26 2035.47 1027.75 2042.38 1027.24C2048.77 1026.78 2054.92 1028.91 2058.45 1032.8C2059.5 1033.96 2059.26 1035.63 2057.93 1036.54C2056.59 1037.45 2054.66 1037.25 2053.61 1036.09C2051.37 1033.63 2047.16 1032.23 2042.9 1032.55C2040.08 1032.76 2034.82 1033.93 2031.38 1039.42C2027.99 1044.83 2027.29 1050.7 2029.33 1056.38C2031.8 1063.21 2037.98 1069.23 2046.31 1072.89C2058.78 1078.37 2074.17 1078.22 2088.53 1072.47C2096.92 1069.1 2103.55 1063.31 2110.56 1057.18C2114.93 1053.36 2119.45 1049.41 2124.42 1046.13C2129.61 1042.71 2137.62 1038.15 2147.22 1038.06C2156.6 1037.93 2163.65 1042.28 2170.49 1046.46C2176.99 1050.43 2183.11 1054.17 2190.76 1053.81C2192.72 1053.72 2194.68 1053.35 2196.71 1052.91Z" fill="white"/>
<path d="M2196.71 1052.91C2188.66 1049.82 2184.31 1045.12 2181.55 1041.42C2179.66 1038.89 2178.43 1036.19 2177.24 1033.58C2175.02 1028.72 2173.11 1024.53 2167.58 1022.48C2157.36 1018.69 2143.92 1021.63 2135.03 1023.57C2120.68 1026.71 2109.11 1024.88 2102.02 1018.45C2100.89 1019.63 2099.71 1020.76 2098.55 1021.88C2094.09 1026.18 2089.88 1030.23 2089.08 1035.68C2088.96 1036.5 2089.22 1037.34 2089.7 1037.63C2091.08 1038.49 2091.4 1040.15 2090.42 1041.35C2089.8 1042.09 2088.82 1042.48 2087.84 1042.46C2087.24 1042.45 2086.65 1042.29 2086.12 1041.97C2083.76 1040.51 2082.56 1037.84 2082.97 1035.01C2084.02 1027.91 2089.08 1023.03 2093.97 1018.32C2097.66 1014.77 2101.14 1011.42 2102.76 1007.29C2105.08 1001.4 2103.47 994.69 2098.36 988.884C2088.62 977.829 2067.83 971.044 2052.42 978.56C2049.04 980.208 2044.4 983.213 2041.93 986.431C2036.38 996.245 2026.79 1001.52 2014.13 1001.67C2013.04 1001.68 2011.83 1001.54 2010.67 1001.41C2009.45 1001.26 2007.21 1001 2006.55 1001.27C2006.57 1001.3 2006.51 1001.47 2006.51 1001.81C2006.5 1003.68 2006.61 1005.58 2006.72 1007.41C2007.1 1013.62 2007.48 1020.03 2003.03 1026.33C1991.1 1043.2 1966.39 1049.52 1948.85 1049.8C1948.01 1049.82 1947.15 1049.81 1946.28 1049.8C1924.9 1049.37 1898.7 1039.47 1888 1020.58C1887.25 1019.27 1887.88 1017.67 1889.4 1017.02C1890.92 1016.38 1892.77 1016.92 1893.52 1018.24C1903.52 1035.89 1928.86 1044.78 1948.74 1044.48C1964.72 1044.22 1987.16 1038.58 1997.79 1023.54C2001.24 1018.66 2000.94 1013.58 2000.58 1007.69C2000.46 1005.78 2000.35 1003.8 2000.36 1001.78C2000.37 999.83 2001.09 998.307 2002.5 997.25C2005 995.372 2008.6 995.79 2011.49 996.128C2012.47 996.243 2013.41 996.344 2014.04 996.343C2024.08 996.222 2031.43 992.285 2035.99 984.724C2036.06 984.54 2036.15 984.357 2036.27 984.182C2036.39 984.018 2036.51 983.86 2036.63 983.698C2036.65 983.661 2036.68 983.631 2036.7 983.592C2044.95 968.291 2039.93 944.957 2029.94 934.317C2020.73 924.519 2000.97 916.792 1986.25 920.917C1980.74 922.457 1976.38 919.191 1972.87 916.564C1971.83 915.786 1970.85 915.05 1969.94 914.5C1963.34 910.531 1952.91 909.218 1943.4 911.154C1936.22 912.614 1926.29 916.518 1919.72 926.796C1925.64 936.77 1924.32 949.016 1920.77 957.987C1920.81 958.223 1920.83 958.463 1920.79 958.71C1919.18 969.777 1929.67 982.819 1943.23 986.624C1956.81 990.432 1975.94 986.614 1981.68 975.045C1983.88 970.604 1983.91 965.86 1981.77 961.322C1978.93 955.328 1972.61 950.104 1964.84 947.346C1960.93 945.958 1953.07 944.457 1948.63 946.339C1947.22 946.938 1946.37 947.81 1945.97 949.085C1945.61 950.197 1945.76 951.213 1946.42 952.192C1947.64 954.008 1950.58 955.649 1953.9 956.375C1955.55 956.733 1956.55 958.181 1956.14 959.607C1955.73 961.032 1954.05 961.901 1952.41 961.54C1948.54 960.698 1943.54 958.504 1941.1 954.871C1939.61 952.65 1939.24 950.157 1940.04 947.663C1940.91 944.931 1942.94 942.821 1945.92 941.557C1952.71 938.678 1962.79 940.861 1967.17 942.418C1976.43 945.705 1984.01 952.019 1987.46 959.308C1990.24 965.198 1990.2 971.366 1987.33 977.148C1981.8 988.297 1967.14 993.66 1953.17 993.381C1949.08 993.299 1945.06 992.735 1941.33 991.69C1928.66 988.138 1918.54 978.155 1915.46 967.52C1906.74 979.524 1891.44 989.282 1874.06 993.433C1860.27 996.725 1834.84 996.84 1825.29 983.125C1823.38 980.386 1823.11 977.535 1822.87 975.02C1822.7 973.251 1822.54 971.58 1821.82 970.21C1821.02 968.67 1820.44 968.564 1817.54 968.255C1816.94 968.19 1816.3 968.124 1815.64 968.033C1806.5 966.789 1799.28 961.73 1795.85 954.153C1791.93 945.493 1793.67 935.204 1800.29 927.94C1807.28 920.274 1819.08 916.187 1831.84 917.016C1844.18 917.814 1854.78 923.165 1860.17 931.33C1861.01 932.606 1860.5 934.234 1859.03 934.962C1857.55 935.69 1855.67 935.25 1854.83 933.971C1850.45 927.345 1841.69 922.991 1831.38 922.326C1820.81 921.649 1810.75 925.058 1805.12 931.238C1799.83 937.046 1798.44 945.277 1801.58 952.211C1804.23 958.064 1809.56 961.816 1816.59 962.771C1817.18 962.852 1817.75 962.911 1818.28 962.968C1821.51 963.31 1825.17 963.699 1827.43 968.017C1828.58 970.226 1828.79 972.439 1829 974.58C1829.21 976.793 1829.4 978.704 1830.56 980.376C1837.94 990.975 1859.48 991.388 1872.42 988.297C1891.73 983.685 1908.22 971.616 1914.41 957.551C1917.97 949.491 1919.78 936.82 1913.22 927.64C1908.72 921.347 1899.4 911.111 1887.48 913.246L1887.48 913.248C1885.82 913.548 1884.19 912.619 1883.84 911.18C1883.66 910.44 1883.86 909.708 1884.32 909.129C1884.61 906.576 1883.1 896.693 1882.59 894.989C1876.18 874.966 1851 864.511 1829.58 861.407C1805.21 857.878 1778.77 866.811 1762.23 884.169C1760.15 886.36 1758.22 888.689 1756.5 891.089C1750.96 898.845 1747.77 907.362 1747.29 915.717C1746.84 923.59 1749.49 929.423 1752.55 936.178C1753.19 937.577 1753.84 939.009 1754.48 940.501C1754.83 941.2 1755.13 941.92 1755.38 942.659C1755.85 944.044 1754.95 945.5 1753.37 945.94C1751.79 946.383 1750.07 945.649 1749.52 944.287C1749.27 943.672 1749.02 943.065 1748.76 942.464C1746.93 938.88 1743.32 936.081 1738.02 934.128C1725.93 929.683 1708.38 930.979 1699.57 934.98C1684.04 942.032 1671.73 957.177 1670.3 970.99C1669.74 976.356 1671.96 979.27 1675.04 983.301C1676.27 984.917 1677.54 986.59 1678.75 988.575C1678.75 988.579 1678.75 988.583 1678.76 988.586C1679.55 989.889 1678.96 991.499 1677.46 992.18C1676.36 992.678 1675.08 992.546 1674.16 991.931C1671.72 991.915 1664.2 994.181 1662.62 994.971C1645.62 1003.47 1632.93 1020.49 1632.44 1035.45C1632.09 1045.94 1637.6 1054.72 1648.36 1060.85C1658.23 1066.47 1670 1069.59 1681.51 1069.64C1686.49 1069.66 1691.37 1068.86 1696.52 1068C1703.48 1066.85 1710.67 1065.66 1718.19 1066.66C1729.55 1068.19 1740.06 1072.18 1750.22 1076.04C1759.86 1079.7 1769.84 1083.49 1780.29 1085C1786.45 1085.9 1807.6 1088.07 1820.58 1078.45C1838.88 1064.87 1842.56 1040.01 1828.61 1024.15C1819.29 1013.55 1804.42 1006.09 1788.84 1004.18C1777.08 1002.74 1765.46 1005.03 1757.77 1010.31C1748.27 1016.84 1746.21 1028.4 1753.18 1036.09C1755.34 1038.47 1758.23 1040.29 1761.3 1041.21C1767.53 1043.08 1775.01 1041.49 1781.02 1040.21C1782.66 1039.87 1784.34 1040.74 1784.74 1042.17C1785.15 1043.59 1784.14 1045.04 1782.49 1045.39C1775.7 1046.83 1767.24 1048.62 1759.29 1046.25C1755.06 1044.98 1751.27 1042.6 1748.34 1039.38C1739.28 1029.39 1741.8 1014.48 1753.95 1006.14C1762.93 999.973 1776.29 997.263 1789.7 998.908C1806.85 1001.01 1823.23 1009.24 1833.51 1020.93C1844.93 1033.91 1846.24 1051.54 1838.58 1066.28C1852.17 1063.36 1869.2 1069.38 1877.04 1076.58C1889.76 1088.27 1903.91 1099.75 1924.53 1100.46C1924.72 1100.46 1924.91 1100.47 1925.1 1100.47C1939.4 1100.76 1951.27 1093.28 1962.75 1086.04C1963.86 1085.34 1964.96 1084.65 1966.06 1083.97C1973.8 1079.15 1990.44 1071.86 2003.75 1075.11C2009.73 1076.58 2014.21 1080.11 2016.73 1085.32C2017.39 1086.68 2016.65 1088.23 2015.08 1088.8C2013.52 1089.37 2011.72 1088.73 2011.06 1087.37C2009.24 1083.61 2006.3 1081.27 2002.08 1080.24C1996.34 1078.84 1988.68 1080.1 1981.51 1082.65C1981.51 1082.84 1981.5 1083.05 1981.45 1083.25C1980.66 1086.46 1988.94 1091.98 1994.9 1094.13C2001.75 1096.6 2010.4 1097.51 2019.29 1096.69C2031.17 1095.59 2044.34 1090.32 2046.68 1078.89C2045.62 1078.5 2044.56 1078.09 2043.53 1077.64C2033.73 1073.33 2026.42 1066.16 2023.46 1057.97C2020.91 1050.88 2021.78 1043.59 2025.97 1036.88C2029.49 1031.26 2035.47 1027.75 2042.38 1027.24C2048.77 1026.78 2054.92 1028.91 2058.45 1032.8C2059.5 1033.96 2059.26 1035.63 2057.93 1036.54C2056.59 1037.45 2054.66 1037.25 2053.61 1036.09C2051.37 1033.63 2047.16 1032.23 2042.9 1032.55C2040.08 1032.76 2034.82 1033.93 2031.38 1039.42C2027.99 1044.83 2027.29 1050.7 2029.33 1056.38C2031.8 1063.21 2037.98 1069.23 2046.31 1072.89C2058.78 1078.37 2074.17 1078.22 2088.53 1072.47C2096.92 1069.1 2103.55 1063.31 2110.56 1057.18C2114.93 1053.36 2119.45 1049.41 2124.42 1046.13C2129.61 1042.71 2137.62 1038.15 2147.22 1038.06C2156.6 1037.93 2163.65 1042.28 2170.49 1046.46C2176.99 1050.43 2183.11 1054.17 2190.76 1053.81C2192.72 1053.72 2194.68 1053.35 2196.71 1052.91Z" stroke="#ECE1D6" stroke-width="6" mask="url(#path-14-outside-3_0_1)"/>
</svg>