<svg width="450" height="179" viewBox="0 0 450 179" fill="none" xmlns="http://www.w3.org/2000/svg">
<mask id="path-1-outside-1_1_70475" maskUnits="userSpaceOnUse" x="141.243" y="0.64804" width="310.088" height="179.206" fill="black">
<rect fill="white" x="141.243" y="0.64804" width="310.088" height="179.206"/>
<path d="M433.286 91.6059C437.728 89.8512 442.477 90.3739 447.102 90.9883C445.498 90.3122 443.953 89.5515 442.44 88.8063C441.775 88.4788 441.11 88.1519 440.443 87.8335C434.538 85.0128 428.728 82.6515 422.597 84.6722C415.412 87.0402 408.936 92.8613 404.097 97.6677C403.92 97.8433 403.778 98.051 403.631 98.2527C403.341 98.6476 402.979 99.1388 402.478 99.578C393.422 107.531 375.605 115.91 363.664 106.409C359.781 103.322 357.065 99.1333 354.824 95.4494C348.05 84.3116 339.914 74.5639 326.395 78.5874C326.074 78.6835 325.741 78.8372 325.355 79.0151C324.909 79.2218 324.462 79.4232 323.986 79.5827C323.795 79.6471 323.545 79.7434 323.264 79.8499C321.536 80.5084 320.217 80.9572 319.11 80.7824C318.364 80.6641 317.746 80.1557 317.485 79.448C316.654 77.198 318.693 75.4508 319.789 74.5118C319.967 74.3605 320.128 74.2274 320.237 74.1152C320.916 73.4129 321.651 72.8646 322.364 72.3337C323.189 71.7182 323.969 71.1363 324.431 70.4553C329.364 63.1885 329.733 55.9545 325.499 49.5341C318.981 39.6522 302.603 33.6536 289.73 36.4433C283.471 37.7976 275.553 41.7394 273.386 52.8217L271.792 60.9686C271.567 62.1289 270.465 62.9132 269.301 62.7107C268.15 62.5144 267.391 61.4177 267.604 60.2546C268.879 53.2765 270.324 45.3675 268.228 38.3629C266.893 33.903 264.007 29.4632 259.403 24.7908C242.85 7.98766 217.141 0.786259 193.923 6.44348C183.004 9.10437 173.944 14.7687 165.409 24.27C159.915 30.3858 153.268 38.6458 150.622 48.3226C146.776 62.3806 152.061 78.4543 163.772 88.3198C174.733 97.552 190.54 101.152 206.053 97.9479C210.47 97.0368 214.479 95.6237 217.999 93.7922C219.986 92.1513 222.187 90.6483 224.607 89.335C225.104 88.9009 225.6 88.4655 226.059 88.006C236.229 77.8211 235.366 61.3583 228.734 51.9474C222.875 43.6346 213.833 41.7114 203.927 46.6663C200.842 48.2088 197.173 51.558 196.408 55.2625C196.011 57.1973 196.496 58.9093 197.897 60.4969C198.67 61.3729 198.576 62.7283 197.687 63.5236C196.8 64.3176 195.455 64.2532 194.679 63.3765C192.41 60.8038 191.564 57.7273 192.233 54.479C193.297 49.3109 197.951 44.9088 202.092 42.8383C213.899 36.9361 225.166 39.3962 232.231 49.4227C238.822 58.7746 240.405 74.2057 233.128 85.8336C239.808 83.8713 247.658 83.2139 256.706 84.5147C266.063 85.8598 278.407 91.6672 282.398 103.612C286.683 116.425 278.569 129.681 268.758 135.647C262.289 139.58 253.354 140.401 247.028 137.65C242.206 135.552 239.129 131.686 238.13 126.469C236.577 118.359 241.641 110.106 249.188 108.446C253.352 107.531 257.208 108.182 259.503 110.186C260.725 111.252 262.124 113.236 261.856 116.631C261.69 118.732 260.412 120.796 258.525 122.021C256.787 123.147 254.787 123.42 253.034 122.765C251.938 122.356 251.398 121.124 251.83 120.014C252.26 118.904 253.5 118.338 254.594 118.745C255.28 119.002 255.992 118.614 256.266 118.435C257.02 117.947 257.545 117.14 257.606 116.379C257.711 115.048 257.404 114.088 256.668 113.446C255.402 112.34 252.795 112.019 250.016 112.632C244.175 113.915 241.321 120.361 242.319 125.575C243.056 129.426 245.234 132.164 248.792 133.712C253.935 135.951 261.264 135.244 266.606 131.994C274.968 126.909 281.927 115.739 278.353 105.052C274.963 94.9065 264.202 89.9326 256.017 88.7565C244.02 87.0329 234.356 89.016 226.942 92.9314C225.003 94.5664 222.811 96.0124 220.436 97.2928C216.148 100.884 213.012 105.179 211.014 109.528C204.814 123.018 207.662 141.672 216.734 154.95C216.917 155.014 217.097 155.094 217.262 155.213C217.818 155.609 218.111 156.231 218.127 156.872C220.365 159.813 222.923 162.443 225.776 164.624C238.133 174.064 258.957 176.512 272.205 170.08C281.485 165.572 289.373 157.238 294.608 146.471C292.291 145.712 290.204 144.666 288.416 143.349C283.98 140.079 281.323 134.937 281.48 129.93C281.517 128.747 282.503 127.798 283.68 127.811C283.682 127.811 283.684 127.811 283.687 127.811C284.861 127.827 285.78 128.796 285.744 129.976C285.629 133.614 287.637 137.407 290.986 139.876C293.942 142.056 297.988 143.339 302.686 143.588C312.779 144.131 322.286 139.979 332.662 130.555C333.545 129.753 334.892 129.809 335.671 130.679C336.451 131.55 336.367 132.905 335.484 133.707C324.804 143.406 314.408 148.064 303.753 147.913C303.293 147.906 302.833 147.891 302.373 147.867C301.209 147.805 300.083 147.675 298.985 147.502C297.196 154.551 304.072 161.515 308.722 164.683C316.381 169.895 327.202 170.904 336.965 167.313C345.981 163.999 353.965 156.169 359.483 145.258C356.37 141.542 355.197 136.607 355.849 132.361C356.688 126.883 360.833 121.002 369.943 120.923C371.053 120.914 374.952 121.138 377.861 124.441C380.255 127.158 381.153 131.008 380.531 135.883C380.38 137.059 379.287 137.91 378.145 137.784C376.976 137.658 376.151 136.602 376.302 135.425C376.763 131.818 376.204 129.091 374.643 127.319C373.254 125.744 371.254 125.202 369.89 125.207C362.078 125.276 360.415 130.628 360.062 132.926C359.283 138.008 362.214 144.323 368.468 146.097C376.61 148.405 389.783 145.668 395.669 138.046C397.052 136.257 396.879 134.812 396.616 132.623C396.405 130.854 396.163 128.848 396.85 126.515C398.528 120.805 403.67 121.163 406.731 121.374C407.733 121.444 408.659 121.456 409.732 121.535C410.487 121.589 411.345 121.653 411.818 121.519C416.1 120.309 417.302 116.205 418.644 110.082C418.996 108.475 419.328 106.958 419.774 105.525C421.794 99.031 426.341 94.3487 433.286 91.6059Z"/>
</mask>
<path d="M433.286 91.6059C437.728 89.8512 442.477 90.3739 447.102 90.9883C445.498 90.3122 443.953 89.5515 442.44 88.8063C441.775 88.4788 441.11 88.1519 440.443 87.8335C434.538 85.0128 428.728 82.6515 422.597 84.6722C415.412 87.0402 408.936 92.8613 404.097 97.6677C403.92 97.8433 403.778 98.051 403.631 98.2527C403.341 98.6476 402.979 99.1388 402.478 99.578C393.422 107.531 375.605 115.91 363.664 106.409C359.781 103.322 357.065 99.1333 354.824 95.4494C348.05 84.3116 339.914 74.5639 326.395 78.5874C326.074 78.6835 325.741 78.8372 325.355 79.0151C324.909 79.2218 324.462 79.4232 323.986 79.5827C323.795 79.6471 323.545 79.7434 323.264 79.8499C321.536 80.5084 320.217 80.9572 319.11 80.7824C318.364 80.6641 317.746 80.1557 317.485 79.448C316.654 77.198 318.693 75.4508 319.789 74.5118C319.967 74.3605 320.128 74.2274 320.237 74.1152C320.916 73.4129 321.651 72.8646 322.364 72.3337C323.189 71.7182 323.969 71.1363 324.431 70.4553C329.364 63.1885 329.733 55.9545 325.499 49.5341C318.981 39.6522 302.603 33.6536 289.73 36.4433C283.471 37.7976 275.553 41.7394 273.386 52.8217L271.792 60.9686C271.567 62.1289 270.465 62.9132 269.301 62.7107C268.15 62.5144 267.391 61.4177 267.604 60.2546C268.879 53.2765 270.324 45.3675 268.228 38.3629C266.893 33.903 264.007 29.4632 259.403 24.7908C242.85 7.98766 217.141 0.786259 193.923 6.44348C183.004 9.10437 173.944 14.7687 165.409 24.27C159.915 30.3858 153.268 38.6458 150.622 48.3226C146.776 62.3806 152.061 78.4543 163.772 88.3198C174.733 97.552 190.54 101.152 206.053 97.9479C210.47 97.0368 214.479 95.6237 217.999 93.7922C219.986 92.1513 222.187 90.6483 224.607 89.335C225.104 88.9009 225.6 88.4655 226.059 88.006C236.229 77.8211 235.366 61.3583 228.734 51.9474C222.875 43.6346 213.833 41.7114 203.927 46.6663C200.842 48.2088 197.173 51.558 196.408 55.2625C196.011 57.1973 196.496 58.9093 197.897 60.4969C198.67 61.3729 198.576 62.7283 197.687 63.5236C196.8 64.3176 195.455 64.2532 194.679 63.3765C192.41 60.8038 191.564 57.7273 192.233 54.479C193.297 49.3109 197.951 44.9088 202.092 42.8383C213.899 36.9361 225.166 39.3962 232.231 49.4227C238.822 58.7746 240.405 74.2057 233.128 85.8336C239.808 83.8713 247.658 83.2139 256.706 84.5147C266.063 85.8598 278.407 91.6672 282.398 103.612C286.683 116.425 278.569 129.681 268.758 135.647C262.289 139.58 253.354 140.401 247.028 137.65C242.206 135.552 239.129 131.686 238.13 126.469C236.577 118.359 241.641 110.106 249.188 108.446C253.352 107.531 257.208 108.182 259.503 110.186C260.725 111.252 262.124 113.236 261.856 116.631C261.69 118.732 260.412 120.796 258.525 122.021C256.787 123.147 254.787 123.42 253.034 122.765C251.938 122.356 251.398 121.124 251.83 120.014C252.26 118.904 253.5 118.338 254.594 118.745C255.28 119.002 255.992 118.614 256.266 118.435C257.02 117.947 257.545 117.14 257.606 116.379C257.711 115.048 257.404 114.088 256.668 113.446C255.402 112.34 252.795 112.019 250.016 112.632C244.175 113.915 241.321 120.361 242.319 125.575C243.056 129.426 245.234 132.164 248.792 133.712C253.935 135.951 261.264 135.244 266.606 131.994C274.968 126.909 281.927 115.739 278.353 105.052C274.963 94.9065 264.202 89.9326 256.017 88.7565C244.02 87.0329 234.356 89.016 226.942 92.9314C225.003 94.5664 222.811 96.0124 220.436 97.2928C216.148 100.884 213.012 105.179 211.014 109.528C204.814 123.018 207.662 141.672 216.734 154.95C216.917 155.014 217.097 155.094 217.262 155.213C217.818 155.609 218.111 156.231 218.127 156.872C220.365 159.813 222.923 162.443 225.776 164.624C238.133 174.064 258.957 176.512 272.205 170.08C281.485 165.572 289.373 157.238 294.608 146.471C292.291 145.712 290.204 144.666 288.416 143.349C283.98 140.079 281.323 134.937 281.48 129.93C281.517 128.747 282.503 127.798 283.68 127.811C283.682 127.811 283.684 127.811 283.687 127.811C284.861 127.827 285.78 128.796 285.744 129.976C285.629 133.614 287.637 137.407 290.986 139.876C293.942 142.056 297.988 143.339 302.686 143.588C312.779 144.131 322.286 139.979 332.662 130.555C333.545 129.753 334.892 129.809 335.671 130.679C336.451 131.55 336.367 132.905 335.484 133.707C324.804 143.406 314.408 148.064 303.753 147.913C303.293 147.906 302.833 147.891 302.373 147.867C301.209 147.805 300.083 147.675 298.985 147.502C297.196 154.551 304.072 161.515 308.722 164.683C316.381 169.895 327.202 170.904 336.965 167.313C345.981 163.999 353.965 156.169 359.483 145.258C356.37 141.542 355.197 136.607 355.849 132.361C356.688 126.883 360.833 121.002 369.943 120.923C371.053 120.914 374.952 121.138 377.861 124.441C380.255 127.158 381.153 131.008 380.531 135.883C380.38 137.059 379.287 137.91 378.145 137.784C376.976 137.658 376.151 136.602 376.302 135.425C376.763 131.818 376.204 129.091 374.643 127.319C373.254 125.744 371.254 125.202 369.89 125.207C362.078 125.276 360.415 130.628 360.062 132.926C359.283 138.008 362.214 144.323 368.468 146.097C376.61 148.405 389.783 145.668 395.669 138.046C397.052 136.257 396.879 134.812 396.616 132.623C396.405 130.854 396.163 128.848 396.85 126.515C398.528 120.805 403.67 121.163 406.731 121.374C407.733 121.444 408.659 121.456 409.732 121.535C410.487 121.589 411.345 121.653 411.818 121.519C416.1 120.309 417.302 116.205 418.644 110.082C418.996 108.475 419.328 106.958 419.774 105.525C421.794 99.031 426.341 94.3487 433.286 91.6059Z" fill="white"/>
<path d="M433.286 91.6059C437.728 89.8512 442.477 90.3739 447.102 90.9883C445.498 90.3122 443.953 89.5515 442.44 88.8063C441.775 88.4788 441.11 88.1519 440.443 87.8335C434.538 85.0128 428.728 82.6515 422.597 84.6722C415.412 87.0402 408.936 92.8613 404.097 97.6677C403.92 97.8433 403.778 98.051 403.631 98.2527C403.341 98.6476 402.979 99.1388 402.478 99.578C393.422 107.531 375.605 115.91 363.664 106.409C359.781 103.322 357.065 99.1333 354.824 95.4494C348.05 84.3116 339.914 74.5639 326.395 78.5874C326.074 78.6835 325.741 78.8372 325.355 79.0151C324.909 79.2218 324.462 79.4232 323.986 79.5827C323.795 79.6471 323.545 79.7434 323.264 79.8499C321.536 80.5084 320.217 80.9572 319.11 80.7824C318.364 80.6641 317.746 80.1557 317.485 79.448C316.654 77.198 318.693 75.4508 319.789 74.5118C319.967 74.3605 320.128 74.2274 320.237 74.1152C320.916 73.4129 321.651 72.8646 322.364 72.3337C323.189 71.7182 323.969 71.1363 324.431 70.4553C329.364 63.1885 329.733 55.9545 325.499 49.5341C318.981 39.6522 302.603 33.6536 289.73 36.4433C283.471 37.7976 275.553 41.7394 273.386 52.8217L271.792 60.9686C271.567 62.1289 270.465 62.9132 269.301 62.7107C268.15 62.5144 267.391 61.4177 267.604 60.2546C268.879 53.2765 270.324 45.3675 268.228 38.3629C266.893 33.903 264.007 29.4632 259.403 24.7908C242.85 7.98766 217.141 0.786259 193.923 6.44348C183.004 9.10437 173.944 14.7687 165.409 24.27C159.915 30.3858 153.268 38.6458 150.622 48.3226C146.776 62.3806 152.061 78.4543 163.772 88.3198C174.733 97.552 190.54 101.152 206.053 97.9479C210.47 97.0368 214.479 95.6237 217.999 93.7922C219.986 92.1513 222.187 90.6483 224.607 89.335C225.104 88.9009 225.6 88.4655 226.059 88.006C236.229 77.8211 235.366 61.3583 228.734 51.9474C222.875 43.6346 213.833 41.7114 203.927 46.6663C200.842 48.2088 197.173 51.558 196.408 55.2625C196.011 57.1973 196.496 58.9093 197.897 60.4969C198.67 61.3729 198.576 62.7283 197.687 63.5236C196.8 64.3176 195.455 64.2532 194.679 63.3765C192.41 60.8038 191.564 57.7273 192.233 54.479C193.297 49.3109 197.951 44.9088 202.092 42.8383C213.899 36.9361 225.166 39.3962 232.231 49.4227C238.822 58.7746 240.405 74.2057 233.128 85.8336C239.808 83.8713 247.658 83.2139 256.706 84.5147C266.063 85.8598 278.407 91.6672 282.398 103.612C286.683 116.425 278.569 129.681 268.758 135.647C262.289 139.58 253.354 140.401 247.028 137.65C242.206 135.552 239.129 131.686 238.13 126.469C236.577 118.359 241.641 110.106 249.188 108.446C253.352 107.531 257.208 108.182 259.503 110.186C260.725 111.252 262.124 113.236 261.856 116.631C261.69 118.732 260.412 120.796 258.525 122.021C256.787 123.147 254.787 123.42 253.034 122.765C251.938 122.356 251.398 121.124 251.83 120.014C252.26 118.904 253.5 118.338 254.594 118.745C255.28 119.002 255.992 118.614 256.266 118.435C257.02 117.947 257.545 117.14 257.606 116.379C257.711 115.048 257.404 114.088 256.668 113.446C255.402 112.34 252.795 112.019 250.016 112.632C244.175 113.915 241.321 120.361 242.319 125.575C243.056 129.426 245.234 132.164 248.792 133.712C253.935 135.951 261.264 135.244 266.606 131.994C274.968 126.909 281.927 115.739 278.353 105.052C274.963 94.9065 264.202 89.9326 256.017 88.7565C244.02 87.0329 234.356 89.016 226.942 92.9314C225.003 94.5664 222.811 96.0124 220.436 97.2928C216.148 100.884 213.012 105.179 211.014 109.528C204.814 123.018 207.662 141.672 216.734 154.95C216.917 155.014 217.097 155.094 217.262 155.213C217.818 155.609 218.111 156.231 218.127 156.872C220.365 159.813 222.923 162.443 225.776 164.624C238.133 174.064 258.957 176.512 272.205 170.08C281.485 165.572 289.373 157.238 294.608 146.471C292.291 145.712 290.204 144.666 288.416 143.349C283.98 140.079 281.323 134.937 281.48 129.93C281.517 128.747 282.503 127.798 283.68 127.811C283.682 127.811 283.684 127.811 283.687 127.811C284.861 127.827 285.78 128.796 285.744 129.976C285.629 133.614 287.637 137.407 290.986 139.876C293.942 142.056 297.988 143.339 302.686 143.588C312.779 144.131 322.286 139.979 332.662 130.555C333.545 129.753 334.892 129.809 335.671 130.679C336.451 131.55 336.367 132.905 335.484 133.707C324.804 143.406 314.408 148.064 303.753 147.913C303.293 147.906 302.833 147.891 302.373 147.867C301.209 147.805 300.083 147.675 298.985 147.502C297.196 154.551 304.072 161.515 308.722 164.683C316.381 169.895 327.202 170.904 336.965 167.313C345.981 163.999 353.965 156.169 359.483 145.258C356.37 141.542 355.197 136.607 355.849 132.361C356.688 126.883 360.833 121.002 369.943 120.923C371.053 120.914 374.952 121.138 377.861 124.441C380.255 127.158 381.153 131.008 380.531 135.883C380.38 137.059 379.287 137.91 378.145 137.784C376.976 137.658 376.151 136.602 376.302 135.425C376.763 131.818 376.204 129.091 374.643 127.319C373.254 125.744 371.254 125.202 369.89 125.207C362.078 125.276 360.415 130.628 360.062 132.926C359.283 138.008 362.214 144.323 368.468 146.097C376.61 148.405 389.783 145.668 395.669 138.046C397.052 136.257 396.879 134.812 396.616 132.623C396.405 130.854 396.163 128.848 396.85 126.515C398.528 120.805 403.67 121.163 406.731 121.374C407.733 121.444 408.659 121.456 409.732 121.535C410.487 121.589 411.345 121.653 411.818 121.519C416.1 120.309 417.302 116.205 418.644 110.082C418.996 108.475 419.328 106.958 419.774 105.525C421.794 99.031 426.341 94.3487 433.286 91.6059Z" stroke="#ECE1D8" stroke-width="6" mask="url(#path-1-outside-1_1_70475)"/>
<path d="M148.237 69.4813C150.602 76.8539 154.955 83.6874 160.965 88.9447L161.552 89.4491L162.098 89.9011C173.629 99.3052 190.03 102.991 206.147 99.6619L207.212 99.428C208.269 99.1824 209.306 98.9023 210.338 98.6022L214.516 97.3879L211.934 100.911C210.392 103.016 209.114 105.199 208.107 107.39C201.472 121.833 204.245 141.348 213.925 155.483L214.545 156.391L213.845 157.268C209.988 162.092 204.852 166.189 199.198 168.099C193.489 170.027 187.276 169.708 181.52 165.704C180.164 164.761 178.821 163.711 177.719 162.753C176.655 161.831 175.698 160.896 175.22 160.194L174.862 159.668L175.001 159.038C175.044 158.844 174.998 158.643 174.873 158.492L174.814 158.429C174.562 158.196 174.165 158.217 173.929 158.475L173.923 158.482L172.815 159.704C172.451 160.109 172.092 160.511 171.734 160.912L171.734 160.913C167.702 165.43 163.984 169.629 157.598 172.128C151.542 174.499 144.456 175.13 138.125 173.871C128.238 171.904 122.954 166.982 116.025 160.57C115.157 159.767 114.271 158.948 113.352 158.11C111.697 156.604 109.908 154.694 108.072 152.735C106.895 151.48 105.663 150.167 104.363 148.845L106.211 146.479C112.986 150.366 119.711 154.181 126.946 155.353C128.996 155.686 131.047 155.864 133.078 155.892C142.355 156.024 151.146 153.051 157.44 147.598L157.441 147.598C157.713 147.362 157.748 146.951 157.519 146.683L157.517 146.681C157.291 146.416 156.9 146.393 156.636 146.622L156.634 146.624C149.128 153.125 138.11 155.851 127.17 154.079C119.998 152.917 113.08 148.926 106.681 145.254C98.1933 140.384 89.9391 135.716 80.8131 136.072L80.773 136.074L80.7329 136.073C79.2729 136.052 77.7684 136.161 76.2085 136.437L76.2094 136.438C76.1005 136.457 75.9954 136.508 75.8982 136.594L75.6249 136.838L75.2748 136.931C74.1902 137.223 73.1221 137.558 72.0448 137.997L72.0439 137.997C68.4136 139.476 65.0356 141.495 61.6882 143.584L60.2549 144.483C53.4416 148.764 46.5303 153.146 37.8719 152.832L37.0284 152.787C32.0553 152.432 28.3579 150.705 25.4334 147.807C22.7394 145.138 20.7694 141.542 18.9972 137.355L18.6457 136.511C17.8701 134.62 16.8426 132.126 15.3127 129.833C13.7835 127.541 11.8306 125.572 9.27056 124.609L4.91176 122.97L9.46584 121.756C9.60592 121.719 9.73995 121.683 9.87218 121.647L9.87615 121.645C11.9219 121.084 13.8911 120.908 16.3804 121.017L16.3823 121.017C17.9965 121.09 19.4032 121.701 20.6977 122.248C21.1267 122.429 21.5367 122.602 21.9479 122.762L22.3607 122.917L22.3616 122.918C23.9967 123.514 25.4309 124.186 26.7586 124.807L26.7596 124.807C30.1798 126.406 33.1253 127.775 37.8747 127.469L39.0431 127.387C41.7576 127.173 44.3816 126.789 46.7695 125.639C52.5422 122.858 56.1258 117.893 59.8306 112.71C62.6871 108.714 65.5608 104.668 69.5828 101.822C79.0179 95.1484 92.2761 95.1159 101.236 101.766L101.93 102.281L101.812 103.147C101.513 105.361 101.439 107.574 101.649 109.752L101.696 110.188L101.696 110.189C102.412 116.481 105.583 122.408 110.38 126.433C114.613 129.983 121.349 132.056 128.123 132.151C132.086 132.207 135.975 131.583 139.282 130.249C145.24 127.846 148.857 123.341 149.646 117.542L149.692 117.171C150.559 109.435 145.271 104.069 139.774 102.354C133.571 100.418 127.594 102.899 124.42 108.75L124.419 108.751C124.266 109.032 124.338 109.366 124.563 109.554L124.669 109.626L124.784 109.673C125.06 109.753 125.372 109.631 125.521 109.356L125.522 109.355C127.204 106.254 129.559 104.424 132.104 103.581C134.615 102.75 137.206 102.91 139.379 103.589C144.253 105.109 149.229 109.938 148.436 117.053L148.393 117.393C147.644 122.893 144.334 126.836 138.838 129.052C134.499 130.802 129.215 131.233 124.261 130.59C119.317 129.949 114.512 128.212 111.195 125.431L111.194 125.431C106.631 121.603 103.63 115.991 102.95 110.014C102.218 103.575 103.977 96.9796 106.976 91.19C109.882 85.5799 114.002 80.6275 118.342 77.1875L118.763 76.8586C125.859 71.4107 135.827 68.518 146.831 68.4653L147.91 68.4601L148.237 69.4813Z" fill="white" stroke="#ECE1D8" stroke-width="3"/>
</svg>
