<svg width="393" height="90" viewBox="0 0 393 90" fill="none" xmlns="http://www.w3.org/2000/svg">
<mask id="path-1-outside-1_0_1" maskUnits="userSpaceOnUse" x="240.362" y="-0.54117" width="155.991" height="92.4906" fill="black">
<rect fill="white" x="240.362" y="-0.54117" width="155.991" height="92.4906"/>
<path d="M249.784 46.78C247.589 45.9416 245.228 46.2182 242.927 46.539C243.728 46.2013 244.5 45.8225 245.256 45.4515C245.588 45.2883 245.92 45.1255 246.253 44.9669C249.203 43.5615 252.103 42.3812 255.135 43.3422C258.689 44.4684 261.869 47.2864 264.242 49.6153C264.329 49.7004 264.398 49.8014 264.47 49.8994C264.612 50.0912 264.788 50.3298 265.035 50.5423C269.483 54.3915 278.279 58.4101 284.268 53.7115C286.215 52.1844 287.59 50.1243 288.725 48.313C292.158 42.8366 296.258 38.034 302.947 39.9418C303.106 39.9873 303.271 40.061 303.461 40.1464C303.681 40.2454 303.902 40.3419 304.137 40.4179C304.232 40.4485 304.356 40.4945 304.495 40.5453C305.349 40.8597 306.001 41.0733 306.552 40.983C306.923 40.9218 307.233 40.6705 307.367 40.3233C307.793 39.2193 306.791 38.3739 306.253 37.9196C306.166 37.8464 306.086 37.782 306.033 37.7276C305.7 37.3872 305.339 37.1223 304.988 36.8659C304.582 36.5686 304.198 36.2875 303.973 35.9565C301.568 32.4248 301.429 28.8889 303.572 25.7306C306.87 20.8695 315.04 17.8639 321.416 19.1712C324.516 19.8058 328.423 21.6984 329.431 27.1081L330.172 31.0849C330.277 31.6513 330.819 32.03 331.399 31.9258C331.971 31.8247 332.355 31.2851 332.257 30.7173C331.667 27.3106 330.998 23.4494 332.082 20.0149C332.772 17.8281 334.233 15.6442 336.548 13.3391C344.873 5.04916 357.684 1.41408 369.179 4.07794C374.585 5.3309 379.05 8.06075 383.23 12.6693C385.92 15.6356 389.17 19.6455 390.424 24.3658C392.247 31.2232 389.524 39.1067 383.647 43.9827C378.147 48.5457 370.274 50.3761 362.59 48.8776C360.402 48.4516 358.42 47.7783 356.683 46.8982C355.707 46.1046 354.623 45.3793 353.429 44.7478C353.185 44.5377 352.942 44.327 352.717 44.1043C347.729 39.1688 348.259 31.1146 351.611 26.4833C354.572 22.3924 359.074 21.4121 363.963 23.7913C365.486 24.532 367.287 26.1535 367.644 27.9616C367.829 28.906 367.577 29.7453 366.872 30.5279C366.483 30.9596 366.521 31.622 366.957 32.007C367.393 32.3914 368.061 32.3539 368.452 31.9218C369.595 30.6537 370.034 29.1455 369.722 27.5601C369.225 25.0376 366.941 22.9055 364.898 21.9113C359.071 19.0772 353.46 20.33 349.89 25.2642C346.559 29.8664 345.677 37.4193 349.219 43.0732C345.914 42.1432 342.02 41.8564 337.519 42.5324C332.863 43.2316 326.698 46.1259 324.642 51.9845C322.435 58.2693 326.382 64.7158 331.218 67.5898C334.406 69.4843 338.838 69.8463 341.997 68.473C344.404 67.4258 345.956 65.5217 346.485 62.9665C347.306 58.9935 344.842 54.9802 341.105 54.202C339.042 53.7728 337.123 54.1081 335.971 55.0981C335.358 55.625 334.651 56.6013 334.763 58.2601C334.832 59.2869 335.454 60.2907 336.384 60.881C337.24 61.4242 338.231 61.549 339.106 61.2209C339.653 61.0159 339.929 60.411 339.721 59.8704C339.514 59.3291 338.902 59.0581 338.356 59.262C338.014 59.3907 337.663 59.2039 337.528 59.1177C337.156 58.8823 336.9 58.4899 336.875 58.1184C336.831 57.468 336.989 56.9972 337.359 56.6796C337.995 56.1333 339.291 55.9649 340.667 56.2522C343.56 56.854 344.938 59.9933 344.41 62.5475C344.02 64.4341 342.921 65.7824 341.145 66.555C338.577 67.6728 334.942 67.3592 332.309 65.7939C328.188 63.3442 324.801 57.9126 326.642 52.6708C328.388 47.6947 333.763 45.215 337.835 44.6037C343.803 43.7078 348.59 44.6349 352.248 46.5168C353.2 47.3077 354.28 48.0052 355.452 48.6208C357.559 50.3578 359.09 52.4444 360.055 54.5623C363.051 61.1314 361.521 70.2662 356.934 76.7992C356.843 76.8312 356.753 76.8712 356.67 76.9299C356.392 77.1262 356.242 77.4314 356.23 77.745C355.101 79.193 353.814 80.4908 352.384 81.5697C346.189 86.2405 335.833 87.5296 329.293 84.4425C324.713 82.2793 320.847 78.2389 318.313 72.9967C319.469 72.6155 320.512 72.0949 321.408 71.4427C323.631 69.8241 324.982 67.298 324.935 64.8501C324.924 64.2719 324.44 63.8121 323.856 63.8236C323.855 63.8236 323.854 63.8236 323.852 63.8236C323.269 63.8369 322.807 64.3144 322.818 64.8916C322.852 66.6698 321.832 68.5338 320.153 69.756C318.672 70.8348 316.654 71.4801 314.32 71.6224C309.304 71.9326 304.609 69.9443 299.514 65.382C299.081 64.9938 298.411 65.0267 298.019 65.456C297.627 65.885 297.66 66.5475 298.093 66.9357C303.337 71.6315 308.471 73.863 313.763 73.7422C313.992 73.737 314.22 73.7273 314.449 73.7137C315.027 73.6783 315.587 73.6097 316.134 73.5201C316.978 76.9592 313.521 80.3952 311.192 81.9648C307.356 84.5473 301.976 85.0885 297.15 83.376C292.693 81.7948 288.777 78.0013 286.104 72.6903C287.673 70.8594 288.286 68.4407 287.988 66.3674C287.605 63.6923 285.583 60.8347 281.06 60.8364C280.508 60.8368 278.571 60.9639 277.106 62.5919C275.9 63.9308 275.43 65.8176 275.709 68.1985C275.777 68.7732 276.315 69.1844 276.882 69.1178C277.464 69.0509 277.88 68.5311 277.812 67.9561C277.606 66.1944 277.9 64.8582 278.686 63.9849C279.386 63.2086 280.382 62.9345 281.06 62.9313C284.939 62.9302 285.732 65.5404 285.892 66.6624C286.248 69.1438 284.754 72.2448 281.636 73.1399C277.579 74.3045 271.054 73.0244 268.178 69.3235C267.503 68.4546 267.598 67.7471 267.741 66.6756C267.857 65.8098 267.99 64.8276 267.663 63.6898C266.865 60.9049 264.309 61.1027 262.788 61.2194C262.29 61.2584 261.83 61.2679 261.296 61.3112C260.921 61.3413 260.495 61.3765 260.261 61.313C258.141 60.7399 257.57 58.7387 256.941 55.7501C256.777 54.9662 256.621 54.2258 256.409 53.5266C255.446 50.3602 253.216 48.0906 249.784 46.78Z"/>
</mask>
<path d="M249.784 46.78C247.589 45.9416 245.228 46.2182 242.927 46.539C243.728 46.2013 244.5 45.8225 245.256 45.4515C245.588 45.2883 245.92 45.1255 246.253 44.9669C249.203 43.5615 252.103 42.3812 255.135 43.3422C258.689 44.4684 261.869 47.2864 264.242 49.6153C264.329 49.7004 264.398 49.8014 264.47 49.8994C264.612 50.0912 264.788 50.3298 265.035 50.5423C269.483 54.3915 278.279 58.4101 284.268 53.7115C286.215 52.1844 287.59 50.1243 288.725 48.313C292.158 42.8366 296.258 38.034 302.947 39.9418C303.106 39.9873 303.271 40.061 303.461 40.1464C303.681 40.2454 303.902 40.3419 304.137 40.4179C304.232 40.4485 304.356 40.4945 304.495 40.5453C305.349 40.8597 306.001 41.0733 306.552 40.983C306.923 40.9218 307.233 40.6705 307.367 40.3233C307.793 39.2193 306.791 38.3739 306.253 37.9196C306.166 37.8464 306.086 37.782 306.033 37.7276C305.7 37.3872 305.339 37.1223 304.988 36.8659C304.582 36.5686 304.198 36.2875 303.973 35.9565C301.568 32.4248 301.429 28.8889 303.572 25.7306C306.87 20.8695 315.04 17.8639 321.416 19.1712C324.516 19.8058 328.423 21.6984 329.431 27.1081L330.172 31.0849C330.277 31.6513 330.819 32.03 331.399 31.9258C331.971 31.8247 332.355 31.2851 332.257 30.7173C331.667 27.3106 330.998 23.4494 332.082 20.0149C332.772 17.8281 334.233 15.6442 336.548 13.3391C344.873 5.04916 357.684 1.41408 369.179 4.07794C374.585 5.3309 379.05 8.06075 383.23 12.6693C385.92 15.6356 389.17 19.6455 390.424 24.3658C392.247 31.2232 389.524 39.1067 383.647 43.9827C378.147 48.5457 370.274 50.3761 362.59 48.8776C360.402 48.4516 358.42 47.7783 356.683 46.8982C355.707 46.1046 354.623 45.3793 353.429 44.7478C353.185 44.5377 352.942 44.327 352.717 44.1043C347.729 39.1688 348.259 31.1146 351.611 26.4833C354.572 22.3924 359.074 21.4121 363.963 23.7913C365.486 24.532 367.287 26.1535 367.644 27.9616C367.829 28.906 367.577 29.7453 366.872 30.5279C366.483 30.9596 366.521 31.622 366.957 32.007C367.393 32.3914 368.061 32.3539 368.452 31.9218C369.595 30.6537 370.034 29.1455 369.722 27.5601C369.225 25.0376 366.941 22.9055 364.898 21.9113C359.071 19.0772 353.46 20.33 349.89 25.2642C346.559 29.8664 345.677 37.4193 349.219 43.0732C345.914 42.1432 342.02 41.8564 337.519 42.5324C332.863 43.2316 326.698 46.1259 324.642 51.9845C322.435 58.2693 326.382 64.7158 331.218 67.5898C334.406 69.4843 338.838 69.8463 341.997 68.473C344.404 67.4258 345.956 65.5217 346.485 62.9665C347.306 58.9935 344.842 54.9802 341.105 54.202C339.042 53.7728 337.123 54.1081 335.971 55.0981C335.358 55.625 334.651 56.6013 334.763 58.2601C334.832 59.2869 335.454 60.2907 336.384 60.881C337.24 61.4242 338.231 61.549 339.106 61.2209C339.653 61.0159 339.929 60.411 339.721 59.8704C339.514 59.3291 338.902 59.0581 338.356 59.262C338.014 59.3907 337.663 59.2039 337.528 59.1177C337.156 58.8823 336.9 58.4899 336.875 58.1184C336.831 57.468 336.989 56.9972 337.359 56.6796C337.995 56.1333 339.291 55.9649 340.667 56.2522C343.56 56.854 344.938 59.9933 344.41 62.5475C344.02 64.4341 342.921 65.7824 341.145 66.555C338.577 67.6728 334.942 67.3592 332.309 65.7939C328.188 63.3442 324.801 57.9126 326.642 52.6708C328.388 47.6947 333.763 45.215 337.835 44.6037C343.803 43.7078 348.59 44.6349 352.248 46.5168C353.2 47.3077 354.28 48.0052 355.452 48.6208C357.559 50.3578 359.09 52.4444 360.055 54.5623C363.051 61.1314 361.521 70.2662 356.934 76.7992C356.843 76.8312 356.753 76.8712 356.67 76.9299C356.392 77.1262 356.242 77.4314 356.23 77.745C355.101 79.193 353.814 80.4908 352.384 81.5697C346.189 86.2405 335.833 87.5296 329.293 84.4425C324.713 82.2793 320.847 78.2389 318.313 72.9967C319.469 72.6155 320.512 72.0949 321.408 71.4427C323.631 69.8241 324.982 67.298 324.935 64.8501C324.924 64.2719 324.44 63.8121 323.856 63.8236C323.855 63.8236 323.854 63.8236 323.852 63.8236C323.269 63.8369 322.807 64.3144 322.818 64.8916C322.852 66.6698 321.832 68.5338 320.153 69.756C318.672 70.8348 316.654 71.4801 314.32 71.6224C309.304 71.9326 304.609 69.9443 299.514 65.382C299.081 64.9938 298.411 65.0267 298.019 65.456C297.627 65.885 297.66 66.5475 298.093 66.9357C303.337 71.6315 308.471 73.863 313.763 73.7422C313.992 73.737 314.22 73.7273 314.449 73.7137C315.027 73.6783 315.587 73.6097 316.134 73.5201C316.978 76.9592 313.521 80.3952 311.192 81.9648C307.356 84.5473 301.976 85.0885 297.15 83.376C292.693 81.7948 288.777 78.0013 286.104 72.6903C287.673 70.8594 288.286 68.4407 287.988 66.3674C287.605 63.6923 285.583 60.8347 281.06 60.8364C280.508 60.8368 278.571 60.9639 277.106 62.5919C275.9 63.9308 275.43 65.8176 275.709 68.1985C275.777 68.7732 276.315 69.1844 276.882 69.1178C277.464 69.0509 277.88 68.5311 277.812 67.9561C277.606 66.1944 277.9 64.8582 278.686 63.9849C279.386 63.2086 280.382 62.9345 281.06 62.9313C284.939 62.9302 285.732 65.5404 285.892 66.6624C286.248 69.1438 284.754 72.2448 281.636 73.1399C277.579 74.3045 271.054 73.0244 268.178 69.3235C267.503 68.4546 267.598 67.7471 267.741 66.6756C267.857 65.8098 267.99 64.8276 267.663 63.6898C266.865 60.9049 264.309 61.1027 262.788 61.2194C262.29 61.2584 261.83 61.2679 261.296 61.3112C260.921 61.3413 260.495 61.3765 260.261 61.313C258.141 60.7399 257.57 58.7387 256.941 55.7501C256.777 54.9662 256.621 54.2258 256.409 53.5266C255.446 50.3602 253.216 48.0906 249.784 46.78Z" fill="white"/>
<path d="M249.784 46.78C247.589 45.9416 245.228 46.2182 242.927 46.539C243.728 46.2013 244.5 45.8225 245.256 45.4515C245.588 45.2883 245.92 45.1255 246.253 44.9669C249.203 43.5615 252.103 42.3812 255.135 43.3422C258.689 44.4684 261.869 47.2864 264.242 49.6153C264.329 49.7004 264.398 49.8014 264.47 49.8994C264.612 50.0912 264.788 50.3298 265.035 50.5423C269.483 54.3915 278.279 58.4101 284.268 53.7115C286.215 52.1844 287.59 50.1243 288.725 48.313C292.158 42.8366 296.258 38.034 302.947 39.9418C303.106 39.9873 303.271 40.061 303.461 40.1464C303.681 40.2454 303.902 40.3419 304.137 40.4179C304.232 40.4485 304.356 40.4945 304.495 40.5453C305.349 40.8597 306.001 41.0733 306.552 40.983C306.923 40.9218 307.233 40.6705 307.367 40.3233C307.793 39.2193 306.791 38.3739 306.253 37.9196C306.166 37.8464 306.086 37.782 306.033 37.7276C305.7 37.3872 305.339 37.1223 304.988 36.8659C304.582 36.5686 304.198 36.2875 303.973 35.9565C301.568 32.4248 301.429 28.8889 303.572 25.7306C306.87 20.8695 315.04 17.8639 321.416 19.1712C324.516 19.8058 328.423 21.6984 329.431 27.1081L330.172 31.0849C330.277 31.6513 330.819 32.03 331.399 31.9258C331.971 31.8247 332.355 31.2851 332.257 30.7173C331.667 27.3106 330.998 23.4494 332.082 20.0149C332.772 17.8281 334.233 15.6442 336.548 13.3391C344.873 5.04916 357.684 1.41408 369.179 4.07794C374.585 5.3309 379.05 8.06075 383.23 12.6693C385.92 15.6356 389.17 19.6455 390.424 24.3658C392.247 31.2232 389.524 39.1067 383.647 43.9827C378.147 48.5457 370.274 50.3761 362.59 48.8776C360.402 48.4516 358.42 47.7783 356.683 46.8982C355.707 46.1046 354.623 45.3793 353.429 44.7478C353.185 44.5377 352.942 44.327 352.717 44.1043C347.729 39.1688 348.259 31.1146 351.611 26.4833C354.572 22.3924 359.074 21.4121 363.963 23.7913C365.486 24.532 367.287 26.1535 367.644 27.9616C367.829 28.906 367.577 29.7453 366.872 30.5279C366.483 30.9596 366.521 31.622 366.957 32.007C367.393 32.3914 368.061 32.3539 368.452 31.9218C369.595 30.6537 370.034 29.1455 369.722 27.5601C369.225 25.0376 366.941 22.9055 364.898 21.9113C359.071 19.0772 353.46 20.33 349.89 25.2642C346.559 29.8664 345.677 37.4193 349.219 43.0732C345.914 42.1432 342.02 41.8564 337.519 42.5324C332.863 43.2316 326.698 46.1259 324.642 51.9845C322.435 58.2693 326.382 64.7158 331.218 67.5898C334.406 69.4843 338.838 69.8463 341.997 68.473C344.404 67.4258 345.956 65.5217 346.485 62.9665C347.306 58.9935 344.842 54.9802 341.105 54.202C339.042 53.7728 337.123 54.1081 335.971 55.0981C335.358 55.625 334.651 56.6013 334.763 58.2601C334.832 59.2869 335.454 60.2907 336.384 60.881C337.24 61.4242 338.231 61.549 339.106 61.2209C339.653 61.0159 339.929 60.411 339.721 59.8704C339.514 59.3291 338.902 59.0581 338.356 59.262C338.014 59.3907 337.663 59.2039 337.528 59.1177C337.156 58.8823 336.9 58.4899 336.875 58.1184C336.831 57.468 336.989 56.9972 337.359 56.6796C337.995 56.1333 339.291 55.9649 340.667 56.2522C343.56 56.854 344.938 59.9933 344.41 62.5475C344.02 64.4341 342.921 65.7824 341.145 66.555C338.577 67.6728 334.942 67.3592 332.309 65.7939C328.188 63.3442 324.801 57.9126 326.642 52.6708C328.388 47.6947 333.763 45.215 337.835 44.6037C343.803 43.7078 348.59 44.6349 352.248 46.5168C353.2 47.3077 354.28 48.0052 355.452 48.6208C357.559 50.3578 359.09 52.4444 360.055 54.5623C363.051 61.1314 361.521 70.2662 356.934 76.7992C356.843 76.8312 356.753 76.8712 356.67 76.9299C356.392 77.1262 356.242 77.4314 356.23 77.745C355.101 79.193 353.814 80.4908 352.384 81.5697C346.189 86.2405 335.833 87.5296 329.293 84.4425C324.713 82.2793 320.847 78.2389 318.313 72.9967C319.469 72.6155 320.512 72.0949 321.408 71.4427C323.631 69.8241 324.982 67.298 324.935 64.8501C324.924 64.2719 324.44 63.8121 323.856 63.8236C323.855 63.8236 323.854 63.8236 323.852 63.8236C323.269 63.8369 322.807 64.3144 322.818 64.8916C322.852 66.6698 321.832 68.5338 320.153 69.756C318.672 70.8348 316.654 71.4801 314.32 71.6224C309.304 71.9326 304.609 69.9443 299.514 65.382C299.081 64.9938 298.411 65.0267 298.019 65.456C297.627 65.885 297.66 66.5475 298.093 66.9357C303.337 71.6315 308.471 73.863 313.763 73.7422C313.992 73.737 314.22 73.7273 314.449 73.7137C315.027 73.6783 315.587 73.6097 316.134 73.5201C316.978 76.9592 313.521 80.3952 311.192 81.9648C307.356 84.5473 301.976 85.0885 297.15 83.376C292.693 81.7948 288.777 78.0013 286.104 72.6903C287.673 70.8594 288.286 68.4407 287.988 66.3674C287.605 63.6923 285.583 60.8347 281.06 60.8364C280.508 60.8368 278.571 60.9639 277.106 62.5919C275.9 63.9308 275.43 65.8176 275.709 68.1985C275.777 68.7732 276.315 69.1844 276.882 69.1178C277.464 69.0509 277.88 68.5311 277.812 67.9561C277.606 66.1944 277.9 64.8582 278.686 63.9849C279.386 63.2086 280.382 62.9345 281.06 62.9313C284.939 62.9302 285.732 65.5404 285.892 66.6624C286.248 69.1438 284.754 72.2448 281.636 73.1399C277.579 74.3045 271.054 73.0244 268.178 69.3235C267.503 68.4546 267.598 67.7471 267.741 66.6756C267.857 65.8098 267.99 64.8276 267.663 63.6898C266.865 60.9049 264.309 61.1027 262.788 61.2194C262.29 61.2584 261.83 61.2679 261.296 61.3112C260.921 61.3413 260.495 61.3765 260.261 61.313C258.141 60.7399 257.57 58.7387 256.941 55.7501C256.777 54.9662 256.621 54.2258 256.409 53.5266C255.446 50.3602 253.216 48.0906 249.784 46.78Z" stroke="#ECE1D8" stroke-width="6" mask="url(#path-1-outside-1_0_1)"/>
<path d="M390.546 34.9631C389.332 38.5601 387.106 41.8979 384.05 44.4332C378.444 49.0837 370.38 51.0032 362.469 49.4611L362.468 49.4611C361.786 49.3284 361.121 49.1608 360.452 48.9747L356.262 47.8103L358.842 51.3099C359.564 52.2897 360.158 53.3054 360.621 54.3219C363.688 61.0477 362.277 70.3024 357.508 77.0766L356.857 78.0009L357.566 78.8814C359.521 81.3079 362.16 83.3905 365.125 84.3539C368.14 85.3337 371.471 85.1388 374.567 83.0102L374.567 83.0111C375.268 82.5298 375.963 81.9938 376.536 81.5039C377.069 81.0487 377.619 80.532 377.922 80.0989L378.001 79.9857C378.159 80.1604 378.318 80.3337 378.475 80.5082C380.441 82.689 382.372 84.8625 385.718 86.1276C388.843 87.3092 392.499 87.5963 395.786 86.9255C400.286 86.0068 402.983 83.9273 405.916 81.3042L407.193 80.1488L408.531 78.9392C409.388 78.1726 410.31 77.2079 411.227 76.2491C411.82 75.63 412.433 74.989 413.08 74.345L411.829 72.7003C416.097 70.2696 420.028 68.0919 424.299 68.2183L424.338 68.2203L424.378 68.2194C425.02 68.2047 425.679 68.2448 426.361 68.35L426.534 68.5023L426.881 68.5911C427.398 68.7241 427.895 68.8745 428.389 69.0695C430.367 69.8492 432.194 70.9666 434.084 72.1279C437.409 74.1705 441.003 76.4206 445.567 76.2175L446.012 76.1907C448.643 75.9831 450.656 75.0563 452.262 73.4957C453.817 71.9843 454.907 69.955 455.872 67.6979C456.271 66.7661 456.77 65.6099 457.495 64.5536C458.218 63.4999 459.089 62.6627 460.17 62.2547L464.63 60.5715L460.01 59.3973C459.941 59.3797 459.878 59.3633 459.816 59.347L459.812 59.3461C458.71 59.0572 457.654 58.9776 456.36 59.0449L456.359 59.0449C455.405 59.0956 454.582 59.4596 453.959 59.7229L453.549 59.8944C453.418 59.9476 453.292 59.9974 453.164 60.0439L453.162 60.0439C452.313 60.3547 451.568 60.7028 450.908 61.0106C449.212 61.8018 447.887 62.4102 445.729 62.2922C444.176 62.207 442.803 62.0688 441.601 61.5063C438.957 60.2692 437.314 58.0303 435.49 55.4918C434.112 53.573 432.638 51.4937 430.533 50.0332L430.067 49.7254C425.226 46.6571 418.622 46.7833 414.02 50.1092C413.669 48.4215 413.057 46.7895 412.279 45.2815C410.775 42.3667 408.601 39.8075 406.296 38.0704C402.641 35.3146 397.537 33.919 391.962 33.9423L390.89 33.9472L390.546 34.9631Z" fill="white" stroke="#ECE1D8" stroke-width="3"/>
<path d="M184.982 34.6354C188.057 34.7573 191.138 35.4778 193.505 36.8592L193.506 36.8592C196.567 38.6473 198.179 41.3583 198.06 44.7896C197.996 46.6382 197.008 48.4068 195.481 49.4542L195.479 49.4552C194.625 50.0395 193.18 50.6676 191.31 50.2802L191.31 50.2793C190.929 50.2009 190.509 50.0664 190.149 49.8791C189.976 49.7886 189.74 49.647 189.529 49.4377C189.351 49.2607 188.939 48.7825 189 48.0618L189 48.0589C189.001 48.0559 189.006 48.0251 188.951 47.9678C188.894 47.9072 188.78 47.8365 188.611 47.8216C188.417 47.8081 188.28 47.8654 188.205 47.9219C188.134 47.9762 188.129 48.0176 188.128 48.0293L188.128 48.0323C188.043 49.0034 188.766 50.2351 191.07 50.708L191.412 50.7702C193.122 51.0356 194.79 50.6616 196.156 49.7241L196.157 49.7231C197.49 48.8089 198.406 47.4533 198.763 45.9744L198.893 45.4365L199.342 45.1136C199.402 45.0705 199.458 45.038 199.5 45.013C205.49 39.4713 210.681 36.5378 216.244 35.866L217.026 35.78C225.135 34.9866 233.987 37.0323 243.312 41.7201L244.011 42.0795C247.482 43.9081 250.642 46.1835 253.872 48.5059L255.842 49.9167C260.443 53.1841 265.12 56.226 270.716 57.7928L271.369 57.9634C274.658 58.7628 278.293 58.7616 281.51 57.8128L286.609 56.3085L283.057 60.2573C281.825 61.627 280.406 62.8622 278.685 63.9757L278.685 63.9766C274.535 66.6598 270.012 67.0683 265.511 66.4469C261.61 65.9084 257.619 64.5799 253.792 63.2193L252.163 62.6365C251.622 62.4424 251.089 62.2503 250.562 62.0633L249.002 61.5174C234.316 56.4658 218.599 56.8186 205.896 62.3984C200.61 64.7205 195.697 67.7172 190.85 70.6753C184.215 74.7244 177.763 78.6708 170.223 81.0414L169.49 81.2653C146.899 87.99 128.171 77.5538 111.415 66.7149C89.5258 52.5535 58.8566 49.4813 17.3331 57.7356L17.334 57.7366C10.5044 59.0942 3.56284 60.6645 -3.17183 62.1888C-17.9054 65.5233 -33.2551 68.9996 -48.4011 70.4283C-63.8198 71.8817 -78.7584 69.7735 -93.7394 64.0171L-92.843 61.1636C-92.8144 61.1708 -92.7874 61.1781 -92.7731 61.1819C-92.7549 61.1868 -92.749 61.1877 -92.7459 61.1885L-92.7469 61.1884C-88.1612 62.3204 -83.2744 62.9534 -78.1122 63.0821C-72.1636 63.2304 -65.8515 62.7091 -59.2231 61.5094C-53.9165 60.548 -48.4784 59.1518 -43.0623 57.3591C-38.1624 55.7383 -33.1677 53.9883 -28.3251 52.2903L-28.3251 52.2893C-18.5218 48.8528 -8.32473 45.2798 1.8982 42.4967C11.0509 40.0047 20.4246 38.3528 29.7627 37.59C45.6535 36.2918 61.9015 37.5367 78.0544 41.2849C85.7289 43.0658 93.6263 45.5281 101.53 48.6007L102.876 49.1306C104.217 49.6637 105.54 50.2052 106.847 50.7398L109.985 52.0156C117.248 54.9324 124.191 57.3408 132.433 57.441C140.649 57.5338 148.666 55.2354 156.278 50.5654C159.202 48.7717 161.839 46.4946 164.49 44.1998L164.491 44.1998C168.064 41.1091 171.644 37.9959 175.997 36.1326C178.677 34.9856 181.9 34.513 184.982 34.6354Z" fill="white" stroke="#ECE1D6" stroke-width="3"/>
<path d="M130.749 10.0739C140.764 9.41999 151.153 14.4153 155.997 22.3987C157.931 25.5863 159.083 29.3524 159.46 33.5601L159.483 33.8576C159.683 36.9658 158.745 41.0887 156.937 44.7992C155.072 48.6277 152.134 52.3159 148.164 53.9722L148.163 53.9712C148.131 53.9852 148.104 54.0011 148.081 54.016L147.946 54.1064L147.793 54.1651C142.801 56.0873 137.663 57.0503 132.439 56.9908L132.44 56.9918C123.212 56.891 115.322 53.6541 107.323 50.3751C105.995 49.8312 104.669 49.2882 103.33 48.7551L101.985 48.2252C94.0196 45.1241 86.0635 42.6421 78.3428 40.8483C62.0418 37.0595 45.6532 35.8073 29.6388 37.1169C20.2245 37.887 10.7714 39.5517 1.54361 42.0659C-7.42289 44.5084 -16.3284 47.5438 -25.0397 50.589L-28.761 51.8937C-33.5843 53.5853 -38.5854 55.3393 -43.4818 56.9606C-48.8379 58.7349 -54.2194 60.1191 -59.4769 61.0714C-71.2074 63.1966 -81.9952 63.1837 -91.5384 60.9831L-92.4579 60.7637C-95.3116 60.0582 -98.1881 59.0817 -101.089 58.0128L-100.445 55.112C-97.6869 55.3656 -94.9037 55.5339 -92.0995 55.6041C-81.9703 55.8576 -71.5509 54.9168 -61.1151 52.7701C-47.8477 50.0419 -36.0512 44.0944 -24.4505 38.2357C-11.3197 31.6051 1.33092 25.202 16.2531 23.1352C35.7993 20.4271 54.3651 21.544 72.9897 26.5576C79.9513 28.4325 87.1558 31.0345 96.3224 34.9731C98.2378 35.7961 100.114 36.7176 102.056 37.671C106.924 40.0617 111.73 42.4103 117.101 43.2738L117.102 43.2738C120.41 43.8076 124.89 43.6672 128.864 42.5268C132.877 41.3753 136.031 39.314 137.266 36.2859L137.266 36.2849C138.283 33.7917 137.491 30.1559 135.297 27.988L135.297 27.9871C134.722 27.418 133.744 26.8764 132.545 26.5222C131.359 26.1719 130.1 26.0469 129.045 26.1885L129.046 26.1895C127.541 26.3929 126.593 27.0917 126.141 27.9933L126.141 27.9943C126.132 28.0128 126.131 28.0214 126.131 28.0234C126.131 28.0267 126.132 28.0363 126.139 28.0529C126.149 28.0762 126.178 28.1259 126.251 28.1729L126.34 28.2181L126.342 28.2191C126.483 28.2768 126.645 28.2791 126.782 28.2331C126.921 28.1869 126.978 28.1145 126.996 28.0792L127.073 27.9326C127.175 27.7541 127.363 27.4807 127.689 27.2311C128.106 26.9124 128.629 26.7196 129.247 26.6361L129.251 26.6352C130.28 26.4992 131.368 26.6816 132.239 26.9473C133.064 27.1988 133.979 27.6126 134.537 28.1634L134.537 28.1634C135.584 29.1984 136.283 30.5869 136.614 31.9763C136.942 33.3577 136.942 34.8933 136.401 36.2193L136.4 36.2183C135.042 39.5525 131.368 41.3901 127.764 42.3L127.307 42.4156L126.864 42.2472C126.789 42.2187 126.719 42.2055 126.653 42.2038C122.655 42.1038 119.276 40.9223 116.754 38.5596L116.513 38.3269C113.507 35.3546 112.043 30.7884 112.434 26.1596C112.787 21.9707 115.13 18.0927 118.433 15.2194C121.743 12.3402 126.122 10.3741 130.749 10.0748L130.749 10.0739Z" fill="white" stroke="#ECE1D6" stroke-width="3"/>
</svg>
