<svg width="221" height="247" viewBox="0 0 221 247" fill="none" xmlns="http://www.w3.org/2000/svg">
<mask id="path-1-outside-1_1026_427" maskUnits="userSpaceOnUse" x="-5.52494" y="-3.05888" width="585.247" height="255.477" fill="black">
<rect fill="white" x="-5.52494" y="-3.05888" width="585.247" height="255.477"/>
<path d="M10.8163 195.909C18.8655 192.821 23.2174 188.125 25.9816 184.421C27.8667 181.893 29.0983 179.191 30.2904 176.576C32.5041 171.721 34.4162 167.526 39.9518 165.475C50.1674 161.686 63.6095 164.626 72.501 166.573C86.8525 169.709 98.4169 167.878 105.513 161.455C106.643 162.627 107.814 163.764 108.978 164.885C113.437 169.178 117.647 173.233 118.451 178.684C118.57 179.501 118.305 180.34 117.83 180.633C116.447 181.488 116.126 183.15 117.113 184.347C117.728 185.093 118.706 185.481 119.689 185.462C120.285 185.45 120.883 185.288 121.405 184.966C123.763 183.509 124.97 180.843 124.554 178.007C123.508 170.906 118.447 166.034 113.554 161.321C109.868 157.772 106.384 154.419 104.764 150.292C102.449 144.399 104.055 137.69 109.171 131.884C118.911 120.829 139.696 114.044 155.109 121.56C158.488 123.208 163.133 126.213 165.594 129.431C171.148 139.245 180.738 144.517 193.395 144.668C194.485 144.679 195.696 144.541 196.86 144.406C198.076 144.264 200.319 144.002 200.978 144.27C200.963 144.299 201.013 144.473 201.016 144.812C201.031 146.683 200.916 148.58 200.806 150.415C200.432 156.617 200.044 163.03 204.495 169.327C216.425 186.198 241.138 192.517 258.676 192.802C259.522 192.817 260.381 192.814 261.244 192.797C282.632 192.371 308.829 182.471 319.532 163.585C320.281 162.265 319.652 160.669 318.127 160.022C316.606 159.377 314.759 159.919 314.01 161.241C304.005 178.89 278.668 187.785 258.793 187.477C242.808 187.217 220.371 181.579 209.74 166.545C206.285 161.657 206.592 156.575 206.948 150.69C207.064 148.779 207.182 146.804 207.168 144.777C207.154 142.83 206.433 141.307 205.024 140.25C202.53 138.372 198.929 138.79 196.041 139.128C195.059 139.243 194.123 139.344 193.484 139.343C183.453 139.222 176.097 135.285 171.534 127.724C171.464 127.54 171.376 127.357 171.254 127.182C171.141 127.018 171.014 126.86 170.894 126.698C170.875 126.661 170.849 126.631 170.828 126.592C162.576 111.291 167.595 87.9571 177.592 77.317C186.8 67.519 206.555 59.7922 221.277 63.9171C226.788 65.4572 231.153 62.1907 234.656 59.5643C235.694 58.7859 236.674 58.0498 237.591 57.4997C244.193 53.5308 254.616 52.2179 264.125 54.1538C271.31 55.6144 281.237 59.5179 287.805 69.796C281.888 79.7704 283.205 92.0158 286.76 100.987C286.72 101.223 286.702 101.463 286.737 101.71C288.347 112.777 277.862 125.819 264.299 129.624C250.714 133.432 231.588 129.614 225.85 118.045C223.649 113.604 223.619 108.86 225.763 104.322C228.596 98.3278 234.922 93.1036 242.686 90.3459C246.596 88.9584 254.455 87.4571 258.898 89.3394C260.308 89.9378 261.154 90.8097 261.562 92.0848C261.917 93.1974 261.77 94.2126 261.112 95.1919C259.889 97.0076 256.95 98.6491 253.624 99.3746C251.975 99.7333 250.974 101.181 251.388 102.607C251.801 104.032 253.475 104.901 255.121 104.54C258.985 103.698 263.985 101.504 266.429 97.8706C267.922 95.6501 268.289 93.1575 267.492 90.6632C266.619 87.9307 264.585 85.8205 261.609 84.5568C254.823 81.6778 244.739 83.8614 240.355 85.4181C231.097 88.7049 223.514 95.019 220.071 102.308C217.287 108.198 217.333 114.366 220.197 120.148C225.725 131.297 240.387 136.66 254.357 136.381C258.446 136.299 262.473 135.735 266.196 134.69C278.866 131.138 288.992 121.155 292.066 110.52C300.784 122.524 316.09 132.282 333.464 136.433C347.259 139.725 372.689 139.84 382.238 126.125C384.145 123.386 384.419 120.535 384.661 118.02C384.831 116.251 384.992 114.58 385.708 113.21C386.513 111.67 387.085 111.564 389.991 111.255C390.592 111.19 391.224 111.124 391.89 111.033C401.033 109.789 408.244 104.73 411.675 97.1534C415.598 88.4933 413.856 78.2037 407.234 70.94C400.25 63.2741 388.453 59.1869 375.69 60.0159C363.345 60.8142 352.753 66.1648 347.358 74.3301C346.516 75.6064 347.027 77.2339 348.501 77.9621C349.975 78.6904 351.856 78.2497 352.701 76.9708C357.077 70.345 365.842 65.9908 376.146 65.3257C386.721 64.6489 396.775 68.0581 402.404 74.2382C407.696 80.0455 409.089 88.2774 405.948 95.2106C403.297 101.064 397.968 104.816 390.938 105.771C390.345 105.852 389.783 105.911 389.246 105.968C386.018 106.31 382.358 106.699 380.1 111.017C378.945 113.226 378.735 115.439 378.528 117.58C378.315 119.793 378.133 121.704 376.969 123.376C369.589 133.975 348.045 134.388 335.105 131.297C315.794 126.685 299.312 114.616 293.114 100.551C289.562 92.4905 287.744 79.8195 294.308 70.6398C298.807 64.3473 308.13 54.1114 320.045 56.2464L320.05 56.2476C321.709 56.5477 323.342 55.6189 323.686 54.1802C323.866 53.4402 323.668 52.7077 323.21 52.1289C322.923 49.5757 324.43 39.693 324.94 37.989C331.346 17.9662 356.524 7.51105 377.95 4.40691C402.318 0.878287 428.761 9.81083 445.296 27.1685C447.382 29.36 449.31 31.6894 451.025 34.0893C456.569 41.8451 459.754 50.3621 460.236 58.7171C460.689 66.5896 458.041 72.4231 454.975 79.1775C454.339 80.5771 453.69 82.0093 453.048 83.5013C452.7 84.1998 452.4 84.9198 452.151 85.6587C451.683 87.0437 452.574 88.5001 454.162 88.9402C455.742 89.383 457.454 88.6486 458.005 87.2869C458.256 86.6715 458.51 86.0648 458.766 85.4642C460.598 81.8801 464.203 79.0806 469.511 77.1285C481.595 72.683 499.152 73.9789 507.96 77.9797C523.491 85.0318 535.802 100.177 537.231 113.99C537.788 119.356 535.565 122.27 532.492 126.301C531.258 127.917 529.984 129.59 528.781 131.575C528.777 131.579 528.775 131.583 528.773 131.586C527.983 132.889 528.565 134.499 530.069 135.18C531.166 135.678 532.452 135.546 533.373 134.931C535.807 134.915 543.328 137.181 544.909 137.971C561.903 146.466 574.598 163.491 575.093 178.451C575.438 188.941 569.93 197.724 559.164 203.851C549.296 209.465 537.524 212.587 526.02 212.641C521.036 212.664 516.163 211.857 511.007 211.002C504.048 209.848 496.855 208.659 489.338 209.665C477.978 211.19 467.471 215.181 457.309 219.04C447.664 222.704 437.692 226.491 427.243 228.005C421.076 228.901 399.93 231.073 386.948 221.447C368.644 207.875 364.968 183.012 378.919 167.151C388.239 156.554 403.107 149.09 418.692 147.181C430.448 145.739 442.068 148.034 449.756 153.312C459.262 159.84 461.322 171.402 454.35 179.087C452.185 181.473 449.299 183.295 446.226 184.214C439.995 186.077 432.515 184.49 426.506 183.214C424.87 182.865 423.191 183.736 422.784 185.166C422.379 186.595 423.389 188.038 425.039 188.388C431.832 189.83 440.293 191.625 448.233 189.249C452.473 187.98 456.26 185.604 459.188 182.376C468.244 172.392 465.728 157.484 453.581 149.141C444.6 142.973 431.241 140.263 417.832 141.908C400.679 144.009 384.301 152.242 374.021 163.928C362.601 176.912 361.284 194.544 368.952 209.275C355.354 206.358 338.328 212.378 330.49 219.583C317.768 231.275 303.622 242.749 282.995 243.455C282.805 243.463 282.614 243.468 282.425 243.472C268.131 243.757 256.26 236.278 244.775 229.042C243.67 228.344 242.567 227.651 241.467 226.965C233.73 222.147 217.087 214.857 203.775 218.115C197.803 219.577 193.314 223.106 190.794 228.318C190.138 229.675 190.876 231.235 192.443 231.801C194.011 232.37 195.813 231.729 196.468 230.371C198.289 226.605 201.225 224.272 205.447 223.239C211.186 221.837 218.845 223.104 226.019 225.646C226.014 225.844 226.029 226.046 226.079 226.249C226.868 229.457 218.591 234.975 212.624 237.129C205.783 239.599 197.126 240.507 188.241 239.689C176.358 238.592 163.19 233.319 160.847 221.887C161.911 221.501 162.966 221.093 163.999 220.639C173.798 216.333 181.11 209.163 184.064 200.965C186.621 193.875 185.753 186.585 181.558 179.882C178.037 174.262 172.056 170.749 165.148 170.244C158.753 169.78 152.613 171.91 149.081 175.804C148.031 176.961 148.264 178.635 149.599 179.543C150.937 180.451 152.868 180.251 153.919 179.092C156.153 176.63 160.364 175.23 164.629 175.552C167.453 175.758 172.705 176.926 176.149 182.423C179.534 187.832 180.242 193.696 178.195 199.381C175.733 206.213 169.545 212.231 161.219 215.889C148.752 221.369 133.363 221.216 118.999 215.465C110.604 212.104 103.979 206.311 96.9653 200.179C92.5945 196.358 88.0761 192.408 83.1082 189.133C77.9202 185.712 69.9123 181.152 60.3064 181.055C50.9318 180.934 43.8801 185.28 37.0388 189.458C30.541 193.426 24.4154 197.174 16.7706 196.807C14.8101 196.717 12.8508 196.347 10.8163 195.909Z"/>
</mask>
<path d="M10.8163 195.909C18.8655 192.821 23.2174 188.125 25.9816 184.421C27.8667 181.893 29.0983 179.191 30.2904 176.576C32.5041 171.721 34.4162 167.526 39.9518 165.475C50.1674 161.686 63.6095 164.626 72.501 166.573C86.8525 169.709 98.4169 167.878 105.513 161.455C106.643 162.627 107.814 163.764 108.978 164.885C113.437 169.178 117.647 173.233 118.451 178.684C118.57 179.501 118.305 180.34 117.83 180.633C116.447 181.488 116.126 183.15 117.113 184.347C117.728 185.093 118.706 185.481 119.689 185.462C120.285 185.45 120.883 185.288 121.405 184.966C123.763 183.509 124.97 180.843 124.554 178.007C123.508 170.906 118.447 166.034 113.554 161.321C109.868 157.772 106.384 154.419 104.764 150.292C102.449 144.399 104.055 137.69 109.171 131.884C118.911 120.829 139.696 114.044 155.109 121.56C158.488 123.208 163.133 126.213 165.594 129.431C171.148 139.245 180.738 144.517 193.395 144.668C194.485 144.679 195.696 144.541 196.86 144.406C198.076 144.264 200.319 144.002 200.978 144.27C200.963 144.299 201.013 144.473 201.016 144.812C201.031 146.683 200.916 148.58 200.806 150.415C200.432 156.617 200.044 163.03 204.495 169.327C216.425 186.198 241.138 192.517 258.676 192.802C259.522 192.817 260.381 192.814 261.244 192.797C282.632 192.371 308.829 182.471 319.532 163.585C320.281 162.265 319.652 160.669 318.127 160.022C316.606 159.377 314.759 159.919 314.01 161.241C304.005 178.89 278.668 187.785 258.793 187.477C242.808 187.217 220.371 181.579 209.74 166.545C206.285 161.657 206.592 156.575 206.948 150.69C207.064 148.779 207.182 146.804 207.168 144.777C207.154 142.83 206.433 141.307 205.024 140.25C202.53 138.372 198.929 138.79 196.041 139.128C195.059 139.243 194.123 139.344 193.484 139.343C183.453 139.222 176.097 135.285 171.534 127.724C171.464 127.54 171.376 127.357 171.254 127.182C171.141 127.018 171.014 126.86 170.894 126.698C170.875 126.661 170.849 126.631 170.828 126.592C162.576 111.291 167.595 87.9571 177.592 77.317C186.8 67.519 206.555 59.7922 221.277 63.9171C226.788 65.4572 231.153 62.1907 234.656 59.5643C235.694 58.7859 236.674 58.0498 237.591 57.4997C244.193 53.5308 254.616 52.2179 264.125 54.1538C271.31 55.6144 281.237 59.5179 287.805 69.796C281.888 79.7704 283.205 92.0158 286.76 100.987C286.72 101.223 286.702 101.463 286.737 101.71C288.347 112.777 277.862 125.819 264.299 129.624C250.714 133.432 231.588 129.614 225.85 118.045C223.649 113.604 223.619 108.86 225.763 104.322C228.596 98.3278 234.922 93.1036 242.686 90.3459C246.596 88.9584 254.455 87.4571 258.898 89.3394C260.308 89.9378 261.154 90.8097 261.562 92.0848C261.917 93.1974 261.77 94.2126 261.112 95.1919C259.889 97.0076 256.95 98.6491 253.624 99.3746C251.975 99.7333 250.974 101.181 251.388 102.607C251.801 104.032 253.475 104.901 255.121 104.54C258.985 103.698 263.985 101.504 266.429 97.8706C267.922 95.6501 268.289 93.1575 267.492 90.6632C266.619 87.9307 264.585 85.8205 261.609 84.5568C254.823 81.6778 244.739 83.8614 240.355 85.4181C231.097 88.7049 223.514 95.019 220.071 102.308C217.287 108.198 217.333 114.366 220.197 120.148C225.725 131.297 240.387 136.66 254.357 136.381C258.446 136.299 262.473 135.735 266.196 134.69C278.866 131.138 288.992 121.155 292.066 110.52C300.784 122.524 316.09 132.282 333.464 136.433C347.259 139.725 372.689 139.84 382.238 126.125C384.145 123.386 384.419 120.535 384.661 118.02C384.831 116.251 384.992 114.58 385.708 113.21C386.513 111.67 387.085 111.564 389.991 111.255C390.592 111.19 391.224 111.124 391.89 111.033C401.033 109.789 408.244 104.73 411.675 97.1534C415.598 88.4933 413.856 78.2037 407.234 70.94C400.25 63.2741 388.453 59.1869 375.69 60.0159C363.345 60.8142 352.753 66.1648 347.358 74.3301C346.516 75.6064 347.027 77.2339 348.501 77.9621C349.975 78.6904 351.856 78.2497 352.701 76.9708C357.077 70.345 365.842 65.9908 376.146 65.3257C386.721 64.6489 396.775 68.0581 402.404 74.2382C407.696 80.0455 409.089 88.2774 405.948 95.2106C403.297 101.064 397.968 104.816 390.938 105.771C390.345 105.852 389.783 105.911 389.246 105.968C386.018 106.31 382.358 106.699 380.1 111.017C378.945 113.226 378.735 115.439 378.528 117.58C378.315 119.793 378.133 121.704 376.969 123.376C369.589 133.975 348.045 134.388 335.105 131.297C315.794 126.685 299.312 114.616 293.114 100.551C289.562 92.4905 287.744 79.8195 294.308 70.6398C298.807 64.3473 308.13 54.1114 320.045 56.2464L320.05 56.2476C321.709 56.5477 323.342 55.6189 323.686 54.1802C323.866 53.4402 323.668 52.7077 323.21 52.1289C322.923 49.5757 324.43 39.693 324.94 37.989C331.346 17.9662 356.524 7.51105 377.95 4.40691C402.318 0.878287 428.761 9.81083 445.296 27.1685C447.382 29.36 449.31 31.6894 451.025 34.0893C456.569 41.8451 459.754 50.3621 460.236 58.7171C460.689 66.5896 458.041 72.4231 454.975 79.1775C454.339 80.5771 453.69 82.0093 453.048 83.5013C452.7 84.1998 452.4 84.9198 452.151 85.6587C451.683 87.0437 452.574 88.5001 454.162 88.9402C455.742 89.383 457.454 88.6486 458.005 87.2869C458.256 86.6715 458.51 86.0648 458.766 85.4642C460.598 81.8801 464.203 79.0806 469.511 77.1285C481.595 72.683 499.152 73.9789 507.96 77.9797C523.491 85.0318 535.802 100.177 537.231 113.99C537.788 119.356 535.565 122.27 532.492 126.301C531.258 127.917 529.984 129.59 528.781 131.575C528.777 131.579 528.775 131.583 528.773 131.586C527.983 132.889 528.565 134.499 530.069 135.18C531.166 135.678 532.452 135.546 533.373 134.931C535.807 134.915 543.328 137.181 544.909 137.971C561.903 146.466 574.598 163.491 575.093 178.451C575.438 188.941 569.93 197.724 559.164 203.851C549.296 209.465 537.524 212.587 526.02 212.641C521.036 212.664 516.163 211.857 511.007 211.002C504.048 209.848 496.855 208.659 489.338 209.665C477.978 211.19 467.471 215.181 457.309 219.04C447.664 222.704 437.692 226.491 427.243 228.005C421.076 228.901 399.93 231.073 386.948 221.447C368.644 207.875 364.968 183.012 378.919 167.151C388.239 156.554 403.107 149.09 418.692 147.181C430.448 145.739 442.068 148.034 449.756 153.312C459.262 159.84 461.322 171.402 454.35 179.087C452.185 181.473 449.299 183.295 446.226 184.214C439.995 186.077 432.515 184.49 426.506 183.214C424.87 182.865 423.191 183.736 422.784 185.166C422.379 186.595 423.389 188.038 425.039 188.388C431.832 189.83 440.293 191.625 448.233 189.249C452.473 187.98 456.26 185.604 459.188 182.376C468.244 172.392 465.728 157.484 453.581 149.141C444.6 142.973 431.241 140.263 417.832 141.908C400.679 144.009 384.301 152.242 374.021 163.928C362.601 176.912 361.284 194.544 368.952 209.275C355.354 206.358 338.328 212.378 330.49 219.583C317.768 231.275 303.622 242.749 282.995 243.455C282.805 243.463 282.614 243.468 282.425 243.472C268.131 243.757 256.26 236.278 244.775 229.042C243.67 228.344 242.567 227.651 241.467 226.965C233.73 222.147 217.087 214.857 203.775 218.115C197.803 219.577 193.314 223.106 190.794 228.318C190.138 229.675 190.876 231.235 192.443 231.801C194.011 232.37 195.813 231.729 196.468 230.371C198.289 226.605 201.225 224.272 205.447 223.239C211.186 221.837 218.845 223.104 226.019 225.646C226.014 225.844 226.029 226.046 226.079 226.249C226.868 229.457 218.591 234.975 212.624 237.129C205.783 239.599 197.126 240.507 188.241 239.689C176.358 238.592 163.19 233.319 160.847 221.887C161.911 221.501 162.966 221.093 163.999 220.639C173.798 216.333 181.11 209.163 184.064 200.965C186.621 193.875 185.753 186.585 181.558 179.882C178.037 174.262 172.056 170.749 165.148 170.244C158.753 169.78 152.613 171.91 149.081 175.804C148.031 176.961 148.264 178.635 149.599 179.543C150.937 180.451 152.868 180.251 153.919 179.092C156.153 176.63 160.364 175.23 164.629 175.552C167.453 175.758 172.705 176.926 176.149 182.423C179.534 187.832 180.242 193.696 178.195 199.381C175.733 206.213 169.545 212.231 161.219 215.889C148.752 221.369 133.363 221.216 118.999 215.465C110.604 212.104 103.979 206.311 96.9653 200.179C92.5945 196.358 88.0761 192.408 83.1082 189.133C77.9202 185.712 69.9123 181.152 60.3064 181.055C50.9318 180.934 43.8801 185.28 37.0388 189.458C30.541 193.426 24.4154 197.174 16.7706 196.807C14.8101 196.717 12.8508 196.347 10.8163 195.909Z" fill="white"/>
<path d="M10.8163 195.909C18.8655 192.821 23.2174 188.125 25.9816 184.421C27.8667 181.893 29.0983 179.191 30.2904 176.576C32.5041 171.721 34.4162 167.526 39.9518 165.475C50.1674 161.686 63.6095 164.626 72.501 166.573C86.8525 169.709 98.4169 167.878 105.513 161.455C106.643 162.627 107.814 163.764 108.978 164.885C113.437 169.178 117.647 173.233 118.451 178.684C118.57 179.501 118.305 180.34 117.83 180.633C116.447 181.488 116.126 183.15 117.113 184.347C117.728 185.093 118.706 185.481 119.689 185.462C120.285 185.45 120.883 185.288 121.405 184.966C123.763 183.509 124.97 180.843 124.554 178.007C123.508 170.906 118.447 166.034 113.554 161.321C109.868 157.772 106.384 154.419 104.764 150.292C102.449 144.399 104.055 137.69 109.171 131.884C118.911 120.829 139.696 114.044 155.109 121.56C158.488 123.208 163.133 126.213 165.594 129.431C171.148 139.245 180.738 144.517 193.395 144.668C194.485 144.679 195.696 144.541 196.86 144.406C198.076 144.264 200.319 144.002 200.978 144.27C200.963 144.299 201.013 144.473 201.016 144.812C201.031 146.683 200.916 148.58 200.806 150.415C200.432 156.617 200.044 163.03 204.495 169.327C216.425 186.198 241.138 192.517 258.676 192.802C259.522 192.817 260.381 192.814 261.244 192.797C282.632 192.371 308.829 182.471 319.532 163.585C320.281 162.265 319.652 160.669 318.127 160.022C316.606 159.377 314.759 159.919 314.01 161.241C304.005 178.89 278.668 187.785 258.793 187.477C242.808 187.217 220.371 181.579 209.74 166.545C206.285 161.657 206.592 156.575 206.948 150.69C207.064 148.779 207.182 146.804 207.168 144.777C207.154 142.83 206.433 141.307 205.024 140.25C202.53 138.372 198.929 138.79 196.041 139.128C195.059 139.243 194.123 139.344 193.484 139.343C183.453 139.222 176.097 135.285 171.534 127.724C171.464 127.54 171.376 127.357 171.254 127.182C171.141 127.018 171.014 126.86 170.894 126.698C170.875 126.661 170.849 126.631 170.828 126.592C162.576 111.291 167.595 87.9571 177.592 77.317C186.8 67.519 206.555 59.7922 221.277 63.9171C226.788 65.4572 231.153 62.1907 234.656 59.5643C235.694 58.7859 236.674 58.0498 237.591 57.4997C244.193 53.5308 254.616 52.2179 264.125 54.1538C271.31 55.6144 281.237 59.5179 287.805 69.796C281.888 79.7704 283.205 92.0158 286.76 100.987C286.72 101.223 286.702 101.463 286.737 101.71C288.347 112.777 277.862 125.819 264.299 129.624C250.714 133.432 231.588 129.614 225.85 118.045C223.649 113.604 223.619 108.86 225.763 104.322C228.596 98.3278 234.922 93.1036 242.686 90.3459C246.596 88.9584 254.455 87.4571 258.898 89.3394C260.308 89.9378 261.154 90.8097 261.562 92.0848C261.917 93.1974 261.77 94.2126 261.112 95.1919C259.889 97.0076 256.95 98.6491 253.624 99.3746C251.975 99.7333 250.974 101.181 251.388 102.607C251.801 104.032 253.475 104.901 255.121 104.54C258.985 103.698 263.985 101.504 266.429 97.8706C267.922 95.6501 268.289 93.1575 267.492 90.6632C266.619 87.9307 264.585 85.8205 261.609 84.5568C254.823 81.6778 244.739 83.8614 240.355 85.4181C231.097 88.7049 223.514 95.019 220.071 102.308C217.287 108.198 217.333 114.366 220.197 120.148C225.725 131.297 240.387 136.66 254.357 136.381C258.446 136.299 262.473 135.735 266.196 134.69C278.866 131.138 288.992 121.155 292.066 110.52C300.784 122.524 316.09 132.282 333.464 136.433C347.259 139.725 372.689 139.84 382.238 126.125C384.145 123.386 384.419 120.535 384.661 118.02C384.831 116.251 384.992 114.58 385.708 113.21C386.513 111.67 387.085 111.564 389.991 111.255C390.592 111.19 391.224 111.124 391.89 111.033C401.033 109.789 408.244 104.73 411.675 97.1534C415.598 88.4933 413.856 78.2037 407.234 70.94C400.25 63.2741 388.453 59.1869 375.69 60.0159C363.345 60.8142 352.753 66.1648 347.358 74.3301C346.516 75.6064 347.027 77.2339 348.501 77.9621C349.975 78.6904 351.856 78.2497 352.701 76.9708C357.077 70.345 365.842 65.9908 376.146 65.3257C386.721 64.6489 396.775 68.0581 402.404 74.2382C407.696 80.0455 409.089 88.2774 405.948 95.2106C403.297 101.064 397.968 104.816 390.938 105.771C390.345 105.852 389.783 105.911 389.246 105.968C386.018 106.31 382.358 106.699 380.1 111.017C378.945 113.226 378.735 115.439 378.528 117.58C378.315 119.793 378.133 121.704 376.969 123.376C369.589 133.975 348.045 134.388 335.105 131.297C315.794 126.685 299.312 114.616 293.114 100.551C289.562 92.4905 287.744 79.8195 294.308 70.6398C298.807 64.3473 308.13 54.1114 320.045 56.2464L320.05 56.2476C321.709 56.5477 323.342 55.6189 323.686 54.1802C323.866 53.4402 323.668 52.7077 323.21 52.1289C322.923 49.5757 324.43 39.693 324.94 37.989C331.346 17.9662 356.524 7.51105 377.95 4.40691C402.318 0.878287 428.761 9.81083 445.296 27.1685C447.382 29.36 449.31 31.6894 451.025 34.0893C456.569 41.8451 459.754 50.3621 460.236 58.7171C460.689 66.5896 458.041 72.4231 454.975 79.1775C454.339 80.5771 453.69 82.0093 453.048 83.5013C452.7 84.1998 452.4 84.9198 452.151 85.6587C451.683 87.0437 452.574 88.5001 454.162 88.9402C455.742 89.383 457.454 88.6486 458.005 87.2869C458.256 86.6715 458.51 86.0648 458.766 85.4642C460.598 81.8801 464.203 79.0806 469.511 77.1285C481.595 72.683 499.152 73.9789 507.96 77.9797C523.491 85.0318 535.802 100.177 537.231 113.99C537.788 119.356 535.565 122.27 532.492 126.301C531.258 127.917 529.984 129.59 528.781 131.575C528.777 131.579 528.775 131.583 528.773 131.586C527.983 132.889 528.565 134.499 530.069 135.18C531.166 135.678 532.452 135.546 533.373 134.931C535.807 134.915 543.328 137.181 544.909 137.971C561.903 146.466 574.598 163.491 575.093 178.451C575.438 188.941 569.93 197.724 559.164 203.851C549.296 209.465 537.524 212.587 526.02 212.641C521.036 212.664 516.163 211.857 511.007 211.002C504.048 209.848 496.855 208.659 489.338 209.665C477.978 211.19 467.471 215.181 457.309 219.04C447.664 222.704 437.692 226.491 427.243 228.005C421.076 228.901 399.93 231.073 386.948 221.447C368.644 207.875 364.968 183.012 378.919 167.151C388.239 156.554 403.107 149.09 418.692 147.181C430.448 145.739 442.068 148.034 449.756 153.312C459.262 159.84 461.322 171.402 454.35 179.087C452.185 181.473 449.299 183.295 446.226 184.214C439.995 186.077 432.515 184.49 426.506 183.214C424.87 182.865 423.191 183.736 422.784 185.166C422.379 186.595 423.389 188.038 425.039 188.388C431.832 189.83 440.293 191.625 448.233 189.249C452.473 187.98 456.26 185.604 459.188 182.376C468.244 172.392 465.728 157.484 453.581 149.141C444.6 142.973 431.241 140.263 417.832 141.908C400.679 144.009 384.301 152.242 374.021 163.928C362.601 176.912 361.284 194.544 368.952 209.275C355.354 206.358 338.328 212.378 330.49 219.583C317.768 231.275 303.622 242.749 282.995 243.455C282.805 243.463 282.614 243.468 282.425 243.472C268.131 243.757 256.26 236.278 244.775 229.042C243.67 228.344 242.567 227.651 241.467 226.965C233.73 222.147 217.087 214.857 203.775 218.115C197.803 219.577 193.314 223.106 190.794 228.318C190.138 229.675 190.876 231.235 192.443 231.801C194.011 232.37 195.813 231.729 196.468 230.371C198.289 226.605 201.225 224.272 205.447 223.239C211.186 221.837 218.845 223.104 226.019 225.646C226.014 225.844 226.029 226.046 226.079 226.249C226.868 229.457 218.591 234.975 212.624 237.129C205.783 239.599 197.126 240.507 188.241 239.689C176.358 238.592 163.19 233.319 160.847 221.887C161.911 221.501 162.966 221.093 163.999 220.639C173.798 216.333 181.11 209.163 184.064 200.965C186.621 193.875 185.753 186.585 181.558 179.882C178.037 174.262 172.056 170.749 165.148 170.244C158.753 169.78 152.613 171.91 149.081 175.804C148.031 176.961 148.264 178.635 149.599 179.543C150.937 180.451 152.868 180.251 153.919 179.092C156.153 176.63 160.364 175.23 164.629 175.552C167.453 175.758 172.705 176.926 176.149 182.423C179.534 187.832 180.242 193.696 178.195 199.381C175.733 206.213 169.545 212.231 161.219 215.889C148.752 221.369 133.363 221.216 118.999 215.465C110.604 212.104 103.979 206.311 96.9653 200.179C92.5945 196.358 88.0761 192.408 83.1082 189.133C77.9202 185.712 69.9123 181.152 60.3064 181.055C50.9318 180.934 43.8801 185.28 37.0388 189.458C30.541 193.426 24.4154 197.174 16.7706 196.807C14.8101 196.717 12.8508 196.347 10.8163 195.909Z" stroke="#ECE1D6" stroke-width="6" mask="url(#path-1-outside-1_1026_427)"/>
</svg>
