<svg width="622" height="193" viewBox="0 0 622 193" fill="none" xmlns="http://www.w3.org/2000/svg">
<path d="M48.9061 11.1133C59.1732 0.822828 75.0043 -1.55324 86.5941 5.70895C88.8646 7.13122 90.9243 6.43938 93.1745 5.61763L93.1755 5.61765C93.871 5.36433 94.626 5.0866 95.3879 4.90291L95.3898 4.90296C98.6069 4.13154 102.301 4.00704 106.347 4.50335L106.346 4.50332C116.671 5.75632 125.704 11.9219 132.44 20.0972C139.178 28.2748 143.726 38.586 145.03 48.3914L145.301 50.437L143.274 50.0565C136.258 48.7421 127.738 50.7489 124.525 58.1265C122.882 61.8981 122.985 66.1578 124.881 70.2037L125.07 70.5944C127.554 75.5747 132.246 79.0624 136.871 79.6116C138.739 79.8333 140.736 79.3165 142.465 78.1785L144.782 76.6527L144.793 79.4331C144.823 86.8148 143.562 104.605 131.843 119.324C119.783 134.473 100.297 142.231 74.2563 142.683L73.0116 142.7C72.9185 142.701 72.7985 142.74 72.6818 142.872C72.578 142.989 72.4942 143.166 72.476 143.383L72.4721 143.478L72.472 143.479C72.4737 143.735 72.5656 143.936 72.6779 144.063C72.7884 144.188 72.9019 144.228 72.9909 144.23C72.9964 144.23 73 144.23 73.0036 144.23C73.007 144.23 73.01 144.23 73.0114 144.23C73.0138 144.23 73.0117 144.229 73.0075 144.229C100.354 143.999 120.282 135.888 132.582 120.401C148.14 100.813 145.815 76.5738 145.713 75.6056C145.708 75.5634 145.698 75.5104 145.679 75.4416L145.528 74.9015L145.767 74.3966C146.505 72.8373 146.811 71.0749 146.613 69.225L146.567 68.8546C146.53 68.6043 146.412 68.433 146.295 68.3388C146.181 68.2471 146.076 68.2298 145.99 68.2451L145.989 68.2451C145.887 68.2631 145.758 68.3322 145.649 68.4993C145.553 68.6464 145.493 68.8434 145.504 69.0602L145.514 69.1543L145.514 69.1552C145.926 72.0379 144.809 74.0834 143.792 75.2727L143.793 75.2737C142.108 77.248 139.472 78.3737 136.969 78.0883L136.963 78.0871C132.502 77.5567 128.151 74.1442 125.947 69.7257C124.173 66.1706 123.949 62.3074 125.437 58.891C127.295 54.626 131.2 52.3814 135.266 51.5574C139.314 50.737 143.741 51.2671 147.057 52.7663L147.056 52.7663C152.504 55.2285 156.055 61.0187 158.071 67.6053C160.104 74.2447 160.685 82.0141 159.947 88.9495C157.628 110.751 144.766 130.346 124.755 142.748C103.274 156.063 77.9107 158.401 58.2761 148.691L57.3451 148.22C50.6713 144.758 44.5684 139.878 38.799 135.273C33.6546 131.166 28.4356 127.003 22.7952 123.712C12.8658 117.917 1.40817 116.346 -8.61788 119.321C-11.2593 120.105 -13.8293 121.118 -16.3812 122.126C-24.0557 125.156 -31.4142 128.139 -39.7691 123.992L-40.1673 123.79C-43.6317 121.984 -48.0596 117.957 -50.4795 113.749L-52.707 109.878L-48.5996 111.626C-46.1072 112.687 -43.2122 113.085 -40.2281 112.686L-39.5599 112.587C-32.6919 111.46 -26.9574 107.309 -21.0771 103.017L-21.0761 103.017C-17.5155 100.419 -14.0247 97.8661 -10.2278 96.0173C0.561688 90.763 11.0824 93.8317 17.8531 97.2009L17.8541 97.201C18.0392 97.2933 18.2104 97.391 18.3467 97.4694L18.7069 97.6709L18.8509 97.7469L18.9757 97.8516C19.0584 97.9208 19.0957 97.9371 19.0999 97.9388L19.1018 97.9388C19.1461 97.9559 19.1891 97.9739 19.2239 97.9878L19.3169 98.0244L19.408 98.0599L19.494 98.107C23.944 100.543 28.0073 103.594 32.1641 106.769L34.1664 108.294C36.1785 109.818 38.2218 111.327 40.309 112.722L40.308 112.722C61.1706 126.665 82.3206 121.507 93.1205 111.055L93.6779 110.504C105.268 98.7888 110.078 78.1527 104.811 62.2432C104.808 62.2357 104.804 62.2258 104.795 62.2086C104.786 62.1882 104.77 62.1562 104.754 62.1206L104.531 61.6236L104.677 61.0998C106.16 55.7822 105.535 49.7066 103.577 44.6332C99.0361 32.8667 88.7584 26.3977 78.139 28.1377L78.138 28.1377C74.8957 28.6676 72.2399 30.7841 70.4525 33.6656C68.7716 36.3757 67.9365 39.649 68.1121 42.5984L68.1606 43.1838L68.1606 43.1848C68.4432 45.8274 69.5051 47.7812 71.0217 49.0168C72.5378 50.2518 74.656 50.8902 77.279 50.6249L77.3565 50.6083C77.4381 50.5815 77.5303 50.5216 77.6155 50.4077C77.73 50.2545 77.8061 50.0301 77.7849 49.7722L77.7849 49.7712C77.7643 49.5224 77.6555 49.3348 77.5334 49.2227C77.4123 49.1114 77.3032 49.0912 77.2303 49.0987L77.2273 49.0987C74.5153 49.3796 72.4981 48.7295 71.1376 47.3718C69.832 46.0687 69.3703 44.3453 69.2212 42.9537C68.9241 40.1774 69.6969 37.1386 71.2268 34.6767C72.7586 32.2119 75.1589 30.1616 78.2328 29.6591L78.7217 29.5855C88.9603 28.1625 98.4825 34.6007 102.634 45.3518L102.634 45.3527C105.801 53.5609 105.501 64.6862 96.5464 70.0052C91.9546 72.7328 87.6401 71.9796 83.3194 71.2744C82.5936 71.156 81.8745 71.0383 81.1453 70.9321L81.1454 70.9312C78.7393 70.5843 77.0949 71.9035 75.3063 73.4014L75.3053 73.4013C74.6539 73.9463 73.9289 74.5585 73.1542 75.0281L73.1532 75.029C67.1136 78.6844 59.6858 77.9695 53.6703 73.4388L53.0925 72.9885C49.3934 70.0062 46.6072 65.473 44.9819 60.4796C43.3538 55.4777 42.8524 49.8999 43.8365 44.7426C44.6839 40.3002 47.5443 32.0483 57.085 29.7958L57.1677 29.7637C57.3701 29.6583 57.6269 29.3354 57.5334 28.844L57.5334 28.843C57.486 28.5944 57.3624 28.435 57.2495 28.3533C57.1418 28.2753 57.0406 28.2604 56.9452 28.283L56.9433 28.284C50.6427 29.7709 45.9469 34.2516 43.7049 40.9334L42.0327 45.916L40.8225 40.7881C38.1987 29.668 40.9977 19.0388 48.9061 11.1133Z" fill="white" stroke="#ECE1D6" stroke-width="3"/>
<path d="M104.912 66.996C108.068 81.8169 103.169 99.5001 92.5282 109.801C81.7941 120.192 61.0294 124.901 40.7362 111.333C38.7524 110.007 36.7953 108.564 34.8947 107.128L36.2653 104.509C41.9224 106.402 47.5651 107.78 53.2454 107.924C57.9459 108.043 62.6816 107.328 67.4815 105.366C76.0516 101.862 82.813 95.5463 85.6697 88.6104L85.8313 88.2052C87.465 84.0171 87.738 79.6908 86.6482 75.2765L86.1631 73.3144L88.1797 73.426C91.0329 73.5841 93.8876 73.2171 96.9122 71.4199L96.9132 71.4199C99.1632 70.0839 100.893 68.3822 102.204 66.4536L104.179 63.5506L104.912 66.996Z" fill="white" stroke="#ECE1D6" stroke-width="3"/>
<path d="M485.816 115.614C489.721 115.782 493.6 116.837 496.601 118.834L496.889 119.031L497.248 119.29C500.897 122.006 502.657 125.904 502.503 130.695C502.421 133.234 501.277 135.771 499.403 137.323L499.402 137.324C498.366 138.179 496.532 139.17 494.125 138.583C493.635 138.464 493.108 138.261 492.67 137.988C492.454 137.853 492.196 137.662 491.978 137.402C491.771 137.155 491.468 136.682 491.516 136.041L491.516 136.038C491.575 135.26 491.045 134.753 490.561 134.705C490.053 134.666 489.489 135.058 489.433 135.826L489.433 135.829C489.253 138.214 490.759 140.284 493.704 140.998L494.159 141.095C496.435 141.51 498.695 140.913 500.597 139.337L500.598 139.337C502.464 137.793 503.803 135.461 504.336 132.845L504.437 132.348L504.819 132.016C504.903 131.943 504.98 131.889 505.032 131.854C505.036 131.852 505.038 131.849 505.041 131.847C512.897 123.086 519.669 118.455 526.927 117.365C537.832 115.724 549.773 118.858 562.351 126.424C567.235 129.363 571.619 133.151 576.137 137.051C583.025 142.998 589.884 148.893 598.339 151.705L598.768 151.843C603.23 153.226 608.218 153.253 612.636 151.666L617.35 149.973L614.352 153.981C612.765 156.102 610.934 158.025 608.703 159.768C603.341 163.955 597.46 164.647 591.553 163.693C585.721 162.751 579.738 160.184 574.073 157.761C572.653 157.154 571.274 156.563 569.922 156.009L569.921 156.009C550.604 148.093 529.896 148.739 513.096 157.684L513.096 157.685C506.109 161.406 499.611 166.196 493.226 170.904C484.483 177.351 476.02 183.605 466.141 187.385L465.18 187.743C435.541 198.489 411.052 182.146 389.126 165.135C360.323 142.786 319.962 138.144 265.332 151.462C256.344 153.654 247.209 156.181 238.349 158.635C219.57 163.834 200.044 169.243 180.749 171.715L178.882 171.945C158.632 174.338 139.036 171.099 119.414 162.103L120.46 159.303C120.496 159.314 120.53 159.325 120.549 159.331C120.568 159.337 120.577 159.34 120.583 159.342C126.622 161.109 133.057 162.082 139.853 162.254C147.684 162.452 155.995 161.586 164.726 159.644C171.717 158.088 178.884 155.843 186.025 152.968L186.025 152.967C192.477 150.372 199.053 147.57 205.427 144.854C218.332 139.356 231.745 133.644 245.186 129.181L246.314 128.81C257.984 125.021 269.914 122.48 281.798 121.256C302.675 119.105 324.008 120.97 345.2 126.794C355.267 129.56 365.623 133.403 375.983 138.208C377.165 138.756 378.336 139.314 379.498 139.874L382.955 141.557L385.024 142.566C395.32 147.573 404.986 151.904 416.629 152.02L417.644 152.017C428.118 151.88 438.372 148.185 448.156 140.933C452.05 138.047 455.562 134.393 459.055 130.75L459.056 130.75C463.773 125.833 468.437 120.951 474.098 118.013L474.099 118.013C477.575 116.209 481.779 115.44 485.816 115.614Z" fill="white" stroke="#ECE1D5" stroke-width="3"/>
<path d="M414.681 77.0575C427.849 75.9592 441.297 83.815 447.457 96.0853C449.909 100.97 451.368 106.761 451.831 113.268L451.859 113.715C452.093 118.381 450.896 124.714 448.546 130.485C446.134 136.407 442.36 142.093 437.272 144.669C437.208 144.702 437.148 144.741 437.092 144.786L436.953 144.898L436.791 144.973C430.256 148.029 423.524 149.582 416.679 149.522C404.589 149.422 394.272 144.371 383.778 139.237C382.036 138.385 380.295 137.533 378.535 136.697L376.769 135.867C366.302 131.007 355.845 127.127 345.696 124.336C324.269 118.441 302.717 116.564 281.643 118.74C269.254 120.019 256.807 122.716 244.65 126.757C231.155 131.242 217.763 136.953 204.748 142.505L204.747 142.505C198.398 145.212 191.818 148.019 185.377 150.614C178.34 153.45 171.271 155.67 164.366 157.207C148.957 160.64 134.8 160.687 122.298 157.275L121.094 156.934C117.358 155.84 113.592 154.319 109.789 152.648L110.537 149.783C114.165 150.167 117.826 150.417 121.516 150.51C134.841 150.847 148.555 149.289 162.299 145.822C179.792 141.412 195.364 131.903 210.642 122.561L213.878 120.585C230.023 110.743 245.777 101.597 264.132 98.4493C289.815 94.0443 314.19 95.6924 338.617 103.496C347.743 106.412 357.187 110.476 369.205 116.643C371.709 117.928 374.163 119.37 376.712 120.866C383.099 124.617 389.44 128.325 396.533 129.663L396.534 129.663C400.901 130.491 406.815 130.24 412.081 128.398C417.339 126.559 421.74 123.217 423.517 118.013L423.651 117.592C424.955 113.201 423.762 107.274 420.812 103.766L420.811 103.765C419.971 102.765 418.614 101.888 417.027 101.33C415.444 100.775 413.766 100.583 412.351 100.818C410.359 101.152 408.905 102.304 408.159 104.085C407.883 104.742 408.157 105.431 408.609 105.717L408.701 105.769L408.704 105.77C409.141 105.983 409.759 105.825 410.033 105.169L410.034 105.165C410.103 105.002 410.289 104.547 410.748 104.123C411.21 103.696 411.835 103.4 412.633 103.266L412.638 103.265C413.96 103.049 415.363 103.323 416.486 103.73C417.573 104.125 418.693 104.751 419.327 105.506L419.56 105.795C420.7 107.269 421.463 109.169 421.832 111.065C422.226 113.085 422.203 115.265 421.573 117.104C419.921 121.948 415.358 124.838 410.56 126.318L410.017 126.486L409.498 126.25C409.372 126.193 409.258 126.168 409.151 126.165C403.903 126.033 399.557 124.183 396.372 120.594L396.067 120.241C392.3 115.759 390.479 108.86 390.994 101.832C391.907 89.3951 402.662 78.0522 414.681 77.0584L414.681 77.0575Z" fill="white" stroke="#ECE1D5" stroke-width="3"/>
</svg>
