<svg width="1920" height="502" viewBox="0 0 1920 502" fill="none" xmlns="http://www.w3.org/2000/svg">
<mask id="path-1-outside-1_0_1" maskUnits="userSpaceOnUse" x="-454.496" y="213.662" width="480.982" height="269.431" fill="black">
<rect fill="white" x="-454.496" y="213.662" width="480.982" height="269.431"/>
<path d="M-428.373 352.352C-435.318 349.782 -442.789 350.63 -450.068 351.613C-447.534 350.578 -445.092 349.416 -442.7 348.279C-441.649 347.779 -440.599 347.28 -439.545 346.793C-430.212 342.485 -421.037 338.866 -411.445 341.812C-400.202 345.265 -390.141 353.904 -382.633 361.044C-382.359 361.305 -382.14 361.615 -381.912 361.915C-381.465 362.503 -380.906 363.235 -380.127 363.886C-366.055 375.687 -338.227 388.007 -319.28 373.602C-313.119 368.921 -308.77 362.605 -305.177 357.052C-294.318 340.262 -281.345 325.538 -260.184 331.387C-259.681 331.527 -259.161 331.753 -258.559 332.015C-257.862 332.318 -257.163 332.614 -256.419 332.847C-256.12 332.941 -255.728 333.082 -255.289 333.238C-252.587 334.202 -250.524 334.856 -248.782 334.579C-247.607 334.392 -246.627 333.621 -246.203 332.557C-244.853 329.173 -248.022 326.581 -249.726 325.188C-250.002 324.963 -250.253 324.766 -250.422 324.599C-251.474 323.556 -252.619 322.744 -253.729 321.957C-255.013 321.046 -256.226 320.184 -256.94 319.169C-264.548 308.342 -264.986 297.502 -258.208 287.819C-247.775 272.916 -221.926 263.701 -201.757 267.709C-191.949 269.655 -179.587 275.457 -176.398 292.042L-174.054 304.234C-173.723 305.971 -172.006 307.132 -170.173 306.812C-168.362 306.502 -167.148 304.848 -167.46 303.107C-169.326 292.663 -171.442 280.825 -168.012 270.296C-165.827 263.591 -161.206 256.896 -153.882 249.829C-127.547 224.414 -87.0157 213.269 -50.6491 221.436C-33.5463 225.278 -19.4216 233.647 -6.19806 247.776C2.31369 256.87 12.5942 269.163 16.5623 283.635C22.3299 304.658 13.7137 328.827 -4.8794 343.776C-22.2795 357.765 -47.1839 363.377 -71.4943 358.783C-78.4159 357.477 -84.6864 355.412 -90.1817 352.714C-93.2713 350.281 -96.6992 348.058 -100.476 346.122C-101.248 345.478 -102.019 344.832 -102.731 344.149C-118.511 329.018 -116.833 304.325 -106.23 290.127C-96.8618 277.585 -82.6186 274.579 -67.1516 281.873C-62.3343 284.144 -56.6355 289.115 -55.5072 294.659C-54.9201 297.554 -55.7165 300.127 -57.9483 302.526C-59.18 303.85 -59.0582 305.881 -57.6782 307.061C-56.3002 308.239 -54.1851 308.125 -52.9493 306.8C-49.3344 302.912 -47.9451 298.288 -48.932 293.428C-50.5034 285.694 -57.729 279.158 -64.1943 276.11C-82.6279 267.421 -100.378 271.262 -111.674 286.389C-122.212 300.498 -125.001 323.654 -113.795 340.988C-124.252 338.136 -136.571 337.257 -150.812 339.33C-165.54 341.473 -185.046 350.347 -191.55 368.308C-198.532 387.576 -186.044 407.339 -170.746 416.15C-160.66 421.959 -146.639 423.068 -136.645 418.858C-129.029 415.647 -124.119 409.81 -122.447 401.976C-119.849 389.796 -127.644 377.492 -139.467 375.106C-145.993 373.79 -152.063 374.818 -155.708 377.853C-157.648 379.469 -159.886 382.462 -159.53 387.548C-159.31 390.695 -157.344 393.773 -154.403 395.583C-151.694 397.248 -148.557 397.631 -145.791 396.625C-144.061 395.996 -143.188 394.142 -143.845 392.484C-144.499 390.825 -146.436 389.994 -148.162 390.619C-149.246 391.014 -150.356 390.441 -150.784 390.177C-151.959 389.455 -152.768 388.252 -152.849 387.113C-152.988 385.119 -152.487 383.676 -151.317 382.702C-149.307 381.027 -145.204 380.511 -140.852 381.392C-131.699 383.237 -127.341 392.861 -129.011 400.692C-130.244 406.476 -133.72 410.609 -139.34 412.978C-147.463 416.405 -158.964 415.444 -167.294 410.645C-180.332 403.134 -191.046 386.482 -185.223 370.412C-179.698 355.156 -162.695 347.554 -149.812 345.68C-130.931 342.933 -115.785 345.775 -104.215 351.545C-101.2 353.97 -97.7848 356.108 -94.0781 357.995C-87.4113 363.321 -82.5687 369.718 -79.514 376.211C-70.0372 396.35 -74.8771 424.356 -89.3883 444.385C-89.6778 444.483 -89.9617 444.605 -90.2236 444.785C-91.1044 445.387 -91.5766 446.323 -91.6156 447.284C-95.1887 451.724 -99.2587 455.702 -103.784 459.01C-123.382 473.33 -156.146 477.282 -176.834 467.817C-191.326 461.185 -203.557 448.798 -211.571 432.727C-207.915 431.558 -204.616 429.962 -201.782 427.963C-194.749 423 -190.472 415.256 -190.622 407.751C-190.657 405.978 -192.187 404.569 -194.036 404.604C-194.04 404.604 -194.042 404.604 -194.047 404.604C-195.892 404.645 -197.356 406.109 -197.321 407.878C-197.212 413.33 -200.441 419.045 -205.752 422.791C-210.437 426.099 -216.819 428.077 -224.205 428.514C-240.072 429.465 -254.928 423.369 -271.045 409.382C-272.417 408.192 -274.535 408.293 -275.776 409.609C-277.017 410.924 -276.913 412.955 -275.541 414.145C-258.951 428.541 -242.709 435.383 -225.966 435.012C-225.244 434.997 -224.521 434.967 -223.798 434.925C-221.967 434.817 -220.195 434.606 -218.467 434.331C-215.795 444.875 -226.733 455.409 -234.101 460.221C-246.235 468.139 -263.256 469.798 -278.523 464.547C-292.624 459.7 -305.015 448.07 -313.471 431.787C-308.507 426.174 -306.568 418.759 -307.509 412.403C-308.721 404.201 -315.118 395.441 -329.429 395.446C-331.174 395.447 -337.303 395.837 -341.938 400.828C-345.752 404.933 -347.238 410.717 -346.355 418.017C-346.141 419.778 -344.441 421.039 -342.644 420.835C-340.806 420.63 -339.489 419.036 -339.703 417.274C-340.356 411.872 -339.425 407.776 -336.938 405.098C-334.725 402.719 -331.572 401.878 -329.43 401.868C-317.157 401.865 -314.649 409.867 -314.14 413.307C-313.015 420.915 -317.743 430.422 -327.604 433.166C-340.44 436.736 -361.082 432.812 -370.182 421.466C-372.319 418.802 -372.019 416.633 -371.564 413.348C-371.197 410.693 -370.778 407.682 -371.812 404.194C-374.337 395.656 -382.421 396.262 -387.235 396.62C-388.81 396.74 -390.266 396.769 -391.954 396.902C-393.14 396.994 -394.49 397.102 -395.229 396.907C-401.934 395.15 -403.741 389.015 -405.731 379.852C-406.252 377.449 -406.744 375.179 -407.416 373.036C-410.464 363.328 -417.516 356.37 -428.373 352.352Z"/>
</mask>
<path d="M-428.373 352.352C-435.318 349.782 -442.789 350.63 -450.068 351.613C-447.534 350.578 -445.092 349.416 -442.7 348.279C-441.649 347.779 -440.599 347.28 -439.545 346.793C-430.212 342.485 -421.037 338.866 -411.445 341.812C-400.202 345.265 -390.141 353.904 -382.633 361.044C-382.359 361.305 -382.14 361.615 -381.912 361.915C-381.465 362.503 -380.906 363.235 -380.127 363.886C-366.055 375.687 -338.227 388.007 -319.28 373.602C-313.119 368.921 -308.77 362.605 -305.177 357.052C-294.318 340.262 -281.345 325.538 -260.184 331.387C-259.681 331.527 -259.161 331.753 -258.559 332.015C-257.862 332.318 -257.163 332.614 -256.419 332.847C-256.12 332.941 -255.728 333.082 -255.289 333.238C-252.587 334.202 -250.524 334.856 -248.782 334.579C-247.607 334.392 -246.627 333.621 -246.203 332.557C-244.853 329.173 -248.022 326.581 -249.726 325.188C-250.002 324.963 -250.253 324.766 -250.422 324.599C-251.474 323.556 -252.619 322.744 -253.729 321.957C-255.013 321.046 -256.226 320.184 -256.94 319.169C-264.548 308.342 -264.986 297.502 -258.208 287.819C-247.775 272.916 -221.926 263.701 -201.757 267.709C-191.949 269.655 -179.587 275.457 -176.398 292.042L-174.054 304.234C-173.723 305.971 -172.006 307.132 -170.173 306.812C-168.362 306.502 -167.148 304.848 -167.46 303.107C-169.326 292.663 -171.442 280.825 -168.012 270.296C-165.827 263.591 -161.206 256.896 -153.882 249.829C-127.547 224.414 -87.0157 213.269 -50.6491 221.436C-33.5463 225.278 -19.4216 233.647 -6.19806 247.776C2.31369 256.87 12.5942 269.163 16.5623 283.635C22.3299 304.658 13.7137 328.827 -4.8794 343.776C-22.2795 357.765 -47.1839 363.377 -71.4943 358.783C-78.4159 357.477 -84.6864 355.412 -90.1817 352.714C-93.2713 350.281 -96.6992 348.058 -100.476 346.122C-101.248 345.478 -102.019 344.832 -102.731 344.149C-118.511 329.018 -116.833 304.325 -106.23 290.127C-96.8618 277.585 -82.6186 274.579 -67.1516 281.873C-62.3343 284.144 -56.6355 289.115 -55.5072 294.659C-54.9201 297.554 -55.7165 300.127 -57.9483 302.526C-59.18 303.85 -59.0582 305.881 -57.6782 307.061C-56.3002 308.239 -54.1851 308.125 -52.9493 306.8C-49.3344 302.912 -47.9451 298.288 -48.932 293.428C-50.5034 285.694 -57.729 279.158 -64.1943 276.11C-82.6279 267.421 -100.378 271.262 -111.674 286.389C-122.212 300.498 -125.001 323.654 -113.795 340.988C-124.252 338.136 -136.571 337.257 -150.812 339.33C-165.54 341.473 -185.046 350.347 -191.55 368.308C-198.532 387.576 -186.044 407.339 -170.746 416.15C-160.66 421.959 -146.639 423.068 -136.645 418.858C-129.029 415.647 -124.119 409.81 -122.447 401.976C-119.849 389.796 -127.644 377.492 -139.467 375.106C-145.993 373.79 -152.063 374.818 -155.708 377.853C-157.648 379.469 -159.886 382.462 -159.53 387.548C-159.31 390.695 -157.344 393.773 -154.403 395.583C-151.694 397.248 -148.557 397.631 -145.791 396.625C-144.061 395.996 -143.188 394.142 -143.845 392.484C-144.499 390.825 -146.436 389.994 -148.162 390.619C-149.246 391.014 -150.356 390.441 -150.784 390.177C-151.959 389.455 -152.768 388.252 -152.849 387.113C-152.988 385.119 -152.487 383.676 -151.317 382.702C-149.307 381.027 -145.204 380.511 -140.852 381.392C-131.699 383.237 -127.341 392.861 -129.011 400.692C-130.244 406.476 -133.72 410.609 -139.34 412.978C-147.463 416.405 -158.964 415.444 -167.294 410.645C-180.332 403.134 -191.046 386.482 -185.223 370.412C-179.698 355.156 -162.695 347.554 -149.812 345.68C-130.931 342.933 -115.785 345.775 -104.215 351.545C-101.2 353.97 -97.7848 356.108 -94.0781 357.995C-87.4113 363.321 -82.5687 369.718 -79.514 376.211C-70.0372 396.35 -74.8771 424.356 -89.3883 444.385C-89.6778 444.483 -89.9617 444.605 -90.2236 444.785C-91.1044 445.387 -91.5766 446.323 -91.6156 447.284C-95.1887 451.724 -99.2587 455.702 -103.784 459.01C-123.382 473.33 -156.146 477.282 -176.834 467.817C-191.326 461.185 -203.557 448.798 -211.571 432.727C-207.915 431.558 -204.616 429.962 -201.782 427.963C-194.749 423 -190.472 415.256 -190.622 407.751C-190.657 405.978 -192.187 404.569 -194.036 404.604C-194.04 404.604 -194.042 404.604 -194.047 404.604C-195.892 404.645 -197.356 406.109 -197.321 407.878C-197.212 413.33 -200.441 419.045 -205.752 422.791C-210.437 426.099 -216.819 428.077 -224.205 428.514C-240.072 429.465 -254.928 423.369 -271.045 409.382C-272.417 408.192 -274.535 408.293 -275.776 409.609C-277.017 410.924 -276.913 412.955 -275.541 414.145C-258.951 428.541 -242.709 435.383 -225.966 435.012C-225.244 434.997 -224.521 434.967 -223.798 434.925C-221.967 434.817 -220.195 434.606 -218.467 434.331C-215.795 444.875 -226.733 455.409 -234.101 460.221C-246.235 468.139 -263.256 469.798 -278.523 464.547C-292.624 459.7 -305.015 448.07 -313.471 431.787C-308.507 426.174 -306.568 418.759 -307.509 412.403C-308.721 404.201 -315.118 395.441 -329.429 395.446C-331.174 395.447 -337.303 395.837 -341.938 400.828C-345.752 404.933 -347.238 410.717 -346.355 418.017C-346.141 419.778 -344.441 421.039 -342.644 420.835C-340.806 420.63 -339.489 419.036 -339.703 417.274C-340.356 411.872 -339.425 407.776 -336.938 405.098C-334.725 402.719 -331.572 401.878 -329.43 401.868C-317.157 401.865 -314.649 409.867 -314.14 413.307C-313.015 420.915 -317.743 430.422 -327.604 433.166C-340.44 436.736 -361.082 432.812 -370.182 421.466C-372.319 418.802 -372.019 416.633 -371.564 413.348C-371.197 410.693 -370.778 407.682 -371.812 404.194C-374.337 395.656 -382.421 396.262 -387.235 396.62C-388.81 396.74 -390.266 396.769 -391.954 396.902C-393.14 396.994 -394.49 397.102 -395.229 396.907C-401.934 395.15 -403.741 389.015 -405.731 379.852C-406.252 377.449 -406.744 375.179 -407.416 373.036C-410.464 363.328 -417.516 356.37 -428.373 352.352Z" fill="white"/>
<path d="M-428.373 352.352C-435.318 349.782 -442.789 350.63 -450.068 351.613C-447.534 350.578 -445.092 349.416 -442.7 348.279C-441.649 347.779 -440.599 347.28 -439.545 346.793C-430.212 342.485 -421.037 338.866 -411.445 341.812C-400.202 345.265 -390.141 353.904 -382.633 361.044C-382.359 361.305 -382.14 361.615 -381.912 361.915C-381.465 362.503 -380.906 363.235 -380.127 363.886C-366.055 375.687 -338.227 388.007 -319.28 373.602C-313.119 368.921 -308.77 362.605 -305.177 357.052C-294.318 340.262 -281.345 325.538 -260.184 331.387C-259.681 331.527 -259.161 331.753 -258.559 332.015C-257.862 332.318 -257.163 332.614 -256.419 332.847C-256.12 332.941 -255.728 333.082 -255.289 333.238C-252.587 334.202 -250.524 334.856 -248.782 334.579C-247.607 334.392 -246.627 333.621 -246.203 332.557C-244.853 329.173 -248.022 326.581 -249.726 325.188C-250.002 324.963 -250.253 324.766 -250.422 324.599C-251.474 323.556 -252.619 322.744 -253.729 321.957C-255.013 321.046 -256.226 320.184 -256.94 319.169C-264.548 308.342 -264.986 297.502 -258.208 287.819C-247.775 272.916 -221.926 263.701 -201.757 267.709C-191.949 269.655 -179.587 275.457 -176.398 292.042L-174.054 304.234C-173.723 305.971 -172.006 307.132 -170.173 306.812C-168.362 306.502 -167.148 304.848 -167.46 303.107C-169.326 292.663 -171.442 280.825 -168.012 270.296C-165.827 263.591 -161.206 256.896 -153.882 249.829C-127.547 224.414 -87.0157 213.269 -50.6491 221.436C-33.5463 225.278 -19.4216 233.647 -6.19806 247.776C2.31369 256.87 12.5942 269.163 16.5623 283.635C22.3299 304.658 13.7137 328.827 -4.8794 343.776C-22.2795 357.765 -47.1839 363.377 -71.4943 358.783C-78.4159 357.477 -84.6864 355.412 -90.1817 352.714C-93.2713 350.281 -96.6992 348.058 -100.476 346.122C-101.248 345.478 -102.019 344.832 -102.731 344.149C-118.511 329.018 -116.833 304.325 -106.23 290.127C-96.8618 277.585 -82.6186 274.579 -67.1516 281.873C-62.3343 284.144 -56.6355 289.115 -55.5072 294.659C-54.9201 297.554 -55.7165 300.127 -57.9483 302.526C-59.18 303.85 -59.0582 305.881 -57.6782 307.061C-56.3002 308.239 -54.1851 308.125 -52.9493 306.8C-49.3344 302.912 -47.9451 298.288 -48.932 293.428C-50.5034 285.694 -57.729 279.158 -64.1943 276.11C-82.6279 267.421 -100.378 271.262 -111.674 286.389C-122.212 300.498 -125.001 323.654 -113.795 340.988C-124.252 338.136 -136.571 337.257 -150.812 339.33C-165.54 341.473 -185.046 350.347 -191.55 368.308C-198.532 387.576 -186.044 407.339 -170.746 416.15C-160.66 421.959 -146.639 423.068 -136.645 418.858C-129.029 415.647 -124.119 409.81 -122.447 401.976C-119.849 389.796 -127.644 377.492 -139.467 375.106C-145.993 373.79 -152.063 374.818 -155.708 377.853C-157.648 379.469 -159.886 382.462 -159.53 387.548C-159.31 390.695 -157.344 393.773 -154.403 395.583C-151.694 397.248 -148.557 397.631 -145.791 396.625C-144.061 395.996 -143.188 394.142 -143.845 392.484C-144.499 390.825 -146.436 389.994 -148.162 390.619C-149.246 391.014 -150.356 390.441 -150.784 390.177C-151.959 389.455 -152.768 388.252 -152.849 387.113C-152.988 385.119 -152.487 383.676 -151.317 382.702C-149.307 381.027 -145.204 380.511 -140.852 381.392C-131.699 383.237 -127.341 392.861 -129.011 400.692C-130.244 406.476 -133.72 410.609 -139.34 412.978C-147.463 416.405 -158.964 415.444 -167.294 410.645C-180.332 403.134 -191.046 386.482 -185.223 370.412C-179.698 355.156 -162.695 347.554 -149.812 345.68C-130.931 342.933 -115.785 345.775 -104.215 351.545C-101.2 353.97 -97.7848 356.108 -94.0781 357.995C-87.4113 363.321 -82.5687 369.718 -79.514 376.211C-70.0372 396.35 -74.8771 424.356 -89.3883 444.385C-89.6778 444.483 -89.9617 444.605 -90.2236 444.785C-91.1044 445.387 -91.5766 446.323 -91.6156 447.284C-95.1887 451.724 -99.2587 455.702 -103.784 459.01C-123.382 473.33 -156.146 477.282 -176.834 467.817C-191.326 461.185 -203.557 448.798 -211.571 432.727C-207.915 431.558 -204.616 429.962 -201.782 427.963C-194.749 423 -190.472 415.256 -190.622 407.751C-190.657 405.978 -192.187 404.569 -194.036 404.604C-194.04 404.604 -194.042 404.604 -194.047 404.604C-195.892 404.645 -197.356 406.109 -197.321 407.878C-197.212 413.33 -200.441 419.045 -205.752 422.791C-210.437 426.099 -216.819 428.077 -224.205 428.514C-240.072 429.465 -254.928 423.369 -271.045 409.382C-272.417 408.192 -274.535 408.293 -275.776 409.609C-277.017 410.924 -276.913 412.955 -275.541 414.145C-258.951 428.541 -242.709 435.383 -225.966 435.012C-225.244 434.997 -224.521 434.967 -223.798 434.925C-221.967 434.817 -220.195 434.606 -218.467 434.331C-215.795 444.875 -226.733 455.409 -234.101 460.221C-246.235 468.139 -263.256 469.798 -278.523 464.547C-292.624 459.7 -305.015 448.07 -313.471 431.787C-308.507 426.174 -306.568 418.759 -307.509 412.403C-308.721 404.201 -315.118 395.441 -329.429 395.446C-331.174 395.447 -337.303 395.837 -341.938 400.828C-345.752 404.933 -347.238 410.717 -346.355 418.017C-346.141 419.778 -344.441 421.039 -342.644 420.835C-340.806 420.63 -339.489 419.036 -339.703 417.274C-340.356 411.872 -339.425 407.776 -336.938 405.098C-334.725 402.719 -331.572 401.878 -329.43 401.868C-317.157 401.865 -314.649 409.867 -314.14 413.307C-313.015 420.915 -317.743 430.422 -327.604 433.166C-340.44 436.736 -361.082 432.812 -370.182 421.466C-372.319 418.802 -372.019 416.633 -371.564 413.348C-371.197 410.693 -370.778 407.682 -371.812 404.194C-374.337 395.656 -382.421 396.262 -387.235 396.62C-388.81 396.74 -390.266 396.769 -391.954 396.902C-393.14 396.994 -394.49 397.102 -395.229 396.907C-401.934 395.15 -403.741 389.015 -405.731 379.852C-406.252 377.449 -406.744 375.179 -407.416 373.036C-410.464 363.328 -417.516 356.37 -428.373 352.352Z" stroke="#ECE1D8" stroke-width="6" mask="url(#path-1-outside-1_0_1)"/>
<path d="M20.0301 317.098C16.0075 328.648 8.63023 339.37 -1.51437 347.525C-20.0713 362.444 -46.6077 368.503 -72.5107 363.61L-72.5117 363.61C-74.7821 363.182 -76.9747 362.648 -79.1437 362.064L-83.3866 360.92L-80.7264 364.419C-78.3136 367.591 -76.3221 370.888 -74.7629 374.202C-64.5033 396.005 -69.3073 425.528 -84.9082 447.001L-85.5932 447.943L-84.8472 448.841C-78.9532 455.933 -71.0937 461.883 -62.4573 464.602C-53.7758 467.336 -44.3212 466.793 -35.4572 460.886C-33.3342 459.473 -31.2276 457.898 -29.4991 456.467C-27.8122 455.071 -26.3633 453.714 -25.6628 452.744L-25.2702 452.201L-25.4136 451.546C-25.5329 451.002 -25.3636 450.398 -24.8735 449.967L-24.8725 449.966C-24.1105 449.296 -22.9111 449.353 -22.226 450.06L-22.208 450.08C-21.6244 450.691 -21.0523 451.297 -20.4879 451.9L-18.8123 453.697C-12.5537 460.425 -6.9183 466.513 2.83837 470.088C12.1401 473.497 23.0748 474.333 32.8688 472.396C48.1621 469.37 56.3942 462.087 67.4138 452.377C68.1032 451.77 68.8002 451.156 69.5078 450.536L71.6652 448.652C74.2637 446.4 77.0863 443.539 80.0153 440.572C81.8871 438.677 83.8549 436.687 85.931 434.682L84.1623 432.289C73.4765 438.186 62.699 444.082 51.1236 445.967C47.8534 446.5 44.5827 446.798 41.3472 446.869C26.5749 447.196 12.6002 442.804 2.64074 434.571L2.64072 434.57C1.89139 433.951 1.81858 432.906 2.45211 432.202L2.45404 432.201C3.12297 431.456 4.32158 431.366 5.1037 432.015L5.1057 432.017C16.5429 441.469 33.5071 445.359 50.4913 442.595C60.1981 441.013 69.6777 436.239 78.7022 431.313L82.5413 429.201C95.9128 421.821 109.196 414.562 123.831 414.981L123.869 414.982L123.907 414.981C126.257 414.929 128.678 415.076 131.183 415.479L131.184 415.478C131.538 415.536 131.85 415.69 132.107 415.909L132.376 416.137L132.718 416.222C134.225 416.597 135.722 417.025 137.231 417.568L137.878 417.808C144.446 420.317 150.463 423.895 156.406 427.432C167.412 433.985 178.283 440.488 192.167 439.429L192.168 439.429C199.778 438.847 205.418 436.29 209.918 432.051C214.37 427.858 217.618 422.098 220.627 415.279C221.879 412.442 223.567 408.629 226.062 405.106C228.555 401.587 231.781 398.461 236.056 396.899L240.672 395.211L235.895 394.034C235.676 393.98 235.463 393.927 235.252 393.873L235.248 393.872C232.158 393.087 229.169 392.853 225.331 393.047L225.329 393.047C222.985 393.168 220.915 394.03 218.84 394.88L218.841 394.88C217.941 395.249 217.07 395.605 216.174 395.922L216.173 395.922C213.635 396.821 211.402 397.832 209.301 398.782L209.3 398.782C203.887 401.229 199.051 403.411 191.347 403.003C186.437 402.742 181.51 402.311 177.073 400.299C167.827 396.106 162.182 388.534 156.488 380.85C152.061 374.878 147.705 368.977 141.583 364.86L141.582 364.861C127.2 355.197 106.817 355.333 92.9325 365.191L92.1995 365.711L92.3152 366.604C92.7475 369.962 92.8216 373.328 92.4425 376.652L92.3604 377.316C91.0912 386.918 85.9065 396.011 78.1298 402.236L77.4707 402.746C70.5448 407.962 60.0474 411.008 49.5936 411.239C43.2681 411.379 37.0464 410.483 31.7454 408.479C22.1496 404.854 16.3662 397.922 15.2077 388.987L15.1405 388.415C13.89 376.459 22.5907 368.054 31.5835 365.311C41.811 362.19 51.5795 366.036 56.6207 375.062L56.6208 375.063C57.0347 375.803 56.8138 376.751 56.0345 377.252L55.8706 377.347L55.6928 377.427C54.7933 377.781 53.7664 377.413 53.3347 376.638L53.3346 376.637C48.2772 367.578 39.2845 366.564 32.7336 368.563C25.367 370.81 17.7558 377.821 18.8231 388.083L18.8806 388.574C19.9148 396.537 24.8378 402.171 33.1497 405.312C39.7513 407.806 47.8745 408.379 55.547 407.365C63.2095 406.353 70.615 403.732 75.7176 399.65C82.7949 393.986 87.5284 385.708 88.6907 376.911C89.9451 367.423 87.3591 357.704 82.8102 349.162C78.2598 340.617 71.6897 333.142 64.8047 328.113L64.2929 327.744C53.4762 320.058 38.3025 316.025 21.4384 316.093L20.3787 316.098L20.0301 317.098Z" fill="white" stroke="#ECE1D8" stroke-width="3"/>
<mask id="path-3-outside-2_0_1" maskUnits="userSpaceOnUse" x="1599.74" y="239.662" width="480.982" height="269.431" fill="black">
<rect fill="white" x="1599.74" y="239.662" width="480.982" height="269.431"/>
<path d="M2054.6 378.352C2061.54 375.782 2069.02 376.63 2076.3 377.613C2073.76 376.578 2071.32 375.416 2068.93 374.279C2067.88 373.779 2066.83 373.28 2065.77 372.793C2056.44 368.485 2047.26 364.866 2037.67 367.812C2026.43 371.265 2016.37 379.904 2008.86 387.044C2008.59 387.305 2008.37 387.615 2008.14 387.915C2007.69 388.503 2007.13 389.235 2006.35 389.886C1992.28 401.687 1964.45 414.007 1945.51 399.602C1939.35 394.921 1935 388.605 1931.4 383.052C1920.55 366.262 1907.57 351.538 1886.41 357.387C1885.91 357.527 1885.39 357.753 1884.79 358.015C1884.09 358.318 1883.39 358.614 1882.65 358.847C1882.35 358.941 1881.96 359.082 1881.52 359.238C1878.81 360.202 1876.75 360.856 1875.01 360.579C1873.83 360.392 1872.85 359.621 1872.43 358.557C1871.08 355.173 1874.25 352.581 1875.95 351.188C1876.23 350.963 1876.48 350.766 1876.65 350.599C1877.7 349.556 1878.85 348.744 1879.96 347.957C1881.24 347.046 1882.45 346.184 1883.17 345.169C1890.78 334.342 1891.21 323.502 1884.44 313.819C1874 298.916 1848.15 289.701 1827.98 293.709C1818.18 295.655 1805.81 301.457 1802.63 318.042L1800.28 330.234C1799.95 331.971 1798.23 333.132 1796.4 332.812C1794.59 332.502 1793.38 330.848 1793.69 329.107C1795.55 318.663 1797.67 306.825 1794.24 296.296C1792.05 289.591 1787.43 282.896 1780.11 275.829C1753.77 250.414 1713.24 239.269 1676.88 247.436C1659.77 251.278 1645.65 259.647 1632.43 273.776C1623.91 282.87 1613.63 295.163 1609.66 309.635C1603.9 330.658 1612.51 354.827 1631.11 369.776C1648.51 383.765 1673.41 389.377 1697.72 384.783C1704.64 383.477 1710.91 381.412 1716.41 378.714C1719.5 376.281 1722.93 374.058 1726.7 372.122C1727.48 371.478 1728.25 370.832 1728.96 370.149C1744.74 355.018 1743.06 330.325 1732.46 316.127C1723.09 303.585 1708.85 300.579 1693.38 307.873C1688.56 310.144 1682.86 315.115 1681.73 320.659C1681.15 323.554 1681.94 326.127 1684.18 328.526C1685.41 329.85 1685.29 331.881 1683.91 333.061C1682.53 334.239 1680.41 334.125 1679.18 332.8C1675.56 328.912 1674.17 324.288 1675.16 319.428C1676.73 311.694 1683.96 305.158 1690.42 302.11C1708.86 293.421 1726.61 297.262 1737.9 312.389C1748.44 326.498 1751.23 349.654 1740.02 366.988C1750.48 364.136 1762.8 363.257 1777.04 365.33C1791.77 367.473 1811.27 376.347 1817.78 394.308C1824.76 413.576 1812.27 433.339 1796.97 442.15C1786.89 447.959 1772.87 449.068 1762.87 444.858C1755.26 441.647 1750.35 435.81 1748.67 427.976C1746.08 415.796 1753.87 403.492 1765.69 401.106C1772.22 399.79 1778.29 400.818 1781.94 403.853C1783.88 405.469 1786.11 408.462 1785.76 413.548C1785.54 416.695 1783.57 419.773 1780.63 421.583C1777.92 423.248 1774.78 423.631 1772.02 422.625C1770.29 421.996 1769.42 420.142 1770.07 418.484C1770.73 416.825 1772.66 415.994 1774.39 416.619C1775.47 417.014 1776.58 416.441 1777.01 416.177C1778.19 415.455 1779 414.252 1779.08 413.113C1779.21 411.119 1778.71 409.676 1777.54 408.702C1775.53 407.027 1771.43 406.511 1767.08 407.392C1757.93 409.237 1753.57 418.861 1755.24 426.692C1756.47 432.476 1759.95 436.609 1765.57 438.978C1773.69 442.405 1785.19 441.444 1793.52 436.645C1806.56 429.134 1817.27 412.482 1811.45 396.412C1805.93 381.156 1788.92 373.554 1776.04 371.68C1757.16 368.933 1742.01 371.775 1730.44 377.545C1727.43 379.97 1724.01 382.108 1720.31 383.995C1713.64 389.321 1708.8 395.718 1705.74 402.211C1696.26 422.35 1701.1 450.356 1715.62 470.385C1715.91 470.483 1716.19 470.605 1716.45 470.785C1717.33 471.387 1717.8 472.323 1717.84 473.284C1721.42 477.724 1725.49 481.702 1730.01 485.01C1749.61 499.33 1782.37 503.282 1803.06 493.817C1817.55 487.185 1829.78 474.798 1837.8 458.727C1834.14 457.558 1830.84 455.962 1828.01 453.963C1820.98 449 1816.7 441.256 1816.85 433.751C1816.88 431.978 1818.41 430.569 1820.26 430.604C1820.27 430.604 1820.27 430.604 1820.27 430.604C1822.12 430.645 1823.58 432.109 1823.55 433.878C1823.44 439.33 1826.67 445.045 1831.98 448.791C1836.66 452.099 1843.05 454.077 1850.43 454.514C1866.3 455.465 1881.16 449.369 1897.27 435.382C1898.64 434.192 1900.76 434.293 1902 435.609C1903.24 436.924 1903.14 438.955 1901.77 440.145C1885.18 454.541 1868.94 461.383 1852.19 461.012C1851.47 460.997 1850.75 460.967 1850.02 460.925C1848.19 460.817 1846.42 460.606 1844.69 460.331C1842.02 470.875 1852.96 481.409 1860.33 486.221C1872.46 494.139 1889.48 495.798 1904.75 490.547C1918.85 485.7 1931.24 474.07 1939.7 457.787C1934.73 452.174 1932.8 444.759 1933.74 438.403C1934.95 430.201 1941.35 421.441 1955.66 421.446C1957.4 421.447 1963.53 421.837 1968.17 426.828C1971.98 430.933 1973.47 436.717 1972.58 444.017C1972.37 445.778 1970.67 447.039 1968.87 446.835C1967.03 446.63 1965.72 445.036 1965.93 443.274C1966.58 437.872 1965.65 433.776 1963.17 431.098C1960.95 428.719 1957.8 427.878 1955.66 427.868C1943.38 427.865 1940.88 435.867 1940.37 439.307C1939.24 446.915 1943.97 456.422 1953.83 459.166C1966.67 462.736 1987.31 458.812 1996.41 447.466C1998.55 444.802 1998.25 442.633 1997.79 439.348C1997.42 436.693 1997.01 433.682 1998.04 430.194C2000.56 421.656 2008.65 422.262 2013.46 422.62C2015.04 422.74 2016.49 422.769 2018.18 422.902C2019.37 422.994 2020.72 423.102 2021.46 422.907C2028.16 421.15 2029.97 415.015 2031.96 405.852C2032.48 403.449 2032.97 401.179 2033.64 399.036C2036.69 389.328 2043.74 382.37 2054.6 378.352Z"/>
</mask>
<path d="M2054.6 378.352C2061.54 375.782 2069.02 376.63 2076.3 377.613C2073.76 376.578 2071.32 375.416 2068.93 374.279C2067.88 373.779 2066.83 373.28 2065.77 372.793C2056.44 368.485 2047.26 364.866 2037.67 367.812C2026.43 371.265 2016.37 379.904 2008.86 387.044C2008.59 387.305 2008.37 387.615 2008.14 387.915C2007.69 388.503 2007.13 389.235 2006.35 389.886C1992.28 401.687 1964.45 414.007 1945.51 399.602C1939.35 394.921 1935 388.605 1931.4 383.052C1920.55 366.262 1907.57 351.538 1886.41 357.387C1885.91 357.527 1885.39 357.753 1884.79 358.015C1884.09 358.318 1883.39 358.614 1882.65 358.847C1882.35 358.941 1881.96 359.082 1881.52 359.238C1878.81 360.202 1876.75 360.856 1875.01 360.579C1873.83 360.392 1872.85 359.621 1872.43 358.557C1871.08 355.173 1874.25 352.581 1875.95 351.188C1876.23 350.963 1876.48 350.766 1876.65 350.599C1877.7 349.556 1878.85 348.744 1879.96 347.957C1881.24 347.046 1882.45 346.184 1883.17 345.169C1890.78 334.342 1891.21 323.502 1884.44 313.819C1874 298.916 1848.15 289.701 1827.98 293.709C1818.18 295.655 1805.81 301.457 1802.63 318.042L1800.28 330.234C1799.95 331.971 1798.23 333.132 1796.4 332.812C1794.59 332.502 1793.38 330.848 1793.69 329.107C1795.55 318.663 1797.67 306.825 1794.24 296.296C1792.05 289.591 1787.43 282.896 1780.11 275.829C1753.77 250.414 1713.24 239.269 1676.88 247.436C1659.77 251.278 1645.65 259.647 1632.43 273.776C1623.91 282.87 1613.63 295.163 1609.66 309.635C1603.9 330.658 1612.51 354.827 1631.11 369.776C1648.51 383.765 1673.41 389.377 1697.72 384.783C1704.64 383.477 1710.91 381.412 1716.41 378.714C1719.5 376.281 1722.93 374.058 1726.7 372.122C1727.48 371.478 1728.25 370.832 1728.96 370.149C1744.74 355.018 1743.06 330.325 1732.46 316.127C1723.09 303.585 1708.85 300.579 1693.38 307.873C1688.56 310.144 1682.86 315.115 1681.73 320.659C1681.15 323.554 1681.94 326.127 1684.18 328.526C1685.41 329.85 1685.29 331.881 1683.91 333.061C1682.53 334.239 1680.41 334.125 1679.18 332.8C1675.56 328.912 1674.17 324.288 1675.16 319.428C1676.73 311.694 1683.96 305.158 1690.42 302.11C1708.86 293.421 1726.61 297.262 1737.9 312.389C1748.44 326.498 1751.23 349.654 1740.02 366.988C1750.48 364.136 1762.8 363.257 1777.04 365.33C1791.77 367.473 1811.27 376.347 1817.78 394.308C1824.76 413.576 1812.27 433.339 1796.97 442.15C1786.89 447.959 1772.87 449.068 1762.87 444.858C1755.26 441.647 1750.35 435.81 1748.67 427.976C1746.08 415.796 1753.87 403.492 1765.69 401.106C1772.22 399.79 1778.29 400.818 1781.94 403.853C1783.88 405.469 1786.11 408.462 1785.76 413.548C1785.54 416.695 1783.57 419.773 1780.63 421.583C1777.92 423.248 1774.78 423.631 1772.02 422.625C1770.29 421.996 1769.42 420.142 1770.07 418.484C1770.73 416.825 1772.66 415.994 1774.39 416.619C1775.47 417.014 1776.58 416.441 1777.01 416.177C1778.19 415.455 1779 414.252 1779.08 413.113C1779.21 411.119 1778.71 409.676 1777.54 408.702C1775.53 407.027 1771.43 406.511 1767.08 407.392C1757.93 409.237 1753.57 418.861 1755.24 426.692C1756.47 432.476 1759.95 436.609 1765.57 438.978C1773.69 442.405 1785.19 441.444 1793.52 436.645C1806.56 429.134 1817.27 412.482 1811.45 396.412C1805.93 381.156 1788.92 373.554 1776.04 371.68C1757.16 368.933 1742.01 371.775 1730.44 377.545C1727.43 379.97 1724.01 382.108 1720.31 383.995C1713.64 389.321 1708.8 395.718 1705.74 402.211C1696.26 422.35 1701.1 450.356 1715.62 470.385C1715.91 470.483 1716.19 470.605 1716.45 470.785C1717.33 471.387 1717.8 472.323 1717.84 473.284C1721.42 477.724 1725.49 481.702 1730.01 485.01C1749.61 499.33 1782.37 503.282 1803.06 493.817C1817.55 487.185 1829.78 474.798 1837.8 458.727C1834.14 457.558 1830.84 455.962 1828.01 453.963C1820.98 449 1816.7 441.256 1816.85 433.751C1816.88 431.978 1818.41 430.569 1820.26 430.604C1820.27 430.604 1820.27 430.604 1820.27 430.604C1822.12 430.645 1823.58 432.109 1823.55 433.878C1823.44 439.33 1826.67 445.045 1831.98 448.791C1836.66 452.099 1843.05 454.077 1850.43 454.514C1866.3 455.465 1881.16 449.369 1897.27 435.382C1898.64 434.192 1900.76 434.293 1902 435.609C1903.24 436.924 1903.14 438.955 1901.77 440.145C1885.18 454.541 1868.94 461.383 1852.19 461.012C1851.47 460.997 1850.75 460.967 1850.02 460.925C1848.19 460.817 1846.42 460.606 1844.69 460.331C1842.02 470.875 1852.96 481.409 1860.33 486.221C1872.46 494.139 1889.48 495.798 1904.75 490.547C1918.85 485.7 1931.24 474.07 1939.7 457.787C1934.73 452.174 1932.8 444.759 1933.74 438.403C1934.95 430.201 1941.35 421.441 1955.66 421.446C1957.4 421.447 1963.53 421.837 1968.17 426.828C1971.98 430.933 1973.47 436.717 1972.58 444.017C1972.37 445.778 1970.67 447.039 1968.87 446.835C1967.03 446.63 1965.72 445.036 1965.93 443.274C1966.58 437.872 1965.65 433.776 1963.17 431.098C1960.95 428.719 1957.8 427.878 1955.66 427.868C1943.38 427.865 1940.88 435.867 1940.37 439.307C1939.24 446.915 1943.97 456.422 1953.83 459.166C1966.67 462.736 1987.31 458.812 1996.41 447.466C1998.55 444.802 1998.25 442.633 1997.79 439.348C1997.42 436.693 1997.01 433.682 1998.04 430.194C2000.56 421.656 2008.65 422.262 2013.46 422.62C2015.04 422.74 2016.49 422.769 2018.18 422.902C2019.37 422.994 2020.72 423.102 2021.46 422.907C2028.16 421.15 2029.97 415.015 2031.96 405.852C2032.48 403.449 2032.97 401.179 2033.64 399.036C2036.69 389.328 2043.74 382.37 2054.6 378.352Z" fill="white"/>
<path d="M2054.6 378.352C2061.54 375.782 2069.02 376.63 2076.3 377.613C2073.76 376.578 2071.32 375.416 2068.93 374.279C2067.88 373.779 2066.83 373.28 2065.77 372.793C2056.44 368.485 2047.26 364.866 2037.67 367.812C2026.43 371.265 2016.37 379.904 2008.86 387.044C2008.59 387.305 2008.37 387.615 2008.14 387.915C2007.69 388.503 2007.13 389.235 2006.35 389.886C1992.28 401.687 1964.45 414.007 1945.51 399.602C1939.35 394.921 1935 388.605 1931.4 383.052C1920.55 366.262 1907.57 351.538 1886.41 357.387C1885.91 357.527 1885.39 357.753 1884.79 358.015C1884.09 358.318 1883.39 358.614 1882.65 358.847C1882.35 358.941 1881.96 359.082 1881.52 359.238C1878.81 360.202 1876.75 360.856 1875.01 360.579C1873.83 360.392 1872.85 359.621 1872.43 358.557C1871.08 355.173 1874.25 352.581 1875.95 351.188C1876.23 350.963 1876.48 350.766 1876.65 350.599C1877.7 349.556 1878.85 348.744 1879.96 347.957C1881.24 347.046 1882.45 346.184 1883.17 345.169C1890.78 334.342 1891.21 323.502 1884.44 313.819C1874 298.916 1848.15 289.701 1827.98 293.709C1818.18 295.655 1805.81 301.457 1802.63 318.042L1800.28 330.234C1799.95 331.971 1798.23 333.132 1796.4 332.812C1794.59 332.502 1793.38 330.848 1793.69 329.107C1795.55 318.663 1797.67 306.825 1794.24 296.296C1792.05 289.591 1787.43 282.896 1780.11 275.829C1753.77 250.414 1713.24 239.269 1676.88 247.436C1659.77 251.278 1645.65 259.647 1632.43 273.776C1623.91 282.87 1613.63 295.163 1609.66 309.635C1603.9 330.658 1612.51 354.827 1631.11 369.776C1648.51 383.765 1673.41 389.377 1697.72 384.783C1704.64 383.477 1710.91 381.412 1716.41 378.714C1719.5 376.281 1722.93 374.058 1726.7 372.122C1727.48 371.478 1728.25 370.832 1728.96 370.149C1744.74 355.018 1743.06 330.325 1732.46 316.127C1723.09 303.585 1708.85 300.579 1693.38 307.873C1688.56 310.144 1682.86 315.115 1681.73 320.659C1681.15 323.554 1681.94 326.127 1684.18 328.526C1685.41 329.85 1685.29 331.881 1683.91 333.061C1682.53 334.239 1680.41 334.125 1679.18 332.8C1675.56 328.912 1674.17 324.288 1675.16 319.428C1676.73 311.694 1683.96 305.158 1690.42 302.11C1708.86 293.421 1726.61 297.262 1737.9 312.389C1748.44 326.498 1751.23 349.654 1740.02 366.988C1750.48 364.136 1762.8 363.257 1777.04 365.33C1791.77 367.473 1811.27 376.347 1817.78 394.308C1824.76 413.576 1812.27 433.339 1796.97 442.15C1786.89 447.959 1772.87 449.068 1762.87 444.858C1755.26 441.647 1750.35 435.81 1748.67 427.976C1746.08 415.796 1753.87 403.492 1765.69 401.106C1772.22 399.79 1778.29 400.818 1781.94 403.853C1783.88 405.469 1786.11 408.462 1785.76 413.548C1785.54 416.695 1783.57 419.773 1780.63 421.583C1777.92 423.248 1774.78 423.631 1772.02 422.625C1770.29 421.996 1769.42 420.142 1770.07 418.484C1770.73 416.825 1772.66 415.994 1774.39 416.619C1775.47 417.014 1776.58 416.441 1777.01 416.177C1778.19 415.455 1779 414.252 1779.08 413.113C1779.21 411.119 1778.71 409.676 1777.54 408.702C1775.53 407.027 1771.43 406.511 1767.08 407.392C1757.93 409.237 1753.57 418.861 1755.24 426.692C1756.47 432.476 1759.95 436.609 1765.57 438.978C1773.69 442.405 1785.19 441.444 1793.52 436.645C1806.56 429.134 1817.27 412.482 1811.45 396.412C1805.93 381.156 1788.92 373.554 1776.04 371.68C1757.16 368.933 1742.01 371.775 1730.44 377.545C1727.43 379.97 1724.01 382.108 1720.31 383.995C1713.64 389.321 1708.8 395.718 1705.74 402.211C1696.26 422.35 1701.1 450.356 1715.62 470.385C1715.91 470.483 1716.19 470.605 1716.45 470.785C1717.33 471.387 1717.8 472.323 1717.84 473.284C1721.42 477.724 1725.49 481.702 1730.01 485.01C1749.61 499.33 1782.37 503.282 1803.06 493.817C1817.55 487.185 1829.78 474.798 1837.8 458.727C1834.14 457.558 1830.84 455.962 1828.01 453.963C1820.98 449 1816.7 441.256 1816.85 433.751C1816.88 431.978 1818.41 430.569 1820.26 430.604C1820.27 430.604 1820.27 430.604 1820.27 430.604C1822.12 430.645 1823.58 432.109 1823.55 433.878C1823.44 439.33 1826.67 445.045 1831.98 448.791C1836.66 452.099 1843.05 454.077 1850.43 454.514C1866.3 455.465 1881.16 449.369 1897.27 435.382C1898.64 434.192 1900.76 434.293 1902 435.609C1903.24 436.924 1903.14 438.955 1901.77 440.145C1885.18 454.541 1868.94 461.383 1852.19 461.012C1851.47 460.997 1850.75 460.967 1850.02 460.925C1848.19 460.817 1846.42 460.606 1844.69 460.331C1842.02 470.875 1852.96 481.409 1860.33 486.221C1872.46 494.139 1889.48 495.798 1904.75 490.547C1918.85 485.7 1931.24 474.07 1939.7 457.787C1934.73 452.174 1932.8 444.759 1933.74 438.403C1934.95 430.201 1941.35 421.441 1955.66 421.446C1957.4 421.447 1963.53 421.837 1968.17 426.828C1971.98 430.933 1973.47 436.717 1972.58 444.017C1972.37 445.778 1970.67 447.039 1968.87 446.835C1967.03 446.63 1965.72 445.036 1965.93 443.274C1966.58 437.872 1965.65 433.776 1963.17 431.098C1960.95 428.719 1957.8 427.878 1955.66 427.868C1943.38 427.865 1940.88 435.867 1940.37 439.307C1939.24 446.915 1943.97 456.422 1953.83 459.166C1966.67 462.736 1987.31 458.812 1996.41 447.466C1998.55 444.802 1998.25 442.633 1997.79 439.348C1997.42 436.693 1997.01 433.682 1998.04 430.194C2000.56 421.656 2008.65 422.262 2013.46 422.62C2015.04 422.74 2016.49 422.769 2018.18 422.902C2019.37 422.994 2020.72 423.102 2021.46 422.907C2028.16 421.15 2029.97 415.015 2031.96 405.852C2032.48 403.449 2032.97 401.179 2033.64 399.036C2036.69 389.328 2043.74 382.37 2054.6 378.352Z" stroke="#ECE1D8" stroke-width="6" mask="url(#path-3-outside-2_0_1)"/>
<path d="M1606.2 343.098C1610.22 354.648 1617.6 365.37 1627.74 373.525C1646.3 388.444 1672.84 394.503 1698.74 389.61L1698.74 389.61C1701.01 389.182 1703.2 388.648 1705.37 388.064L1709.61 386.92L1706.95 390.419C1704.54 393.591 1702.55 396.888 1700.99 400.202C1690.73 422.005 1695.53 451.528 1711.14 473.001L1711.82 473.943L1711.07 474.841C1705.18 481.933 1697.32 487.883 1688.68 490.602C1680 493.336 1670.55 492.793 1661.68 486.886C1659.56 485.473 1657.45 483.898 1655.73 482.467C1654.04 481.071 1652.59 479.714 1651.89 478.744L1651.5 478.201L1651.64 477.546C1651.76 477.002 1651.59 476.398 1651.1 475.967L1651.1 475.966C1650.34 475.296 1649.14 475.353 1648.45 476.06L1648.44 476.08C1647.85 476.691 1647.28 477.297 1646.72 477.9L1645.04 479.697C1638.78 486.425 1633.15 492.513 1623.39 496.088C1614.09 499.497 1603.15 500.333 1593.36 498.396C1578.07 495.37 1569.83 488.087 1558.81 478.377C1558.12 477.77 1557.43 477.156 1556.72 476.536L1554.56 474.652C1551.96 472.4 1549.14 469.539 1546.21 466.572C1544.34 464.677 1542.37 462.687 1540.3 460.682L1542.07 458.289C1552.75 464.186 1563.53 470.082 1575.1 471.967C1578.37 472.5 1581.64 472.798 1584.88 472.869C1599.65 473.196 1613.63 468.804 1623.59 460.571L1623.59 460.57C1624.34 459.951 1624.41 458.906 1623.78 458.202L1623.77 458.201C1623.1 457.456 1621.91 457.366 1621.12 458.015L1621.12 458.017C1609.68 467.469 1592.72 471.359 1575.74 468.595C1566.03 467.013 1556.55 462.239 1547.53 457.313L1543.69 455.201C1530.31 447.821 1517.03 440.562 1502.4 440.981L1502.36 440.982L1502.32 440.981C1499.97 440.929 1497.55 441.076 1495.04 441.479L1495.04 441.478C1494.69 441.536 1494.38 441.69 1494.12 441.909L1493.85 442.137L1493.51 442.222C1492 442.597 1490.51 443.025 1489 443.568L1488.35 443.808C1481.78 446.317 1475.76 449.895 1469.82 453.432C1458.82 459.985 1447.94 466.488 1434.06 465.429L1434.06 465.429C1426.45 464.847 1420.81 462.29 1416.31 458.051C1411.86 453.858 1408.61 448.098 1405.6 441.279C1404.35 438.442 1402.66 434.629 1400.16 431.106C1397.67 427.587 1394.45 424.461 1390.17 422.899L1385.55 421.211L1390.33 420.034C1390.55 419.98 1390.76 419.927 1390.98 419.873L1390.98 419.872C1394.07 419.087 1397.06 418.853 1400.9 419.047L1400.9 419.047C1403.24 419.168 1405.31 420.03 1407.39 420.88L1407.39 420.88C1408.29 421.249 1409.16 421.605 1410.05 421.922L1410.05 421.922C1412.59 422.821 1414.82 423.832 1416.93 424.782L1416.93 424.782C1422.34 427.229 1427.18 429.411 1434.88 429.003C1439.79 428.742 1444.72 428.311 1449.15 426.299C1458.4 422.106 1464.04 414.534 1469.74 406.85C1474.17 400.878 1478.52 394.977 1484.64 390.86L1484.65 390.861C1499.03 381.197 1519.41 381.333 1533.29 391.191L1534.03 391.711L1533.91 392.604C1533.48 395.962 1533.41 399.328 1533.78 402.652L1533.87 403.316C1535.14 412.918 1540.32 422.011 1548.1 428.236L1548.76 428.746C1555.68 433.962 1566.18 437.008 1576.63 437.239C1582.96 437.379 1589.18 436.483 1594.48 434.479C1604.08 430.854 1609.86 423.922 1611.02 414.987L1611.09 414.415C1612.34 402.459 1603.64 394.054 1594.64 391.311C1584.42 388.19 1574.65 392.036 1569.61 401.062L1569.61 401.063C1569.19 401.803 1569.41 402.751 1570.19 403.252L1570.36 403.347L1570.53 403.427C1571.43 403.781 1572.46 403.413 1572.89 402.638L1572.89 402.637C1577.95 393.578 1586.94 392.564 1593.49 394.563C1600.86 396.81 1608.47 403.821 1607.4 414.083L1607.35 414.574C1606.31 422.537 1601.39 428.171 1593.08 431.312C1586.48 433.806 1578.35 434.379 1570.68 433.365C1563.02 432.353 1555.61 429.732 1550.51 425.65C1543.43 419.986 1538.7 411.708 1537.54 402.911C1536.28 393.423 1538.87 383.704 1543.42 375.162C1547.97 366.617 1554.54 359.142 1561.42 354.113L1561.93 353.744C1572.75 346.058 1587.92 342.025 1604.79 342.093L1605.85 342.098L1606.2 343.098Z" fill="white" stroke="#ECE1D8" stroke-width="3"/>
<path d="M1312.01 422.486C1315.8 422.634 1319.57 423.601 1322.44 425.449C1326.01 427.753 1327.84 431.14 1327.81 435.358L1327.8 435.769C1327.72 438.066 1326.6 440.332 1324.8 441.704L1324.8 441.705C1323.8 442.465 1322.07 443.316 1319.82 442.81L1319.82 442.811C1319.36 442.709 1318.87 442.533 1318.45 442.293C1318.25 442.176 1317.99 442.004 1317.77 441.763C1317.57 441.542 1317.23 441.064 1317.28 440.388L1317.28 440.385C1317.32 439.951 1317.01 439.542 1316.55 439.459L1316.46 439.447C1315.92 439.412 1315.53 439.783 1315.49 440.242L1315.49 440.245C1315.34 442.104 1316.6 443.881 1319.42 444.51C1321.73 445.022 1324.02 444.518 1325.91 443.076L1325.91 443.076C1327.64 441.754 1328.87 439.773 1329.35 437.569L1329.47 437.053L1329.88 436.722C1329.96 436.656 1330.04 436.607 1330.09 436.576C1337.5 428.957 1343.89 424.935 1350.72 423.987L1350.72 423.986C1360.97 422.559 1372.21 425.269 1384.05 431.834L1384.05 431.834C1388.08 434.066 1391.74 436.864 1395.44 439.794L1397.03 441.057L1397.03 441.057C1403.51 446.212 1409.96 451.319 1417.91 453.754C1422.22 455.07 1427.09 455.139 1431.38 453.715L1436.25 452.1L1433.02 456.084C1431.51 457.938 1429.78 459.616 1427.67 461.136C1422.6 464.785 1417.07 465.381 1411.52 464.558C1406.72 463.846 1401.81 462.052 1397.08 460.208L1395.07 459.418C1394.4 459.155 1393.74 458.895 1393.09 458.641L1391.16 457.9C1372.98 451.037 1353.48 451.61 1337.67 459.378C1331.09 462.608 1324.98 466.764 1318.97 470.852C1310.47 476.633 1302.24 482.237 1292.55 485.484C1264.65 494.819 1241.62 480.658 1220.97 465.892C1193.88 446.52 1155.88 442.506 1104.44 454.089C1095.98 455.994 1087.38 458.193 1079.04 460.326C1060.79 464.992 1041.8 469.851 1023.06 471.902C1004.01 473.986 985.567 471.186 967.098 463.387L968.082 460.56C968.116 460.57 968.148 460.58 968.166 460.585C968.178 460.588 968.186 460.591 968.192 460.592C973.878 462.125 979.939 462.967 986.341 463.113C993.714 463.282 1001.54 462.526 1009.76 460.837L1011 460.576C1017.19 459.237 1023.51 457.375 1029.81 455.034C1035.89 452.778 1042.08 450.345 1048.08 447.985L1052.66 446.188C1063.39 441.984 1074.44 437.76 1085.51 434.366C1096.83 430.894 1108.43 428.574 1119.97 427.472C1139.62 425.596 1159.7 427.206 1179.64 432.249C1189.12 434.645 1198.86 437.974 1208.61 442.14C1210.84 443.091 1213.03 444.076 1215.18 445.044C1225.61 449.74 1235.18 454.007 1246.87 454.108C1257.08 454.187 1267.05 450.971 1276.55 444.48C1280.21 441.98 1283.5 438.816 1286.79 435.652L1288.46 434.055C1292.35 430.347 1296.31 426.812 1300.99 424.574C1304.26 423.004 1308.22 422.337 1312.01 422.486Z" fill="white" stroke="#ECE1D8" stroke-width="3"/>
<path d="M1245.05 389.151C1257.41 388.197 1270.1 394.977 1275.94 405.694C1278.27 409.962 1279.65 415.02 1280.08 420.696L1280.11 421.089C1280.33 425.194 1279.19 430.732 1276.96 435.762C1274.67 440.934 1271.09 445.901 1266.27 448.148L1266.27 448.147C1266.21 448.174 1266.16 448.206 1266.11 448.241L1265.98 448.344L1265.82 448.412C1259.85 450.983 1253.72 452.329 1247.49 452.365L1246.89 452.364C1235.51 452.282 1225.81 447.91 1215.93 443.462C1214.29 442.725 1212.65 441.987 1211 441.263L1209.33 440.545C1199.48 436.337 1189.64 432.977 1180.09 430.562C1159.92 425.461 1139.64 423.841 1119.8 425.737C1108.13 426.851 1096.41 429.194 1084.97 432.703C1073.85 436.109 1062.81 440.328 1052.02 444.557L1047.4 446.369C1041.43 448.718 1035.23 451.153 1029.17 453.405C1022.54 455.866 1015.89 457.793 1009.39 459.129L1009.39 459.13C994.417 462.207 980.707 462.158 968.669 458.911C965.154 457.964 961.61 456.648 958.03 455.201L958.737 452.317C962.152 452.648 965.599 452.863 969.073 452.942C981.618 453.229 994.53 451.873 1007.47 448.862C1023.93 445.032 1038.59 436.786 1052.97 428.682L1052.97 428.682C1069.26 419.508 1084.91 410.675 1103.34 407.757C1127.51 403.929 1150.45 405.346 1173.43 412.1C1181.49 414.466 1189.8 417.706 1200.13 422.503L1202.22 423.484L1203.1 423.908C1205.16 424.91 1207.19 426.008 1209.29 427.142C1215.3 430.39 1221.26 433.6 1227.94 434.758L1227.94 434.758C1232.06 435.475 1237.63 435.254 1242.58 433.656C1247.55 432.053 1251.63 429.164 1253.27 424.752L1253.27 424.751C1254.66 421.028 1253.59 415.765 1250.77 412.677L1250.62 412.519C1249.84 411.738 1248.65 411.045 1247.24 410.591C1245.75 410.11 1244.17 409.943 1242.83 410.148C1240.94 410.441 1239.62 411.441 1238.96 412.896L1238.96 412.897C1238.77 413.296 1238.92 413.774 1239.32 414L1239.4 414.042L1239.4 414.043C1239.87 414.249 1240.4 414.039 1240.59 413.606L1240.59 413.601C1240.67 413.446 1240.86 413.019 1241.32 412.628C1241.77 412.242 1242.37 411.985 1243.11 411.87L1243.12 411.869C1244.36 411.682 1245.67 411.918 1246.73 412.271C1247.75 412.61 1248.81 413.154 1249.43 413.832C1250.65 415.169 1251.46 416.966 1251.84 418.761C1252.22 420.551 1252.2 422.499 1251.58 424.156L1251.58 424.157C1249.99 428.464 1245.62 430.977 1241.13 432.254L1240.63 432.397L1240.15 432.195C1240.03 432.146 1239.92 432.124 1239.81 432.121C1234.89 432.009 1230.79 430.415 1227.76 427.277L1227.48 426.968C1223.89 423.037 1222.16 416.981 1222.65 410.817C1223.53 399.852 1233.78 390.016 1245.05 389.152L1245.05 389.151Z" fill="white" stroke="#ECE1D8" stroke-width="3"/>
<mask id="path-7-outside-3_0_1" maskUnits="userSpaceOnUse" x="1730.93" y="-4.07072" width="444.843" height="238.458" fill="black">
<rect fill="white" x="1730.93" y="-4.07072" width="444.843" height="238.458"/>
<path d="M2162.79 181.641C2156.69 178.777 2153.4 174.419 2151.3 170.981C2149.88 168.635 2148.95 166.127 2148.04 163.7C2146.37 159.193 2144.92 155.3 2140.73 153.399C2132.99 149.885 2122.8 152.62 2116.06 154.431C2105.18 157.349 2096.42 155.654 2091.05 149.694C2090.19 150.783 2089.3 151.839 2088.42 152.88C2085.04 156.868 2081.85 160.634 2081.24 165.695C2081.14 166.454 2081.34 167.233 2081.7 167.504C2082.75 168.298 2082.99 169.84 2082.25 170.952C2081.78 171.645 2081.04 172.006 2080.29 171.988C2079.84 171.977 2079.39 171.827 2078.99 171.528C2077.21 170.177 2076.29 167.702 2076.61 165.07C2077.41 158.476 2081.24 153.951 2084.95 149.573C2087.75 146.277 2090.39 143.162 2091.62 139.33C2093.38 133.858 2092.16 127.63 2088.29 122.242C2080.91 111.983 2065.17 105.692 2053.48 112.677C2050.92 114.208 2047.4 117 2045.53 119.989C2041.32 129.102 2034.05 134.001 2024.46 134.147C2023.63 134.158 2022.72 134.03 2021.83 133.905C2020.91 133.774 2019.21 133.532 2018.71 133.781C2018.72 133.808 2018.69 133.969 2018.68 134.284C2018.67 136.021 2018.76 137.782 2018.84 139.485C2019.12 145.244 2019.41 151.197 2016.04 157.045C2006.99 172.713 1988.26 178.591 1974.97 178.863C1974.33 178.876 1973.68 178.875 1973.02 178.859C1956.81 178.473 1936.97 169.293 1928.87 151.764C1928.3 150.539 1928.78 149.057 1929.93 148.455C1931.08 147.855 1932.48 148.358 1933.05 149.585C1940.62 165.966 1959.82 174.213 1974.88 173.919C1987 173.671 2004 168.427 2012.06 154.464C2014.68 149.925 2014.45 145.208 2014.19 139.744C2014.1 137.97 2014.01 136.136 2014.02 134.254C2014.03 132.446 2014.58 131.033 2015.65 130.05C2017.54 128.306 2020.27 128.692 2022.46 129.005C2023.2 129.111 2023.91 129.204 2024.39 129.203C2032 129.087 2037.57 125.428 2041.03 118.407C2041.09 118.236 2041.15 118.066 2041.25 117.903C2041.33 117.751 2041.43 117.604 2041.52 117.454C2041.53 117.42 2041.55 117.392 2041.57 117.356C2047.83 103.147 2044.04 81.4857 2036.47 71.6118C2029.49 62.5193 2014.53 55.3543 2003.37 59.1901C1999.19 60.6224 1995.89 57.5917 1993.23 55.1548C1992.45 54.4326 1991.7 53.7497 1991.01 53.2394C1986.01 49.5574 1978.11 48.3431 1970.9 50.1444C1965.46 51.5035 1957.93 55.1318 1952.95 64.6767C1957.43 73.9344 1956.43 85.3036 1953.73 93.6341C1953.76 93.8527 1953.77 94.0756 1953.75 94.3055C1952.52 104.58 1960.46 116.684 1970.74 120.211C1981.03 123.74 1995.52 120.188 1999.88 109.445C2001.55 105.321 2001.57 100.916 1999.95 96.7042C1997.81 91.1401 1993.01 86.2926 1987.13 83.7358C1984.17 82.4493 1978.22 81.0589 1974.85 82.8083C1973.78 83.3645 1973.14 84.1743 1972.83 85.3583C1972.56 86.3914 1972.67 87.3339 1973.17 88.2428C1974.09 89.9279 1976.32 91.4506 1978.84 92.1227C1980.09 92.4551 1980.85 93.7989 1980.53 95.123C1980.22 96.4459 1978.95 97.2535 1977.7 96.9189C1974.78 96.1385 1970.99 94.1045 1969.14 90.7319C1968.01 88.6711 1967.73 86.3571 1968.34 84.041C1969 81.5038 1970.54 79.5439 1972.8 78.3694C1977.94 75.6935 1985.58 77.7165 1988.9 79.1599C1995.92 82.2073 2001.66 88.066 2004.26 94.8314C2006.37 100.298 2006.33 106.025 2004.16 111.394C1999.97 121.747 1988.85 126.733 1978.27 126.48C1975.17 126.406 1972.12 125.883 1969.3 124.915C1959.7 121.623 1952.03 112.358 1949.7 102.487C1943.09 113.635 1931.49 122.701 1918.32 126.562C1907.87 129.624 1888.59 129.742 1881.37 117.013C1879.92 114.471 1879.71 111.824 1879.53 109.489C1879.4 107.847 1879.28 106.296 1878.74 105.025C1878.13 103.595 1877.7 103.497 1875.5 103.211C1875.04 103.151 1874.56 103.09 1874.06 103.006C1867.13 101.854 1861.67 97.1614 1859.07 90.1285C1856.1 82.0902 1857.43 72.5366 1862.45 65.7902C1867.75 58.6702 1876.69 54.8706 1886.36 55.6348C1895.71 56.3706 1903.74 61.3335 1907.82 68.9118C1908.46 70.0963 1908.07 71.6075 1906.95 72.2843C1905.84 72.961 1904.41 72.5527 1903.77 71.3657C1900.46 65.2163 1893.82 61.1776 1886.01 60.5645C1878 59.9407 1870.38 63.1102 1866.11 68.8501C1862.09 74.2439 1861.04 81.887 1863.41 88.3224C1865.42 93.7557 1869.46 97.2362 1874.78 98.1202C1875.23 98.1947 1875.66 98.2501 1876.06 98.3027C1878.51 98.6184 1881.28 98.9779 1882.99 102.986C1883.87 105.036 1884.02 107.091 1884.18 109.079C1884.34 111.132 1884.48 112.907 1885.36 114.458C1890.95 124.295 1907.27 124.669 1917.08 121.794C1931.72 117.504 1944.21 106.292 1948.91 93.2317C1951.61 85.747 1952.99 73.9825 1948.02 65.4629C1944.62 59.623 1937.56 50.124 1928.53 52.1113L1928.52 52.1123C1927.27 52.3917 1926.03 51.5301 1925.77 50.1946C1925.63 49.5076 1925.78 48.8274 1926.13 48.2899C1926.35 45.9194 1925.21 36.745 1924.83 35.1632C1919.98 16.5769 1900.91 6.8812 1884.67 4.00855C1866.21 0.743076 1846.16 9.04739 1833.63 25.1693C1832.04 27.2048 1830.58 29.3682 1829.28 31.597C1825.08 38.7999 1822.66 46.7084 1822.29 54.4653C1821.94 61.7743 1823.95 67.189 1826.27 73.4585C1826.75 74.7575 1827.24 76.0869 1827.73 77.4718C1827.99 78.1201 1828.22 78.7884 1828.4 79.4744C1828.76 80.7599 1828.08 82.1124 1826.88 82.5217C1825.68 82.9335 1824.39 82.2524 1823.97 80.9885C1823.78 80.4173 1823.59 79.8541 1823.39 79.2966C1822.01 75.9699 1819.27 73.3725 1815.25 71.5624C1806.1 67.4404 1792.79 68.651 1786.12 72.3691C1774.34 78.923 1765.01 92.989 1763.92 105.814C1763.49 110.795 1765.18 113.5 1767.5 117.241C1768.44 118.741 1769.4 120.293 1770.31 122.136C1770.32 122.139 1770.32 122.143 1770.32 122.146C1770.92 123.355 1770.48 124.85 1769.34 125.484C1768.5 125.946 1767.53 125.824 1766.83 125.253C1764.99 125.24 1759.29 127.347 1758.09 128.081C1745.21 135.974 1735.58 151.786 1735.2 165.675C1734.93 175.414 1739.1 183.566 1747.26 189.249C1754.73 194.457 1763.65 197.351 1772.37 197.396C1776.14 197.416 1779.84 196.664 1783.75 195.868C1789.02 194.794 1794.47 193.686 1800.17 194.617C1808.77 196.028 1816.73 199.729 1824.43 203.307C1831.74 206.705 1839.3 210.216 1847.21 211.617C1851.89 212.446 1867.91 214.454 1877.75 205.512C1891.63 192.903 1894.43 169.819 1883.86 155.1C1876.8 145.266 1865.54 138.343 1853.73 136.577C1844.82 135.243 1836.02 137.379 1830.19 142.283C1822.98 148.347 1821.41 159.082 1826.69 166.214C1828.33 168.428 1830.52 170.118 1832.85 170.97C1837.57 172.697 1843.24 171.221 1847.79 170.034C1849.03 169.709 1850.3 170.517 1850.61 171.844C1850.92 173.17 1850.15 174.51 1848.9 174.836C1843.75 176.178 1837.34 177.848 1831.32 175.646C1828.11 174.469 1825.24 172.265 1823.03 169.269C1816.17 160.005 1818.08 146.162 1827.29 138.411C1834.1 132.681 1844.22 130.16 1854.38 131.681C1867.38 133.625 1879.79 141.26 1887.57 152.106C1896.22 164.155 1897.21 180.524 1891.39 194.204C1901.7 191.489 1914.6 197.071 1920.54 203.756C1930.17 214.606 1940.88 225.252 1956.51 225.899C1956.66 225.906 1956.8 225.911 1956.95 225.914C1967.78 226.173 1976.78 219.224 1985.48 212.502C1986.32 211.853 1987.16 211.209 1987.99 210.572C1993.86 206.095 2006.47 199.32 2016.56 202.339C2021.08 203.694 2024.48 206.968 2026.39 211.806C2026.89 213.066 2026.33 214.514 2025.14 215.041C2023.95 215.57 2022.59 214.975 2022.09 213.715C2020.71 210.219 2018.49 208.055 2015.29 207.098C2010.94 205.798 2005.14 206.978 1999.7 209.341C1999.7 209.525 1999.69 209.712 1999.65 209.9C1999.05 212.88 2005.32 217.999 2009.84 219.996C2015.03 222.286 2021.59 223.125 2028.32 222.362C2037.33 221.339 2047.31 216.437 2049.09 205.823C2048.28 205.465 2047.48 205.087 2046.7 204.666C2039.28 200.672 2033.74 194.019 2031.5 186.409C2029.57 179.828 2030.23 173.06 2033.41 166.835C2036.08 161.615 2040.62 158.351 2045.85 157.88C2050.7 157.446 2055.35 159.421 2058.03 163.034C2058.82 164.108 2058.64 165.662 2057.63 166.506C2056.62 167.35 2055.15 167.164 2054.36 166.09C2052.67 163.804 2049.48 162.507 2046.24 162.807C2044.1 162.999 2040.12 164.086 2037.51 169.191C2034.94 174.214 2034.4 179.658 2035.95 184.936C2037.81 191.278 2042.5 196.862 2048.81 200.254C2058.25 205.337 2069.92 205.188 2080.8 199.843C2087.17 196.719 2092.19 191.337 2097.51 185.642C2100.82 182.093 2104.25 178.423 2108.01 175.381C2111.95 172.202 2118.02 167.965 2125.3 167.872C2132.4 167.755 2137.74 171.787 2142.92 175.662C2147.85 179.344 2152.49 182.821 2158.28 182.476C2159.76 182.392 2161.25 182.048 2162.79 181.641Z"/>
</mask>
<path d="M2162.79 181.641C2156.69 178.777 2153.4 174.419 2151.3 170.981C2149.88 168.635 2148.95 166.127 2148.04 163.7C2146.37 159.193 2144.92 155.3 2140.73 153.399C2132.99 149.885 2122.8 152.62 2116.06 154.431C2105.18 157.349 2096.42 155.654 2091.05 149.694C2090.19 150.783 2089.3 151.839 2088.42 152.88C2085.04 156.868 2081.85 160.634 2081.24 165.695C2081.14 166.454 2081.34 167.233 2081.7 167.504C2082.75 168.298 2082.99 169.84 2082.25 170.952C2081.78 171.645 2081.04 172.006 2080.29 171.988C2079.84 171.977 2079.39 171.827 2078.99 171.528C2077.21 170.177 2076.29 167.702 2076.61 165.07C2077.41 158.476 2081.24 153.951 2084.95 149.573C2087.75 146.277 2090.39 143.162 2091.62 139.33C2093.38 133.858 2092.16 127.63 2088.29 122.242C2080.91 111.983 2065.17 105.692 2053.48 112.677C2050.92 114.208 2047.4 117 2045.53 119.989C2041.32 129.102 2034.05 134.001 2024.46 134.147C2023.63 134.158 2022.72 134.03 2021.83 133.905C2020.91 133.774 2019.21 133.532 2018.71 133.781C2018.72 133.808 2018.69 133.969 2018.68 134.284C2018.67 136.021 2018.76 137.782 2018.84 139.485C2019.12 145.244 2019.41 151.197 2016.04 157.045C2006.99 172.713 1988.26 178.591 1974.97 178.863C1974.33 178.876 1973.68 178.875 1973.02 178.859C1956.81 178.473 1936.97 169.293 1928.87 151.764C1928.3 150.539 1928.78 149.057 1929.93 148.455C1931.08 147.855 1932.48 148.358 1933.05 149.585C1940.62 165.966 1959.82 174.213 1974.88 173.919C1987 173.671 2004 168.427 2012.06 154.464C2014.68 149.925 2014.45 145.208 2014.19 139.744C2014.1 137.97 2014.01 136.136 2014.02 134.254C2014.03 132.446 2014.58 131.033 2015.65 130.05C2017.54 128.306 2020.27 128.692 2022.46 129.005C2023.2 129.111 2023.91 129.204 2024.39 129.203C2032 129.087 2037.57 125.428 2041.03 118.407C2041.09 118.236 2041.15 118.066 2041.25 117.903C2041.33 117.751 2041.43 117.604 2041.52 117.454C2041.53 117.42 2041.55 117.392 2041.57 117.356C2047.83 103.147 2044.04 81.4857 2036.47 71.6118C2029.49 62.5193 2014.53 55.3543 2003.37 59.1901C1999.19 60.6224 1995.89 57.5917 1993.23 55.1548C1992.45 54.4326 1991.7 53.7497 1991.01 53.2394C1986.01 49.5574 1978.11 48.3431 1970.9 50.1444C1965.46 51.5035 1957.93 55.1318 1952.95 64.6767C1957.43 73.9344 1956.43 85.3036 1953.73 93.6341C1953.76 93.8527 1953.77 94.0756 1953.75 94.3055C1952.52 104.58 1960.46 116.684 1970.74 120.211C1981.03 123.74 1995.52 120.188 1999.88 109.445C2001.55 105.321 2001.57 100.916 1999.95 96.7042C1997.81 91.1401 1993.01 86.2926 1987.13 83.7358C1984.17 82.4493 1978.22 81.0589 1974.85 82.8083C1973.78 83.3645 1973.14 84.1743 1972.83 85.3583C1972.56 86.3914 1972.67 87.3339 1973.17 88.2428C1974.09 89.9279 1976.32 91.4506 1978.84 92.1227C1980.09 92.4551 1980.85 93.7989 1980.53 95.123C1980.22 96.4459 1978.95 97.2535 1977.7 96.9189C1974.78 96.1385 1970.99 94.1045 1969.14 90.7319C1968.01 88.6711 1967.73 86.3571 1968.34 84.041C1969 81.5038 1970.54 79.5439 1972.8 78.3694C1977.94 75.6935 1985.58 77.7165 1988.9 79.1599C1995.92 82.2073 2001.66 88.066 2004.26 94.8314C2006.37 100.298 2006.33 106.025 2004.16 111.394C1999.97 121.747 1988.85 126.733 1978.27 126.48C1975.17 126.406 1972.12 125.883 1969.3 124.915C1959.7 121.623 1952.03 112.358 1949.7 102.487C1943.09 113.635 1931.49 122.701 1918.32 126.562C1907.87 129.624 1888.59 129.742 1881.37 117.013C1879.92 114.471 1879.71 111.824 1879.53 109.489C1879.4 107.847 1879.28 106.296 1878.74 105.025C1878.13 103.595 1877.7 103.497 1875.5 103.211C1875.04 103.151 1874.56 103.09 1874.06 103.006C1867.13 101.854 1861.67 97.1614 1859.07 90.1285C1856.1 82.0902 1857.43 72.5366 1862.45 65.7902C1867.75 58.6702 1876.69 54.8706 1886.36 55.6348C1895.71 56.3706 1903.74 61.3335 1907.82 68.9118C1908.46 70.0963 1908.07 71.6075 1906.95 72.2843C1905.84 72.961 1904.41 72.5527 1903.77 71.3657C1900.46 65.2163 1893.82 61.1776 1886.01 60.5645C1878 59.9407 1870.38 63.1102 1866.11 68.8501C1862.09 74.2439 1861.04 81.887 1863.41 88.3224C1865.42 93.7557 1869.46 97.2362 1874.78 98.1202C1875.23 98.1947 1875.66 98.2501 1876.06 98.3027C1878.51 98.6184 1881.28 98.9779 1882.99 102.986C1883.87 105.036 1884.02 107.091 1884.18 109.079C1884.34 111.132 1884.48 112.907 1885.36 114.458C1890.95 124.295 1907.27 124.669 1917.08 121.794C1931.72 117.504 1944.21 106.292 1948.91 93.2317C1951.61 85.747 1952.99 73.9825 1948.02 65.4629C1944.62 59.623 1937.56 50.124 1928.53 52.1113L1928.52 52.1123C1927.27 52.3917 1926.03 51.5301 1925.77 50.1946C1925.63 49.5076 1925.78 48.8274 1926.13 48.2899C1926.35 45.9194 1925.21 36.745 1924.83 35.1632C1919.98 16.5769 1900.91 6.8812 1884.67 4.00855C1866.21 0.743076 1846.16 9.04739 1833.63 25.1693C1832.04 27.2048 1830.58 29.3682 1829.28 31.597C1825.08 38.7999 1822.66 46.7084 1822.29 54.4653C1821.94 61.7743 1823.95 67.189 1826.27 73.4585C1826.75 74.7575 1827.24 76.0869 1827.73 77.4718C1827.99 78.1201 1828.22 78.7884 1828.4 79.4744C1828.76 80.7599 1828.08 82.1124 1826.88 82.5217C1825.68 82.9335 1824.39 82.2524 1823.97 80.9885C1823.78 80.4173 1823.59 79.8541 1823.39 79.2966C1822.01 75.9699 1819.27 73.3725 1815.25 71.5624C1806.1 67.4404 1792.79 68.651 1786.12 72.3691C1774.34 78.923 1765.01 92.989 1763.92 105.814C1763.49 110.795 1765.18 113.5 1767.5 117.241C1768.44 118.741 1769.4 120.293 1770.31 122.136C1770.32 122.139 1770.32 122.143 1770.32 122.146C1770.92 123.355 1770.48 124.85 1769.34 125.484C1768.5 125.946 1767.53 125.824 1766.83 125.253C1764.99 125.24 1759.29 127.347 1758.09 128.081C1745.21 135.974 1735.58 151.786 1735.2 165.675C1734.93 175.414 1739.1 183.566 1747.26 189.249C1754.73 194.457 1763.65 197.351 1772.37 197.396C1776.14 197.416 1779.84 196.664 1783.75 195.868C1789.02 194.794 1794.47 193.686 1800.17 194.617C1808.77 196.028 1816.73 199.729 1824.43 203.307C1831.74 206.705 1839.3 210.216 1847.21 211.617C1851.89 212.446 1867.91 214.454 1877.75 205.512C1891.63 192.903 1894.43 169.819 1883.86 155.1C1876.8 145.266 1865.54 138.343 1853.73 136.577C1844.82 135.243 1836.02 137.379 1830.19 142.283C1822.98 148.347 1821.41 159.082 1826.69 166.214C1828.33 168.428 1830.52 170.118 1832.85 170.97C1837.57 172.697 1843.24 171.221 1847.79 170.034C1849.03 169.709 1850.3 170.517 1850.61 171.844C1850.92 173.17 1850.15 174.51 1848.9 174.836C1843.75 176.178 1837.34 177.848 1831.32 175.646C1828.11 174.469 1825.24 172.265 1823.03 169.269C1816.17 160.005 1818.08 146.162 1827.29 138.411C1834.1 132.681 1844.22 130.16 1854.38 131.681C1867.38 133.625 1879.79 141.26 1887.57 152.106C1896.22 164.155 1897.21 180.524 1891.39 194.204C1901.7 191.489 1914.6 197.071 1920.54 203.756C1930.17 214.606 1940.88 225.252 1956.51 225.899C1956.66 225.906 1956.8 225.911 1956.95 225.914C1967.78 226.173 1976.78 219.224 1985.48 212.502C1986.32 211.853 1987.16 211.209 1987.99 210.572C1993.86 206.095 2006.47 199.32 2016.56 202.339C2021.08 203.694 2024.48 206.968 2026.39 211.806C2026.89 213.066 2026.33 214.514 2025.14 215.041C2023.95 215.57 2022.59 214.975 2022.09 213.715C2020.71 210.219 2018.49 208.055 2015.29 207.098C2010.94 205.798 2005.14 206.978 1999.7 209.341C1999.7 209.525 1999.69 209.712 1999.65 209.9C1999.05 212.88 2005.32 217.999 2009.84 219.996C2015.03 222.286 2021.59 223.125 2028.32 222.362C2037.33 221.339 2047.31 216.437 2049.09 205.823C2048.28 205.465 2047.48 205.087 2046.7 204.666C2039.28 200.672 2033.74 194.019 2031.5 186.409C2029.57 179.828 2030.23 173.06 2033.41 166.835C2036.08 161.615 2040.62 158.351 2045.85 157.88C2050.7 157.446 2055.35 159.421 2058.03 163.034C2058.82 164.108 2058.64 165.662 2057.63 166.506C2056.62 167.35 2055.15 167.164 2054.36 166.09C2052.67 163.804 2049.48 162.507 2046.24 162.807C2044.1 162.999 2040.12 164.086 2037.51 169.191C2034.94 174.214 2034.4 179.658 2035.95 184.936C2037.81 191.278 2042.5 196.862 2048.81 200.254C2058.25 205.337 2069.92 205.188 2080.8 199.843C2087.17 196.719 2092.19 191.337 2097.51 185.642C2100.82 182.093 2104.25 178.423 2108.01 175.381C2111.95 172.202 2118.02 167.965 2125.3 167.872C2132.4 167.755 2137.74 171.787 2142.92 175.662C2147.85 179.344 2152.49 182.821 2158.28 182.476C2159.76 182.392 2161.25 182.048 2162.79 181.641Z" fill="white"/>
<path d="M2162.79 181.641C2156.69 178.777 2153.4 174.419 2151.3 170.981C2149.88 168.635 2148.95 166.127 2148.04 163.7C2146.37 159.193 2144.92 155.3 2140.73 153.399C2132.99 149.885 2122.8 152.62 2116.06 154.431C2105.18 157.349 2096.42 155.654 2091.05 149.694C2090.19 150.783 2089.3 151.839 2088.42 152.88C2085.04 156.868 2081.85 160.634 2081.24 165.695C2081.14 166.454 2081.34 167.233 2081.7 167.504C2082.75 168.298 2082.99 169.84 2082.25 170.952C2081.78 171.645 2081.04 172.006 2080.29 171.988C2079.84 171.977 2079.39 171.827 2078.99 171.528C2077.21 170.177 2076.29 167.702 2076.61 165.07C2077.41 158.476 2081.24 153.951 2084.95 149.573C2087.75 146.277 2090.39 143.162 2091.62 139.33C2093.38 133.858 2092.16 127.63 2088.29 122.242C2080.91 111.983 2065.17 105.692 2053.48 112.677C2050.92 114.208 2047.4 117 2045.53 119.989C2041.32 129.102 2034.05 134.001 2024.46 134.147C2023.63 134.158 2022.72 134.03 2021.83 133.905C2020.91 133.774 2019.21 133.532 2018.71 133.781C2018.72 133.808 2018.69 133.969 2018.68 134.284C2018.67 136.021 2018.76 137.782 2018.84 139.485C2019.12 145.244 2019.41 151.197 2016.04 157.045C2006.99 172.713 1988.26 178.591 1974.97 178.863C1974.33 178.876 1973.68 178.875 1973.02 178.859C1956.81 178.473 1936.97 169.293 1928.87 151.764C1928.3 150.539 1928.78 149.057 1929.93 148.455C1931.08 147.855 1932.48 148.358 1933.05 149.585C1940.62 165.966 1959.82 174.213 1974.88 173.919C1987 173.671 2004 168.427 2012.06 154.464C2014.68 149.925 2014.45 145.208 2014.19 139.744C2014.1 137.97 2014.01 136.136 2014.02 134.254C2014.03 132.446 2014.58 131.033 2015.65 130.05C2017.54 128.306 2020.27 128.692 2022.46 129.005C2023.2 129.111 2023.91 129.204 2024.39 129.203C2032 129.087 2037.57 125.428 2041.03 118.407C2041.09 118.236 2041.15 118.066 2041.25 117.903C2041.33 117.751 2041.43 117.604 2041.52 117.454C2041.53 117.42 2041.55 117.392 2041.57 117.356C2047.83 103.147 2044.04 81.4857 2036.47 71.6118C2029.49 62.5193 2014.53 55.3543 2003.37 59.1901C1999.19 60.6224 1995.89 57.5917 1993.23 55.1548C1992.45 54.4326 1991.7 53.7497 1991.01 53.2394C1986.01 49.5574 1978.11 48.3431 1970.9 50.1444C1965.46 51.5035 1957.93 55.1318 1952.95 64.6767C1957.43 73.9344 1956.43 85.3036 1953.73 93.6341C1953.76 93.8527 1953.77 94.0756 1953.75 94.3055C1952.52 104.58 1960.46 116.684 1970.74 120.211C1981.03 123.74 1995.52 120.188 1999.88 109.445C2001.55 105.321 2001.57 100.916 1999.95 96.7042C1997.81 91.1401 1993.01 86.2926 1987.13 83.7358C1984.17 82.4493 1978.22 81.0589 1974.85 82.8083C1973.78 83.3645 1973.14 84.1743 1972.83 85.3583C1972.56 86.3914 1972.67 87.3339 1973.17 88.2428C1974.09 89.9279 1976.32 91.4506 1978.84 92.1227C1980.09 92.4551 1980.85 93.7989 1980.53 95.123C1980.22 96.4459 1978.95 97.2535 1977.7 96.9189C1974.78 96.1385 1970.99 94.1045 1969.14 90.7319C1968.01 88.6711 1967.73 86.3571 1968.34 84.041C1969 81.5038 1970.54 79.5439 1972.8 78.3694C1977.94 75.6935 1985.58 77.7165 1988.9 79.1599C1995.92 82.2073 2001.66 88.066 2004.26 94.8314C2006.37 100.298 2006.33 106.025 2004.16 111.394C1999.97 121.747 1988.85 126.733 1978.27 126.48C1975.17 126.406 1972.12 125.883 1969.3 124.915C1959.7 121.623 1952.03 112.358 1949.7 102.487C1943.09 113.635 1931.49 122.701 1918.32 126.562C1907.87 129.624 1888.59 129.742 1881.37 117.013C1879.92 114.471 1879.71 111.824 1879.53 109.489C1879.4 107.847 1879.28 106.296 1878.74 105.025C1878.13 103.595 1877.7 103.497 1875.5 103.211C1875.04 103.151 1874.56 103.09 1874.06 103.006C1867.13 101.854 1861.67 97.1614 1859.07 90.1285C1856.1 82.0902 1857.43 72.5366 1862.45 65.7902C1867.75 58.6702 1876.69 54.8706 1886.36 55.6348C1895.71 56.3706 1903.74 61.3335 1907.82 68.9118C1908.46 70.0963 1908.07 71.6075 1906.95 72.2843C1905.84 72.961 1904.41 72.5527 1903.77 71.3657C1900.46 65.2163 1893.82 61.1776 1886.01 60.5645C1878 59.9407 1870.38 63.1102 1866.11 68.8501C1862.09 74.2439 1861.04 81.887 1863.41 88.3224C1865.42 93.7557 1869.46 97.2362 1874.78 98.1202C1875.23 98.1947 1875.66 98.2501 1876.06 98.3027C1878.51 98.6184 1881.28 98.9779 1882.99 102.986C1883.87 105.036 1884.02 107.091 1884.18 109.079C1884.34 111.132 1884.48 112.907 1885.36 114.458C1890.95 124.295 1907.27 124.669 1917.08 121.794C1931.72 117.504 1944.21 106.292 1948.91 93.2317C1951.61 85.747 1952.99 73.9825 1948.02 65.4629C1944.62 59.623 1937.56 50.124 1928.53 52.1113L1928.52 52.1123C1927.27 52.3917 1926.03 51.5301 1925.77 50.1946C1925.63 49.5076 1925.78 48.8274 1926.13 48.2899C1926.35 45.9194 1925.21 36.745 1924.83 35.1632C1919.98 16.5769 1900.91 6.8812 1884.67 4.00855C1866.21 0.743076 1846.16 9.04739 1833.63 25.1693C1832.04 27.2048 1830.58 29.3682 1829.28 31.597C1825.08 38.7999 1822.66 46.7084 1822.29 54.4653C1821.94 61.7743 1823.95 67.189 1826.27 73.4585C1826.75 74.7575 1827.24 76.0869 1827.73 77.4718C1827.99 78.1201 1828.22 78.7884 1828.4 79.4744C1828.76 80.7599 1828.08 82.1124 1826.88 82.5217C1825.68 82.9335 1824.39 82.2524 1823.97 80.9885C1823.78 80.4173 1823.59 79.8541 1823.39 79.2966C1822.01 75.9699 1819.27 73.3725 1815.25 71.5624C1806.1 67.4404 1792.79 68.651 1786.12 72.3691C1774.34 78.923 1765.01 92.989 1763.92 105.814C1763.49 110.795 1765.18 113.5 1767.5 117.241C1768.44 118.741 1769.4 120.293 1770.31 122.136C1770.32 122.139 1770.32 122.143 1770.32 122.146C1770.92 123.355 1770.48 124.85 1769.34 125.484C1768.5 125.946 1767.53 125.824 1766.83 125.253C1764.99 125.24 1759.29 127.347 1758.09 128.081C1745.21 135.974 1735.58 151.786 1735.2 165.675C1734.93 175.414 1739.1 183.566 1747.26 189.249C1754.73 194.457 1763.65 197.351 1772.37 197.396C1776.14 197.416 1779.84 196.664 1783.75 195.868C1789.02 194.794 1794.47 193.686 1800.17 194.617C1808.77 196.028 1816.73 199.729 1824.43 203.307C1831.74 206.705 1839.3 210.216 1847.21 211.617C1851.89 212.446 1867.91 214.454 1877.75 205.512C1891.63 192.903 1894.43 169.819 1883.86 155.1C1876.8 145.266 1865.54 138.343 1853.73 136.577C1844.82 135.243 1836.02 137.379 1830.19 142.283C1822.98 148.347 1821.41 159.082 1826.69 166.214C1828.33 168.428 1830.52 170.118 1832.85 170.97C1837.57 172.697 1843.24 171.221 1847.79 170.034C1849.03 169.709 1850.3 170.517 1850.61 171.844C1850.92 173.17 1850.15 174.51 1848.9 174.836C1843.75 176.178 1837.34 177.848 1831.32 175.646C1828.11 174.469 1825.24 172.265 1823.03 169.269C1816.17 160.005 1818.08 146.162 1827.29 138.411C1834.1 132.681 1844.22 130.16 1854.38 131.681C1867.38 133.625 1879.79 141.26 1887.57 152.106C1896.22 164.155 1897.21 180.524 1891.39 194.204C1901.7 191.489 1914.6 197.071 1920.54 203.756C1930.17 214.606 1940.88 225.252 1956.51 225.899C1956.66 225.906 1956.8 225.911 1956.95 225.914C1967.78 226.173 1976.78 219.224 1985.48 212.502C1986.32 211.853 1987.16 211.209 1987.99 210.572C1993.86 206.095 2006.47 199.32 2016.56 202.339C2021.08 203.694 2024.48 206.968 2026.39 211.806C2026.89 213.066 2026.33 214.514 2025.14 215.041C2023.95 215.57 2022.59 214.975 2022.09 213.715C2020.71 210.219 2018.49 208.055 2015.29 207.098C2010.94 205.798 2005.14 206.978 1999.7 209.341C1999.7 209.525 1999.69 209.712 1999.65 209.9C1999.05 212.88 2005.32 217.999 2009.84 219.996C2015.03 222.286 2021.59 223.125 2028.32 222.362C2037.33 221.339 2047.31 216.437 2049.09 205.823C2048.28 205.465 2047.48 205.087 2046.7 204.666C2039.28 200.672 2033.74 194.019 2031.5 186.409C2029.57 179.828 2030.23 173.06 2033.41 166.835C2036.08 161.615 2040.62 158.351 2045.85 157.88C2050.7 157.446 2055.35 159.421 2058.03 163.034C2058.82 164.108 2058.64 165.662 2057.63 166.506C2056.62 167.35 2055.15 167.164 2054.36 166.09C2052.67 163.804 2049.48 162.507 2046.24 162.807C2044.1 162.999 2040.12 164.086 2037.51 169.191C2034.94 174.214 2034.4 179.658 2035.95 184.936C2037.81 191.278 2042.5 196.862 2048.81 200.254C2058.25 205.337 2069.92 205.188 2080.8 199.843C2087.17 196.719 2092.19 191.337 2097.51 185.642C2100.82 182.093 2104.25 178.423 2108.01 175.381C2111.95 172.202 2118.02 167.965 2125.3 167.872C2132.4 167.755 2137.74 171.787 2142.92 175.662C2147.85 179.344 2152.49 182.821 2158.28 182.476C2159.76 182.392 2161.25 182.048 2162.79 181.641Z" stroke="#ECE1D6" stroke-width="6" mask="url(#path-7-outside-3_0_1)"/>
</svg>
