<svg width="1916" height="278" viewBox="0 0 1916 278" fill="none" xmlns="http://www.w3.org/2000/svg">
<mask id="path-1-outside-1_0_1" maskUnits="userSpaceOnUse" x="1536.76" y="-5.07134" width="532.638" height="280.634" fill="black">
<rect fill="white" x="1536.76" y="-5.07134" width="532.638" height="280.634"/>
<path d="M1550.48 213.765C1557.82 210.38 1561.79 205.232 1564.31 201.172C1566.03 198.401 1567.15 195.44 1568.24 192.573C1570.26 187.252 1572 182.654 1577.05 180.407C1586.36 176.253 1598.62 179.474 1606.72 181.607C1619.8 185.043 1630.35 183.035 1636.82 175.995C1637.85 177.279 1638.92 178.526 1639.98 179.753C1644.04 184.459 1647.88 188.903 1648.61 194.876C1648.72 195.773 1648.48 196.692 1648.05 197.013C1646.79 197.951 1646.49 199.772 1647.39 201.084C1647.95 201.901 1648.84 202.327 1649.74 202.305C1650.28 202.292 1650.83 202.115 1651.3 201.761C1653.45 200.165 1654.55 197.242 1654.18 194.135C1653.22 186.351 1648.61 181.012 1644.15 175.847C1640.79 171.958 1637.61 168.283 1636.14 163.76C1634.03 157.301 1635.49 149.948 1640.16 143.585C1649.04 131.467 1667.99 124.029 1682.04 132.265C1685.12 134.071 1689.35 137.365 1691.6 140.891C1696.66 151.647 1705.4 157.424 1716.94 157.589C1717.93 157.601 1719.04 157.45 1720.1 157.301C1721.21 157.146 1723.25 156.858 1723.85 157.152C1723.84 157.184 1723.89 157.374 1723.89 157.746C1723.9 159.797 1723.8 161.876 1723.7 163.887C1723.35 170.685 1723 177.713 1727.06 184.614C1737.93 203.104 1760.46 210.028 1776.45 210.339C1777.22 210.354 1778.01 210.352 1778.79 210.333C1798.29 209.864 1822.18 199.012 1831.93 178.311C1832.62 176.865 1832.04 175.115 1830.65 174.406C1829.27 173.699 1827.58 174.294 1826.9 175.743C1817.78 195.087 1794.68 204.838 1776.56 204.503C1761.98 204.219 1741.53 198.041 1731.84 181.565C1728.69 176.208 1728.97 170.638 1729.29 164.188C1729.4 162.094 1729.51 159.928 1729.5 157.707C1729.48 155.573 1728.83 153.904 1727.54 152.745C1725.27 150.688 1721.99 151.146 1719.35 151.517C1718.46 151.643 1717.6 151.753 1717.02 151.752C1707.88 151.621 1701.17 147.306 1697.01 139.02C1696.95 138.818 1696.87 138.617 1696.76 138.426C1696.65 138.246 1696.54 138.072 1696.43 137.896C1696.41 137.855 1696.39 137.822 1696.37 137.78C1688.85 121.01 1693.42 95.4353 1702.54 83.7729C1710.93 73.0334 1728.95 64.5632 1742.37 69.0828C1747.39 70.7704 1751.37 67.1899 1754.56 64.311C1755.51 63.4578 1756.4 62.651 1757.24 62.048C1763.26 57.6974 1772.76 56.2577 1781.43 58.3786C1787.98 59.9788 1797.03 64.2563 1803.02 75.5206C1797.62 86.4531 1798.82 99.8741 1802.06 109.707C1802.03 109.965 1802.01 110.228 1802.04 110.499C1803.51 122.628 1793.95 136.923 1781.58 141.095C1769.2 145.269 1751.76 141.087 1746.53 128.407C1744.52 123.54 1744.5 118.341 1746.45 113.367C1749.04 106.797 1754.8 101.07 1761.88 98.0472C1765.45 96.5262 1772.61 94.8801 1776.66 96.9427C1777.95 97.5985 1778.72 98.554 1779.09 99.9514C1779.41 101.171 1779.28 102.284 1778.68 103.357C1777.57 105.347 1774.89 107.146 1771.85 107.942C1770.35 108.335 1769.44 109.922 1769.81 111.485C1770.19 113.047 1771.72 113.999 1773.22 113.603C1776.74 112.679 1781.3 110.275 1783.53 106.292C1784.89 103.859 1785.22 101.127 1784.5 98.3929C1783.7 95.3981 1781.85 93.0855 1779.13 91.7007C1772.95 88.5459 1763.75 90.94 1759.76 92.6465C1751.32 96.2497 1744.4 103.171 1741.26 111.159C1738.72 117.615 1738.77 124.375 1741.38 130.712C1746.42 142.931 1759.78 148.808 1772.52 148.501C1776.25 148.411 1779.92 147.792 1783.31 146.647C1794.86 142.753 1804.1 131.81 1806.9 120.154C1814.85 133.31 1828.8 144.003 1844.64 148.551C1857.21 152.158 1880.4 152.282 1889.11 137.25C1890.84 134.248 1891.09 131.122 1891.32 128.366C1891.47 126.428 1891.62 124.596 1892.27 123.095C1893 121.407 1893.53 121.29 1896.18 120.951C1896.72 120.881 1897.3 120.808 1897.91 120.708C1906.24 119.343 1912.82 113.799 1915.95 105.494C1919.52 96.0022 1917.94 84.7249 1911.9 76.7644C1905.53 68.3631 1894.78 63.8845 1883.14 64.7942C1871.89 65.6702 1862.23 71.5353 1857.31 80.485C1856.54 81.8839 1857.01 83.6676 1858.35 84.4657C1859.7 85.2637 1861.41 84.7805 1862.18 83.3788C1866.17 76.1165 1874.16 71.3435 1883.56 70.6137C1893.2 69.871 1902.36 73.6067 1907.5 80.3796C1912.32 86.7441 1913.59 95.7663 1910.72 103.365C1908.31 109.781 1903.45 113.893 1897.04 114.941C1896.5 115.029 1895.99 115.095 1895.5 115.157C1892.55 115.532 1889.22 115.958 1887.16 120.691C1886.1 123.112 1885.91 125.538 1885.72 127.885C1885.53 130.31 1885.36 132.404 1884.3 134.237C1877.57 145.854 1857.93 146.309 1846.14 142.922C1828.53 137.869 1813.5 124.643 1807.86 109.228C1804.62 100.394 1802.96 86.5064 1808.95 76.4449C1813.05 69.5479 1821.55 58.3285 1832.41 60.6675L1832.42 60.6687C1833.93 60.9976 1835.42 59.9794 1835.73 58.4026C1835.9 57.5915 1835.72 56.7886 1835.3 56.1543C1835.04 53.356 1836.41 42.5244 1836.88 40.6567C1842.72 18.7111 1865.67 7.25007 1885.21 3.84612C1907.42 -0.0233144 1931.53 9.7646 1946.6 28.7874C1948.5 31.1891 1950.26 33.742 1951.83 36.3721C1956.88 44.8721 1959.78 54.2065 1960.22 63.3636C1960.63 71.9919 1958.22 78.3857 1955.42 85.7888C1954.84 87.3228 1954.25 88.8926 1953.67 90.5279C1953.35 91.2935 1953.07 92.0826 1952.85 92.8925C1952.42 94.4105 1953.23 96.0066 1954.68 96.4889C1956.12 96.974 1957.68 96.1689 1958.18 94.6765C1958.41 94.002 1958.64 93.337 1958.88 92.6788C1960.55 88.7504 1963.84 85.6819 1968.67 83.5418C1979.69 78.6686 1995.7 80.0874 2003.73 84.4715C2017.89 92.1994 2029.11 108.798 2030.41 123.937C2030.92 129.817 2028.89 133.011 2026.09 137.43C2024.96 139.201 2023.8 141.035 2022.71 143.211C2022.7 143.215 2022.7 143.219 2022.7 143.223C2021.98 144.651 2022.51 146.415 2023.88 147.162C2024.88 147.707 2026.05 147.563 2026.89 146.888C2029.11 146.871 2035.97 149.354 2037.41 150.219C2052.9 159.528 2064.47 178.187 2064.92 194.583C2065.24 206.08 2060.21 215.707 2050.4 222.423C2041.4 228.577 2030.67 232 2020.18 232.06C2015.64 232.086 2011.19 231.201 2006.49 230.265C2000.15 229.001 1993.59 227.697 1986.74 228.801C1976.38 230.474 1966.8 234.848 1957.54 239.079C1948.74 243.096 1939.65 247.247 1930.13 248.907C1924.5 249.889 1905.23 252.272 1893.39 241.723C1876.71 226.849 1873.36 199.599 1886.08 182.215C1894.57 170.6 1908.13 162.418 1922.34 160.324C1933.06 158.743 1943.65 161.257 1950.66 167.042C1959.32 174.195 1961.2 186.867 1954.84 195.291C1952.87 197.906 1950.24 199.903 1947.44 200.91C1941.76 202.953 1934.94 201.214 1929.46 199.817C1927.97 199.434 1926.44 200.389 1926.07 201.956C1925.7 203.522 1926.62 205.103 1928.12 205.487C1934.31 207.067 1942.03 209.033 1949.27 206.429C1953.13 205.037 1956.58 202.433 1959.25 198.895C1967.51 187.952 1965.22 171.612 1954.15 162.469C1945.96 155.709 1933.78 152.741 1921.55 154.545C1905.92 156.849 1890.98 165.874 1881.61 178.683C1871.2 192.915 1870 212.239 1876.99 228.384C1864.59 225.188 1849.07 231.788 1841.92 239.684C1830.32 252.5 1817.42 265.077 1798.62 265.853C1798.44 265.861 1798.27 265.867 1798.1 265.871C1785.07 266.185 1774.24 257.988 1763.77 250.059C1762.77 249.294 1761.76 248.535 1760.76 247.783C1753.71 242.502 1738.53 234.514 1726.4 238.086C1720.95 239.69 1716.86 243.557 1714.56 249.27C1713.96 250.758 1714.64 252.467 1716.06 253.087C1717.49 253.711 1719.14 253.008 1719.73 251.52C1721.39 247.392 1724.07 244.835 1727.92 243.703C1733.15 242.165 1740.14 243.553 1746.67 246.338C1746.67 246.556 1746.68 246.777 1746.73 246.999C1747.45 250.516 1739.9 256.564 1734.46 258.925C1728.23 261.632 1720.33 262.628 1712.23 261.733C1701.4 260.532 1689.39 254.754 1687.26 242.224C1688.23 241.801 1689.19 241.354 1690.13 240.856C1699.07 236.136 1705.73 228.277 1708.43 219.292C1710.76 211.521 1709.97 203.531 1706.14 196.185C1702.94 190.025 1697.48 186.175 1691.19 185.623C1685.36 185.115 1679.76 187.449 1676.54 191.717C1675.58 192.986 1675.79 194.821 1677.01 195.816C1678.23 196.811 1679.99 196.591 1680.95 195.322C1682.98 192.622 1686.82 191.088 1690.71 191.44C1693.29 191.665 1698.07 192.946 1701.21 198.97C1704.3 204.898 1704.94 211.325 1703.08 217.556C1700.83 225.045 1695.19 231.641 1687.6 235.65C1676.23 241.658 1662.2 241.491 1649.11 235.189C1641.46 231.506 1635.42 225.157 1629.02 218.438C1625.04 214.25 1620.92 209.921 1616.39 206.332C1611.66 202.583 1604.36 197.586 1595.6 197.481C1587.06 197.349 1580.63 202.113 1574.39 206.692C1568.46 211.041 1562.88 215.15 1555.91 214.748C1554.12 214.65 1552.34 214.244 1550.48 213.765Z"/>
</mask>
<path d="M1550.48 213.765C1557.82 210.38 1561.79 205.232 1564.31 201.172C1566.03 198.401 1567.15 195.44 1568.24 192.573C1570.26 187.252 1572 182.654 1577.05 180.407C1586.36 176.253 1598.62 179.474 1606.72 181.607C1619.8 185.043 1630.35 183.035 1636.82 175.995C1637.85 177.279 1638.92 178.526 1639.98 179.753C1644.04 184.459 1647.88 188.903 1648.61 194.876C1648.72 195.773 1648.48 196.692 1648.05 197.013C1646.79 197.951 1646.49 199.772 1647.39 201.084C1647.95 201.901 1648.84 202.327 1649.74 202.305C1650.28 202.292 1650.83 202.115 1651.3 201.761C1653.45 200.165 1654.55 197.242 1654.18 194.135C1653.22 186.351 1648.61 181.012 1644.15 175.847C1640.79 171.958 1637.61 168.283 1636.14 163.76C1634.03 157.301 1635.49 149.948 1640.16 143.585C1649.04 131.467 1667.99 124.029 1682.04 132.265C1685.12 134.071 1689.35 137.365 1691.6 140.891C1696.66 151.647 1705.4 157.424 1716.94 157.589C1717.93 157.601 1719.04 157.45 1720.1 157.301C1721.21 157.146 1723.25 156.858 1723.85 157.152C1723.84 157.184 1723.89 157.374 1723.89 157.746C1723.9 159.797 1723.8 161.876 1723.7 163.887C1723.35 170.685 1723 177.713 1727.06 184.614C1737.93 203.104 1760.46 210.028 1776.45 210.339C1777.22 210.354 1778.01 210.352 1778.79 210.333C1798.29 209.864 1822.18 199.012 1831.93 178.311C1832.62 176.865 1832.04 175.115 1830.65 174.406C1829.27 173.699 1827.58 174.294 1826.9 175.743C1817.78 195.087 1794.68 204.838 1776.56 204.503C1761.98 204.219 1741.53 198.041 1731.84 181.565C1728.69 176.208 1728.97 170.638 1729.29 164.188C1729.4 162.094 1729.51 159.928 1729.5 157.707C1729.48 155.573 1728.83 153.904 1727.54 152.745C1725.27 150.688 1721.99 151.146 1719.35 151.517C1718.46 151.643 1717.6 151.753 1717.02 151.752C1707.88 151.621 1701.17 147.306 1697.01 139.02C1696.95 138.818 1696.87 138.617 1696.76 138.426C1696.65 138.246 1696.54 138.072 1696.43 137.896C1696.41 137.855 1696.39 137.822 1696.37 137.78C1688.85 121.01 1693.42 95.4353 1702.54 83.7729C1710.93 73.0334 1728.95 64.5632 1742.37 69.0828C1747.39 70.7704 1751.37 67.1899 1754.56 64.311C1755.51 63.4578 1756.4 62.651 1757.24 62.048C1763.26 57.6974 1772.76 56.2577 1781.43 58.3786C1787.98 59.9788 1797.03 64.2563 1803.02 75.5206C1797.62 86.4531 1798.82 99.8741 1802.06 109.707C1802.03 109.965 1802.01 110.228 1802.04 110.499C1803.51 122.628 1793.95 136.923 1781.58 141.095C1769.2 145.269 1751.76 141.087 1746.53 128.407C1744.52 123.54 1744.5 118.341 1746.45 113.367C1749.04 106.797 1754.8 101.07 1761.88 98.0472C1765.45 96.5262 1772.61 94.8801 1776.66 96.9427C1777.95 97.5985 1778.72 98.554 1779.09 99.9514C1779.41 101.171 1779.28 102.284 1778.68 103.357C1777.57 105.347 1774.89 107.146 1771.85 107.942C1770.35 108.335 1769.44 109.922 1769.81 111.485C1770.19 113.047 1771.72 113.999 1773.22 113.603C1776.74 112.679 1781.3 110.275 1783.53 106.292C1784.89 103.859 1785.22 101.127 1784.5 98.3929C1783.7 95.3981 1781.85 93.0855 1779.13 91.7007C1772.95 88.5459 1763.75 90.94 1759.76 92.6465C1751.32 96.2497 1744.4 103.171 1741.26 111.159C1738.72 117.615 1738.77 124.375 1741.38 130.712C1746.42 142.931 1759.78 148.808 1772.52 148.501C1776.25 148.411 1779.92 147.792 1783.31 146.647C1794.86 142.753 1804.1 131.81 1806.9 120.154C1814.85 133.31 1828.8 144.003 1844.64 148.551C1857.21 152.158 1880.4 152.282 1889.11 137.25C1890.84 134.248 1891.09 131.122 1891.32 128.366C1891.47 126.428 1891.62 124.596 1892.27 123.095C1893 121.407 1893.53 121.29 1896.18 120.951C1896.72 120.881 1897.3 120.808 1897.91 120.708C1906.24 119.343 1912.82 113.799 1915.95 105.494C1919.52 96.0022 1917.94 84.7249 1911.9 76.7644C1905.53 68.3631 1894.78 63.8845 1883.14 64.7942C1871.89 65.6702 1862.23 71.5353 1857.31 80.485C1856.54 81.8839 1857.01 83.6676 1858.35 84.4657C1859.7 85.2637 1861.41 84.7805 1862.18 83.3788C1866.17 76.1165 1874.16 71.3435 1883.56 70.6137C1893.2 69.871 1902.36 73.6067 1907.5 80.3796C1912.32 86.7441 1913.59 95.7663 1910.72 103.365C1908.31 109.781 1903.45 113.893 1897.04 114.941C1896.5 115.029 1895.99 115.095 1895.5 115.157C1892.55 115.532 1889.22 115.958 1887.16 120.691C1886.1 123.112 1885.91 125.538 1885.72 127.885C1885.53 130.31 1885.36 132.404 1884.3 134.237C1877.57 145.854 1857.93 146.309 1846.14 142.922C1828.53 137.869 1813.5 124.643 1807.86 109.228C1804.62 100.394 1802.96 86.5064 1808.95 76.4449C1813.05 69.5479 1821.55 58.3285 1832.41 60.6675L1832.42 60.6687C1833.93 60.9976 1835.42 59.9794 1835.73 58.4026C1835.9 57.5915 1835.72 56.7886 1835.3 56.1543C1835.04 53.356 1836.41 42.5244 1836.88 40.6567C1842.72 18.7111 1865.67 7.25007 1885.21 3.84612C1907.42 -0.0233144 1931.53 9.7646 1946.6 28.7874C1948.5 31.1891 1950.26 33.742 1951.83 36.3721C1956.88 44.8721 1959.78 54.2065 1960.22 63.3636C1960.63 71.9919 1958.22 78.3857 1955.42 85.7888C1954.84 87.3228 1954.25 88.8926 1953.67 90.5279C1953.35 91.2935 1953.07 92.0826 1952.85 92.8925C1952.42 94.4105 1953.23 96.0066 1954.68 96.4889C1956.12 96.974 1957.68 96.1689 1958.18 94.6765C1958.41 94.002 1958.64 93.337 1958.88 92.6788C1960.55 88.7504 1963.84 85.6819 1968.67 83.5418C1979.69 78.6686 1995.7 80.0874 2003.73 84.4715C2017.89 92.1994 2029.11 108.798 2030.41 123.937C2030.92 129.817 2028.89 133.011 2026.09 137.43C2024.96 139.201 2023.8 141.035 2022.71 143.211C2022.7 143.215 2022.7 143.219 2022.7 143.223C2021.98 144.651 2022.51 146.415 2023.88 147.162C2024.88 147.707 2026.05 147.563 2026.89 146.888C2029.11 146.871 2035.97 149.354 2037.41 150.219C2052.9 159.528 2064.47 178.187 2064.92 194.583C2065.24 206.08 2060.21 215.707 2050.4 222.423C2041.4 228.577 2030.67 232 2020.18 232.06C2015.64 232.086 2011.19 231.201 2006.49 230.265C2000.15 229.001 1993.59 227.697 1986.74 228.801C1976.38 230.474 1966.8 234.848 1957.54 239.079C1948.74 243.096 1939.65 247.247 1930.13 248.907C1924.5 249.889 1905.23 252.272 1893.39 241.723C1876.71 226.849 1873.36 199.599 1886.08 182.215C1894.57 170.6 1908.13 162.418 1922.34 160.324C1933.06 158.743 1943.65 161.257 1950.66 167.042C1959.32 174.195 1961.2 186.867 1954.84 195.291C1952.87 197.906 1950.24 199.903 1947.44 200.91C1941.76 202.953 1934.94 201.214 1929.46 199.817C1927.97 199.434 1926.44 200.389 1926.07 201.956C1925.7 203.522 1926.62 205.103 1928.12 205.487C1934.31 207.067 1942.03 209.033 1949.27 206.429C1953.13 205.037 1956.58 202.433 1959.25 198.895C1967.51 187.952 1965.22 171.612 1954.15 162.469C1945.96 155.709 1933.78 152.741 1921.55 154.545C1905.92 156.849 1890.98 165.874 1881.61 178.683C1871.2 192.915 1870 212.239 1876.99 228.384C1864.59 225.188 1849.07 231.788 1841.92 239.684C1830.32 252.5 1817.42 265.077 1798.62 265.853C1798.44 265.861 1798.27 265.867 1798.1 265.871C1785.07 266.185 1774.24 257.988 1763.77 250.059C1762.77 249.294 1761.76 248.535 1760.76 247.783C1753.71 242.502 1738.53 234.514 1726.4 238.086C1720.95 239.69 1716.86 243.557 1714.56 249.27C1713.96 250.758 1714.64 252.467 1716.06 253.087C1717.49 253.711 1719.14 253.008 1719.73 251.52C1721.39 247.392 1724.07 244.835 1727.92 243.703C1733.15 242.165 1740.14 243.553 1746.67 246.338C1746.67 246.556 1746.68 246.777 1746.73 246.999C1747.45 250.516 1739.9 256.564 1734.46 258.925C1728.23 261.632 1720.33 262.628 1712.23 261.733C1701.4 260.532 1689.39 254.754 1687.26 242.224C1688.23 241.801 1689.19 241.354 1690.13 240.856C1699.07 236.136 1705.73 228.277 1708.43 219.292C1710.76 211.521 1709.97 203.531 1706.14 196.185C1702.94 190.025 1697.48 186.175 1691.19 185.623C1685.36 185.115 1679.76 187.449 1676.54 191.717C1675.58 192.986 1675.79 194.821 1677.01 195.816C1678.23 196.811 1679.99 196.591 1680.95 195.322C1682.98 192.622 1686.82 191.088 1690.71 191.44C1693.29 191.665 1698.07 192.946 1701.21 198.97C1704.3 204.898 1704.94 211.325 1703.08 217.556C1700.83 225.045 1695.19 231.641 1687.6 235.65C1676.23 241.658 1662.2 241.491 1649.11 235.189C1641.46 231.506 1635.42 225.157 1629.02 218.438C1625.04 214.25 1620.92 209.921 1616.39 206.332C1611.66 202.583 1604.36 197.586 1595.6 197.481C1587.06 197.349 1580.63 202.113 1574.39 206.692C1568.46 211.041 1562.88 215.15 1555.91 214.748C1554.12 214.65 1552.34 214.244 1550.48 213.765Z" fill="white"/>
<path d="M1550.48 213.765C1557.82 210.38 1561.79 205.232 1564.31 201.172C1566.03 198.401 1567.15 195.44 1568.24 192.573C1570.26 187.252 1572 182.654 1577.05 180.407C1586.36 176.253 1598.62 179.474 1606.72 181.607C1619.8 185.043 1630.35 183.035 1636.82 175.995C1637.85 177.279 1638.92 178.526 1639.98 179.753C1644.04 184.459 1647.88 188.903 1648.61 194.876C1648.72 195.773 1648.48 196.692 1648.05 197.013C1646.79 197.951 1646.49 199.772 1647.39 201.084C1647.95 201.901 1648.84 202.327 1649.74 202.305C1650.28 202.292 1650.83 202.115 1651.3 201.761C1653.45 200.165 1654.55 197.242 1654.18 194.135C1653.22 186.351 1648.61 181.012 1644.15 175.847C1640.79 171.958 1637.61 168.283 1636.14 163.76C1634.03 157.301 1635.49 149.948 1640.16 143.585C1649.04 131.467 1667.99 124.029 1682.04 132.265C1685.12 134.071 1689.35 137.365 1691.6 140.891C1696.66 151.647 1705.4 157.424 1716.94 157.589C1717.93 157.601 1719.04 157.45 1720.1 157.301C1721.21 157.146 1723.25 156.858 1723.85 157.152C1723.84 157.184 1723.89 157.374 1723.89 157.746C1723.9 159.797 1723.8 161.876 1723.7 163.887C1723.35 170.685 1723 177.713 1727.06 184.614C1737.93 203.104 1760.46 210.028 1776.45 210.339C1777.22 210.354 1778.01 210.352 1778.79 210.333C1798.29 209.864 1822.18 199.012 1831.93 178.311C1832.62 176.865 1832.04 175.115 1830.65 174.406C1829.27 173.699 1827.58 174.294 1826.9 175.743C1817.78 195.087 1794.68 204.838 1776.56 204.503C1761.98 204.219 1741.53 198.041 1731.84 181.565C1728.69 176.208 1728.97 170.638 1729.29 164.188C1729.4 162.094 1729.51 159.928 1729.5 157.707C1729.48 155.573 1728.83 153.904 1727.54 152.745C1725.27 150.688 1721.99 151.146 1719.35 151.517C1718.46 151.643 1717.6 151.753 1717.02 151.752C1707.88 151.621 1701.17 147.306 1697.01 139.02C1696.95 138.818 1696.87 138.617 1696.76 138.426C1696.65 138.246 1696.54 138.072 1696.43 137.896C1696.41 137.855 1696.39 137.822 1696.37 137.78C1688.85 121.01 1693.42 95.4353 1702.54 83.7729C1710.93 73.0334 1728.95 64.5632 1742.37 69.0828C1747.39 70.7704 1751.37 67.1899 1754.56 64.311C1755.51 63.4578 1756.4 62.651 1757.24 62.048C1763.26 57.6974 1772.76 56.2577 1781.43 58.3786C1787.98 59.9788 1797.03 64.2563 1803.02 75.5206C1797.62 86.4531 1798.82 99.8741 1802.06 109.707C1802.03 109.965 1802.01 110.228 1802.04 110.499C1803.51 122.628 1793.95 136.923 1781.58 141.095C1769.2 145.269 1751.76 141.087 1746.53 128.407C1744.52 123.54 1744.5 118.341 1746.45 113.367C1749.04 106.797 1754.8 101.07 1761.88 98.0472C1765.45 96.5262 1772.61 94.8801 1776.66 96.9427C1777.95 97.5985 1778.72 98.554 1779.09 99.9514C1779.41 101.171 1779.28 102.284 1778.68 103.357C1777.57 105.347 1774.89 107.146 1771.85 107.942C1770.35 108.335 1769.44 109.922 1769.81 111.485C1770.19 113.047 1771.72 113.999 1773.22 113.603C1776.74 112.679 1781.3 110.275 1783.53 106.292C1784.89 103.859 1785.22 101.127 1784.5 98.3929C1783.7 95.3981 1781.85 93.0855 1779.13 91.7007C1772.95 88.5459 1763.75 90.94 1759.76 92.6465C1751.32 96.2497 1744.4 103.171 1741.26 111.159C1738.72 117.615 1738.77 124.375 1741.38 130.712C1746.42 142.931 1759.78 148.808 1772.52 148.501C1776.25 148.411 1779.92 147.792 1783.31 146.647C1794.86 142.753 1804.1 131.81 1806.9 120.154C1814.85 133.31 1828.8 144.003 1844.64 148.551C1857.21 152.158 1880.4 152.282 1889.11 137.25C1890.84 134.248 1891.09 131.122 1891.32 128.366C1891.47 126.428 1891.62 124.596 1892.27 123.095C1893 121.407 1893.53 121.29 1896.18 120.951C1896.72 120.881 1897.3 120.808 1897.91 120.708C1906.24 119.343 1912.82 113.799 1915.95 105.494C1919.52 96.0022 1917.94 84.7249 1911.9 76.7644C1905.53 68.3631 1894.78 63.8845 1883.14 64.7942C1871.89 65.6702 1862.23 71.5353 1857.31 80.485C1856.54 81.8839 1857.01 83.6676 1858.35 84.4657C1859.7 85.2637 1861.41 84.7805 1862.18 83.3788C1866.17 76.1165 1874.16 71.3435 1883.56 70.6137C1893.2 69.871 1902.36 73.6067 1907.5 80.3796C1912.32 86.7441 1913.59 95.7663 1910.72 103.365C1908.31 109.781 1903.45 113.893 1897.04 114.941C1896.5 115.029 1895.99 115.095 1895.5 115.157C1892.55 115.532 1889.22 115.958 1887.16 120.691C1886.1 123.112 1885.91 125.538 1885.72 127.885C1885.53 130.31 1885.36 132.404 1884.3 134.237C1877.57 145.854 1857.93 146.309 1846.14 142.922C1828.53 137.869 1813.5 124.643 1807.86 109.228C1804.62 100.394 1802.96 86.5064 1808.95 76.4449C1813.05 69.5479 1821.55 58.3285 1832.41 60.6675L1832.42 60.6687C1833.93 60.9976 1835.42 59.9794 1835.73 58.4026C1835.9 57.5915 1835.72 56.7886 1835.3 56.1543C1835.04 53.356 1836.41 42.5244 1836.88 40.6567C1842.72 18.7111 1865.67 7.25007 1885.21 3.84612C1907.42 -0.0233144 1931.53 9.7646 1946.6 28.7874C1948.5 31.1891 1950.26 33.742 1951.83 36.3721C1956.88 44.8721 1959.78 54.2065 1960.22 63.3636C1960.63 71.9919 1958.22 78.3857 1955.42 85.7888C1954.84 87.3228 1954.25 88.8926 1953.67 90.5279C1953.35 91.2935 1953.07 92.0826 1952.85 92.8925C1952.42 94.4105 1953.23 96.0066 1954.68 96.4889C1956.12 96.974 1957.68 96.1689 1958.18 94.6765C1958.41 94.002 1958.64 93.337 1958.88 92.6788C1960.55 88.7504 1963.84 85.6819 1968.67 83.5418C1979.69 78.6686 1995.7 80.0874 2003.73 84.4715C2017.89 92.1994 2029.11 108.798 2030.41 123.937C2030.92 129.817 2028.89 133.011 2026.09 137.43C2024.96 139.201 2023.8 141.035 2022.71 143.211C2022.7 143.215 2022.7 143.219 2022.7 143.223C2021.98 144.651 2022.51 146.415 2023.88 147.162C2024.88 147.707 2026.05 147.563 2026.89 146.888C2029.11 146.871 2035.97 149.354 2037.41 150.219C2052.9 159.528 2064.47 178.187 2064.92 194.583C2065.24 206.08 2060.21 215.707 2050.4 222.423C2041.4 228.577 2030.67 232 2020.18 232.06C2015.64 232.086 2011.19 231.201 2006.49 230.265C2000.15 229.001 1993.59 227.697 1986.74 228.801C1976.38 230.474 1966.8 234.848 1957.54 239.079C1948.74 243.096 1939.65 247.247 1930.13 248.907C1924.5 249.889 1905.23 252.272 1893.39 241.723C1876.71 226.849 1873.36 199.599 1886.08 182.215C1894.57 170.6 1908.13 162.418 1922.34 160.324C1933.06 158.743 1943.65 161.257 1950.66 167.042C1959.32 174.195 1961.2 186.867 1954.84 195.291C1952.87 197.906 1950.24 199.903 1947.44 200.91C1941.76 202.953 1934.94 201.214 1929.46 199.817C1927.97 199.434 1926.44 200.389 1926.07 201.956C1925.7 203.522 1926.62 205.103 1928.12 205.487C1934.31 207.067 1942.03 209.033 1949.27 206.429C1953.13 205.037 1956.58 202.433 1959.25 198.895C1967.51 187.952 1965.22 171.612 1954.15 162.469C1945.96 155.709 1933.78 152.741 1921.55 154.545C1905.92 156.849 1890.98 165.874 1881.61 178.683C1871.2 192.915 1870 212.239 1876.99 228.384C1864.59 225.188 1849.07 231.788 1841.92 239.684C1830.32 252.5 1817.42 265.077 1798.62 265.853C1798.44 265.861 1798.27 265.867 1798.1 265.871C1785.07 266.185 1774.24 257.988 1763.77 250.059C1762.77 249.294 1761.76 248.535 1760.76 247.783C1753.71 242.502 1738.53 234.514 1726.4 238.086C1720.95 239.69 1716.86 243.557 1714.56 249.27C1713.96 250.758 1714.64 252.467 1716.06 253.087C1717.49 253.711 1719.14 253.008 1719.73 251.52C1721.39 247.392 1724.07 244.835 1727.92 243.703C1733.15 242.165 1740.14 243.553 1746.67 246.338C1746.67 246.556 1746.68 246.777 1746.73 246.999C1747.45 250.516 1739.9 256.564 1734.46 258.925C1728.23 261.632 1720.33 262.628 1712.23 261.733C1701.4 260.532 1689.39 254.754 1687.26 242.224C1688.23 241.801 1689.19 241.354 1690.13 240.856C1699.07 236.136 1705.73 228.277 1708.43 219.292C1710.76 211.521 1709.97 203.531 1706.14 196.185C1702.94 190.025 1697.48 186.175 1691.19 185.623C1685.36 185.115 1679.76 187.449 1676.54 191.717C1675.58 192.986 1675.79 194.821 1677.01 195.816C1678.23 196.811 1679.99 196.591 1680.95 195.322C1682.98 192.622 1686.82 191.088 1690.71 191.44C1693.29 191.665 1698.07 192.946 1701.21 198.97C1704.3 204.898 1704.94 211.325 1703.08 217.556C1700.83 225.045 1695.19 231.641 1687.6 235.65C1676.23 241.658 1662.2 241.491 1649.11 235.189C1641.46 231.506 1635.42 225.157 1629.02 218.438C1625.04 214.25 1620.92 209.921 1616.39 206.332C1611.66 202.583 1604.36 197.586 1595.6 197.481C1587.06 197.349 1580.63 202.113 1574.39 206.692C1568.46 211.041 1562.88 215.15 1555.91 214.748C1554.12 214.65 1552.34 214.244 1550.48 213.765Z" stroke="#ECE1D6" stroke-width="6" mask="url(#path-1-outside-1_0_1)"/>
<mask id="path-2-outside-2_0_1" maskUnits="userSpaceOnUse" x="-362.496" y="15.6621" width="480.982" height="269.431" fill="black">
<rect fill="white" x="-362.496" y="15.6621" width="480.982" height="269.431"/>
<path d="M-336.373 154.352C-343.318 151.781 -350.789 152.629 -358.068 153.613C-355.534 152.578 -353.092 151.416 -350.7 150.279C-349.649 149.779 -348.599 149.28 -347.545 148.793C-338.212 144.484 -329.037 140.866 -319.445 143.812C-308.202 147.265 -298.141 155.904 -290.633 163.044C-290.359 163.305 -290.14 163.615 -289.912 163.915C-289.465 164.503 -288.906 165.235 -288.127 165.886C-274.055 177.687 -246.227 190.007 -227.28 175.602C-221.119 170.92 -216.77 164.605 -213.177 159.052C-202.318 142.262 -189.345 127.538 -168.184 133.387C-167.681 133.527 -167.161 133.753 -166.559 134.014C-165.862 134.318 -165.163 134.614 -164.419 134.847C-164.12 134.941 -163.728 135.082 -163.289 135.238C-160.587 136.201 -158.524 136.856 -156.782 136.579C-155.607 136.392 -154.627 135.621 -154.203 134.557C-152.853 131.172 -156.022 128.581 -157.726 127.188C-158.002 126.963 -158.253 126.766 -158.422 126.599C-159.474 125.555 -160.619 124.743 -161.729 123.957C-163.013 123.046 -164.226 122.184 -164.94 121.169C-172.548 110.342 -172.986 99.5015 -166.208 89.8189C-155.775 74.9157 -129.926 65.7009 -109.757 69.7089C-99.9491 71.6545 -87.5865 77.4567 -84.3979 94.0419L-82.0535 106.234C-81.7229 107.97 -80.0062 109.131 -78.1734 108.812C-76.3619 108.502 -75.1483 106.848 -75.4595 105.107C-77.326 94.6627 -79.442 82.8252 -76.0124 72.2955C-73.8274 65.5912 -69.2059 58.8961 -61.8824 51.8289C-35.5465 26.4137 4.98426 15.2694 41.3509 23.4362C58.4537 27.2775 72.5784 35.6466 85.8019 49.7754C94.3137 58.8696 104.594 71.163 108.562 85.6344C114.33 106.658 105.714 130.827 87.1206 145.776C69.7205 159.765 44.8161 165.377 20.5057 160.783C13.5841 159.477 7.31357 157.412 1.81834 154.714C-1.27131 152.281 -4.69923 150.058 -8.4759 148.122C-9.24838 147.478 -10.0188 146.831 -10.7306 146.149C-26.5107 131.017 -24.8326 106.325 -14.2296 92.1264C-4.86178 79.5846 9.38138 76.5791 24.8484 83.8732C29.6657 86.1439 35.3645 91.1153 36.4928 96.6586C37.0799 99.5539 36.2835 102.127 34.0517 104.526C32.82 105.85 32.9418 107.881 34.3218 109.061C35.6998 110.239 37.8149 110.124 39.0507 108.8C42.6656 104.912 44.0549 100.288 43.068 95.4275C41.4966 87.694 34.271 81.1575 27.8057 78.1095C9.37208 69.4209 -8.37802 73.2616 -19.6743 88.3888C-30.2116 102.498 -33.0007 125.654 -21.7948 142.988C-32.2517 140.136 -44.5713 139.257 -58.8117 141.33C-73.5397 143.473 -93.0455 152.347 -99.5503 170.308C-106.532 189.576 -94.044 209.339 -78.7457 218.15C-68.6601 223.959 -54.6386 225.068 -44.645 220.858C-37.0293 217.647 -32.1194 211.81 -30.4471 203.976C-27.8485 191.796 -35.6436 179.492 -47.4675 177.106C-53.9926 175.79 -60.0629 176.818 -63.7081 179.853C-65.6482 181.469 -67.8856 184.462 -67.5305 189.547C-67.3104 192.695 -65.3441 195.773 -62.4028 197.583C-59.6939 199.248 -56.557 199.631 -53.7909 198.625C-52.0609 197.996 -51.188 196.142 -51.8446 194.484C-52.4992 192.825 -54.4361 191.994 -56.1621 192.619C-57.2461 193.014 -58.3561 192.441 -58.7836 192.177C-59.9587 191.455 -60.7679 190.252 -60.8492 189.113C-60.9876 187.119 -60.4873 185.676 -59.3172 184.702C-57.3067 183.027 -53.2045 182.511 -48.8515 183.392C-39.6987 185.236 -35.3413 194.861 -37.0106 202.692C-38.2441 208.475 -41.7196 212.609 -47.34 214.978C-55.4634 218.405 -66.9639 217.443 -75.2943 212.645C-88.3322 205.134 -99.0462 188.482 -93.2234 172.412C-87.6978 157.156 -70.695 149.554 -57.8124 147.68C-38.9309 144.933 -23.7855 147.775 -12.2149 153.545C-9.20046 155.97 -5.78482 158.108 -2.07814 159.995C4.58875 165.321 9.43127 171.718 12.486 178.211C21.9628 198.35 17.1229 226.356 2.61167 246.384C2.32215 246.482 2.03833 246.605 1.77644 246.785C0.8956 247.387 0.423387 248.322 0.384375 249.284C-3.18872 253.723 -7.25869 257.702 -11.7843 261.01C-31.3817 275.33 -64.146 279.282 -84.8339 269.817C-99.3256 263.185 -111.557 250.798 -119.571 234.727C-115.915 233.558 -112.616 231.962 -109.782 229.962C-102.749 225 -98.4724 217.256 -98.6224 209.751C-98.657 207.978 -100.187 206.569 -102.036 206.604C-102.04 206.604 -102.042 206.604 -102.047 206.604C-103.892 206.645 -105.356 208.109 -105.321 209.878C-105.212 215.33 -108.441 221.044 -113.752 224.791C-118.437 228.099 -124.819 230.077 -132.205 230.514C-148.072 231.464 -162.928 225.369 -179.045 211.382C-180.417 210.191 -182.535 210.292 -183.776 211.609C-185.017 212.924 -184.913 214.955 -183.541 216.145C-166.951 230.541 -150.709 237.383 -133.966 237.012C-133.244 236.996 -132.521 236.967 -131.798 236.925C-129.967 236.817 -128.195 236.606 -126.467 236.331C-123.795 246.875 -134.733 257.409 -142.101 262.221C-154.235 270.138 -171.256 271.798 -186.523 266.547C-200.624 261.7 -213.015 250.07 -221.471 233.787C-216.507 228.174 -214.568 220.759 -215.509 214.403C-216.721 206.201 -223.118 197.441 -237.429 197.446C-239.174 197.447 -245.303 197.837 -249.938 202.828C-253.752 206.933 -255.238 212.717 -254.355 220.017C-254.141 221.778 -252.441 223.039 -250.644 222.835C-248.806 222.63 -247.489 221.036 -247.703 219.273C-248.356 213.872 -247.425 209.776 -244.938 207.098C-242.725 204.718 -239.572 203.878 -237.43 203.868C-225.157 203.865 -222.649 211.867 -222.14 215.307C-221.015 222.915 -225.743 232.422 -235.604 235.166C-248.44 238.736 -269.082 234.812 -278.182 223.466C-280.319 220.802 -280.019 218.632 -279.564 215.348C-279.197 212.693 -278.778 209.682 -279.812 206.194C-282.337 197.656 -290.421 198.262 -295.235 198.62C-296.81 198.739 -298.266 198.769 -299.954 198.902C-301.14 198.994 -302.49 199.101 -303.229 198.907C-309.934 197.15 -311.741 191.015 -313.731 181.852C-314.252 179.449 -314.744 177.179 -315.416 175.036C-318.464 165.328 -325.516 158.37 -336.373 154.352Z"/>
</mask>
<path d="M-336.373 154.352C-343.318 151.781 -350.789 152.629 -358.068 153.613C-355.534 152.578 -353.092 151.416 -350.7 150.279C-349.649 149.779 -348.599 149.28 -347.545 148.793C-338.212 144.484 -329.037 140.866 -319.445 143.812C-308.202 147.265 -298.141 155.904 -290.633 163.044C-290.359 163.305 -290.14 163.615 -289.912 163.915C-289.465 164.503 -288.906 165.235 -288.127 165.886C-274.055 177.687 -246.227 190.007 -227.28 175.602C-221.119 170.92 -216.77 164.605 -213.177 159.052C-202.318 142.262 -189.345 127.538 -168.184 133.387C-167.681 133.527 -167.161 133.753 -166.559 134.014C-165.862 134.318 -165.163 134.614 -164.419 134.847C-164.12 134.941 -163.728 135.082 -163.289 135.238C-160.587 136.201 -158.524 136.856 -156.782 136.579C-155.607 136.392 -154.627 135.621 -154.203 134.557C-152.853 131.172 -156.022 128.581 -157.726 127.188C-158.002 126.963 -158.253 126.766 -158.422 126.599C-159.474 125.555 -160.619 124.743 -161.729 123.957C-163.013 123.046 -164.226 122.184 -164.94 121.169C-172.548 110.342 -172.986 99.5015 -166.208 89.8189C-155.775 74.9157 -129.926 65.7009 -109.757 69.7089C-99.9491 71.6545 -87.5865 77.4567 -84.3979 94.0419L-82.0535 106.234C-81.7229 107.97 -80.0062 109.131 -78.1734 108.812C-76.3619 108.502 -75.1483 106.848 -75.4595 105.107C-77.326 94.6627 -79.442 82.8252 -76.0124 72.2955C-73.8274 65.5912 -69.2059 58.8961 -61.8824 51.8289C-35.5465 26.4137 4.98426 15.2694 41.3509 23.4362C58.4537 27.2775 72.5784 35.6466 85.8019 49.7754C94.3137 58.8696 104.594 71.163 108.562 85.6344C114.33 106.658 105.714 130.827 87.1206 145.776C69.7205 159.765 44.8161 165.377 20.5057 160.783C13.5841 159.477 7.31357 157.412 1.81834 154.714C-1.27131 152.281 -4.69923 150.058 -8.4759 148.122C-9.24838 147.478 -10.0188 146.831 -10.7306 146.149C-26.5107 131.017 -24.8326 106.325 -14.2296 92.1264C-4.86178 79.5846 9.38138 76.5791 24.8484 83.8732C29.6657 86.1439 35.3645 91.1153 36.4928 96.6586C37.0799 99.5539 36.2835 102.127 34.0517 104.526C32.82 105.85 32.9418 107.881 34.3218 109.061C35.6998 110.239 37.8149 110.124 39.0507 108.8C42.6656 104.912 44.0549 100.288 43.068 95.4275C41.4966 87.694 34.271 81.1575 27.8057 78.1095C9.37208 69.4209 -8.37802 73.2616 -19.6743 88.3888C-30.2116 102.498 -33.0007 125.654 -21.7948 142.988C-32.2517 140.136 -44.5713 139.257 -58.8117 141.33C-73.5397 143.473 -93.0455 152.347 -99.5503 170.308C-106.532 189.576 -94.044 209.339 -78.7457 218.15C-68.6601 223.959 -54.6386 225.068 -44.645 220.858C-37.0293 217.647 -32.1194 211.81 -30.4471 203.976C-27.8485 191.796 -35.6436 179.492 -47.4675 177.106C-53.9926 175.79 -60.0629 176.818 -63.7081 179.853C-65.6482 181.469 -67.8856 184.462 -67.5305 189.547C-67.3104 192.695 -65.3441 195.773 -62.4028 197.583C-59.6939 199.248 -56.557 199.631 -53.7909 198.625C-52.0609 197.996 -51.188 196.142 -51.8446 194.484C-52.4992 192.825 -54.4361 191.994 -56.1621 192.619C-57.2461 193.014 -58.3561 192.441 -58.7836 192.177C-59.9587 191.455 -60.7679 190.252 -60.8492 189.113C-60.9876 187.119 -60.4873 185.676 -59.3172 184.702C-57.3067 183.027 -53.2045 182.511 -48.8515 183.392C-39.6987 185.236 -35.3413 194.861 -37.0106 202.692C-38.2441 208.475 -41.7196 212.609 -47.34 214.978C-55.4634 218.405 -66.9639 217.443 -75.2943 212.645C-88.3322 205.134 -99.0462 188.482 -93.2234 172.412C-87.6978 157.156 -70.695 149.554 -57.8124 147.68C-38.9309 144.933 -23.7855 147.775 -12.2149 153.545C-9.20046 155.97 -5.78482 158.108 -2.07814 159.995C4.58875 165.321 9.43127 171.718 12.486 178.211C21.9628 198.35 17.1229 226.356 2.61167 246.384C2.32215 246.482 2.03833 246.605 1.77644 246.785C0.8956 247.387 0.423387 248.322 0.384375 249.284C-3.18872 253.723 -7.25869 257.702 -11.7843 261.01C-31.3817 275.33 -64.146 279.282 -84.8339 269.817C-99.3256 263.185 -111.557 250.798 -119.571 234.727C-115.915 233.558 -112.616 231.962 -109.782 229.962C-102.749 225 -98.4724 217.256 -98.6224 209.751C-98.657 207.978 -100.187 206.569 -102.036 206.604C-102.04 206.604 -102.042 206.604 -102.047 206.604C-103.892 206.645 -105.356 208.109 -105.321 209.878C-105.212 215.33 -108.441 221.044 -113.752 224.791C-118.437 228.099 -124.819 230.077 -132.205 230.514C-148.072 231.464 -162.928 225.369 -179.045 211.382C-180.417 210.191 -182.535 210.292 -183.776 211.609C-185.017 212.924 -184.913 214.955 -183.541 216.145C-166.951 230.541 -150.709 237.383 -133.966 237.012C-133.244 236.996 -132.521 236.967 -131.798 236.925C-129.967 236.817 -128.195 236.606 -126.467 236.331C-123.795 246.875 -134.733 257.409 -142.101 262.221C-154.235 270.138 -171.256 271.798 -186.523 266.547C-200.624 261.7 -213.015 250.07 -221.471 233.787C-216.507 228.174 -214.568 220.759 -215.509 214.403C-216.721 206.201 -223.118 197.441 -237.429 197.446C-239.174 197.447 -245.303 197.837 -249.938 202.828C-253.752 206.933 -255.238 212.717 -254.355 220.017C-254.141 221.778 -252.441 223.039 -250.644 222.835C-248.806 222.63 -247.489 221.036 -247.703 219.273C-248.356 213.872 -247.425 209.776 -244.938 207.098C-242.725 204.718 -239.572 203.878 -237.43 203.868C-225.157 203.865 -222.649 211.867 -222.14 215.307C-221.015 222.915 -225.743 232.422 -235.604 235.166C-248.44 238.736 -269.082 234.812 -278.182 223.466C-280.319 220.802 -280.019 218.632 -279.564 215.348C-279.197 212.693 -278.778 209.682 -279.812 206.194C-282.337 197.656 -290.421 198.262 -295.235 198.62C-296.81 198.739 -298.266 198.769 -299.954 198.902C-301.14 198.994 -302.49 199.101 -303.229 198.907C-309.934 197.15 -311.741 191.015 -313.731 181.852C-314.252 179.449 -314.744 177.179 -315.416 175.036C-318.464 165.328 -325.516 158.37 -336.373 154.352Z" fill="white"/>
<path d="M-336.373 154.352C-343.318 151.781 -350.789 152.629 -358.068 153.613C-355.534 152.578 -353.092 151.416 -350.7 150.279C-349.649 149.779 -348.599 149.28 -347.545 148.793C-338.212 144.484 -329.037 140.866 -319.445 143.812C-308.202 147.265 -298.141 155.904 -290.633 163.044C-290.359 163.305 -290.14 163.615 -289.912 163.915C-289.465 164.503 -288.906 165.235 -288.127 165.886C-274.055 177.687 -246.227 190.007 -227.28 175.602C-221.119 170.92 -216.77 164.605 -213.177 159.052C-202.318 142.262 -189.345 127.538 -168.184 133.387C-167.681 133.527 -167.161 133.753 -166.559 134.014C-165.862 134.318 -165.163 134.614 -164.419 134.847C-164.12 134.941 -163.728 135.082 -163.289 135.238C-160.587 136.201 -158.524 136.856 -156.782 136.579C-155.607 136.392 -154.627 135.621 -154.203 134.557C-152.853 131.172 -156.022 128.581 -157.726 127.188C-158.002 126.963 -158.253 126.766 -158.422 126.599C-159.474 125.555 -160.619 124.743 -161.729 123.957C-163.013 123.046 -164.226 122.184 -164.94 121.169C-172.548 110.342 -172.986 99.5015 -166.208 89.8189C-155.775 74.9157 -129.926 65.7009 -109.757 69.7089C-99.9491 71.6545 -87.5865 77.4567 -84.3979 94.0419L-82.0535 106.234C-81.7229 107.97 -80.0062 109.131 -78.1734 108.812C-76.3619 108.502 -75.1483 106.848 -75.4595 105.107C-77.326 94.6627 -79.442 82.8252 -76.0124 72.2955C-73.8274 65.5912 -69.2059 58.8961 -61.8824 51.8289C-35.5465 26.4137 4.98426 15.2694 41.3509 23.4362C58.4537 27.2775 72.5784 35.6466 85.8019 49.7754C94.3137 58.8696 104.594 71.163 108.562 85.6344C114.33 106.658 105.714 130.827 87.1206 145.776C69.7205 159.765 44.8161 165.377 20.5057 160.783C13.5841 159.477 7.31357 157.412 1.81834 154.714C-1.27131 152.281 -4.69923 150.058 -8.4759 148.122C-9.24838 147.478 -10.0188 146.831 -10.7306 146.149C-26.5107 131.017 -24.8326 106.325 -14.2296 92.1264C-4.86178 79.5846 9.38138 76.5791 24.8484 83.8732C29.6657 86.1439 35.3645 91.1153 36.4928 96.6586C37.0799 99.5539 36.2835 102.127 34.0517 104.526C32.82 105.85 32.9418 107.881 34.3218 109.061C35.6998 110.239 37.8149 110.124 39.0507 108.8C42.6656 104.912 44.0549 100.288 43.068 95.4275C41.4966 87.694 34.271 81.1575 27.8057 78.1095C9.37208 69.4209 -8.37802 73.2616 -19.6743 88.3888C-30.2116 102.498 -33.0007 125.654 -21.7948 142.988C-32.2517 140.136 -44.5713 139.257 -58.8117 141.33C-73.5397 143.473 -93.0455 152.347 -99.5503 170.308C-106.532 189.576 -94.044 209.339 -78.7457 218.15C-68.6601 223.959 -54.6386 225.068 -44.645 220.858C-37.0293 217.647 -32.1194 211.81 -30.4471 203.976C-27.8485 191.796 -35.6436 179.492 -47.4675 177.106C-53.9926 175.79 -60.0629 176.818 -63.7081 179.853C-65.6482 181.469 -67.8856 184.462 -67.5305 189.547C-67.3104 192.695 -65.3441 195.773 -62.4028 197.583C-59.6939 199.248 -56.557 199.631 -53.7909 198.625C-52.0609 197.996 -51.188 196.142 -51.8446 194.484C-52.4992 192.825 -54.4361 191.994 -56.1621 192.619C-57.2461 193.014 -58.3561 192.441 -58.7836 192.177C-59.9587 191.455 -60.7679 190.252 -60.8492 189.113C-60.9876 187.119 -60.4873 185.676 -59.3172 184.702C-57.3067 183.027 -53.2045 182.511 -48.8515 183.392C-39.6987 185.236 -35.3413 194.861 -37.0106 202.692C-38.2441 208.475 -41.7196 212.609 -47.34 214.978C-55.4634 218.405 -66.9639 217.443 -75.2943 212.645C-88.3322 205.134 -99.0462 188.482 -93.2234 172.412C-87.6978 157.156 -70.695 149.554 -57.8124 147.68C-38.9309 144.933 -23.7855 147.775 -12.2149 153.545C-9.20046 155.97 -5.78482 158.108 -2.07814 159.995C4.58875 165.321 9.43127 171.718 12.486 178.211C21.9628 198.35 17.1229 226.356 2.61167 246.384C2.32215 246.482 2.03833 246.605 1.77644 246.785C0.8956 247.387 0.423387 248.322 0.384375 249.284C-3.18872 253.723 -7.25869 257.702 -11.7843 261.01C-31.3817 275.33 -64.146 279.282 -84.8339 269.817C-99.3256 263.185 -111.557 250.798 -119.571 234.727C-115.915 233.558 -112.616 231.962 -109.782 229.962C-102.749 225 -98.4724 217.256 -98.6224 209.751C-98.657 207.978 -100.187 206.569 -102.036 206.604C-102.04 206.604 -102.042 206.604 -102.047 206.604C-103.892 206.645 -105.356 208.109 -105.321 209.878C-105.212 215.33 -108.441 221.044 -113.752 224.791C-118.437 228.099 -124.819 230.077 -132.205 230.514C-148.072 231.464 -162.928 225.369 -179.045 211.382C-180.417 210.191 -182.535 210.292 -183.776 211.609C-185.017 212.924 -184.913 214.955 -183.541 216.145C-166.951 230.541 -150.709 237.383 -133.966 237.012C-133.244 236.996 -132.521 236.967 -131.798 236.925C-129.967 236.817 -128.195 236.606 -126.467 236.331C-123.795 246.875 -134.733 257.409 -142.101 262.221C-154.235 270.138 -171.256 271.798 -186.523 266.547C-200.624 261.7 -213.015 250.07 -221.471 233.787C-216.507 228.174 -214.568 220.759 -215.509 214.403C-216.721 206.201 -223.118 197.441 -237.429 197.446C-239.174 197.447 -245.303 197.837 -249.938 202.828C-253.752 206.933 -255.238 212.717 -254.355 220.017C-254.141 221.778 -252.441 223.039 -250.644 222.835C-248.806 222.63 -247.489 221.036 -247.703 219.273C-248.356 213.872 -247.425 209.776 -244.938 207.098C-242.725 204.718 -239.572 203.878 -237.43 203.868C-225.157 203.865 -222.649 211.867 -222.14 215.307C-221.015 222.915 -225.743 232.422 -235.604 235.166C-248.44 238.736 -269.082 234.812 -278.182 223.466C-280.319 220.802 -280.019 218.632 -279.564 215.348C-279.197 212.693 -278.778 209.682 -279.812 206.194C-282.337 197.656 -290.421 198.262 -295.235 198.62C-296.81 198.739 -298.266 198.769 -299.954 198.902C-301.14 198.994 -302.49 199.101 -303.229 198.907C-309.934 197.15 -311.741 191.015 -313.731 181.852C-314.252 179.449 -314.744 177.179 -315.416 175.036C-318.464 165.328 -325.516 158.37 -336.373 154.352Z" stroke="#ECE1D8" stroke-width="6" mask="url(#path-2-outside-2_0_1)"/>
<path d="M112.03 119.098C108.008 130.648 100.63 141.37 90.4856 149.525C71.9287 164.445 45.3923 170.503 19.4893 165.61L19.4883 165.61C17.2179 165.182 15.0253 164.648 12.8563 164.064L8.61336 162.92L11.2736 166.419C13.6864 169.591 15.6779 172.889 17.2371 176.202C27.4967 198.006 22.6927 227.528 7.09184 249.001L6.40681 249.943L7.15276 250.841C13.0468 257.933 20.9063 263.883 29.5427 266.603C38.2242 269.336 47.6788 268.793 56.5428 262.886C58.6658 261.473 60.7724 259.898 62.5009 258.468C64.1878 257.072 65.6367 255.714 66.3372 254.744L66.7298 254.201L66.5864 253.546C66.4671 253.002 66.6364 252.398 67.1265 251.967L67.1275 251.966C67.8895 251.296 69.0889 251.353 69.774 252.06L69.792 252.08C70.3756 252.691 70.9477 253.297 71.5121 253.9L73.1877 255.697C79.4463 262.425 85.0817 268.513 94.8384 272.088C104.14 275.497 115.075 276.333 124.869 274.396C140.162 271.37 148.394 264.087 159.414 254.377C160.103 253.77 160.8 253.156 161.508 252.536L163.665 250.653C166.264 248.4 169.086 245.539 172.015 242.572C173.887 240.677 175.855 238.687 177.931 236.682L176.162 234.289C165.476 240.187 154.699 246.082 143.124 247.967C139.853 248.5 136.583 248.798 133.347 248.869C118.575 249.196 104.6 244.804 94.6407 236.571L94.6407 236.57C93.8914 235.951 93.8186 234.906 94.4521 234.202L94.454 234.201C95.123 233.456 96.3216 233.366 97.1037 234.015L97.1057 234.017C108.543 243.469 125.507 247.359 142.491 244.595C152.198 243.013 161.678 238.239 170.702 233.313L174.541 231.201C187.913 223.821 201.196 216.562 215.831 216.981L215.869 216.982L215.907 216.981C218.257 216.929 220.678 217.077 223.183 217.479L223.184 217.478C223.538 217.536 223.85 217.69 224.107 217.909L224.376 218.137L224.718 218.222C226.225 218.597 227.722 219.025 229.231 219.568L229.878 219.808C236.446 222.317 242.463 225.895 248.406 229.432C259.412 235.985 270.283 242.488 284.167 241.429L284.168 241.429C291.778 240.847 297.418 238.29 301.918 234.052C306.37 229.858 309.618 224.099 312.627 217.279C313.879 214.442 315.567 210.63 318.062 207.106C320.555 203.587 323.781 200.462 328.056 198.899L332.672 197.211L327.895 196.034C327.676 195.98 327.463 195.927 327.252 195.873L327.248 195.872C324.158 195.087 321.169 194.853 317.331 195.047L317.329 195.047C314.985 195.168 312.915 196.03 310.84 196.88L310.841 196.88C309.941 197.249 309.07 197.605 308.174 197.922L308.173 197.922C305.635 198.821 303.402 199.832 301.301 200.782L301.3 200.782C295.887 203.229 291.051 205.411 283.347 205.003C278.437 204.742 273.51 204.311 269.073 202.299C259.827 198.106 254.182 190.534 248.488 182.85C244.061 176.878 239.705 170.977 233.583 166.861L233.582 166.861C219.2 157.197 198.817 157.333 184.933 167.191L184.199 167.712L184.315 168.604C184.748 171.962 184.822 175.328 184.442 178.652L184.36 179.316C183.091 188.918 177.906 198.011 170.13 204.236L169.471 204.746C162.545 209.963 152.047 213.008 141.594 213.239C135.268 213.379 129.046 212.483 123.745 210.48C114.15 206.854 108.366 199.922 107.208 190.987L107.14 190.415C105.89 178.459 114.591 170.054 123.583 167.312C133.811 164.19 143.58 168.036 148.621 177.062L148.621 177.063C149.035 177.804 148.814 178.751 148.034 179.252L147.871 179.347L147.693 179.427C146.793 179.781 145.766 179.413 145.335 178.638L145.335 178.637C140.277 169.578 131.285 168.564 124.734 170.563C117.367 172.81 109.756 179.821 110.823 190.084L110.881 190.575C111.915 198.537 116.838 204.171 125.15 207.312C131.751 209.806 139.875 210.379 147.547 209.365C155.21 208.353 162.615 205.732 167.718 201.65C174.795 195.986 179.528 187.708 180.691 178.911C181.945 169.423 179.359 159.704 174.81 151.162C170.26 142.618 163.69 135.142 156.805 130.113L156.293 129.744C145.476 122.058 130.303 118.025 113.438 118.093L112.379 118.098L112.03 119.098Z" fill="white" stroke="#ECE1D8" stroke-width="3"/>
</svg>
