<svg width="375" height="269" viewBox="0 0 375 269" fill="none" xmlns="http://www.w3.org/2000/svg">
<mask id="path-1-outside-1_936_86" maskUnits="userSpaceOnUse" x="-4.23905" y="-5.07134" width="532.638" height="280.634" fill="black">
<rect fill="white" x="-4.23905" y="-5.07134" width="532.638" height="280.634"/>
<path d="M9.48207 213.765C16.8207 210.38 20.7886 205.232 23.309 201.172C25.0278 198.401 26.1509 195.44 27.2379 192.573C29.2565 187.252 31.0002 182.654 36.0471 180.407C45.3607 176.253 57.6154 179.474 65.7213 181.607C78.805 185.043 89.3481 183.035 95.8177 175.995C96.8485 177.279 97.9153 178.526 98.9764 179.753C103.042 184.459 106.879 188.903 107.612 194.876C107.72 195.773 107.479 196.692 107.045 197.013C105.785 197.951 105.492 199.772 106.392 201.084C106.952 201.901 107.844 202.327 108.74 202.305C109.284 202.292 109.828 202.115 110.304 201.761C112.455 200.165 113.555 197.242 113.176 194.135C112.223 186.351 107.609 181.012 103.149 175.847C99.7886 171.958 96.6132 168.283 95.1365 163.76C93.0263 157.301 94.4909 149.948 99.1556 143.585C108.037 131.467 126.986 124.029 141.038 132.265C144.117 134.071 148.352 137.365 150.596 140.891C155.658 151.647 164.4 157.424 175.94 157.589C176.934 157.601 178.037 157.45 179.099 157.301C180.208 157.146 182.252 156.858 182.853 157.152C182.839 157.184 182.885 157.374 182.888 157.746C182.901 159.797 182.796 161.876 182.696 163.887C182.354 170.685 182 177.713 186.057 184.614C196.932 203.104 219.461 210.028 235.451 210.339C236.222 210.354 237.005 210.352 237.792 210.333C257.291 209.864 281.175 199.012 290.935 178.311C291.617 176.865 291.044 175.115 289.654 174.406C288.267 173.699 286.583 174.294 285.901 175.743C276.777 195.087 253.677 204.838 235.558 204.503C220.984 204.219 200.529 198.041 190.84 181.565C187.69 176.208 187.97 170.638 188.295 164.188C188.401 162.094 188.509 159.928 188.497 157.707C188.483 155.573 187.827 153.904 186.542 152.745C184.268 150.688 180.985 151.146 178.352 151.517C177.457 151.643 176.604 151.753 176.021 151.752C166.877 151.621 160.171 147.306 156.011 139.02C155.948 138.818 155.867 138.617 155.756 138.426C155.653 138.246 155.537 138.072 155.428 137.896C155.41 137.855 155.387 137.822 155.368 137.78C147.846 121.01 152.424 95.4353 161.538 83.7729C169.934 73.0334 187.945 64.5632 201.366 69.0828C206.391 70.7704 210.37 67.1899 213.564 64.311C214.511 63.4578 215.404 62.651 216.24 62.048C222.259 57.6974 231.762 56.2577 240.431 58.3786C246.981 59.9788 256.031 64.2563 262.018 75.5206C256.623 86.4531 257.823 99.8741 261.063 109.707C261.026 109.965 261.01 110.228 261.042 110.499C262.508 122.628 252.948 136.923 240.583 141.095C228.197 145.269 210.761 141.087 205.53 128.407C203.524 123.54 203.497 118.341 205.452 113.367C208.036 106.797 213.804 101.07 220.882 98.0472C224.447 96.5262 231.612 94.8801 235.662 96.9427C236.947 97.5985 237.719 98.554 238.091 99.9514C238.414 101.171 238.281 102.284 237.681 103.357C236.565 105.347 233.886 107.146 230.853 107.942C229.35 108.335 228.438 109.922 228.814 111.485C229.191 113.047 230.717 113.999 232.218 113.603C235.741 112.679 240.299 110.275 242.528 106.292C243.889 103.859 244.224 101.127 243.497 98.3929C242.701 95.3981 240.848 93.0855 238.135 91.7007C231.948 88.5459 222.754 90.94 218.758 92.6465C210.317 96.2497 203.403 103.171 200.263 111.159C197.725 117.615 197.766 124.375 200.377 130.712C205.416 142.931 218.782 148.808 231.518 148.501C235.246 148.411 238.917 147.792 242.312 146.647C253.863 142.753 263.096 131.81 265.899 120.154C273.846 133.31 287.799 144.003 303.639 148.551C316.215 152.158 339.399 152.282 348.105 137.25C349.844 134.248 350.095 131.122 350.315 128.366C350.471 126.428 350.618 124.596 351.27 123.095C352.004 121.407 352.526 121.29 355.175 120.951C355.723 120.881 356.299 120.808 356.907 120.708C365.242 119.343 371.816 113.799 374.946 105.494C378.523 96.0022 376.935 84.7249 370.899 76.7644C364.532 68.3631 353.778 63.8845 342.142 64.7942C330.887 65.6702 321.23 71.5353 316.311 80.485C315.544 81.8839 316.009 83.6676 317.353 84.4657C318.697 85.2637 320.411 84.7805 321.181 83.3788C325.172 76.1165 333.163 71.3435 342.557 70.6137C352.198 69.871 361.364 73.6067 366.495 80.3796C371.32 86.7441 372.589 95.7663 369.724 103.365C367.307 109.781 362.448 113.893 356.039 114.941C355.498 115.029 354.986 115.095 354.497 115.157C351.554 115.532 348.217 115.958 346.158 120.691C345.105 123.112 344.913 125.538 344.724 127.885C344.53 130.31 344.363 132.404 343.302 134.237C336.573 145.854 316.932 146.309 305.135 142.922C287.53 137.869 272.505 124.643 266.855 109.228C263.618 100.394 261.961 86.5064 267.946 76.4449C272.049 69.5479 280.55 58.3285 291.411 60.6675L291.417 60.6687C292.929 60.9976 294.418 59.9794 294.732 58.4026C294.896 57.5915 294.715 56.7886 294.298 56.1543C294.036 53.356 295.411 42.5244 295.876 40.6567C301.718 18.7111 324.673 7.25007 344.207 3.84612C366.423 -0.0233144 390.53 9.7646 405.603 28.7874C407.505 31.1891 409.263 33.742 410.826 36.3721C415.879 44.8721 418.782 54.2065 419.221 63.3636C419.633 71.9919 417.219 78.3857 414.422 85.7888C413.843 87.3228 413.251 88.8926 412.666 90.5279C412.348 91.2935 412.075 92.0826 411.848 92.8925C411.421 94.4105 412.233 96.0066 413.681 96.4889C415.121 96.974 416.681 96.1689 417.184 94.6765C417.413 94.002 417.644 93.337 417.879 92.6788C419.549 88.7504 422.836 85.6819 427.675 83.5418C438.692 78.6686 454.698 80.0874 462.728 84.4715C476.886 92.1994 488.109 108.798 489.41 123.937C489.917 129.817 487.891 133.011 485.089 137.43C483.964 139.201 482.802 141.035 481.705 143.211C481.701 143.215 481.7 143.219 481.698 143.223C480.978 144.651 481.508 146.415 482.879 147.162C483.879 147.707 485.052 147.563 485.892 146.888C488.11 146.871 494.967 149.354 496.408 150.219C511.901 159.528 523.473 178.187 523.922 194.583C524.236 206.08 519.214 215.707 509.398 222.423C500.401 228.577 489.669 232 479.181 232.06C474.637 232.086 470.194 231.201 465.494 230.265C459.15 229.001 452.592 227.697 445.739 228.801C435.382 230.474 425.802 234.848 416.538 239.079C407.744 243.096 398.653 247.247 389.126 248.907C383.504 249.889 364.225 252.272 352.391 241.723C335.705 226.849 332.355 199.599 345.076 182.215C353.573 170.6 367.129 162.418 381.338 160.324C392.056 158.743 402.65 161.257 409.658 167.042C418.323 174.195 420.201 186.867 413.844 195.291C411.87 197.906 409.239 199.903 406.437 200.91C400.756 202.953 393.936 201.214 388.458 199.817C386.967 199.434 385.437 200.389 385.066 201.956C384.696 203.522 385.616 205.103 387.12 205.487C393.313 207.067 401.027 209.033 408.266 206.429C412.132 205.037 415.584 202.433 418.254 198.895C426.511 187.952 424.219 171.612 413.145 162.469C404.958 155.709 392.779 152.741 380.554 154.545C364.916 156.849 349.984 165.874 340.611 178.683C330.198 192.915 328.996 212.239 335.985 228.384C323.589 225.188 308.066 231.788 300.919 239.684C289.32 252.5 276.422 265.077 257.618 265.853C257.444 265.861 257.27 265.867 257.097 265.871C244.066 266.185 233.244 257.988 222.774 250.059C221.767 249.294 220.762 248.535 219.758 247.783C212.705 242.502 197.533 234.514 185.396 238.086C179.952 239.69 175.859 243.557 173.561 249.27C172.963 250.758 173.635 252.467 175.064 253.087C176.494 253.711 178.136 253.008 178.734 251.52C180.394 247.392 183.071 244.835 186.92 243.703C192.152 242.165 199.135 243.553 205.675 246.338C205.67 246.556 205.684 246.777 205.73 246.999C206.449 250.516 198.902 256.564 193.462 258.925C187.225 261.632 179.333 262.628 171.232 261.733C160.399 260.532 148.394 254.754 146.259 242.224C147.229 241.801 148.191 241.354 149.133 240.856C158.067 236.136 164.734 228.277 167.428 219.292C169.759 211.521 168.969 203.531 165.145 196.185C161.935 190.025 156.483 186.175 150.185 185.623C144.356 185.115 138.757 187.449 135.537 191.717C134.579 192.986 134.791 194.821 136.009 195.816C137.228 196.811 138.989 196.591 139.947 195.322C141.985 192.622 145.823 191.088 149.711 191.44C152.286 191.665 157.074 192.946 160.213 198.97C163.299 204.898 163.944 211.325 162.077 217.556C159.832 225.045 154.19 231.641 146.599 235.65C135.233 241.658 121.203 241.491 108.108 235.189C100.455 231.506 94.4154 225.157 88.0218 218.438C84.0374 214.25 79.9185 209.921 75.3896 206.332C70.6602 202.583 63.3599 197.586 54.6024 197.481C46.0559 197.349 39.6266 202.113 33.3892 206.692C27.4649 211.041 21.8799 215.15 14.9104 214.748C13.123 214.65 11.3368 214.244 9.48207 213.765Z"/>
</mask>
<path d="M9.48207 213.765C16.8207 210.38 20.7886 205.232 23.309 201.172C25.0278 198.401 26.1509 195.44 27.2379 192.573C29.2565 187.252 31.0002 182.654 36.0471 180.407C45.3607 176.253 57.6154 179.474 65.7213 181.607C78.805 185.043 89.3481 183.035 95.8177 175.995C96.8485 177.279 97.9153 178.526 98.9764 179.753C103.042 184.459 106.879 188.903 107.612 194.876C107.72 195.773 107.479 196.692 107.045 197.013C105.785 197.951 105.492 199.772 106.392 201.084C106.952 201.901 107.844 202.327 108.74 202.305C109.284 202.292 109.828 202.115 110.304 201.761C112.455 200.165 113.555 197.242 113.176 194.135C112.223 186.351 107.609 181.012 103.149 175.847C99.7886 171.958 96.6132 168.283 95.1365 163.76C93.0263 157.301 94.4909 149.948 99.1556 143.585C108.037 131.467 126.986 124.029 141.038 132.265C144.117 134.071 148.352 137.365 150.596 140.891C155.658 151.647 164.4 157.424 175.94 157.589C176.934 157.601 178.037 157.45 179.099 157.301C180.208 157.146 182.252 156.858 182.853 157.152C182.839 157.184 182.885 157.374 182.888 157.746C182.901 159.797 182.796 161.876 182.696 163.887C182.354 170.685 182 177.713 186.057 184.614C196.932 203.104 219.461 210.028 235.451 210.339C236.222 210.354 237.005 210.352 237.792 210.333C257.291 209.864 281.175 199.012 290.935 178.311C291.617 176.865 291.044 175.115 289.654 174.406C288.267 173.699 286.583 174.294 285.901 175.743C276.777 195.087 253.677 204.838 235.558 204.503C220.984 204.219 200.529 198.041 190.84 181.565C187.69 176.208 187.97 170.638 188.295 164.188C188.401 162.094 188.509 159.928 188.497 157.707C188.483 155.573 187.827 153.904 186.542 152.745C184.268 150.688 180.985 151.146 178.352 151.517C177.457 151.643 176.604 151.753 176.021 151.752C166.877 151.621 160.171 147.306 156.011 139.02C155.948 138.818 155.867 138.617 155.756 138.426C155.653 138.246 155.537 138.072 155.428 137.896C155.41 137.855 155.387 137.822 155.368 137.78C147.846 121.01 152.424 95.4353 161.538 83.7729C169.934 73.0334 187.945 64.5632 201.366 69.0828C206.391 70.7704 210.37 67.1899 213.564 64.311C214.511 63.4578 215.404 62.651 216.24 62.048C222.259 57.6974 231.762 56.2577 240.431 58.3786C246.981 59.9788 256.031 64.2563 262.018 75.5206C256.623 86.4531 257.823 99.8741 261.063 109.707C261.026 109.965 261.01 110.228 261.042 110.499C262.508 122.628 252.948 136.923 240.583 141.095C228.197 145.269 210.761 141.087 205.53 128.407C203.524 123.54 203.497 118.341 205.452 113.367C208.036 106.797 213.804 101.07 220.882 98.0472C224.447 96.5262 231.612 94.8801 235.662 96.9427C236.947 97.5985 237.719 98.554 238.091 99.9514C238.414 101.171 238.281 102.284 237.681 103.357C236.565 105.347 233.886 107.146 230.853 107.942C229.35 108.335 228.438 109.922 228.814 111.485C229.191 113.047 230.717 113.999 232.218 113.603C235.741 112.679 240.299 110.275 242.528 106.292C243.889 103.859 244.224 101.127 243.497 98.3929C242.701 95.3981 240.848 93.0855 238.135 91.7007C231.948 88.5459 222.754 90.94 218.758 92.6465C210.317 96.2497 203.403 103.171 200.263 111.159C197.725 117.615 197.766 124.375 200.377 130.712C205.416 142.931 218.782 148.808 231.518 148.501C235.246 148.411 238.917 147.792 242.312 146.647C253.863 142.753 263.096 131.81 265.899 120.154C273.846 133.31 287.799 144.003 303.639 148.551C316.215 152.158 339.399 152.282 348.105 137.25C349.844 134.248 350.095 131.122 350.315 128.366C350.471 126.428 350.618 124.596 351.27 123.095C352.004 121.407 352.526 121.29 355.175 120.951C355.723 120.881 356.299 120.808 356.907 120.708C365.242 119.343 371.816 113.799 374.946 105.494C378.523 96.0022 376.935 84.7249 370.899 76.7644C364.532 68.3631 353.778 63.8845 342.142 64.7942C330.887 65.6702 321.23 71.5353 316.311 80.485C315.544 81.8839 316.009 83.6676 317.353 84.4657C318.697 85.2637 320.411 84.7805 321.181 83.3788C325.172 76.1165 333.163 71.3435 342.557 70.6137C352.198 69.871 361.364 73.6067 366.495 80.3796C371.32 86.7441 372.589 95.7663 369.724 103.365C367.307 109.781 362.448 113.893 356.039 114.941C355.498 115.029 354.986 115.095 354.497 115.157C351.554 115.532 348.217 115.958 346.158 120.691C345.105 123.112 344.913 125.538 344.724 127.885C344.53 130.31 344.363 132.404 343.302 134.237C336.573 145.854 316.932 146.309 305.135 142.922C287.53 137.869 272.505 124.643 266.855 109.228C263.618 100.394 261.961 86.5064 267.946 76.4449C272.049 69.5479 280.55 58.3285 291.411 60.6675L291.417 60.6687C292.929 60.9976 294.418 59.9794 294.732 58.4026C294.896 57.5915 294.715 56.7886 294.298 56.1543C294.036 53.356 295.411 42.5244 295.876 40.6567C301.718 18.7111 324.673 7.25007 344.207 3.84612C366.423 -0.0233144 390.53 9.7646 405.603 28.7874C407.505 31.1891 409.263 33.742 410.826 36.3721C415.879 44.8721 418.782 54.2065 419.221 63.3636C419.633 71.9919 417.219 78.3857 414.422 85.7888C413.843 87.3228 413.251 88.8926 412.666 90.5279C412.348 91.2935 412.075 92.0826 411.848 92.8925C411.421 94.4105 412.233 96.0066 413.681 96.4889C415.121 96.974 416.681 96.1689 417.184 94.6765C417.413 94.002 417.644 93.337 417.879 92.6788C419.549 88.7504 422.836 85.6819 427.675 83.5418C438.692 78.6686 454.698 80.0874 462.728 84.4715C476.886 92.1994 488.109 108.798 489.41 123.937C489.917 129.817 487.891 133.011 485.089 137.43C483.964 139.201 482.802 141.035 481.705 143.211C481.701 143.215 481.7 143.219 481.698 143.223C480.978 144.651 481.508 146.415 482.879 147.162C483.879 147.707 485.052 147.563 485.892 146.888C488.11 146.871 494.967 149.354 496.408 150.219C511.901 159.528 523.473 178.187 523.922 194.583C524.236 206.08 519.214 215.707 509.398 222.423C500.401 228.577 489.669 232 479.181 232.06C474.637 232.086 470.194 231.201 465.494 230.265C459.15 229.001 452.592 227.697 445.739 228.801C435.382 230.474 425.802 234.848 416.538 239.079C407.744 243.096 398.653 247.247 389.126 248.907C383.504 249.889 364.225 252.272 352.391 241.723C335.705 226.849 332.355 199.599 345.076 182.215C353.573 170.6 367.129 162.418 381.338 160.324C392.056 158.743 402.65 161.257 409.658 167.042C418.323 174.195 420.201 186.867 413.844 195.291C411.87 197.906 409.239 199.903 406.437 200.91C400.756 202.953 393.936 201.214 388.458 199.817C386.967 199.434 385.437 200.389 385.066 201.956C384.696 203.522 385.616 205.103 387.12 205.487C393.313 207.067 401.027 209.033 408.266 206.429C412.132 205.037 415.584 202.433 418.254 198.895C426.511 187.952 424.219 171.612 413.145 162.469C404.958 155.709 392.779 152.741 380.554 154.545C364.916 156.849 349.984 165.874 340.611 178.683C330.198 192.915 328.996 212.239 335.985 228.384C323.589 225.188 308.066 231.788 300.919 239.684C289.32 252.5 276.422 265.077 257.618 265.853C257.444 265.861 257.27 265.867 257.097 265.871C244.066 266.185 233.244 257.988 222.774 250.059C221.767 249.294 220.762 248.535 219.758 247.783C212.705 242.502 197.533 234.514 185.396 238.086C179.952 239.69 175.859 243.557 173.561 249.27C172.963 250.758 173.635 252.467 175.064 253.087C176.494 253.711 178.136 253.008 178.734 251.52C180.394 247.392 183.071 244.835 186.92 243.703C192.152 242.165 199.135 243.553 205.675 246.338C205.67 246.556 205.684 246.777 205.73 246.999C206.449 250.516 198.902 256.564 193.462 258.925C187.225 261.632 179.333 262.628 171.232 261.733C160.399 260.532 148.394 254.754 146.259 242.224C147.229 241.801 148.191 241.354 149.133 240.856C158.067 236.136 164.734 228.277 167.428 219.292C169.759 211.521 168.969 203.531 165.145 196.185C161.935 190.025 156.483 186.175 150.185 185.623C144.356 185.115 138.757 187.449 135.537 191.717C134.579 192.986 134.791 194.821 136.009 195.816C137.228 196.811 138.989 196.591 139.947 195.322C141.985 192.622 145.823 191.088 149.711 191.44C152.286 191.665 157.074 192.946 160.213 198.97C163.299 204.898 163.944 211.325 162.077 217.556C159.832 225.045 154.19 231.641 146.599 235.65C135.233 241.658 121.203 241.491 108.108 235.189C100.455 231.506 94.4154 225.157 88.0218 218.438C84.0374 214.25 79.9185 209.921 75.3896 206.332C70.6602 202.583 63.3599 197.586 54.6024 197.481C46.0559 197.349 39.6266 202.113 33.3892 206.692C27.4649 211.041 21.8799 215.15 14.9104 214.748C13.123 214.65 11.3368 214.244 9.48207 213.765Z" fill="white"/>
<path d="M9.48207 213.765C16.8207 210.38 20.7886 205.232 23.309 201.172C25.0278 198.401 26.1509 195.44 27.2379 192.573C29.2565 187.252 31.0002 182.654 36.0471 180.407C45.3607 176.253 57.6154 179.474 65.7213 181.607C78.805 185.043 89.3481 183.035 95.8177 175.995C96.8485 177.279 97.9153 178.526 98.9764 179.753C103.042 184.459 106.879 188.903 107.612 194.876C107.72 195.773 107.479 196.692 107.045 197.013C105.785 197.951 105.492 199.772 106.392 201.084C106.952 201.901 107.844 202.327 108.74 202.305C109.284 202.292 109.828 202.115 110.304 201.761C112.455 200.165 113.555 197.242 113.176 194.135C112.223 186.351 107.609 181.012 103.149 175.847C99.7886 171.958 96.6132 168.283 95.1365 163.76C93.0263 157.301 94.4909 149.948 99.1556 143.585C108.037 131.467 126.986 124.029 141.038 132.265C144.117 134.071 148.352 137.365 150.596 140.891C155.658 151.647 164.4 157.424 175.94 157.589C176.934 157.601 178.037 157.45 179.099 157.301C180.208 157.146 182.252 156.858 182.853 157.152C182.839 157.184 182.885 157.374 182.888 157.746C182.901 159.797 182.796 161.876 182.696 163.887C182.354 170.685 182 177.713 186.057 184.614C196.932 203.104 219.461 210.028 235.451 210.339C236.222 210.354 237.005 210.352 237.792 210.333C257.291 209.864 281.175 199.012 290.935 178.311C291.617 176.865 291.044 175.115 289.654 174.406C288.267 173.699 286.583 174.294 285.901 175.743C276.777 195.087 253.677 204.838 235.558 204.503C220.984 204.219 200.529 198.041 190.84 181.565C187.69 176.208 187.97 170.638 188.295 164.188C188.401 162.094 188.509 159.928 188.497 157.707C188.483 155.573 187.827 153.904 186.542 152.745C184.268 150.688 180.985 151.146 178.352 151.517C177.457 151.643 176.604 151.753 176.021 151.752C166.877 151.621 160.171 147.306 156.011 139.02C155.948 138.818 155.867 138.617 155.756 138.426C155.653 138.246 155.537 138.072 155.428 137.896C155.41 137.855 155.387 137.822 155.368 137.78C147.846 121.01 152.424 95.4353 161.538 83.7729C169.934 73.0334 187.945 64.5632 201.366 69.0828C206.391 70.7704 210.37 67.1899 213.564 64.311C214.511 63.4578 215.404 62.651 216.24 62.048C222.259 57.6974 231.762 56.2577 240.431 58.3786C246.981 59.9788 256.031 64.2563 262.018 75.5206C256.623 86.4531 257.823 99.8741 261.063 109.707C261.026 109.965 261.01 110.228 261.042 110.499C262.508 122.628 252.948 136.923 240.583 141.095C228.197 145.269 210.761 141.087 205.53 128.407C203.524 123.54 203.497 118.341 205.452 113.367C208.036 106.797 213.804 101.07 220.882 98.0472C224.447 96.5262 231.612 94.8801 235.662 96.9427C236.947 97.5985 237.719 98.554 238.091 99.9514C238.414 101.171 238.281 102.284 237.681 103.357C236.565 105.347 233.886 107.146 230.853 107.942C229.35 108.335 228.438 109.922 228.814 111.485C229.191 113.047 230.717 113.999 232.218 113.603C235.741 112.679 240.299 110.275 242.528 106.292C243.889 103.859 244.224 101.127 243.497 98.3929C242.701 95.3981 240.848 93.0855 238.135 91.7007C231.948 88.5459 222.754 90.94 218.758 92.6465C210.317 96.2497 203.403 103.171 200.263 111.159C197.725 117.615 197.766 124.375 200.377 130.712C205.416 142.931 218.782 148.808 231.518 148.501C235.246 148.411 238.917 147.792 242.312 146.647C253.863 142.753 263.096 131.81 265.899 120.154C273.846 133.31 287.799 144.003 303.639 148.551C316.215 152.158 339.399 152.282 348.105 137.25C349.844 134.248 350.095 131.122 350.315 128.366C350.471 126.428 350.618 124.596 351.27 123.095C352.004 121.407 352.526 121.29 355.175 120.951C355.723 120.881 356.299 120.808 356.907 120.708C365.242 119.343 371.816 113.799 374.946 105.494C378.523 96.0022 376.935 84.7249 370.899 76.7644C364.532 68.3631 353.778 63.8845 342.142 64.7942C330.887 65.6702 321.23 71.5353 316.311 80.485C315.544 81.8839 316.009 83.6676 317.353 84.4657C318.697 85.2637 320.411 84.7805 321.181 83.3788C325.172 76.1165 333.163 71.3435 342.557 70.6137C352.198 69.871 361.364 73.6067 366.495 80.3796C371.32 86.7441 372.589 95.7663 369.724 103.365C367.307 109.781 362.448 113.893 356.039 114.941C355.498 115.029 354.986 115.095 354.497 115.157C351.554 115.532 348.217 115.958 346.158 120.691C345.105 123.112 344.913 125.538 344.724 127.885C344.53 130.31 344.363 132.404 343.302 134.237C336.573 145.854 316.932 146.309 305.135 142.922C287.53 137.869 272.505 124.643 266.855 109.228C263.618 100.394 261.961 86.5064 267.946 76.4449C272.049 69.5479 280.55 58.3285 291.411 60.6675L291.417 60.6687C292.929 60.9976 294.418 59.9794 294.732 58.4026C294.896 57.5915 294.715 56.7886 294.298 56.1543C294.036 53.356 295.411 42.5244 295.876 40.6567C301.718 18.7111 324.673 7.25007 344.207 3.84612C366.423 -0.0233144 390.53 9.7646 405.603 28.7874C407.505 31.1891 409.263 33.742 410.826 36.3721C415.879 44.8721 418.782 54.2065 419.221 63.3636C419.633 71.9919 417.219 78.3857 414.422 85.7888C413.843 87.3228 413.251 88.8926 412.666 90.5279C412.348 91.2935 412.075 92.0826 411.848 92.8925C411.421 94.4105 412.233 96.0066 413.681 96.4889C415.121 96.974 416.681 96.1689 417.184 94.6765C417.413 94.002 417.644 93.337 417.879 92.6788C419.549 88.7504 422.836 85.6819 427.675 83.5418C438.692 78.6686 454.698 80.0874 462.728 84.4715C476.886 92.1994 488.109 108.798 489.41 123.937C489.917 129.817 487.891 133.011 485.089 137.43C483.964 139.201 482.802 141.035 481.705 143.211C481.701 143.215 481.7 143.219 481.698 143.223C480.978 144.651 481.508 146.415 482.879 147.162C483.879 147.707 485.052 147.563 485.892 146.888C488.11 146.871 494.967 149.354 496.408 150.219C511.901 159.528 523.473 178.187 523.922 194.583C524.236 206.08 519.214 215.707 509.398 222.423C500.401 228.577 489.669 232 479.181 232.06C474.637 232.086 470.194 231.201 465.494 230.265C459.15 229.001 452.592 227.697 445.739 228.801C435.382 230.474 425.802 234.848 416.538 239.079C407.744 243.096 398.653 247.247 389.126 248.907C383.504 249.889 364.225 252.272 352.391 241.723C335.705 226.849 332.355 199.599 345.076 182.215C353.573 170.6 367.129 162.418 381.338 160.324C392.056 158.743 402.65 161.257 409.658 167.042C418.323 174.195 420.201 186.867 413.844 195.291C411.87 197.906 409.239 199.903 406.437 200.91C400.756 202.953 393.936 201.214 388.458 199.817C386.967 199.434 385.437 200.389 385.066 201.956C384.696 203.522 385.616 205.103 387.12 205.487C393.313 207.067 401.027 209.033 408.266 206.429C412.132 205.037 415.584 202.433 418.254 198.895C426.511 187.952 424.219 171.612 413.145 162.469C404.958 155.709 392.779 152.741 380.554 154.545C364.916 156.849 349.984 165.874 340.611 178.683C330.198 192.915 328.996 212.239 335.985 228.384C323.589 225.188 308.066 231.788 300.919 239.684C289.32 252.5 276.422 265.077 257.618 265.853C257.444 265.861 257.27 265.867 257.097 265.871C244.066 266.185 233.244 257.988 222.774 250.059C221.767 249.294 220.762 248.535 219.758 247.783C212.705 242.502 197.533 234.514 185.396 238.086C179.952 239.69 175.859 243.557 173.561 249.27C172.963 250.758 173.635 252.467 175.064 253.087C176.494 253.711 178.136 253.008 178.734 251.52C180.394 247.392 183.071 244.835 186.92 243.703C192.152 242.165 199.135 243.553 205.675 246.338C205.67 246.556 205.684 246.777 205.73 246.999C206.449 250.516 198.902 256.564 193.462 258.925C187.225 261.632 179.333 262.628 171.232 261.733C160.399 260.532 148.394 254.754 146.259 242.224C147.229 241.801 148.191 241.354 149.133 240.856C158.067 236.136 164.734 228.277 167.428 219.292C169.759 211.521 168.969 203.531 165.145 196.185C161.935 190.025 156.483 186.175 150.185 185.623C144.356 185.115 138.757 187.449 135.537 191.717C134.579 192.986 134.791 194.821 136.009 195.816C137.228 196.811 138.989 196.591 139.947 195.322C141.985 192.622 145.823 191.088 149.711 191.44C152.286 191.665 157.074 192.946 160.213 198.97C163.299 204.898 163.944 211.325 162.077 217.556C159.832 225.045 154.19 231.641 146.599 235.65C135.233 241.658 121.203 241.491 108.108 235.189C100.455 231.506 94.4154 225.157 88.0218 218.438C84.0374 214.25 79.9185 209.921 75.3896 206.332C70.6602 202.583 63.3599 197.586 54.6024 197.481C46.0559 197.349 39.6266 202.113 33.3892 206.692C27.4649 211.041 21.8799 215.15 14.9104 214.748C13.123 214.65 11.3368 214.244 9.48207 213.765Z" stroke="#ECE1D6" stroke-width="6" mask="url(#path-1-outside-1_936_86)"/>
</svg>
