<svg width="575" height="180" viewBox="0 0 575 180" fill="none" xmlns="http://www.w3.org/2000/svg">
<path d="M531.076 11.323C521.343 1.67182 506.34 -0.556979 495.352 6.25517C493.237 7.56565 491.32 6.93273 489.191 6.16334L489.19 6.16337C488.533 5.92668 487.815 5.66502 487.09 5.4921L487.088 5.49215C484.038 4.76845 480.538 4.65168 476.708 5.11624L476.707 5.11626C466.922 6.29073 458.363 12.0715 451.982 19.7331C445.601 27.3957 441.292 37.06 440.057 46.2547L439.783 48.2993L441.811 47.9232C448.333 46.7142 456.191 48.5202 459.308 55.1034L459.453 55.4202C461.043 59.03 460.891 63.1243 458.94 66.9913L458.939 66.9913C456.604 71.623 452.193 74.8683 447.844 75.3791C446.095 75.5845 444.224 75.1054 442.603 74.05L440.292 72.5449L440.281 75.3078C440.253 82.1153 441.408 98.3774 452.034 112.043L452.547 112.692C464.153 127.116 483.011 134.38 508.233 134.589C508.301 134.59 508.394 134.619 508.488 134.724C508.561 134.805 508.623 134.922 508.649 135.066L508.661 135.219L508.661 135.221C508.659 135.432 508.583 135.596 508.492 135.697C508.403 135.797 508.315 135.826 508.25 135.827L508.24 135.828C482.392 135.613 463.575 128.026 451.967 113.567C437.284 95.2765 439.478 72.6413 439.574 71.7404L439.574 71.7394C439.577 71.7074 439.584 71.6641 439.601 71.6049L439.756 71.0598L439.512 70.5502C438.777 69.0139 438.501 67.2645 438.766 65.4296L438.8 65.2871C438.844 65.1578 438.916 65.0658 438.986 65.0099C439.077 64.9375 439.157 64.9278 439.218 64.9386L439.22 64.9386C439.296 64.952 439.399 65.0035 439.488 65.139C439.556 65.2416 439.602 65.3751 439.608 65.5238L439.6 65.6764L439.599 65.6774C439.228 68.2441 440.149 70.1143 441.067 71.2663L441.25 71.4864C442.862 73.3546 445.379 74.4159 447.767 74.1463L447.774 74.1461C452.017 73.6469 456.155 70.4362 458.252 66.2758C459.941 62.9255 460.157 59.2767 458.736 56.0477C456.962 52.0186 453.239 49.9083 449.383 49.1353C445.542 48.3652 441.342 48.8626 438.194 50.2713L437.713 50.4973C432.802 52.9291 429.582 58.2272 427.73 64.2105C425.864 70.2427 425.289 77.2672 425.891 83.6111L425.952 84.223C428.149 104.656 440.333 123.01 459.272 134.623L459.271 134.624C479.922 147.288 504.369 149.35 523.077 139.745C528.606 136.907 533.72 133.054 538.565 129.25L540.626 127.625C545.186 124.023 549.804 120.379 554.753 117.403L555.748 116.817C565.12 111.404 575.935 109.938 585.395 112.715C587.266 113.264 589.099 113.935 590.916 114.633L592.73 115.337C600.098 118.216 607.189 121.065 615.277 116.891C618.565 115.195 622.765 111.417 625.063 107.465L627.311 103.597L623.19 105.332C620.846 106.319 618.121 106.69 615.311 106.319L614.681 106.226C608.206 105.175 602.798 101.305 597.236 97.2882L597.235 97.2882C593.87 94.8586 590.564 92.4659 586.966 90.7329C576.736 85.8041 566.766 88.6826 560.355 91.8391L560.354 91.8401C560.177 91.9275 560.013 92.0198 559.884 92.0931C559.744 92.1726 559.646 92.2287 559.546 92.2803L559.402 92.3553L559.277 92.458L559.181 92.5269L559.18 92.5279C559.138 92.544 559.097 92.5598 559.064 92.5728C559.029 92.5867 559.002 92.5974 558.977 92.6072L558.886 92.6427L558.801 92.6888C554.587 94.9708 550.741 97.8285 546.811 100.798L544.918 102.224C543.016 103.649 541.086 105.06 539.114 106.365L538.191 106.962C519.102 119.043 499.914 114.563 489.755 105.268L489.27 104.815C477.957 93.9792 473.196 74.3404 478.241 59.2624C478.244 59.2573 478.247 59.2509 478.251 59.2426C478.26 59.2235 478.275 59.1929 478.291 59.1586L478.519 58.6576L478.37 58.1289C476.975 53.1817 477.562 47.5222 479.406 42.7936C483.684 31.8274 493.366 25.7958 503.374 27.4182L503.375 27.4191C506.417 27.9111 508.909 29.8752 510.586 32.5516C512.271 35.2382 513.049 38.5172 512.738 41.3862L512.68 41.838C512.348 44.0557 511.393 45.7061 510.068 46.774C508.654 47.9142 506.67 48.509 504.204 48.2622C504.132 48.2549 504.033 48.2146 503.94 48.092C503.846 47.9678 503.783 47.7835 503.8 47.5699C503.818 47.3659 503.907 47.2142 504.006 47.1242C504.105 47.0346 504.189 47.0225 504.238 47.0275L504.24 47.0275C506.816 47.2916 508.748 46.6822 510.056 45.3901C511.156 44.3046 511.631 42.9139 511.829 41.702L511.897 41.1953C512.181 38.5702 511.443 35.7035 509.985 33.3833C508.525 31.0589 506.237 29.1238 503.306 28.6498L502.842 28.5803C493.283 27.2658 484.377 33.099 480.341 42.9089L480.149 43.3865L479.877 44.1162C477.17 51.7383 477.687 61.7227 485.944 66.5756C489.765 68.8214 493.385 68.5576 496.964 68.0149L498.497 67.7724C499.183 67.6617 499.861 67.5505 500.549 67.4514L500.549 67.4523C502.792 67.1316 504.324 68.3429 506.016 69.7448L506.017 69.7448C506.632 70.2538 507.323 70.8311 508.062 71.2742L508.063 71.2741C513.986 74.8211 521.31 73.9896 527.111 69.36C530.625 66.5573 533.269 62.2987 534.811 57.6118C536.355 52.9172 536.832 47.6803 535.897 42.835C535.092 38.6597 532.371 30.8952 523.306 28.7779C523.226 28.7592 523.121 28.6993 523.035 28.5541C522.949 28.408 522.907 28.2111 522.947 28.0044C522.986 27.7992 523.088 27.6717 523.178 27.6078C523.262 27.5473 523.337 27.5376 523.408 27.5542L523.41 27.5542C529.342 28.9393 533.758 33.1105 535.866 39.3279L537.536 44.2524L538.746 39.1825C541.235 28.7426 538.578 18.7611 531.076 11.323Z" fill="white" stroke="#ECE1D6" stroke-width="3"/>
<path d="M477.988 63.6496C474.996 77.5507 479.64 94.1314 489.726 103.792C499.904 113.539 519.573 117.944 538.787 105.233L538.787 105.233C540.664 103.991 542.516 102.641 544.313 101.298L542.952 98.6731C537.607 100.442 532.279 101.729 526.918 101.864L526.086 101.876C521.923 101.888 517.73 101.193 513.484 99.4757C505.394 96.2028 499.024 90.309 496.336 83.8516C494.664 79.8374 494.358 75.6867 495.416 71.447L495.906 69.481L493.884 69.5922C491.195 69.7396 488.511 69.397 485.667 67.7251L485.666 67.7252C483.549 66.4815 481.923 64.8988 480.691 63.1061L478.722 60.2405L477.988 63.6496Z" fill="white" stroke="#ECE1D6" stroke-width="3"/>
<path d="M129.791 107.36C126.21 107.513 122.647 108.445 119.836 110.207L119.284 110.57L118.943 110.814C115.581 113.29 113.899 116.815 113.927 121.134L113.936 121.569C114.015 123.973 115.108 126.376 116.901 127.845L116.903 127.846C117.896 128.657 119.652 129.595 121.955 129.038C122.423 128.926 122.929 128.733 123.351 128.473C123.559 128.345 123.812 128.161 124.026 127.908C124.229 127.669 124.535 127.199 124.488 126.558L124.487 126.555C124.44 125.929 124.842 125.506 125.241 125.425L125.321 125.413C125.764 125.383 126.245 125.72 126.294 126.373L126.294 126.376C126.459 128.539 125.083 130.446 122.32 131.109C120.045 131.654 117.763 131.127 115.865 129.571L115.865 129.57C114.118 128.139 112.864 125.979 112.364 123.554L112.261 123.054L111.875 122.723C111.791 122.651 111.715 122.599 111.664 122.565L111.665 122.565C104.234 114.367 97.8178 110.022 90.9331 109L90.9331 108.999C80.6033 107.461 69.2973 110.399 57.3938 117.483C52.7693 120.237 48.6193 123.785 44.3483 127.433L44.3474 127.433C37.8333 132.997 31.3593 138.501 23.3812 141.127L23.3821 141.127C19.0747 142.542 14.2032 142.618 9.90686 141.09L5.17454 139.408L8.20194 143.412C9.70719 145.403 11.4429 147.208 13.5594 148.843C18.6513 152.778 24.2336 153.424 29.83 152.53C34.6636 151.757 39.6044 149.819 44.3513 147.828L46.373 146.976C47.7165 146.408 49.02 145.855 50.2977 145.337L50.2987 145.337C68.5468 137.938 88.1043 138.546 103.969 146.903C110.57 150.381 116.709 154.858 122.747 159.262C131.012 165.293 139.022 171.149 148.374 174.689L149.284 175.025C177.346 185.091 200.53 169.778 221.261 153.864C248.469 132.977 286.604 128.631 338.25 141.088C346.747 143.137 355.383 145.502 363.76 147.797C382.088 152.817 401.175 158.048 419.997 160.25C439.157 162.489 457.697 159.457 476.262 151.037L475.225 148.234C475.19 148.244 475.157 148.255 475.139 148.26C475.128 148.264 475.12 148.266 475.115 148.268L474.041 148.569C468.648 150.032 462.928 150.841 456.906 150.991C449.508 151.176 441.654 150.366 433.403 148.551C426.798 147.096 420.026 144.997 413.278 142.31L413.277 142.309C407.177 139.881 400.959 137.261 394.932 134.72L390.335 132.784C379.56 128.259 368.458 123.709 357.336 120.055C345.957 116.317 334.307 113.821 322.703 112.638C302.956 110.625 282.776 112.371 262.731 117.821C253.209 120.41 243.414 124.005 233.615 128.502C231.379 129.528 229.182 130.591 227.021 131.636L225.065 132.58C215.33 137.263 206.203 141.309 195.21 141.416L194.253 141.415C184.365 141.287 174.684 137.836 165.445 131.06C161.771 128.366 158.455 124.953 155.151 121.544L155.151 121.543C150.693 116.946 146.272 112.368 140.906 109.613C137.605 107.918 133.617 107.197 129.791 107.36Z" fill="white" stroke="#ECE1D5" stroke-width="3"/>
<path d="M197.061 71.3034C184.585 70.2741 171.838 77.637 165.996 89.1514C163.67 93.7356 162.287 99.1672 161.849 105.267L161.822 105.687C161.6 110.072 162.736 116.014 164.963 121.422C167.248 126.972 170.828 132.313 175.664 134.736L175.663 134.737C175.72 134.766 175.773 134.8 175.823 134.839L175.962 134.949L176.123 135.024C182.312 137.887 188.687 139.342 195.17 139.285L195.169 139.286C205.187 139.204 213.918 135.569 222.591 131.445L226.307 129.656C228.503 128.593 230.697 127.531 232.933 126.505L232.934 126.505C242.826 121.959 252.709 118.33 262.301 115.72C281.919 110.379 301.649 108.564 320.97 110.305L322.839 110.484C334.548 111.68 346.312 114.202 357.803 117.981C370.559 122.175 383.219 127.515 395.526 132.708C400.779 134.924 406.2 137.21 411.553 139.374L413.842 140.293C420.499 142.948 427.187 145.025 433.72 146.464C448.768 149.78 462.558 149.72 474.669 146.206C478.204 145.181 481.769 143.756 485.366 142.193L484.622 139.326C481.193 139.685 477.734 139.918 474.247 140.006C461.654 140.321 448.693 138.865 435.704 135.624C419.176 131.501 404.462 122.613 390.014 113.874C373.666 103.985 357.941 94.453 339.413 91.3105C315.498 87.2532 292.783 88.6851 270.039 95.6979L268.956 96.0356C260.322 98.766 251.389 102.57 240.023 108.34C237.653 109.544 235.331 110.893 232.922 112.293C226.881 115.803 220.896 119.264 214.203 120.514L214.202 120.515C210.084 121.287 204.504 121.053 199.537 119.334C194.576 117.617 190.444 114.505 188.778 109.678L188.777 109.677C187.36 105.574 188.459 99.8155 191.316 96.4538L191.317 96.4528C192.099 95.5317 193.368 94.718 194.861 94.1994C196.348 93.6826 197.924 93.505 199.249 93.7232L199.248 93.7242C201.111 94.0328 202.459 95.0937 203.15 96.7252L203.15 96.7261C203.405 97.3265 203.118 97.9576 202.68 98.168L202.677 98.1701C202.297 98.3536 201.761 98.2159 201.524 97.6548L201.523 97.65C201.456 97.4939 201.273 97.0531 200.824 96.6427C200.373 96.2305 199.768 95.9475 199.003 95.8208L198.998 95.82C197.733 95.6152 196.395 95.8764 195.327 96.2596C194.295 96.6298 193.221 97.221 192.606 97.9444L192.605 97.9444C191.392 99.3724 190.59 101.286 190.215 103.192C189.841 105.096 189.861 107.156 190.464 108.899L190.465 108.898C192.042 113.474 196.392 116.19 200.934 117.576L201.471 117.739L201.986 117.51C202.098 117.46 202.196 117.438 202.287 117.436C207.424 117.307 211.66 115.461 214.714 111.865C218.296 107.648 220.022 101.164 219.533 94.5676C218.666 82.8767 208.457 72.2365 197.061 71.3043L197.061 71.3034Z" fill="white" stroke="#ECE1D5" stroke-width="3"/>
</svg>
