<svg width="403" height="123" viewBox="0 0 403 123" fill="none" xmlns="http://www.w3.org/2000/svg">
<path d="M253.852 40.9829C258.231 41.1021 262.587 42.2043 265.908 44.3605L265.909 44.3605C270.029 47.0377 272.146 50.9961 272.182 55.9547L272.18 56.4381C272.127 59.1008 270.911 61.7584 268.911 63.3883L268.91 63.3893C267.803 64.289 265.869 65.316 263.314 64.7548L263.314 64.7539C262.796 64.6411 262.236 64.4428 261.772 64.1746C261.543 64.0425 261.27 63.8545 261.038 63.5967C260.821 63.3554 260.482 62.8727 260.524 62.2017L260.524 62.1988L260.525 62.1988C260.576 61.4147 260.006 60.8006 259.336 60.7481C258.631 60.7037 258.013 61.2265 257.964 62.0065L257.964 62.0094C257.803 64.4949 259.477 66.6949 262.807 67.4187C265.539 68.0114 268.254 67.3585 270.478 65.5441L270.478 65.5431C272.518 63.8814 273.95 61.4078 274.495 58.6631L274.596 58.1543L274.989 57.8175C275.075 57.7441 275.154 57.6891 275.208 57.6537C275.216 57.6483 275.224 57.6432 275.231 57.6383C283.696 48.3444 291.006 43.4266 298.865 42.1864L299.977 42.0259C311.517 40.5105 324.186 43.6318 337.597 51.1052L337.598 51.1053C342.967 54.0986 347.805 57.9873 352.804 62.0009C360.415 68.1124 368.024 74.1983 377.348 77.0237L377.347 77.0236C382.404 78.5531 388.102 78.5617 393.108 76.7623L397.881 75.0475L394.814 79.0836C393.114 81.3224 391.147 83.3558 388.742 85.2063C382.981 89.638 376.618 90.4435 370.19 89.5417C363.828 88.6492 357.273 86.0634 351.037 83.6128C350.257 83.3062 349.487 83.0032 348.727 82.7072L346.47 81.8422C325.184 73.8344 302.491 74.828 284.202 84.4699C276.605 88.4759 269.563 93.5932 262.652 98.615C252.877 105.72 243.447 112.585 232.274 116.64L232.273 116.64C200.137 128.295 173.207 111.642 148.97 94.1646L148.97 94.1636C117.095 71.1764 72.8286 66.9421 13.2627 81.7167C3.46471 84.147 -6.48864 86.9329 -16.1392 89.6345C-37.2583 95.5463 -59.2269 101.698 -80.9334 104.46L-80.9343 104.46C-102.999 107.267 -124.434 104.183 -145.99 95.0824L-145.018 92.2534C-144.98 92.2636 -144.944 92.2746 -144.923 92.2807C-144.898 92.2881 -144.887 92.2906 -144.879 92.2929L-144.88 92.2929C-138.234 94.0548 -131.168 94.9765 -123.719 95.0528C-115.136 95.1408 -106.045 94.1059 -96.5133 91.9379L-95.0801 91.6039C-87.9054 89.8907 -80.5837 87.5436 -73.2959 84.6188C-66.2776 81.8038 -59.1261 78.7724 -52.1972 75.8336C-38.1664 69.8838 -23.5924 63.7049 -8.97007 58.8334C4.11089 54.4751 17.5241 51.499 30.9029 49.9916C53.6702 47.426 76.9957 49.0516 100.228 54.8165C111.264 57.5548 122.633 61.4135 134.021 66.2805C136.621 67.3907 139.175 68.5427 141.691 69.6767L143.966 70.701C155.296 75.7824 165.964 80.1863 178.745 80.1292L179.858 80.1113C191.357 79.8075 202.551 75.7677 213.161 68.0164C217.386 64.9301 221.179 61.0457 224.943 57.1825L226.851 55.2313C231.305 50.702 235.813 46.405 241.17 43.6509L241.171 43.6509C244.915 41.7258 249.467 40.8635 253.852 40.9829Z" fill="white" stroke="#ECE1D5" stroke-width="3"/>
<path d="M175.538 1.73563C189.819 0.395674 204.585 8.35566 211.491 21.0855C214.24 26.1534 215.92 32.1868 216.521 38.9896L216.556 39.4558C216.88 44.3346 215.665 50.9784 213.181 57.049C210.627 63.2874 206.59 69.2638 201.111 72.0146L201.112 72.0156C201.031 72.0562 200.956 72.1039 200.888 72.1578L200.75 72.2667L200.592 72.3403C193.512 75.6274 186.203 77.3471 178.751 77.3877C165.585 77.4661 154.27 72.3604 142.714 67.1439C140.797 66.2792 138.88 65.4132 136.943 64.5649L134.998 63.7236C123.476 58.7934 111.977 54.8892 100.828 52.12C77.294 46.2721 53.6778 44.6329 30.642 47.2327C17.0999 48.7614 3.51683 51.7751 -9.72878 56.1924C-24.4261 61.0929 -38.9924 67.2745 -53.1408 73.2805C-60.0434 76.2095 -67.1951 79.2447 -74.1981 82.0568C-81.8424 85.1279 -89.5293 87.5554 -97.0454 89.2667C-113.819 93.0869 -129.262 93.3485 -142.943 89.9779L-144.26 89.6401C-148.348 88.5549 -152.479 87.024 -156.66 85.3347L-155.975 82.45C-151.997 82.7972 -147.986 83.0028 -143.945 83.0444C-129.351 83.1943 -114.362 81.3541 -99.3694 77.5138C-80.2767 72.625 -63.3679 62.4255 -46.8047 52.4217L-43.2953 50.3043C-25.783 39.7596 -8.71973 29.9688 11.2643 26.4037C39.2494 21.41 65.8898 22.7622 92.6794 30.5469C102.687 33.4563 113.062 37.5599 126.287 43.8274C129.038 45.1316 131.737 46.6007 134.546 48.1283C141.578 51.9527 148.593 55.7522 156.406 57.0516L156.407 57.0516C161.228 57.8567 167.727 57.5012 173.488 55.4829C179.253 53.4637 184.04 49.8761 185.912 44.3893L186.052 43.9473C187.413 39.3342 186.029 33.1445 182.735 29.4994L182.734 29.4984C181.784 28.4467 180.265 27.5358 178.496 26.9685C176.733 26.4033 174.859 26.222 173.276 26.4968L173.277 26.4978C171.033 26.8894 169.433 28.1552 168.639 30.0392L168.638 30.0402C168.353 30.7158 168.634 31.4648 169.198 31.7921L169.317 31.8529C169.931 32.1291 170.687 31.8573 170.981 31.1561L170.983 31.1522C171.057 30.9782 171.251 30.5115 171.731 30.0749C172.21 29.6397 172.859 29.333 173.697 29.1868L173.702 29.1859C175.097 28.9474 176.598 29.204 177.814 29.6071C178.991 29.9972 180.196 30.6238 180.881 31.3828L180.882 31.3828C182.281 32.9307 183.229 35.0304 183.689 37.1415C184.148 39.2489 184.155 41.529 183.495 43.4601L183.494 43.4591C181.765 48.5329 176.849 51.6028 171.664 53.2121L171.144 53.3728L170.642 53.1635C170.484 53.0975 170.332 53.0656 170.184 53.0641C164.316 53.0037 159.461 51.0358 155.92 47.1135C151.752 42.4988 149.658 35.3157 150.119 27.9504C150.937 14.9052 162.53 2.94797 175.538 1.73661L175.538 1.73563Z" fill="white" stroke="#ECE1D5" stroke-width="3"/>
</svg>
