<svg width="1920" height="1465" viewBox="0 0 1920 1465" fill="none" xmlns="http://www.w3.org/2000/svg">
<mask id="path-1-outside-1_0_1" maskUnits="userSpaceOnUse" x="1693.48" y="-3.05888" width="585.247" height="255.477" fill="black">
<rect fill="white" x="1693.48" y="-3.05888" width="585.247" height="255.477"/>
<path d="M1709.82 195.909C1717.87 192.821 1722.22 188.125 1724.98 184.421C1726.87 181.893 1728.1 179.191 1729.29 176.576C1731.5 171.721 1733.42 167.526 1738.95 165.475C1749.17 161.686 1762.61 164.626 1771.5 166.573C1785.85 169.709 1797.42 167.878 1804.51 161.455C1805.64 162.627 1806.81 163.764 1807.98 164.885C1812.44 169.178 1816.65 173.233 1817.45 178.684C1817.57 179.501 1817.31 180.34 1816.83 180.633C1815.45 181.488 1815.13 183.15 1816.11 184.347C1816.73 185.093 1817.71 185.481 1818.69 185.462C1819.29 185.45 1819.88 185.288 1820.4 184.966C1822.76 183.509 1823.97 180.843 1823.55 178.007C1822.51 170.906 1817.45 166.034 1812.55 161.321C1808.87 157.772 1805.38 154.419 1803.76 150.292C1801.45 144.399 1803.05 137.69 1808.17 131.884C1817.91 120.829 1838.7 114.044 1854.11 121.56C1857.49 123.208 1862.13 126.213 1864.59 129.431C1870.15 139.245 1879.74 144.517 1892.39 144.668C1893.49 144.679 1894.7 144.541 1895.86 144.406C1897.08 144.264 1899.32 144.002 1899.98 144.27C1899.96 144.299 1900.01 144.473 1900.02 144.812C1900.03 146.683 1899.92 148.58 1899.81 150.415C1899.43 156.617 1899.04 163.03 1903.5 169.327C1915.42 186.198 1940.14 192.517 1957.68 192.802C1958.52 192.817 1959.38 192.814 1960.24 192.797C1981.63 192.371 2007.83 182.471 2018.53 163.585C2019.28 162.265 2018.65 160.669 2017.13 160.022C2015.61 159.377 2013.76 159.919 2013.01 161.241C2003 178.89 1977.67 187.785 1957.79 187.477C1941.81 187.217 1919.37 181.579 1908.74 166.545C1905.28 161.657 1905.59 156.575 1905.95 150.69C1906.06 148.779 1906.18 146.804 1906.17 144.777C1906.15 142.83 1905.43 141.307 1904.02 140.25C1901.53 138.372 1897.93 138.79 1895.04 139.128C1894.06 139.243 1893.12 139.344 1892.48 139.343C1882.45 139.222 1875.1 135.285 1870.53 127.724C1870.46 127.54 1870.38 127.357 1870.25 127.182C1870.14 127.018 1870.01 126.86 1869.89 126.698C1869.87 126.661 1869.85 126.631 1869.83 126.592C1861.58 111.291 1866.6 87.9571 1876.59 77.317C1885.8 67.519 1905.56 59.7922 1920.28 63.9171C1925.79 65.4572 1930.15 62.1907 1933.66 59.5643C1934.69 58.7859 1935.67 58.0498 1936.59 57.4997C1943.19 53.5308 1953.62 52.2179 1963.13 54.1538C1970.31 55.6144 1980.24 59.5179 1986.81 69.796C1980.89 79.7704 1982.21 92.0158 1985.76 100.987C1985.72 101.223 1985.7 101.463 1985.74 101.71C1987.35 112.777 1976.86 125.819 1963.3 129.624C1949.71 133.432 1930.59 129.614 1924.85 118.045C1922.65 113.604 1922.62 108.86 1924.76 104.322C1927.6 98.3278 1933.92 93.1036 1941.69 90.3459C1945.6 88.9584 1953.45 87.4571 1957.9 89.3394C1959.31 89.9378 1960.15 90.8097 1960.56 92.0848C1960.92 93.1974 1960.77 94.2126 1960.11 95.1919C1958.89 97.0076 1955.95 98.6491 1952.62 99.3746C1950.97 99.7333 1949.97 101.181 1950.39 102.607C1950.8 104.032 1952.48 104.901 1954.12 104.54C1957.99 103.698 1962.98 101.504 1965.43 97.8706C1966.92 95.6501 1967.29 93.1575 1966.49 90.6632C1965.62 87.9307 1963.59 85.8205 1960.61 84.5568C1953.82 81.6778 1943.74 83.8614 1939.36 85.4181C1930.1 88.7049 1922.51 95.019 1919.07 102.308C1916.29 108.198 1916.33 114.366 1919.2 120.148C1924.73 131.297 1939.39 136.66 1953.36 136.381C1957.45 136.299 1961.47 135.735 1965.2 134.69C1977.87 131.138 1987.99 121.155 1991.07 110.52C1999.78 122.524 2015.09 132.282 2032.46 136.433C2046.26 139.725 2071.69 139.84 2081.24 126.125C2083.14 123.386 2083.42 120.535 2083.66 118.02C2083.83 116.251 2083.99 114.58 2084.71 113.21C2085.51 111.67 2086.09 111.564 2088.99 111.255C2089.59 111.19 2090.22 111.124 2090.89 111.033C2100.03 109.789 2107.24 104.73 2110.68 97.1534C2114.6 88.4933 2112.86 78.2037 2106.23 70.94C2099.25 63.2741 2087.45 59.1869 2074.69 60.0159C2062.34 60.8142 2051.75 66.1648 2046.36 74.3301C2045.52 75.6064 2046.03 77.2339 2047.5 77.9621C2048.98 78.6904 2050.86 78.2497 2051.7 76.9708C2056.08 70.345 2064.84 65.9908 2075.15 65.3257C2085.72 64.6489 2095.78 68.0581 2101.4 74.2382C2106.7 80.0455 2108.09 88.2774 2104.95 95.2106C2102.3 101.064 2096.97 104.816 2089.94 105.771C2089.35 105.852 2088.78 105.911 2088.25 105.968C2085.02 106.31 2081.36 106.699 2079.1 111.017C2077.95 113.226 2077.73 115.439 2077.53 117.58C2077.31 119.793 2077.13 121.704 2075.97 123.376C2068.59 133.975 2047.05 134.388 2034.11 131.297C2014.79 126.685 1998.31 114.616 1992.11 100.551C1988.56 92.4905 1986.74 79.8195 1993.31 70.6398C1997.81 64.3473 2007.13 54.1114 2019.04 56.2464L2019.05 56.2476C2020.71 56.5477 2022.34 55.6189 2022.69 54.1802C2022.87 53.4402 2022.67 52.7077 2022.21 52.1289C2021.92 49.5757 2023.43 39.693 2023.94 37.989C2030.35 17.9662 2055.52 7.51105 2076.95 4.40691C2101.32 0.878287 2127.76 9.81083 2144.3 27.1685C2146.38 29.36 2148.31 31.6894 2150.03 34.0893C2155.57 41.8451 2158.75 50.3621 2159.24 58.7171C2159.69 66.5896 2157.04 72.4231 2153.97 79.1775C2153.34 80.5771 2152.69 82.0093 2152.05 83.5013C2151.7 84.1998 2151.4 84.9198 2151.15 85.6587C2150.68 87.0437 2151.57 88.5001 2153.16 88.9402C2154.74 89.383 2156.45 88.6486 2157.01 87.2869C2157.26 86.6715 2157.51 86.0648 2157.77 85.4642C2159.6 81.8801 2163.2 79.0806 2168.51 77.1285C2180.6 72.683 2198.15 73.9789 2206.96 77.9797C2222.49 85.0318 2234.8 100.177 2236.23 113.99C2236.79 119.356 2234.56 122.27 2231.49 126.301C2230.26 127.917 2228.98 129.59 2227.78 131.575C2227.78 131.579 2227.78 131.583 2227.77 131.586C2226.98 132.889 2227.56 134.499 2229.07 135.18C2230.17 135.678 2231.45 135.546 2232.37 134.931C2234.81 134.915 2242.33 137.181 2243.91 137.971C2260.9 146.466 2273.6 163.491 2274.09 178.451C2274.44 188.941 2268.93 197.724 2258.16 203.851C2248.3 209.465 2236.52 212.587 2225.02 212.641C2220.04 212.664 2215.16 211.857 2210.01 211.002C2203.05 209.848 2195.86 208.659 2188.34 209.665C2176.98 211.19 2166.47 215.181 2156.31 219.04C2146.66 222.704 2136.69 226.491 2126.24 228.005C2120.08 228.901 2098.93 231.073 2085.95 221.447C2067.64 207.875 2063.97 183.012 2077.92 167.151C2087.24 156.554 2102.11 149.09 2117.69 147.181C2129.45 145.739 2141.07 148.034 2148.76 153.312C2158.26 159.84 2160.32 171.402 2153.35 179.087C2151.18 181.473 2148.3 183.295 2145.23 184.214C2138.99 186.077 2131.51 184.49 2125.51 183.214C2123.87 182.865 2122.19 183.736 2121.78 185.166C2121.38 186.595 2122.39 188.038 2124.04 188.388C2130.83 189.83 2139.29 191.625 2147.23 189.249C2151.47 187.98 2155.26 185.604 2158.19 182.376C2167.24 172.392 2164.73 157.484 2152.58 149.141C2143.6 142.973 2130.24 140.263 2116.83 141.908C2099.68 144.009 2083.3 152.242 2073.02 163.928C2061.6 176.912 2060.28 194.544 2067.95 209.275C2054.35 206.358 2037.33 212.378 2029.49 219.583C2016.77 231.275 2002.62 242.749 1982 243.455C1981.81 243.463 1981.61 243.468 1981.42 243.472C1967.13 243.757 1955.26 236.278 1943.78 229.042C1942.67 228.344 1941.57 227.651 1940.47 226.965C1932.73 222.147 1916.09 214.857 1902.77 218.115C1896.8 219.577 1892.31 223.106 1889.79 228.318C1889.14 229.675 1889.88 231.235 1891.44 231.801C1893.01 232.37 1894.81 231.729 1895.47 230.371C1897.29 226.605 1900.22 224.272 1904.45 223.239C1910.19 221.837 1917.85 223.104 1925.02 225.646C1925.01 225.844 1925.03 226.046 1925.08 226.249C1925.87 229.457 1917.59 234.975 1911.62 237.129C1904.78 239.599 1896.13 240.507 1887.24 239.689C1875.36 238.592 1862.19 233.319 1859.85 221.887C1860.91 221.501 1861.97 221.093 1863 220.639C1872.8 216.333 1880.11 209.163 1883.06 200.965C1885.62 193.875 1884.75 186.585 1880.56 179.882C1877.04 174.262 1871.06 170.749 1864.15 170.244C1857.75 169.78 1851.61 171.91 1848.08 175.804C1847.03 176.961 1847.26 178.635 1848.6 179.543C1849.94 180.451 1851.87 180.251 1852.92 179.092C1855.15 176.63 1859.36 175.23 1863.63 175.552C1866.45 175.758 1871.7 176.926 1875.15 182.423C1878.53 187.832 1879.24 193.696 1877.19 199.381C1874.73 206.213 1868.55 212.231 1860.22 215.889C1847.75 221.369 1832.36 221.216 1818 215.465C1809.6 212.104 1802.98 206.311 1795.97 200.179C1791.59 196.358 1787.08 192.408 1782.11 189.133C1776.92 185.712 1768.91 181.152 1759.31 181.055C1749.93 180.934 1742.88 185.28 1736.04 189.458C1729.54 193.426 1723.42 197.174 1715.77 196.807C1713.81 196.717 1711.85 196.347 1709.82 195.909Z"/>
</mask>
<path d="M1709.82 195.909C1717.87 192.821 1722.22 188.125 1724.98 184.421C1726.87 181.893 1728.1 179.191 1729.29 176.576C1731.5 171.721 1733.42 167.526 1738.95 165.475C1749.17 161.686 1762.61 164.626 1771.5 166.573C1785.85 169.709 1797.42 167.878 1804.51 161.455C1805.64 162.627 1806.81 163.764 1807.98 164.885C1812.44 169.178 1816.65 173.233 1817.45 178.684C1817.57 179.501 1817.31 180.34 1816.83 180.633C1815.45 181.488 1815.13 183.15 1816.11 184.347C1816.73 185.093 1817.71 185.481 1818.69 185.462C1819.29 185.45 1819.88 185.288 1820.4 184.966C1822.76 183.509 1823.97 180.843 1823.55 178.007C1822.51 170.906 1817.45 166.034 1812.55 161.321C1808.87 157.772 1805.38 154.419 1803.76 150.292C1801.45 144.399 1803.05 137.69 1808.17 131.884C1817.91 120.829 1838.7 114.044 1854.11 121.56C1857.49 123.208 1862.13 126.213 1864.59 129.431C1870.15 139.245 1879.74 144.517 1892.39 144.668C1893.49 144.679 1894.7 144.541 1895.86 144.406C1897.08 144.264 1899.32 144.002 1899.98 144.27C1899.96 144.299 1900.01 144.473 1900.02 144.812C1900.03 146.683 1899.92 148.58 1899.81 150.415C1899.43 156.617 1899.04 163.03 1903.5 169.327C1915.42 186.198 1940.14 192.517 1957.68 192.802C1958.52 192.817 1959.38 192.814 1960.24 192.797C1981.63 192.371 2007.83 182.471 2018.53 163.585C2019.28 162.265 2018.65 160.669 2017.13 160.022C2015.61 159.377 2013.76 159.919 2013.01 161.241C2003 178.89 1977.67 187.785 1957.79 187.477C1941.81 187.217 1919.37 181.579 1908.74 166.545C1905.28 161.657 1905.59 156.575 1905.95 150.69C1906.06 148.779 1906.18 146.804 1906.17 144.777C1906.15 142.83 1905.43 141.307 1904.02 140.25C1901.53 138.372 1897.93 138.79 1895.04 139.128C1894.06 139.243 1893.12 139.344 1892.48 139.343C1882.45 139.222 1875.1 135.285 1870.53 127.724C1870.46 127.54 1870.38 127.357 1870.25 127.182C1870.14 127.018 1870.01 126.86 1869.89 126.698C1869.87 126.661 1869.85 126.631 1869.83 126.592C1861.58 111.291 1866.6 87.9571 1876.59 77.317C1885.8 67.519 1905.56 59.7922 1920.28 63.9171C1925.79 65.4572 1930.15 62.1907 1933.66 59.5643C1934.69 58.7859 1935.67 58.0498 1936.59 57.4997C1943.19 53.5308 1953.62 52.2179 1963.13 54.1538C1970.31 55.6144 1980.24 59.5179 1986.81 69.796C1980.89 79.7704 1982.21 92.0158 1985.76 100.987C1985.72 101.223 1985.7 101.463 1985.74 101.71C1987.35 112.777 1976.86 125.819 1963.3 129.624C1949.71 133.432 1930.59 129.614 1924.85 118.045C1922.65 113.604 1922.62 108.86 1924.76 104.322C1927.6 98.3278 1933.92 93.1036 1941.69 90.3459C1945.6 88.9584 1953.45 87.4571 1957.9 89.3394C1959.31 89.9378 1960.15 90.8097 1960.56 92.0848C1960.92 93.1974 1960.77 94.2126 1960.11 95.1919C1958.89 97.0076 1955.95 98.6491 1952.62 99.3746C1950.97 99.7333 1949.97 101.181 1950.39 102.607C1950.8 104.032 1952.48 104.901 1954.12 104.54C1957.99 103.698 1962.98 101.504 1965.43 97.8706C1966.92 95.6501 1967.29 93.1575 1966.49 90.6632C1965.62 87.9307 1963.59 85.8205 1960.61 84.5568C1953.82 81.6778 1943.74 83.8614 1939.36 85.4181C1930.1 88.7049 1922.51 95.019 1919.07 102.308C1916.29 108.198 1916.33 114.366 1919.2 120.148C1924.73 131.297 1939.39 136.66 1953.36 136.381C1957.45 136.299 1961.47 135.735 1965.2 134.69C1977.87 131.138 1987.99 121.155 1991.07 110.52C1999.78 122.524 2015.09 132.282 2032.46 136.433C2046.26 139.725 2071.69 139.84 2081.24 126.125C2083.14 123.386 2083.42 120.535 2083.66 118.02C2083.83 116.251 2083.99 114.58 2084.71 113.21C2085.51 111.67 2086.09 111.564 2088.99 111.255C2089.59 111.19 2090.22 111.124 2090.89 111.033C2100.03 109.789 2107.24 104.73 2110.68 97.1534C2114.6 88.4933 2112.86 78.2037 2106.23 70.94C2099.25 63.2741 2087.45 59.1869 2074.69 60.0159C2062.34 60.8142 2051.75 66.1648 2046.36 74.3301C2045.52 75.6064 2046.03 77.2339 2047.5 77.9621C2048.98 78.6904 2050.86 78.2497 2051.7 76.9708C2056.08 70.345 2064.84 65.9908 2075.15 65.3257C2085.72 64.6489 2095.78 68.0581 2101.4 74.2382C2106.7 80.0455 2108.09 88.2774 2104.95 95.2106C2102.3 101.064 2096.97 104.816 2089.94 105.771C2089.35 105.852 2088.78 105.911 2088.25 105.968C2085.02 106.31 2081.36 106.699 2079.1 111.017C2077.95 113.226 2077.73 115.439 2077.53 117.58C2077.31 119.793 2077.13 121.704 2075.97 123.376C2068.59 133.975 2047.05 134.388 2034.11 131.297C2014.79 126.685 1998.31 114.616 1992.11 100.551C1988.56 92.4905 1986.74 79.8195 1993.31 70.6398C1997.81 64.3473 2007.13 54.1114 2019.04 56.2464L2019.05 56.2476C2020.71 56.5477 2022.34 55.6189 2022.69 54.1802C2022.87 53.4402 2022.67 52.7077 2022.21 52.1289C2021.92 49.5757 2023.43 39.693 2023.94 37.989C2030.35 17.9662 2055.52 7.51105 2076.95 4.40691C2101.32 0.878287 2127.76 9.81083 2144.3 27.1685C2146.38 29.36 2148.31 31.6894 2150.03 34.0893C2155.57 41.8451 2158.75 50.3621 2159.24 58.7171C2159.69 66.5896 2157.04 72.4231 2153.97 79.1775C2153.34 80.5771 2152.69 82.0093 2152.05 83.5013C2151.7 84.1998 2151.4 84.9198 2151.15 85.6587C2150.68 87.0437 2151.57 88.5001 2153.16 88.9402C2154.74 89.383 2156.45 88.6486 2157.01 87.2869C2157.26 86.6715 2157.51 86.0648 2157.77 85.4642C2159.6 81.8801 2163.2 79.0806 2168.51 77.1285C2180.6 72.683 2198.15 73.9789 2206.96 77.9797C2222.49 85.0318 2234.8 100.177 2236.23 113.99C2236.79 119.356 2234.56 122.27 2231.49 126.301C2230.26 127.917 2228.98 129.59 2227.78 131.575C2227.78 131.579 2227.78 131.583 2227.77 131.586C2226.98 132.889 2227.56 134.499 2229.07 135.18C2230.17 135.678 2231.45 135.546 2232.37 134.931C2234.81 134.915 2242.33 137.181 2243.91 137.971C2260.9 146.466 2273.6 163.491 2274.09 178.451C2274.44 188.941 2268.93 197.724 2258.16 203.851C2248.3 209.465 2236.52 212.587 2225.02 212.641C2220.04 212.664 2215.16 211.857 2210.01 211.002C2203.05 209.848 2195.86 208.659 2188.34 209.665C2176.98 211.19 2166.47 215.181 2156.31 219.04C2146.66 222.704 2136.69 226.491 2126.24 228.005C2120.08 228.901 2098.93 231.073 2085.95 221.447C2067.64 207.875 2063.97 183.012 2077.92 167.151C2087.24 156.554 2102.11 149.09 2117.69 147.181C2129.45 145.739 2141.07 148.034 2148.76 153.312C2158.26 159.84 2160.32 171.402 2153.35 179.087C2151.18 181.473 2148.3 183.295 2145.23 184.214C2138.99 186.077 2131.51 184.49 2125.51 183.214C2123.87 182.865 2122.19 183.736 2121.78 185.166C2121.38 186.595 2122.39 188.038 2124.04 188.388C2130.83 189.83 2139.29 191.625 2147.23 189.249C2151.47 187.98 2155.26 185.604 2158.19 182.376C2167.24 172.392 2164.73 157.484 2152.58 149.141C2143.6 142.973 2130.24 140.263 2116.83 141.908C2099.68 144.009 2083.3 152.242 2073.02 163.928C2061.6 176.912 2060.28 194.544 2067.95 209.275C2054.35 206.358 2037.33 212.378 2029.49 219.583C2016.77 231.275 2002.62 242.749 1982 243.455C1981.81 243.463 1981.61 243.468 1981.42 243.472C1967.13 243.757 1955.26 236.278 1943.78 229.042C1942.67 228.344 1941.57 227.651 1940.47 226.965C1932.73 222.147 1916.09 214.857 1902.77 218.115C1896.8 219.577 1892.31 223.106 1889.79 228.318C1889.14 229.675 1889.88 231.235 1891.44 231.801C1893.01 232.37 1894.81 231.729 1895.47 230.371C1897.29 226.605 1900.22 224.272 1904.45 223.239C1910.19 221.837 1917.85 223.104 1925.02 225.646C1925.01 225.844 1925.03 226.046 1925.08 226.249C1925.87 229.457 1917.59 234.975 1911.62 237.129C1904.78 239.599 1896.13 240.507 1887.24 239.689C1875.36 238.592 1862.19 233.319 1859.85 221.887C1860.91 221.501 1861.97 221.093 1863 220.639C1872.8 216.333 1880.11 209.163 1883.06 200.965C1885.62 193.875 1884.75 186.585 1880.56 179.882C1877.04 174.262 1871.06 170.749 1864.15 170.244C1857.75 169.78 1851.61 171.91 1848.08 175.804C1847.03 176.961 1847.26 178.635 1848.6 179.543C1849.94 180.451 1851.87 180.251 1852.92 179.092C1855.15 176.63 1859.36 175.23 1863.63 175.552C1866.45 175.758 1871.7 176.926 1875.15 182.423C1878.53 187.832 1879.24 193.696 1877.19 199.381C1874.73 206.213 1868.55 212.231 1860.22 215.889C1847.75 221.369 1832.36 221.216 1818 215.465C1809.6 212.104 1802.98 206.311 1795.97 200.179C1791.59 196.358 1787.08 192.408 1782.11 189.133C1776.92 185.712 1768.91 181.152 1759.31 181.055C1749.93 180.934 1742.88 185.28 1736.04 189.458C1729.54 193.426 1723.42 197.174 1715.77 196.807C1713.81 196.717 1711.85 196.347 1709.82 195.909Z" fill="white"/>
<path d="M1709.82 195.909C1717.87 192.821 1722.22 188.125 1724.98 184.421C1726.87 181.893 1728.1 179.191 1729.29 176.576C1731.5 171.721 1733.42 167.526 1738.95 165.475C1749.17 161.686 1762.61 164.626 1771.5 166.573C1785.85 169.709 1797.42 167.878 1804.51 161.455C1805.64 162.627 1806.81 163.764 1807.98 164.885C1812.44 169.178 1816.65 173.233 1817.45 178.684C1817.57 179.501 1817.31 180.34 1816.83 180.633C1815.45 181.488 1815.13 183.15 1816.11 184.347C1816.73 185.093 1817.71 185.481 1818.69 185.462C1819.29 185.45 1819.88 185.288 1820.4 184.966C1822.76 183.509 1823.97 180.843 1823.55 178.007C1822.51 170.906 1817.45 166.034 1812.55 161.321C1808.87 157.772 1805.38 154.419 1803.76 150.292C1801.45 144.399 1803.05 137.69 1808.17 131.884C1817.91 120.829 1838.7 114.044 1854.11 121.56C1857.49 123.208 1862.13 126.213 1864.59 129.431C1870.15 139.245 1879.74 144.517 1892.39 144.668C1893.49 144.679 1894.7 144.541 1895.86 144.406C1897.08 144.264 1899.32 144.002 1899.98 144.27C1899.96 144.299 1900.01 144.473 1900.02 144.812C1900.03 146.683 1899.92 148.58 1899.81 150.415C1899.43 156.617 1899.04 163.03 1903.5 169.327C1915.42 186.198 1940.14 192.517 1957.68 192.802C1958.52 192.817 1959.38 192.814 1960.24 192.797C1981.63 192.371 2007.83 182.471 2018.53 163.585C2019.28 162.265 2018.65 160.669 2017.13 160.022C2015.61 159.377 2013.76 159.919 2013.01 161.241C2003 178.89 1977.67 187.785 1957.79 187.477C1941.81 187.217 1919.37 181.579 1908.74 166.545C1905.28 161.657 1905.59 156.575 1905.95 150.69C1906.06 148.779 1906.18 146.804 1906.17 144.777C1906.15 142.83 1905.43 141.307 1904.02 140.25C1901.53 138.372 1897.93 138.79 1895.04 139.128C1894.06 139.243 1893.12 139.344 1892.48 139.343C1882.45 139.222 1875.1 135.285 1870.53 127.724C1870.46 127.54 1870.38 127.357 1870.25 127.182C1870.14 127.018 1870.01 126.86 1869.89 126.698C1869.87 126.661 1869.85 126.631 1869.83 126.592C1861.58 111.291 1866.6 87.9571 1876.59 77.317C1885.8 67.519 1905.56 59.7922 1920.28 63.9171C1925.79 65.4572 1930.15 62.1907 1933.66 59.5643C1934.69 58.7859 1935.67 58.0498 1936.59 57.4997C1943.19 53.5308 1953.62 52.2179 1963.13 54.1538C1970.31 55.6144 1980.24 59.5179 1986.81 69.796C1980.89 79.7704 1982.21 92.0158 1985.76 100.987C1985.72 101.223 1985.7 101.463 1985.74 101.71C1987.35 112.777 1976.86 125.819 1963.3 129.624C1949.71 133.432 1930.59 129.614 1924.85 118.045C1922.65 113.604 1922.62 108.86 1924.76 104.322C1927.6 98.3278 1933.92 93.1036 1941.69 90.3459C1945.6 88.9584 1953.45 87.4571 1957.9 89.3394C1959.31 89.9378 1960.15 90.8097 1960.56 92.0848C1960.92 93.1974 1960.77 94.2126 1960.11 95.1919C1958.89 97.0076 1955.95 98.6491 1952.62 99.3746C1950.97 99.7333 1949.97 101.181 1950.39 102.607C1950.8 104.032 1952.48 104.901 1954.12 104.54C1957.99 103.698 1962.98 101.504 1965.43 97.8706C1966.92 95.6501 1967.29 93.1575 1966.49 90.6632C1965.62 87.9307 1963.59 85.8205 1960.61 84.5568C1953.82 81.6778 1943.74 83.8614 1939.36 85.4181C1930.1 88.7049 1922.51 95.019 1919.07 102.308C1916.29 108.198 1916.33 114.366 1919.2 120.148C1924.73 131.297 1939.39 136.66 1953.36 136.381C1957.45 136.299 1961.47 135.735 1965.2 134.69C1977.87 131.138 1987.99 121.155 1991.07 110.52C1999.78 122.524 2015.09 132.282 2032.46 136.433C2046.26 139.725 2071.69 139.84 2081.24 126.125C2083.14 123.386 2083.42 120.535 2083.66 118.02C2083.83 116.251 2083.99 114.58 2084.71 113.21C2085.51 111.67 2086.09 111.564 2088.99 111.255C2089.59 111.19 2090.22 111.124 2090.89 111.033C2100.03 109.789 2107.24 104.73 2110.68 97.1534C2114.6 88.4933 2112.86 78.2037 2106.23 70.94C2099.25 63.2741 2087.45 59.1869 2074.69 60.0159C2062.34 60.8142 2051.75 66.1648 2046.36 74.3301C2045.52 75.6064 2046.03 77.2339 2047.5 77.9621C2048.98 78.6904 2050.86 78.2497 2051.7 76.9708C2056.08 70.345 2064.84 65.9908 2075.15 65.3257C2085.72 64.6489 2095.78 68.0581 2101.4 74.2382C2106.7 80.0455 2108.09 88.2774 2104.95 95.2106C2102.3 101.064 2096.97 104.816 2089.94 105.771C2089.35 105.852 2088.78 105.911 2088.25 105.968C2085.02 106.31 2081.36 106.699 2079.1 111.017C2077.95 113.226 2077.73 115.439 2077.53 117.58C2077.31 119.793 2077.13 121.704 2075.97 123.376C2068.59 133.975 2047.05 134.388 2034.11 131.297C2014.79 126.685 1998.31 114.616 1992.11 100.551C1988.56 92.4905 1986.74 79.8195 1993.31 70.6398C1997.81 64.3473 2007.13 54.1114 2019.04 56.2464L2019.05 56.2476C2020.71 56.5477 2022.34 55.6189 2022.69 54.1802C2022.87 53.4402 2022.67 52.7077 2022.21 52.1289C2021.92 49.5757 2023.43 39.693 2023.94 37.989C2030.35 17.9662 2055.52 7.51105 2076.95 4.40691C2101.32 0.878287 2127.76 9.81083 2144.3 27.1685C2146.38 29.36 2148.31 31.6894 2150.03 34.0893C2155.57 41.8451 2158.75 50.3621 2159.24 58.7171C2159.69 66.5896 2157.04 72.4231 2153.97 79.1775C2153.34 80.5771 2152.69 82.0093 2152.05 83.5013C2151.7 84.1998 2151.4 84.9198 2151.15 85.6587C2150.68 87.0437 2151.57 88.5001 2153.16 88.9402C2154.74 89.383 2156.45 88.6486 2157.01 87.2869C2157.26 86.6715 2157.51 86.0648 2157.77 85.4642C2159.6 81.8801 2163.2 79.0806 2168.51 77.1285C2180.6 72.683 2198.15 73.9789 2206.96 77.9797C2222.49 85.0318 2234.8 100.177 2236.23 113.99C2236.79 119.356 2234.56 122.27 2231.49 126.301C2230.26 127.917 2228.98 129.59 2227.78 131.575C2227.78 131.579 2227.78 131.583 2227.77 131.586C2226.98 132.889 2227.56 134.499 2229.07 135.18C2230.17 135.678 2231.45 135.546 2232.37 134.931C2234.81 134.915 2242.33 137.181 2243.91 137.971C2260.9 146.466 2273.6 163.491 2274.09 178.451C2274.44 188.941 2268.93 197.724 2258.16 203.851C2248.3 209.465 2236.52 212.587 2225.02 212.641C2220.04 212.664 2215.16 211.857 2210.01 211.002C2203.05 209.848 2195.86 208.659 2188.34 209.665C2176.98 211.19 2166.47 215.181 2156.31 219.04C2146.66 222.704 2136.69 226.491 2126.24 228.005C2120.08 228.901 2098.93 231.073 2085.95 221.447C2067.64 207.875 2063.97 183.012 2077.92 167.151C2087.24 156.554 2102.11 149.09 2117.69 147.181C2129.45 145.739 2141.07 148.034 2148.76 153.312C2158.26 159.84 2160.32 171.402 2153.35 179.087C2151.18 181.473 2148.3 183.295 2145.23 184.214C2138.99 186.077 2131.51 184.49 2125.51 183.214C2123.87 182.865 2122.19 183.736 2121.78 185.166C2121.38 186.595 2122.39 188.038 2124.04 188.388C2130.83 189.83 2139.29 191.625 2147.23 189.249C2151.47 187.98 2155.26 185.604 2158.19 182.376C2167.24 172.392 2164.73 157.484 2152.58 149.141C2143.6 142.973 2130.24 140.263 2116.83 141.908C2099.68 144.009 2083.3 152.242 2073.02 163.928C2061.6 176.912 2060.28 194.544 2067.95 209.275C2054.35 206.358 2037.33 212.378 2029.49 219.583C2016.77 231.275 2002.62 242.749 1982 243.455C1981.81 243.463 1981.61 243.468 1981.42 243.472C1967.13 243.757 1955.26 236.278 1943.78 229.042C1942.67 228.344 1941.57 227.651 1940.47 226.965C1932.73 222.147 1916.09 214.857 1902.77 218.115C1896.8 219.577 1892.31 223.106 1889.79 228.318C1889.14 229.675 1889.88 231.235 1891.44 231.801C1893.01 232.37 1894.81 231.729 1895.47 230.371C1897.29 226.605 1900.22 224.272 1904.45 223.239C1910.19 221.837 1917.85 223.104 1925.02 225.646C1925.01 225.844 1925.03 226.046 1925.08 226.249C1925.87 229.457 1917.59 234.975 1911.62 237.129C1904.78 239.599 1896.13 240.507 1887.24 239.689C1875.36 238.592 1862.19 233.319 1859.85 221.887C1860.91 221.501 1861.97 221.093 1863 220.639C1872.8 216.333 1880.11 209.163 1883.06 200.965C1885.62 193.875 1884.75 186.585 1880.56 179.882C1877.04 174.262 1871.06 170.749 1864.15 170.244C1857.75 169.78 1851.61 171.91 1848.08 175.804C1847.03 176.961 1847.26 178.635 1848.6 179.543C1849.94 180.451 1851.87 180.251 1852.92 179.092C1855.15 176.63 1859.36 175.23 1863.63 175.552C1866.45 175.758 1871.7 176.926 1875.15 182.423C1878.53 187.832 1879.24 193.696 1877.19 199.381C1874.73 206.213 1868.55 212.231 1860.22 215.889C1847.75 221.369 1832.36 221.216 1818 215.465C1809.6 212.104 1802.98 206.311 1795.97 200.179C1791.59 196.358 1787.08 192.408 1782.11 189.133C1776.92 185.712 1768.91 181.152 1759.31 181.055C1749.93 180.934 1742.88 185.28 1736.04 189.458C1729.54 193.426 1723.42 197.174 1715.77 196.807C1713.81 196.717 1711.85 196.347 1709.82 195.909Z" stroke="#ECE1D6" stroke-width="6" mask="url(#path-1-outside-1_0_1)"/>
<mask id="path-2-outside-2_0_1" maskUnits="userSpaceOnUse" x="-448.497" y="1202.66" width="480.982" height="269.431" fill="black">
<rect fill="white" x="-448.497" y="1202.66" width="480.982" height="269.431"/>
<path d="M-422.374 1341.35C-429.318 1338.78 -436.789 1339.63 -444.069 1340.61C-441.534 1339.58 -439.092 1338.42 -436.7 1337.28C-435.65 1336.78 -434.599 1336.28 -433.545 1335.79C-424.212 1331.48 -415.037 1327.87 -405.445 1330.81C-394.203 1334.27 -384.142 1342.9 -376.634 1350.04C-376.359 1350.31 -376.14 1350.61 -375.912 1350.92C-375.465 1351.5 -374.906 1352.23 -374.127 1352.89C-360.055 1364.69 -332.228 1377.01 -313.28 1362.6C-307.119 1357.92 -302.771 1351.6 -299.177 1346.05C-288.318 1329.26 -275.345 1314.54 -254.184 1320.39C-253.681 1320.53 -253.161 1320.75 -252.559 1321.01C-251.862 1321.32 -251.164 1321.61 -250.419 1321.85C-250.12 1321.94 -249.728 1322.08 -249.289 1322.24C-246.588 1323.2 -244.524 1323.86 -242.782 1323.58C-241.608 1323.39 -240.627 1322.62 -240.203 1321.56C-238.853 1318.17 -242.023 1315.58 -243.726 1314.19C-244.002 1313.96 -244.253 1313.77 -244.423 1313.6C-245.475 1312.56 -246.619 1311.74 -247.729 1310.96C-249.013 1310.05 -250.226 1309.18 -250.94 1308.17C-258.548 1297.34 -258.986 1286.5 -252.208 1276.82C-241.775 1261.92 -215.926 1252.7 -195.757 1256.71C-185.949 1258.65 -173.587 1264.46 -170.398 1281.04L-168.054 1293.23C-167.723 1294.97 -166.006 1296.13 -164.174 1295.81C-162.362 1295.5 -161.149 1293.85 -161.46 1292.11C-163.326 1281.66 -165.442 1269.83 -162.013 1259.3C-159.828 1252.59 -155.206 1245.9 -147.883 1238.83C-121.547 1213.41 -81.016 1202.27 -44.6493 1210.44C-27.5465 1214.28 -13.4218 1222.65 -0.198306 1236.78C8.31345 1245.87 18.594 1258.16 22.5621 1272.63C28.3296 1293.66 19.7135 1317.83 1.12036 1332.78C-16.2797 1346.77 -41.1842 1352.38 -65.4946 1347.78C-72.4162 1346.48 -78.6867 1344.41 -84.1819 1341.71C-87.2716 1339.28 -90.6995 1337.06 -94.4761 1335.12C-95.2486 1334.48 -96.0191 1333.83 -96.7308 1333.15C-112.511 1318.02 -110.833 1293.33 -100.23 1279.13C-90.862 1266.58 -76.6189 1263.58 -61.1518 1270.87C-56.3345 1273.14 -50.6357 1278.12 -49.5074 1283.66C-48.9203 1286.55 -49.7167 1289.13 -51.9486 1291.53C-53.1803 1292.85 -53.0585 1294.88 -51.6784 1296.06C-50.3004 1297.24 -48.1853 1297.12 -46.9495 1295.8C-43.3347 1291.91 -41.9454 1287.29 -42.9323 1282.43C-44.5037 1274.69 -51.7293 1268.16 -58.1946 1265.11C-76.6282 1256.42 -94.3783 1260.26 -105.675 1275.39C-116.212 1289.5 -119.001 1312.65 -107.795 1329.99C-118.252 1327.14 -130.572 1326.26 -144.812 1328.33C-159.54 1330.47 -179.046 1339.35 -185.551 1357.31C-192.532 1376.58 -180.044 1396.34 -164.746 1405.15C-154.66 1410.96 -140.639 1412.07 -130.645 1407.86C-123.03 1404.65 -118.12 1398.81 -116.447 1390.98C-113.849 1378.8 -121.644 1366.49 -133.468 1364.11C-139.993 1362.79 -146.063 1363.82 -149.708 1366.85C-151.648 1368.47 -153.886 1371.46 -153.531 1376.55C-153.311 1379.7 -151.344 1382.77 -148.403 1384.58C-145.694 1386.25 -142.557 1386.63 -139.791 1385.62C-138.061 1385 -137.188 1383.14 -137.845 1381.48C-138.499 1379.83 -140.436 1378.99 -142.162 1379.62C-143.246 1380.01 -144.356 1379.44 -144.784 1379.18C-145.959 1378.46 -146.768 1377.25 -146.849 1376.11C-146.988 1374.12 -146.488 1372.68 -145.317 1371.7C-143.307 1370.03 -139.205 1369.51 -134.852 1370.39C-125.699 1372.24 -121.342 1381.86 -123.011 1389.69C-124.244 1395.48 -127.72 1399.61 -133.34 1401.98C-141.464 1405.41 -152.964 1404.44 -161.295 1399.64C-174.332 1392.13 -185.046 1375.48 -179.224 1359.41C-173.698 1344.16 -156.695 1336.55 -143.813 1334.68C-124.931 1331.93 -109.786 1334.78 -98.2151 1340.55C-95.2007 1342.97 -91.7851 1345.11 -88.0784 1347C-81.4115 1352.32 -76.569 1358.72 -73.5142 1365.21C-64.0374 1385.35 -68.8774 1413.36 -83.3886 1433.38C-83.6781 1433.48 -83.9619 1433.61 -84.2238 1433.79C-85.1046 1434.39 -85.5769 1435.32 -85.6159 1436.28C-89.189 1440.72 -93.2589 1444.7 -97.7845 1448.01C-117.382 1462.33 -150.146 1466.28 -170.834 1456.82C-185.326 1450.19 -197.557 1437.8 -205.571 1421.73C-201.915 1420.56 -198.616 1418.96 -195.782 1416.96C-188.749 1412 -184.473 1404.26 -184.623 1396.75C-184.657 1394.98 -186.188 1393.57 -188.036 1393.6C-188.04 1393.6 -188.043 1393.6 -188.048 1393.6C-189.892 1393.65 -191.356 1395.11 -191.321 1396.88C-191.213 1402.33 -194.441 1408.04 -199.752 1411.79C-204.438 1415.1 -210.82 1417.08 -218.206 1417.51C-234.072 1418.46 -248.929 1412.37 -265.046 1398.38C-266.418 1397.19 -268.535 1397.29 -269.776 1398.61C-271.017 1399.92 -270.913 1401.95 -269.541 1403.15C-252.951 1417.54 -236.71 1424.38 -219.966 1424.01C-219.244 1424 -218.521 1423.97 -217.798 1423.93C-215.967 1423.82 -214.195 1423.61 -212.467 1423.33C-209.795 1433.88 -220.733 1444.41 -228.101 1449.22C-240.235 1457.14 -257.256 1458.8 -272.524 1453.55C-286.624 1448.7 -299.015 1437.07 -307.471 1420.79C-302.508 1415.17 -300.568 1407.76 -301.509 1401.4C-302.721 1393.2 -309.118 1384.44 -323.429 1384.45C-325.174 1384.45 -331.303 1384.84 -335.938 1389.83C-339.752 1393.93 -341.239 1399.72 -340.356 1407.02C-340.142 1408.78 -338.441 1410.04 -336.645 1409.84C-334.806 1409.63 -333.489 1408.04 -333.703 1406.27C-334.357 1400.87 -333.426 1396.78 -330.938 1394.1C-328.725 1391.72 -325.572 1390.88 -323.43 1390.87C-311.158 1390.87 -308.649 1398.87 -308.14 1402.31C-307.015 1409.91 -311.743 1419.42 -321.605 1422.17C-334.44 1425.74 -355.083 1421.81 -364.182 1410.47C-366.319 1407.8 -366.019 1405.63 -365.564 1402.35C-365.197 1399.69 -364.779 1396.68 -365.812 1393.19C-368.337 1384.66 -376.422 1385.26 -381.236 1385.62C-382.81 1385.74 -384.267 1385.77 -385.954 1385.9C-387.14 1385.99 -388.49 1386.1 -389.23 1385.91C-395.935 1384.15 -397.742 1378.01 -399.731 1368.85C-400.252 1366.45 -400.744 1364.18 -401.417 1362.04C-404.464 1352.33 -411.516 1345.37 -422.374 1341.35Z"/>
</mask>
<path d="M-422.374 1341.35C-429.318 1338.78 -436.789 1339.63 -444.069 1340.61C-441.534 1339.58 -439.092 1338.42 -436.7 1337.28C-435.65 1336.78 -434.599 1336.28 -433.545 1335.79C-424.212 1331.48 -415.037 1327.87 -405.445 1330.81C-394.203 1334.27 -384.142 1342.9 -376.634 1350.04C-376.359 1350.31 -376.14 1350.61 -375.912 1350.92C-375.465 1351.5 -374.906 1352.23 -374.127 1352.89C-360.055 1364.69 -332.228 1377.01 -313.28 1362.6C-307.119 1357.92 -302.771 1351.6 -299.177 1346.05C-288.318 1329.26 -275.345 1314.54 -254.184 1320.39C-253.681 1320.53 -253.161 1320.75 -252.559 1321.01C-251.862 1321.32 -251.164 1321.61 -250.419 1321.85C-250.12 1321.94 -249.728 1322.08 -249.289 1322.24C-246.588 1323.2 -244.524 1323.86 -242.782 1323.58C-241.608 1323.39 -240.627 1322.62 -240.203 1321.56C-238.853 1318.17 -242.023 1315.58 -243.726 1314.19C-244.002 1313.96 -244.253 1313.77 -244.423 1313.6C-245.475 1312.56 -246.619 1311.74 -247.729 1310.96C-249.013 1310.05 -250.226 1309.18 -250.94 1308.17C-258.548 1297.34 -258.986 1286.5 -252.208 1276.82C-241.775 1261.92 -215.926 1252.7 -195.757 1256.71C-185.949 1258.65 -173.587 1264.46 -170.398 1281.04L-168.054 1293.23C-167.723 1294.97 -166.006 1296.13 -164.174 1295.81C-162.362 1295.5 -161.149 1293.85 -161.46 1292.11C-163.326 1281.66 -165.442 1269.83 -162.013 1259.3C-159.828 1252.59 -155.206 1245.9 -147.883 1238.83C-121.547 1213.41 -81.016 1202.27 -44.6493 1210.44C-27.5465 1214.28 -13.4218 1222.65 -0.198306 1236.78C8.31345 1245.87 18.594 1258.16 22.5621 1272.63C28.3296 1293.66 19.7135 1317.83 1.12036 1332.78C-16.2797 1346.77 -41.1842 1352.38 -65.4946 1347.78C-72.4162 1346.48 -78.6867 1344.41 -84.1819 1341.71C-87.2716 1339.28 -90.6995 1337.06 -94.4761 1335.12C-95.2486 1334.48 -96.0191 1333.83 -96.7308 1333.15C-112.511 1318.02 -110.833 1293.33 -100.23 1279.13C-90.862 1266.58 -76.6189 1263.58 -61.1518 1270.87C-56.3345 1273.14 -50.6357 1278.12 -49.5074 1283.66C-48.9203 1286.55 -49.7167 1289.13 -51.9486 1291.53C-53.1803 1292.85 -53.0585 1294.88 -51.6784 1296.06C-50.3004 1297.24 -48.1853 1297.12 -46.9495 1295.8C-43.3347 1291.91 -41.9454 1287.29 -42.9323 1282.43C-44.5037 1274.69 -51.7293 1268.16 -58.1946 1265.11C-76.6282 1256.42 -94.3783 1260.26 -105.675 1275.39C-116.212 1289.5 -119.001 1312.65 -107.795 1329.99C-118.252 1327.14 -130.572 1326.26 -144.812 1328.33C-159.54 1330.47 -179.046 1339.35 -185.551 1357.31C-192.532 1376.58 -180.044 1396.34 -164.746 1405.15C-154.66 1410.96 -140.639 1412.07 -130.645 1407.86C-123.03 1404.65 -118.12 1398.81 -116.447 1390.98C-113.849 1378.8 -121.644 1366.49 -133.468 1364.11C-139.993 1362.79 -146.063 1363.82 -149.708 1366.85C-151.648 1368.47 -153.886 1371.46 -153.531 1376.55C-153.311 1379.7 -151.344 1382.77 -148.403 1384.58C-145.694 1386.25 -142.557 1386.63 -139.791 1385.62C-138.061 1385 -137.188 1383.14 -137.845 1381.48C-138.499 1379.83 -140.436 1378.99 -142.162 1379.62C-143.246 1380.01 -144.356 1379.44 -144.784 1379.18C-145.959 1378.46 -146.768 1377.25 -146.849 1376.11C-146.988 1374.12 -146.488 1372.68 -145.317 1371.7C-143.307 1370.03 -139.205 1369.51 -134.852 1370.39C-125.699 1372.24 -121.342 1381.86 -123.011 1389.69C-124.244 1395.48 -127.72 1399.61 -133.34 1401.98C-141.464 1405.41 -152.964 1404.44 -161.295 1399.64C-174.332 1392.13 -185.046 1375.48 -179.224 1359.41C-173.698 1344.16 -156.695 1336.55 -143.813 1334.68C-124.931 1331.93 -109.786 1334.78 -98.2151 1340.55C-95.2007 1342.97 -91.7851 1345.11 -88.0784 1347C-81.4115 1352.32 -76.569 1358.72 -73.5142 1365.21C-64.0374 1385.35 -68.8774 1413.36 -83.3886 1433.38C-83.6781 1433.48 -83.9619 1433.61 -84.2238 1433.79C-85.1046 1434.39 -85.5769 1435.32 -85.6159 1436.28C-89.189 1440.72 -93.2589 1444.7 -97.7845 1448.01C-117.382 1462.33 -150.146 1466.28 -170.834 1456.82C-185.326 1450.19 -197.557 1437.8 -205.571 1421.73C-201.915 1420.56 -198.616 1418.96 -195.782 1416.96C-188.749 1412 -184.473 1404.26 -184.623 1396.75C-184.657 1394.98 -186.188 1393.57 -188.036 1393.6C-188.04 1393.6 -188.043 1393.6 -188.048 1393.6C-189.892 1393.65 -191.356 1395.11 -191.321 1396.88C-191.213 1402.33 -194.441 1408.04 -199.752 1411.79C-204.438 1415.1 -210.82 1417.08 -218.206 1417.51C-234.072 1418.46 -248.929 1412.37 -265.046 1398.38C-266.418 1397.19 -268.535 1397.29 -269.776 1398.61C-271.017 1399.92 -270.913 1401.95 -269.541 1403.15C-252.951 1417.54 -236.71 1424.38 -219.966 1424.01C-219.244 1424 -218.521 1423.97 -217.798 1423.93C-215.967 1423.82 -214.195 1423.61 -212.467 1423.33C-209.795 1433.88 -220.733 1444.41 -228.101 1449.22C-240.235 1457.14 -257.256 1458.8 -272.524 1453.55C-286.624 1448.7 -299.015 1437.07 -307.471 1420.79C-302.508 1415.17 -300.568 1407.76 -301.509 1401.4C-302.721 1393.2 -309.118 1384.44 -323.429 1384.45C-325.174 1384.45 -331.303 1384.84 -335.938 1389.83C-339.752 1393.93 -341.239 1399.72 -340.356 1407.02C-340.142 1408.78 -338.441 1410.04 -336.645 1409.84C-334.806 1409.63 -333.489 1408.04 -333.703 1406.27C-334.357 1400.87 -333.426 1396.78 -330.938 1394.1C-328.725 1391.72 -325.572 1390.88 -323.43 1390.87C-311.158 1390.87 -308.649 1398.87 -308.14 1402.31C-307.015 1409.91 -311.743 1419.42 -321.605 1422.17C-334.44 1425.74 -355.083 1421.81 -364.182 1410.47C-366.319 1407.8 -366.019 1405.63 -365.564 1402.35C-365.197 1399.69 -364.779 1396.68 -365.812 1393.19C-368.337 1384.66 -376.422 1385.26 -381.236 1385.62C-382.81 1385.74 -384.267 1385.77 -385.954 1385.9C-387.14 1385.99 -388.49 1386.1 -389.23 1385.91C-395.935 1384.15 -397.742 1378.01 -399.731 1368.85C-400.252 1366.45 -400.744 1364.18 -401.417 1362.04C-404.464 1352.33 -411.516 1345.37 -422.374 1341.35Z" fill="white"/>
<path d="M-422.374 1341.35C-429.318 1338.78 -436.789 1339.63 -444.069 1340.61C-441.534 1339.58 -439.092 1338.42 -436.7 1337.28C-435.65 1336.78 -434.599 1336.28 -433.545 1335.79C-424.212 1331.48 -415.037 1327.87 -405.445 1330.81C-394.203 1334.27 -384.142 1342.9 -376.634 1350.04C-376.359 1350.31 -376.14 1350.61 -375.912 1350.92C-375.465 1351.5 -374.906 1352.23 -374.127 1352.89C-360.055 1364.69 -332.228 1377.01 -313.28 1362.6C-307.119 1357.92 -302.771 1351.6 -299.177 1346.05C-288.318 1329.26 -275.345 1314.54 -254.184 1320.39C-253.681 1320.53 -253.161 1320.75 -252.559 1321.01C-251.862 1321.32 -251.164 1321.61 -250.419 1321.85C-250.12 1321.94 -249.728 1322.08 -249.289 1322.24C-246.588 1323.2 -244.524 1323.86 -242.782 1323.58C-241.608 1323.39 -240.627 1322.62 -240.203 1321.56C-238.853 1318.17 -242.023 1315.58 -243.726 1314.19C-244.002 1313.96 -244.253 1313.77 -244.423 1313.6C-245.475 1312.56 -246.619 1311.74 -247.729 1310.96C-249.013 1310.05 -250.226 1309.18 -250.94 1308.17C-258.548 1297.34 -258.986 1286.5 -252.208 1276.82C-241.775 1261.92 -215.926 1252.7 -195.757 1256.71C-185.949 1258.65 -173.587 1264.46 -170.398 1281.04L-168.054 1293.23C-167.723 1294.97 -166.006 1296.13 -164.174 1295.81C-162.362 1295.5 -161.149 1293.85 -161.46 1292.11C-163.326 1281.66 -165.442 1269.83 -162.013 1259.3C-159.828 1252.59 -155.206 1245.9 -147.883 1238.83C-121.547 1213.41 -81.016 1202.27 -44.6493 1210.44C-27.5465 1214.28 -13.4218 1222.65 -0.198306 1236.78C8.31345 1245.87 18.594 1258.16 22.5621 1272.63C28.3296 1293.66 19.7135 1317.83 1.12036 1332.78C-16.2797 1346.77 -41.1842 1352.38 -65.4946 1347.78C-72.4162 1346.48 -78.6867 1344.41 -84.1819 1341.71C-87.2716 1339.28 -90.6995 1337.06 -94.4761 1335.12C-95.2486 1334.48 -96.0191 1333.83 -96.7308 1333.15C-112.511 1318.02 -110.833 1293.33 -100.23 1279.13C-90.862 1266.58 -76.6189 1263.58 -61.1518 1270.87C-56.3345 1273.14 -50.6357 1278.12 -49.5074 1283.66C-48.9203 1286.55 -49.7167 1289.13 -51.9486 1291.53C-53.1803 1292.85 -53.0585 1294.88 -51.6784 1296.06C-50.3004 1297.24 -48.1853 1297.12 -46.9495 1295.8C-43.3347 1291.91 -41.9454 1287.29 -42.9323 1282.43C-44.5037 1274.69 -51.7293 1268.16 -58.1946 1265.11C-76.6282 1256.42 -94.3783 1260.26 -105.675 1275.39C-116.212 1289.5 -119.001 1312.65 -107.795 1329.99C-118.252 1327.14 -130.572 1326.26 -144.812 1328.33C-159.54 1330.47 -179.046 1339.35 -185.551 1357.31C-192.532 1376.58 -180.044 1396.34 -164.746 1405.15C-154.66 1410.96 -140.639 1412.07 -130.645 1407.86C-123.03 1404.65 -118.12 1398.81 -116.447 1390.98C-113.849 1378.8 -121.644 1366.49 -133.468 1364.11C-139.993 1362.79 -146.063 1363.82 -149.708 1366.85C-151.648 1368.47 -153.886 1371.46 -153.531 1376.55C-153.311 1379.7 -151.344 1382.77 -148.403 1384.58C-145.694 1386.25 -142.557 1386.63 -139.791 1385.62C-138.061 1385 -137.188 1383.14 -137.845 1381.48C-138.499 1379.83 -140.436 1378.99 -142.162 1379.62C-143.246 1380.01 -144.356 1379.44 -144.784 1379.18C-145.959 1378.46 -146.768 1377.25 -146.849 1376.11C-146.988 1374.12 -146.488 1372.68 -145.317 1371.7C-143.307 1370.03 -139.205 1369.51 -134.852 1370.39C-125.699 1372.24 -121.342 1381.86 -123.011 1389.69C-124.244 1395.48 -127.72 1399.61 -133.34 1401.98C-141.464 1405.41 -152.964 1404.44 -161.295 1399.64C-174.332 1392.13 -185.046 1375.48 -179.224 1359.41C-173.698 1344.16 -156.695 1336.55 -143.813 1334.68C-124.931 1331.93 -109.786 1334.78 -98.2151 1340.55C-95.2007 1342.97 -91.7851 1345.11 -88.0784 1347C-81.4115 1352.32 -76.569 1358.72 -73.5142 1365.21C-64.0374 1385.35 -68.8774 1413.36 -83.3886 1433.38C-83.6781 1433.48 -83.9619 1433.61 -84.2238 1433.79C-85.1046 1434.39 -85.5769 1435.32 -85.6159 1436.28C-89.189 1440.72 -93.2589 1444.7 -97.7845 1448.01C-117.382 1462.33 -150.146 1466.28 -170.834 1456.82C-185.326 1450.19 -197.557 1437.8 -205.571 1421.73C-201.915 1420.56 -198.616 1418.96 -195.782 1416.96C-188.749 1412 -184.473 1404.26 -184.623 1396.75C-184.657 1394.98 -186.188 1393.57 -188.036 1393.6C-188.04 1393.6 -188.043 1393.6 -188.048 1393.6C-189.892 1393.65 -191.356 1395.11 -191.321 1396.88C-191.213 1402.33 -194.441 1408.04 -199.752 1411.79C-204.438 1415.1 -210.82 1417.08 -218.206 1417.51C-234.072 1418.46 -248.929 1412.37 -265.046 1398.38C-266.418 1397.19 -268.535 1397.29 -269.776 1398.61C-271.017 1399.92 -270.913 1401.95 -269.541 1403.15C-252.951 1417.54 -236.71 1424.38 -219.966 1424.01C-219.244 1424 -218.521 1423.97 -217.798 1423.93C-215.967 1423.82 -214.195 1423.61 -212.467 1423.33C-209.795 1433.88 -220.733 1444.41 -228.101 1449.22C-240.235 1457.14 -257.256 1458.8 -272.524 1453.55C-286.624 1448.7 -299.015 1437.07 -307.471 1420.79C-302.508 1415.17 -300.568 1407.76 -301.509 1401.4C-302.721 1393.2 -309.118 1384.44 -323.429 1384.45C-325.174 1384.45 -331.303 1384.84 -335.938 1389.83C-339.752 1393.93 -341.239 1399.72 -340.356 1407.02C-340.142 1408.78 -338.441 1410.04 -336.645 1409.84C-334.806 1409.63 -333.489 1408.04 -333.703 1406.27C-334.357 1400.87 -333.426 1396.78 -330.938 1394.1C-328.725 1391.72 -325.572 1390.88 -323.43 1390.87C-311.158 1390.87 -308.649 1398.87 -308.14 1402.31C-307.015 1409.91 -311.743 1419.42 -321.605 1422.17C-334.44 1425.74 -355.083 1421.81 -364.182 1410.47C-366.319 1407.8 -366.019 1405.63 -365.564 1402.35C-365.197 1399.69 -364.779 1396.68 -365.812 1393.19C-368.337 1384.66 -376.422 1385.26 -381.236 1385.62C-382.81 1385.74 -384.267 1385.77 -385.954 1385.9C-387.14 1385.99 -388.49 1386.1 -389.23 1385.91C-395.935 1384.15 -397.742 1378.01 -399.731 1368.85C-400.252 1366.45 -400.744 1364.18 -401.417 1362.04C-404.464 1352.33 -411.516 1345.37 -422.374 1341.35Z" stroke="#ECE1D8" stroke-width="6" mask="url(#path-2-outside-2_0_1)"/>
<path d="M26.0313 1306.15C22.0088 1317.7 14.6315 1328.43 4.48686 1336.58C-14.0701 1351.5 -40.6065 1357.56 -66.5095 1352.67L-66.5105 1352.67C-68.7808 1352.24 -70.9735 1351.7 -73.1425 1351.12L-77.3854 1349.98L-74.7252 1353.47C-72.3124 1356.65 -70.3209 1359.94 -68.7617 1363.26C-58.5021 1385.06 -63.3061 1414.58 -78.9069 1436.06L-79.592 1437L-78.846 1437.9C-72.9519 1444.99 -65.0925 1450.94 -56.456 1453.66C-47.7746 1456.39 -38.32 1455.85 -29.456 1449.94C-27.333 1448.53 -25.2264 1446.95 -23.4978 1445.52C-21.811 1444.13 -20.362 1442.77 -19.6616 1441.8L-19.269 1441.26L-19.4124 1440.6C-19.5317 1440.06 -19.3624 1439.45 -18.8723 1439.02L-18.8713 1439.02C-18.1093 1438.35 -16.9099 1438.41 -16.2248 1439.12L-16.2068 1439.14C-15.6232 1439.75 -15.0511 1440.35 -14.4867 1440.96L-12.8111 1442.75C-6.55244 1449.48 -0.917077 1455.57 8.83959 1459.14C18.1414 1462.55 29.0761 1463.39 38.87 1461.45C54.1633 1458.43 62.3954 1451.14 73.415 1441.43C74.1044 1440.83 74.8014 1440.21 75.509 1439.59L77.6664 1437.71C80.2649 1435.46 83.0875 1432.59 86.0166 1429.63C87.8883 1427.73 89.8561 1425.74 91.9322 1423.74L90.1635 1421.34C79.4777 1427.24 68.7002 1433.14 57.1249 1435.02C53.8546 1435.56 50.5839 1435.85 47.3485 1435.93C32.5761 1436.25 18.6015 1431.86 8.64196 1423.63L8.64194 1423.63C7.89261 1423.01 7.8198 1421.96 8.45333 1421.26L8.45526 1421.26C9.12419 1420.51 10.3228 1420.42 11.1049 1421.07L11.1069 1421.07C22.5441 1430.52 39.5083 1434.41 56.4925 1431.65C66.1993 1430.07 75.6789 1425.29 84.7035 1420.37L88.5425 1418.26C101.914 1410.88 115.198 1403.62 129.832 1404.04L129.87 1404.04L129.909 1404.04C132.258 1403.99 134.679 1404.13 137.184 1404.53L137.185 1404.53C137.54 1404.59 137.851 1404.75 138.108 1404.96L138.378 1405.19L138.72 1405.28C140.226 1405.65 141.723 1406.08 143.232 1406.62L143.879 1406.86C150.447 1409.37 156.465 1412.95 162.407 1416.49C173.413 1423.04 184.284 1429.54 198.168 1428.48L198.169 1428.48C205.78 1427.9 211.419 1425.35 215.919 1421.11C220.371 1416.91 223.62 1411.15 226.628 1404.34C227.88 1401.5 229.568 1397.69 232.064 1394.16C234.556 1390.64 237.782 1387.52 242.057 1385.95L246.674 1384.27L241.896 1383.09C241.677 1383.04 241.464 1382.98 241.253 1382.93L241.249 1382.93C238.16 1382.14 235.17 1381.91 231.332 1382.1L231.33 1382.1C228.986 1382.22 226.916 1383.09 224.841 1383.94L224.842 1383.94C223.942 1384.3 223.071 1384.66 222.175 1384.98L222.174 1384.98C219.636 1385.88 217.404 1386.89 215.303 1387.84L215.302 1387.84C209.888 1390.28 205.053 1392.47 197.348 1392.06C192.438 1391.8 187.511 1391.37 183.075 1389.36C173.828 1385.16 168.184 1377.59 162.489 1369.91C158.063 1363.93 153.707 1358.03 147.584 1353.92L147.583 1353.92C133.202 1344.25 112.818 1344.39 98.9338 1354.25L98.2007 1354.77L98.3165 1355.66C98.7487 1359.02 98.8229 1362.38 98.4437 1365.71L98.3617 1366.37C97.0924 1375.97 91.9077 1385.07 84.131 1391.29L83.4719 1391.8C76.546 1397.02 66.0486 1400.06 55.5948 1400.29C49.2693 1400.43 43.0476 1399.54 37.7466 1397.54C28.1508 1393.91 22.3674 1386.98 21.2089 1378.04L21.1417 1377.47C19.8913 1365.51 28.5919 1357.11 37.5847 1354.37C47.8122 1351.25 57.5808 1355.09 62.622 1364.12L62.622 1364.12C63.0359 1364.86 62.815 1365.81 62.0357 1366.31L61.8718 1366.4L61.694 1366.48C60.7946 1366.84 59.7676 1366.47 59.3359 1365.69L59.3359 1365.69C54.2784 1356.63 45.2858 1355.62 38.7348 1357.62C31.3682 1359.87 23.757 1366.88 24.8244 1377.14L24.8818 1377.63C25.9161 1385.59 30.839 1391.23 39.1509 1394.37C45.7525 1396.86 53.8758 1397.43 61.5482 1396.42C69.2108 1395.41 76.6162 1392.79 81.7188 1388.71C88.7961 1383.04 93.5297 1374.76 94.6919 1365.97C95.9463 1356.48 93.3603 1346.76 88.8114 1338.22C84.2611 1329.67 77.6909 1322.2 70.8059 1317.17L70.2942 1316.8C59.4775 1309.11 44.3038 1305.08 27.4397 1305.15L26.3799 1305.15L26.0313 1306.15Z" fill="white" stroke="#ECE1D8" stroke-width="3"/>
</svg>
