<svg width="345" height="398" viewBox="0 0 345 398" fill="none" xmlns="http://www.w3.org/2000/svg">
<g filter="url(#filter0_d_828_9916)">
<path d="M332.364 0C332.364 15.9701 338.449 28.916 345.955 28.916C346.307 28.916 346.655 28.8878 347 28.832V362.653C346.655 362.598 346.307 362.569 345.955 362.569C338.449 362.569 332.364 375.516 332.364 391.486C332.364 393.782 332.491 396.016 332.729 398.157H15.2266C15.4643 396.016 15.5908 393.782 15.5908 391.486C15.5908 375.516 9.50605 362.569 2 362.569V28.916C9.50605 28.916 15.5908 15.9701 15.5908 0H332.364Z" fill="white"/>
</g>
<mask id="path-2-inside-1_828_9916" fill="white">
<path d="M322.648 9.41016C322.648 24.6339 328.407 36.9756 335.511 36.9756C335.844 36.9756 336.174 36.9487 336.5 36.8955V355.114C336.174 355.061 335.844 355.034 335.511 355.034C328.407 355.034 322.648 367.376 322.648 382.6C322.648 384.788 322.768 386.917 322.993 388.958H22.5176C22.7425 386.917 22.8633 384.788 22.8633 382.6C22.8633 367.614 17.283 355.421 10.333 355.043L10.001 355.034V36.9756C17.1044 36.9753 22.8632 24.6345 22.8633 9.41113V9.41016H322.648Z"/>
</mask>
<path d="M322.648 9.41016C322.648 24.6339 328.407 36.9756 335.511 36.9756C335.844 36.9756 336.174 36.9487 336.5 36.8955V355.114C336.174 355.061 335.844 355.034 335.511 355.034C328.407 355.034 322.648 367.376 322.648 382.6C322.648 384.788 322.768 386.917 322.993 388.958H22.5176C22.7425 386.917 22.8633 384.788 22.8633 382.6C22.8633 367.614 17.283 355.421 10.333 355.043L10.001 355.034V36.9756C17.1044 36.9753 22.8632 24.6345 22.8633 9.41113V9.41016H322.648Z" fill="white"/>
<path d="M322.648 9.41016H323.648V8.41016H322.648V9.41016ZM335.511 36.9756V37.9756H335.511L335.511 36.9756ZM336.5 36.8955H337.5V35.7193L336.339 35.9085L336.5 36.8955ZM336.5 355.114L336.339 356.101L337.5 356.29V355.114H336.5ZM335.511 355.034L335.511 354.034H335.511V355.034ZM322.648 382.6H321.648H322.648ZM322.993 388.958V389.958H324.109L323.987 388.848L322.993 388.958ZM22.5176 388.958L21.5236 388.848L21.4013 389.958H22.5176V388.958ZM22.8633 382.6H23.8633H22.8633ZM10.333 355.043L10.3873 354.044L10.3734 354.044L10.3595 354.043L10.333 355.043ZM10.001 355.034H9.00098V356.008L9.97452 356.034L10.001 355.034ZM10.001 36.9756L10.0009 35.9756L9.00098 35.9756V36.9756H10.001ZM22.8633 9.41113L23.8633 9.41114V9.41113H22.8633ZM22.8633 9.41016V8.41016H21.8633V9.41016H22.8633ZM322.648 9.41016H321.648C321.648 17.1344 323.107 24.1763 325.51 29.3246C327.874 34.3916 331.34 37.9756 335.511 37.9756V36.9756V35.9756C332.578 35.9756 329.613 33.3887 327.322 28.4789C325.069 23.6504 323.648 16.9096 323.648 9.41016H322.648ZM335.511 36.9756L335.511 37.9756C335.898 37.9756 336.281 37.9444 336.661 37.8825L336.5 36.8955L336.339 35.9085C336.066 35.9531 335.79 35.9756 335.511 35.9756L335.511 36.9756ZM336.5 36.8955H335.5V355.114H336.5H337.5V36.8955H336.5ZM336.5 355.114L336.661 354.127C336.281 354.065 335.898 354.034 335.511 354.034L335.511 355.034L335.511 356.034C335.79 356.034 336.066 356.057 336.339 356.101L336.5 355.114ZM335.511 355.034V354.034C331.34 354.034 327.874 357.618 325.51 362.685C323.107 367.833 321.648 374.875 321.648 382.6H322.648H323.648C323.648 375.1 325.069 368.359 327.322 363.531C329.613 358.621 332.578 356.034 335.511 356.034V355.034ZM322.648 382.6H321.648C321.648 384.824 321.77 386.99 321.999 389.068L322.993 388.958L323.987 388.848C323.766 386.844 323.648 384.752 323.648 382.6H322.648ZM322.993 388.958V387.958H22.5176V388.958V389.958H322.993V388.958ZM22.5176 388.958L23.5116 389.068C23.7405 386.99 23.8633 384.825 23.8633 382.6H22.8633H21.8633C21.8633 384.751 21.7445 386.844 21.5236 388.848L22.5176 388.958ZM22.8633 382.6H23.8633C23.8633 374.995 22.4494 368.054 20.1144 362.929C17.815 357.882 14.4521 354.265 10.3873 354.044L10.333 355.043L10.2788 356.042C13.1639 356.198 16.0661 358.867 18.2944 363.758C20.487 368.57 21.8633 375.218 21.8633 382.6H22.8633ZM10.333 355.043L10.3595 354.043L10.0274 354.035L10.001 355.034L9.97452 356.034L10.3065 356.043L10.333 355.043ZM10.001 355.034H11.001V36.9756H10.001H9.00098V355.034H10.001ZM10.001 36.9756L10.001 37.9756C14.172 37.9754 17.6377 34.3917 20.002 29.3249C22.4043 24.1768 23.8632 17.1352 23.8633 9.41114L22.8633 9.41113L21.8633 9.41112C21.8632 16.9104 20.4427 23.6509 18.1897 28.4792C15.8987 33.3887 12.9333 35.9755 10.0009 35.9756L10.001 36.9756ZM22.8633 9.41113H23.8633V9.41016H22.8633H21.8633V9.41113H22.8633ZM22.8633 9.41016V10.4102H322.648V9.41016V8.41016H22.8633V9.41016Z" fill="#D9B881" mask="url(#path-2-inside-1_828_9916)"/>
<defs>
<filter id="filter0_d_828_9916" x="-14" y="-16" width="377" height="430.157" filterUnits="userSpaceOnUse" color-interpolation-filters="sRGB">
<feFlood flood-opacity="0" result="BackgroundImageFix"/>
<feColorMatrix in="SourceAlpha" type="matrix" values="0 0 0 0 0 0 0 0 0 0 0 0 0 0 0 0 0 0 127 0" result="hardAlpha"/>
<feOffset/>
<feGaussianBlur stdDeviation="8"/>
<feComposite in2="hardAlpha" operator="out"/>
<feColorMatrix type="matrix" values="0 0 0 0 0.44391 0 0 0 0 0.44391 0 0 0 0 0.44391 0 0 0 0.25 0"/>
<feBlend mode="normal" in2="BackgroundImageFix" result="effect1_dropShadow_828_9916"/>
<feBlend mode="normal" in="SourceGraphic" in2="effect1_dropShadow_828_9916" result="shape"/>
</filter>
</defs>
</svg>
