<svg width="701" height="367" viewBox="0 0 701 367" fill="none" xmlns="http://www.w3.org/2000/svg">
<g clip-path="url(#clip0_162_651)">
<g filter="url(#filter0_d_162_651)">
<path d="M671.346 0C671.346 14.5104 683.674 26.2734 698.882 26.2734C699.594 26.2734 700.3 26.248 700.999 26.1973V329.506C700.3 329.455 699.594 329.431 698.882 329.431C683.674 329.431 671.346 341.194 671.346 355.704C671.346 357.79 671.601 359.82 672.083 361.766H28.7988C29.2805 359.82 29.5361 357.79 29.5361 355.704C29.5361 341.42 17.5903 329.798 2.71094 329.438L2 329.431V26.2734C17.2079 26.2734 29.5361 14.5104 29.5361 0H671.346Z" fill="#A50000"/>
</g>
<mask id="path-2-inside-1_162_651" fill="white">
<path d="M658.812 14C658.813 27.3947 670.615 38.2529 685.175 38.2529C685.857 38.2529 686.533 38.2294 687.202 38.1826V318.172C686.533 318.125 685.857 318.103 685.175 318.103C670.615 318.103 658.813 328.961 658.812 342.355C658.812 344.281 659.057 346.155 659.519 347.951H43.6562C44.1174 346.155 44.3623 344.281 44.3623 342.355C44.3623 329.17 32.9256 318.443 18.6807 318.11L18 318.103V38.2529C32.5595 38.2529 44.3622 27.3947 44.3623 14H658.812Z"/>
</mask>
<path d="M658.812 14C658.813 27.3947 670.615 38.2529 685.175 38.2529C685.857 38.2529 686.533 38.2294 687.202 38.1826V318.172C686.533 318.125 685.857 318.103 685.175 318.103C670.615 318.103 658.813 328.961 658.812 342.355C658.812 344.281 659.057 346.155 659.519 347.951H43.6562C44.1174 346.155 44.3623 344.281 44.3623 342.355C44.3623 329.17 32.9256 318.443 18.6807 318.11L18 318.103V38.2529C32.5595 38.2529 44.3622 27.3947 44.3623 14H658.812Z" fill="#A50000"/>
<path d="M658.812 14L659.812 14L659.812 13H658.812V14ZM685.175 38.2529L685.175 39.2529L685.175 39.2529L685.175 38.2529ZM687.202 38.1826H688.202V37.1102L687.132 37.1851L687.202 38.1826ZM687.202 318.172L687.132 319.169L688.202 319.244V318.172H687.202ZM685.175 318.103L685.175 317.103H685.175V318.103ZM658.812 342.355L657.812 342.355V342.355H658.812ZM659.519 347.951V348.951H660.808L660.487 347.703L659.519 347.951ZM43.6562 347.951L42.6877 347.703L42.3671 348.951H43.6562V347.951ZM44.3623 342.355L45.3623 342.355L45.3623 342.355L44.3623 342.355ZM18.6807 318.11L18.704 317.111L18.6921 317.11L18.6807 318.11ZM18 318.103H17V319.091L17.9885 319.102L18 318.103ZM18 38.2529L18 37.2529L17 37.2529V38.2529H18ZM44.3623 14V13H43.3623L43.3623 14L44.3623 14ZM658.812 14L657.813 14C657.813 28.0239 670.143 39.2529 685.175 39.2529V38.2529V37.2529C671.087 37.2529 659.813 26.7656 659.812 14L658.812 14ZM685.175 38.2529L685.175 39.2529C685.88 39.2529 686.579 39.2286 687.272 39.1802L687.202 38.1826L687.132 37.1851C686.487 37.2302 685.834 37.2529 685.175 37.2529L685.175 38.2529ZM687.202 38.1826H686.202V318.172H687.202H688.202V38.1826H687.202ZM687.202 318.172L687.272 317.174C686.578 317.126 685.879 317.103 685.175 317.103L685.175 318.103L685.175 319.103C685.835 319.103 686.488 319.124 687.132 319.169L687.202 318.172ZM685.175 318.103V317.103C670.143 317.103 657.813 328.332 657.813 342.355L658.812 342.355L659.812 342.355C659.813 329.59 671.087 319.103 685.175 319.103V318.103ZM658.812 342.355H657.812C657.812 344.367 658.068 346.323 658.55 348.2L659.519 347.951L660.487 347.703C660.047 345.986 659.812 344.196 659.812 342.355H658.812ZM659.519 347.951V346.951H43.6562V347.951V348.951H659.519V347.951ZM43.6562 347.951L44.6248 348.2C45.1065 346.324 45.3623 344.367 45.3623 342.355H44.3623H43.3623C43.3623 344.196 43.1283 345.986 42.6877 347.703L43.6562 347.951ZM44.3623 342.355L45.3623 342.355C45.3623 328.551 33.4132 317.454 18.704 317.111L18.6807 318.11L18.6573 319.11C32.438 319.431 43.3623 329.789 43.3623 342.355L44.3623 342.355ZM18.6807 318.11L18.6921 317.11L18.0115 317.103L18 318.103L17.9885 319.102L18.6692 319.11L18.6807 318.11ZM18 318.103H19V38.2529H18H17V318.103H18ZM18 38.2529L18 39.2529C33.0316 39.2529 45.3622 28.0239 45.3623 14L44.3623 14L43.3623 14C43.3622 26.7655 32.0874 37.2529 18 37.2529L18 38.2529ZM44.3623 14V15H658.812V14V13H44.3623V14Z" fill="#FFE2B4" mask="url(#path-2-inside-1_162_651)"/>
<path d="M73.4318 80.8182V85.5909H57.9545V80.8182H73.4318ZM61.8239 107V78.3466C61.8239 76.5852 62.1875 75.1193 62.9148 73.9489C63.6534 72.7784 64.642 71.9034 65.8807 71.3239C67.1193 70.7443 68.4943 70.4545 70.0057 70.4545C71.0739 70.4545 72.0227 70.5398 72.8523 70.7102C73.6818 70.8807 74.2955 71.0341 74.6932 71.1705L73.4659 75.9432C73.2045 75.8636 72.875 75.7841 72.4773 75.7045C72.0795 75.6136 71.6364 75.5682 71.1477 75.5682C70 75.5682 69.1875 75.8466 68.7102 76.4034C68.2443 76.9489 68.0114 77.733 68.0114 78.7557V107H61.8239ZM78.2642 107V80.8182H84.2472V85.1818H84.5199C84.9972 83.6705 85.8153 82.5057 86.9744 81.6875C88.1449 80.858 89.4801 80.4432 90.9801 80.4432C91.321 80.4432 91.7017 80.4602 92.1222 80.4943C92.554 80.517 92.9119 80.5568 93.196 80.6136V86.2898C92.9347 86.1989 92.5199 86.1193 91.9517 86.0511C91.3949 85.9716 90.8551 85.9318 90.3324 85.9318C89.2074 85.9318 88.196 86.1761 87.2983 86.6648C86.4119 87.142 85.7131 87.8068 85.2017 88.6591C84.6903 89.5114 84.4347 90.4943 84.4347 91.608V107H78.2642ZM107.808 107.511C105.183 107.511 102.916 106.966 101.007 105.875C99.1094 104.773 97.6491 103.216 96.6264 101.205C95.6037 99.1818 95.0923 96.8011 95.0923 94.0625C95.0923 91.3693 95.6037 89.0057 96.6264 86.9716C97.6605 84.9261 99.1037 83.3352 100.956 82.1989C102.808 81.0511 104.984 80.4773 107.484 80.4773C109.098 80.4773 110.621 80.7386 112.053 81.2614C113.496 81.7727 114.768 82.5682 115.871 83.6477C116.984 84.7273 117.859 86.1023 118.496 87.7727C119.132 89.4318 119.45 91.4091 119.45 93.7045V95.5966H97.9901V91.4375H113.536C113.524 90.2557 113.268 89.2045 112.768 88.2841C112.268 87.3523 111.57 86.6193 110.672 86.0852C109.786 85.5511 108.751 85.2841 107.57 85.2841C106.308 85.2841 105.2 85.5909 104.246 86.2045C103.291 86.8068 102.547 87.6023 102.013 88.5909C101.49 89.5682 101.223 90.642 101.212 91.8125V95.4432C101.212 96.9659 101.49 98.2727 102.047 99.3636C102.604 100.443 103.382 101.273 104.382 101.852C105.382 102.42 106.553 102.705 107.893 102.705C108.791 102.705 109.604 102.58 110.331 102.33C111.058 102.068 111.689 101.688 112.223 101.188C112.757 100.688 113.161 100.068 113.433 99.3295L119.195 99.9773C118.831 101.5 118.138 102.83 117.115 103.966C116.104 105.091 114.808 105.966 113.229 106.591C111.649 107.205 109.842 107.511 107.808 107.511ZM136.261 107.511C133.636 107.511 131.369 106.966 129.46 105.875C127.563 104.773 126.102 103.216 125.08 101.205C124.057 99.1818 123.545 96.8011 123.545 94.0625C123.545 91.3693 124.057 89.0057 125.08 86.9716C126.114 84.9261 127.557 83.3352 129.409 82.1989C131.261 81.0511 133.438 80.4773 135.938 80.4773C137.551 80.4773 139.074 80.7386 140.506 81.2614C141.949 81.7727 143.222 82.5682 144.324 83.6477C145.438 84.7273 146.313 86.1023 146.949 87.7727C147.585 89.4318 147.903 91.4091 147.903 93.7045V95.5966H126.443V91.4375H141.989C141.977 90.2557 141.722 89.2045 141.222 88.2841C140.722 87.3523 140.023 86.6193 139.125 86.0852C138.239 85.5511 137.205 85.2841 136.023 85.2841C134.761 85.2841 133.653 85.5909 132.699 86.2045C131.744 86.8068 131 87.6023 130.466 88.5909C129.943 89.5682 129.676 90.642 129.665 91.8125V95.4432C129.665 96.9659 129.943 98.2727 130.5 99.3636C131.057 100.443 131.835 101.273 132.835 101.852C133.835 102.42 135.006 102.705 136.347 102.705C137.244 102.705 138.057 102.58 138.784 102.33C139.511 102.068 140.142 101.688 140.676 101.188C141.21 100.688 141.614 100.068 141.886 99.3295L147.648 99.9773C147.284 101.5 146.591 102.83 145.568 103.966C144.557 105.091 143.261 105.966 141.682 106.591C140.102 107.205 138.295 107.511 136.261 107.511ZM178.104 80.8182V85.5909H163.053V80.8182H178.104ZM166.768 74.5455H172.939V99.125C172.939 99.9545 173.064 100.591 173.314 101.034C173.575 101.466 173.916 101.761 174.337 101.92C174.757 102.08 175.223 102.159 175.734 102.159C176.121 102.159 176.473 102.131 176.791 102.074C177.121 102.017 177.371 101.966 177.541 101.92L178.581 106.744C178.251 106.858 177.78 106.983 177.166 107.119C176.564 107.256 175.825 107.335 174.95 107.358C173.405 107.403 172.013 107.17 170.774 106.659C169.536 106.136 168.553 105.33 167.825 104.239C167.109 103.148 166.757 101.784 166.768 100.148V74.5455ZM183.264 107V80.8182H189.247V85.1818H189.52C189.997 83.6705 190.815 82.5057 191.974 81.6875C193.145 80.858 194.48 80.4432 195.98 80.4432C196.321 80.4432 196.702 80.4602 197.122 80.4943C197.554 80.517 197.912 80.5568 198.196 80.6136V86.2898C197.935 86.1989 197.52 86.1193 196.952 86.0511C196.395 85.9716 195.855 85.9318 195.332 85.9318C194.207 85.9318 193.196 86.1761 192.298 86.6648C191.412 87.142 190.713 87.8068 190.202 88.6591C189.69 89.5114 189.435 90.4943 189.435 91.608V107H183.264ZM202.295 107V80.8182H208.466V107H202.295ZM205.398 77.1023C204.42 77.1023 203.58 76.7784 202.875 76.1307C202.17 75.4716 201.818 74.6818 201.818 73.7614C201.818 72.8295 202.17 72.0398 202.875 71.392C203.58 70.733 204.42 70.4034 205.398 70.4034C206.386 70.4034 207.227 70.733 207.92 71.392C208.625 72.0398 208.977 72.8295 208.977 73.7614C208.977 74.6818 208.625 75.4716 207.92 76.1307C207.227 76.7784 206.386 77.1023 205.398 77.1023ZM222.345 107.528C220.686 107.528 219.192 107.233 217.862 106.642C216.544 106.04 215.499 105.153 214.726 103.983C213.964 102.812 213.584 101.369 213.584 99.6534C213.584 98.1761 213.857 96.9545 214.402 95.9886C214.947 95.0227 215.692 94.25 216.635 93.6705C217.578 93.0909 218.641 92.6534 219.822 92.358C221.016 92.0511 222.249 91.8295 223.521 91.6932C225.055 91.5341 226.3 91.392 227.254 91.267C228.209 91.1307 228.902 90.9261 229.334 90.6534C229.777 90.3693 229.999 89.9318 229.999 89.3409V89.2386C229.999 87.9545 229.618 86.9602 228.857 86.2557C228.095 85.5511 226.999 85.1989 225.567 85.1989C224.055 85.1989 222.857 85.5284 221.97 86.1875C221.095 86.8466 220.504 87.625 220.197 88.5227L214.436 87.7045C214.891 86.1136 215.641 84.7841 216.686 83.7159C217.732 82.6364 219.01 81.8295 220.521 81.2955C222.033 80.75 223.703 80.4773 225.533 80.4773C226.794 80.4773 228.05 80.625 229.3 80.9205C230.55 81.2159 231.692 81.7045 232.726 82.3864C233.76 83.0568 234.589 83.9716 235.214 85.1307C235.851 86.2898 236.169 87.7386 236.169 89.4773V107H230.237V103.403H230.033C229.658 104.131 229.129 104.812 228.447 105.449C227.777 106.074 226.93 106.58 225.908 106.966C224.896 107.341 223.709 107.528 222.345 107.528ZM223.947 102.994C225.186 102.994 226.26 102.75 227.169 102.261C228.078 101.761 228.777 101.102 229.266 100.284C229.766 99.4659 230.016 98.5739 230.016 97.608V94.5227C229.822 94.6818 229.493 94.8295 229.027 94.9659C228.572 95.1023 228.061 95.2216 227.493 95.3239C226.925 95.4261 226.362 95.517 225.805 95.5966C225.249 95.6761 224.766 95.7443 224.357 95.8011C223.436 95.9261 222.612 96.1307 221.885 96.4148C221.158 96.6989 220.584 97.0966 220.163 97.608C219.743 98.108 219.533 98.7557 219.533 99.5511C219.533 100.688 219.947 101.545 220.777 102.125C221.607 102.705 222.663 102.994 223.947 102.994ZM248.544 72.0909V107H242.374V72.0909H248.544ZM66.3409 130.091V165H60.1705V130.091H66.3409ZM84.277 165.511C81.652 165.511 79.3849 164.966 77.4759 163.875C75.5781 162.773 74.1179 161.216 73.0952 159.205C72.0724 157.182 71.5611 154.801 71.5611 152.062C71.5611 149.369 72.0724 147.006 73.0952 144.972C74.1293 142.926 75.5724 141.335 77.4247 140.199C79.277 139.051 81.4531 138.477 83.9531 138.477C85.5668 138.477 87.0895 138.739 88.5213 139.261C89.9645 139.773 91.2372 140.568 92.3395 141.648C93.4531 142.727 94.3281 144.102 94.9645 145.773C95.6009 147.432 95.919 149.409 95.919 151.705V153.597H74.4588V149.438H90.0043C89.9929 148.256 89.7372 147.205 89.2372 146.284C88.7372 145.352 88.0384 144.619 87.1406 144.085C86.2543 143.551 85.2202 143.284 84.0384 143.284C82.777 143.284 81.669 143.591 80.7145 144.205C79.7599 144.807 79.0156 145.602 78.4815 146.591C77.9588 147.568 77.6918 148.642 77.6804 149.812V153.443C77.6804 154.966 77.9588 156.273 78.5156 157.364C79.0724 158.443 79.8509 159.273 80.8509 159.852C81.8509 160.42 83.0213 160.705 84.3622 160.705C85.2599 160.705 86.0724 160.58 86.7997 160.33C87.527 160.068 88.1577 159.688 88.6918 159.188C89.2259 158.688 89.6293 158.068 89.902 157.33L95.6634 157.977C95.2997 159.5 94.6065 160.83 93.5838 161.966C92.5724 163.091 91.277 163.966 89.6974 164.591C88.1179 165.205 86.3111 165.511 84.277 165.511ZM121.832 145.739L116.207 146.352C116.048 145.784 115.77 145.25 115.372 144.75C114.986 144.25 114.463 143.847 113.804 143.54C113.145 143.233 112.338 143.08 111.384 143.08C110.099 143.08 109.02 143.358 108.145 143.915C107.281 144.472 106.855 145.193 106.866 146.08C106.855 146.841 107.134 147.46 107.702 147.938C108.281 148.415 109.236 148.807 110.565 149.114L115.031 150.068C117.509 150.602 119.349 151.449 120.554 152.608C121.77 153.767 122.384 155.284 122.395 157.159C122.384 158.807 121.901 160.261 120.946 161.523C120.003 162.773 118.69 163.75 117.009 164.455C115.327 165.159 113.395 165.511 111.213 165.511C108.009 165.511 105.429 164.841 103.474 163.5C101.52 162.148 100.355 160.267 99.9801 157.858L105.997 157.278C106.27 158.46 106.849 159.352 107.736 159.955C108.622 160.557 109.776 160.858 111.196 160.858C112.662 160.858 113.838 160.557 114.724 159.955C115.622 159.352 116.071 158.608 116.071 157.722C116.071 156.972 115.781 156.352 115.202 155.864C114.634 155.375 113.747 155 112.543 154.739L108.077 153.801C105.565 153.278 103.707 152.398 102.503 151.159C101.298 149.909 100.702 148.33 100.713 146.42C100.702 144.807 101.139 143.409 102.026 142.227C102.923 141.034 104.168 140.114 105.759 139.466C107.361 138.807 109.207 138.477 111.298 138.477C114.366 138.477 116.781 139.131 118.543 140.438C120.315 141.744 121.412 143.511 121.832 145.739ZM148.176 145.739L142.551 146.352C142.392 145.784 142.114 145.25 141.716 144.75C141.33 144.25 140.807 143.847 140.148 143.54C139.489 143.233 138.682 143.08 137.727 143.08C136.443 143.08 135.364 143.358 134.489 143.915C133.625 144.472 133.199 145.193 133.21 146.08C133.199 146.841 133.477 147.46 134.045 147.938C134.625 148.415 135.58 148.807 136.909 149.114L141.375 150.068C143.852 150.602 145.693 151.449 146.898 152.608C148.114 153.767 148.727 155.284 148.739 157.159C148.727 158.807 148.244 160.261 147.29 161.523C146.347 162.773 145.034 163.75 143.352 164.455C141.67 165.159 139.739 165.511 137.557 165.511C134.352 165.511 131.773 164.841 129.818 163.5C127.864 162.148 126.699 160.267 126.324 157.858L132.341 157.278C132.614 158.46 133.193 159.352 134.08 159.955C134.966 160.557 136.119 160.858 137.54 160.858C139.006 160.858 140.182 160.557 141.068 159.955C141.966 159.352 142.415 158.608 142.415 157.722C142.415 156.972 142.125 156.352 141.545 155.864C140.977 155.375 140.091 155 138.886 154.739L134.42 153.801C131.909 153.278 130.051 152.398 128.847 151.159C127.642 149.909 127.045 148.33 127.057 146.42C127.045 144.807 127.483 143.409 128.369 142.227C129.267 141.034 130.511 140.114 132.102 139.466C133.705 138.807 135.551 138.477 137.642 138.477C140.71 138.477 143.125 139.131 144.886 140.438C146.659 141.744 147.756 143.511 148.176 145.739ZM165.247 165.511C162.69 165.511 160.474 164.949 158.599 163.824C156.724 162.699 155.27 161.125 154.236 159.102C153.213 157.08 152.702 154.716 152.702 152.011C152.702 149.307 153.213 146.937 154.236 144.903C155.27 142.869 156.724 141.29 158.599 140.165C160.474 139.04 162.69 138.477 165.247 138.477C167.804 138.477 170.02 139.04 171.895 140.165C173.77 141.29 175.219 142.869 176.241 144.903C177.276 146.937 177.793 149.307 177.793 152.011C177.793 154.716 177.276 157.08 176.241 159.102C175.219 161.125 173.77 162.699 171.895 163.824C170.02 164.949 167.804 165.511 165.247 165.511ZM165.281 160.568C166.668 160.568 167.827 160.187 168.759 159.426C169.69 158.653 170.384 157.619 170.838 156.324C171.304 155.028 171.537 153.585 171.537 151.994C171.537 150.392 171.304 148.943 170.838 147.648C170.384 146.341 169.69 145.301 168.759 144.528C167.827 143.756 166.668 143.369 165.281 143.369C163.861 143.369 162.679 143.756 161.736 144.528C160.804 145.301 160.105 146.341 159.639 147.648C159.185 148.943 158.957 150.392 158.957 151.994C158.957 153.585 159.185 155.028 159.639 156.324C160.105 157.619 160.804 158.653 161.736 159.426C162.679 160.187 163.861 160.568 165.281 160.568ZM189.2 149.659V165H183.03V138.818H188.928V143.267H189.234C189.837 141.801 190.797 140.636 192.115 139.773C193.445 138.909 195.087 138.477 197.041 138.477C198.848 138.477 200.422 138.864 201.763 139.636C203.115 140.409 204.161 141.528 204.899 142.994C205.649 144.46 206.018 146.239 206.007 148.33V165H199.837V149.284C199.837 147.534 199.382 146.165 198.473 145.176C197.575 144.187 196.331 143.693 194.74 143.693C193.661 143.693 192.7 143.932 191.859 144.409C191.03 144.875 190.376 145.551 189.899 146.438C189.433 147.324 189.2 148.398 189.2 149.659Z" fill="white"/>
<rect x="57" y="215" width="337" height="76" rx="8" fill="white"/>
<path d="M107.511 251.963L102.526 252.27C102.44 251.844 102.257 251.46 101.976 251.119C101.695 250.77 101.324 250.493 100.864 250.288C100.412 250.075 99.8707 249.969 99.2401 249.969C98.3963 249.969 97.6847 250.148 97.1051 250.506C96.5256 250.855 96.2358 251.324 96.2358 251.912C96.2358 252.381 96.4233 252.777 96.7983 253.101C97.1733 253.425 97.8168 253.685 98.7287 253.881L102.283 254.597C104.192 254.989 105.615 255.619 106.553 256.489C107.49 257.358 107.959 258.5 107.959 259.915C107.959 261.202 107.58 262.331 106.821 263.303C106.071 264.274 105.04 265.033 103.727 265.578C102.423 266.115 100.919 266.384 99.2145 266.384C96.6151 266.384 94.544 265.842 93.0014 264.76C91.4673 263.669 90.5682 262.186 90.304 260.311L95.6605 260.03C95.8224 260.822 96.2145 261.428 96.8366 261.845C97.4588 262.254 98.2557 262.459 99.2273 262.459C100.182 262.459 100.949 262.276 101.528 261.909C102.116 261.534 102.415 261.053 102.423 260.464C102.415 259.97 102.206 259.565 101.797 259.25C101.388 258.926 100.757 258.679 99.9048 258.509L96.5043 257.831C94.5866 257.447 93.1591 256.783 92.2216 255.837C91.2926 254.891 90.8281 253.685 90.8281 252.219C90.8281 250.957 91.169 249.871 91.8509 248.959C92.5412 248.047 93.5085 247.344 94.7528 246.849C96.0057 246.355 97.4716 246.108 99.1506 246.108C101.631 246.108 103.582 246.632 105.006 247.68C106.438 248.729 107.273 250.156 107.511 251.963ZM111.388 266V246.364H116.834V266H111.388ZM114.124 243.832C113.314 243.832 112.62 243.564 112.04 243.027C111.469 242.482 111.184 241.83 111.184 241.071C111.184 240.321 111.469 239.678 112.04 239.141C112.62 238.595 113.314 238.322 114.124 238.322C114.934 238.322 115.624 238.595 116.195 239.141C116.775 239.678 117.064 240.321 117.064 241.071C117.064 241.83 116.775 242.482 116.195 243.027C115.624 243.564 114.934 243.832 114.124 243.832ZM130.043 273.773C128.279 273.773 126.766 273.53 125.505 273.044C124.252 272.567 123.255 271.915 122.513 271.088C121.772 270.261 121.29 269.332 121.069 268.301L126.106 267.624C126.259 268.016 126.502 268.382 126.835 268.723C127.167 269.064 127.606 269.337 128.151 269.541C128.705 269.754 129.379 269.861 130.171 269.861C131.356 269.861 132.332 269.571 133.099 268.991C133.874 268.42 134.262 267.462 134.262 266.115V262.523H134.032C133.793 263.068 133.435 263.584 132.958 264.07C132.481 264.555 131.867 264.952 131.117 265.259C130.367 265.565 129.472 265.719 128.433 265.719C126.958 265.719 125.616 265.378 124.406 264.696C123.204 264.006 122.245 262.953 121.529 261.538C120.822 260.115 120.468 258.317 120.468 256.143C120.468 253.919 120.83 252.061 121.555 250.57C122.279 249.078 123.242 247.962 124.444 247.22C125.654 246.479 126.979 246.108 128.42 246.108C129.519 246.108 130.44 246.295 131.181 246.67C131.923 247.037 132.519 247.497 132.971 248.051C133.431 248.597 133.785 249.134 134.032 249.662H134.237V246.364H139.644V266.192C139.644 267.862 139.235 269.26 138.417 270.385C137.599 271.51 136.465 272.354 135.016 272.916C133.576 273.487 131.918 273.773 130.043 273.773ZM130.158 261.628C131.036 261.628 131.778 261.411 132.383 260.976C132.996 260.533 133.465 259.902 133.789 259.084C134.121 258.257 134.288 257.268 134.288 256.118C134.288 254.967 134.126 253.97 133.802 253.126C133.478 252.274 133.009 251.614 132.396 251.145C131.782 250.676 131.036 250.442 130.158 250.442C129.263 250.442 128.509 250.685 127.896 251.17C127.282 251.648 126.817 252.312 126.502 253.165C126.187 254.017 126.029 255.001 126.029 256.118C126.029 257.251 126.187 258.232 126.502 259.058C126.826 259.876 127.29 260.511 127.896 260.963C128.509 261.406 129.263 261.628 130.158 261.628ZM149.424 254.648V266H143.978V246.364H149.168V249.828H149.398C149.833 248.686 150.562 247.783 151.585 247.118C152.607 246.445 153.847 246.108 155.305 246.108C156.668 246.108 157.857 246.406 158.871 247.003C159.886 247.599 160.674 248.452 161.237 249.56C161.799 250.659 162.08 251.972 162.08 253.497V266H156.634V254.469C156.643 253.267 156.336 252.33 155.714 251.656C155.092 250.974 154.235 250.634 153.144 250.634C152.411 250.634 151.763 250.791 151.201 251.107C150.647 251.422 150.212 251.882 149.897 252.487C149.59 253.084 149.433 253.804 149.424 254.648ZM187.297 257.639V246.364H192.743V266H187.514V262.433H187.31C186.866 263.584 186.129 264.509 185.098 265.207C184.075 265.906 182.827 266.256 181.352 266.256C180.04 266.256 178.885 265.957 177.888 265.361C176.891 264.764 176.111 263.916 175.548 262.817C174.994 261.717 174.713 260.401 174.705 258.866V246.364H180.151V257.895C180.159 259.054 180.47 259.97 181.084 260.643C181.697 261.317 182.52 261.653 183.551 261.653C184.207 261.653 184.821 261.504 185.392 261.206C185.963 260.899 186.423 260.447 186.773 259.851C187.131 259.254 187.305 258.517 187.297 257.639ZM197.099 273.364V246.364H202.468V249.662H202.711C202.95 249.134 203.295 248.597 203.747 248.051C204.207 247.497 204.804 247.037 205.537 246.67C206.278 246.295 207.199 246.108 208.298 246.108C209.73 246.108 211.051 246.483 212.261 247.233C213.471 247.974 214.439 249.095 215.163 250.595C215.887 252.087 216.25 253.957 216.25 256.207C216.25 258.398 215.896 260.247 215.189 261.756C214.49 263.256 213.535 264.393 212.325 265.169C211.123 265.936 209.777 266.32 208.285 266.32C207.228 266.32 206.329 266.145 205.588 265.795C204.855 265.446 204.254 265.007 203.785 264.479C203.316 263.942 202.958 263.401 202.711 262.855H202.545V273.364H197.099ZM202.43 256.182C202.43 257.349 202.592 258.368 202.916 259.237C203.24 260.107 203.708 260.784 204.322 261.27C204.936 261.747 205.681 261.986 206.559 261.986C207.446 261.986 208.196 261.743 208.809 261.257C209.423 260.763 209.887 260.081 210.203 259.212C210.527 258.334 210.689 257.324 210.689 256.182C210.689 255.048 210.531 254.051 210.216 253.19C209.9 252.33 209.436 251.656 208.822 251.17C208.208 250.685 207.454 250.442 206.559 250.442C205.673 250.442 204.923 250.676 204.309 251.145C203.704 251.614 203.24 252.278 202.916 253.139C202.592 254 202.43 255.014 202.43 256.182Z" fill="#A50000"/>
<path d="M335.082 253H354.915M354.915 253L346.415 245.75M354.915 253L346.415 260.25" stroke="#A50000" stroke-width="2" stroke-linecap="round" stroke-linejoin="round"/>
<path d="M591.458 45.6937L587.629 49.7493L600.737 63.631L604.567 59.5755L591.458 45.6937Z" fill="#FFE2B4"/>
<path d="M579.689 40.2562C580.138 41.4319 580.817 42.5382 581.712 43.4842L582.342 44.1516L586.172 40.0958L585.542 39.4284C585.166 39.031 584.893 38.5815 584.708 38.1004C584.526 37.6237 584.433 37.1142 584.431 36.6028V36.6016L584.43 36.5873C584.43 36.5805 584.432 36.5731 584.432 36.5663C584.434 36.0561 584.526 35.5479 584.709 35.073C584.893 34.592 585.167 34.1431 585.542 33.745C585.918 33.3475 586.341 33.0578 586.796 32.8622C587.251 32.6665 587.738 32.5681 588.226 32.5681C588.714 32.5681 589.201 32.6671 589.656 32.8622C590.11 33.0578 590.534 33.3475 590.91 33.745L591.687 34.5678L600.737 44.1516L604.566 40.0958L595.516 30.512L594.769 29.7202L594.74 29.6892C593.846 28.7426 592.802 28.0232 591.691 27.5465C590.58 27.0691 589.403 26.832 588.226 26.832C587.05 26.832 585.873 27.0691 584.761 27.5465C583.651 28.0226 582.606 28.742 581.713 29.6892C580.819 30.6352 580.14 31.7416 579.69 32.9173C579.24 34.0942 579.016 35.3405 579.016 36.5867C579.014 37.8324 579.238 39.0793 579.689 40.2562Z" fill="#FFE2B4"/>
<path d="M605.512 48.674L605.66 48.5173C606.089 48.0623 606.497 47.6314 606.87 47.2382C607.699 46.3641 608.38 45.6533 608.855 45.1686C609.016 45.0033 609.153 44.8664 609.26 44.7606L609.285 44.7352L609.318 44.7203L609.388 44.6875L610.524 43.4852C611.418 42.5386 612.097 41.4328 612.547 40.2572C612.998 39.0802 613.222 37.8333 613.222 36.5877C613.222 35.342 612.998 34.0952 612.547 32.9182C612.097 31.7425 611.418 30.6362 610.524 29.6902C609.63 28.743 608.586 28.0242 607.475 27.5475C606.363 27.0701 605.186 26.833 604.01 26.833C602.834 26.833 601.656 27.0701 600.545 27.5475C599.435 28.0236 598.39 28.743 597.497 29.6902L596.866 30.3576L600.696 34.4134L601.326 33.746C601.702 33.3485 602.126 33.0588 602.58 32.8631C603.035 32.6675 603.522 32.5691 604.01 32.5691C604.498 32.5691 604.985 32.6681 605.439 32.8631C605.893 33.0588 606.317 33.3485 606.693 33.746C607.069 34.1435 607.342 34.5923 607.527 35.074C607.712 35.5556 607.805 36.0714 607.805 36.5877C607.805 37.104 607.712 37.6198 607.527 38.1014C607.342 38.5825 607.068 39.0313 606.693 39.4294L606.049 40.1117L606.041 40.1185C605.958 40.1909 605.891 40.2522 605.821 40.3178L605.822 40.3172C605.667 40.4646 605.495 40.6342 605.284 40.8478C604.918 41.2186 604.443 41.7108 603.868 42.312C602.176 44.0839 599.624 46.8024 596.75 49.8707L600.596 53.9098L600.659 53.8417L600.687 53.8708C601.401 53.1124 602.575 51.8481 603.612 50.7294C604.465 49.81 605.211 49.0027 605.512 48.6771L605.512 48.674Z" fill="#FFE2B4"/>
<path d="M610.522 65.7642L609.892 65.0968L606.062 69.1526L606.692 69.82C607.067 70.2175 607.341 70.6663 607.526 71.148C607.71 71.6296 607.803 72.1447 607.803 72.6617C607.803 73.1787 607.71 73.6944 607.526 74.1754C607.341 74.6565 607.067 75.1053 606.692 75.5034C606.317 75.9009 605.893 76.1906 605.438 76.3863C604.983 76.5813 604.497 76.6803 604.009 76.6803C603.52 76.6803 603.034 76.5813 602.579 76.3863C602.124 76.1906 601.701 75.9009 601.325 75.5034L600.548 74.6806L591.498 65.0968L587.668 69.1526L596.718 78.7364L597.495 79.5592C598.388 80.5058 599.433 81.2252 600.543 81.7019C601.654 82.1793 602.831 82.4164 604.008 82.4164C605.184 82.4164 606.362 82.1793 607.473 81.7019C608.583 81.2258 609.628 80.5064 610.522 79.5592C611.416 78.6126 612.095 77.5069 612.545 76.3305C612.996 75.1536 613.22 73.9067 613.22 72.6611C613.22 71.4154 612.996 70.1685 612.545 68.9916C612.095 67.8166 611.416 66.7102 610.522 65.7642Z" fill="#FFE2B4"/>
<path d="M609.404 55.9164L596.836 69.2255L600.666 73.281L613.233 59.9719L609.404 55.9164Z" fill="#FFE2B4"/>
<path d="M595.486 59.3787L591.64 55.3396L591.577 55.4077L591.549 55.3786C590.835 56.1376 589.661 57.4012 588.624 58.52C587.767 59.4449 587.017 60.2553 586.719 60.5773L586.721 60.5791L586.578 60.7314C586.148 61.1865 585.74 61.6174 585.368 62.0105C584.538 62.8847 583.857 63.5954 583.382 64.0802C583.22 64.2455 583.084 64.3823 582.978 64.4882L582.952 64.5136L582.92 64.5284L582.85 64.5612L581.714 65.7642C580.82 66.7102 580.14 67.8165 579.69 68.9928C579.24 70.1698 579.016 71.416 579.016 72.6623C579.016 73.9079 579.24 75.1548 579.69 76.3318C580.14 77.5074 580.819 78.6138 581.714 79.5604C582.607 80.507 583.652 81.2264 584.762 81.7031C585.874 82.1805 587.051 82.4176 588.227 82.4176C589.404 82.4176 590.581 82.1805 591.692 81.7031C592.803 81.227 593.847 80.5076 594.741 79.5604L595.371 78.893L591.541 74.8372L590.911 75.5046C590.536 75.9021 590.111 76.1924 589.657 76.3881C589.202 76.5831 588.716 76.6822 588.227 76.6822C587.739 76.6822 587.252 76.5831 586.797 76.3881C586.343 76.1924 585.919 75.9027 585.543 75.5052C585.168 75.1078 584.895 74.6583 584.71 74.1772C584.527 73.7005 584.434 73.191 584.433 72.679V72.6778L584.432 72.6635C584.432 72.6567 584.433 72.6493 584.433 72.6425C584.436 72.1323 584.528 71.6247 584.71 71.1492C584.895 70.6681 585.169 70.2193 585.544 69.8212L586.188 69.1389L586.196 69.1321C586.28 69.0597 586.346 68.9984 586.416 68.9328L586.416 68.9334C586.571 68.786 586.742 68.6164 586.953 68.4028C587.319 68.032 587.794 67.5398 588.369 66.9386C590.06 65.1655 592.612 62.447 595.486 59.3787Z" fill="#FFE2B4"/>
<path d="M631.563 51.5335C631.113 50.3578 630.434 49.2515 629.54 48.3055C628.647 47.3589 627.602 46.6395 626.492 46.1628C625.38 45.6854 624.203 45.4483 623.027 45.4483C621.85 45.4483 620.673 45.6854 619.562 46.1628C618.451 46.6389 617.407 47.3583 616.513 48.3055L615.736 49.1283L614.572 50.3616L618.402 54.4173L619.566 53.1841L620.343 52.3613C620.719 51.9638 621.142 51.6741 621.597 51.4784C622.052 51.2834 622.538 51.1844 623.027 51.1844C623.515 51.1844 624.001 51.2834 624.456 51.4784C624.91 51.6741 625.334 51.9638 625.71 52.3613C625.898 52.56 626.06 52.7718 626.198 52.994C626.337 53.2163 626.451 53.4484 626.544 53.6893L626.518 53.6218L626.544 53.6899C626.72 54.1474 626.81 54.6359 626.818 55.1268L626.822 55.1318V55.2042C626.822 55.7212 626.728 56.2369 626.544 56.7186C626.359 57.1996 626.086 57.6485 625.711 58.0466C625.335 58.444 624.911 58.7338 624.457 58.9294C624.002 59.1244 623.515 59.2235 623.027 59.2235C622.539 59.2235 622.052 59.1244 621.597 58.9294C621.143 58.7338 620.719 58.444 620.343 58.0466L619.697 57.3618L619.691 57.3538L619.663 57.3185C619.578 57.212 619.505 57.1272 619.418 57.0257C619.256 56.8399 619.056 56.617 618.809 56.3453C617.946 55.3993 616.511 53.8688 614.792 52.0499C613.118 50.278 611.181 48.2386 609.271 46.2327L605.457 50.3052C607.928 52.9005 610.444 55.5509 612.363 57.5915C613.341 58.6316 614.165 59.5145 614.74 60.1416C614.979 60.4023 615.173 60.6165 615.313 60.7737L615.337 60.801L615.352 60.8357L615.379 60.8994L616.515 62.1017C617.408 63.0484 618.453 63.7678 619.563 64.2445C620.675 64.7218 621.851 64.9589 623.028 64.9589C624.205 64.9589 625.382 64.7212 626.493 64.2445C627.601 63.7696 628.642 63.0521 629.534 62.1092L629.896 61.6052V61.6913C630.51 60.9638 631.012 60.1621 631.385 59.3114C631.449 59.1665 631.509 59.021 631.565 58.8737C632.016 57.6968 632.24 56.4499 632.24 55.2042C632.238 53.9567 632.014 52.7098 631.563 51.5335Z" fill="#FFE2B4"/>
<path d="M571.893 56.8882C571.517 57.2856 571.093 57.5754 570.639 57.771C570.184 57.966 569.698 58.0651 569.21 58.0651C568.721 58.0651 568.234 57.966 567.78 57.771C567.325 57.5754 566.901 57.2856 566.526 56.8882L566.523 56.8851L566.52 56.8807C566.445 56.8015 566.38 56.7216 566.319 56.6455C566.05 56.3111 565.84 55.9477 565.692 55.5595C565.509 55.0828 565.416 54.5733 565.415 54.0613V54.0601L565.414 54.0458C565.414 53.618 565.481 53.1933 565.607 52.7884C565.632 52.7086 565.658 52.6219 565.692 52.5315C565.734 52.4213 565.782 52.3148 565.833 52.2108L565.845 52.1823L565.847 52.1774C566.02 51.8294 566.244 51.5025 566.526 51.2041C566.901 50.8066 567.325 50.5169 567.78 50.3213C568.234 50.1262 568.721 50.0272 569.21 50.0272C569.698 50.0272 570.184 50.1262 570.639 50.3213C571.093 50.5169 571.517 50.8073 571.893 51.2041L572.54 51.8895L572.546 51.8975L572.574 51.9328C572.659 52.0393 572.731 52.1241 572.82 52.2256C572.981 52.4114 573.181 52.6343 573.429 52.906C574.292 53.852 575.726 55.3825 577.445 57.2014C579.119 58.9733 581.057 61.0127 582.966 63.0186L586.78 58.9461C584.31 56.3508 581.793 53.7004 579.874 51.6598C578.896 50.6197 578.072 49.7368 577.497 49.1097C577.258 48.8484 577.064 48.6348 576.925 48.4769L576.9 48.4497L576.886 48.415L576.859 48.3513L575.724 47.1483C574.831 46.2017 573.786 45.4823 572.676 45.0056C571.564 44.5283 570.387 44.2911 569.211 44.2911C568.034 44.2911 566.857 44.5283 565.746 45.0056C564.635 45.4817 563.591 46.2011 562.697 47.1483C562.545 47.3093 562.401 47.4777 562.259 47.6504C562.122 47.8176 561.991 47.9878 561.866 48.1624C561.372 48.8534 560.972 49.5994 560.675 50.377C560.224 51.5539 560 52.8008 560 54.0464C560 55.2921 560.224 56.539 560.675 57.7159C560.999 58.5641 561.445 59.3757 562.003 60.1181C562.042 60.1694 562.08 60.2196 562.118 60.2679C562.246 60.4319 562.382 60.5923 562.523 60.7502C562.585 60.8189 562.641 60.8851 562.698 60.9452C563.591 61.8918 564.636 62.6112 565.746 63.0879C566.858 63.5653 568.035 63.8024 569.211 63.8024C570.388 63.8024 571.565 63.5653 572.676 63.0879C573.786 62.6118 574.831 61.8924 575.724 60.9452L576.501 60.1224L577.666 58.8891L573.836 54.8333L572.672 56.0666L571.893 56.8882Z" fill="#FFE2B4"/>
<path d="M591.564 35.9669L578.996 49.2761L582.826 53.3316L595.393 40.0224L591.564 35.9669Z" fill="#FFE2B4"/>
<path d="M599.314 85.8303C599.314 87.6994 597.883 89.215 596.118 89.215C594.353 89.215 592.922 87.6994 592.922 85.8303C592.922 83.9606 594.353 82.4457 596.118 82.4457C597.883 82.4457 599.314 83.9606 599.314 85.8303Z" fill="#FFE2B4"/>
<path d="M597.749 92.8331C597.749 93.7865 597.019 94.5598 596.119 94.5598C595.218 94.5598 594.488 93.7865 594.488 92.8331C594.488 91.8797 595.218 91.1064 596.119 91.1064C597.019 91.1064 597.749 91.8797 597.749 92.8331Z" fill="#FFE2B4"/>
<path d="M596.119 17.4535C597.019 17.4535 597.749 16.6804 597.749 15.7268C597.749 14.7731 597.019 14.0001 596.119 14.0001C595.218 14.0001 594.488 14.7731 594.488 15.7268C594.488 16.6804 595.218 17.4535 596.119 17.4535Z" fill="#FFE2B4"/>
<path d="M599.314 23.4189C599.314 25.2879 597.883 26.8035 596.118 26.8035C594.353 26.8035 592.922 25.2879 592.922 23.4189C592.922 21.5498 594.353 20.0342 596.118 20.0342C597.883 20.0342 599.314 21.5498 599.314 23.4189Z" fill="#FFE2B4"/>
<path d="M596.116 96.7963C592.974 96.7963 590.426 99.4943 590.426 102.823H601.807C601.807 99.4943 599.259 96.7963 596.116 96.7963Z" fill="#FFE2B4"/>
<path d="M592.848 105.059H590.426V143.529H592.848V105.059Z" fill="#FFE2B4"/>
<path d="M597.324 105.059H594.902V143.529H597.324V105.059Z" fill="#FFE2B4"/>
<path d="M601.805 105.059H599.383V143.529H601.805V105.059Z" fill="#FFE2B4"/>
</g>
<defs>
<filter id="filter0_d_162_651" x="-14" y="-16" width="731" height="393.766" filterUnits="userSpaceOnUse" color-interpolation-filters="sRGB">
<feFlood flood-opacity="0" result="BackgroundImageFix"/>
<feColorMatrix in="SourceAlpha" type="matrix" values="0 0 0 0 0 0 0 0 0 0 0 0 0 0 0 0 0 0 127 0" result="hardAlpha"/>
<feOffset/>
<feGaussianBlur stdDeviation="8"/>
<feComposite in2="hardAlpha" operator="out"/>
<feColorMatrix type="matrix" values="0 0 0 0 0.44391 0 0 0 0 0.44391 0 0 0 0 0.44391 0 0 0 0.25 0"/>
<feBlend mode="normal" in2="BackgroundImageFix" result="effect1_dropShadow_162_651"/>
<feBlend mode="normal" in="SourceGraphic" in2="effect1_dropShadow_162_651" result="shape"/>
</filter>
<clipPath id="clip0_162_651">
<rect width="701" height="367" fill="white"/>
</clipPath>
</defs>
</svg>
