<svg width="701" height="367" viewBox="0 0 701 367" fill="none" xmlns="http://www.w3.org/2000/svg">
<g clip-path="url(#clip0_996_435)">
<g filter="url(#filter0_d_996_435)">
<path d="M671.346 0C671.346 14.5104 683.674 26.2734 698.882 26.2734C699.594 26.2734 700.3 26.248 700.999 26.1973V329.506C700.3 329.455 699.594 329.431 698.882 329.431C683.674 329.431 671.346 341.194 671.346 355.704C671.346 357.79 671.601 359.82 672.083 361.766H28.7988C29.2805 359.82 29.5361 357.79 29.5361 355.704C29.5361 341.42 17.5903 329.798 2.71094 329.438L2 329.431V26.2734C17.2079 26.2734 29.5361 14.5104 29.5361 0H671.346Z" fill="#A50000"/>
</g>
<mask id="path-2-inside-1_996_435" fill="white">
<path d="M658.812 14C658.813 27.3947 670.615 38.2529 685.175 38.2529C685.857 38.2529 686.533 38.2294 687.202 38.1826V318.172C686.533 318.125 685.857 318.103 685.175 318.103C670.615 318.103 658.812 328.961 658.812 342.355C658.812 344.281 659.057 346.155 659.519 347.951H43.6562C44.1174 346.155 44.3623 344.281 44.3623 342.355C44.3623 329.17 32.9256 318.443 18.6807 318.11L18 318.103V38.2529C32.5595 38.2529 44.3622 27.3947 44.3623 14H658.812Z"/>
</mask>
<path d="M658.812 14C658.813 27.3947 670.615 38.2529 685.175 38.2529C685.857 38.2529 686.533 38.2294 687.202 38.1826V318.172C686.533 318.125 685.857 318.103 685.175 318.103C670.615 318.103 658.812 328.961 658.812 342.355C658.812 344.281 659.057 346.155 659.519 347.951H43.6562C44.1174 346.155 44.3623 344.281 44.3623 342.355C44.3623 329.17 32.9256 318.443 18.6807 318.11L18 318.103V38.2529C32.5595 38.2529 44.3622 27.3947 44.3623 14H658.812Z" fill="#A50000"/>
<path d="M658.812 14L659.812 14V13H658.812V14ZM685.175 38.2529V39.2529V38.2529ZM687.202 38.1826H688.202V37.1102L687.132 37.1851L687.202 38.1826ZM687.202 318.172L687.132 319.169L688.202 319.244V318.172H687.202ZM685.175 318.103V317.103V318.103ZM658.812 342.355H657.812H658.812ZM659.519 347.951V348.951H660.808L660.487 347.703L659.519 347.951ZM43.6562 347.951L42.6877 347.703L42.3671 348.951H43.6562V347.951ZM44.3623 342.355H45.3623H44.3623ZM18.6807 318.11L18.704 317.111L18.6921 317.11L18.6807 318.11ZM18 318.103H17V319.091L17.9885 319.102L18 318.103ZM18 38.2529L18 37.2529L17 37.2529V38.2529H18ZM44.3623 14V13H43.3623L43.3623 14L44.3623 14ZM658.812 14L657.812 14C657.813 28.0239 670.143 39.2529 685.175 39.2529V38.2529V37.2529C671.087 37.2529 659.813 26.7656 659.812 14L658.812 14ZM685.175 38.2529V39.2529C685.88 39.2529 686.579 39.2286 687.272 39.1802L687.202 38.1826L687.132 37.1851C686.487 37.2302 685.834 37.2529 685.175 37.2529V38.2529ZM687.202 38.1826H686.202V318.172H687.202H688.202V38.1826H687.202ZM687.202 318.172L687.272 317.174C686.578 317.126 685.879 317.103 685.175 317.103V318.103V319.103C685.835 319.103 686.488 319.124 687.132 319.169L687.202 318.172ZM685.175 318.103V317.103C670.143 317.103 657.812 328.332 657.812 342.355H658.812H659.812C659.812 329.59 671.087 319.103 685.175 319.103V318.103ZM658.812 342.355H657.812C657.812 344.367 658.068 346.323 658.55 348.2L659.519 347.951L660.487 347.703C660.047 345.986 659.812 344.196 659.812 342.355H658.812ZM659.519 347.951V346.951H43.6562V347.951V348.951H659.519V347.951ZM43.6562 347.951L44.6248 348.2C45.1065 346.324 45.3623 344.367 45.3623 342.355H44.3623H43.3623C43.3623 344.196 43.1283 345.986 42.6877 347.703L43.6562 347.951ZM44.3623 342.355H45.3623C45.3623 328.551 33.4132 317.454 18.704 317.111L18.6807 318.11L18.6573 319.11C32.438 319.431 43.3623 329.789 43.3623 342.355H44.3623ZM18.6807 318.11L18.6921 317.11L18.0115 317.103L18 318.103L17.9885 319.102L18.6692 319.11L18.6807 318.11ZM18 318.103H19V38.2529H18H17V318.103H18ZM18 38.2529L18 39.2529C33.0316 39.2529 45.3622 28.0239 45.3623 14L44.3623 14L43.3623 14C43.3622 26.7655 32.0874 37.2529 18 37.2529L18 38.2529ZM44.3623 14V15H658.812V14V13H44.3623V14Z" fill="#FFE2B4" mask="url(#path-2-inside-1_996_435)"/>
<path d="M60.6 99V70.44H78.64V75.44H66.64V81.4H69.04C71.7333 81.4 73.9333 81.7733 75.64 82.52C77.3733 83.2667 78.6533 84.2933 79.48 85.6C80.3067 86.9067 80.72 88.4 80.72 90.08C80.72 91.9467 80.3067 93.5467 79.48 94.88C78.6533 96.2133 77.3733 97.24 75.64 97.96C73.9067 98.6533 71.6667 99 68.92 99H60.6ZM68.68 94.04C70.52 94.04 71.96 93.7467 73 93.16C74.0667 92.5733 74.6 91.5467 74.6 90.08C74.6 89.0667 74.3333 88.2933 73.8 87.76C73.2933 87.2267 72.56 86.8667 71.6 86.68C70.6667 86.4667 69.5333 86.36 68.2 86.36H66.64V94.04H68.68ZM94.6278 76.76C96.6545 76.76 98.3878 77.1467 99.8278 77.92C101.294 78.6933 102.428 79.8133 103.228 81.28C104.028 82.7467 104.428 84.5467 104.428 86.68V89.56H90.3478C90.4011 91.24 90.8945 92.56 91.8278 93.52C92.7878 94.48 94.1078 94.96 95.7878 94.96C97.2011 94.96 98.4811 94.8267 99.6278 94.56C100.774 94.2667 101.961 93.8267 103.188 93.24V97.84C102.121 98.3733 100.988 98.76 99.7878 99C98.6145 99.2667 97.1878 99.4 95.5078 99.4C93.3211 99.4 91.3878 99 89.7078 98.2C88.0278 97.3733 86.7078 96.1333 85.7478 94.48C84.7878 92.8267 84.3078 90.7467 84.3078 88.24C84.3078 85.68 84.7345 83.56 85.5878 81.88C86.4678 80.1733 87.6811 78.8933 89.2278 78.04C90.7745 77.1867 92.5745 76.76 94.6278 76.76ZM94.6678 81C93.5211 81 92.5611 81.3733 91.7878 82.12C91.0411 82.8667 90.6011 84.0267 90.4678 85.6H98.8278C98.8278 84.72 98.6678 83.9333 98.3478 83.24C98.0545 82.5467 97.6011 82 96.9878 81.6C96.3745 81.2 95.6011 81 94.6678 81ZM118.141 99.4C115.981 99.4 114.141 99.0133 112.621 98.24C111.101 97.44 109.941 96.2133 109.141 94.56C108.341 92.9067 107.941 90.7867 107.941 88.2C107.941 85.5333 108.394 83.36 109.301 81.68C110.207 80 111.461 78.76 113.061 77.96C114.687 77.16 116.554 76.76 118.661 76.76C120.154 76.76 121.447 76.9067 122.541 77.2C123.661 77.4933 124.634 77.84 125.461 78.24L123.701 82.84C122.767 82.4667 121.887 82.16 121.061 81.92C120.261 81.68 119.461 81.56 118.661 81.56C117.621 81.56 116.754 81.8133 116.061 82.32C115.367 82.8 114.847 83.5333 114.501 84.52C114.181 85.48 114.021 86.6933 114.021 88.16C114.021 89.6 114.194 90.8 114.541 91.76C114.914 92.6933 115.447 93.4 116.141 93.88C116.834 94.3333 117.674 94.56 118.661 94.56C119.914 94.56 121.021 94.4 121.981 94.08C122.941 93.7333 123.874 93.2667 124.781 92.68V97.76C123.874 98.3467 122.914 98.76 121.901 99C120.914 99.2667 119.661 99.4 118.141 99.4ZM149.648 77.16V99H143.688V81.64H135.768V99H129.808V77.16H149.648ZM175.461 99H169.501V81.64H164.021C163.755 84.84 163.421 87.5733 163.021 89.84C162.648 92.08 162.168 93.9067 161.581 95.32C161.021 96.7333 160.301 97.7733 159.421 98.44C158.541 99.08 157.461 99.4 156.181 99.4C155.488 99.4 154.861 99.3467 154.301 99.24C153.741 99.1333 153.235 98.9733 152.781 98.76V94C153.075 94.1067 153.381 94.2 153.701 94.28C154.021 94.36 154.355 94.4 154.701 94.4C155.075 94.4 155.421 94.2533 155.741 93.96C156.088 93.6667 156.408 93.1467 156.701 92.4C157.021 91.6533 157.315 90.6267 157.581 89.32C157.848 88.0133 158.088 86.3733 158.301 84.4C158.541 82.4 158.755 79.9867 158.941 77.16H175.461V99ZM190.643 76.72C193.576 76.72 195.816 77.36 197.363 78.64C198.936 79.8933 199.723 81.8267 199.723 84.44V99H195.563L194.403 96.04H194.243C193.629 96.8133 192.989 97.4533 192.323 97.96C191.683 98.4667 190.936 98.8267 190.083 99.04C189.256 99.28 188.229 99.4 187.003 99.4C185.723 99.4 184.563 99.16 183.523 98.68C182.509 98.1733 181.709 97.4133 181.123 96.4C180.536 95.36 180.243 94.0533 180.243 92.48C180.243 90.16 181.056 88.4533 182.683 87.36C184.309 86.24 186.749 85.6267 190.003 85.52L193.803 85.4V84.44C193.803 83.2933 193.496 82.4533 192.883 81.92C192.296 81.3867 191.469 81.12 190.403 81.12C189.336 81.12 188.296 81.28 187.283 81.6C186.269 81.8933 185.256 82.2667 184.243 82.72L182.283 78.68C183.456 78.0667 184.749 77.5867 186.163 77.24C187.603 76.8933 189.096 76.72 190.643 76.72ZM191.483 88.96C189.563 89.0133 188.229 89.36 187.483 90C186.736 90.64 186.363 91.48 186.363 92.52C186.363 93.4267 186.629 94.08 187.163 94.48C187.696 94.8533 188.389 95.04 189.243 95.04C190.523 95.04 191.603 94.6667 192.483 93.92C193.363 93.1467 193.803 92.0667 193.803 90.68V88.88L191.483 88.96ZM223.903 81.64H216.743V99H210.783V81.64H203.623V77.16H223.903V81.64ZM233.893 77.16V85.56H242.213V77.16H248.173V99H242.213V90H233.893V99H227.933V77.16H233.893ZM274.257 88.04C274.257 89.8533 274.004 91.4667 273.497 92.88C273.017 94.2933 272.31 95.4933 271.377 96.48C270.47 97.44 269.364 98.1733 268.057 98.68C266.75 99.16 265.27 99.4 263.617 99.4C262.097 99.4 260.684 99.16 259.377 98.68C258.097 98.1733 256.99 97.44 256.057 96.48C255.124 95.4933 254.39 94.2933 253.857 92.88C253.35 91.4667 253.097 89.8533 253.097 88.04C253.097 85.6133 253.524 83.5733 254.377 81.92C255.23 80.24 256.457 78.96 258.057 78.08C259.657 77.2 261.55 76.76 263.737 76.76C265.79 76.76 267.604 77.2 269.177 78.08C270.75 78.96 271.99 80.24 272.897 81.92C273.804 83.5733 274.257 85.6133 274.257 88.04ZM259.177 88.04C259.177 89.48 259.324 90.6933 259.617 91.68C259.937 92.64 260.43 93.3733 261.097 93.88C261.764 94.36 262.63 94.6 263.697 94.6C264.764 94.6 265.617 94.36 266.257 93.88C266.924 93.3733 267.404 92.64 267.697 91.68C268.017 90.6933 268.177 89.48 268.177 88.04C268.177 86.6 268.017 85.4 267.697 84.44C267.404 83.48 266.924 82.76 266.257 82.28C265.59 81.8 264.724 81.56 263.657 81.56C262.084 81.56 260.937 82.1067 260.217 83.2C259.524 84.2667 259.177 85.88 259.177 88.04ZM288.183 76.76C290.209 76.76 291.943 77.1467 293.383 77.92C294.849 78.6933 295.983 79.8133 296.783 81.28C297.583 82.7467 297.983 84.5467 297.983 86.68V89.56H283.903C283.956 91.24 284.449 92.56 285.383 93.52C286.343 94.48 287.663 94.96 289.343 94.96C290.756 94.96 292.036 94.8267 293.183 94.56C294.329 94.2667 295.516 93.8267 296.743 93.24V97.84C295.676 98.3733 294.543 98.76 293.343 99C292.169 99.2667 290.743 99.4 289.063 99.4C286.876 99.4 284.943 99 283.263 98.2C281.583 97.3733 280.263 96.1333 279.303 94.48C278.343 92.8267 277.863 90.7467 277.863 88.24C277.863 85.68 278.289 83.56 279.143 81.88C280.023 80.1733 281.236 78.8933 282.783 78.04C284.329 77.1867 286.129 76.76 288.183 76.76ZM288.223 81C287.076 81 286.116 81.3733 285.343 82.12C284.596 82.8667 284.156 84.0267 284.023 85.6H292.383C292.383 84.72 292.223 83.9333 291.903 83.24C291.609 82.5467 291.156 82 290.543 81.6C289.929 81.2 289.156 81 288.223 81ZM79.96 129.16V151H74V133.64H66.08V151H60.12V129.16H79.96ZM98.3738 128.76C100.827 128.76 102.814 129.72 104.334 131.64C105.854 133.533 106.614 136.333 106.614 140.04C106.614 142.52 106.254 144.613 105.534 146.32C104.814 148 103.827 149.267 102.574 150.12C101.32 150.973 99.8671 151.4 98.2138 151.4C97.1738 151.4 96.2671 151.267 95.4938 151C94.7471 150.733 94.1071 150.387 93.5738 149.96C93.0404 149.533 92.5738 149.08 92.1738 148.6H91.8538C91.9604 149.107 92.0404 149.64 92.0938 150.2C92.1471 150.733 92.1738 151.267 92.1738 151.8V160.6H86.2138V129.16H91.0538L91.8938 132H92.1738C92.5738 131.413 93.0538 130.88 93.6138 130.4C94.1738 129.893 94.8404 129.493 95.6138 129.2C96.4138 128.907 97.3338 128.76 98.3738 128.76ZM96.4538 133.52C95.4138 133.52 94.5871 133.733 93.9738 134.16C93.3604 134.587 92.9071 135.24 92.6138 136.12C92.3471 136.973 92.2004 138.053 92.1738 139.36V140C92.1738 141.413 92.3071 142.613 92.5738 143.6C92.8404 144.56 93.2938 145.293 93.9338 145.8C94.5738 146.307 95.4404 146.56 96.5338 146.56C97.4404 146.56 98.1871 146.307 98.7738 145.8C99.3604 145.293 99.8004 144.547 100.094 143.56C100.387 142.573 100.534 141.373 100.534 139.96C100.534 137.827 100.2 136.227 99.5338 135.16C98.8938 134.067 97.8671 133.52 96.4538 133.52ZM131.366 140.04C131.366 141.853 131.113 143.467 130.606 144.88C130.126 146.293 129.42 147.493 128.486 148.48C127.58 149.44 126.473 150.173 125.166 150.68C123.86 151.16 122.38 151.4 120.726 151.4C119.206 151.4 117.793 151.16 116.486 150.68C115.206 150.173 114.1 149.44 113.166 148.48C112.233 147.493 111.5 146.293 110.966 144.88C110.46 143.467 110.206 141.853 110.206 140.04C110.206 137.613 110.633 135.573 111.486 133.92C112.34 132.24 113.566 130.96 115.166 130.08C116.766 129.2 118.66 128.76 120.846 128.76C122.9 128.76 124.713 129.2 126.286 130.08C127.86 130.96 129.1 132.24 130.006 133.92C130.913 135.573 131.366 137.613 131.366 140.04ZM116.286 140.04C116.286 141.48 116.433 142.693 116.726 143.68C117.046 144.64 117.54 145.373 118.206 145.88C118.873 146.36 119.74 146.6 120.806 146.6C121.873 146.6 122.726 146.36 123.366 145.88C124.033 145.373 124.513 144.64 124.806 143.68C125.126 142.693 125.286 141.48 125.286 140.04C125.286 138.6 125.126 137.4 124.806 136.44C124.513 135.48 124.033 134.76 123.366 134.28C122.7 133.8 121.833 133.56 120.766 133.56C119.193 133.56 118.046 134.107 117.326 135.2C116.633 136.267 116.286 137.88 116.286 140.04ZM134.972 137.92C134.972 134.693 135.372 131.96 136.172 129.72C136.972 127.453 138.239 125.653 139.972 124.32C141.705 122.96 143.972 122.04 146.772 121.56C148.185 121.32 149.612 121.12 151.052 120.96C152.519 120.773 154.025 120.587 155.572 120.4L156.252 125.6C155.585 125.68 154.852 125.773 154.052 125.88C153.252 125.96 152.439 126.053 151.612 126.16C150.812 126.24 150.039 126.333 149.292 126.44C148.545 126.547 147.865 126.64 147.252 126.72C146.265 126.88 145.399 127.107 144.652 127.4C143.905 127.667 143.279 128.053 142.772 128.56C142.265 129.067 141.865 129.76 141.572 130.64C141.305 131.493 141.132 132.6 141.052 133.96H141.332C141.652 133.453 142.092 132.947 142.652 132.44C143.239 131.933 143.959 131.507 144.812 131.16C145.665 130.813 146.639 130.64 147.732 130.64C149.465 130.64 150.972 131 152.252 131.72C153.532 132.44 154.519 133.507 155.212 134.92C155.905 136.333 156.252 138.093 156.252 140.2C156.252 142.68 155.799 144.747 154.892 146.4C153.985 148.053 152.732 149.307 151.132 150.16C149.532 150.987 147.679 151.4 145.572 151.4C143.972 151.4 142.519 151.107 141.212 150.52C139.905 149.933 138.785 149.067 137.852 147.92C136.919 146.773 136.199 145.36 135.692 143.68C135.212 142 134.972 140.08 134.972 137.92ZM145.932 146.56C146.785 146.56 147.519 146.373 148.132 146C148.772 145.627 149.265 145.013 149.612 144.16C149.985 143.307 150.172 142.16 150.172 140.72C150.172 138.987 149.879 137.613 149.292 136.6C148.732 135.56 147.745 135.04 146.332 135.04C145.479 135.04 144.679 135.253 143.932 135.68C143.212 136.08 142.599 136.547 142.092 137.08C141.585 137.587 141.239 138.027 141.052 138.4C141.052 139.44 141.132 140.453 141.292 141.44C141.452 142.4 141.719 143.267 142.092 144.04C142.465 144.813 142.959 145.427 143.572 145.88C144.212 146.333 144.999 146.56 145.932 146.56ZM167.135 129.16V137.56H175.455V129.16H181.415V151H175.455V142H167.135V151H161.175V129.16H167.135ZM207.499 140.04C207.499 141.853 207.246 143.467 206.739 144.88C206.259 146.293 205.552 147.493 204.619 148.48C203.712 149.44 202.606 150.173 201.299 150.68C199.992 151.16 198.512 151.4 196.859 151.4C195.339 151.4 193.926 151.16 192.619 150.68C191.339 150.173 190.232 149.44 189.299 148.48C188.366 147.493 187.632 146.293 187.099 144.88C186.592 143.467 186.339 141.853 186.339 140.04C186.339 137.613 186.766 135.573 187.619 133.92C188.472 132.24 189.699 130.96 191.299 130.08C192.899 129.2 194.792 128.76 196.979 128.76C199.032 128.76 200.846 129.2 202.419 130.08C203.992 130.96 205.232 132.24 206.139 133.92C207.046 135.573 207.499 137.613 207.499 140.04ZM192.419 140.04C192.419 141.48 192.566 142.693 192.859 143.68C193.179 144.64 193.672 145.373 194.339 145.88C195.006 146.36 195.872 146.6 196.939 146.6C198.006 146.6 198.859 146.36 199.499 145.88C200.166 145.373 200.646 144.64 200.939 143.68C201.259 142.693 201.419 141.48 201.419 140.04C201.419 138.6 201.259 137.4 200.939 136.44C200.646 135.48 200.166 134.76 199.499 134.28C198.832 133.8 197.966 133.56 196.899 133.56C195.326 133.56 194.179 134.107 193.459 135.2C192.766 136.267 192.419 137.88 192.419 140.04ZM221.425 128.76C223.451 128.76 225.185 129.147 226.625 129.92C228.091 130.693 229.225 131.813 230.025 133.28C230.825 134.747 231.225 136.547 231.225 138.68V141.56H217.145C217.198 143.24 217.691 144.56 218.625 145.52C219.585 146.48 220.905 146.96 222.585 146.96C223.998 146.96 225.278 146.827 226.425 146.56C227.571 146.267 228.758 145.827 229.985 145.24V149.84C228.918 150.373 227.785 150.76 226.585 151C225.411 151.267 223.985 151.4 222.305 151.4C220.118 151.4 218.185 151 216.505 150.2C214.825 149.373 213.505 148.133 212.545 146.48C211.585 144.827 211.105 142.747 211.105 140.24C211.105 137.68 211.531 135.56 212.385 133.88C213.265 132.173 214.478 130.893 216.025 130.04C217.571 129.187 219.371 128.76 221.425 128.76ZM221.465 133C220.318 133 219.358 133.373 218.585 134.12C217.838 134.867 217.398 136.027 217.265 137.6H225.625C225.625 136.72 225.465 135.933 225.145 135.24C224.851 134.547 224.398 134 223.785 133.6C223.171 133.2 222.398 133 221.465 133ZM252.182 128.76C253.755 128.76 255.222 128.973 256.582 129.4C257.968 129.8 259.075 130.427 259.902 131.28C260.755 132.133 261.182 133.227 261.182 134.56C261.182 135.867 260.782 136.907 259.982 137.68C259.208 138.453 258.155 139.013 256.822 139.36V139.56C257.755 139.773 258.595 140.08 259.342 140.48C260.088 140.853 260.675 141.373 261.102 142.04C261.555 142.68 261.782 143.547 261.782 144.64C261.782 145.84 261.395 146.96 260.622 148C259.875 149.013 258.702 149.84 257.102 150.48C255.528 151.093 253.502 151.4 251.022 151.4C249.848 151.4 248.742 151.347 247.702 151.24C246.662 151.133 245.715 150.987 244.862 150.8C244.008 150.587 243.262 150.333 242.622 150.04V145.12C243.528 145.547 244.635 145.933 245.942 146.28C247.275 146.627 248.688 146.8 250.182 146.8C251.275 146.8 252.248 146.72 253.102 146.56C253.982 146.4 254.675 146.133 255.182 145.76C255.715 145.387 255.982 144.893 255.982 144.28C255.982 143.693 255.755 143.213 255.302 142.84C254.848 142.44 254.168 142.147 253.262 141.96C252.355 141.773 251.195 141.68 249.782 141.68H247.462V137.56H249.662C251.635 137.56 253.155 137.4 254.222 137.08C255.315 136.76 255.862 136.16 255.862 135.28C255.862 134.587 255.515 134.067 254.822 133.72C254.128 133.347 252.995 133.16 251.422 133.16C250.382 133.16 249.248 133.28 248.022 133.52C246.795 133.76 245.635 134.107 244.542 134.56L242.782 130.4C244.035 129.92 245.408 129.533 246.902 129.24C248.395 128.92 250.155 128.76 252.182 128.76ZM275.369 128.72C278.302 128.72 280.542 129.36 282.089 130.64C283.662 131.893 284.449 133.827 284.449 136.44V151H280.289L279.129 148.04H278.969C278.356 148.813 277.716 149.453 277.049 149.96C276.409 150.467 275.662 150.827 274.809 151.04C273.982 151.28 272.956 151.4 271.729 151.4C270.449 151.4 269.289 151.16 268.249 150.68C267.236 150.173 266.436 149.413 265.849 148.4C265.262 147.36 264.969 146.053 264.969 144.48C264.969 142.16 265.782 140.453 267.409 139.36C269.036 138.24 271.476 137.627 274.729 137.52L278.529 137.4V136.44C278.529 135.293 278.222 134.453 277.609 133.92C277.022 133.387 276.196 133.12 275.129 133.12C274.062 133.12 273.022 133.28 272.009 133.6C270.996 133.893 269.982 134.267 268.969 134.72L267.009 130.68C268.182 130.067 269.476 129.587 270.889 129.24C272.329 128.893 273.822 128.72 275.369 128.72ZM276.209 140.96C274.289 141.013 272.956 141.36 272.209 142C271.462 142.64 271.089 143.48 271.089 144.52C271.089 145.427 271.356 146.08 271.889 146.48C272.422 146.853 273.116 147.04 273.969 147.04C275.249 147.04 276.329 146.667 277.209 145.92C278.089 145.147 278.529 144.067 278.529 142.68V140.88L276.209 140.96ZM296.51 129.16V137.56H304.83V129.16H310.79V151H304.83V142H296.51V151H290.55V129.16H296.51ZM320.354 151H313.914L319.794 142.36C319.047 142.04 318.341 141.613 317.674 141.08C317.034 140.52 316.514 139.813 316.114 138.96C315.714 138.107 315.514 137.093 315.514 135.92C315.514 133.733 316.341 132.067 317.994 130.92C319.647 129.747 321.767 129.16 324.354 129.16H334.514V151H328.554V142.88H325.274L320.354 151ZM321.354 135.96C321.354 136.867 321.714 137.587 322.434 138.12C323.154 138.627 324.087 138.88 325.234 138.88H328.554V133.36H324.474C323.407 133.36 322.621 133.627 322.114 134.16C321.607 134.667 321.354 135.267 321.354 135.96ZM358.825 133.64H351.665V151H345.705V133.64H338.545V129.16H358.825V133.64ZM368.614 137.8C368.614 138.253 368.588 138.813 368.534 139.48C368.508 140.147 368.468 140.827 368.414 141.52C368.388 142.213 368.348 142.827 368.294 143.36C368.241 143.893 368.201 144.267 368.174 144.48L378.254 129.16H385.414V151H379.654V142.28C379.654 141.56 379.681 140.773 379.734 139.92C379.788 139.04 379.841 138.227 379.894 137.48C379.974 136.707 380.028 136.12 380.054 135.72L370.014 151H362.854V129.16H368.614V137.8ZM400.643 128.76C402.67 128.76 404.403 129.147 405.843 129.92C407.31 130.693 408.443 131.813 409.243 133.28C410.043 134.747 410.443 136.547 410.443 138.68V141.56H396.363C396.417 143.24 396.91 144.56 397.843 145.52C398.803 146.48 400.123 146.96 401.803 146.96C403.217 146.96 404.497 146.827 405.643 146.56C406.79 146.267 407.977 145.827 409.203 145.24V149.84C408.137 150.373 407.003 150.76 405.803 151C404.63 151.267 403.203 151.4 401.523 151.4C399.337 151.4 397.403 151 395.723 150.2C394.043 149.373 392.723 148.133 391.763 146.48C390.803 144.827 390.323 142.747 390.323 140.24C390.323 137.68 390.75 135.56 391.603 133.88C392.483 132.173 393.697 130.893 395.243 130.04C396.79 129.187 398.59 128.76 400.643 128.76ZM400.683 133C399.537 133 398.577 133.373 397.803 134.12C397.057 134.867 396.617 136.027 396.483 137.6H404.843C404.843 136.72 404.683 135.933 404.363 135.24C404.07 134.547 403.617 134 403.003 133.6C402.39 133.2 401.617 133 400.683 133Z" fill="white"/>
<rect x="57" y="215" width="337" height="61" rx="16" fill="white"/>
<path d="M96.8665 254.239C95.5938 254.239 94.4602 254.02 93.4659 253.582C92.4773 253.139 91.696 252.531 91.1222 251.759C90.554 250.98 90.2614 250.082 90.2443 249.065H93.9602C93.983 249.491 94.1222 249.866 94.3778 250.19C94.6392 250.509 94.9858 250.756 95.4176 250.932C95.8494 251.108 96.3352 251.196 96.875 251.196C97.4375 251.196 97.9347 251.097 98.3665 250.898C98.7983 250.699 99.1364 250.423 99.3807 250.071C99.625 249.719 99.7472 249.312 99.7472 248.852C99.7472 248.386 99.6165 247.974 99.3551 247.616C99.0994 247.253 98.7301 246.969 98.2472 246.764C97.7699 246.56 97.2017 246.457 96.5426 246.457H94.9148V243.747H96.5426C97.0994 243.747 97.5909 243.651 98.017 243.457C98.4489 243.264 98.7841 242.997 99.0227 242.656C99.2614 242.31 99.3807 241.906 99.3807 241.446C99.3807 241.009 99.2756 240.625 99.0653 240.295C98.8608 239.96 98.571 239.699 98.196 239.511C97.8267 239.324 97.3949 239.23 96.9006 239.23C96.4006 239.23 95.9432 239.321 95.5284 239.503C95.1136 239.679 94.7812 239.932 94.5312 240.261C94.2812 240.591 94.1477 240.977 94.1307 241.42H90.5938C90.6108 240.415 90.8977 239.528 91.4545 238.761C92.0114 237.994 92.7614 237.395 93.7045 236.963C94.6534 236.526 95.7244 236.307 96.9176 236.307C98.1222 236.307 99.1761 236.526 100.08 236.963C100.983 237.401 101.685 237.991 102.185 238.736C102.69 239.474 102.94 240.304 102.935 241.224C102.94 242.202 102.636 243.017 102.023 243.67C101.415 244.324 100.622 244.739 99.6449 244.915V245.051C100.929 245.216 101.906 245.662 102.577 246.389C103.253 247.111 103.588 248.014 103.582 249.099C103.588 250.094 103.301 250.977 102.722 251.75C102.148 252.523 101.355 253.131 100.344 253.574C99.3324 254.017 98.1733 254.239 96.8665 254.239ZM109.346 254H105.391L111.417 236.545H116.173L122.19 254H118.235L113.863 240.534H113.727L109.346 254ZM109.099 247.139H118.44V250.02H109.099V247.139ZM139.129 236.545V254H135.481V239.545H128.424V254H124.776V236.545H139.129ZM142.642 236.545H146.324V247.523H146.469L154.011 236.545H157.241V254H153.551V243.014H153.423L145.838 254H142.642V236.545ZM175.691 242.656H171.958C171.89 242.173 171.751 241.744 171.54 241.369C171.33 240.989 171.06 240.665 170.731 240.398C170.401 240.131 170.021 239.926 169.589 239.784C169.163 239.642 168.7 239.571 168.2 239.571C167.296 239.571 166.509 239.795 165.839 240.244C165.168 240.687 164.648 241.335 164.279 242.188C163.91 243.034 163.725 244.062 163.725 245.273C163.725 246.517 163.91 247.562 164.279 248.409C164.654 249.256 165.177 249.895 165.847 250.327C166.518 250.759 167.293 250.974 168.174 250.974C168.668 250.974 169.126 250.909 169.546 250.778C169.972 250.648 170.35 250.457 170.68 250.207C171.009 249.952 171.282 249.642 171.498 249.278C171.719 248.915 171.873 248.5 171.958 248.034L175.691 248.051C175.594 248.852 175.353 249.625 174.967 250.369C174.586 251.108 174.072 251.77 173.424 252.355C172.782 252.935 172.015 253.395 171.123 253.736C170.237 254.071 169.234 254.239 168.114 254.239C166.558 254.239 165.165 253.886 163.938 253.182C162.717 252.477 161.751 251.457 161.04 250.122C160.336 248.787 159.984 247.17 159.984 245.273C159.984 243.369 160.342 241.75 161.058 240.415C161.773 239.08 162.745 238.062 163.972 237.364C165.2 236.659 166.58 236.307 168.114 236.307C169.126 236.307 170.063 236.449 170.927 236.733C171.796 237.017 172.566 237.432 173.237 237.977C173.907 238.517 174.452 239.179 174.873 239.963C175.299 240.747 175.572 241.645 175.691 242.656ZM181.018 254H177.063L183.089 236.545H187.844L193.862 254H189.907L185.535 240.534H185.398L181.018 254ZM180.771 247.139H190.112V250.02H180.771V247.139ZM193.165 239.588V236.545H207.5V239.588H202.156V254H198.509V239.588H193.165ZM212.29 242.997H216.449C217.835 242.997 219.028 243.222 220.028 243.67C221.034 244.114 221.81 244.741 222.355 245.554C222.901 246.366 223.17 247.324 223.165 248.426C223.17 249.523 222.901 250.491 222.355 251.332C221.81 252.168 221.034 252.821 220.028 253.293C219.028 253.764 217.835 254 216.449 254H209.929V236.545H213.611V251.034H216.449C217.114 251.034 217.673 250.915 218.128 250.676C218.582 250.432 218.926 250.111 219.159 249.713C219.398 249.31 219.514 248.869 219.509 248.392C219.514 247.699 219.253 247.114 218.724 246.636C218.202 246.153 217.443 245.912 216.449 245.912H212.29V242.997ZM241.504 242.656H237.771C237.702 242.173 237.563 241.744 237.353 241.369C237.143 240.989 236.873 240.665 236.543 240.398C236.214 240.131 235.833 239.926 235.401 239.784C234.975 239.642 234.512 239.571 234.012 239.571C233.109 239.571 232.322 239.795 231.651 240.244C230.981 240.687 230.461 241.335 230.092 242.188C229.722 243.034 229.538 244.062 229.538 245.273C229.538 246.517 229.722 247.562 230.092 248.409C230.467 249.256 230.989 249.895 231.66 250.327C232.33 250.759 233.106 250.974 233.987 250.974C234.481 250.974 234.938 250.909 235.359 250.778C235.785 250.648 236.163 250.457 236.492 250.207C236.822 249.952 237.094 249.642 237.31 249.278C237.532 248.915 237.685 248.5 237.771 248.034L241.504 248.051C241.407 248.852 241.165 249.625 240.779 250.369C240.398 251.108 239.884 251.77 239.237 252.355C238.594 252.935 237.827 253.395 236.935 253.736C236.049 254.071 235.046 254.239 233.927 254.239C232.37 254.239 230.978 253.886 229.751 253.182C228.529 252.477 227.563 251.457 226.853 250.122C226.148 248.787 225.796 247.17 225.796 245.273C225.796 243.369 226.154 241.75 226.87 240.415C227.586 239.08 228.558 238.062 229.785 237.364C231.012 236.659 232.393 236.307 233.927 236.307C234.938 236.307 235.876 236.449 236.739 236.733C237.609 237.017 238.379 237.432 239.049 237.977C239.719 238.517 240.265 239.179 240.685 239.963C241.112 240.747 241.384 241.645 241.504 242.656ZM257.548 254H253.866V239.562H251.377C250.667 239.562 250.076 239.668 249.604 239.878C249.138 240.082 248.789 240.384 248.556 240.781C248.323 241.179 248.207 241.668 248.207 242.247C248.207 242.821 248.323 243.301 248.556 243.688C248.789 244.074 249.138 244.364 249.604 244.557C250.07 244.75 250.656 244.847 251.36 244.847H255.366V247.812H250.763C249.428 247.812 248.286 247.591 247.337 247.148C246.388 246.705 245.664 246.068 245.164 245.239C244.664 244.403 244.414 243.406 244.414 242.247C244.414 241.094 244.658 240.091 245.147 239.239C245.641 238.381 246.354 237.719 247.286 237.253C248.224 236.781 249.352 236.545 250.67 236.545H257.548V254ZM248.13 246.057H252.11L247.866 254H243.792L248.13 246.057Z" fill="#A50000"/>
<path d="M335.083 245.5H354.917M354.917 245.5L346.417 238.25M354.917 245.5L346.417 252.75" stroke="#A50000" stroke-width="2" stroke-linecap="round" stroke-linejoin="round"/>
<path d="M591.458 45.6937L587.628 49.7493L600.737 63.631L604.566 59.5755L591.458 45.6937Z" fill="#FFE2B4"/>
<path d="M579.689 40.2562C580.139 41.4319 580.818 42.5382 581.713 43.4842L582.343 44.1516L586.173 40.0958L585.542 39.4284C585.167 39.031 584.894 38.5815 584.709 38.1004C584.526 37.6237 584.433 37.1142 584.432 36.6028V36.6016L584.431 36.5873C584.431 36.5805 584.432 36.5731 584.432 36.5663C584.435 36.0561 584.527 35.5479 584.709 35.073C584.894 34.592 585.168 34.1431 585.543 33.745C585.918 33.3475 586.342 33.0578 586.797 32.8622C587.252 32.6665 587.738 32.5681 588.227 32.5681C588.715 32.5681 589.202 32.6671 589.656 32.8622C590.111 33.0578 590.535 33.3475 590.91 33.745L591.687 34.5678L600.737 44.1516L604.567 40.0958L595.517 30.512L594.77 29.7202L594.74 29.6892C593.847 28.7426 592.802 28.0232 591.692 27.5465C590.581 27.0691 589.404 26.832 588.227 26.832C587.051 26.832 585.873 27.0691 584.762 27.5465C583.652 28.0226 582.607 28.742 581.714 29.6892C580.82 30.6352 580.141 31.7416 579.691 32.9173C579.24 34.0942 579.016 35.3405 579.016 36.5867C579.015 37.8324 579.239 39.0793 579.689 40.2562Z" fill="#FFE2B4"/>
<path d="M605.51 48.674L605.658 48.5173C606.087 48.0623 606.495 47.6314 606.868 47.2382C607.697 46.3641 608.378 45.6533 608.853 45.1686C609.015 45.0033 609.151 44.8664 609.258 44.7606L609.283 44.7352L609.316 44.7203L609.386 44.6875L610.522 43.4852C611.416 42.5386 612.095 41.4328 612.545 40.2572C612.996 39.0802 613.22 37.8333 613.22 36.5877C613.22 35.342 612.996 34.0952 612.545 32.9182C612.095 31.7425 611.416 30.6362 610.522 29.6902C609.628 28.743 608.584 28.0242 607.473 27.5475C606.362 27.0701 605.184 26.833 604.008 26.833C602.832 26.833 601.654 27.0701 600.543 27.5475C599.433 28.0236 598.388 28.743 597.495 29.6902L596.864 30.3576L600.694 34.4134L601.324 33.746C601.7 33.3485 602.124 33.0588 602.578 32.8631C603.033 32.6675 603.52 32.5691 604.008 32.5691C604.496 32.5691 604.983 32.6681 605.437 32.8631C605.891 33.0588 606.315 33.3485 606.691 33.746C607.067 34.1435 607.34 34.5923 607.525 35.074C607.71 35.5556 607.803 36.0714 607.803 36.5877C607.803 37.104 607.71 37.6198 607.525 38.1014C607.34 38.5825 607.066 39.0313 606.691 39.4294L606.047 40.1117L606.039 40.1185C605.956 40.1909 605.889 40.2522 605.819 40.3178L605.82 40.3172C605.665 40.4646 605.493 40.6342 605.282 40.8478C604.916 41.2186 604.441 41.7108 603.866 42.312C602.174 44.0839 599.622 46.8024 596.748 49.8707L600.594 53.9098L600.657 53.8417L600.685 53.8708C601.399 53.1124 602.573 51.8481 603.61 50.7294C604.463 49.81 605.209 49.0027 605.51 48.6771L605.51 48.674Z" fill="#FFE2B4"/>
<path d="M610.522 65.7642L609.892 65.0968L606.062 69.1526L606.692 69.82C607.067 70.2175 607.341 70.6663 607.526 71.148C607.71 71.6296 607.803 72.1447 607.803 72.6617C607.803 73.1787 607.71 73.6944 607.526 74.1754C607.341 74.6565 607.067 75.1053 606.692 75.5034C606.317 75.9009 605.893 76.1906 605.438 76.3863C604.983 76.5813 604.497 76.6803 604.009 76.6803C603.52 76.6803 603.034 76.5813 602.579 76.3863C602.124 76.1906 601.701 75.9009 601.325 75.5034L600.548 74.6806L591.498 65.0968L587.668 69.1526L596.718 78.7364L597.495 79.5592C598.388 80.5058 599.433 81.2252 600.543 81.7019C601.654 82.1793 602.831 82.4164 604.008 82.4164C605.184 82.4164 606.362 82.1793 607.473 81.7019C608.583 81.2258 609.628 80.5064 610.522 79.5592C611.416 78.6126 612.095 77.5069 612.545 76.3305C612.996 75.1536 613.22 73.9067 613.22 72.6611C613.22 71.4154 612.996 70.1685 612.545 68.9916C612.095 67.8166 611.416 66.7102 610.522 65.7642Z" fill="#FFE2B4"/>
<path d="M609.405 55.9163L596.837 69.2255L600.667 73.281L613.235 59.9718L609.405 55.9163Z" fill="#FFE2B4"/>
<path d="M595.486 59.3787L591.64 55.3396L591.577 55.4077L591.549 55.3786C590.835 56.1376 589.661 57.4012 588.624 58.52C587.767 59.4449 587.017 60.2553 586.719 60.5773L586.721 60.5791L586.578 60.7314C586.148 61.1865 585.74 61.6174 585.368 62.0105C584.538 62.8847 583.857 63.5954 583.382 64.0802C583.22 64.2455 583.084 64.3823 582.978 64.4882L582.952 64.5136L582.92 64.5284L582.85 64.5612L581.714 65.7642C580.82 66.7102 580.14 67.8165 579.69 68.9928C579.24 70.1698 579.016 71.416 579.016 72.6623C579.016 73.9079 579.24 75.1548 579.69 76.3318C580.14 77.5074 580.819 78.6138 581.714 79.5604C582.607 80.507 583.652 81.2264 584.762 81.7031C585.874 82.1805 587.051 82.4176 588.227 82.4176C589.404 82.4176 590.581 82.1805 591.692 81.7031C592.803 81.227 593.847 80.5076 594.741 79.5604L595.371 78.893L591.541 74.8372L590.911 75.5046C590.536 75.9021 590.111 76.1924 589.657 76.3881C589.202 76.5831 588.716 76.6822 588.227 76.6822C587.739 76.6822 587.252 76.5831 586.797 76.3881C586.343 76.1924 585.919 75.9027 585.543 75.5052C585.168 75.1078 584.895 74.6583 584.71 74.1772C584.527 73.7005 584.434 73.191 584.433 72.679V72.6778L584.432 72.6635C584.432 72.6567 584.433 72.6493 584.433 72.6425C584.436 72.1323 584.528 71.6247 584.71 71.1492C584.895 70.6681 585.169 70.2193 585.544 69.8212L586.188 69.1389L586.196 69.1321C586.28 69.0597 586.346 68.9984 586.416 68.9328L586.416 68.9334C586.571 68.786 586.742 68.6164 586.953 68.4028C587.319 68.032 587.794 67.5398 588.369 66.9386C590.06 65.1655 592.612 62.447 595.486 59.3787Z" fill="#FFE2B4"/>
<path d="M631.562 51.5335C631.112 50.3578 630.433 49.2514 629.539 48.3054C628.646 47.3588 627.601 46.6394 626.491 46.1627C625.379 45.6854 624.202 45.4482 623.026 45.4482C621.849 45.4482 620.672 45.6854 619.561 46.1627C618.45 46.6388 617.406 47.3582 616.512 48.3054L615.735 49.1282L614.571 50.3615L618.401 54.4173L619.565 53.184L620.342 52.3612C620.718 51.9638 621.141 51.674 621.596 51.4784C622.051 51.2833 622.537 51.1843 623.026 51.1843C623.514 51.1843 624 51.2833 624.455 51.4784C624.909 51.674 625.333 51.9638 625.709 52.3612C625.897 52.56 626.059 52.7717 626.197 52.994C626.336 53.2162 626.45 53.4484 626.543 53.6892L626.517 53.6217L626.543 53.6898C626.719 54.1474 626.809 54.6358 626.817 55.1268L626.821 55.1317V55.2042C626.821 55.7211 626.727 56.2368 626.543 56.7185C626.359 57.1996 626.085 57.6484 625.71 58.0465C625.334 58.444 624.91 58.7337 624.456 58.9294C624.001 59.1244 623.514 59.2234 623.026 59.2234C622.538 59.2234 622.051 59.1244 621.596 58.9294C621.142 58.7337 620.718 58.444 620.342 58.0465L619.696 57.3618L619.69 57.3537L619.662 57.3184C619.577 57.2119 619.504 57.1271 619.417 57.0256C619.255 56.8399 619.055 56.617 618.808 56.3452C617.945 55.3992 616.51 53.8688 614.791 52.0498C613.117 50.2779 611.18 48.2386 609.27 46.2327L605.456 50.3052C607.927 52.9005 610.443 55.5509 612.362 57.5915C613.34 58.6316 614.164 59.5144 614.739 60.1416C614.978 60.4022 615.172 60.6164 615.312 60.7737L615.336 60.8009L615.351 60.8356L615.378 60.8994L616.514 62.1017C617.407 63.0483 618.452 63.7677 619.562 64.2444C620.674 64.7217 621.851 64.9589 623.027 64.9589C624.204 64.9589 625.381 64.7211 626.492 64.2444C627.6 63.7696 628.641 63.052 629.533 62.1091L629.895 61.6051V61.6912C630.509 60.9637 631.012 60.162 631.384 59.3113C631.448 59.1665 631.508 59.021 631.564 58.8736C632.015 57.6967 632.239 56.4498 632.239 55.2042C632.237 53.9567 632.013 52.7098 631.562 51.5335Z" fill="#FFE2B4"/>
<path d="M571.893 56.8882C571.517 57.2856 571.093 57.5754 570.639 57.771C570.184 57.966 569.698 58.0651 569.21 58.0651C568.721 58.0651 568.234 57.966 567.78 57.771C567.325 57.5754 566.901 57.2856 566.526 56.8882L566.523 56.8851L566.52 56.8807C566.445 56.8015 566.38 56.7216 566.319 56.6455C566.05 56.3111 565.84 55.9477 565.692 55.5595C565.509 55.0828 565.416 54.5733 565.415 54.0613V54.0601L565.414 54.0458C565.414 53.618 565.481 53.1933 565.607 52.7884C565.632 52.7086 565.658 52.6219 565.692 52.5315C565.734 52.4213 565.782 52.3148 565.833 52.2108L565.845 52.1823L565.847 52.1774C566.02 51.8294 566.244 51.5025 566.526 51.2041C566.901 50.8066 567.325 50.5169 567.78 50.3213C568.234 50.1262 568.721 50.0272 569.21 50.0272C569.698 50.0272 570.184 50.1262 570.639 50.3213C571.093 50.5169 571.517 50.8073 571.893 51.2041L572.54 51.8895L572.546 51.8975L572.574 51.9328C572.659 52.0393 572.731 52.1241 572.82 52.2256C572.981 52.4114 573.181 52.6343 573.429 52.906C574.292 53.852 575.726 55.3825 577.445 57.2014C579.119 58.9733 581.057 61.0127 582.966 63.0186L586.78 58.9461C584.31 56.3508 581.793 53.7004 579.874 51.6598C578.896 50.6197 578.072 49.7368 577.497 49.1097C577.258 48.8484 577.064 48.6348 576.925 48.4769L576.9 48.4497L576.886 48.415L576.859 48.3513L575.724 47.1483C574.831 46.2017 573.786 45.4823 572.676 45.0056C571.564 44.5283 570.387 44.2911 569.211 44.2911C568.034 44.2911 566.857 44.5283 565.746 45.0056C564.635 45.4817 563.591 46.2011 562.697 47.1483C562.545 47.3093 562.401 47.4777 562.259 47.6504C562.122 47.8176 561.991 47.9878 561.866 48.1624C561.372 48.8534 560.972 49.5994 560.675 50.377C560.224 51.5539 560 52.8008 560 54.0464C560 55.2921 560.224 56.539 560.675 57.7159C560.999 58.5641 561.445 59.3757 562.003 60.1181C562.042 60.1694 562.08 60.2196 562.118 60.2679C562.246 60.4319 562.382 60.5923 562.523 60.7502C562.585 60.8189 562.641 60.8851 562.698 60.9452C563.591 61.8918 564.636 62.6112 565.746 63.0879C566.858 63.5653 568.035 63.8024 569.211 63.8024C570.388 63.8024 571.565 63.5653 572.676 63.0879C573.786 62.6118 574.831 61.8924 575.724 60.9452L576.501 60.1224L577.666 58.8891L573.836 54.8333L572.672 56.0666L571.893 56.8882Z" fill="#FFE2B4"/>
<path d="M591.565 35.967L578.998 49.2761L582.827 53.3316L595.395 40.0225L591.565 35.967Z" fill="#FFE2B4"/>
<path d="M599.314 85.8303C599.314 87.6994 597.883 89.215 596.118 89.215C594.353 89.215 592.922 87.6994 592.922 85.8303C592.922 83.9606 594.353 82.4457 596.118 82.4457C597.883 82.4457 599.314 83.9606 599.314 85.8303Z" fill="#FFE2B4"/>
<path d="M597.749 92.8331C597.749 93.7866 597.019 94.5598 596.119 94.5598C595.218 94.5598 594.488 93.7866 594.488 92.8331C594.488 91.8797 595.218 91.1064 596.119 91.1064C597.019 91.1064 597.749 91.8797 597.749 92.8331Z" fill="#FFE2B4"/>
<path d="M596.119 17.4534C597.019 17.4534 597.749 16.6803 597.749 15.7267C597.749 14.7731 597.019 14 596.119 14C595.218 14 594.488 14.7731 594.488 15.7267C594.488 16.6803 595.218 17.4534 596.119 17.4534Z" fill="#FFE2B4"/>
<path d="M599.314 23.4189C599.314 25.2879 597.883 26.8035 596.118 26.8035C594.353 26.8035 592.922 25.2879 592.922 23.4189C592.922 21.5498 594.353 20.0342 596.118 20.0342C597.883 20.0342 599.314 21.5498 599.314 23.4189Z" fill="#FFE2B4"/>
<path d="M596.118 96.7963C592.975 96.7963 590.427 99.4943 590.427 102.823H601.809C601.809 99.4943 599.261 96.7963 596.118 96.7963Z" fill="#FFE2B4"/>
<path d="M592.849 105.059H590.427V143.529H592.849V105.059Z" fill="#FFE2B4"/>
<path d="M597.328 105.059H594.906V143.529H597.328V105.059Z" fill="#FFE2B4"/>
<path d="M601.808 105.059H599.386V143.529H601.808V105.059Z" fill="#FFE2B4"/>
</g>
<defs>
<filter id="filter0_d_996_435" x="-14" y="-16" width="730.999" height="393.766" filterUnits="userSpaceOnUse" color-interpolation-filters="sRGB">
<feFlood flood-opacity="0" result="BackgroundImageFix"/>
<feColorMatrix in="SourceAlpha" type="matrix" values="0 0 0 0 0 0 0 0 0 0 0 0 0 0 0 0 0 0 127 0" result="hardAlpha"/>
<feOffset/>
<feGaussianBlur stdDeviation="8"/>
<feComposite in2="hardAlpha" operator="out"/>
<feColorMatrix type="matrix" values="0 0 0 0 0.44391 0 0 0 0 0.44391 0 0 0 0 0.44391 0 0 0 0.25 0"/>
<feBlend mode="normal" in2="BackgroundImageFix" result="effect1_dropShadow_996_435"/>
<feBlend mode="normal" in="SourceGraphic" in2="effect1_dropShadow_996_435" result="shape"/>
</filter>
<clipPath id="clip0_996_435">
<rect width="701" height="367" fill="white"/>
</clipPath>
</defs>
</svg>
