<svg width="386" height="743" viewBox="0 0 386 743" fill="none" xmlns="http://www.w3.org/2000/svg">
<path d="M136.611 321.771C165.242 380.26 252.017 374.059 252.017 374.059C252.017 374.059 229.814 361.114 216.566 333.382C203.317 305.653 215.218 285.798 215.218 285.798C215.218 285.798 206.373 278.855 210.131 265.686C213.89 252.516 238.119 249.138 238.119 249.138C239.479 236.715 237.815 235.386 283.787 195.249C329.76 155.112 316.78 88.5264 293.104 85.4234C269.427 82.3203 262.494 96.1696 262.494 96.1696C262.494 96.1696 264.99 92.6242 278.479 91.2003C291.968 89.7764 309.124 100.137 291.319 137.981C273.514 175.825 223.755 174.676 177.734 198.211C131.714 221.748 107.982 263.28 136.613 321.769L136.611 321.771Z" fill="#FFC971" fill-opacity="0.7"/>
<path d="M364.174 604.136C352.628 636.341 382.757 644.977 382.757 644.977C359.13 653.705 342.942 653.199 330.689 619.62C318.437 586.041 353.332 556.732 367.849 544.835C382.366 532.938 413.251 471.64 399.821 428.275C386.392 384.907 351.828 356.881 345.281 351.991C338.734 347.103 333.535 337.64 340.347 338.753C347.159 339.867 356.944 350.237 356.944 350.237C385.418 368.646 402.954 408.836 409.216 455.355C415.478 501.872 381.489 550.286 367.871 559.135C354.252 567.984 340.336 585.234 337.278 600.953C334.219 616.673 344.224 605.718 344.224 605.718C359.558 596.798 400.132 570.801 417.544 503.078C434.956 435.355 403.531 388.811 389.469 369.181C375.407 349.55 343.426 326.26 323.975 324.92C304.524 323.582 301.281 337.05 309.259 342.418C317.237 347.785 333.599 369.469 333.599 369.469C352.033 391.331 364.627 427.212 362.768 442.562C360.908 457.91 342.988 454.248 338.44 448.74C333.893 443.229 337.102 434.384 341.885 440.747C346.666 447.107 358.14 443.079 355.505 431.897C352.87 420.715 335.117 416.081 326.21 426.233C317.306 436.387 311.931 453.289 330.772 468.203C349.611 483.117 373.984 464.464 375.891 436.64C377.795 408.816 355.104 379.868 344.292 368.919C333.481 357.97 334.662 354.372 334.662 354.372C354.746 356.436 387.854 407.535 389.504 457.793C391.154 508.054 331.637 551.939 331.637 551.939C331.637 551.939 278.877 587.263 295.451 647.653C312.026 708.043 396.242 714.637 421.483 656.48C446.725 598.324 375.723 571.928 364.178 604.134L364.174 604.136Z" fill="#FFC971" fill-opacity="0.7"/>
<path d="M283.158 598.139C283.158 598.139 283.135 593.883 272.247 596.962C261.359 600.041 211.596 606.35 200.93 591.507C200.93 591.507 236.864 584.816 223.394 550.331C209.923 515.843 150.682 548.181 150.473 584.46C150.308 612.922 164.24 640.279 211.857 640.704C259.473 641.129 280.333 626.423 280.333 626.423C280.333 626.423 278.768 609.249 283.158 598.139Z" fill="#FFC971" fill-opacity="0.7"/>
<path d="M264.341 675.549C264.341 675.549 250.74 679.167 249.303 685.399C247.866 691.632 255.939 684.554 262.939 688.166C269.939 691.775 274.414 702.869 263.816 710.122C253.216 717.376 238.192 702.252 244.226 681.495C250.263 660.74 274.826 654.323 281.969 656.365C289.111 658.407 287.614 654.001 287.614 654.001L281.477 635.81C281.477 635.81 244.464 642.747 234.286 657.787C224.107 672.826 210.525 700.496 225.596 724.132C240.667 747.768 267.036 746.881 286.179 729.053C305.322 711.227 290.015 672.133 264.339 675.546L264.341 675.549Z" fill="#FFC971" fill-opacity="0.7"/>
<path d="M522.752 121.786C511.163 123.813 504.238 128.802 480.721 142.418C457.204 156.034 429.121 156.25 429.121 156.25C429.121 156.25 403.598 160.4 402.777 153.09C401.956 145.779 409.018 144.529 409.018 144.529L426.433 143.215C472.306 146.296 494.202 114.898 504.624 92.4284C515.047 69.9589 515.706 41.0632 512.83 43.5347C509.953 46.0061 506.293 55.3394 506.293 55.3394C488.031 101.053 443.061 113.14 422.464 117.966C401.867 122.792 376.922 118.25 353.483 132.156C330.045 146.063 313.069 191.061 302.454 213.907C291.84 236.753 249.785 260.543 238.263 260.657C226.74 260.771 217.23 256.713 216.167 269.733C215.104 282.752 228.297 288.03 228.297 288.03C247.972 314.386 278.069 310.706 276.111 310.053C274.154 309.399 269.989 305.019 268.908 299.997C267.826 294.975 270.202 293.921 281.866 305.112C293.529 316.305 314.477 311.683 314.477 311.683C308.801 309.351 306.17 299.764 309.672 297.414C313.175 295.063 322.493 306.353 328.364 308.312C334.233 310.27 337.496 307.049 349.67 311.463C361.842 315.876 376.866 313.413 382.939 309.634C389.011 305.856 421.536 289.44 396.025 295.794C370.515 302.148 349.017 299.372 339.618 294.264C330.217 289.159 339.345 287.876 342.347 286.943C345.35 286.01 370.672 295.162 385.992 289.456C401.311 283.747 401.675 286.157 411.583 283.393C421.488 280.629 438.522 267.138 432.87 269.209C427.218 271.282 407.428 273.65 390.388 272.011C373.348 270.371 369.626 261.126 371.33 257.127C373.034 253.131 387.561 257.404 397.026 257.336C446.405 256.986 461.398 236.066 471.005 228.982C480.613 221.898 482.001 218.313 485.771 213.702C489.541 209.092 485.307 208.773 477.854 216.163C470.404 223.553 449.37 230.032 437.428 231.852C425.486 233.672 403.807 233.476 402.519 226.625C401.23 219.774 408.886 219.602 408.886 219.602C408.886 219.602 418.417 219.792 435.354 216.735C452.288 213.678 481.504 199.237 484.242 193.026C486.98 186.816 494.655 175.918 504.947 172.403C515.239 168.889 511.132 167.958 511.132 167.958C497.324 171.62 472.817 182.705 451.333 189.697C429.849 196.69 403.005 194.945 405.972 187.403C408.938 179.861 427.274 182.989 452.251 179.008C477.228 175.026 498.433 152.988 502.536 146.353C506.638 139.718 511.298 127.55 518.395 125.345C525.492 123.14 522.75 121.784 522.75 121.784L522.752 121.786Z" fill="#FFC971" fill-opacity="0.7"/>
<path d="M55.5611 289.35C51.9918 290.884 32.0712 295.377 29.0809 287.387C26.0906 279.398 27.4741 291.709 30.3403 296.339C33.2065 300.97 44.8118 315.626 55.3853 314.887C65.9588 314.15 76.7142 308.258 77.1589 312.792C77.6055 317.325 66.9576 323.608 61.2273 324.539C55.497 325.47 45.3371 324.808 51.4066 328.017C57.476 331.227 69.1683 333.113 73.6599 336.39C78.1515 339.667 91.8083 335.624 97.46 334.403C103.112 333.182 113.365 335.941 120.958 336.553C128.552 337.167 136.077 335.825 130.76 327.766C130.76 327.766 121.74 313.8 114.103 303.43C106.468 293.062 103.316 268.146 117.561 243.319C125.107 230.165 156.939 189.031 146.057 143.571C135.175 98.1101 120.834 102.567 111.22 86.4418C101.606 70.317 97.1664 38.1445 100.531 18.4105C103.896 -1.32351 117.716 -4.76986 115.201 -12.4812C112.684 -20.1948 90.644 10.0169 85.8071 20.0148C80.968 30.0128 73.8191 50.4994 83.8963 74.1243C93.9734 97.7492 111.495 116.513 111.495 116.513C111.495 116.513 119.567 129.295 109.189 127.424C98.8104 125.553 81.9462 101.913 75.1674 84.4832C68.3887 67.0533 63.8888 43.3932 66.3207 26.0734C68.7506 8.75366 66.9742 11.005 61.339 19.5527C55.7038 28.1003 44.3693 43.5165 53.0692 75.2137C61.7691 106.913 72.5018 125.661 78.6954 132.23C84.8889 138.8 89.6514 141.991 85.1019 143.406C80.5524 144.821 54.6388 140.558 45.2502 107.8C35.8596 75.042 42.6405 54.6698 37.7705 58.7324C32.8983 62.7949 26.3036 88.2046 32.8094 113.366C39.3152 138.527 51.5265 149.57 54.6657 155.191C57.8048 160.811 61.6388 168.963 56.3821 170.171C51.1253 171.379 32.9521 167.686 20.5216 118.033C20.5216 118.033 12.6303 118.363 13.8318 135.829C15.0332 153.294 19.7647 177.805 32.8446 184.746C45.9244 191.685 50.6952 207.617 48.6127 211.661C46.5303 215.706 43.478 217.929 30.5574 207.08C17.6368 196.23 21.1999 174.311 14.5349 177.658C7.86987 181.003 12.2312 208.53 17.4465 218.801C22.6599 229.071 44.7477 245.566 46.4042 250.148C48.0606 254.73 47.097 261.4 41.6562 257.569C36.2154 253.74 10.7112 237.881 7.96292 226.417C5.21667 214.954 1.49224 217.386 0.530636 224.056C-0.433033 230.726 6.3168 252.412 16.2658 262.487C26.2147 272.562 41.6169 279.242 50.4595 279.466C59.3021 279.691 59.1366 287.811 55.5652 289.347L55.5611 289.35Z" fill="#FFC971" fill-opacity="0.7"/>
<path d="M253.013 130.789C250.666 142.893 259 144.685 259.095 145.521C259.19 146.36 256.702 150.167 257.085 151.06C257.465 151.954 260.751 150.066 264.108 144.975C267.464 139.885 267.993 148.248 266.535 149.859C265.075 151.47 263.14 151.346 263.557 152.374C263.975 153.4 270.415 148.653 274.34 146.131C278.267 143.609 281.458 138.281 278.807 137.66C278.807 137.66 261.841 134.733 257.114 122.957C252.388 111.181 253.65 127.515 253.015 130.789H253.013Z" fill="#FFC971" fill-opacity="0.7"/>
<path d="M283.183 116.498C275.875 113.133 276.816 105.18 270.017 106.137C263.217 107.094 260.928 113.298 263.13 119.986C265.331 126.674 270.976 133.882 281.473 131.052C291.97 128.221 296.152 117.229 296.751 111.989C297.351 106.749 296.131 109.729 296.131 109.729C296.131 109.729 290.492 119.865 283.183 116.5V116.498Z" fill="#FFC971" fill-opacity="0.7"/>
<path d="M274.551 94.7502C263.644 97.2723 262.05 103.839 262.143 104.678C262.238 105.516 267.259 103.522 271.108 103.192C274.956 102.864 275.066 104.255 279.111 103.153C283.154 102.05 287.484 104.462 288.371 106.209C289.258 107.957 291.413 108.877 291.093 106.231C291.093 106.231 285.457 92.2282 274.549 94.7502H274.551Z" fill="#FFC971" fill-opacity="0.7"/>
<path d="M234.41 111.043C238.201 110.008 238.701 105.827 249.496 107.264C252.912 107.72 257.559 109.139 256.847 108.639C256.399 108.325 258.051 107.687 257.329 105.743C257.329 105.743 257.358 103.567 258.601 98.6988C259.846 93.8307 255.216 95.27 250.621 96.8436C246.028 98.4149 241.183 102.033 238.67 103.767C236.157 105.499 230.617 112.079 234.41 111.045V111.043Z" fill="#FFC971" fill-opacity="0.7"/>
<path d="M281.19 70.1394C274.093 72.4897 273.613 73.2182 270.428 76.9529C267.244 80.6897 263.594 86.9024 263.98 86.6185C276.181 77.6219 285.642 83.3944 296.458 78.2579C303.294 75.0118 299.117 63.7 299.117 63.7C299.117 63.7 305.724 60.0556 305.617 53.7307C305.509 47.4058 296.191 46.1095 296.191 46.1095C296.191 46.1095 298.015 42.3617 290.461 36.6156C282.906 30.8694 274.262 38.4708 274.262 38.4708C267.401 41.1821 264.206 49.8354 266.092 55.7136C267.976 61.5917 274.85 60.4055 274.85 60.4055C274.814 63.7418 278.402 64.939 283.268 63.8607C288.134 62.7823 291.497 58.7021 290.165 54.3447C288.833 49.9894 283.498 50.346 283.498 50.346C287.179 48.9133 289.687 49.1443 293.118 57.1858C296.547 65.2273 288.287 67.7934 281.19 70.1438V70.1394Z" fill="#FFC971" fill-opacity="0.7"/>
<path d="M249.763 312.449C248.493 311.753 247.333 311.179 246.274 310.715L242.337 308.756C230.713 305.908 225.046 294.744 220.65 296.111C216.253 297.477 216.406 304.352 216.406 304.352C218.206 349.897 261.308 368.4 261.308 368.4C261.308 368.4 291.618 367.879 304.326 346.505C304.326 346.505 293.365 337.007 303.92 324.344C303.92 324.344 270.434 323.78 249.761 312.447L249.763 312.449Z" fill="#FFC971" fill-opacity="0.7"/>
<path d="M300.581 454.462C300.144 454.766 299.733 455.054 299.381 455.312L297.282 456.846C296.656 463.309 294.894 469.711 292.011 475.697C289.323 481.283 285.532 486.131 281.001 489.956C279.316 493.673 277.848 500.689 282.649 511.074C290.168 527.329 330.661 518.924 321.124 480.988C317.465 466.441 309.99 458.153 300.578 454.46L300.581 454.462Z" fill="#FFC971" fill-opacity="0.7"/>
<path d="M256.407 499.93L255.822 500.025C254.848 500.183 253.826 500.265 252.788 500.265C247.308 500.265 241.2 498.077 232.514 494.29C226.662 527.989 242.984 574.881 296.925 561.482C371.338 543.001 382.54 454.929 382.54 454.929C384.046 446.765 373.52 458.662 368.828 463.84C364.133 469.019 360.707 494.717 336.017 515.403C311.33 536.09 281.006 546.447 267.262 518.65C262.708 509.439 262.911 502.85 265.2 498.139C261.803 499.054 258.748 499.554 256.407 499.932V499.93Z" fill="#FFC971" fill-opacity="0.7"/>
<path d="M120.458 376.053C146.756 376.814 157.098 381.83 157.098 381.83L168.219 378.434C166.883 374.035 157.914 371.066 154.682 370.707C146.261 369.772 132.677 363.247 123.868 362.393C115.058 361.539 100.297 365.998 96.5292 369.732C92.7613 373.467 85.8254 378.546 84.6715 380.553C83.5175 382.56 79.8159 383.626 80.0992 387.759C80.2867 390.514 80.0013 393.561 79.2431 396.9C78.1036 401.909 80.4032 402.779 84.7252 402.361C89.0452 401.942 93.4727 400.012 93.4169 398.789C93.359 397.565 90.0812 399.436 87.2605 398.329C84.4399 397.22 85.6434 395.43 85.5255 391.007C85.4076 386.583 87.4839 385.529 87.9202 384.422C88.3566 383.315 92.4615 376.026 102.619 375.773C103.726 375.745 101.395 377.976 101.201 382.369C101.006 386.762 105.374 392.785 106.292 392.237C109.903 390.083 106.482 386.742 108.645 382.369C110.825 377.963 119.585 376.026 120.464 376.053H120.458Z" fill="#FFC971" fill-opacity="0.7"/>
<path d="M201.845 387.116C215.611 387.477 241.076 390.518 239.653 388.967C231.64 380.223 229.549 385.584 218.537 380.536C207.528 375.485 197.635 373.269 191.302 376.392C184.97 379.512 174.021 382.948 171.742 385.014C169.463 387.081 164.27 386.795 162.998 392.246C162.149 395.88 160.574 399.678 158.273 403.639C154.822 409.581 157.44 411.731 163.172 413.131C168.904 414.53 175.371 414.029 175.782 412.429C176.194 410.829 171.229 411.769 168.032 409.075C164.837 406.381 165.199 403.569 168.696 398.863C179.224 384.693 181.817 405.499 190.02 402.473C195.027 400.626 182.272 396.075 186.071 392.263C189.869 388.452 199.053 387.046 201.843 387.118L201.845 387.116Z" fill="#FFC971" fill-opacity="0.7"/>
<path d="M254.857 493.337C257.666 492.88 261.514 492.305 265.71 490.98C274.66 488.15 282.095 481.46 286.352 472.615C291.89 461.112 292.8 447.588 288.371 435.555C285.008 426.422 278.672 418.283 266.761 418.211C266.761 418.211 243.513 417.401 242.915 452.124C242.317 486.847 271.629 478.557 274.067 461.928C276.505 445.3 272.824 435.619 266.231 437.505C259.639 439.391 263.799 444.934 266.5 448.011C269.201 451.088 265.6 464.93 258.741 464.965C251.882 465.001 246.91 446.334 256.278 433.715C265.648 421.098 277.849 429.93 279.811 438.268C281.774 446.605 286.22 470.522 264.862 481.013C243.504 491.502 228.845 463.887 237.288 435.999C245.732 408.112 264.06 399.445 277.677 403.99C288.303 407.535 297.732 424.289 295.778 449.736C300.673 446.16 312.078 439.362 312.041 435.352C311.993 430.275 309.148 427.106 307.069 429.261C304.991 431.415 303.347 434.226 303.347 434.226C303.347 434.226 304.883 399.835 280.368 395.475C271.167 393.84 257.916 393.785 242.361 393.778C240.766 394.815 238.814 394.821 237.567 394.821C234.378 394.821 228.611 394.364 221.931 393.836C221.148 393.774 220.347 393.71 219.543 393.646C212.655 393.532 205.532 393.31 198.28 392.891C196.359 393.23 194.181 393.791 192.405 394.52C194.415 396.314 196.824 398.739 196.198 402.429C195.962 403.82 195.06 406.342 191.687 407.586C190.6 407.986 189.491 408.191 188.387 408.191C183.664 408.191 180.492 404.615 178.175 402.002C177.404 401.133 176.153 399.722 175.493 399.335C175.156 399.516 174.222 400.152 172.685 402.22C171.738 403.497 171.295 404.293 171.091 404.745C171.122 404.771 171.155 404.8 171.19 404.83C171.868 405.403 173.274 405.667 174.403 405.88C176.17 406.212 178.589 406.668 180.032 409.095C180.878 410.517 181.112 412.207 180.69 413.858C179.278 419.366 172.296 419.366 170.003 419.366C167.387 419.366 164.556 419.027 162.033 418.411C158.389 417.52 153.989 415.94 152.274 411.576C150.423 406.859 153.072 402.295 153.943 400.794C155.966 397.313 157.337 394.028 158.058 390.942C158.296 389.918 158.629 389.02 159.014 388.21C157.194 387.854 155.376 387.484 153.565 387.079C146.951 385.609 140.477 384.02 134.213 382.378C130.296 381.96 125.782 381.632 120.61 381.474C118.345 381.824 113.86 383.611 113.134 384.892C112.898 385.367 112.898 385.77 113.02 387.119C113.208 389.192 113.645 394.049 108.769 396.958C107.972 397.434 107.065 397.685 106.144 397.685C103.539 397.685 101.783 395.726 101.206 395.081C99.442 393.114 96.2553 388.206 96.1023 383.047C93.7241 384.524 92.6881 386.377 92.5516 386.635C92.1463 387.61 91.6106 388.292 91.2136 388.798C90.7318 389.412 90.5684 389.619 90.6015 390.849C90.6242 391.71 90.6057 392.486 90.5767 393.164C90.6656 393.151 90.7546 393.138 90.8455 393.125C91.4473 393.034 92.0698 392.94 92.7398 392.94C96.3442 392.94 98.3626 395.746 98.4908 398.519C98.8506 406.208 86.5793 407.614 85.1793 407.751C84.3852 407.828 83.68 407.865 83.0224 407.865C79.6558 407.865 77.1329 406.76 75.5219 404.582C73.8655 402.341 73.4519 399.326 74.2936 395.625C74.9278 392.833 75.1704 390.341 75.0215 388.149C74.6389 382.533 78.1028 379.562 79.7654 378.133C79.9929 377.937 80.2948 377.68 80.4437 377.532C81.5625 375.708 83.6883 373.877 87.5471 370.627C88.2378 370.046 88.9285 369.46 89.6089 368.879C73.181 363.261 62.8412 359.004 62.8412 359.004C62.8412 359.004 42.3498 356.533 30.124 380.68C17.8983 404.826 27.1896 433.823 39.2106 443.847C39.2106 443.847 133.255 447.322 185.3 466.997C228.505 483.331 244.518 495.023 254.855 493.34L254.857 493.337Z" fill="#FFC971" fill-opacity="0.7"/>
</svg>
