<svg width="127" height="66" viewBox="0 0 127 66" fill="none" xmlns="http://www.w3.org/2000/svg">
<path d="M34.723 33.7298C34.8316 43.9976 34.9347 54.1134 35.0378 64.316H28.5902C28.7204 54.1568 28.8452 44.041 28.9755 33.7298C27.8195 33.7298 26.8318 33.7082 25.844 33.7516C25.6866 33.757 25.4641 34.0066 25.4044 34.1857C25.1384 34.9617 24.9377 35.7595 24.6934 36.541C23.8902 39.0753 23.2769 41.6857 22.224 44.1116C20.8346 47.308 19.2878 50.4665 17.0138 53.1799C15.7004 54.7537 14.5498 56.4849 13.1061 57.9176C11.3748 59.6325 9.40475 61.1141 7.52148 62.6662C7.34238 62.8127 6.94073 62.8833 6.74535 62.791C4.74268 61.825 2.75627 60.8156 0.61792 59.7465C1.00868 59.5132 1.40492 59.3286 1.74684 59.0627C4.13484 57.2284 6.61511 55.4864 8.86744 53.5001C11.5594 51.1285 13.828 48.3608 15.4616 45.1264C16.3354 43.3898 17.2689 41.6748 18.0015 39.8785C18.6582 38.2613 19.087 36.5464 19.6026 34.8695C19.6949 34.5602 19.7057 34.2291 19.7708 33.7569C19.1467 33.7569 18.6257 33.7461 18.1047 33.7569C14.197 33.8546 10.284 33.9306 6.37633 34.0717C5.56766 34.0989 5.27453 33.8547 5.16056 33.0623C4.98146 31.7653 4.67213 30.4845 4.37906 29.0138C5.05747 29.0138 5.54589 29.0138 6.03977 29.0138C13.1929 29.0301 20.3516 29.0518 27.5047 29.0681C28.4346 29.0681 28.8959 28.5959 28.8887 27.6516C28.8779 25.0793 28.867 22.5015 28.8561 19.9291C28.8561 19.3322 28.8561 18.7352 28.8561 18.0569C28.4165 18.0243 28.0963 17.9809 27.7761 17.9809C24.4654 17.9809 21.1548 17.9917 17.8441 17.9646C17.2417 17.9646 16.9378 18.16 16.6013 18.6864C14.9514 21.2642 12.9813 23.576 10.5119 25.4158C10.3057 25.5677 9.90402 25.6926 9.71949 25.5949C7.87421 24.6397 6.0561 23.6357 4.11313 22.5775C10.5607 18.2034 14.7506 12.3532 16.5959 4.67947C18.452 5.18961 20.2593 5.68348 22.1534 6.19904C21.3176 8.63031 20.5361 10.8987 19.7383 13.216H28.7313C28.753 12.8741 28.7964 12.5865 28.791 12.3043C28.6716 8.79854 28.5522 5.28731 28.4111 1.78151C28.3948 1.3148 28.4328 0.989136 29.0081 0.989136C31.0379 0.994563 33.0731 0.989136 35.1843 0.989136C35.0704 5.08647 34.9564 9.0807 34.837 13.2811C40.4759 13.1889 45.9955 13.4494 51.6453 12.6191C51.591 13.5579 51.5747 14.3828 51.4933 15.1969C51.4336 15.7884 51.1894 16.3745 51.2219 16.9498C51.2816 17.9375 50.8366 18.0786 49.9791 18.0677C45.3985 17.9972 40.8178 17.9863 36.2372 17.9537C35.841 17.9537 35.4449 17.9537 34.9184 17.9537V29.1549C42.0933 29.0138 49.2844 28.8673 56.557 28.7208C56.4647 30.3326 56.3562 32.1181 56.253 33.8818H43.6835C44.1828 35.6347 44.6713 37.3713 45.176 39.1025C45.2791 39.4498 45.4799 39.7592 45.5938 40.1065C46.777 43.7208 48.7688 46.8956 51.1243 49.8153C54.3318 53.7878 58.2883 56.9408 62.793 59.6923C61.6369 60.2892 60.5949 60.8265 59.5529 61.3692C58.7279 61.7979 57.9301 62.2864 57.0726 62.6337C56.7144 62.7802 56.1011 62.7964 55.8406 62.5848C53.9736 61.0435 52.112 59.4915 50.359 57.82C47.7051 55.2965 45.4854 52.4148 43.8137 49.1423C42.8097 47.1778 41.7459 45.2187 40.9861 43.1564C39.9332 40.3073 39.1246 37.3659 38.2508 34.4516C38.1042 33.9578 37.9251 33.6973 37.3824 33.719C36.5845 33.7461 35.7868 33.7244 34.7176 33.7244L34.723 33.7298Z" fill="#502E12"/>
<path d="M106.7 34.6144C112.089 34.4028 117.479 34.1911 123.009 33.9686C122.797 35.5478 122.569 37.2682 122.331 39.1025C121.891 39.1025 121.495 39.1025 121.104 39.1025C117.261 39.0971 113.413 39.1079 109.571 39.0699C108.735 39.0645 108.328 39.249 108.437 40.1825C108.524 40.8988 108.453 41.6314 108.453 42.6028C112.795 42.4563 117.023 42.3152 121.495 42.1687C121.327 43.6231 121.169 45.1915 120.925 46.7436C120.898 46.901 120.339 47.0692 120.024 47.0692C116.583 47.0855 113.137 47.0692 109.696 47.0583C109.332 47.0583 108.974 47.0583 108.464 47.0583C108.464 48.0026 108.382 48.8655 108.513 49.7012C108.551 49.9455 109.169 50.2711 109.528 50.2765C112.133 50.2874 114.743 50.2494 117.348 50.1734C118.64 50.1354 119.926 49.978 121.37 49.8641C121.218 51.4867 121.104 52.9954 120.898 54.4878C120.876 54.6506 120.339 54.8514 120.046 54.8568C116.702 54.8785 113.359 54.8568 110.016 54.8568C109.555 54.8568 109.088 54.9002 108.545 54.9219V58.3084C114.179 58.1782 119.834 58.0479 125.576 57.9176C125.505 59.3775 125.457 61.0056 125.299 62.6228C125.283 62.8073 124.648 63.0623 124.301 63.0623C121.424 63.0569 118.553 62.9538 115.677 62.9647C107.221 62.9918 98.7598 63.0406 90.3041 63.1275C89.5334 63.1329 89.2404 62.9376 89.1698 62.1724C89.0504 60.8916 88.8333 59.6163 88.6379 58.1998C89.159 58.1998 89.5172 58.1998 89.8754 58.1998C93.7179 58.1998 97.5658 58.1836 101.408 58.227C102.309 58.2378 102.673 57.9719 102.651 57.0385C102.597 54.656 102.836 54.8568 100.497 54.8623C97.4518 54.8677 94.4126 54.8677 91.3679 54.9057C90.6461 54.9166 90.2987 54.7537 90.2282 53.9343C90.1359 52.7621 89.8536 51.6061 89.6202 50.2548C90.2172 50.2548 90.6026 50.2548 90.9934 50.2548C94.5374 50.2657 98.0814 50.2548 101.625 50.2983C102.402 50.3091 102.64 49.9997 102.63 49.3051C102.575 46.7436 102.982 47.0963 100.497 47.0801C97.4898 47.0638 94.4777 47.0475 91.471 47.1397C90.4452 47.1723 90.0816 46.6568 89.9514 45.859C89.7831 44.8062 89.7396 43.7371 89.6257 42.4835C90.0816 42.4835 90.4615 42.4835 90.8414 42.4835C94.3203 42.4889 97.7938 42.4997 101.273 42.5051C102.63 42.5051 102.646 42.4943 102.63 41.181C102.608 38.8637 102.977 39.1025 100.556 39.0971C97.4138 39.0971 94.2714 39.0753 91.129 39.1405C90.1087 39.1622 89.5986 38.9288 89.5768 37.8055C89.5551 36.7201 89.3543 35.6347 89.2186 34.4679H104.572C103.465 32.3839 102.06 30.7504 100.165 29.3503C100.573 29.1006 100.952 28.9867 101.159 28.7262C102.44 27.0927 103.791 27.2284 105.316 28.3897C106.472 29.2689 107.742 29.9906 108.909 30.8535C109.587 31.3582 109.522 31.9769 108.86 32.5088C108.122 33.1003 107.384 33.6973 106.646 34.2942C106.673 34.4028 106.7 34.5113 106.727 34.6144H106.7Z" fill="#502E12"/>
<path d="M95.7744 21.2642C96.5071 14.6922 96.5885 8.34265 95.693 1.91174H102.732C101.88 7.75112 102.054 13.5634 102.336 19.6144C105.055 17.8235 107.134 15.5659 109.299 13.2051C110.727 14.2254 112.094 15.2023 113.522 16.2171C110.2 20.1896 106.374 23.3861 102.206 26.2298C98.5911 28.6936 94.7703 30.7559 90.7975 32.563C89.4027 33.198 87.9699 33.7407 86.5426 34.2834C85.9401 34.5113 85.6416 34.7935 85.6525 35.5044C85.7447 44.5674 85.799 53.6249 85.875 62.6879C85.8804 63.4802 85.9673 64.2726 86.0216 65.1463H79.5576C79.6662 55.6492 79.7693 46.2063 79.8833 36.579C78.2876 36.9806 76.9797 37.3224 75.6663 37.6318C74.4288 37.9194 73.186 38.1636 71.9486 38.4458C71.1942 38.6195 70.7546 38.4892 70.4669 37.6318C70.125 36.6115 69.5117 35.6835 69.0341 34.7013C68.8333 34.2888 68.6976 33.8438 68.4534 33.2142C74.1792 32.4056 79.6553 31.0489 84.9904 29.1224C90.3254 27.1958 95.3456 24.656 100.008 21.2588H95.7744V21.2642Z" fill="#502E12"/>
<path d="M73.8918 17.7963C76.3341 16.1031 78.8904 14.5455 81.197 12.6841C83.4982 10.8226 85.5497 8.64646 87.878 6.45398C89.1263 7.24631 90.5591 8.15261 92.0462 9.09689C88.1711 14.1656 83.8292 18.5506 78.4399 21.9533C76.904 20.5477 75.4006 19.1747 73.8918 17.8017V17.7963Z" fill="#502E12"/>
<path d="M121.88 20.3633C117.435 16.1628 112.87 12.3097 107.573 9.21089C108.588 8.11465 109.478 7.11068 110.439 6.17182C110.634 5.97645 111.182 5.89504 111.416 6.02529C113.37 7.14323 115.334 8.25577 117.212 9.49853C119.53 11.0344 121.776 12.6787 124.04 14.2959C124.707 14.7735 125.326 15.3216 126.026 15.886C124.658 17.3622 123.329 18.8003 121.88 20.3687V20.3633Z" fill="#502E12"/>
</svg>
