<svg width="393" height="287" viewBox="0 0 393 287" fill="none" xmlns="http://www.w3.org/2000/svg">
<g filter="url(#filter0_d_997_764)">
<path d="M376.328 -71.999C376.328 -58.2413 383.26 -47.0879 391.811 -47.0879C392.211 -47.0879 392.607 -47.1131 393 -47.1611V240.414C392.607 240.366 392.211 240.342 391.811 240.342C383.26 240.342 376.328 251.495 376.328 265.253C376.328 267.231 376.472 269.155 376.743 271H15.0664C15.3372 269.155 15.4814 267.231 15.4814 265.253C15.4814 251.495 8.55038 240.342 0 240.342V-47.0879C8.55038 -47.0879 15.4814 -58.2413 15.4814 -71.999V-72H376.328V-71.999Z" fill="white"/>
</g>
<mask id="path-2-inside-1_997_764" fill="white">
<path d="M366.58 -50.7615C366.888 -38.7364 373.285 -29.1336 381.132 -29.1336C382.382 -29.1336 383.596 -29.379 384.754 -29.8377V231.6C383.596 231.141 382.382 230.897 381.132 230.897C373.088 230.897 366.567 240.987 366.567 253.433C366.567 255.616 366.768 257.726 367.143 259.722H26.5322C26.9064 257.726 27.1074 255.616 27.1074 253.433C27.1074 240.987 20.5874 230.897 12.5439 230.897C10.7521 230.897 9.03561 231.398 7.4502 232.314V-30.5516C9.03573 -29.6356 10.752 -29.1336 12.5439 -29.1336C20.3908 -29.134 26.7868 -38.7366 27.0947 -50.7615H366.58Z"/>
</mask>
<path d="M366.58 -50.7615C366.888 -38.7364 373.285 -29.1336 381.132 -29.1336C382.382 -29.1336 383.596 -29.379 384.754 -29.8377V231.6C383.596 231.141 382.382 230.897 381.132 230.897C373.088 230.897 366.567 240.987 366.567 253.433C366.567 255.616 366.768 257.726 367.143 259.722H26.5322C26.9064 257.726 27.1074 255.616 27.1074 253.433C27.1074 240.987 20.5874 230.897 12.5439 230.897C10.7521 230.897 9.03561 231.398 7.4502 232.314V-30.5516C9.03573 -29.6356 10.752 -29.1336 12.5439 -29.1336C20.3908 -29.134 26.7868 -38.7366 27.0947 -50.7615H366.58Z" fill="white"/>
<path d="M366.58 -50.7615L367.58 -50.7871L367.555 -51.7615H366.58V-50.7615ZM381.132 -29.1336V-28.1336H381.132L381.132 -29.1336ZM384.754 -29.8377H385.754V-31.3094L384.386 -30.7674L384.754 -29.8377ZM384.754 231.6L384.386 232.53L385.754 233.071V231.6H384.754ZM381.132 230.897L381.132 229.897H381.132V230.897ZM366.567 253.433H365.567H366.567ZM367.143 259.722V260.722H368.347L368.125 259.538L367.143 259.722ZM26.5322 259.722L25.5493 259.538L25.3274 260.722H26.5322V259.722ZM27.1074 253.433H28.1074H27.1074ZM12.5439 230.897L12.544 229.897H12.5439V230.897ZM7.4502 232.314H6.4502V234.046L7.95041 233.18L7.4502 232.314ZM7.4502 -30.5516L7.95045 -31.4175L6.4502 -32.2842V-30.5516H7.4502ZM12.5439 -29.1336V-28.1336H12.544L12.5439 -29.1336ZM27.0947 -50.7615V-51.7615H26.12L26.0951 -50.7871L27.0947 -50.7615ZM366.58 -50.7615L365.58 -50.7359C365.738 -44.5638 367.458 -38.9657 370.198 -34.8811C372.933 -30.8043 376.767 -28.1336 381.132 -28.1336V-29.1336V-30.1336C377.65 -30.1336 374.362 -32.2643 371.859 -35.9952C369.362 -39.7182 367.73 -44.9341 367.58 -50.7871L366.58 -50.7615ZM381.132 -29.1336L381.132 -28.1336C382.516 -28.1336 383.854 -28.4055 385.122 -28.908L384.754 -29.8377L384.386 -30.7674C383.338 -30.3524 382.249 -30.1336 381.132 -30.1336L381.132 -29.1336ZM384.754 -29.8377H383.754V231.6H384.754H385.754V-29.8377H384.754ZM384.754 231.6L385.122 230.67C383.853 230.167 382.515 229.897 381.132 229.897L381.132 230.897L381.132 231.897C382.25 231.897 383.339 232.115 384.386 232.53L384.754 231.6ZM381.132 230.897V229.897C376.657 229.897 372.742 232.702 369.993 236.955C367.239 241.217 365.567 247.046 365.567 253.433H366.567H367.567C367.567 247.373 369.157 241.934 371.673 238.04C374.196 234.136 377.563 231.897 381.132 231.897V230.897ZM366.567 253.433H365.567C365.567 255.677 365.774 257.849 366.16 259.906L367.143 259.722L368.125 259.538C367.763 257.603 367.567 255.554 367.567 253.433H366.567ZM367.143 259.722V258.722H26.5322V259.722V260.722H367.143V259.722ZM26.5322 259.722L27.5151 259.906C27.9008 257.849 28.1074 255.677 28.1074 253.433H27.1074H26.1074C26.1074 255.554 25.912 257.603 25.5493 259.538L26.5322 259.722ZM27.1074 253.433H28.1074C28.1074 247.046 26.4364 241.217 23.6819 236.955C20.9338 232.702 17.0188 229.897 12.544 229.897L12.5439 230.897L12.5439 231.897C16.1125 231.897 19.4792 234.136 22.0021 238.04C24.5184 241.934 26.1074 247.374 26.1074 253.433H27.1074ZM12.5439 230.897V229.897C10.5595 229.897 8.67203 230.453 6.94998 231.448L7.4502 232.314L7.95041 233.18C9.39919 232.343 10.9448 231.897 12.5439 231.897V230.897ZM7.4502 232.314H8.4502V-30.5516H7.4502H6.4502V232.314H7.4502ZM7.4502 -30.5516L6.94994 -29.6857C8.67183 -28.6909 10.559 -28.1336 12.5439 -28.1336V-29.1336V-30.1336C10.9449 -30.1336 9.39963 -30.5802 7.95045 -31.4175L7.4502 -30.5516ZM12.5439 -29.1336L12.544 -28.1336C16.909 -28.1338 20.7426 -30.8046 23.4769 -34.8813C26.2165 -38.9659 27.9363 -44.564 28.0944 -50.7359L27.0947 -50.7615L26.0951 -50.7871C25.9452 -44.9342 24.313 -39.7184 21.8159 -35.9954C19.3136 -32.2645 16.0258 -30.1338 12.5439 -30.1336L12.5439 -29.1336ZM27.0947 -50.7615V-49.7615H366.58V-50.7615V-51.7615H27.0947V-50.7615Z" fill="#D9B881" mask="url(#path-2-inside-1_997_764)"/>
<defs>
<filter id="filter0_d_997_764" x="-16" y="-88" width="425" height="375" filterUnits="userSpaceOnUse" color-interpolation-filters="sRGB">
<feFlood flood-opacity="0" result="BackgroundImageFix"/>
<feColorMatrix in="SourceAlpha" type="matrix" values="0 0 0 0 0 0 0 0 0 0 0 0 0 0 0 0 0 0 127 0" result="hardAlpha"/>
<feOffset/>
<feGaussianBlur stdDeviation="8"/>
<feComposite in2="hardAlpha" operator="out"/>
<feColorMatrix type="matrix" values="0 0 0 0 0.44391 0 0 0 0 0.44391 0 0 0 0 0.44391 0 0 0 0.25 0"/>
<feBlend mode="normal" in2="BackgroundImageFix" result="effect1_dropShadow_997_764"/>
<feBlend mode="normal" in="SourceGraphic" in2="effect1_dropShadow_997_764" result="shape"/>
</filter>
</defs>
</svg>
