<svg width="393" height="371" viewBox="0 0 393 371" fill="none" xmlns="http://www.w3.org/2000/svg">
<path d="M54.411 68.9995C54.411 68.9995 90.0354 102.254 186.993 106.509C283.951 110.763 344.483 64.2958 344.483 64.2958" stroke="#DBC8AB" stroke-width="3"/>
<path d="M105.653 127.31L102.877 129.969L102.499 130.33L102.877 130.691L105.653 133.351L105.999 133.682L106.345 133.351L109.122 130.691L109.499 130.33L109.122 129.969L106.345 127.31L105.999 126.978L105.653 127.31ZM105.653 120.428L104.265 121.758L102.877 123.087L102.499 123.448L102.877 123.81L105.653 126.469L105.999 126.8L106.345 126.469L109.122 123.81L109.499 123.448L109.122 123.087L106.999 121.054L106.345 120.428L105.999 120.097L105.653 120.428ZM102.062 116.986L99.2842 119.646L98.9072 120.007L99.2842 120.368L102.062 123.027L102.407 123.359L102.753 123.027L105.529 120.368L105.906 120.007L105.529 119.646L102.753 116.986L102.407 116.655L102.062 116.986ZM109.246 116.987L107.857 118.316L106.469 119.646L106.092 120.008L106.47 120.369L108.32 122.142L109.246 123.028L109.592 123.359L109.938 123.028L112.715 120.369L113.092 120.008L112.715 119.646L109.938 116.987L109.592 116.656L109.246 116.987ZM105.653 113.546L102.877 116.205L102.499 116.566L102.877 116.928L104.728 118.701L105.653 119.587L105.999 119.919L106.345 119.587L109.122 116.928L109.499 116.566L109.122 116.205L106.345 113.546L105.999 113.215L105.653 113.546ZM105.653 106.664L102.877 109.324L102.499 109.685L102.877 110.046L105.653 112.706L105.999 113.037L106.345 112.706L109.122 110.046L109.499 109.685L109.122 109.324L106.345 106.664L105.999 106.333L105.653 106.664ZM105.924 133.786L105.77 133.639L102.315 130.329L105.53 127.25L105.907 126.89L105.53 126.528L102.754 123.868H102.753L98.7227 120.008L101.938 116.929L102.21 116.668L102.753 116.147L105.53 113.487L105.907 113.127L105.53 112.766L102.315 109.686L105.77 106.377L105.924 106.229V95.5H106.077V106.23L106.231 106.378L109.654 109.657L109.685 109.686L106.47 112.766L106.093 113.127L106.47 113.487L109.654 116.538L110.062 116.928V116.929L113.246 119.979L113.276 120.008L109.246 123.869L106.469 126.528L106.092 126.89L106.469 127.25L109.653 130.301H109.654L109.686 130.33L106.231 133.639L106.077 133.786V144.516H105.924V133.786Z" fill="#DBC8AB" stroke="#CDB28A"/>
<path d="M291.653 127.31L288.877 129.969L288.499 130.33L288.877 130.691L291.653 133.351L291.999 133.682L292.345 133.351L295.122 130.691L295.499 130.33L295.122 129.969L292.345 127.31L291.999 126.978L291.653 127.31ZM291.653 120.428L290.265 121.758L288.877 123.087L288.499 123.448L288.877 123.81L291.653 126.469L291.999 126.8L292.345 126.469L295.122 123.81L295.499 123.448L295.122 123.087L292.999 121.054L292.345 120.428L291.999 120.097L291.653 120.428ZM288.062 116.986L285.284 119.646L284.907 120.007L285.284 120.368L288.062 123.027L288.407 123.359L288.753 123.027L291.529 120.368L291.906 120.007L291.529 119.646L288.753 116.986L288.407 116.655L288.062 116.986ZM295.246 116.987L293.857 118.316L292.469 119.646L292.092 120.008L292.47 120.369L294.32 122.142L295.246 123.028L295.592 123.359L295.938 123.028L298.715 120.369L299.092 120.008L298.715 119.646L295.938 116.987L295.592 116.656L295.246 116.987ZM291.653 113.546L288.877 116.205L288.499 116.566L288.877 116.928L290.728 118.701L291.653 119.587L291.999 119.919L292.345 119.587L295.122 116.928L295.499 116.566L295.122 116.205L292.345 113.546L291.999 113.215L291.653 113.546ZM291.653 106.664L288.877 109.324L288.499 109.685L288.877 110.046L291.653 112.706L291.999 113.037L292.345 112.706L295.122 110.046L295.499 109.685L295.122 109.324L292.345 106.664L291.999 106.333L291.653 106.664ZM291.924 133.786L291.77 133.639L288.315 130.329L291.53 127.25L291.907 126.89L291.53 126.528L288.754 123.868H288.753L284.723 120.008L287.938 116.929L288.21 116.668L288.753 116.147L291.53 113.487L291.907 113.127L291.53 112.766L288.315 109.686L291.77 106.377L291.924 106.229V95.5H292.077V106.23L292.231 106.378L295.654 109.657L295.685 109.686L292.47 112.766L292.093 113.127L292.47 113.487L295.654 116.538L296.062 116.928V116.929L299.246 119.979L299.276 120.008L295.246 123.869L292.469 126.528L292.092 126.89L292.469 127.25L295.653 130.301H295.654L295.686 130.33L292.231 133.639L292.077 133.786V144.516H291.924V133.786Z" fill="#DBC8AB" stroke="#CDB28A"/>
<path d="M603.957 66.5959C604.735 66.5494 605.508 66.4994 606.268 66.4374C606.416 66.4615 606.565 66.4882 606.721 66.4882C607.045 66.4882 607.352 66.4184 607.646 66.3159C636.679 63.6029 652.314 50.329 653 49.7345L649.164 44.3051C649.115 44.3473 647.555 45.6568 644.581 47.4971V44.0673C644.581 42.1642 643.187 40.6211 641.467 40.6211C639.748 40.6211 638.354 42.1642 638.354 44.0673V50.9175C636.657 51.7446 634.762 52.5889 632.681 53.4142V48.4991C632.681 46.5959 631.286 45.0529 629.567 45.0529C627.847 45.0529 626.453 46.5959 626.453 48.4991V55.6163C624.838 56.1195 623.132 56.5933 621.353 57.0362V51.8764C621.353 49.9732 619.959 48.4302 618.239 48.4302C616.52 48.4302 615.125 49.9732 615.125 51.8764V58.3647C613.423 58.6679 611.657 58.9316 609.835 59.1547V53.9449C609.835 52.0418 608.44 50.4987 606.721 50.4987C605.001 50.4987 603.607 52.0418 603.607 53.9449V59.7156C603.213 59.7388 602.827 59.7699 602.428 59.7888C582.377 60.7477 569.104 44.5342 562.756 34.2801C561.62 31.8609 560.56 29.2642 559.574 26.5038H562.765V21.8652H554.248V16.3737H562.765V11.7352H521.115V0H421.496V11.7352H379.235V16.3737H387.14V21.8652H379.235V26.5038H382.425C381.44 29.2616 380.382 31.8549 379.248 34.2724C372.901 44.5248 359.627 60.7425 339.572 59.7897C339.173 59.7707 338.787 59.7405 338.393 59.7164V53.9458C338.393 52.0426 336.999 50.4996 335.279 50.4996C333.56 50.4996 332.165 52.0426 332.165 53.9458V59.1556C330.342 58.9333 328.577 58.6688 326.875 58.3655V51.8772C326.875 49.974 325.481 48.431 323.761 48.431C322.041 48.431 320.647 49.974 320.647 51.8772V57.037C318.867 56.5942 317.162 56.1203 315.546 55.6172V48.4999C315.546 46.5968 314.152 45.0538 312.432 45.0538C310.713 45.0538 309.318 46.5968 309.318 48.4999V53.4151C307.238 52.5897 305.342 51.7454 303.646 50.9183V44.0682C303.646 42.165 302.252 40.622 300.532 40.622C298.813 40.622 297.419 42.165 297.419 44.0682V47.4988C294.447 45.6594 292.889 44.3516 292.842 44.3103L289 49.7354C289.686 50.3299 305.321 63.6037 334.354 66.3167C334.648 66.4193 334.955 66.4891 335.279 66.4891C335.434 66.4891 335.583 66.4632 335.732 66.4382C336.492 66.4994 337.265 66.5502 338.043 66.5967C315.342 70.0369 293.82 60.024 293.82 60.024V71.8427L310.5 83.1238C328.327 95.1803 348.813 101.559 369.706 101.559H353.677V106.198H360.849V334.127H358.102V342.923H354.142V363H386.778V342.923H382.818V334.127H380.072V176.235H383.558V182.546H400.387V159.583H412.851V169.07H405.498V165.154H408.044V166.732H410.38V162.57H403.162V171.655H415.186V156.998H408.092V153.984H533.912V156.998H526.818V171.655H538.841V162.57H531.623V166.732H533.959V165.154H536.506V169.07H529.153V159.583H541.617V182.546H558.446V176.235H561.932V334.126H559.186V342.923H555.225V362.999H587.861V342.923H583.902V334.126H581.155V106.197H588.326V101.558H572.298C593.19 101.558 613.677 95.1794 631.504 83.1229L648.184 71.8419V60.0231C648.18 60.0231 626.658 70.0361 603.957 66.5959ZM563.607 49.2159V84.9589C563.607 85.798 562.992 86.4787 562.234 86.4787C561.476 86.4787 560.861 85.798 560.861 84.9589V49.2159C560.861 48.3767 561.476 47.6961 562.234 47.6961C562.992 47.6961 563.607 48.3767 563.607 49.2159ZM545.299 31.9427V84.9598C545.299 85.7989 544.684 86.4795 543.926 86.4795C543.167 86.4795 542.552 85.7989 542.552 84.9598V31.9427C542.552 31.1036 543.167 30.423 543.926 30.423C544.685 30.423 545.299 31.1036 545.299 31.9427ZM536.145 31.9427V84.9598C536.145 85.7989 535.531 86.4795 534.772 86.4795C534.013 86.4795 533.398 85.7989 533.398 84.9598V31.9427C533.398 31.1036 534.013 30.423 534.772 30.423C535.531 30.423 536.145 31.1036 536.145 31.9427ZM526.991 31.9427V84.9598C526.991 85.7989 526.377 86.4795 525.618 86.4795C524.86 86.4795 524.245 85.7989 524.245 84.9598V31.9427C524.245 31.1036 524.86 30.423 525.618 30.423C526.376 30.423 526.991 31.1036 526.991 31.9427ZM517.837 31.9427V84.9598C517.837 85.7989 517.223 86.4795 516.464 86.4795C515.706 86.4795 515.091 85.7989 515.091 84.9598V31.9427C515.091 31.1036 515.705 30.423 516.464 30.423C517.223 30.423 517.837 31.1036 517.837 31.9427ZM508.683 31.9427V84.9598C508.683 85.7989 508.068 86.4795 507.31 86.4795C506.551 86.4795 505.936 85.7989 505.936 84.9598V31.9427C505.936 31.1036 506.551 30.423 507.31 30.423C508.069 30.423 508.683 31.1036 508.683 31.9427ZM499.53 31.9427V84.9598C499.53 85.7989 498.915 86.4795 498.156 86.4795C497.397 86.4795 496.783 85.7989 496.783 84.9598V31.9427C496.783 31.1036 497.398 30.423 498.156 30.423C498.915 30.423 499.53 31.1036 499.53 31.9427ZM490.375 31.9427V84.9598C490.375 85.7989 489.76 86.4795 489.002 86.4795C488.243 86.4795 487.629 85.7989 487.629 84.9598V31.9427C487.629 31.1036 488.244 30.423 489.002 30.423C489.76 30.423 490.375 31.1036 490.375 31.9427ZM481.221 31.9427V84.9598C481.221 85.7989 480.607 86.4795 479.848 86.4795C479.089 86.4795 478.475 85.7989 478.475 84.9598V31.9427C478.475 31.1036 479.089 30.423 479.848 30.423C480.606 30.423 481.221 31.1036 481.221 31.9427ZM472.067 31.9427V84.9598C472.067 85.7989 471.453 86.4795 470.694 86.4795C469.935 86.4795 469.32 85.7989 469.32 84.9598V31.9427C469.32 31.1036 469.935 30.423 470.694 30.423C471.453 30.423 472.067 31.1036 472.067 31.9427ZM462.913 31.9427V84.9598C462.913 85.7989 462.298 86.4795 461.539 86.4795C460.781 86.4795 460.166 85.7989 460.166 84.9598V31.9427C460.166 31.1036 460.781 30.423 461.539 30.423C462.298 30.423 462.913 31.1036 462.913 31.9427ZM453.759 31.9427V84.9598C453.759 85.7989 453.144 86.4795 452.386 86.4795C451.628 86.4795 451.013 85.7989 451.013 84.9598V31.9427C451.013 31.1036 451.628 30.423 452.386 30.423C453.145 30.423 453.759 31.1036 453.759 31.9427ZM444.605 31.9427V84.9598C444.605 85.7989 443.99 86.4795 443.232 86.4795C442.473 86.4795 441.859 85.7989 441.859 84.9598V31.9427C441.859 31.1036 442.474 30.423 443.232 30.423C443.991 30.423 444.605 31.1036 444.605 31.9427ZM435.452 31.9427V84.9598C435.452 85.7989 434.837 86.4795 434.078 86.4795C433.319 86.4795 432.705 85.7989 432.705 84.9598V31.9427C432.705 31.1036 433.32 30.423 434.078 30.423C434.837 30.423 435.452 31.1036 435.452 31.9427ZM426.297 31.9427V84.9598C426.297 85.7989 425.682 86.4795 424.924 86.4795C424.165 86.4795 423.551 85.7989 423.551 84.9598V31.9427C423.551 31.1036 424.165 30.423 424.924 30.423C425.682 30.423 426.297 31.1036 426.297 31.9427ZM417.143 31.9427V84.9598C417.143 85.7989 416.528 86.4795 415.77 86.4795C415.011 86.4795 414.397 85.7989 414.397 84.9598V31.9427C414.397 31.1036 415.011 30.423 415.77 30.423C416.528 30.423 417.143 31.1036 417.143 31.9427ZM407.989 31.9427V84.9598C407.989 85.7989 407.375 86.4795 406.616 86.4795C405.858 86.4795 405.243 85.7989 405.243 84.9598V31.9427C405.243 31.1036 405.857 30.423 406.616 30.423C407.375 30.423 407.989 31.1036 407.989 31.9427ZM398.836 31.9427V84.9598C398.836 85.7989 398.221 86.4795 397.462 86.4795C396.704 86.4795 396.089 85.7989 396.089 84.9598V31.9427C396.089 31.1036 396.703 30.423 397.462 30.423C398.221 30.423 398.836 31.1036 398.836 31.9427ZM380.527 49.2159V84.9589C380.527 85.798 379.912 86.4787 379.154 86.4787C378.396 86.4787 377.781 85.798 377.781 84.9589V49.2159C377.781 48.3767 378.396 47.6961 379.154 47.6961C379.913 47.6961 380.527 48.3767 380.527 49.2159ZM386.935 39.7613C386.935 38.9221 387.55 38.2415 388.308 38.2415C389.067 38.2415 389.681 38.9221 389.681 39.7613V84.9598C389.681 85.7989 389.066 86.4795 388.308 86.4795C387.55 86.4795 386.935 85.7989 386.935 84.9598V39.7613ZM407.784 21.8635V16.372H414.603V21.8635H407.784ZM405.449 21.8635H398.63V16.372H405.449V21.8635ZM432.911 16.372V21.8635H426.093V16.372H432.911ZM535.94 21.8635V16.372H542.759V21.8635H535.94ZM533.605 21.8635H526.786V16.372H533.605V21.8635ZM508.478 21.8635V16.372H515.297V21.8635H508.478ZM506.143 21.8635H499.324V16.372H506.143V21.8635ZM496.988 21.8635H490.17V16.372H496.988V21.8635ZM487.834 21.8635H481.016V16.372H487.834V21.8635ZM478.68 21.8635H471.861V16.372H478.68V21.8635ZM469.527 21.8635H462.708V16.372H469.527V21.8635ZM460.373 21.8635H453.555V16.372H460.373V21.8635ZM451.218 21.8635H444.4V16.372H451.218V21.8635ZM442.065 21.8635H435.246V16.372H442.065V21.8635ZM551.707 39.7613C551.707 38.9221 552.322 38.2415 553.08 38.2415C553.838 38.2415 554.453 38.9221 554.453 39.7613V84.9598C554.453 85.7989 553.838 86.4795 553.08 86.4795C552.321 86.4795 551.707 85.7989 551.707 84.9598V39.7613ZM551.912 21.8635H545.094V16.372H551.912V21.8635ZM524.45 16.372V21.8635H517.632V16.372H524.45ZM423.757 16.372V21.8635H416.939V16.372H423.757ZM389.476 16.372H396.295V21.8635H389.476V16.372ZM546.777 144.49V136.655H553.518V139.671H551.355V138.192H549.019V142.256H555.854V140.146H561.931V144.491L546.777 144.49ZM380.069 144.49V140.145H386.534V142.255H393.369V138.191H391.034V139.671H388.869V136.654H395.612V144.489L380.069 144.49ZM396.295 106.197V113.039H389.476V106.197H396.295ZM555.854 127.805V124.631H561.931V137.56H555.854V134.07H551.276V127.805H555.854ZM548.94 134.07H544.44V137.56H538.049V124.631H544.44V127.805H548.94V134.07ZM393.448 134.07V127.805H397.947V124.631H403.95V137.56H397.947V134.07H393.448ZM386.534 134.07V137.56H380.069V124.631H386.534V127.805H391.112V134.07H386.534ZM403.95 122.047H397.947V117.679H403.95V122.047ZM544.441 117.679V122.047H538.05V117.679H544.441ZM462.708 113.04V106.198H469.527V113.04H462.708ZM460.373 113.04H453.555V106.198H460.373V113.04ZM451.218 113.04H444.4V106.198H451.218V113.04ZM442.065 113.04H435.246V106.198H442.065V113.04ZM432.911 113.04H426.093V106.198H432.911V113.04ZM423.757 113.04H416.939V106.198H423.757V113.04ZM414.603 113.04H407.784V106.198H414.603V113.04ZM405.449 113.04H398.63V106.198H405.449V113.04ZM395.612 117.679V125.22H388.869V122.204H391.034V123.684H393.369V119.62H386.534V122.047H380.069V117.679H395.612ZM397.947 140.144H403.95V144.489H397.947V140.144ZM538.05 140.144H544.441V144.489H538.05V140.144ZM561.93 122.047H555.853V119.62H549.019V123.684H551.354V122.204H553.517V125.22H546.776V117.679H561.93V122.047ZM545.094 113.04V106.198H551.912V113.04H545.094ZM542.759 113.04H535.94V106.198H542.759V113.04ZM533.605 113.04H526.786V106.198H533.605V113.04ZM524.45 113.04H517.632V106.198H524.45V113.04ZM515.297 113.04H508.478V106.198H515.297V113.04ZM506.143 113.04H499.324V106.198H506.143V113.04ZM496.988 113.04H490.17V106.198H496.988V113.04ZM487.834 113.04H481.016V106.198H487.834V113.04ZM478.68 113.04H471.861V106.198H478.68V113.04ZM387.14 106.197V113.039H380.069V106.197H387.14ZM380.069 173.65V149.128H388.819V167.044H383.555V173.649H380.069V173.65ZM405.755 156.998H398.05V179.961H385.892V169.628H394.007V174.642H391.156V172.051H388.82V177.226H396.343V167.044H391.156V149.128H403.952V153.984H405.756L405.755 156.998ZM556.108 179.961H543.95V156.998H536.245V153.984H538.049V149.128H550.844V167.044H545.657V177.226H553.18V172.051H550.844V174.642H547.993V169.628H556.107V179.961H556.108ZM558.444 173.65V167.045H553.18V149.129H561.93V173.651L558.444 173.65ZM561.93 113.04H554.248V106.198H561.93V113.04Z" fill="#E9D6B7"/>
<path d="M56.957 74.5959C57.7355 74.5494 58.5077 74.4994 59.2675 74.4374C59.4162 74.4615 59.5649 74.4882 59.7206 74.4882C60.0453 74.4882 60.352 74.4184 60.6462 74.3159C89.679 71.6029 105.314 58.329 106 57.7345L102.164 52.3051C102.115 52.3473 100.555 53.6568 97.5815 55.4971V52.0673C97.5815 50.1642 96.1872 48.6211 94.4675 48.6211C92.7478 48.6211 91.3536 50.1642 91.3536 52.0673V58.9175C89.6573 59.7446 87.7617 60.5889 85.6808 61.4142V56.4991C85.6808 54.5959 84.2865 53.0529 82.5668 53.0529C80.8471 53.0529 79.4529 54.5959 79.4529 56.4991V63.6163C77.8375 64.1195 76.1319 64.5933 74.3531 65.0362V59.8764C74.3531 57.9732 72.9588 56.4302 71.2391 56.4302C69.5202 56.4302 68.1252 57.9732 68.1252 59.8764V66.3647C66.4226 66.6679 64.657 66.9316 62.8346 67.1547V61.9449C62.8346 60.0418 61.4395 58.4987 59.7206 58.4987C58.001 58.4987 56.6067 60.0418 56.6067 61.9449V67.7156C56.2128 67.7388 55.8267 67.7699 55.4281 67.7888C35.3774 68.7477 22.1042 52.5342 15.7557 42.2801C14.6199 39.8609 13.5604 37.2642 12.574 34.5038H15.765V29.8652H7.24765V24.3737H15.765V19.7352H-25.8854V8H-125.504V19.7352H-167.765V24.3737H-159.86V29.8652H-167.765V34.5038H-164.575C-165.56 37.2616 -166.618 39.8549 -167.752 42.2724C-174.099 52.5248 -187.373 68.7425 -207.428 67.7897C-207.827 67.7707 -208.213 67.7405 -208.607 67.7164V61.9458C-208.607 60.0426 -210.001 58.4996 -211.721 58.4996C-213.44 58.4996 -214.835 60.0426 -214.835 61.9458V67.1556C-216.658 66.9333 -218.423 66.6688 -220.125 66.3655V59.8772C-220.125 57.974 -221.519 56.431 -223.239 56.431C-224.959 56.431 -226.353 57.974 -226.353 59.8772V65.037C-228.133 64.5942 -229.838 64.1203 -231.454 63.6172V56.4999C-231.454 54.5968 -232.848 53.0538 -234.568 53.0538C-236.287 53.0538 -237.682 54.5968 -237.682 56.4999V61.4151C-239.762 60.5897 -241.658 59.7454 -243.354 58.9183V52.0682C-243.354 50.165 -244.748 48.622 -246.468 48.622C-248.187 48.622 -249.581 50.165 -249.581 52.0682V55.4988C-252.553 53.6594 -254.111 52.3516 -254.158 52.3103L-258 57.7354C-257.314 58.3299 -241.679 71.6037 -212.646 74.3167C-212.352 74.4193 -212.045 74.4891 -211.721 74.4891C-211.566 74.4891 -211.417 74.4632 -211.268 74.4382C-210.508 74.4994 -209.735 74.5502 -208.957 74.5967C-231.658 78.0369 -253.18 68.024 -253.18 68.024V79.8427L-236.5 91.1238C-218.673 103.18 -198.187 109.559 -177.294 109.559H-193.323V114.198H-186.151V342.127H-188.898V350.923H-192.858V371H-160.222V350.923H-164.182V342.127H-166.928V184.235H-163.442V190.546H-146.613V167.583H-134.149V177.07H-141.502V173.154H-138.956V174.732H-136.62V170.57H-143.838V179.655H-131.814V164.998H-138.908V161.984H-13.0879V164.998H-20.1823V179.655H-8.15855V170.57H-15.3767V174.732H-13.0412V173.154H-10.494V177.07H-17.8468V167.583H-5.38326V190.546H11.446V184.235H14.9321V342.126H12.1856V350.923H8.22543V370.999H40.8611V350.923H36.9017V342.126H34.1552V114.197H41.3258V109.558H25.2984C46.1898 109.558 66.6772 103.179 84.5037 91.1229L101.184 79.8419V68.0231C101.18 68.0231 79.6584 78.0361 56.957 74.5959ZM16.6074 57.2159V92.9589C16.6074 93.798 15.9924 94.4787 15.2341 94.4787C14.4759 94.4787 13.8609 93.798 13.8609 92.9589V57.2159C13.8609 56.3767 14.4759 55.6961 15.2341 55.6961C15.9924 55.6961 16.6074 56.3767 16.6074 57.2159ZM-1.70105 39.9427V92.9598C-1.70105 93.7989 -2.31602 94.4795 -3.07426 94.4795C-3.8333 94.4795 -4.44753 93.7989 -4.44753 92.9598V39.9427C-4.44753 39.1036 -3.8333 38.423 -3.07426 38.423C-2.31525 38.423 -1.70105 39.1036 -1.70105 39.9427ZM-10.8552 39.9427V92.9598C-10.8552 93.7989 -11.4695 94.4795 -12.2285 94.4795C-12.9867 94.4795 -13.6017 93.7989 -13.6017 92.9598V39.9427C-13.6017 39.1036 -12.9867 38.423 -12.2285 38.423C-11.4695 38.423 -10.8552 39.1036 -10.8552 39.9427ZM-20.0087 39.9427V92.9598C-20.0087 93.7989 -20.6229 94.4795 -21.3819 94.4795C-22.1401 94.4795 -22.7551 93.7989 -22.7551 92.9598V39.9427C-22.7551 39.1036 -22.1401 38.423 -21.3819 38.423C-20.6236 38.423 -20.0087 39.1036 -20.0087 39.9427ZM-29.1629 39.9427V92.9598C-29.1629 93.7989 -29.7771 94.4795 -30.5361 94.4795C-31.2943 94.4795 -31.9093 93.7989 -31.9093 92.9598V39.9427C-31.9093 39.1036 -31.2951 38.423 -30.5361 38.423C-29.7771 38.423 -29.1629 39.1036 -29.1629 39.9427ZM-38.3171 39.9427V92.9598C-38.3171 93.7989 -38.9321 94.4795 -39.6903 94.4795C-40.4485 94.4795 -41.0636 93.7989 -41.0636 92.9598V39.9427C-41.0636 39.1036 -40.4493 38.423 -39.6903 38.423C-38.9313 38.423 -38.3171 39.1036 -38.3171 39.9427ZM-47.4705 39.9427V92.9598C-47.4705 93.7989 -48.0847 94.4795 -48.8437 94.4795C-49.6027 94.4795 -50.217 93.7989 -50.217 92.9598V39.9427C-50.217 39.1036 -49.602 38.423 -48.8437 38.423C-48.0855 38.423 -47.4705 39.1036 -47.4705 39.9427ZM-56.6247 39.9427V92.9598C-56.6247 93.7989 -57.2397 94.4795 -57.9979 94.4795C-58.7569 94.4795 -59.3712 93.7989 -59.3712 92.9598V39.9427C-59.3712 39.1036 -58.7562 38.423 -57.9979 38.423C-57.2397 38.423 -56.6247 39.1036 -56.6247 39.9427ZM-65.7789 39.9427V92.9598C-65.7789 93.7989 -66.3931 94.4795 -67.1521 94.4795C-67.9111 94.4795 -68.5254 93.7989 -68.5254 92.9598V39.9427C-68.5254 39.1036 -67.9111 38.423 -67.1521 38.423C-66.3939 38.423 -65.7789 39.1036 -65.7789 39.9427ZM-74.9331 39.9427V92.9598C-74.9331 93.7989 -75.5473 94.4795 -76.3063 94.4795C-77.0654 94.4795 -77.6796 93.7989 -77.6796 92.9598V39.9427C-77.6796 39.1036 -77.0654 38.423 -76.3063 38.423C-75.5473 38.423 -74.9331 39.1036 -74.9331 39.9427ZM-84.0873 39.9427V92.9598C-84.0873 93.7989 -84.7015 94.4795 -85.4605 94.4795C-86.2188 94.4795 -86.8338 93.7989 -86.8338 92.9598V39.9427C-86.8338 39.1036 -86.2188 38.423 -85.4605 38.423C-84.7015 38.423 -84.0873 39.1036 -84.0873 39.9427ZM-93.2407 39.9427V92.9598C-93.2407 93.7989 -93.8557 94.4795 -94.614 94.4795C-95.3722 94.4795 -95.9872 93.7989 -95.9872 92.9598V39.9427C-95.9872 39.1036 -95.3722 38.423 -94.614 38.423C-93.8549 38.423 -93.2407 39.1036 -93.2407 39.9427ZM-102.395 39.9427V92.9598C-102.395 93.7989 -103.01 94.4795 -103.768 94.4795C-104.527 94.4795 -105.141 93.7989 -105.141 92.9598V39.9427C-105.141 39.1036 -104.526 38.423 -103.768 38.423C-103.009 38.423 -102.395 39.1036 -102.395 39.9427ZM-111.548 39.9427V92.9598C-111.548 93.7989 -112.163 94.4795 -112.922 94.4795C-113.681 94.4795 -114.295 93.7989 -114.295 92.9598V39.9427C-114.295 39.1036 -113.68 38.423 -112.922 38.423C-112.163 38.423 -111.548 39.1036 -111.548 39.9427ZM-120.703 39.9427V92.9598C-120.703 93.7989 -121.318 94.4795 -122.076 94.4795C-122.835 94.4795 -123.449 93.7989 -123.449 92.9598V39.9427C-123.449 39.1036 -122.835 38.423 -122.076 38.423C-121.318 38.423 -120.703 39.1036 -120.703 39.9427ZM-129.857 39.9427V92.9598C-129.857 93.7989 -130.472 94.4795 -131.23 94.4795C-131.989 94.4795 -132.603 93.7989 -132.603 92.9598V39.9427C-132.603 39.1036 -131.989 38.423 -131.23 38.423C-130.472 38.423 -129.857 39.1036 -129.857 39.9427ZM-139.011 39.9427V92.9598C-139.011 93.7989 -139.625 94.4795 -140.384 94.4795C-141.142 94.4795 -141.757 93.7989 -141.757 92.9598V39.9427C-141.757 39.1036 -141.143 38.423 -140.384 38.423C-139.625 38.423 -139.011 39.1036 -139.011 39.9427ZM-148.164 39.9427V92.9598C-148.164 93.7989 -148.779 94.4795 -149.538 94.4795C-150.296 94.4795 -150.911 93.7989 -150.911 92.9598V39.9427C-150.911 39.1036 -150.297 38.423 -149.538 38.423C-148.779 38.423 -148.164 39.1036 -148.164 39.9427ZM-166.473 57.2159V92.9589C-166.473 93.798 -167.088 94.4787 -167.846 94.4787C-168.604 94.4787 -169.219 93.798 -169.219 92.9589V57.2159C-169.219 56.3767 -168.604 55.6961 -167.846 55.6961C-167.087 55.6961 -166.473 56.3767 -166.473 57.2159ZM-160.065 47.7613C-160.065 46.9221 -159.45 46.2415 -158.692 46.2415C-157.933 46.2415 -157.319 46.9221 -157.319 47.7613V92.9598C-157.319 93.7989 -157.934 94.4795 -158.692 94.4795C-159.45 94.4795 -160.065 93.7989 -160.065 92.9598V47.7613ZM-139.216 29.8635V24.372H-132.397V29.8635H-139.216ZM-141.551 29.8635H-148.37V24.372H-141.551V29.8635ZM-114.089 24.372V29.8635H-120.907V24.372H-114.089ZM-11.06 29.8635V24.372H-4.24124V29.8635H-11.06ZM-13.3954 29.8635H-20.2142V24.372H-13.3954V29.8635ZM-38.5218 29.8635V24.372H-31.7031V29.8635H-38.5218ZM-40.8573 29.8635H-47.676V24.372H-40.8573V29.8635ZM-50.0122 29.8635H-56.8302V24.372H-50.0122V29.8635ZM-59.1656 29.8635H-65.9844V24.372H-59.1656V29.8635ZM-68.3199 29.8635H-75.1386V24.372H-68.3199V29.8635ZM-77.4733 29.8635H-84.292V24.372H-77.4733V29.8635ZM-86.6275 29.8635H-93.4454V24.372H-86.6275V29.8635ZM-95.7817 29.8635H-102.6V24.372H-95.7817V29.8635ZM-104.935 29.8635H-111.754V24.372H-104.935V29.8635ZM4.7067 47.7613C4.7067 46.9221 5.32166 46.2415 6.0799 46.2415C6.83817 46.2415 7.45316 46.9221 7.45316 47.7613V92.9598C7.45316 93.7989 6.83817 94.4795 6.0799 94.4795C5.32089 94.4795 4.7067 93.7989 4.7067 92.9598V47.7613ZM4.91217 29.8635H-1.90579V24.372H4.91217V29.8635ZM-22.5496 24.372V29.8635H-29.3684V24.372H-22.5496ZM-123.243 24.372V29.8635H-130.061V24.372H-123.243ZM-157.524 24.372H-150.705V29.8635H-157.524V24.372ZM-0.22348 152.49V144.655H6.51822V147.671H4.3548V146.192H2.01935V150.256H8.85367V148.146H14.9305V152.491L-0.22348 152.49ZM-166.931 152.49V148.145H-160.466V150.255H-153.631V146.191H-155.966V147.671H-158.131V144.654H-151.388V152.489L-166.931 152.49ZM-150.705 114.197V121.039H-157.524V114.197H-150.705ZM8.85367 135.805V132.631H14.9305V145.56H8.85367V142.07H4.27618V135.805H8.85367ZM1.93994 142.07H-2.55971V145.56H-8.95107V132.631H-2.55971V135.805H1.93994V142.07ZM-153.552 142.07V135.805H-149.053V132.631H-143.05V145.56H-149.053V142.07H-153.552ZM-160.466 142.07V145.56H-166.931V132.631H-160.466V135.805H-155.888V142.07H-160.466ZM-143.05 130.047H-149.053V125.679H-143.05V130.047ZM-2.55893 125.679V130.047H-8.95027V125.679H-2.55893ZM-84.292 121.04V114.198H-77.4733V121.04H-84.292ZM-86.6275 121.04H-93.4454V114.198H-86.6275V121.04ZM-95.7817 121.04H-102.6V114.198H-95.7817V121.04ZM-104.935 121.04H-111.754V114.198H-104.935V121.04ZM-114.089 121.04H-120.907V114.198H-114.089V121.04ZM-123.243 121.04H-130.061V114.198H-123.243V121.04ZM-132.397 121.04H-139.216V114.198H-132.397V121.04ZM-141.551 121.04H-148.37V114.198H-141.551V121.04ZM-151.388 125.679V133.22H-158.131V130.204H-155.966V131.684H-153.631V127.62H-160.466V130.047H-166.931V125.679H-151.388ZM-149.053 148.144H-143.05V152.489H-149.053V148.144ZM-8.95027 148.144H-2.55893V152.489H-8.95027V148.144ZM14.9297 130.047H8.85287V127.62H2.01859V131.684H4.35403V130.204H6.51743V133.22H-0.224243V125.679H14.9297V130.047ZM-1.90579 121.04V114.198H4.91217V121.04H-1.90579ZM-4.24124 121.04H-11.06V114.198H-4.24124V121.04ZM-13.3954 121.04H-20.2142V114.198H-13.3954V121.04ZM-22.5496 121.04H-29.3684V114.198H-22.5496V121.04ZM-31.7031 121.04H-38.5218V114.198H-31.7031V121.04ZM-40.8573 121.04H-47.676V114.198H-40.8573V121.04ZM-50.0122 121.04H-56.8302V114.198H-50.0122V121.04ZM-59.1656 121.04H-65.9844V114.198H-59.1656V121.04ZM-68.3199 121.04H-75.1386V114.198H-68.3199V121.04ZM-159.86 114.197V121.039H-166.931V114.197H-159.86ZM-166.931 181.65V157.128H-158.181V175.044H-163.445V181.649H-166.931V181.65ZM-141.245 164.998H-148.95V187.961H-161.108V177.628H-152.993V182.642H-155.844V180.051H-158.18V185.226H-150.657V175.044H-155.844V157.128H-143.048V161.984H-141.244L-141.245 164.998ZM9.10822 187.961H-3.05016V164.998H-10.7548V161.984H-8.95107V157.128H3.84412V175.044H-1.34293V185.226H6.17957V180.051H3.84412V182.642H0.992523V177.628H9.10745V187.961H9.10822ZM11.4437 181.65V175.045H6.18036V157.129H14.9297V181.651L11.4437 181.65ZM14.9297 121.04H7.24765V114.198H14.9297V121.04Z" fill="#E9D6B7"/>
</svg>
