<svg width="1916" height="725" viewBox="0 0 1916 725" fill="none" xmlns="http://www.w3.org/2000/svg">
<path d="M231.935 114.851C231.935 114.851 319.635 180.811 558.144 189.417C796.654 198.023 945.456 106.057 945.456 106.057" stroke="#DBC8AB" stroke-width="3"/>
<path d="M1479.85 121.498C1479.85 121.498 1578.2 214.861 1846.32 226.38C2114.45 237.898 2282.11 106.934 2282.11 106.934" stroke="#DBC8AB" stroke-width="3"/>
<path d="M334.853 237.145L328.021 243.293L327.609 243.664L328.021 244.036L334.853 250.184L335.188 250.484L335.522 250.184L342.354 244.036L342.767 243.664L342.354 243.293L335.522 237.145L335.188 236.844L334.853 237.145ZM334.853 221.238L331.437 224.312L328.021 227.386L327.609 227.758L328.021 228.129L334.853 234.276L335.188 234.577L335.522 234.276L342.354 228.129L342.767 227.758L342.354 227.386L337.131 222.686L335.522 221.238L335.188 220.938L334.853 221.238ZM343.693 213.285L340.277 216.359L336.861 219.433L336.448 219.805L336.861 220.177L341.416 224.274L343.693 226.324L344.027 226.625L344.362 226.324L351.193 220.177L351.606 219.805L351.193 219.433L344.362 213.285L344.027 212.984L343.693 213.285ZM326.015 213.284L319.184 219.432L318.771 219.804L319.184 220.175L326.015 226.322L326.35 226.623L326.684 226.322L333.516 220.175L333.929 219.804L333.516 219.432L326.684 213.284L326.35 212.983L326.015 213.284ZM334.853 205.331L328.021 211.479L327.609 211.851L328.021 212.223L332.576 216.32L334.853 218.37L335.188 218.671L335.522 218.37L342.354 212.223L342.767 211.851L342.354 211.479L335.522 205.331L335.188 205.03L334.853 205.331ZM334.853 189.425L328.021 195.572L327.609 195.944L328.021 196.315L334.853 202.463L335.188 202.764L335.522 202.463L342.354 196.315L342.767 195.944L342.354 195.572L335.522 189.425L335.188 189.124L334.853 189.425ZM334.272 251.924L334.106 251.775L325.092 243.664L333.517 236.083L333.93 235.712L333.517 235.34L326.686 229.191L316.255 219.804L324.679 212.224L326.686 210.419L333.517 204.271L333.93 203.899L333.517 203.527L325.093 195.945L334.106 187.834L334.272 187.686V162.5H336.11V187.688L336.275 187.837L344.697 195.416L345.287 195.946L336.862 203.527L336.45 203.899L336.862 204.271L344.697 211.321L345.7 212.224L353.535 219.273L354.124 219.804L343.693 229.192L336.861 235.34L336.448 235.712L336.861 236.083L344.696 243.133V243.134L345.288 243.665L336.275 251.775L336.11 251.924V277.109H334.272V251.924Z" fill="#DBC8AB" stroke="#CDB28A"/>
<path d="M339.774 438.243L332.942 444.391L332.53 444.763L332.942 445.135L339.774 451.282L340.109 451.583L340.443 451.282L347.275 445.135L347.688 444.763L347.275 444.391L340.443 438.243L340.109 437.942L339.774 438.243ZM339.774 422.337L336.358 425.411L332.942 428.484L332.53 428.856L332.942 429.227L339.774 435.375L340.109 435.676L340.443 435.375L347.275 429.227L347.688 428.856L347.275 428.484L342.051 423.784L340.443 422.337L340.109 422.036L339.774 422.337ZM348.614 414.384L345.198 417.458L341.782 420.531L341.369 420.903L341.782 421.275L346.336 425.373L348.614 427.423L348.948 427.724L349.283 427.423L356.114 421.275L356.527 420.903L356.114 420.531L349.283 414.384L348.948 414.083L348.614 414.384ZM330.936 414.383L324.105 420.53L323.692 420.902L324.105 421.273L330.936 427.421L331.271 427.722L331.605 427.421L338.437 421.273L338.85 420.902L338.437 420.53L331.605 414.383L331.271 414.082L330.936 414.383ZM339.774 406.43L332.942 412.578L332.53 412.949L332.942 413.321L337.497 417.419L339.774 419.469L340.109 419.769L340.443 419.469L347.275 413.321L347.688 412.949L347.275 412.578L340.443 406.43L340.109 406.129L339.774 406.43ZM339.774 390.523L332.942 396.671L332.53 397.043L332.942 397.414L339.774 403.561L340.109 403.862L340.443 403.561L347.275 397.414L347.688 397.043L347.275 396.671L340.443 390.523L340.109 390.223L339.774 390.523ZM339.193 453.022L339.027 452.874L330.012 444.763L338.438 437.182L338.851 436.81L338.438 436.438L331.607 430.29L321.175 420.902L329.6 413.322L331.607 411.517L338.438 405.37L338.851 404.998L338.438 404.626L330.013 397.044L339.027 388.932L339.193 388.784V363.599H341.031V388.787L341.196 388.935L349.618 396.515L350.208 397.045L341.783 404.626L341.371 404.998L341.783 405.37L349.618 412.42L350.621 413.322L358.456 420.372L359.044 420.902L348.614 430.291L341.782 436.438L341.369 436.81L341.782 437.182L349.617 444.231V444.232L350.208 444.764L341.196 452.874L341.031 453.022V478.208H339.193V453.022Z" fill="#DBC8AB" stroke="#CDB28A"/>
<path d="M787.551 438.243L780.719 444.391L780.307 444.763L780.719 445.135L787.551 451.282L787.886 451.583L788.22 451.282L795.052 445.135L795.465 444.763L795.052 444.391L788.22 438.243L787.886 437.942L787.551 438.243ZM787.551 422.337L784.135 425.411L780.719 428.484L780.307 428.856L780.719 429.227L787.551 435.375L787.886 435.676L788.22 435.375L795.052 429.227L795.465 428.856L795.052 428.484L789.828 423.784L788.22 422.337L787.886 422.036L787.551 422.337ZM796.391 414.384L792.975 417.458L789.559 420.531L789.146 420.903L789.559 421.275L794.113 425.373L796.391 427.423L796.725 427.724L797.06 427.423L803.891 421.275L804.304 420.903L803.891 420.531L797.06 414.384L796.725 414.083L796.391 414.384ZM778.713 414.383L771.882 420.53L771.469 420.902L771.882 421.273L778.713 427.421L779.048 427.722L779.382 427.421L786.214 421.273L786.627 420.902L786.214 420.53L779.382 414.383L779.048 414.082L778.713 414.383ZM787.551 406.43L780.719 412.578L780.307 412.949L780.719 413.321L785.273 417.419L787.551 419.469L787.886 419.769L788.22 419.469L795.052 413.321L795.465 412.949L795.052 412.578L788.22 406.43L787.886 406.129L787.551 406.43ZM787.551 390.523L780.719 396.671L780.307 397.043L780.719 397.414L787.551 403.561L787.886 403.862L788.22 403.561L795.052 397.414L795.465 397.043L795.052 396.671L788.22 390.523L787.886 390.223L787.551 390.523ZM786.97 453.022L786.804 452.874L777.789 444.763L786.215 437.182L786.628 436.81L786.215 436.438L779.384 430.29L768.952 420.902L777.377 413.322L779.384 411.517L786.215 405.37L786.628 404.998L786.215 404.626L777.79 397.044L786.804 388.932L786.97 388.784V363.599H788.808V388.787L788.973 388.935L797.395 396.515L797.984 397.045L789.56 404.626L789.147 404.998L789.56 405.37L797.395 412.42L798.397 413.322L806.232 420.372L806.821 420.902L796.391 430.291L789.559 436.438L789.146 436.81L789.559 437.182L797.394 444.231V444.232L797.985 444.764L788.973 452.874L788.808 453.022V478.208H786.97V453.022Z" fill="#DBC8AB" stroke="#CDB28A"/>
<path d="M792.472 237.145L785.64 243.293L785.228 243.664L785.64 244.036L792.472 250.184L792.807 250.484L793.141 250.184L799.973 244.036L800.386 243.664L799.973 243.293L793.141 237.145L792.807 236.844L792.472 237.145ZM792.472 221.238L789.056 224.312L785.64 227.386L785.228 227.758L785.64 228.129L792.472 234.276L792.807 234.577L793.141 234.276L799.973 228.129L800.386 227.758L799.973 227.386L794.749 222.686L793.141 221.238L792.807 220.938L792.472 221.238ZM801.312 213.285L797.896 216.359L794.479 219.433L794.066 219.805L794.479 220.177L799.034 224.274L801.312 226.324L801.646 226.625L801.98 226.324L808.812 220.177L809.225 219.805L808.812 219.433L801.98 213.285L801.646 212.984L801.312 213.285ZM783.634 213.284L776.803 219.432L776.39 219.804L776.803 220.175L783.634 226.322L783.969 226.623L784.303 226.322L791.135 220.175L791.548 219.804L791.135 219.432L784.303 213.284L783.969 212.983L783.634 213.284ZM792.472 205.331L785.64 211.479L785.228 211.851L785.64 212.223L790.194 216.32L792.472 218.37L792.807 218.671L793.141 218.37L799.973 212.223L800.386 211.851L799.973 211.479L793.141 205.331L792.807 205.03L792.472 205.331ZM792.472 189.425L785.64 195.572L785.228 195.944L785.64 196.315L792.472 202.463L792.807 202.764L793.141 202.463L799.973 196.315L800.386 195.944L799.973 195.572L793.141 189.425L792.807 189.124L792.472 189.425ZM791.891 251.924L791.725 251.775L782.71 243.664L791.136 236.083L791.549 235.712L791.136 235.34L784.305 229.191L773.873 219.804L782.298 212.224L784.305 210.419L791.136 204.271L791.549 203.899L791.136 203.527L782.711 195.945L791.725 187.834L791.891 187.686V162.5H793.729V187.688L793.894 187.837L802.315 195.416L802.905 195.946L794.48 203.527L794.068 203.899L794.48 204.271L802.315 211.321L803.318 212.224L811.153 219.273L811.742 219.804L801.312 229.192L794.479 235.34L794.066 235.712L794.479 236.083L802.314 243.133V243.134L802.906 243.665L793.894 251.775L793.729 251.924V277.109H791.891V251.924Z" fill="#DBC8AB" stroke="#CDB28A"/>
<path d="M333.333 633.223L329.366 637.027L342.945 650.049L346.912 646.245L333.333 633.223Z" fill="#E2C89F"/>
<path d="M321.142 628.122C321.608 629.225 322.311 630.263 323.238 631.15L323.891 631.776L327.858 627.972L327.205 627.346C326.817 626.973 326.533 626.551 326.342 626.1C326.153 625.653 326.056 625.175 326.055 624.695V624.694L326.054 624.681C326.054 624.674 326.055 624.667 326.055 624.661C326.058 624.182 326.153 623.705 326.342 623.26C326.534 622.809 326.817 622.388 327.206 622.014C327.595 621.641 328.034 621.37 328.505 621.186C328.976 621.003 329.48 620.91 329.986 620.91C330.492 620.91 330.996 621.003 331.467 621.186C331.938 621.37 332.377 621.641 332.766 622.014L333.571 622.786L342.946 631.776L346.913 627.972L337.538 618.982L336.764 618.239L336.733 618.21C335.808 617.322 334.726 616.647 333.576 616.2C332.425 615.752 331.205 615.529 329.986 615.529C328.768 615.529 327.548 615.752 326.397 616.2C325.247 616.646 324.165 617.321 323.239 618.21C322.313 619.097 321.609 620.135 321.144 621.238C320.677 622.342 320.445 623.511 320.445 624.68C320.444 625.849 320.676 627.018 321.142 628.122Z" fill="#E2C89F"/>
<path d="M347.89 636.018L348.043 635.871C348.488 635.445 348.91 635.04 349.297 634.672C350.156 633.852 350.862 633.185 351.353 632.73C351.52 632.575 351.662 632.447 351.772 632.347L351.799 632.324L351.832 632.31L351.905 632.279L353.082 631.151C354.008 630.263 354.711 629.226 355.178 628.123C355.645 627.019 355.877 625.849 355.877 624.681C355.877 623.512 355.645 622.342 355.178 621.238C354.712 620.136 354.008 619.098 353.082 618.21C352.156 617.322 351.074 616.647 349.923 616.2C348.772 615.752 347.553 615.53 346.334 615.53C345.116 615.53 343.896 615.752 342.745 616.2C341.594 616.647 340.512 617.322 339.587 618.21L338.934 618.836L342.901 622.641L343.554 622.015C343.943 621.642 344.382 621.37 344.853 621.187C345.324 621.003 345.828 620.911 346.334 620.911C346.84 620.911 347.344 621.004 347.815 621.187C348.285 621.37 348.724 621.642 349.114 622.015C349.503 622.388 349.786 622.809 349.977 623.261C350.169 623.712 350.265 624.196 350.265 624.681C350.265 625.165 350.169 625.649 349.977 626.101C349.786 626.552 349.502 626.973 349.114 627.346L348.446 627.986L348.439 627.993C348.352 628.061 348.283 628.118 348.21 628.18L348.211 628.179C348.05 628.317 347.873 628.477 347.654 628.677C347.275 629.025 346.783 629.486 346.187 630.05C344.434 631.713 341.791 634.263 338.813 637.141L342.797 640.93L342.863 640.866L342.892 640.893C343.631 640.182 344.848 638.996 345.922 637.947C346.805 637.084 347.579 636.327 347.89 636.021L347.89 636.018Z" fill="#E2C89F"/>
<path d="M353.081 652.05L352.428 651.424L348.461 655.229L349.114 655.855C349.502 656.227 349.786 656.649 349.977 657.1C350.169 657.552 350.265 658.035 350.265 658.52C350.265 659.005 350.169 659.489 349.977 659.94C349.786 660.392 349.502 660.813 349.114 661.186C348.725 661.559 348.286 661.831 347.815 662.014C347.343 662.197 346.839 662.29 346.334 662.29C345.828 662.29 345.324 662.197 344.852 662.014C344.382 661.831 343.943 661.559 343.553 661.186L342.749 660.414L333.374 651.424L329.406 655.229L338.781 664.219L339.586 664.991C340.511 665.879 341.594 666.554 342.744 667.001C343.895 667.449 345.114 667.671 346.333 667.671C347.552 667.671 348.771 667.449 349.923 667.001C351.073 666.554 352.155 665.879 353.081 664.991C354.008 664.103 354.711 663.065 355.177 661.962C355.644 660.858 355.876 659.688 355.876 658.52C355.876 657.351 355.644 656.182 355.177 655.078C354.711 653.975 354.008 652.937 353.081 652.05Z" fill="#E2C89F"/>
<path d="M351.924 642.813L338.905 655.297L342.872 659.102L355.891 646.617L351.924 642.813Z" fill="#E2C89F"/>
<path d="M337.507 646.06L333.523 642.271L333.457 642.335L333.428 642.308C332.689 643.02 331.472 644.205 330.398 645.255C329.51 646.122 328.733 646.882 328.425 647.184L328.427 647.186L328.278 647.329C327.833 647.756 327.411 648.16 327.025 648.529C326.165 649.349 325.46 650.016 324.968 650.47C324.8 650.625 324.659 650.754 324.549 650.853L324.522 650.877L324.489 650.891L324.416 650.922L323.239 652.05C322.314 652.938 321.61 653.975 321.143 655.079C320.677 656.183 320.445 657.352 320.445 658.521C320.445 659.69 320.677 660.859 321.143 661.963C321.609 663.066 322.313 664.104 323.239 664.992C324.165 665.88 325.247 666.555 326.398 667.002C327.549 667.45 328.768 667.672 329.987 667.672C331.206 667.672 332.425 667.45 333.577 667.002C334.727 666.555 335.809 665.881 336.734 664.992L337.387 664.366L333.42 660.561L332.767 661.187C332.378 661.56 331.939 661.833 331.468 662.016C330.997 662.199 330.493 662.292 329.987 662.292C329.482 662.292 328.977 662.199 328.506 662.016C328.035 661.833 327.596 661.561 327.207 661.188C326.818 660.815 326.535 660.393 326.343 659.942C326.154 659.495 326.058 659.017 326.056 658.537V658.536L326.056 658.522C326.056 658.516 326.057 658.509 326.057 658.502C326.059 658.024 326.155 657.548 326.344 657.102C326.535 656.65 326.819 656.229 327.207 655.856L327.874 655.216L327.883 655.209C327.969 655.142 328.038 655.084 328.111 655.022L328.11 655.023C328.271 654.885 328.448 654.726 328.667 654.525C329.046 654.177 329.538 653.716 330.134 653.152C331.886 651.489 334.529 648.938 337.507 646.06Z" fill="#E2C89F"/>
<path d="M374.877 638.701C374.411 637.598 373.708 636.56 372.781 635.673C371.856 634.785 370.774 634.11 369.624 633.663C368.472 633.215 367.253 632.992 366.034 632.992C364.816 632.992 363.596 633.215 362.445 633.663C361.295 634.109 360.212 634.784 359.287 635.673L358.482 636.445L357.276 637.601L361.243 641.406L362.449 640.249L363.254 639.477C363.643 639.104 364.082 638.833 364.553 638.649C365.024 638.466 365.528 638.373 366.034 638.373C366.54 638.373 367.044 638.466 367.515 638.649C367.985 638.833 368.424 639.104 368.814 639.477C369.008 639.664 369.176 639.862 369.32 640.071C369.463 640.279 369.582 640.497 369.677 640.723L369.651 640.66L369.678 640.724C369.86 641.153 369.953 641.611 369.962 642.072L369.966 642.076V642.144C369.966 642.629 369.869 643.113 369.678 643.565C369.487 644.016 369.203 644.437 368.814 644.81C368.426 645.183 367.986 645.455 367.515 645.639C367.044 645.822 366.54 645.915 366.035 645.915C365.529 645.915 365.024 645.822 364.553 645.639C364.083 645.455 363.644 645.183 363.254 644.81L362.584 644.168L362.578 644.161L362.549 644.128C362.462 644.028 362.386 643.948 362.296 643.853C362.128 643.679 361.921 643.47 361.665 643.215C360.771 642.327 359.284 640.891 357.504 639.185C355.77 637.523 353.763 635.61 351.785 633.728L347.833 637.549C350.393 639.983 353 642.469 354.988 644.384C356.001 645.359 356.854 646.188 357.45 646.776C357.698 647.02 357.898 647.221 358.043 647.369L358.068 647.394L358.084 647.427L358.111 647.487L359.288 648.615C360.213 649.503 361.296 650.177 362.446 650.625C363.598 651.072 364.817 651.295 366.036 651.295C367.254 651.295 368.474 651.072 369.625 650.625C370.772 650.179 371.852 649.506 372.775 648.622L373.151 648.149V648.229C373.786 647.547 374.307 646.795 374.693 645.997C374.759 645.861 374.821 645.725 374.879 645.586C375.346 644.482 375.578 643.313 375.578 642.144C375.576 640.974 375.344 639.804 374.877 638.701Z" fill="#E2C89F"/>
<path d="M313.065 643.724C312.676 644.097 312.237 644.369 311.766 644.552C311.295 644.735 310.791 644.828 310.286 644.828C309.78 644.828 309.275 644.735 308.804 644.552C308.334 644.369 307.895 644.097 307.506 643.724L307.503 643.721L307.499 643.717C307.422 643.643 307.354 643.568 307.291 643.496C307.012 643.183 306.795 642.842 306.642 642.478C306.453 642.03 306.356 641.553 306.355 641.072V641.071L306.354 641.058C306.354 640.656 306.424 640.258 306.554 639.878C306.579 639.803 306.607 639.722 306.642 639.637C306.685 639.534 306.735 639.434 306.788 639.336L306.8 639.31L306.803 639.305C306.981 638.979 307.214 638.672 307.505 638.392C307.894 638.019 308.333 637.747 308.804 637.564C309.275 637.381 309.779 637.288 310.286 637.288C310.791 637.288 311.295 637.381 311.766 637.564C312.237 637.747 312.676 638.02 313.065 638.392L313.736 639.035L313.742 639.042L313.771 639.076C313.859 639.175 313.934 639.255 314.025 639.35C314.192 639.524 314.4 639.734 314.656 639.989C315.55 640.876 317.036 642.312 318.817 644.018C320.551 645.68 322.558 647.593 324.536 649.475L328.487 645.654C325.928 643.22 323.321 640.734 321.333 638.819C320.32 637.844 319.467 637.016 318.871 636.427C318.623 636.182 318.423 635.982 318.278 635.834L318.252 635.808L318.237 635.776L318.21 635.716L317.034 634.587C316.109 633.699 315.026 633.025 313.876 632.577C312.725 632.13 311.505 631.907 310.287 631.907C309.068 631.907 307.849 632.13 306.697 632.577C305.547 633.024 304.465 633.699 303.54 634.587C303.382 634.738 303.233 634.896 303.085 635.058C302.943 635.215 302.807 635.375 302.678 635.539C302.167 636.187 301.752 636.887 301.444 637.616C300.977 638.72 300.745 639.89 300.745 641.058C300.745 642.227 300.977 643.396 301.444 644.5C301.78 645.296 302.242 646.058 302.821 646.754C302.861 646.802 302.9 646.849 302.94 646.894C303.072 647.048 303.213 647.199 303.359 647.347C303.423 647.411 303.482 647.473 303.54 647.53C304.466 648.418 305.548 649.093 306.698 649.54C307.849 649.988 309.069 650.21 310.287 650.21C311.506 650.21 312.726 649.988 313.877 649.54C315.027 649.093 316.109 648.418 317.035 647.53L317.839 646.758L319.046 645.601L315.078 641.796L313.872 642.953L313.065 643.724Z" fill="#E2C89F"/>
<path d="M333.444 624.099L320.425 636.583L324.392 640.388L337.411 627.903L333.444 624.099Z" fill="#E2C89F"/>
<path d="M341.471 670.874C341.471 672.627 339.988 674.049 338.16 674.049C336.331 674.049 334.849 672.627 334.849 670.874C334.849 669.12 336.331 667.699 338.16 667.699C339.988 667.699 341.471 669.12 341.471 670.874Z" fill="#CDB28A"/>
<path d="M339.849 677.442C339.849 678.336 339.093 679.061 338.16 679.061C337.228 679.061 336.471 678.336 336.471 677.442C336.471 676.548 337.228 675.823 338.16 675.823C339.093 675.823 339.849 676.548 339.849 677.442Z" fill="#CDB28A"/>
<path d="M338.16 606.73C339.093 606.73 339.849 606.005 339.849 605.111C339.849 604.217 339.093 603.492 338.16 603.492C337.227 603.492 336.471 604.217 336.471 605.111C336.471 606.005 337.227 606.73 338.16 606.73Z" fill="#CDB28A"/>
<path d="M341.471 612.327C341.471 614.081 339.988 615.502 338.16 615.502C336.331 615.502 334.849 614.081 334.849 612.327C334.849 610.574 336.331 609.152 338.16 609.152C339.988 609.152 341.471 610.574 341.471 612.327Z" fill="#CDB28A"/>
<path d="M338.16 681.16C334.904 681.16 332.265 683.691 332.265 686.814H344.055C344.055 683.691 341.415 681.16 338.16 681.16Z" fill="#CDB28A"/>
<path d="M334.774 688.911H332.265V725H334.774V688.911Z" fill="#CDB28A"/>
<path d="M339.414 688.911H336.905V725H339.414V688.911Z" fill="#CDB28A"/>
<path d="M344.054 688.911H341.545V725H344.054V688.911Z" fill="#CDB28A"/>
<path d="M790.952 633.223L786.984 637.027L800.564 650.049L804.531 646.245L790.952 633.223Z" fill="#E2C89F"/>
<path d="M778.76 628.122C779.226 629.225 779.93 630.263 780.856 631.15L781.509 631.776L785.477 627.972L784.824 627.346C784.435 626.973 784.151 626.551 783.96 626.1C783.771 625.653 783.675 625.175 783.673 624.695V624.694L783.672 624.681C783.672 624.674 783.674 624.667 783.674 624.661C783.676 624.182 783.772 623.705 783.961 623.26C784.152 622.809 784.436 622.388 784.824 622.014C785.213 621.641 785.652 621.37 786.123 621.186C786.595 621.003 787.098 620.91 787.605 620.91C788.11 620.91 788.614 621.003 789.085 621.186C789.556 621.37 789.995 621.641 790.384 622.014L791.189 622.786L800.564 631.776L804.532 627.972L795.157 618.982L794.382 618.239L794.352 618.21C793.426 617.322 792.344 616.647 791.194 616.2C790.043 615.752 788.824 615.529 787.605 615.529C786.386 615.529 785.167 615.752 784.015 616.2C782.865 616.646 781.783 617.321 780.858 618.21C779.932 619.097 779.228 620.135 778.762 621.238C778.295 622.342 778.063 623.511 778.063 624.68C778.062 625.849 778.294 627.018 778.76 628.122Z" fill="#E2C89F"/>
<path d="M805.508 636.018L805.661 635.871C806.107 635.445 806.529 635.04 806.915 634.672C807.774 633.852 808.48 633.185 808.972 632.73C809.139 632.575 809.281 632.447 809.391 632.347L809.417 632.324L809.451 632.31L809.523 632.279L810.7 631.151C811.626 630.263 812.33 629.226 812.796 628.123C813.263 627.019 813.495 625.849 813.495 624.681C813.495 623.512 813.263 622.342 812.796 621.238C812.33 620.136 811.627 619.098 810.7 618.21C809.774 617.322 808.693 616.647 807.542 616.2C806.391 615.752 805.171 615.53 803.952 615.53C802.734 615.53 801.514 615.752 800.363 616.2C799.213 616.647 798.131 617.322 797.205 618.21L796.552 618.836L800.52 622.641L801.173 622.015C801.561 621.642 802.001 621.37 802.472 621.187C802.942 621.003 803.447 620.911 803.952 620.911C804.458 620.911 804.963 621.004 805.433 621.187C805.904 621.37 806.343 621.642 806.732 622.015C807.121 622.388 807.404 622.809 807.596 623.261C807.787 623.712 807.883 624.196 807.883 624.681C807.883 625.165 807.787 625.649 807.596 626.101C807.404 626.552 807.12 626.973 806.732 627.346L806.065 627.986L806.057 627.993C805.97 628.061 805.901 628.118 805.829 628.18L805.829 628.179C805.669 628.317 805.491 628.477 805.273 628.677C804.894 629.025 804.401 629.486 803.806 630.05C802.053 631.713 799.409 634.263 796.432 637.141L800.416 640.93L800.482 640.866L800.51 640.893C801.25 640.182 802.466 638.996 803.541 637.947C804.424 637.084 805.197 636.327 805.509 636.021L805.508 636.018Z" fill="#E2C89F"/>
<path d="M810.699 652.05L810.047 651.424L806.079 655.229L806.732 655.855C807.121 656.227 807.404 656.649 807.596 657.1C807.787 657.552 807.883 658.035 807.883 658.52C807.883 659.005 807.787 659.489 807.596 659.94C807.404 660.392 807.12 660.813 806.732 661.186C806.343 661.559 805.904 661.831 805.433 662.014C804.962 662.197 804.458 662.29 803.952 662.29C803.447 662.29 802.942 662.197 802.471 662.014C802 661.831 801.561 661.559 801.172 661.186L800.367 660.414L790.992 651.424L787.025 655.229L796.4 664.219L797.204 664.991C798.13 665.879 799.212 666.554 800.362 667.001C801.513 667.449 802.733 667.671 803.952 667.671C805.17 667.671 806.39 667.449 807.541 667.001C808.691 666.554 809.773 665.879 810.699 664.991C811.626 664.103 812.329 663.065 812.795 661.962C813.262 660.858 813.494 659.688 813.494 658.52C813.494 657.351 813.262 656.182 812.795 655.078C812.329 653.975 811.626 652.937 810.699 652.05Z" fill="#E2C89F"/>
<path d="M809.543 642.813L796.523 655.297L800.491 659.102L813.51 646.617L809.543 642.813Z" fill="#E2C89F"/>
<path d="M795.125 646.06L791.141 642.271L791.075 642.335L791.047 642.308C790.307 643.02 789.091 644.205 788.016 645.255C787.128 646.122 786.351 646.882 786.043 647.184L786.045 647.186L785.897 647.329C785.451 647.756 785.029 648.16 784.643 648.529C783.784 649.349 783.078 650.016 782.586 650.47C782.419 650.625 782.277 650.754 782.167 650.853L782.141 650.877L782.107 650.891L782.035 650.922L780.858 652.05C779.932 652.938 779.228 653.975 778.762 655.079C778.295 656.183 778.063 657.352 778.063 658.521C778.063 659.69 778.295 660.859 778.762 661.963C779.228 663.066 779.931 664.104 780.858 664.992C781.783 665.88 782.866 666.555 784.016 667.002C785.167 667.45 786.387 667.672 787.606 667.672C788.824 667.672 790.044 667.45 791.195 667.002C792.345 666.555 793.427 665.881 794.353 664.992L795.006 664.366L791.038 660.561L790.385 661.187C789.997 661.56 789.557 661.833 789.086 662.016C788.615 662.199 788.111 662.292 787.606 662.292C787.1 662.292 786.596 662.199 786.124 662.016C785.654 661.833 785.215 661.561 784.825 661.188C784.436 660.815 784.153 660.393 783.962 659.942C783.773 659.495 783.676 659.017 783.675 658.537V658.536L783.674 658.522C783.674 658.516 783.675 658.509 783.675 658.502C783.678 658.024 783.773 657.548 783.962 657.102C784.154 656.65 784.437 656.229 784.826 655.856L785.493 655.216L785.501 655.209C785.588 655.142 785.657 655.084 785.729 655.022L785.729 655.023C785.889 654.885 786.067 654.726 786.285 654.525C786.665 654.177 787.157 653.716 787.752 653.152C789.504 651.489 792.148 648.938 795.125 646.06Z" fill="#E2C89F"/>
<path d="M832.496 638.701C832.029 637.598 831.326 636.56 830.4 635.673C829.474 634.785 828.392 634.11 827.242 633.663C826.091 633.215 824.871 632.992 823.652 632.992C822.434 632.992 821.214 633.215 820.063 633.663C818.913 634.109 817.831 634.784 816.905 635.673L816.1 636.445L814.894 637.601L818.861 641.406L820.068 640.249L820.873 639.477C821.261 639.104 821.701 638.833 822.172 638.649C822.643 638.466 823.147 638.373 823.652 638.373C824.158 638.373 824.662 638.466 825.133 638.649C825.604 638.833 826.043 639.104 826.432 639.477C826.627 639.664 826.794 639.862 826.938 640.071C827.081 640.279 827.2 640.497 827.296 640.723L827.269 640.66L827.296 640.724C827.478 641.153 827.571 641.611 827.58 642.072L827.584 642.076V642.144C827.584 642.629 827.487 643.113 827.296 643.565C827.105 644.016 826.822 644.437 826.433 644.81C826.044 645.183 825.604 645.455 825.134 645.639C824.663 645.822 824.159 645.915 823.653 645.915C823.147 645.915 822.643 645.822 822.172 645.639C821.701 645.455 821.262 645.183 820.873 644.81L820.203 644.168L820.197 644.161L820.168 644.128C820.08 644.028 820.005 643.948 819.914 643.853C819.747 643.679 819.54 643.47 819.283 643.215C818.389 642.327 816.903 640.891 815.122 639.185C813.388 637.523 811.381 635.61 809.403 633.728L805.452 637.549C808.011 639.983 810.618 642.469 812.606 644.384C813.619 645.359 814.473 646.188 815.068 646.776C815.316 647.02 815.517 647.221 815.661 647.369L815.687 647.394L815.702 647.427L815.73 647.487L816.907 648.615C817.832 649.503 818.914 650.177 820.065 650.625C821.216 651.072 822.435 651.295 823.654 651.295C824.873 651.295 826.092 651.072 827.244 650.625C828.391 650.179 829.47 649.506 830.394 648.622L830.769 648.149V648.229C831.404 647.547 831.925 646.795 832.312 645.997C832.377 645.861 832.439 645.725 832.497 645.586C832.964 644.482 833.196 643.313 833.196 642.144C833.195 640.974 832.963 639.804 832.496 638.701Z" fill="#E2C89F"/>
<path d="M770.684 643.724C770.294 644.097 769.855 644.369 769.385 644.552C768.914 644.735 768.41 644.828 767.904 644.828C767.398 644.828 766.894 644.735 766.423 644.552C765.952 644.369 765.513 644.097 765.124 643.724L765.121 643.721L765.118 643.717C765.041 643.643 764.973 643.568 764.909 643.496C764.631 643.183 764.414 642.842 764.26 642.478C764.071 642.03 763.975 641.553 763.973 641.072V641.071L763.972 641.058C763.972 640.656 764.042 640.258 764.172 639.878C764.198 639.803 764.225 639.722 764.26 639.637C764.304 639.534 764.353 639.434 764.406 639.336L764.419 639.31L764.421 639.305C764.6 638.979 764.832 638.672 765.124 638.392C765.512 638.019 765.952 637.747 766.423 637.564C766.894 637.381 767.398 637.288 767.904 637.288C768.41 637.288 768.914 637.381 769.385 637.564C769.855 637.747 770.294 638.02 770.684 638.392L771.354 639.035L771.36 639.042L771.389 639.076C771.477 639.175 771.552 639.255 771.644 639.35C771.811 639.524 772.018 639.734 772.275 639.989C773.169 640.876 774.655 642.312 776.435 644.018C778.169 645.68 780.177 647.593 782.155 649.475L786.106 645.654C783.546 643.22 780.939 640.734 778.952 638.819C777.938 637.844 777.085 637.016 776.489 636.427C776.242 636.182 776.041 635.982 775.896 635.834L775.871 635.808L775.856 635.776L775.829 635.716L774.652 634.587C773.727 633.699 772.645 633.025 771.495 632.577C770.343 632.13 769.124 631.907 767.905 631.907C766.687 631.907 765.467 632.13 764.316 632.577C763.166 633.024 762.083 633.699 761.158 634.587C761.001 634.738 760.851 634.896 760.704 635.058C760.562 635.215 760.426 635.375 760.297 635.539C759.785 636.187 759.37 636.887 759.063 637.616C758.596 638.72 758.364 639.89 758.364 641.058C758.364 642.227 758.596 643.396 759.063 644.5C759.399 645.296 759.861 646.058 760.439 646.754C760.479 646.802 760.519 646.849 760.558 646.894C760.691 647.048 760.832 647.199 760.978 647.347C761.041 647.411 761.1 647.473 761.159 647.53C762.084 648.418 763.166 649.093 764.316 649.54C765.468 649.988 766.687 650.21 767.906 650.21C769.124 650.21 770.344 649.988 771.495 649.54C772.645 649.093 773.728 648.418 774.653 647.53L775.458 646.758L776.664 645.601L772.697 641.796L771.49 642.953L770.684 643.724Z" fill="#E2C89F"/>
<path d="M791.062 624.099L778.043 636.583L782.01 640.388L795.029 627.903L791.062 624.099Z" fill="#E2C89F"/>
<path d="M799.089 670.874C799.089 672.627 797.607 674.049 795.778 674.049C793.95 674.049 792.468 672.627 792.468 670.874C792.468 669.12 793.95 667.699 795.778 667.699C797.607 667.699 799.089 669.12 799.089 670.874Z" fill="#CDB28A"/>
<path d="M797.468 677.442C797.468 678.336 796.711 679.061 795.779 679.061C794.846 679.061 794.09 678.336 794.09 677.442C794.09 676.548 794.846 675.823 795.779 675.823C796.711 675.823 797.468 676.548 797.468 677.442Z" fill="#CDB28A"/>
<path d="M795.779 606.73C796.712 606.73 797.468 606.005 797.468 605.111C797.468 604.217 796.712 603.492 795.779 603.492C794.846 603.492 794.09 604.217 794.09 605.111C794.09 606.005 794.846 606.73 795.779 606.73Z" fill="#CDB28A"/>
<path d="M799.089 612.327C799.089 614.081 797.607 615.502 795.778 615.502C793.95 615.502 792.468 614.081 792.468 612.327C792.468 610.574 793.95 609.152 795.778 609.152C797.607 609.152 799.089 610.574 799.089 612.327Z" fill="#CDB28A"/>
<path d="M795.778 681.16C792.522 681.16 789.883 683.691 789.883 686.814H801.673C801.673 683.691 799.034 681.16 795.778 681.16Z" fill="#CDB28A"/>
<path d="M792.392 688.911H789.883V725H792.392V688.911Z" fill="#CDB28A"/>
<path d="M797.033 688.911H794.523V725H797.033V688.911Z" fill="#CDB28A"/>
<path d="M801.673 688.911H799.164V725H801.673V688.911Z" fill="#CDB28A"/>
<path d="M180.253 104.756C181.598 104.682 182.932 104.604 184.245 104.506C184.502 104.544 184.759 104.586 185.028 104.586C185.589 104.586 186.119 104.476 186.628 104.315C236.797 100.048 263.815 79.1676 265 78.2325L258.372 69.692C258.287 69.7584 255.591 71.8183 250.453 74.7131V69.318C250.453 66.3243 248.043 63.8971 245.072 63.8971C242.1 63.8971 239.691 66.3243 239.691 69.318V80.0933C236.759 81.3943 233.484 82.7225 229.888 84.0207V76.2892C229.888 73.2955 227.479 70.8684 224.507 70.8684C221.535 70.8684 219.126 73.2955 219.126 76.2892V87.4846C216.335 88.2761 213.387 89.0215 210.313 89.718V81.6016C210.313 78.608 207.904 76.1808 204.932 76.1808C201.962 76.1808 199.551 78.608 199.551 81.6016V91.8078C196.609 92.2848 193.558 92.6995 190.409 93.0505V84.8555C190.409 81.8618 187.999 79.4347 185.028 79.4347C182.057 79.4347 179.647 81.8618 179.647 84.8555V93.9328C178.967 93.9693 178.299 94.0182 177.611 94.048C142.963 95.5563 120.026 70.0525 109.056 53.9227C107.093 50.1172 105.262 46.0326 103.558 41.6905H109.072V34.3941H94.3538V25.7559H109.072V18.4594H37.0991V0H-135.044V18.4594H-208.072V25.7559H-194.411V34.3941H-208.072V41.6905H-202.559C-204.261 46.0286 -206.089 50.1078 -208.049 53.9105C-219.017 70.0376 -241.955 95.5482 -276.611 94.0493C-277.299 94.0195 -277.967 93.972 -278.647 93.9341V84.8568C-278.647 81.8632 -281.057 79.436 -284.028 79.436C-287 79.436 -289.409 81.8632 -289.409 84.8568V93.0519C-292.56 92.7023 -295.609 92.2861 -298.551 91.8091V81.603C-298.551 78.6093 -300.961 76.1821 -303.932 76.1821C-306.904 76.1821 -309.313 78.6093 -309.313 81.603V89.7194C-312.389 89.0228 -315.336 88.2774 -318.127 87.486V76.2905C-318.127 73.2969 -320.537 70.8697 -323.508 70.8697C-326.48 70.8697 -328.889 73.2969 -328.889 76.2905V84.0221C-332.484 82.7238 -335.761 81.3957 -338.691 80.0946V69.3193C-338.691 66.3257 -341.1 63.8985 -344.072 63.8985C-347.043 63.8985 -349.453 66.3257 -349.453 69.3193V74.7158C-354.587 71.8224 -357.279 69.7652 -357.361 69.7002L-364 78.234C-362.815 79.1691 -335.797 100.049 -285.628 104.316C-285.119 104.478 -284.589 104.587 -284.028 104.587C-283.761 104.587 -283.504 104.547 -283.245 104.507C-281.932 104.604 -280.597 104.684 -279.253 104.757C-318.481 110.168 -355.672 94.418 -355.672 94.418V113.009L-326.847 130.754C-296.043 149.719 -260.641 159.753 -224.539 159.753H-252.236V167.049H-239.844V525.583H-244.59V539.419H-251.433V571H-195.038V539.419H-201.88V525.583H-206.626V277.218H-200.602V287.145H-171.521V251.024H-149.983V265.948H-162.689V259.788H-158.289V262.27H-154.253V255.723H-166.725V270.013H-145.948V246.958H-158.207V242.218H59.2134V246.958H46.9543V270.013H67.7315V255.723H55.2585V262.27H59.2942V259.788H63.6958V265.948H50.99V251.024H72.5273V287.145H101.609V277.218H107.633V525.581H102.887V539.418H96.0434V570.999H152.438V539.418H145.597V525.581H140.851V167.048H153.242V159.752H125.546C161.647 159.752 197.049 149.718 227.854 130.753L256.677 113.007V94.4166C256.672 94.4166 219.481 110.167 180.253 104.756ZM110.528 77.4167V133.641C110.528 134.961 109.465 136.031 108.155 136.031C106.844 136.031 105.782 134.961 105.782 133.641V77.4167C105.782 76.0967 106.844 75.0261 108.155 75.0261C109.465 75.0261 110.528 76.0967 110.528 77.4167ZM78.8902 50.246V133.642C78.8902 134.962 77.8275 136.033 76.5173 136.033C75.2057 136.033 74.1443 134.962 74.1443 133.642V50.246C74.1443 48.926 75.2057 47.8554 76.5173 47.8554C77.8289 47.8554 78.8902 48.926 78.8902 50.246ZM63.0716 50.246V133.642C63.0716 134.962 62.0102 136.033 60.6986 136.033C59.3883 136.033 58.3256 134.962 58.3256 133.642V50.246C58.3256 48.926 59.3883 47.8554 60.6986 47.8554C62.0102 47.8554 63.0716 48.926 63.0716 50.246ZM47.2543 50.246V133.642C47.2543 134.962 46.1929 136.033 44.8813 136.033C43.571 136.033 42.5083 134.962 42.5083 133.642V50.246C42.5083 48.926 43.571 47.8554 44.8813 47.8554C46.1916 47.8554 47.2543 48.926 47.2543 50.246ZM31.4356 50.246V133.642C31.4356 134.962 30.3742 136.033 29.0626 136.033C27.7523 136.033 26.6896 134.962 26.6896 133.642V50.246C26.6896 48.926 27.751 47.8554 29.0626 47.8554C30.3742 47.8554 31.4356 48.926 31.4356 50.246ZM15.6169 50.246V133.642C15.6169 134.962 14.5542 136.033 13.244 136.033C11.9337 136.033 10.8709 134.962 10.8709 133.642V50.246C10.8709 48.926 11.9323 47.8554 13.244 47.8554C14.5556 47.8554 15.6169 48.926 15.6169 50.246ZM-0.200378 50.246V133.642C-0.200378 134.962 -1.26175 136.033 -2.57336 136.033C-3.88498 136.033 -4.94635 134.962 -4.94635 133.642V50.246C-4.94635 48.926 -3.88364 47.8554 -2.57336 47.8554C-1.26309 47.8554 -0.200378 48.926 -0.200378 50.246ZM-16.019 50.246V133.642C-16.019 134.962 -17.0818 136.033 -18.392 136.033C-19.7036 136.033 -20.765 134.962 -20.765 133.642V50.246C-20.765 48.926 -19.7023 47.8554 -18.392 47.8554C-17.0818 47.8554 -16.019 48.926 -16.019 50.246ZM-31.8377 50.246V133.642C-31.8377 134.962 -32.8991 136.033 -34.2107 136.033C-35.5223 136.033 -36.5837 134.962 -36.5837 133.642V50.246C-36.5837 48.926 -35.5223 47.8554 -34.2107 47.8554C-32.9004 47.8554 -31.8377 48.926 -31.8377 50.246ZM-47.6563 50.246V133.642C-47.6563 134.962 -48.7177 136.033 -50.0294 136.033C-51.341 136.033 -52.4023 134.962 -52.4023 133.642V50.246C-52.4023 48.926 -51.341 47.8554 -50.0294 47.8554C-48.7177 47.8554 -47.6563 48.926 -47.6563 50.246ZM-63.475 50.246V133.642C-63.475 134.962 -64.5364 136.033 -65.848 136.033C-67.1583 136.033 -68.221 134.962 -68.221 133.642V50.246C-68.221 48.926 -67.1583 47.8554 -65.848 47.8554C-64.5364 47.8554 -63.475 48.926 -63.475 50.246ZM-79.2924 50.246V133.642C-79.2924 134.962 -80.355 136.033 -81.6653 136.033C-82.9756 136.033 -84.0383 134.962 -84.0383 133.642V50.246C-84.0383 48.926 -82.9756 47.8554 -81.6653 47.8554C-80.3537 47.8554 -79.2924 48.926 -79.2924 50.246ZM-95.111 50.246V133.642C-95.111 134.962 -96.1737 136.033 -97.484 136.033C-98.7956 136.033 -99.857 134.962 -99.857 133.642V50.246C-99.857 48.926 -98.7943 47.8554 -97.484 47.8554C-96.1724 47.8554 -95.111 48.926 -95.111 50.246ZM-110.928 50.246V133.642C-110.928 134.962 -111.991 136.033 -113.301 136.033C-114.613 136.033 -115.674 134.962 -115.674 133.642V50.246C-115.674 48.926 -114.612 47.8554 -113.301 47.8554C-111.991 47.8554 -110.928 48.926 -110.928 50.246ZM-126.747 50.246V133.642C-126.747 134.962 -127.81 136.033 -129.12 136.033C-130.432 136.033 -131.493 134.962 -131.493 133.642V50.246C-131.493 48.926 -130.432 47.8554 -129.12 47.8554C-127.81 47.8554 -126.747 48.926 -126.747 50.246ZM-142.566 50.246V133.642C-142.566 134.962 -143.628 136.033 -144.939 136.033C-146.25 136.033 -147.312 134.962 -147.312 133.642V50.246C-147.312 48.926 -146.25 47.8554 -144.939 47.8554C-143.628 47.8554 -142.566 48.926 -142.566 50.246ZM-158.384 50.246V133.642C-158.384 134.962 -159.446 136.033 -160.757 136.033C-162.068 136.033 -163.13 134.962 -163.13 133.642V50.246C-163.13 48.926 -162.069 47.8554 -160.757 47.8554C-159.446 47.8554 -158.384 48.926 -158.384 50.246ZM-174.202 50.246V133.642C-174.202 134.962 -175.264 136.033 -176.575 136.033C-177.885 136.033 -178.948 134.962 -178.948 133.642V50.246C-178.948 48.926 -177.886 47.8554 -176.575 47.8554C-175.264 47.8554 -174.202 48.926 -174.202 50.246ZM-205.839 77.4167V133.641C-205.839 134.961 -206.902 136.031 -208.212 136.031C-209.522 136.031 -210.585 134.961 -210.585 133.641V77.4167C-210.585 76.0967 -209.522 75.0261 -208.212 75.0261C-206.9 75.0261 -205.839 76.0967 -205.839 77.4167ZM-194.766 62.5446C-194.766 61.2246 -193.704 60.154 -192.393 60.154C-191.082 60.154 -190.02 61.2246 -190.02 62.5446V133.642C-190.02 134.962 -191.083 136.033 -192.393 136.033C-193.704 136.033 -194.766 134.962 -194.766 133.642V62.5446ZM-158.738 34.3913V25.7532H-146.955V34.3913H-158.738ZM-162.774 34.3913H-174.557V25.7532H-162.774V34.3913ZM-115.319 25.7532V34.3913H-127.101V25.7532H-115.319ZM62.7178 34.3913V25.7532H74.5007V34.3913H62.7178ZM58.6821 34.3913H46.8991V25.7532H58.6821V34.3913ZM15.2631 34.3913V25.7532H27.0461V34.3913H15.2631ZM11.2274 34.3913H-0.555481V25.7532H11.2274V34.3913ZM-4.59256 34.3913H-16.3741V25.7532H-4.59256V34.3913ZM-20.4099 34.3913H-32.1928V25.7532H-20.4099V34.3913ZM-36.2285 34.3913H-48.0115V25.7532H-36.2285V34.3913ZM-52.0458 34.3913H-63.8288V25.7532H-52.0458V34.3913ZM-67.8645 34.3913H-79.6461V25.7532H-67.8645V34.3913ZM-83.6832 34.3913H-95.4661V25.7532H-83.6832V34.3913ZM-99.5005 34.3913H-111.283V25.7532H-99.5005V34.3913ZM89.9629 62.5446C89.9629 61.2246 91.0256 60.154 92.3359 60.154C93.6462 60.154 94.7089 61.2246 94.7089 62.5446V133.642C94.7089 134.962 93.6462 136.033 92.3359 136.033C91.0243 136.033 89.9629 134.962 89.9629 133.642V62.5446ZM90.318 34.3913H78.5364V25.7532H90.318V34.3913ZM42.8634 25.7532V34.3913H31.0805V25.7532H42.8634ZM-131.136 25.7532V34.3913H-142.919V25.7532H-131.136ZM-190.375 25.7532H-178.592V34.3913H-190.375V25.7532ZM81.4435 227.283V214.959H93.0933V219.704H89.3549V217.377H85.3192V223.769H97.129V220.45H107.63V227.285L81.4435 227.283ZM-206.63 227.283V220.449H-195.459V223.768H-183.648V217.375H-187.684V219.702H-191.423V214.958H-179.772V227.282L-206.63 227.283ZM-178.592 167.048V177.811H-190.375V167.048H-178.592ZM97.129 201.037V196.046H107.63V216.382H97.129V210.892H89.219V201.037H97.129ZM85.1819 210.892H77.4064V216.382H66.3621V196.046H77.4064V201.037H85.1819V210.892ZM-183.512 210.892V201.037H-175.737V196.046H-165.363V216.382H-175.737V210.892H-183.512ZM-195.459 210.892V216.382H-206.63V196.046H-195.459V201.037H-187.548V210.892H-195.459ZM-165.363 191.98H-175.737V185.109H-165.363V191.98ZM77.4078 185.109V191.98H66.3634V185.109H77.4078ZM-63.8288 177.812V167.049H-52.0458V177.812H-63.8288ZM-67.8645 177.812H-79.6461V167.049H-67.8645V177.812ZM-83.6832 177.812H-95.4661V167.049H-83.6832V177.812ZM-99.5005 177.812H-111.283V167.049H-99.5005V177.812ZM-115.319 177.812H-127.101V167.049H-115.319V177.812ZM-131.136 177.812H-142.919V167.049H-131.136V177.812ZM-146.955 177.812H-158.738V167.049H-146.955V177.812ZM-162.774 177.812H-174.557V167.049H-162.774V177.812ZM-179.772 185.109V196.971H-191.423V192.228H-187.684V194.555H-183.648V188.162H-195.459V191.98H-206.63V185.109H-179.772ZM-175.737 220.448H-165.363V227.282H-175.737V220.448ZM66.3634 220.448H77.4078V227.282H66.3634V220.448ZM107.629 191.98H97.1277V188.162H85.3178V194.555H89.3535V192.228H93.0919V196.971H81.4422V185.109H107.629V191.98ZM78.5364 177.812V167.049H90.318V177.812H78.5364ZM74.5007 177.812H62.7178V167.049H74.5007V177.812ZM58.6821 177.812H46.8991V167.049H58.6821V177.812ZM42.8634 177.812H31.0805V167.049H42.8634V177.812ZM27.0461 177.812H15.2631V167.049H27.0461V177.812ZM11.2274 177.812H-0.555481V167.049H11.2274V177.812ZM-4.59256 177.812H-16.3741V167.049H-4.59256V177.812ZM-20.4099 177.812H-32.1928V167.049H-20.4099V177.812ZM-36.2285 177.812H-48.0115V167.049H-36.2285V177.812ZM-194.411 167.048V177.811H-206.63V167.048H-194.411ZM-206.63 273.152V234.578H-191.511V262.76H-200.607V273.151H-206.63V273.152ZM-162.245 246.958H-175.559V283.079H-196.569V266.826H-182.545V274.712H-187.472V270.637H-191.508V278.777H-178.509V262.76H-187.472V234.578H-165.361V242.218H-162.244L-162.245 246.958ZM97.5689 283.079H76.5589V246.958H63.2451V242.218H66.3621V234.578H88.4724V262.76H79.5091V278.777H92.5081V270.637H88.4724V274.712H83.5448V266.826H97.5675V283.079H97.5689ZM101.605 273.152V262.762H92.5095V234.58H107.629V273.153L101.605 273.152ZM107.629 177.812H94.3538V167.049H107.629V177.812Z" fill="#E9D6B7"/>
<path d="M1413.68 107.428C1414.88 107.366 1416.07 107.299 1417.23 107.217C1417.46 107.249 1417.69 107.285 1417.93 107.285C1418.43 107.285 1418.9 107.192 1419.35 107.056C1463.94 103.453 1487.95 85.828 1489 85.0387L1483.11 77.8293C1483.03 77.8854 1480.64 79.6242 1476.07 82.0678V77.5136C1476.07 74.9866 1473.93 72.9377 1471.29 72.9377C1468.65 72.9377 1466.51 74.9866 1466.51 77.5136V86.6094C1463.9 87.7076 1460.99 88.8288 1457.8 89.9247V83.3983C1457.8 80.8712 1455.65 78.8223 1453.01 78.8223C1450.37 78.8223 1448.23 80.8712 1448.23 83.3983V92.8487C1445.75 93.5168 1443.13 94.146 1440.4 94.734V87.8827C1440.4 85.3556 1438.26 83.3067 1435.62 83.3067C1432.98 83.3067 1430.84 85.3556 1430.84 87.8827V96.498C1428.22 96.9007 1425.51 97.2507 1422.71 97.547V90.6294C1422.71 88.1023 1420.57 86.0534 1417.93 86.0534C1415.29 86.0534 1413.15 88.1023 1413.15 90.6294V98.2917C1412.54 98.3226 1411.95 98.3638 1411.34 98.389C1380.54 99.6623 1360.16 78.1336 1350.41 64.5179C1348.67 61.3056 1347.04 57.8577 1345.52 54.1923H1350.42V48.0332H1337.34V40.7414H1350.42V34.5822H1286.46V19H1133.48V34.5822H1068.58V40.7414H1080.72V48.0332H1068.58V54.1923H1073.47C1071.96 57.8542 1070.34 61.2977 1068.6 64.5077C1058.85 78.1211 1038.46 99.6554 1007.66 98.3901C1007.05 98.365 1006.46 98.3249 1005.85 98.2929V90.6305C1005.85 88.1034 1003.71 86.0545 1001.07 86.0545C998.431 86.0545 996.29 88.1034 996.29 90.6305V97.5482C993.49 97.2531 990.78 96.9018 988.165 96.4991V87.8838C988.165 85.3567 986.024 83.3078 983.383 83.3078C980.742 83.3078 978.601 85.3567 978.601 87.8838V94.7351C975.868 94.1471 973.248 93.5179 970.768 92.8498V83.3994C970.768 80.8723 968.626 78.8234 965.985 78.8234C963.345 78.8234 961.203 80.8723 961.203 83.3994V89.9258C958.009 88.8299 955.097 87.7088 952.493 86.6105V77.5147C952.493 74.9877 950.352 72.9388 947.711 72.9388C945.07 72.9388 942.928 74.9877 942.928 77.5147V82.0701C938.365 79.6277 935.973 77.8911 935.9 77.8362L930 85.0399C931.053 85.8292 955.064 103.455 999.65 107.057C1000.1 107.193 1000.57 107.286 1001.07 107.286C1001.31 107.286 1001.54 107.251 1001.77 107.218C1002.93 107.299 1004.12 107.367 1005.32 107.429C970.453 111.997 937.402 98.7013 937.402 98.7013V114.394L963.018 129.374C990.395 145.383 1021.86 153.853 1053.94 153.853H1029.33V160.012H1040.34V462.662H1036.12V474.342H1030.04V501H1080.16V474.342H1074.08V462.662H1069.86V253.009H1075.21V261.388H1101.06V230.898H1120.2V243.495H1108.91V238.296H1112.82V240.39H1116.4V234.864H1105.32V246.927H1123.79V227.466H1112.89V223.464H1306.11V227.466H1295.22V246.927H1313.69V234.864H1302.6V240.39H1306.19V238.296H1310.1V243.495H1298.81V230.898H1317.95V261.388H1343.79V253.009H1349.15V462.661H1344.93V474.341H1338.85V500.999H1388.97V474.341H1382.88V462.661H1378.67V160.011H1389.68V153.852H1365.07C1397.15 153.852 1428.61 145.382 1455.99 129.373L1481.6 114.393V98.7001C1481.6 98.7001 1448.55 111.996 1413.68 107.428ZM1351.72 84.35V131.81C1351.72 132.925 1350.77 133.828 1349.61 133.828C1348.45 133.828 1347.5 132.925 1347.5 131.81V84.35C1347.5 83.2358 1348.45 82.3321 1349.61 82.3321C1350.77 82.3321 1351.72 83.2358 1351.72 84.35ZM1323.6 61.4143V131.812C1323.6 132.926 1322.66 133.83 1321.49 133.83C1320.33 133.83 1319.38 132.926 1319.38 131.812V61.4143C1319.38 60.3001 1320.33 59.3963 1321.49 59.3963C1322.66 59.3963 1323.6 60.3001 1323.6 61.4143ZM1309.54 61.4143V131.812C1309.54 132.926 1308.6 133.83 1307.43 133.83C1306.27 133.83 1305.33 132.926 1305.33 131.812V61.4143C1305.33 60.3001 1306.27 59.3963 1307.43 59.3963C1308.6 59.3963 1309.54 60.3001 1309.54 61.4143ZM1295.49 61.4143V131.812C1295.49 132.926 1294.54 133.83 1293.38 133.83C1292.21 133.83 1291.27 132.926 1291.27 131.812V61.4143C1291.27 60.3001 1292.21 59.3963 1293.38 59.3963C1294.54 59.3963 1295.49 60.3001 1295.49 61.4143ZM1281.43 61.4143V131.812C1281.43 132.926 1280.49 133.83 1279.32 133.83C1278.16 133.83 1277.21 132.926 1277.21 131.812V61.4143C1277.21 60.3001 1278.15 59.3963 1279.32 59.3963C1280.49 59.3963 1281.43 60.3001 1281.43 61.4143ZM1267.37 61.4143V131.812C1267.37 132.926 1266.43 133.83 1265.26 133.83C1264.1 133.83 1263.15 132.926 1263.15 131.812V61.4143C1263.15 60.3001 1264.1 59.3963 1265.26 59.3963C1266.43 59.3963 1267.37 60.3001 1267.37 61.4143ZM1253.31 61.4143V131.812C1253.31 132.926 1252.37 133.83 1251.2 133.83C1250.04 133.83 1249.1 132.926 1249.1 131.812V61.4143C1249.1 60.3001 1250.04 59.3963 1251.2 59.3963C1252.37 59.3963 1253.31 60.3001 1253.31 61.4143ZM1239.25 61.4143V131.812C1239.25 132.926 1238.31 133.83 1237.15 133.83C1235.98 133.83 1235.04 132.926 1235.04 131.812V61.4143C1235.04 60.3001 1235.98 59.3963 1237.15 59.3963C1238.31 59.3963 1239.25 60.3001 1239.25 61.4143ZM1225.2 61.4143V131.812C1225.2 132.926 1224.25 133.83 1223.09 133.83C1221.92 133.83 1220.98 132.926 1220.98 131.812V61.4143C1220.98 60.3001 1221.92 59.3963 1223.09 59.3963C1224.25 59.3963 1225.2 60.3001 1225.2 61.4143ZM1211.14 61.4143V131.812C1211.14 132.926 1210.2 133.83 1209.03 133.83C1207.86 133.83 1206.92 132.926 1206.92 131.812V61.4143C1206.92 60.3001 1207.86 59.3963 1209.03 59.3963C1210.2 59.3963 1211.14 60.3001 1211.14 61.4143ZM1197.08 61.4143V131.812C1197.08 132.926 1196.14 133.83 1194.97 133.83C1193.81 133.83 1192.86 132.926 1192.86 131.812V61.4143C1192.86 60.3001 1193.81 59.3963 1194.97 59.3963C1196.14 59.3963 1197.08 60.3001 1197.08 61.4143ZM1183.02 61.4143V131.812C1183.02 132.926 1182.08 133.83 1180.91 133.83C1179.75 133.83 1178.81 132.926 1178.81 131.812V61.4143C1178.81 60.3001 1179.75 59.3963 1180.91 59.3963C1182.08 59.3963 1183.02 60.3001 1183.02 61.4143ZM1168.96 61.4143V131.812C1168.96 132.926 1168.02 133.83 1166.86 133.83C1165.69 133.83 1164.75 132.926 1164.75 131.812V61.4143C1164.75 60.3001 1165.69 59.3963 1166.86 59.3963C1168.02 59.3963 1168.96 60.3001 1168.96 61.4143ZM1154.91 61.4143V131.812C1154.91 132.926 1153.96 133.83 1152.8 133.83C1151.63 133.83 1150.69 132.926 1150.69 131.812V61.4143C1150.69 60.3001 1151.63 59.3963 1152.8 59.3963C1153.96 59.3963 1154.91 60.3001 1154.91 61.4143ZM1140.85 61.4143V131.812C1140.85 132.926 1139.91 133.83 1138.74 133.83C1137.58 133.83 1136.63 132.926 1136.63 131.812V61.4143C1136.63 60.3001 1137.58 59.3963 1138.74 59.3963C1139.91 59.3963 1140.85 60.3001 1140.85 61.4143ZM1126.79 61.4143V131.812C1126.79 132.926 1125.85 133.83 1124.68 133.83C1123.52 133.83 1122.57 132.926 1122.57 131.812V61.4143C1122.57 60.3001 1123.52 59.3963 1124.68 59.3963C1125.85 59.3963 1126.79 60.3001 1126.79 61.4143ZM1112.73 61.4143V131.812C1112.73 132.926 1111.79 133.83 1110.62 133.83C1109.46 133.83 1108.52 132.926 1108.52 131.812V61.4143C1108.52 60.3001 1109.46 59.3963 1110.62 59.3963C1111.79 59.3963 1112.73 60.3001 1112.73 61.4143ZM1098.68 61.4143V131.812C1098.68 132.926 1097.73 133.83 1096.57 133.83C1095.4 133.83 1094.46 132.926 1094.46 131.812V61.4143C1094.46 60.3001 1095.4 59.3963 1096.57 59.3963C1097.73 59.3963 1098.68 60.3001 1098.68 61.4143ZM1070.56 84.35V131.81C1070.56 132.925 1069.62 133.828 1068.45 133.828C1067.29 133.828 1066.34 132.925 1066.34 131.81V84.35C1066.34 83.2358 1067.29 82.3321 1068.45 82.3321C1069.62 82.3321 1070.56 83.2358 1070.56 84.35ZM1080.4 71.796C1080.4 70.6817 1081.34 69.778 1082.51 69.778C1083.67 69.778 1084.62 70.6817 1084.62 71.796V131.812C1084.62 132.926 1083.67 133.83 1082.51 133.83C1081.34 133.83 1080.4 132.926 1080.4 131.812V71.796ZM1112.42 48.0309V40.7391H1122.89V48.0309H1112.42ZM1108.83 48.0309H1098.36V40.7391H1108.83V48.0309ZM1151.01 40.7391V48.0309H1140.54V40.7391H1151.01ZM1309.23 48.0309V40.7391H1319.7V48.0309H1309.23ZM1305.64 48.0309H1295.17V40.7391H1305.64V48.0309ZM1267.06 48.0309V40.7391H1277.53V48.0309H1267.06ZM1263.47 48.0309H1253V40.7391H1263.47V48.0309ZM1249.41 48.0309H1238.94V40.7391H1249.41V48.0309ZM1235.35 48.0309H1224.88V40.7391H1235.35V48.0309ZM1221.29 48.0309H1210.82V40.7391H1221.29V48.0309ZM1207.24 48.0309H1196.77V40.7391H1207.24V48.0309ZM1193.18 48.0309H1182.71V40.7391H1193.18V48.0309ZM1179.12 48.0309H1168.65V40.7391H1179.12V48.0309ZM1165.06 48.0309H1154.59V40.7391H1165.06V48.0309ZM1333.44 71.796C1333.44 70.6817 1334.39 69.778 1335.55 69.778C1336.72 69.778 1337.66 70.6817 1337.66 71.796V131.812C1337.66 132.926 1336.72 133.83 1335.55 133.83C1334.39 133.83 1333.44 132.926 1333.44 131.812V71.796ZM1333.76 48.0309H1323.29V40.7391H1333.76V48.0309ZM1291.58 40.7391V48.0309H1281.11V40.7391H1291.58ZM1136.95 40.7391V48.0309H1126.48V40.7391H1136.95ZM1084.3 40.7391H1094.77V48.0309H1084.3V40.7391ZM1325.87 210.857V200.454H1336.22V204.459H1332.9V202.495H1329.32V207.891H1339.81V205.089H1349.14V210.858L1325.87 210.857ZM1069.86 210.857V205.088H1079.78V207.89H1090.28V202.494H1086.69V204.458H1083.37V200.453H1093.73V210.856L1069.86 210.857ZM1094.77 160.011V169.096H1084.3V160.011H1094.77ZM1339.81 188.702V184.489H1349.14V201.655H1339.81V197.021H1332.78V188.702H1339.81ZM1329.19 197.021H1322.28V201.655H1312.47V184.489H1322.28V188.702H1329.19V197.021ZM1090.4 197.021V188.702H1097.31V184.489H1106.53V201.655H1097.31V197.021H1090.4ZM1079.78 197.021V201.655H1069.86V184.489H1079.78V188.702H1086.82V197.021H1079.78ZM1106.53 181.057H1097.31V175.257H1106.53V181.057ZM1322.28 175.257V181.057H1312.47V175.257H1322.28ZM1196.77 169.097V160.012H1207.24V169.097H1196.77ZM1193.18 169.097H1182.71V160.012H1193.18V169.097ZM1179.12 169.097H1168.65V160.012H1179.12V169.097ZM1165.06 169.097H1154.59V160.012H1165.06V169.097ZM1151.01 169.097H1140.54V160.012H1151.01V169.097ZM1136.95 169.097H1126.48V160.012H1136.95V169.097ZM1122.89 169.097H1112.42V160.012H1122.89V169.097ZM1108.83 169.097H1098.36V160.012H1108.83V169.097ZM1093.73 175.257V185.27H1083.37V181.266H1086.69V183.23H1090.28V177.834H1079.78V181.057H1069.86V175.257H1093.73ZM1097.31 205.087H1106.53V210.856H1097.31V205.087ZM1312.47 205.087H1322.28V210.856H1312.47V205.087ZM1349.14 181.057H1339.81V177.834H1329.31V183.23H1332.9V181.266H1336.22V185.27H1325.87V175.257H1349.14V181.057ZM1323.29 169.097V160.012H1333.76V169.097H1323.29ZM1319.7 169.097H1309.23V160.012H1319.7V169.097ZM1305.64 169.097H1295.17V160.012H1305.64V169.097ZM1291.58 169.097H1281.11V160.012H1291.58V169.097ZM1277.53 169.097H1267.06V160.012H1277.53V169.097ZM1263.47 169.097H1253V160.012H1263.47V169.097ZM1249.41 169.097H1238.94V160.012H1249.41V169.097ZM1235.35 169.097H1224.88V160.012H1235.35V169.097ZM1221.29 169.097H1210.82V160.012H1221.29V169.097ZM1080.72 160.011V169.096H1069.86V160.011H1080.72ZM1069.86 249.577V217.015H1083.29V240.805H1075.21V249.575H1069.86V249.577ZM1109.3 227.466H1097.47V257.956H1078.8V244.236H1091.26V250.893H1086.88V247.453H1083.3V254.325H1094.85V240.805H1086.88V217.015H1106.53V223.464H1109.3L1109.3 227.466ZM1340.2 257.956H1321.53V227.466H1309.7V223.464H1312.47V217.015H1332.12V240.805H1324.15V254.325H1335.7V247.453H1332.12V250.893H1327.74V244.236H1340.2V257.956H1340.2ZM1343.79 249.577V240.806H1335.71V217.017H1349.14V249.578L1343.79 249.577ZM1349.14 169.097H1337.34V160.012H1349.14V169.097Z" fill="#E9D6B7"/>
</svg>
