<svg width="198" height="51" viewBox="0 0 198 51" fill="none" xmlns="http://www.w3.org/2000/svg">
<path d="M7.65332 32.3096L4.87695 34.9688L4.49902 35.3301L4.87695 35.6914L7.65332 38.3506L7.99902 38.6816L8.34473 38.3506L11.1221 35.6914L11.499 35.3301L11.1221 34.9688L8.34473 32.3096L7.99902 31.9775L7.65332 32.3096ZM7.65332 25.4277L6.26465 26.7578L4.87695 28.0869L4.49902 28.4482L4.87695 28.8096L7.65332 31.4688L7.99902 31.7998L8.34473 31.4688L11.1221 28.8096L11.499 28.4482L11.1221 28.0869L8.99902 26.0537L8.34473 25.4277L7.99902 25.0967L7.65332 25.4277ZM4.06152 21.9863L1.28418 24.6465L0.907227 25.0068L1.28418 25.3682L4.06152 28.0273L4.40723 28.3594L4.75293 28.0273L7.5293 25.3682L7.90625 25.0068L7.5293 24.6465L4.75293 21.9863L4.40723 21.6553L4.06152 21.9863ZM11.2461 21.9873L9.85742 23.3164L8.46875 24.6465L8.0918 25.0078L8.46973 25.3691L10.3203 27.1416L11.2461 28.0283L11.5918 28.3594L11.9375 28.0283L14.7148 25.3691L15.0918 25.0078L14.7148 24.6465L11.9375 21.9873L11.5918 21.6562L11.2461 21.9873ZM7.65332 18.5459L4.87695 21.2051L4.49902 21.5664L4.87695 21.9277L6.72754 23.7012L7.65332 24.5869L7.99902 24.9189L8.34473 24.5869L11.1221 21.9277L11.499 21.5664L11.1221 21.2051L8.34473 18.5459L7.99902 18.2148L7.65332 18.5459ZM7.65332 11.6641L4.87695 14.3242L4.49902 14.6846L4.87695 15.0459L7.65332 17.7061L7.99902 18.0371L8.34473 17.7061L11.1221 15.0459L11.499 14.6846L11.1221 14.3242L8.34473 11.6641L7.99902 11.333L7.65332 11.6641ZM7.92383 38.7861L7.76953 38.6387L4.31543 35.3291L7.53027 32.25L7.90723 31.8896L7.53027 31.5283L4.75391 28.8682H4.75293L0.722656 25.0078L3.93848 21.9287L4.20996 21.668L4.75293 21.1475L7.53027 18.4873L7.90723 18.127L7.53027 17.7656L4.31543 14.6855L7.76953 11.377L7.92383 11.2295V0.5H8.07715V11.2305L8.23145 11.3779L11.6543 14.6572L11.6846 14.6855L8.46973 17.7656L8.09277 18.127L8.46973 18.4873L11.6543 21.5381L12.0615 21.9277V21.9287L15.2461 24.9785L15.2764 25.0078L11.2461 28.8691L8.46875 31.5283L8.0918 31.8896L8.46875 32.25L11.6533 35.3008H11.6543L11.6855 35.3301L8.23145 38.6387L8.07715 38.7861V49.5156H7.92383V38.7861Z" fill="#DBC8AB" stroke="#CDB28A"/>
<path d="M189.653 32.3096L186.877 34.9688L186.499 35.3301L186.877 35.6914L189.653 38.3506L189.999 38.6816L190.345 38.3506L193.122 35.6914L193.499 35.3301L193.122 34.9688L190.345 32.3096L189.999 31.9775L189.653 32.3096ZM189.653 25.4277L188.265 26.7578L186.877 28.0869L186.499 28.4482L186.877 28.8096L189.653 31.4688L189.999 31.7998L190.345 31.4688L193.122 28.8096L193.499 28.4482L193.122 28.0869L190.999 26.0537L190.345 25.4277L189.999 25.0967L189.653 25.4277ZM186.062 21.9863L183.284 24.6465L182.907 25.0068L183.284 25.3682L186.062 28.0273L186.407 28.3594L186.753 28.0273L189.529 25.3682L189.906 25.0068L189.529 24.6465L186.753 21.9863L186.407 21.6553L186.062 21.9863ZM193.246 21.9873L191.857 23.3164L190.469 24.6465L190.092 25.0078L190.47 25.3691L192.32 27.1416L193.246 28.0283L193.592 28.3594L193.938 28.0283L196.715 25.3691L197.092 25.0078L196.715 24.6465L193.938 21.9873L193.592 21.6562L193.246 21.9873ZM189.653 18.5459L186.877 21.2051L186.499 21.5664L186.877 21.9277L188.728 23.7012L189.653 24.5869L189.999 24.9189L190.345 24.5869L193.122 21.9277L193.499 21.5664L193.122 21.2051L190.345 18.5459L189.999 18.2148L189.653 18.5459ZM189.653 11.6641L186.877 14.3242L186.499 14.6846L186.877 15.0459L189.653 17.7061L189.999 18.0371L190.345 17.7061L193.122 15.0459L193.499 14.6846L193.122 14.3242L190.345 11.6641L189.999 11.333L189.653 11.6641ZM189.924 38.7861L189.77 38.6387L186.315 35.3291L189.53 32.25L189.907 31.8896L189.53 31.5283L186.754 28.8682H186.753L182.723 25.0078L185.938 21.9287L186.21 21.668L186.753 21.1475L189.53 18.4873L189.907 18.127L189.53 17.7656L186.315 14.6855L189.77 11.377L189.924 11.2295V0.5H190.077V11.2305L190.231 11.3779L193.654 14.6572L193.685 14.6855L190.47 17.7656L190.093 18.127L190.47 18.4873L193.654 21.5381L194.062 21.9277V21.9287L197.246 24.9785L197.276 25.0078L193.246 28.8691L190.469 31.5283L190.092 31.8896L190.469 32.25L193.653 35.3008H193.654L193.686 35.3301L190.231 38.6387L190.077 38.7861V49.5156H189.924V38.7861Z" fill="#DBC8AB" stroke="#CDB28A"/>
</svg>
