<svg width="393" height="106" viewBox="0 0 393 106" fill="none" xmlns="http://www.w3.org/2000/svg">
<path d="M162.968 47.7291C165.343 47.8302 167.734 48.4478 169.64 49.6435L170.015 49.8903L170.25 50.0583C172.56 51.7602 173.713 54.1947 173.695 57.1339L173.69 57.4297C173.635 59.1153 172.871 60.8121 171.585 61.8648L171.584 61.8658C170.868 62.451 169.568 63.1513 167.866 62.7389L167.866 62.737C167.521 62.6538 167.141 62.5119 166.814 62.3102C166.653 62.2109 166.44 62.0577 166.252 61.836C166.076 61.6283 165.784 61.1898 165.83 60.5799L165.83 60.578C165.835 60.5091 165.813 60.46 165.792 60.4334C165.788 60.4284 165.783 60.4251 165.78 60.4224L165.779 60.4243C165.767 60.4358 165.737 60.4709 165.732 60.5453L165.732 60.5482C165.649 61.6309 166.308 62.655 167.879 63.0323C169.176 63.343 170.475 63.0479 171.574 62.1478L171.574 62.1478C172.595 61.3122 173.345 60.0332 173.644 58.5784L173.748 58.0788L174.133 57.7476C174.172 57.7145 174.208 57.6866 174.24 57.6633C174.248 57.6575 174.255 57.6515 174.263 57.6463C179.06 52.364 183.284 49.4728 187.884 48.7897C194.695 47.7756 202.099 49.7198 209.831 54.3213L210.394 54.6646C213.193 56.4109 215.732 58.584 218.303 60.7801C222.512 64.3748 226.602 67.8429 231.622 69.4945L231.621 69.4945C234.291 70.3718 237.306 70.4153 239.951 69.4751L244.684 67.7931L241.656 71.7968C240.66 73.1131 239.51 74.3091 238.107 75.3928L238.107 75.3938C234.683 78.0399 230.928 78.4634 227.222 77.8715C223.589 77.2911 219.88 75.7125 216.447 74.2603C215.581 73.8942 214.746 73.54 213.928 73.2087L213.927 73.2077C202.31 68.4975 189.884 68.8924 179.822 74.1926C175.612 76.4107 171.691 79.2696 167.799 82.1094C162.488 85.9839 157.275 89.8013 151.174 92.111L150.58 92.3296C132.213 98.9181 117.064 88.8595 103.733 78.6263C86.4004 65.3207 62.0428 62.4935 28.8648 70.4959C23.4036 71.8131 17.8509 73.3338 12.456 74.8117C0.663636 78.042 -11.6639 81.4218 -23.8293 82.8448C-36.2662 84.2985 -48.3004 82.3281 -60.3365 76.8691L-59.2994 74.066C-59.2717 74.0742 -59.246 74.0818 -59.2353 74.0852C-59.2326 74.086 -59.2303 74.0867 -59.2285 74.0873C-55.6039 75.137 -51.7367 75.7164 -47.645 75.8187C-42.9303 75.9366 -37.9173 75.4205 -32.6416 74.2596C-28.4188 73.3296 -24.0864 71.9872 -19.7666 70.2667L-19.7656 70.2667C-15.8444 68.7059 -11.846 67.0206 -7.96517 65.3844C-0.113272 62.0747 8.07267 58.6243 16.2809 55.9279C23.6416 53.5097 31.1801 51.8946 38.6902 51.1291C51.4722 49.8261 64.5297 50.9566 77.4957 54.4818C83.6575 56.157 89.9919 58.4825 96.3245 61.389L97.4041 61.8898C98.4782 62.394 99.5364 62.9069 100.579 63.411L100.58 63.411C107.341 66.6815 113.42 69.5817 120.831 69.6544C127.28 69.7109 133.614 67.5358 139.676 63.0902C142 61.3862 144.103 59.2223 146.236 57.0218L146.237 57.0208C149.092 54.0759 151.999 51.058 155.546 49.2365C157.767 48.0965 160.428 47.6211 162.968 47.7291Z" fill="white" stroke="#ECE1D6" stroke-width="3"/>
<path d="M119.594 24.5162C127.853 23.8353 136.26 28.7014 140.116 36.2998C141.651 39.3267 142.556 42.8952 142.842 46.8781L142.871 47.4435C142.958 50.3312 142.207 54.0996 140.798 57.5216C139.309 61.139 136.939 64.723 133.654 66.3681C133.651 66.3696 133.648 66.3713 133.645 66.3737L133.506 66.4835L133.345 66.5586C129.295 68.432 125.113 69.3879 120.854 69.3505C114.283 69.2962 108.565 66.9107 102.971 64.2492L100.578 63.0981C99.1637 62.4136 97.756 61.7313 96.3225 61.0731L96.3215 61.0731C89.977 58.1577 83.6422 55.8327 77.4975 54.1605L77.4965 54.1605C64.5193 50.6276 51.4714 49.5029 38.7165 50.8055C31.2169 51.5715 23.6802 53.1867 16.3179 55.6079C9.15289 57.9636 2.03231 60.8836 -4.94626 63.8176L-7.92811 65.0745C-11.7921 66.7043 -15.803 68.3971 -19.7305 69.9623C-24.0411 71.681 -28.3744 73.0274 -32.6104 73.9606C-42.3656 76.1102 -51.3368 76.0785 -59.2383 73.7856C-61.5472 73.1161 -63.8663 72.1879 -66.1894 71.1783L-65.446 68.3112C-63.2518 68.5411 -61.0387 68.6901 -58.8091 68.746C-50.7517 68.9476 -42.4548 68.0172 -34.1362 65.9415C-23.5863 63.31 -14.1809 57.6326 -4.8673 51.9986C5.64224 45.6419 15.8522 39.4458 27.8974 37.4028C43.6205 34.7352 58.5513 35.7333 73.5103 40.4619L73.5102 40.4628C79.1056 42.2323 84.885 44.6933 92.2188 48.4167L92.2187 48.4177C93.7606 49.2006 95.2692 50.0771 96.8178 50.9769C100.721 53.2452 104.495 55.4215 108.698 56.2064L108.699 56.2064C111.262 56.6869 114.76 56.5421 117.867 55.4668C120.97 54.3933 123.465 52.4793 124.466 49.5784L124.467 49.5774C125.317 47.1169 124.649 43.6078 122.931 41.5863L122.93 41.5853C122.504 41.0833 121.777 40.6046 120.882 40.2935C119.992 39.9843 119.068 39.8863 118.319 40.0095C117.357 40.169 116.671 40.6798 116.283 41.4649L116.21 41.6262C116.187 41.6808 116.186 41.7428 116.205 41.7971C116.216 41.8281 116.23 41.8446 116.239 41.8536L116.242 41.8527C116.249 41.8454 116.261 41.8305 116.273 41.8036L116.275 41.7998C116.324 41.6842 116.478 41.3117 116.855 40.9673C117.234 40.6209 117.724 40.4013 118.299 40.306L118.304 40.3052C119.238 40.1539 120.196 40.3476 120.934 40.6123C121.635 40.8639 122.429 41.2855 122.913 41.8555L123.07 42.047C123.835 43.0254 124.331 44.2644 124.57 45.4782C124.824 46.7701 124.818 48.1961 124.391 49.43L124.39 49.429C123.293 52.6103 120.297 54.4376 117.303 55.3511L116.766 55.5145L116.251 55.2847C116.249 55.2838 116.247 55.2822 116.246 55.2817C112.816 55.192 109.942 53.9519 107.867 51.5084C105.447 48.6598 104.315 44.3338 104.638 39.9846C105.215 32.2094 111.982 25.1373 119.594 24.5152L119.594 24.5162Z" fill="white" stroke="#ECE1D6" stroke-width="3"/>
<path d="M288.765 12.8552C295.479 6.19685 305.857 4.63271 313.492 9.36591L313.717 9.49365C314.835 10.0716 315.867 9.75187 317.23 9.2593L317.232 9.25837C317.67 9.10069 318.181 8.91434 318.701 8.79013L318.703 8.79018C320.832 8.28507 323.257 8.2074 325.887 8.52664L325.886 8.52759C332.651 9.33994 338.537 13.3303 342.901 18.571C347.267 23.8132 350.217 30.4259 351.065 36.7322L351.339 38.7768L351.308 38.7702C351.559 38.8607 351.803 38.9575 352.039 39.063L352.038 39.0629C355.727 40.7125 358.065 44.5543 359.372 48.7799C360.696 53.0561 361.071 58.0432 360.593 62.4923C359.091 76.4571 350.767 88.9807 337.861 96.8946C323.797 105.519 307.104 106.95 294.289 100.371L294.289 100.372C289.972 98.1558 286.034 95.0372 282.357 92.134C279.067 89.5348 275.765 86.9299 272.203 84.8736C265.978 81.2789 258.81 80.3146 252.56 82.1494L252.56 82.1504C250.899 82.6379 249.279 83.2687 247.646 83.9068C242.856 85.7782 238.014 87.7427 232.548 85.1961L232.017 84.9346C229.716 83.7474 226.809 81.1317 225.209 78.3793L222.96 74.5113L227.081 76.2469C228.581 76.8782 230.334 77.119 232.15 76.8789C236.572 76.2936 240.241 73.6811 244.137 70.8676L244.138 70.8677C246.404 69.232 248.672 67.5887 251.147 66.3963C258.028 63.0806 264.725 64.8634 269.128 66.9435L269.547 67.1454L269.548 67.1464C269.682 67.2125 269.804 67.2813 269.891 67.3308L270.102 67.4485L270.245 67.5234L270.357 67.615C270.366 67.6187 270.375 67.6224 270.383 67.6255L270.437 67.6473L270.528 67.6819L270.613 67.728C273.496 69.2892 276.121 71.2413 278.774 73.2455C280.473 74.5291 282.186 75.8222 283.946 76.9865C297.059 85.6566 310.291 82.4248 317.007 75.9939C324.502 68.8154 327.673 55.7699 324.343 45.7669C324.34 45.7616 324.337 45.7555 324.334 45.7492C324.329 45.7382 324.323 45.7245 324.317 45.7096L324.316 45.7086C323.509 47.7766 322.081 49.6215 319.838 50.9399C317.109 52.5437 314.514 52.3446 312.074 51.9733L311.037 51.8086C310.572 51.7336 310.117 51.6597 309.657 51.5933L309.657 51.5924C308.382 51.4109 307.505 52.074 306.345 53.0353L306.344 53.0362C305.987 53.3318 305.563 53.6865 305.103 53.9859L304.904 54.1108C300.706 56.6246 295.538 56.0166 291.483 52.7802L291.483 52.7792C289.019 50.8132 287.187 47.8484 286.123 44.6161C285.194 41.7918 284.823 38.6777 285.172 35.698L284.664 37.1994L283.455 32.1295C281.736 24.9209 283.572 18.0034 288.765 12.8552ZM350.372 53.8715C350.299 53.9681 350.227 54.0591 350.155 54.1434L350.403 53.9816L350.372 53.8715ZM324.355 45.7917C324.357 45.7955 324.358 45.7985 324.358 45.7986L324.358 45.7966C324.357 45.7958 324.357 45.7943 324.356 45.7927C324.355 45.7917 324.355 45.7909 324.354 45.7897L324.355 45.7917Z" fill="white" stroke="#ECE1D6" stroke-width="3"/>
<path d="M325.438 48.4427C327.492 57.9853 324.314 69.3591 317.372 76.008C310.333 82.7498 296.797 85.7443 283.632 77.0354C282.352 76.1889 281.093 75.2696 279.876 74.3604L281.237 71.7365C284.825 72.9242 288.372 73.7771 291.925 73.8661C294.862 73.9401 297.813 73.4988 300.804 72.2892C306.175 70.1164 310.366 66.2167 312.121 61.9991C313.21 59.3847 313.409 56.6881 312.72 53.9257L312.229 51.9597L314.25 52.0709C315.998 52.1667 317.71 51.9441 319.528 50.8755C320.894 50.0729 321.942 49.054 322.735 47.8993L324.704 45.0337L325.438 48.4427Z" fill="white" stroke="#ECE1D6" stroke-width="3"/>
<mask id="path-5-outside-1_0_1" maskUnits="userSpaceOnUse" x="345.941" y="-1.07278" width="137.485" height="75.3238" fill="black">
<rect fill="white" x="345.941" y="-1.07278" width="137.485" height="75.3238"/>
<path d="M473.12 55.8595C471.355 55.0264 470.401 53.7591 469.794 52.7597C469.381 52.0777 469.111 51.3486 468.849 50.643C468.364 49.333 467.944 48.2012 466.73 47.648C464.49 46.6256 461.542 47.4188 459.591 47.9441C456.444 48.7903 453.907 48.2962 452.351 46.5632C452.103 46.8794 451.847 47.1863 451.591 47.4886C450.613 48.647 449.69 49.7412 449.514 51.2117C449.487 51.4323 449.545 51.6588 449.65 51.7378C449.953 51.9685 450.023 52.4168 449.807 52.7399C449.672 52.941 449.458 53.0459 449.242 53.0406C449.111 53.0374 448.98 52.9938 448.866 52.9067C448.348 52.5138 448.084 51.7943 448.175 51.0293C448.404 49.1131 449.514 47.7986 450.588 46.5269C451.396 45.5694 452.16 44.6646 452.515 43.5511C453.023 41.9611 452.671 40.1509 451.549 38.5845C449.412 35.6015 444.854 33.7708 441.473 35.7989C440.732 36.2434 439.714 37.0543 439.174 37.9225C437.956 40.5705 435.852 41.993 433.076 42.0339C432.837 42.0368 432.572 41.9996 432.316 41.963C432.05 41.9248 431.558 41.8541 431.413 41.9264C431.417 41.9342 431.406 41.9811 431.405 42.0727C431.402 42.5775 431.427 43.0893 431.451 43.5843C431.533 45.2579 431.618 46.9881 430.642 48.6872C428.025 53.2391 422.605 54.9442 418.759 55.0212C418.573 55.025 418.385 55.0245 418.195 55.0198C413.505 54.9049 407.759 52.2337 405.411 47.1378C405.247 46.7818 405.385 46.3511 405.72 46.1764C406.053 46.0024 406.458 46.1488 406.623 46.5054C408.817 51.2675 414.374 53.6673 418.733 53.5844C422.239 53.5143 427.16 51.9929 429.491 47.9365C430.249 46.6177 430.182 45.2466 430.104 43.6587C430.079 43.1431 430.053 42.61 430.056 42.0631C430.059 41.5377 430.217 41.127 430.526 40.8416C431.073 40.335 431.863 40.4477 432.496 40.5391C432.712 40.57 432.917 40.5972 433.057 40.597C435.257 40.5644 436.87 39.5021 437.871 37.4621C437.886 37.4123 437.906 37.3629 437.932 37.3157C437.957 37.2715 437.985 37.2288 438.011 37.1853C438.016 37.1753 438.021 37.167 438.026 37.1567C439.836 33.0282 438.735 26.7322 436.542 23.8614C434.523 21.2177 430.19 19.1329 426.961 20.2459C425.753 20.6614 424.795 19.7801 424.027 19.0714C423.799 18.8614 423.584 18.6628 423.383 18.5144C421.935 17.4435 419.649 17.0892 417.563 17.6116C415.988 18.0057 413.81 19.0589 412.37 21.8321C413.668 24.5234 413.379 27.8274 412.599 30.248C412.608 30.3115 412.612 30.3763 412.604 30.4431C412.251 33.429 414.551 36.9481 417.526 37.9747C420.505 39.002 424.7 37.9721 425.958 34.8505C426.441 33.6523 426.448 32.3722 425.977 31.1479C425.356 29.5304 423.968 28.1208 422.266 27.3768C421.408 27.0024 419.685 26.5973 418.71 27.1052C418.401 27.2667 418.215 27.5019 418.126 27.846C418.048 28.1462 418.08 28.4201 418.224 28.6843C418.493 29.1742 419.137 29.6171 419.867 29.8129C420.228 29.9097 420.448 30.3004 420.357 30.6851C420.266 31.0695 419.899 31.304 419.538 31.2066C418.691 30.9793 417.594 30.3876 417.058 29.4071C416.731 28.808 416.65 28.1354 416.825 27.4624C417.017 26.7251 417.463 26.1558 418.115 25.8148C419.604 25.038 421.815 25.6272 422.777 26.0472C424.807 26.934 426.471 28.6377 427.226 30.6043C427.836 32.1935 427.826 33.8577 427.198 35.4178C425.986 38.426 422.77 39.8731 419.706 39.7978C418.809 39.7758 417.926 39.6234 417.109 39.3416C414.331 38.3832 412.11 35.6895 411.435 32.8202C409.523 36.0591 406.166 38.6919 402.356 39.8117C399.33 40.7 393.753 40.731 391.659 37.0307C391.24 36.2916 391.18 35.5222 391.127 34.8436C391.09 34.3664 391.054 33.9156 390.898 33.546C390.721 33.1304 390.595 33.1017 389.958 33.0184C389.826 33.001 389.688 32.9831 389.542 32.9586C387.536 32.6228 385.955 31.2579 385.202 29.2136C384.342 26.8769 384.724 24.1006 386.176 22.1408C387.708 20.0724 390.295 18.9696 393.095 19.1933C395.802 19.4087 398.125 20.8523 399.308 23.0555C399.493 23.3998 399.381 23.839 399.058 24.0354C398.735 24.2319 398.322 24.113 398.137 23.768C397.177 21.9802 395.255 20.8054 392.995 20.6259C390.675 20.4433 388.47 21.3632 387.236 23.0307C386.075 24.5976 385.769 26.8187 386.458 28.6894C387.04 30.2688 388.209 31.2809 389.75 31.5387C389.88 31.5605 390.004 31.5766 390.121 31.592C390.829 31.6842 391.632 31.7891 392.127 32.9541C392.381 33.5501 392.427 34.1474 392.472 34.7251C392.519 35.322 392.559 35.8376 392.814 36.2888C394.433 39.1486 399.158 39.26 401.996 38.4261C406.231 37.1816 409.846 33.9253 411.206 30.1302C411.985 27.9554 412.383 24.5366 410.944 22.0598C409.957 20.362 407.912 17.6001 405.299 18.1762L405.298 18.1765C404.934 18.2575 404.576 18.0069 404.5 17.6187C404.461 17.419 404.504 17.2214 404.605 17.0652C404.668 16.3763 404.337 13.7098 404.225 13.25C402.82 7.84758 397.298 5.0266 392.599 4.18906C387.255 3.23698 381.455 5.64712 377.828 10.3305C377.371 10.9218 376.948 11.5503 376.572 12.1978C375.356 14.2905 374.657 16.5885 374.552 18.8428C374.452 20.9669 375.033 22.5409 375.706 24.3634C375.845 24.741 375.987 25.1274 376.128 25.53C376.204 25.7185 376.27 25.9127 376.325 26.1121C376.428 26.4858 376.232 26.8788 375.884 26.9975C375.537 27.117 375.162 26.9188 375.041 26.5514C374.986 26.3854 374.93 26.2217 374.874 26.0596C374.472 25.0926 373.682 24.3372 372.517 23.8105C369.867 22.6111 366.016 22.9607 364.085 24.0402C360.678 25.943 357.978 30.0294 357.665 33.7565C357.543 35.2041 358.03 35.9904 358.704 37.0779C358.975 37.514 359.254 37.9655 359.518 38.5011C359.519 38.5021 359.519 38.5031 359.52 38.5041C359.693 38.8556 359.566 39.29 359.236 39.4739C358.995 39.6081 358.713 39.5725 358.511 39.4066C357.977 39.4022 356.328 40.0137 355.981 40.2268C352.254 42.5188 349.469 47.1124 349.361 51.149C349.285 53.9793 350.493 56.3491 352.854 58.0022C355.019 59.5171 357.6 60.3595 360.124 60.374C361.217 60.3803 362.286 60.1624 363.416 59.9319C364.943 59.6204 366.52 59.2995 368.169 59.571C370.66 59.9825 372.965 61.0593 375.194 62.1005C377.309 63.0891 379.496 64.1108 381.788 64.5194C383.14 64.7611 387.778 65.3473 390.626 62.7501C394.64 59.088 395.446 52.3795 392.387 48.1001C390.342 45.2409 387.082 43.2269 383.663 42.7118C381.085 42.3228 378.536 42.9419 376.85 44.3662C374.765 46.1273 374.313 49.2471 375.843 51.3206C376.317 51.9645 376.95 52.4559 377.624 52.7039C378.991 53.2066 380.632 52.7784 381.95 52.4342C382.308 52.34 382.676 52.575 382.766 52.9609C382.855 53.3463 382.633 53.7356 382.271 53.8301C380.781 54.2192 378.926 54.7034 377.184 54.0625C376.254 53.72 375.424 53.0789 374.782 52.208C372.795 49.5143 373.347 45.4916 376.011 43.2405C377.981 41.5763 380.911 40.8453 383.852 41.2891C387.614 41.856 391.206 44.0773 393.461 47.2305C395.965 50.7338 396.254 55.4912 394.573 59.4659C397.555 58.6786 401.289 60.3031 403.008 62.247C405.798 65.4016 408.901 68.4976 413.425 68.6882C413.467 68.6903 413.509 68.6916 413.55 68.6926C416.685 68.7697 419.289 66.7515 421.807 64.7993C422.05 64.611 422.292 64.4239 422.533 64.2389C424.23 62.9387 427.88 60.9719 430.8 61.8509C432.11 62.2455 433.094 63.1976 433.647 64.6038C433.791 64.9701 433.629 65.3908 433.285 65.5437C432.941 65.6973 432.546 65.5242 432.402 65.158C432.003 64.1418 431.359 63.5123 430.433 63.2336C429.174 62.8551 427.495 63.1971 425.921 63.8829C425.922 63.9365 425.919 63.991 425.908 64.0456C425.735 64.9113 427.55 66.4001 428.859 66.9812C430.359 67.6476 432.258 67.8926 434.207 67.672C436.813 67.376 439.701 65.9533 440.215 62.8687C439.982 62.7646 439.75 62.6545 439.524 62.5321C437.375 61.3702 435.771 59.4356 435.123 57.2237C434.562 55.3107 434.753 53.3438 435.673 51.5352C436.445 50.0187 437.756 49.0708 439.272 48.9346C440.674 48.8094 442.021 49.384 442.796 50.4347C443.026 50.7468 442.975 51.1986 442.682 51.4437C442.389 51.6887 441.965 51.6345 441.734 51.322C441.244 50.6576 440.321 50.2799 439.386 50.3668C438.766 50.4223 437.614 50.7375 436.859 52.2208C436.116 53.6801 435.961 55.2622 436.41 56.7963C436.95 58.6397 438.307 60.2634 440.133 61.2503C442.868 62.729 446.243 62.6877 449.393 61.136C451.234 60.2291 452.688 58.666 454.226 57.0117C455.184 55.9807 456.175 54.9148 457.265 54.0312C458.403 53.108 460.159 51.8777 462.266 51.8517C464.322 51.819 465.869 52.9917 467.369 54.1188C468.794 55.1894 470.138 56.2009 471.814 56.1016C472.244 56.0775 472.674 55.9776 473.12 55.8595Z"/>
</mask>
<path d="M473.12 55.8595C471.355 55.0264 470.401 53.7591 469.794 52.7597C469.381 52.0777 469.111 51.3486 468.849 50.643C468.364 49.333 467.944 48.2012 466.73 47.648C464.49 46.6256 461.542 47.4188 459.591 47.9441C456.444 48.7903 453.907 48.2962 452.351 46.5632C452.103 46.8794 451.847 47.1863 451.591 47.4886C450.613 48.647 449.69 49.7412 449.514 51.2117C449.487 51.4323 449.545 51.6588 449.65 51.7378C449.953 51.9685 450.023 52.4168 449.807 52.7399C449.672 52.941 449.458 53.0459 449.242 53.0406C449.111 53.0374 448.98 52.9938 448.866 52.9067C448.348 52.5138 448.084 51.7943 448.175 51.0293C448.404 49.1131 449.514 47.7986 450.588 46.5269C451.396 45.5694 452.16 44.6646 452.515 43.5511C453.023 41.9611 452.671 40.1509 451.549 38.5845C449.412 35.6015 444.854 33.7708 441.473 35.7989C440.732 36.2434 439.714 37.0543 439.174 37.9225C437.956 40.5705 435.852 41.993 433.076 42.0339C432.837 42.0368 432.572 41.9996 432.316 41.963C432.05 41.9248 431.558 41.8541 431.413 41.9264C431.417 41.9342 431.406 41.9811 431.405 42.0727C431.402 42.5775 431.427 43.0893 431.451 43.5843C431.533 45.2579 431.618 46.9881 430.642 48.6872C428.025 53.2391 422.605 54.9442 418.759 55.0212C418.573 55.025 418.385 55.0245 418.195 55.0198C413.505 54.9049 407.759 52.2337 405.411 47.1378C405.247 46.7818 405.385 46.3511 405.72 46.1764C406.053 46.0024 406.458 46.1488 406.623 46.5054C408.817 51.2675 414.374 53.6673 418.733 53.5844C422.239 53.5143 427.16 51.9929 429.491 47.9365C430.249 46.6177 430.182 45.2466 430.104 43.6587C430.079 43.1431 430.053 42.61 430.056 42.0631C430.059 41.5377 430.217 41.127 430.526 40.8416C431.073 40.335 431.863 40.4477 432.496 40.5391C432.712 40.57 432.917 40.5972 433.057 40.597C435.257 40.5644 436.87 39.5021 437.871 37.4621C437.886 37.4123 437.906 37.3629 437.932 37.3157C437.957 37.2715 437.985 37.2288 438.011 37.1853C438.016 37.1753 438.021 37.167 438.026 37.1567C439.836 33.0282 438.735 26.7322 436.542 23.8614C434.523 21.2177 430.19 19.1329 426.961 20.2459C425.753 20.6614 424.795 19.7801 424.027 19.0714C423.799 18.8614 423.584 18.6628 423.383 18.5144C421.935 17.4435 419.649 17.0892 417.563 17.6116C415.988 18.0057 413.81 19.0589 412.37 21.8321C413.668 24.5234 413.379 27.8274 412.599 30.248C412.608 30.3115 412.612 30.3763 412.604 30.4431C412.251 33.429 414.551 36.9481 417.526 37.9747C420.505 39.002 424.7 37.9721 425.958 34.8505C426.441 33.6523 426.448 32.3722 425.977 31.1479C425.356 29.5304 423.968 28.1208 422.266 27.3768C421.408 27.0024 419.685 26.5973 418.71 27.1052C418.401 27.2667 418.215 27.5019 418.126 27.846C418.048 28.1462 418.08 28.4201 418.224 28.6843C418.493 29.1742 419.137 29.6171 419.867 29.8129C420.228 29.9097 420.448 30.3004 420.357 30.6851C420.266 31.0695 419.899 31.304 419.538 31.2066C418.691 30.9793 417.594 30.3876 417.058 29.4071C416.731 28.808 416.65 28.1354 416.825 27.4624C417.017 26.7251 417.463 26.1558 418.115 25.8148C419.604 25.038 421.815 25.6272 422.777 26.0472C424.807 26.934 426.471 28.6377 427.226 30.6043C427.836 32.1935 427.826 33.8577 427.198 35.4178C425.986 38.426 422.77 39.8731 419.706 39.7978C418.809 39.7758 417.926 39.6234 417.109 39.3416C414.331 38.3832 412.11 35.6895 411.435 32.8202C409.523 36.0591 406.166 38.6919 402.356 39.8117C399.33 40.7 393.753 40.731 391.659 37.0307C391.24 36.2916 391.18 35.5222 391.127 34.8436C391.09 34.3664 391.054 33.9156 390.898 33.546C390.721 33.1304 390.595 33.1017 389.958 33.0184C389.826 33.001 389.688 32.9831 389.542 32.9586C387.536 32.6228 385.955 31.2579 385.202 29.2136C384.342 26.8769 384.724 24.1006 386.176 22.1408C387.708 20.0724 390.295 18.9696 393.095 19.1933C395.802 19.4087 398.125 20.8523 399.308 23.0555C399.493 23.3998 399.381 23.839 399.058 24.0354C398.735 24.2319 398.322 24.113 398.137 23.768C397.177 21.9802 395.255 20.8054 392.995 20.6259C390.675 20.4433 388.47 21.3632 387.236 23.0307C386.075 24.5976 385.769 26.8187 386.458 28.6894C387.04 30.2688 388.209 31.2809 389.75 31.5387C389.88 31.5605 390.004 31.5766 390.121 31.592C390.829 31.6842 391.632 31.7891 392.127 32.9541C392.381 33.5501 392.427 34.1474 392.472 34.7251C392.519 35.322 392.559 35.8376 392.814 36.2888C394.433 39.1486 399.158 39.26 401.996 38.4261C406.231 37.1816 409.846 33.9253 411.206 30.1302C411.985 27.9554 412.383 24.5366 410.944 22.0598C409.957 20.362 407.912 17.6001 405.299 18.1762L405.298 18.1765C404.934 18.2575 404.576 18.0069 404.5 17.6187C404.461 17.419 404.504 17.2214 404.605 17.0652C404.668 16.3763 404.337 13.7098 404.225 13.25C402.82 7.84758 397.298 5.0266 392.599 4.18906C387.255 3.23698 381.455 5.64712 377.828 10.3305C377.371 10.9218 376.948 11.5503 376.572 12.1978C375.356 14.2905 374.657 16.5885 374.552 18.8428C374.452 20.9669 375.033 22.5409 375.706 24.3634C375.845 24.741 375.987 25.1274 376.128 25.53C376.204 25.7185 376.27 25.9127 376.325 26.1121C376.428 26.4858 376.232 26.8788 375.884 26.9975C375.537 27.117 375.162 26.9188 375.041 26.5514C374.986 26.3854 374.93 26.2217 374.874 26.0596C374.472 25.0926 373.682 24.3372 372.517 23.8105C369.867 22.6111 366.016 22.9607 364.085 24.0402C360.678 25.943 357.978 30.0294 357.665 33.7565C357.543 35.2041 358.03 35.9904 358.704 37.0779C358.975 37.514 359.254 37.9655 359.518 38.5011C359.519 38.5021 359.519 38.5031 359.52 38.5041C359.693 38.8556 359.566 39.29 359.236 39.4739C358.995 39.6081 358.713 39.5725 358.511 39.4066C357.977 39.4022 356.328 40.0137 355.981 40.2268C352.254 42.5188 349.469 47.1124 349.361 51.149C349.285 53.9793 350.493 56.3491 352.854 58.0022C355.019 59.5171 357.6 60.3595 360.124 60.374C361.217 60.3803 362.286 60.1624 363.416 59.9319C364.943 59.6204 366.52 59.2995 368.169 59.571C370.66 59.9825 372.965 61.0593 375.194 62.1005C377.309 63.0891 379.496 64.1108 381.788 64.5194C383.14 64.7611 387.778 65.3473 390.626 62.7501C394.64 59.088 395.446 52.3795 392.387 48.1001C390.342 45.2409 387.082 43.2269 383.663 42.7118C381.085 42.3228 378.536 42.9419 376.85 44.3662C374.765 46.1273 374.313 49.2471 375.843 51.3206C376.317 51.9645 376.95 52.4559 377.624 52.7039C378.991 53.2066 380.632 52.7784 381.95 52.4342C382.308 52.34 382.676 52.575 382.766 52.9609C382.855 53.3463 382.633 53.7356 382.271 53.8301C380.781 54.2192 378.926 54.7034 377.184 54.0625C376.254 53.72 375.424 53.0789 374.782 52.208C372.795 49.5143 373.347 45.4916 376.011 43.2405C377.981 41.5763 380.911 40.8453 383.852 41.2891C387.614 41.856 391.206 44.0773 393.461 47.2305C395.965 50.7338 396.254 55.4912 394.573 59.4659C397.555 58.6786 401.289 60.3031 403.008 62.247C405.798 65.4016 408.901 68.4976 413.425 68.6882C413.467 68.6903 413.509 68.6916 413.55 68.6926C416.685 68.7697 419.289 66.7515 421.807 64.7993C422.05 64.611 422.292 64.4239 422.533 64.2389C424.23 62.9387 427.88 60.9719 430.8 61.8509C432.11 62.2455 433.094 63.1976 433.647 64.6038C433.791 64.9701 433.629 65.3908 433.285 65.5437C432.941 65.6973 432.546 65.5242 432.402 65.158C432.003 64.1418 431.359 63.5123 430.433 63.2336C429.174 62.8551 427.495 63.1971 425.921 63.8829C425.922 63.9365 425.919 63.991 425.908 64.0456C425.735 64.9113 427.55 66.4001 428.859 66.9812C430.359 67.6476 432.258 67.8926 434.207 67.672C436.813 67.376 439.701 65.9533 440.215 62.8687C439.982 62.7646 439.75 62.6545 439.524 62.5321C437.375 61.3702 435.771 59.4356 435.123 57.2237C434.562 55.3107 434.753 53.3438 435.673 51.5352C436.445 50.0187 437.756 49.0708 439.272 48.9346C440.674 48.8094 442.021 49.384 442.796 50.4347C443.026 50.7468 442.975 51.1986 442.682 51.4437C442.389 51.6887 441.965 51.6345 441.734 51.322C441.244 50.6576 440.321 50.2799 439.386 50.3668C438.766 50.4223 437.614 50.7375 436.859 52.2208C436.116 53.6801 435.961 55.2622 436.41 56.7963C436.95 58.6397 438.307 60.2634 440.133 61.2503C442.868 62.729 446.243 62.6877 449.393 61.136C451.234 60.2291 452.688 58.666 454.226 57.0117C455.184 55.9807 456.175 54.9148 457.265 54.0312C458.403 53.108 460.159 51.8777 462.266 51.8517C464.322 51.819 465.869 52.9917 467.369 54.1188C468.794 55.1894 470.138 56.2009 471.814 56.1016C472.244 56.0775 472.674 55.9776 473.12 55.8595Z" fill="white"/>
<path d="M473.12 55.8595C471.355 55.0264 470.401 53.7591 469.794 52.7597C469.381 52.0777 469.111 51.3486 468.849 50.643C468.364 49.333 467.944 48.2012 466.73 47.648C464.49 46.6256 461.542 47.4188 459.591 47.9441C456.444 48.7903 453.907 48.2962 452.351 46.5632C452.103 46.8794 451.847 47.1863 451.591 47.4886C450.613 48.647 449.69 49.7412 449.514 51.2117C449.487 51.4323 449.545 51.6588 449.65 51.7378C449.953 51.9685 450.023 52.4168 449.807 52.7399C449.672 52.941 449.458 53.0459 449.242 53.0406C449.111 53.0374 448.98 52.9938 448.866 52.9067C448.348 52.5138 448.084 51.7943 448.175 51.0293C448.404 49.1131 449.514 47.7986 450.588 46.5269C451.396 45.5694 452.16 44.6646 452.515 43.5511C453.023 41.9611 452.671 40.1509 451.549 38.5845C449.412 35.6015 444.854 33.7708 441.473 35.7989C440.732 36.2434 439.714 37.0543 439.174 37.9225C437.956 40.5705 435.852 41.993 433.076 42.0339C432.837 42.0368 432.572 41.9996 432.316 41.963C432.05 41.9248 431.558 41.8541 431.413 41.9264C431.417 41.9342 431.406 41.9811 431.405 42.0727C431.402 42.5775 431.427 43.0893 431.451 43.5843C431.533 45.2579 431.618 46.9881 430.642 48.6872C428.025 53.2391 422.605 54.9442 418.759 55.0212C418.573 55.025 418.385 55.0245 418.195 55.0198C413.505 54.9049 407.759 52.2337 405.411 47.1378C405.247 46.7818 405.385 46.3511 405.72 46.1764C406.053 46.0024 406.458 46.1488 406.623 46.5054C408.817 51.2675 414.374 53.6673 418.733 53.5844C422.239 53.5143 427.16 51.9929 429.491 47.9365C430.249 46.6177 430.182 45.2466 430.104 43.6587C430.079 43.1431 430.053 42.61 430.056 42.0631C430.059 41.5377 430.217 41.127 430.526 40.8416C431.073 40.335 431.863 40.4477 432.496 40.5391C432.712 40.57 432.917 40.5972 433.057 40.597C435.257 40.5644 436.87 39.5021 437.871 37.4621C437.886 37.4123 437.906 37.3629 437.932 37.3157C437.957 37.2715 437.985 37.2288 438.011 37.1853C438.016 37.1753 438.021 37.167 438.026 37.1567C439.836 33.0282 438.735 26.7322 436.542 23.8614C434.523 21.2177 430.19 19.1329 426.961 20.2459C425.753 20.6614 424.795 19.7801 424.027 19.0714C423.799 18.8614 423.584 18.6628 423.383 18.5144C421.935 17.4435 419.649 17.0892 417.563 17.6116C415.988 18.0057 413.81 19.0589 412.37 21.8321C413.668 24.5234 413.379 27.8274 412.599 30.248C412.608 30.3115 412.612 30.3763 412.604 30.4431C412.251 33.429 414.551 36.9481 417.526 37.9747C420.505 39.002 424.7 37.9721 425.958 34.8505C426.441 33.6523 426.448 32.3722 425.977 31.1479C425.356 29.5304 423.968 28.1208 422.266 27.3768C421.408 27.0024 419.685 26.5973 418.71 27.1052C418.401 27.2667 418.215 27.5019 418.126 27.846C418.048 28.1462 418.08 28.4201 418.224 28.6843C418.493 29.1742 419.137 29.6171 419.867 29.8129C420.228 29.9097 420.448 30.3004 420.357 30.6851C420.266 31.0695 419.899 31.304 419.538 31.2066C418.691 30.9793 417.594 30.3876 417.058 29.4071C416.731 28.808 416.65 28.1354 416.825 27.4624C417.017 26.7251 417.463 26.1558 418.115 25.8148C419.604 25.038 421.815 25.6272 422.777 26.0472C424.807 26.934 426.471 28.6377 427.226 30.6043C427.836 32.1935 427.826 33.8577 427.198 35.4178C425.986 38.426 422.77 39.8731 419.706 39.7978C418.809 39.7758 417.926 39.6234 417.109 39.3416C414.331 38.3832 412.11 35.6895 411.435 32.8202C409.523 36.0591 406.166 38.6919 402.356 39.8117C399.33 40.7 393.753 40.731 391.659 37.0307C391.24 36.2916 391.18 35.5222 391.127 34.8436C391.09 34.3664 391.054 33.9156 390.898 33.546C390.721 33.1304 390.595 33.1017 389.958 33.0184C389.826 33.001 389.688 32.9831 389.542 32.9586C387.536 32.6228 385.955 31.2579 385.202 29.2136C384.342 26.8769 384.724 24.1006 386.176 22.1408C387.708 20.0724 390.295 18.9696 393.095 19.1933C395.802 19.4087 398.125 20.8523 399.308 23.0555C399.493 23.3998 399.381 23.839 399.058 24.0354C398.735 24.2319 398.322 24.113 398.137 23.768C397.177 21.9802 395.255 20.8054 392.995 20.6259C390.675 20.4433 388.47 21.3632 387.236 23.0307C386.075 24.5976 385.769 26.8187 386.458 28.6894C387.04 30.2688 388.209 31.2809 389.75 31.5387C389.88 31.5605 390.004 31.5766 390.121 31.592C390.829 31.6842 391.632 31.7891 392.127 32.9541C392.381 33.5501 392.427 34.1474 392.472 34.7251C392.519 35.322 392.559 35.8376 392.814 36.2888C394.433 39.1486 399.158 39.26 401.996 38.4261C406.231 37.1816 409.846 33.9253 411.206 30.1302C411.985 27.9554 412.383 24.5366 410.944 22.0598C409.957 20.362 407.912 17.6001 405.299 18.1762L405.298 18.1765C404.934 18.2575 404.576 18.0069 404.5 17.6187C404.461 17.419 404.504 17.2214 404.605 17.0652C404.668 16.3763 404.337 13.7098 404.225 13.25C402.82 7.84758 397.298 5.0266 392.599 4.18906C387.255 3.23698 381.455 5.64712 377.828 10.3305C377.371 10.9218 376.948 11.5503 376.572 12.1978C375.356 14.2905 374.657 16.5885 374.552 18.8428C374.452 20.9669 375.033 22.5409 375.706 24.3634C375.845 24.741 375.987 25.1274 376.128 25.53C376.204 25.7185 376.27 25.9127 376.325 26.1121C376.428 26.4858 376.232 26.8788 375.884 26.9975C375.537 27.117 375.162 26.9188 375.041 26.5514C374.986 26.3854 374.93 26.2217 374.874 26.0596C374.472 25.0926 373.682 24.3372 372.517 23.8105C369.867 22.6111 366.016 22.9607 364.085 24.0402C360.678 25.943 357.978 30.0294 357.665 33.7565C357.543 35.2041 358.03 35.9904 358.704 37.0779C358.975 37.514 359.254 37.9655 359.518 38.5011C359.519 38.5021 359.519 38.5031 359.52 38.5041C359.693 38.8556 359.566 39.29 359.236 39.4739C358.995 39.6081 358.713 39.5725 358.511 39.4066C357.977 39.4022 356.328 40.0137 355.981 40.2268C352.254 42.5188 349.469 47.1124 349.361 51.149C349.285 53.9793 350.493 56.3491 352.854 58.0022C355.019 59.5171 357.6 60.3595 360.124 60.374C361.217 60.3803 362.286 60.1624 363.416 59.9319C364.943 59.6204 366.52 59.2995 368.169 59.571C370.66 59.9825 372.965 61.0593 375.194 62.1005C377.309 63.0891 379.496 64.1108 381.788 64.5194C383.14 64.7611 387.778 65.3473 390.626 62.7501C394.64 59.088 395.446 52.3795 392.387 48.1001C390.342 45.2409 387.082 43.2269 383.663 42.7118C381.085 42.3228 378.536 42.9419 376.85 44.3662C374.765 46.1273 374.313 49.2471 375.843 51.3206C376.317 51.9645 376.95 52.4559 377.624 52.7039C378.991 53.2066 380.632 52.7784 381.95 52.4342C382.308 52.34 382.676 52.575 382.766 52.9609C382.855 53.3463 382.633 53.7356 382.271 53.8301C380.781 54.2192 378.926 54.7034 377.184 54.0625C376.254 53.72 375.424 53.0789 374.782 52.208C372.795 49.5143 373.347 45.4916 376.011 43.2405C377.981 41.5763 380.911 40.8453 383.852 41.2891C387.614 41.856 391.206 44.0773 393.461 47.2305C395.965 50.7338 396.254 55.4912 394.573 59.4659C397.555 58.6786 401.289 60.3031 403.008 62.247C405.798 65.4016 408.901 68.4976 413.425 68.6882C413.467 68.6903 413.509 68.6916 413.55 68.6926C416.685 68.7697 419.289 66.7515 421.807 64.7993C422.05 64.611 422.292 64.4239 422.533 64.2389C424.23 62.9387 427.88 60.9719 430.8 61.8509C432.11 62.2455 433.094 63.1976 433.647 64.6038C433.791 64.9701 433.629 65.3908 433.285 65.5437C432.941 65.6973 432.546 65.5242 432.402 65.158C432.003 64.1418 431.359 63.5123 430.433 63.2336C429.174 62.8551 427.495 63.1971 425.921 63.8829C425.922 63.9365 425.919 63.991 425.908 64.0456C425.735 64.9113 427.55 66.4001 428.859 66.9812C430.359 67.6476 432.258 67.8926 434.207 67.672C436.813 67.376 439.701 65.9533 440.215 62.8687C439.982 62.7646 439.75 62.6545 439.524 62.5321C437.375 61.3702 435.771 59.4356 435.123 57.2237C434.562 55.3107 434.753 53.3438 435.673 51.5352C436.445 50.0187 437.756 49.0708 439.272 48.9346C440.674 48.8094 442.021 49.384 442.796 50.4347C443.026 50.7468 442.975 51.1986 442.682 51.4437C442.389 51.6887 441.965 51.6345 441.734 51.322C441.244 50.6576 440.321 50.2799 439.386 50.3668C438.766 50.4223 437.614 50.7375 436.859 52.2208C436.116 53.6801 435.961 55.2622 436.41 56.7963C436.95 58.6397 438.307 60.2634 440.133 61.2503C442.868 62.729 446.243 62.6877 449.393 61.136C451.234 60.2291 452.688 58.666 454.226 57.0117C455.184 55.9807 456.175 54.9148 457.265 54.0312C458.403 53.108 460.159 51.8777 462.266 51.8517C464.322 51.819 465.869 52.9917 467.369 54.1188C468.794 55.1894 470.138 56.2009 471.814 56.1016C472.244 56.0775 472.674 55.9776 473.12 55.8595Z" stroke="#ECE1D6" stroke-width="6" mask="url(#path-5-outside-1_0_1)"/>
</svg>
