<svg width="217" height="53" viewBox="0 0 217 53" fill="none" xmlns="http://www.w3.org/2000/svg">
<path d="M13.2451 12.8623L11.6327 14.5082L17.152 20.1418L18.7644 18.496L13.2451 12.8623Z" fill="#E2C89F"/>
<path d="M8.29016 10.6556C8.47945 11.1327 8.76548 11.5817 9.1421 11.9656L9.40745 12.2365L11.02 10.5905L10.7546 10.3197C10.5966 10.1584 10.4814 9.97595 10.4036 9.78073C10.3268 9.58726 10.2877 9.38048 10.287 9.17294V9.17244L10.2867 9.16666C10.2867 9.1639 10.2872 9.16088 10.2872 9.15812C10.2882 8.95108 10.3271 8.7448 10.4039 8.55209C10.4817 8.35687 10.5969 8.17471 10.7549 8.01315C10.9129 7.85184 11.0914 7.73426 11.2829 7.65486C11.4744 7.57546 11.6792 7.53551 11.885 7.53551C12.0905 7.53551 12.2953 7.57572 12.4868 7.65486C12.6781 7.73426 12.8566 7.85184 13.0148 8.01315L13.342 8.34707L17.1524 12.2365L18.765 10.5905L14.9545 6.7011L14.6397 6.37974L14.6274 6.36718C14.2513 5.98301 13.8114 5.69106 13.3439 5.49759C12.876 5.30387 12.3805 5.20764 11.885 5.20764C11.3897 5.20764 10.894 5.30387 10.426 5.49759C9.95859 5.6908 9.51871 5.98276 9.14259 6.36718C8.76622 6.7511 8.48019 7.20009 8.2909 7.67722C8.10112 8.15486 8.00684 8.66063 8.00684 9.16641C8.00635 9.67193 8.10062 10.178 8.29016 10.6556Z" fill="#E2C89F"/>
<path d="M19.1618 14.0718L19.224 14.0082C19.405 13.8235 19.5765 13.6487 19.7336 13.4891C20.0829 13.1343 20.3696 12.8459 20.5695 12.6492C20.6375 12.5821 20.6951 12.5265 20.7399 12.4836L20.7507 12.4733L20.7642 12.4673L20.7938 12.4539L21.272 11.966C21.6484 11.5818 21.9344 11.1331 22.124 10.656C22.3138 10.1783 22.408 9.6723 22.408 9.16677C22.408 8.66125 22.3138 8.15522 22.124 7.67759C21.9347 7.20046 21.6486 6.75146 21.272 6.36755C20.8957 5.98313 20.456 5.69142 19.9883 5.49796C19.5204 5.30424 19.0247 5.20801 18.5294 5.20801C18.0341 5.20801 17.5384 5.30424 17.0704 5.49796C16.603 5.69117 16.1631 5.98313 15.787 6.36755L15.5216 6.6384L17.1342 8.28437L17.3995 8.01352C17.5576 7.85221 17.736 7.73462 17.9275 7.65523C18.1188 7.57583 18.3239 7.53588 18.5294 7.53588C18.7349 7.53588 18.94 7.57608 19.1312 7.65523C19.3225 7.73462 19.501 7.85221 19.6592 8.01352C19.8173 8.17482 19.9325 8.35698 20.0103 8.55246C20.088 8.74793 20.1272 8.95723 20.1272 9.16677C20.1272 9.37632 20.088 9.58562 20.0103 9.78109C19.9325 9.97632 19.817 10.1585 19.6592 10.32L19.388 10.5969L19.3848 10.5997C19.3496 10.6291 19.3215 10.6539 19.292 10.6806L19.2922 10.6803C19.227 10.7401 19.1549 10.809 19.066 10.8957C18.9119 11.0462 18.7118 11.2459 18.4698 11.4899C17.7572 12.209 16.6827 13.3122 15.4727 14.5574L17.0919 16.1966L17.1187 16.169L17.1303 16.1808C17.4308 15.873 17.9253 15.3599 18.362 14.9059C18.7209 14.5328 19.0352 14.2052 19.162 14.073L19.1618 14.0718Z" fill="#E2C89F"/>
<path d="M21.2719 21.0074L21.0066 20.7366L19.394 22.3825L19.6594 22.6534C19.8174 22.8147 19.9326 22.9969 20.0104 23.1923C20.0882 23.3878 20.1273 23.5969 20.1273 23.8067C20.1273 24.0165 20.0882 24.2257 20.0104 24.421C19.9326 24.6162 19.8172 24.7984 19.6594 24.9599C19.5013 25.1212 19.3229 25.2388 19.1314 25.3182C18.9399 25.3973 18.7351 25.4375 18.5295 25.4375C18.324 25.4375 18.1189 25.3973 17.9274 25.3182C17.7362 25.2388 17.5577 25.1212 17.3994 24.9599L17.0723 24.626L13.2618 20.7366L11.6493 22.3825L15.4597 26.272L15.7869 26.6059C16.163 26.99 16.6029 27.282 17.0703 27.4755C17.5383 27.6692 18.0338 27.7654 18.5293 27.7654C19.0245 27.7654 19.5203 27.6692 19.9882 27.4755C20.4557 27.2823 20.8956 26.9903 21.2719 26.6059C21.6485 26.2217 21.9343 25.773 22.1239 25.2956C22.3136 24.818 22.4079 24.3119 22.4079 23.8064C22.4079 23.3009 22.3136 22.7948 22.1239 22.3172C21.9343 21.8403 21.6485 21.3913 21.2719 21.0074Z" fill="#E2C89F"/>
<path d="M20.8016 17.0109L15.51 22.4122L17.1225 24.0581L22.4141 18.6568L20.8016 17.0109Z" fill="#E2C89F"/>
<path d="M14.9414 18.416L13.3222 16.7769L13.2953 16.8045L13.2838 16.7927C12.9832 17.1007 12.4887 17.6135 12.052 18.0676C11.6911 18.4429 11.3753 18.7718 11.25 18.9025L11.2508 18.9032L11.1905 18.965C11.0095 19.1497 10.838 19.3246 10.6809 19.4841C10.3316 19.8389 10.0449 20.1273 9.84499 20.3241C9.77681 20.3912 9.71945 20.4467 9.67465 20.4896L9.66382 20.4999L9.65028 20.506L9.62074 20.5193L9.14247 21.0075C8.7661 21.3914 8.48007 21.8404 8.29053 22.3178C8.10075 22.7954 8.00647 23.3012 8.00647 23.807C8.00647 24.3125 8.10075 24.8185 8.29053 25.2961C8.47982 25.7733 8.76585 26.2223 9.14247 26.6064C9.51859 26.9906 9.95847 27.2826 10.4262 27.476C10.8941 27.6697 11.3896 27.766 11.8851 27.766C12.3804 27.766 12.8761 27.6697 13.3441 27.476C13.8115 27.2828 14.2514 26.9909 14.6275 26.6064L14.8929 26.3356L13.2803 24.6896L13.015 24.9605C12.8569 25.1218 12.6782 25.2396 12.487 25.319C12.2954 25.3982 12.0906 25.4384 11.8851 25.4384C11.6796 25.4384 11.4745 25.3982 11.283 25.319C11.0918 25.2396 10.9133 25.122 10.755 24.9607C10.597 24.7994 10.4818 24.617 10.404 24.4218C10.3272 24.2283 10.2881 24.0215 10.2873 23.8137V23.8132L10.2871 23.8075C10.2871 23.8047 10.2876 23.8017 10.2876 23.7989C10.2886 23.5919 10.3275 23.3859 10.4043 23.1929C10.482 22.9977 10.5972 22.8155 10.7553 22.654L11.0263 22.3771L11.0297 22.3743C11.0649 22.3449 11.093 22.32 11.1225 22.2934L11.1223 22.2937C11.1875 22.2339 11.2596 22.165 11.3485 22.0783C11.5026 21.9278 11.7027 21.7281 11.9447 21.4841C12.6568 20.7645 13.7313 19.6613 14.9414 18.416Z" fill="#E2C89F"/>
<path d="M30.1309 15.2322C29.9414 14.755 29.6556 14.306 29.279 13.9221C28.9028 13.5379 28.463 13.246 27.9955 13.0525C27.5276 12.8588 27.0318 12.7626 26.5366 12.7626C26.0413 12.7626 25.5456 12.8588 25.0776 13.0525C24.6102 13.2457 24.1703 13.5377 23.7942 13.9221L23.467 14.256L22.9767 14.7565L24.5892 16.4025L25.0796 15.902L25.4067 15.5681C25.5648 15.4068 25.7432 15.2892 25.9347 15.2098C26.1262 15.1306 26.331 15.0904 26.5366 15.0904C26.7421 15.0904 26.9469 15.1306 27.1384 15.2098C27.3297 15.2892 27.5081 15.4068 27.6664 15.5681C27.7454 15.6487 27.8136 15.7347 27.872 15.8249C27.9303 15.9151 27.9785 16.0093 28.0174 16.107L28.0066 16.0796L28.0177 16.1073C28.0915 16.293 28.1294 16.4912 28.1331 16.6904L28.1346 16.6924V16.7218C28.1346 16.9316 28.0952 17.1409 28.0177 17.3364C27.9399 17.5316 27.8247 17.7138 27.6667 17.8754C27.5086 18.0367 27.3299 18.1542 27.1387 18.2336C26.9472 18.3128 26.7424 18.353 26.5368 18.353C26.3313 18.353 26.1262 18.3128 25.9347 18.2336C25.7435 18.1542 25.565 18.0367 25.4067 17.8754L25.1345 17.5975L25.132 17.5942L25.1202 17.5799C25.0845 17.5367 25.054 17.5022 25.0171 17.461C24.9491 17.3857 24.8649 17.2952 24.7606 17.1849C24.3972 16.801 23.7932 16.1799 23.0695 15.4417C22.3648 14.7226 21.549 13.895 20.7448 13.0809L19.1389 14.7337C20.1792 15.7869 21.2389 16.8625 22.0467 17.6907C22.4585 18.1128 22.8054 18.4711 23.0476 18.7256C23.1483 18.8314 23.2297 18.9183 23.2886 18.9821L23.2989 18.9932L23.3051 19.0073L23.3164 19.0331L23.7947 19.5211C24.1708 19.9052 24.6107 20.1972 25.0784 20.3907C25.5463 20.5844 26.0418 20.6806 26.5373 20.6806C27.0326 20.6806 27.5283 20.5841 27.9963 20.3907C28.4625 20.198 28.9011 19.9067 29.2765 19.5241L29.4291 19.3196V19.3545C29.6873 19.0593 29.899 18.7339 30.0561 18.3887C30.0827 18.3299 30.108 18.2708 30.1316 18.211C30.3214 17.7334 30.4157 17.2274 30.4157 16.7218C30.415 16.2156 30.3207 15.7095 30.1309 15.2322Z" fill="#E2C89F"/>
<path d="M5.0075 17.4054C4.84922 17.5667 4.67076 17.6843 4.4795 17.7637C4.28799 17.8428 4.08319 17.883 3.87766 17.883C3.67212 17.883 3.46707 17.8428 3.27556 17.7637C3.0843 17.6843 2.90584 17.5667 2.74781 17.4054L2.74658 17.4041L2.7451 17.4024C2.71384 17.3702 2.68627 17.3378 2.66043 17.3069C2.5472 17.1712 2.45907 17.0237 2.39655 16.8662C2.31975 16.6727 2.28061 16.4659 2.27987 16.2581V16.2576L2.27963 16.2519C2.27963 16.0782 2.30794 15.9059 2.36086 15.7416C2.3712 15.7091 2.38227 15.674 2.39655 15.6373C2.41427 15.5926 2.43446 15.5494 2.45587 15.5071L2.46104 15.4956L2.46203 15.4936C2.53464 15.3524 2.62917 15.2197 2.74757 15.0986C2.9056 14.9373 3.08406 14.8197 3.27556 14.7403C3.46707 14.6612 3.67187 14.621 3.87766 14.621C4.08319 14.621 4.28799 14.6612 4.4795 14.7403C4.67076 14.8197 4.84922 14.9375 5.0075 15.0986L5.27999 15.3767L5.28245 15.38L5.29427 15.3943C5.32996 15.4375 5.36049 15.472 5.39765 15.5132C5.46559 15.5885 5.54978 15.679 5.65415 15.7893C6.01747 16.1732 6.62153 16.7943 7.34522 17.5325C8.04996 18.2516 8.86596 19.0792 9.66989 19.8933L11.2758 18.2405C10.2356 17.1873 9.17587 16.1117 8.36799 15.2835C7.95618 14.8614 7.60934 14.5031 7.36713 14.2486C7.26645 14.1426 7.18498 14.0559 7.12614 13.9918L7.11581 13.9808L7.10965 13.9667L7.09858 13.9408L6.62054 13.4526C6.24442 13.0685 5.80455 12.7765 5.3371 12.583C4.86916 12.3893 4.37341 12.2931 3.87815 12.2931C3.38289 12.2931 2.88713 12.3893 2.4192 12.583C1.95175 12.7763 1.51188 13.0682 1.13575 13.4526C1.07175 13.518 1.01095 13.5863 0.951137 13.6564C0.893291 13.7242 0.838153 13.7933 0.785722 13.8642C0.577722 14.1446 0.409107 14.4473 0.284061 14.7629C0.0942766 15.2406 0 15.7466 0 16.2521C0 16.7576 0.0942766 17.2637 0.284061 17.7413C0.420676 18.0855 0.608492 18.4149 0.843568 18.7162C0.859814 18.737 0.875814 18.7574 0.891814 18.777C0.945722 18.8435 1.00308 18.9086 1.0624 18.9727C1.08824 19.0006 1.11212 19.0275 1.136 19.0518C1.51212 19.436 1.952 19.728 2.41944 19.9214C2.88738 20.1151 3.38313 20.2114 3.8784 20.2114C4.37366 20.2114 4.86941 20.1151 5.33735 19.9214C5.80479 19.7282 6.24467 19.4363 6.62079 19.0518L6.94793 18.7179L7.43827 18.2174L5.82572 16.5715L5.33538 17.072L5.0075 17.4054Z" fill="#E2C89F"/>
<path d="M13.2904 8.91488L7.99878 14.3162L9.61123 15.962L14.9029 10.5607L13.2904 8.91488Z" fill="#E2C89F"/>
<path d="M16.5529 29.151C16.5529 29.9095 15.9503 30.5246 15.2072 30.5246C14.464 30.5246 13.8615 29.9095 13.8615 29.151C13.8615 28.3922 14.464 27.7773 15.2072 27.7773C15.9503 27.7773 16.5529 28.3922 16.5529 29.151Z" fill="#CDB28A"/>
<path d="M15.8938 31.9926C15.8938 32.3793 15.5864 32.693 15.2073 32.693C14.8282 32.693 14.5208 32.3793 14.5208 31.9926C14.5208 31.6058 14.8282 31.2921 15.2073 31.2921C15.5864 31.2921 15.8938 31.6058 15.8938 31.9926Z" fill="#CDB28A"/>
<path d="M15.2073 1.40089C15.5864 1.40089 15.8938 1.08729 15.8938 0.700446C15.8938 0.3136 15.5864 0 15.2073 0C14.8281 0 14.5208 0.3136 14.5208 0.700446C14.5208 1.08729 14.8281 1.40089 15.2073 1.40089Z" fill="#CDB28A"/>
<path d="M16.5529 3.82234C16.5529 4.58088 15.9503 5.19595 15.2072 5.19595C14.464 5.19595 13.8615 4.58088 13.8615 3.82234C13.8615 3.0638 14.464 2.44873 15.2072 2.44873C15.9503 2.44873 16.5529 3.0638 16.5529 3.82234Z" fill="#CDB28A"/>
<path d="M15.2072 33.6013C13.8839 33.6013 12.8112 34.6963 12.8112 36.047H17.6033C17.6033 34.6963 16.5305 33.6013 15.2072 33.6013Z" fill="#CDB28A"/>
<path d="M13.8309 36.9546H12.811V52.5673H13.8309V36.9546Z" fill="#CDB28A"/>
<path d="M15.7168 36.9546H14.697V52.5673H15.7168V36.9546Z" fill="#CDB28A"/>
<path d="M17.6031 36.9546H16.5833V52.5673H17.6031V36.9546Z" fill="#CDB28A"/>
<path d="M199.245 12.8623L197.633 14.5082L203.152 20.1418L204.764 18.496L199.245 12.8623Z" fill="#E2C89F"/>
<path d="M194.29 10.6556C194.479 11.1327 194.765 11.5817 195.142 11.9656L195.407 12.2365L197.02 10.5905L196.755 10.3197C196.597 10.1584 196.481 9.97595 196.404 9.78073C196.327 9.58726 196.288 9.38048 196.287 9.17294V9.17244L196.287 9.16666C196.287 9.1639 196.287 9.16088 196.287 9.15812C196.288 8.95108 196.327 8.7448 196.404 8.55209C196.482 8.35687 196.597 8.17471 196.755 8.01315C196.913 7.85184 197.091 7.73426 197.283 7.65486C197.474 7.57546 197.679 7.53551 197.885 7.53551C198.091 7.53551 198.295 7.57572 198.487 7.65486C198.678 7.73426 198.857 7.85184 199.015 8.01315L199.342 8.34707L203.152 12.2365L204.765 10.5905L200.955 6.7011L200.64 6.37974L200.627 6.36718C200.251 5.98301 199.811 5.69106 199.344 5.49759C198.876 5.30387 198.38 5.20764 197.885 5.20764C197.39 5.20764 196.894 5.30387 196.426 5.49759C195.959 5.6908 195.519 5.98276 195.143 6.36718C194.766 6.7511 194.48 7.20009 194.291 7.67722C194.101 8.15486 194.007 8.66063 194.007 9.16641C194.006 9.67193 194.101 10.178 194.29 10.6556Z" fill="#E2C89F"/>
<path d="M205.162 14.0718L205.224 14.0082C205.405 13.8235 205.577 13.6487 205.734 13.4891C206.083 13.1343 206.37 12.8459 206.57 12.6492C206.637 12.5821 206.695 12.5265 206.74 12.4836L206.751 12.4733L206.764 12.4673L206.794 12.4539L207.272 11.966C207.648 11.5818 207.934 11.1331 208.124 10.656C208.314 10.1783 208.408 9.6723 208.408 9.16677C208.408 8.66125 208.314 8.15522 208.124 7.67759C207.935 7.20046 207.649 6.75146 207.272 6.36755C206.896 5.98313 206.456 5.69142 205.988 5.49796C205.52 5.30424 205.025 5.20801 204.529 5.20801C204.034 5.20801 203.538 5.30424 203.07 5.49796C202.603 5.69117 202.163 5.98313 201.787 6.36755L201.522 6.6384L203.134 8.28437L203.4 8.01352C203.558 7.85221 203.736 7.73462 203.928 7.65523C204.119 7.57583 204.324 7.53588 204.529 7.53588C204.735 7.53588 204.94 7.57608 205.131 7.65523C205.322 7.73462 205.501 7.85221 205.659 8.01352C205.817 8.17482 205.932 8.35698 206.01 8.55246C206.088 8.74793 206.127 8.95723 206.127 9.16677C206.127 9.37632 206.088 9.58562 206.01 9.78109C205.932 9.97632 205.817 10.1585 205.659 10.32L205.388 10.5969L205.385 10.5997C205.35 10.6291 205.322 10.6539 205.292 10.6806L205.292 10.6803C205.227 10.7401 205.155 10.809 205.066 10.8957C204.912 11.0462 204.712 11.2459 204.47 11.4899C203.757 12.209 202.683 13.3122 201.473 14.5574L203.092 16.1966L203.119 16.169L203.13 16.1808C203.431 15.873 203.925 15.3599 204.362 14.9059C204.721 14.5328 205.035 14.2052 205.162 14.073L205.162 14.0718Z" fill="#E2C89F"/>
<path d="M207.272 21.0074L207.007 20.7366L205.394 22.3825L205.659 22.6534C205.817 22.8147 205.933 22.9969 206.01 23.1923C206.088 23.3878 206.127 23.5969 206.127 23.8067C206.127 24.0165 206.088 24.2257 206.01 24.421C205.933 24.6162 205.817 24.7984 205.659 24.9599C205.501 25.1212 205.323 25.2388 205.131 25.3182C204.94 25.3973 204.735 25.4375 204.53 25.4375C204.324 25.4375 204.119 25.3973 203.927 25.3182C203.736 25.2388 203.558 25.1212 203.399 24.9599L203.072 24.626L199.262 20.7366L197.649 22.3825L201.46 26.272L201.787 26.6059C202.163 26.99 202.603 27.282 203.07 27.4755C203.538 27.6692 204.034 27.7654 204.529 27.7654C205.025 27.7654 205.52 27.6692 205.988 27.4755C206.456 27.2823 206.896 26.9903 207.272 26.6059C207.649 26.2217 207.934 25.773 208.124 25.2956C208.314 24.818 208.408 24.3119 208.408 23.8064C208.408 23.3009 208.314 22.7948 208.124 22.3172C207.934 21.8403 207.649 21.3913 207.272 21.0074Z" fill="#E2C89F"/>
<path d="M206.802 17.0109L201.51 22.4122L203.122 24.0581L208.414 18.6568L206.802 17.0109Z" fill="#E2C89F"/>
<path d="M200.941 18.416L199.322 16.7769L199.295 16.8045L199.284 16.7927C198.983 17.1007 198.489 17.6135 198.052 18.0676C197.691 18.4429 197.375 18.7718 197.25 18.9025L197.251 18.9032L197.19 18.965C197.01 19.1497 196.838 19.3246 196.681 19.4841C196.332 19.8389 196.045 20.1273 195.845 20.3241C195.777 20.3912 195.719 20.4467 195.675 20.4896L195.664 20.4999L195.65 20.506L195.621 20.5193L195.142 21.0075C194.766 21.3914 194.48 21.8404 194.291 22.3178C194.101 22.7954 194.006 23.3012 194.006 23.807C194.006 24.3125 194.101 24.8185 194.291 25.2961C194.48 25.7733 194.766 26.2223 195.142 26.6064C195.519 26.9906 195.958 27.2826 196.426 27.476C196.894 27.6697 197.39 27.766 197.885 27.766C198.38 27.766 198.876 27.6697 199.344 27.476C199.812 27.2828 200.251 26.9909 200.628 26.6064L200.893 26.3356L199.28 24.6896L199.015 24.9605C198.857 25.1218 198.678 25.2396 198.487 25.319C198.295 25.3982 198.091 25.4384 197.885 25.4384C197.68 25.4384 197.475 25.3982 197.283 25.319C197.092 25.2396 196.913 25.122 196.755 24.9607C196.597 24.7994 196.482 24.617 196.404 24.4218C196.327 24.2283 196.288 24.0215 196.287 23.8137V23.8132L196.287 23.8075C196.287 23.8047 196.288 23.8017 196.288 23.7989C196.289 23.5919 196.327 23.3859 196.404 23.1929C196.482 22.9977 196.597 22.8155 196.755 22.654L197.026 22.3771L197.03 22.3743C197.065 22.3449 197.093 22.32 197.123 22.2934L197.122 22.2937C197.188 22.2339 197.26 22.165 197.348 22.0783C197.503 21.9278 197.703 21.7281 197.945 21.4841C198.657 20.7645 199.731 19.6613 200.941 18.416Z" fill="#E2C89F"/>
<path d="M216.131 15.2322C215.941 14.755 215.656 14.306 215.279 13.9221C214.903 13.5379 214.463 13.246 213.996 13.0525C213.528 12.8588 213.032 12.7626 212.537 12.7626C212.041 12.7626 211.546 12.8588 211.078 13.0525C210.61 13.2457 210.17 13.5377 209.794 13.9221L209.467 14.256L208.977 14.7565L210.589 16.4025L211.08 15.902L211.407 15.5681C211.565 15.4068 211.743 15.2892 211.935 15.2098C212.126 15.1306 212.331 15.0904 212.537 15.0904C212.742 15.0904 212.947 15.1306 213.138 15.2098C213.33 15.2892 213.508 15.4068 213.666 15.5681C213.745 15.6487 213.814 15.7347 213.872 15.8249C213.93 15.9151 213.979 16.0093 214.017 16.107L214.007 16.0796L214.018 16.1073C214.092 16.293 214.129 16.4912 214.133 16.6904L214.135 16.6924V16.7218C214.135 16.9316 214.095 17.1409 214.018 17.3364C213.94 17.5316 213.825 17.7138 213.667 17.8754C213.509 18.0367 213.33 18.1542 213.139 18.2336C212.947 18.3128 212.742 18.353 212.537 18.353C212.331 18.353 212.126 18.3128 211.935 18.2336C211.743 18.1542 211.565 18.0367 211.407 17.8754L211.134 17.5975L211.132 17.5942L211.12 17.5799C211.085 17.5367 211.054 17.5022 211.017 17.461C210.949 17.3857 210.865 17.2952 210.761 17.1849C210.397 16.801 209.793 16.1799 209.069 15.4417C208.365 14.7226 207.549 13.895 206.745 13.0809L205.139 14.7337C206.179 15.7869 207.239 16.8625 208.047 17.6907C208.459 18.1128 208.805 18.4711 209.048 18.7256C209.148 18.8314 209.23 18.9183 209.289 18.9821L209.299 18.9932L209.305 19.0073L209.316 19.0331L209.795 19.5211C210.171 19.9052 210.611 20.1972 211.078 20.3907C211.546 20.5844 212.042 20.6806 212.537 20.6806C213.033 20.6806 213.528 20.5841 213.996 20.3907C214.462 20.198 214.901 19.9067 215.277 19.5241L215.429 19.3196V19.3545C215.687 19.0593 215.899 18.7339 216.056 18.3887C216.083 18.3299 216.108 18.2708 216.132 18.211C216.321 17.7334 216.416 17.2274 216.416 16.7218C216.415 16.2156 216.321 15.7095 216.131 15.2322Z" fill="#E2C89F"/>
<path d="M191.008 17.4054C190.849 17.5667 190.671 17.6843 190.48 17.7637C190.288 17.8428 190.083 17.883 189.878 17.883C189.672 17.883 189.467 17.8428 189.276 17.7637C189.084 17.6843 188.906 17.5667 188.748 17.4054L188.747 17.4041L188.745 17.4024C188.714 17.3702 188.686 17.3378 188.66 17.3069C188.547 17.1712 188.459 17.0237 188.397 16.8662C188.32 16.6727 188.281 16.4659 188.28 16.2581V16.2576L188.28 16.2519C188.28 16.0782 188.308 15.9059 188.361 15.7416C188.371 15.7091 188.382 15.674 188.397 15.6373C188.414 15.5926 188.434 15.5494 188.456 15.5071L188.461 15.4956L188.462 15.4936C188.535 15.3524 188.629 15.2197 188.748 15.0986C188.906 14.9373 189.084 14.8197 189.276 14.7403C189.467 14.6612 189.672 14.621 189.878 14.621C190.083 14.621 190.288 14.6612 190.48 14.7403C190.671 14.8197 190.849 14.9375 191.008 15.0986L191.28 15.3767L191.282 15.38L191.294 15.3943C191.33 15.4375 191.36 15.472 191.398 15.5132C191.466 15.5885 191.55 15.679 191.654 15.7893C192.017 16.1732 192.622 16.7943 193.345 17.5325C194.05 18.2516 194.866 19.0792 195.67 19.8933L197.276 18.2405C196.236 17.1873 195.176 16.1117 194.368 15.2835C193.956 14.8614 193.609 14.5031 193.367 14.2486C193.266 14.1426 193.185 14.0559 193.126 13.9918L193.116 13.9808L193.11 13.9667L193.099 13.9408L192.621 13.4526C192.244 13.0685 191.805 12.7765 191.337 12.583C190.869 12.3893 190.373 12.2931 189.878 12.2931C189.383 12.2931 188.887 12.3893 188.419 12.583C187.952 12.7763 187.512 13.0682 187.136 13.4526C187.072 13.518 187.011 13.5863 186.951 13.6564C186.893 13.7242 186.838 13.7933 186.786 13.8642C186.578 14.1446 186.409 14.4473 186.284 14.7629C186.094 15.2406 186 15.7466 186 16.2521C186 16.7576 186.094 17.2637 186.284 17.7413C186.421 18.0855 186.608 18.4149 186.844 18.7162C186.86 18.737 186.876 18.7574 186.892 18.777C186.946 18.8435 187.003 18.9086 187.062 18.9727C187.088 19.0006 187.112 19.0275 187.136 19.0518C187.512 19.436 187.952 19.728 188.419 19.9214C188.887 20.1151 189.383 20.2114 189.878 20.2114C190.374 20.2114 190.869 20.1151 191.337 19.9214C191.805 19.7282 192.245 19.4363 192.621 19.0518L192.948 18.7179L193.438 18.2174L191.826 16.5715L191.335 17.072L191.008 17.4054Z" fill="#E2C89F"/>
<path d="M199.29 8.91488L193.999 14.3162L195.611 15.962L200.903 10.5607L199.29 8.91488Z" fill="#E2C89F"/>
<path d="M202.553 29.151C202.553 29.9095 201.95 30.5246 201.207 30.5246C200.464 30.5246 199.861 29.9095 199.861 29.151C199.861 28.3922 200.464 27.7773 201.207 27.7773C201.95 27.7773 202.553 28.3922 202.553 29.151Z" fill="#CDB28A"/>
<path d="M201.894 31.9926C201.894 32.3793 201.586 32.693 201.207 32.693C200.828 32.693 200.521 32.3793 200.521 31.9926C200.521 31.6058 200.828 31.2921 201.207 31.2921C201.586 31.2921 201.894 31.6058 201.894 31.9926Z" fill="#CDB28A"/>
<path d="M201.207 1.40089C201.586 1.40089 201.894 1.08729 201.894 0.700446C201.894 0.3136 201.586 0 201.207 0C200.828 0 200.521 0.3136 200.521 0.700446C200.521 1.08729 200.828 1.40089 201.207 1.40089Z" fill="#CDB28A"/>
<path d="M202.553 3.82234C202.553 4.58088 201.95 5.19595 201.207 5.19595C200.464 5.19595 199.861 4.58088 199.861 3.82234C199.861 3.0638 200.464 2.44873 201.207 2.44873C201.95 2.44873 202.553 3.0638 202.553 3.82234Z" fill="#CDB28A"/>
<path d="M201.207 33.6013C199.884 33.6013 198.811 34.6963 198.811 36.047H203.603C203.603 34.6963 202.531 33.6013 201.207 33.6013Z" fill="#CDB28A"/>
<path d="M199.831 36.9546H198.811V52.5673H199.831V36.9546Z" fill="#CDB28A"/>
<path d="M201.717 36.9546H200.697V52.5673H201.717V36.9546Z" fill="#CDB28A"/>
<path d="M203.603 36.9546H202.583V52.5673H203.603V36.9546Z" fill="#CDB28A"/>
</svg>
