<svg width="80" height="80" viewBox="0 0 80 80" fill="none" xmlns="http://www.w3.org/2000/svg">
<path d="M40.0911 0H39.9089C17.8678 0 0 17.8678 0 39.9089V40.0911C0 62.1322 17.8678 80 39.9089 80H40.0911C62.1322 80 80 62.1322 80 40.0911V39.9089C80 17.8678 62.1322 0 40.0911 0Z" fill="white"/>
<path d="M52.3785 16.2773H27.6243C20.7855 16.2773 15.2219 21.8409 15.2219 28.6797V51.3262C15.2219 58.165 20.7855 63.7286 27.6243 63.7286H52.3785C59.2173 63.7286 64.7808 58.165 64.7808 51.3262V28.6797C64.7808 21.8409 59.2173 16.2773 52.3785 16.2773ZM19.5971 28.6797C19.5971 24.2541 23.1987 20.6525 27.6243 20.6525H52.3785C56.8041 20.6525 60.4057 24.2541 60.4057 28.6797V51.3262C60.4057 55.7518 56.8041 59.3534 52.3785 59.3534H27.6243C23.1987 59.3534 19.5971 55.7518 19.5971 51.3262V28.6797Z" fill="#A50000"/>
<path d="M40.0014 51.5345C46.3609 51.5345 51.5377 46.3605 51.5377 39.9982C51.5377 33.6359 46.3637 28.4619 40.0014 28.4619C33.639 28.4619 28.4651 33.6359 28.4651 39.9982C28.4651 46.3605 33.639 51.5345 40.0014 51.5345ZM40.0014 32.8399C43.9505 32.8399 47.1625 36.0519 47.1625 40.001C47.1625 43.9501 43.9505 47.1621 40.0014 47.1621C36.0522 47.1621 32.8402 43.9501 32.8402 40.001C32.8402 36.0519 36.0522 32.8399 40.0014 32.8399Z" fill="#A50000"/>
<path d="M52.6056 30.326C54.3181 30.326 55.7139 28.933 55.7139 27.2177C55.7139 25.5024 54.3209 24.1094 52.6056 24.1094C50.8903 24.1094 49.4973 25.5024 49.4973 27.2177C49.4973 28.933 50.8903 30.326 52.6056 30.326Z" fill="#A50000"/>
</svg>
