<svg width="252" height="261" viewBox="0 0 252 261" fill="none" xmlns="http://www.w3.org/2000/svg">
<mask id="path-1-outside-1_0_1" maskUnits="userSpaceOnUse" x="-448.497" y="-1.33761" width="480.982" height="269.431" fill="black">
<rect fill="white" x="-448.497" y="-1.33761" width="480.982" height="269.431"/>
<path d="M-422.374 137.352C-429.318 134.782 -436.789 135.63 -444.069 136.613C-441.534 135.578 -439.092 134.417 -436.7 133.279C-435.65 132.779 -434.599 132.28 -433.545 131.793C-424.212 127.485 -415.037 123.866 -405.445 126.812C-394.203 130.265 -384.142 138.905 -376.634 146.045C-376.359 146.306 -376.14 146.615 -375.912 146.915C-375.465 147.503 -374.906 148.235 -374.127 148.887C-360.055 160.687 -332.228 173.007 -313.28 158.603C-307.119 153.921 -302.771 147.605 -299.177 142.052C-288.318 125.262 -275.345 110.539 -254.184 116.388C-253.681 116.527 -253.161 116.753 -252.559 117.015C-251.862 117.318 -251.164 117.614 -250.419 117.847C-250.12 117.941 -249.728 118.082 -249.289 118.238C-246.588 119.202 -244.524 119.857 -242.782 119.58C-241.608 119.392 -240.627 118.622 -240.203 117.557C-238.853 114.173 -242.023 111.581 -243.726 110.188C-244.002 109.964 -244.253 109.766 -244.423 109.599C-245.475 108.556 -246.619 107.744 -247.729 106.957C-249.013 106.046 -250.226 105.184 -250.94 104.169C-258.548 93.342 -258.986 82.5017 -252.208 72.8191C-241.775 57.9159 -215.926 48.7012 -195.757 52.7092C-185.949 54.6547 -173.587 60.457 -170.398 77.0421L-168.054 89.2342C-167.723 90.9706 -166.006 92.1316 -164.174 91.8123C-162.362 91.5023 -161.149 89.8479 -161.46 88.107C-163.326 77.6629 -165.442 65.8254 -162.013 55.2957C-159.828 48.5915 -155.206 41.8963 -147.883 34.8292C-121.547 9.41398 -81.016 -1.73039 -44.6493 6.43644C-27.5465 10.2778 -13.4218 18.6469 -0.198306 32.7756C8.31345 41.8699 18.594 54.1633 22.5621 68.6346C28.3296 89.6581 19.7135 113.827 1.12036 128.776C-16.2797 142.765 -41.1842 148.377 -65.4946 143.783C-72.4162 142.477 -78.6867 140.413 -84.1819 137.715C-87.2716 135.281 -90.6995 133.058 -94.4761 131.122C-95.2486 130.478 -96.0191 129.832 -96.7308 129.149C-112.511 114.018 -110.833 89.3252 -100.23 75.1267C-90.862 62.5849 -76.6189 59.5793 -61.1518 66.8734C-56.3345 69.1442 -50.6357 74.1155 -49.5074 79.6589C-48.9203 82.5542 -49.7167 85.1273 -51.9486 87.5264C-53.1803 88.8501 -53.0585 90.8809 -51.6784 92.0611C-50.3004 93.2395 -48.1853 93.1247 -46.9495 91.7999C-43.3347 87.9122 -41.9454 83.2885 -42.9323 78.4277C-44.5037 70.6942 -51.7293 64.1577 -58.1946 61.1097C-76.6282 52.4211 -94.3783 56.2619 -105.675 71.389C-116.212 85.4985 -119.001 108.654 -107.795 125.988C-118.252 123.137 -130.572 122.257 -144.812 124.33C-159.54 126.473 -179.046 135.347 -185.551 153.308C-192.532 172.576 -180.044 192.339 -164.746 201.151C-154.66 206.959 -140.639 208.068 -130.645 203.858C-123.03 200.648 -118.12 194.81 -116.447 186.976C-113.849 174.796 -121.644 162.492 -133.468 160.106C-139.993 158.791 -146.063 159.818 -149.708 162.854C-151.648 164.469 -153.886 167.462 -153.531 172.548C-153.311 175.695 -151.344 178.773 -148.403 180.583C-145.694 182.248 -142.557 182.631 -139.791 181.625C-138.061 180.996 -137.188 179.142 -137.845 177.484C-138.499 175.825 -140.436 174.994 -142.162 175.619C-143.246 176.014 -144.356 175.441 -144.784 175.177C-145.959 174.455 -146.768 173.252 -146.849 172.113C-146.988 170.119 -146.488 168.676 -145.317 167.702C-143.307 166.027 -139.205 165.511 -134.852 166.392C-125.699 168.237 -121.342 177.861 -123.011 185.692C-124.244 191.476 -127.72 195.61 -133.34 197.978C-141.464 201.405 -152.964 200.444 -161.295 195.645C-174.332 188.134 -185.046 171.482 -179.224 155.412C-173.698 140.156 -156.695 132.554 -143.813 130.68C-124.931 127.933 -109.786 130.776 -98.2151 136.545C-95.2007 138.97 -91.7851 141.108 -88.0784 142.996C-81.4115 148.321 -76.569 154.718 -73.5142 161.211C-64.0374 181.35 -68.8774 209.356 -83.3886 229.385C-83.6781 229.483 -83.9619 229.605 -84.2238 229.785C-85.1046 230.387 -85.5769 231.323 -85.6159 232.284C-89.189 236.724 -93.2589 240.702 -97.7845 244.01C-117.382 258.33 -150.146 262.282 -170.834 252.818C-185.326 246.186 -197.557 233.798 -205.571 217.727C-201.915 216.558 -198.616 214.962 -195.782 212.963C-188.749 208 -184.473 200.256 -184.623 192.751C-184.657 190.978 -186.188 189.569 -188.036 189.604C-188.04 189.604 -188.043 189.604 -188.048 189.604C-189.892 189.645 -191.356 191.109 -191.321 192.879C-191.213 198.33 -194.441 204.045 -199.752 207.792C-204.438 211.099 -210.82 213.078 -218.206 213.514C-234.072 214.465 -248.929 208.369 -265.046 194.382C-266.418 193.192 -268.535 193.293 -269.776 194.609C-271.017 195.924 -270.913 197.955 -269.541 199.145C-252.951 213.541 -236.71 220.383 -219.966 220.013C-219.244 219.997 -218.521 219.967 -217.798 219.925C-215.967 219.817 -214.195 219.606 -212.467 219.332C-209.795 229.875 -220.733 240.409 -228.101 245.221C-240.235 253.139 -257.256 254.798 -272.524 249.548C-286.624 244.7 -299.015 233.07 -307.471 216.787C-302.508 211.174 -300.568 203.759 -301.509 197.403C-302.721 189.202 -309.118 180.441 -323.429 180.446C-325.174 180.447 -331.303 180.837 -335.938 185.828C-339.752 189.933 -341.239 195.717 -340.356 203.017C-340.142 204.778 -338.441 206.039 -336.645 205.835C-334.806 205.63 -333.489 204.036 -333.703 202.274C-334.357 196.873 -333.426 192.776 -330.938 190.099C-328.725 187.719 -325.572 186.879 -323.43 186.869C-311.158 186.865 -308.649 194.867 -308.14 198.307C-307.015 205.915 -311.743 215.422 -321.605 218.166C-334.44 221.737 -355.083 217.812 -364.182 206.466C-366.319 203.802 -366.019 201.633 -365.564 198.348C-365.197 195.693 -364.779 192.682 -365.812 189.194C-368.337 180.656 -376.422 181.262 -381.236 181.62C-382.81 181.74 -384.267 181.769 -385.954 181.902C-387.14 181.994 -388.49 182.102 -389.23 181.907C-395.935 180.15 -397.742 174.015 -399.731 164.852C-400.252 162.449 -400.744 160.179 -401.417 158.036C-404.464 148.328 -411.516 141.37 -422.374 137.352Z"/>
</mask>
<path d="M-422.374 137.352C-429.318 134.782 -436.789 135.63 -444.069 136.613C-441.534 135.578 -439.092 134.417 -436.7 133.279C-435.65 132.779 -434.599 132.28 -433.545 131.793C-424.212 127.485 -415.037 123.866 -405.445 126.812C-394.203 130.265 -384.142 138.905 -376.634 146.045C-376.359 146.306 -376.14 146.615 -375.912 146.915C-375.465 147.503 -374.906 148.235 -374.127 148.887C-360.055 160.687 -332.228 173.007 -313.28 158.603C-307.119 153.921 -302.771 147.605 -299.177 142.052C-288.318 125.262 -275.345 110.539 -254.184 116.388C-253.681 116.527 -253.161 116.753 -252.559 117.015C-251.862 117.318 -251.164 117.614 -250.419 117.847C-250.12 117.941 -249.728 118.082 -249.289 118.238C-246.588 119.202 -244.524 119.857 -242.782 119.58C-241.608 119.392 -240.627 118.622 -240.203 117.557C-238.853 114.173 -242.023 111.581 -243.726 110.188C-244.002 109.964 -244.253 109.766 -244.423 109.599C-245.475 108.556 -246.619 107.744 -247.729 106.957C-249.013 106.046 -250.226 105.184 -250.94 104.169C-258.548 93.342 -258.986 82.5017 -252.208 72.8191C-241.775 57.9159 -215.926 48.7012 -195.757 52.7092C-185.949 54.6547 -173.587 60.457 -170.398 77.0421L-168.054 89.2342C-167.723 90.9706 -166.006 92.1316 -164.174 91.8123C-162.362 91.5023 -161.149 89.8479 -161.46 88.107C-163.326 77.6629 -165.442 65.8254 -162.013 55.2957C-159.828 48.5915 -155.206 41.8963 -147.883 34.8292C-121.547 9.41398 -81.016 -1.73039 -44.6493 6.43644C-27.5465 10.2778 -13.4218 18.6469 -0.198306 32.7756C8.31345 41.8699 18.594 54.1633 22.5621 68.6346C28.3296 89.6581 19.7135 113.827 1.12036 128.776C-16.2797 142.765 -41.1842 148.377 -65.4946 143.783C-72.4162 142.477 -78.6867 140.413 -84.1819 137.715C-87.2716 135.281 -90.6995 133.058 -94.4761 131.122C-95.2486 130.478 -96.0191 129.832 -96.7308 129.149C-112.511 114.018 -110.833 89.3252 -100.23 75.1267C-90.862 62.5849 -76.6189 59.5793 -61.1518 66.8734C-56.3345 69.1442 -50.6357 74.1155 -49.5074 79.6589C-48.9203 82.5542 -49.7167 85.1273 -51.9486 87.5264C-53.1803 88.8501 -53.0585 90.8809 -51.6784 92.0611C-50.3004 93.2395 -48.1853 93.1247 -46.9495 91.7999C-43.3347 87.9122 -41.9454 83.2885 -42.9323 78.4277C-44.5037 70.6942 -51.7293 64.1577 -58.1946 61.1097C-76.6282 52.4211 -94.3783 56.2619 -105.675 71.389C-116.212 85.4985 -119.001 108.654 -107.795 125.988C-118.252 123.137 -130.572 122.257 -144.812 124.33C-159.54 126.473 -179.046 135.347 -185.551 153.308C-192.532 172.576 -180.044 192.339 -164.746 201.151C-154.66 206.959 -140.639 208.068 -130.645 203.858C-123.03 200.648 -118.12 194.81 -116.447 186.976C-113.849 174.796 -121.644 162.492 -133.468 160.106C-139.993 158.791 -146.063 159.818 -149.708 162.854C-151.648 164.469 -153.886 167.462 -153.531 172.548C-153.311 175.695 -151.344 178.773 -148.403 180.583C-145.694 182.248 -142.557 182.631 -139.791 181.625C-138.061 180.996 -137.188 179.142 -137.845 177.484C-138.499 175.825 -140.436 174.994 -142.162 175.619C-143.246 176.014 -144.356 175.441 -144.784 175.177C-145.959 174.455 -146.768 173.252 -146.849 172.113C-146.988 170.119 -146.488 168.676 -145.317 167.702C-143.307 166.027 -139.205 165.511 -134.852 166.392C-125.699 168.237 -121.342 177.861 -123.011 185.692C-124.244 191.476 -127.72 195.61 -133.34 197.978C-141.464 201.405 -152.964 200.444 -161.295 195.645C-174.332 188.134 -185.046 171.482 -179.224 155.412C-173.698 140.156 -156.695 132.554 -143.813 130.68C-124.931 127.933 -109.786 130.776 -98.2151 136.545C-95.2007 138.97 -91.7851 141.108 -88.0784 142.996C-81.4115 148.321 -76.569 154.718 -73.5142 161.211C-64.0374 181.35 -68.8774 209.356 -83.3886 229.385C-83.6781 229.483 -83.9619 229.605 -84.2238 229.785C-85.1046 230.387 -85.5769 231.323 -85.6159 232.284C-89.189 236.724 -93.2589 240.702 -97.7845 244.01C-117.382 258.33 -150.146 262.282 -170.834 252.818C-185.326 246.186 -197.557 233.798 -205.571 217.727C-201.915 216.558 -198.616 214.962 -195.782 212.963C-188.749 208 -184.473 200.256 -184.623 192.751C-184.657 190.978 -186.188 189.569 -188.036 189.604C-188.04 189.604 -188.043 189.604 -188.048 189.604C-189.892 189.645 -191.356 191.109 -191.321 192.879C-191.213 198.33 -194.441 204.045 -199.752 207.792C-204.438 211.099 -210.82 213.078 -218.206 213.514C-234.072 214.465 -248.929 208.369 -265.046 194.382C-266.418 193.192 -268.535 193.293 -269.776 194.609C-271.017 195.924 -270.913 197.955 -269.541 199.145C-252.951 213.541 -236.71 220.383 -219.966 220.013C-219.244 219.997 -218.521 219.967 -217.798 219.925C-215.967 219.817 -214.195 219.606 -212.467 219.332C-209.795 229.875 -220.733 240.409 -228.101 245.221C-240.235 253.139 -257.256 254.798 -272.524 249.548C-286.624 244.7 -299.015 233.07 -307.471 216.787C-302.508 211.174 -300.568 203.759 -301.509 197.403C-302.721 189.202 -309.118 180.441 -323.429 180.446C-325.174 180.447 -331.303 180.837 -335.938 185.828C-339.752 189.933 -341.239 195.717 -340.356 203.017C-340.142 204.778 -338.441 206.039 -336.645 205.835C-334.806 205.63 -333.489 204.036 -333.703 202.274C-334.357 196.873 -333.426 192.776 -330.938 190.099C-328.725 187.719 -325.572 186.879 -323.43 186.869C-311.158 186.865 -308.649 194.867 -308.14 198.307C-307.015 205.915 -311.743 215.422 -321.605 218.166C-334.44 221.737 -355.083 217.812 -364.182 206.466C-366.319 203.802 -366.019 201.633 -365.564 198.348C-365.197 195.693 -364.779 192.682 -365.812 189.194C-368.337 180.656 -376.422 181.262 -381.236 181.62C-382.81 181.74 -384.267 181.769 -385.954 181.902C-387.14 181.994 -388.49 182.102 -389.23 181.907C-395.935 180.15 -397.742 174.015 -399.731 164.852C-400.252 162.449 -400.744 160.179 -401.417 158.036C-404.464 148.328 -411.516 141.37 -422.374 137.352Z" fill="white"/>
<path d="M-422.374 137.352C-429.318 134.782 -436.789 135.63 -444.069 136.613C-441.534 135.578 -439.092 134.417 -436.7 133.279C-435.65 132.779 -434.599 132.28 -433.545 131.793C-424.212 127.485 -415.037 123.866 -405.445 126.812C-394.203 130.265 -384.142 138.905 -376.634 146.045C-376.359 146.306 -376.14 146.615 -375.912 146.915C-375.465 147.503 -374.906 148.235 -374.127 148.887C-360.055 160.687 -332.228 173.007 -313.28 158.603C-307.119 153.921 -302.771 147.605 -299.177 142.052C-288.318 125.262 -275.345 110.539 -254.184 116.388C-253.681 116.527 -253.161 116.753 -252.559 117.015C-251.862 117.318 -251.164 117.614 -250.419 117.847C-250.12 117.941 -249.728 118.082 -249.289 118.238C-246.588 119.202 -244.524 119.857 -242.782 119.58C-241.608 119.392 -240.627 118.622 -240.203 117.557C-238.853 114.173 -242.023 111.581 -243.726 110.188C-244.002 109.964 -244.253 109.766 -244.423 109.599C-245.475 108.556 -246.619 107.744 -247.729 106.957C-249.013 106.046 -250.226 105.184 -250.94 104.169C-258.548 93.342 -258.986 82.5017 -252.208 72.8191C-241.775 57.9159 -215.926 48.7012 -195.757 52.7092C-185.949 54.6547 -173.587 60.457 -170.398 77.0421L-168.054 89.2342C-167.723 90.9706 -166.006 92.1316 -164.174 91.8123C-162.362 91.5023 -161.149 89.8479 -161.46 88.107C-163.326 77.6629 -165.442 65.8254 -162.013 55.2957C-159.828 48.5915 -155.206 41.8963 -147.883 34.8292C-121.547 9.41398 -81.016 -1.73039 -44.6493 6.43644C-27.5465 10.2778 -13.4218 18.6469 -0.198306 32.7756C8.31345 41.8699 18.594 54.1633 22.5621 68.6346C28.3296 89.6581 19.7135 113.827 1.12036 128.776C-16.2797 142.765 -41.1842 148.377 -65.4946 143.783C-72.4162 142.477 -78.6867 140.413 -84.1819 137.715C-87.2716 135.281 -90.6995 133.058 -94.4761 131.122C-95.2486 130.478 -96.0191 129.832 -96.7308 129.149C-112.511 114.018 -110.833 89.3252 -100.23 75.1267C-90.862 62.5849 -76.6189 59.5793 -61.1518 66.8734C-56.3345 69.1442 -50.6357 74.1155 -49.5074 79.6589C-48.9203 82.5542 -49.7167 85.1273 -51.9486 87.5264C-53.1803 88.8501 -53.0585 90.8809 -51.6784 92.0611C-50.3004 93.2395 -48.1853 93.1247 -46.9495 91.7999C-43.3347 87.9122 -41.9454 83.2885 -42.9323 78.4277C-44.5037 70.6942 -51.7293 64.1577 -58.1946 61.1097C-76.6282 52.4211 -94.3783 56.2619 -105.675 71.389C-116.212 85.4985 -119.001 108.654 -107.795 125.988C-118.252 123.137 -130.572 122.257 -144.812 124.33C-159.54 126.473 -179.046 135.347 -185.551 153.308C-192.532 172.576 -180.044 192.339 -164.746 201.151C-154.66 206.959 -140.639 208.068 -130.645 203.858C-123.03 200.648 -118.12 194.81 -116.447 186.976C-113.849 174.796 -121.644 162.492 -133.468 160.106C-139.993 158.791 -146.063 159.818 -149.708 162.854C-151.648 164.469 -153.886 167.462 -153.531 172.548C-153.311 175.695 -151.344 178.773 -148.403 180.583C-145.694 182.248 -142.557 182.631 -139.791 181.625C-138.061 180.996 -137.188 179.142 -137.845 177.484C-138.499 175.825 -140.436 174.994 -142.162 175.619C-143.246 176.014 -144.356 175.441 -144.784 175.177C-145.959 174.455 -146.768 173.252 -146.849 172.113C-146.988 170.119 -146.488 168.676 -145.317 167.702C-143.307 166.027 -139.205 165.511 -134.852 166.392C-125.699 168.237 -121.342 177.861 -123.011 185.692C-124.244 191.476 -127.72 195.61 -133.34 197.978C-141.464 201.405 -152.964 200.444 -161.295 195.645C-174.332 188.134 -185.046 171.482 -179.224 155.412C-173.698 140.156 -156.695 132.554 -143.813 130.68C-124.931 127.933 -109.786 130.776 -98.2151 136.545C-95.2007 138.97 -91.7851 141.108 -88.0784 142.996C-81.4115 148.321 -76.569 154.718 -73.5142 161.211C-64.0374 181.35 -68.8774 209.356 -83.3886 229.385C-83.6781 229.483 -83.9619 229.605 -84.2238 229.785C-85.1046 230.387 -85.5769 231.323 -85.6159 232.284C-89.189 236.724 -93.2589 240.702 -97.7845 244.01C-117.382 258.33 -150.146 262.282 -170.834 252.818C-185.326 246.186 -197.557 233.798 -205.571 217.727C-201.915 216.558 -198.616 214.962 -195.782 212.963C-188.749 208 -184.473 200.256 -184.623 192.751C-184.657 190.978 -186.188 189.569 -188.036 189.604C-188.04 189.604 -188.043 189.604 -188.048 189.604C-189.892 189.645 -191.356 191.109 -191.321 192.879C-191.213 198.33 -194.441 204.045 -199.752 207.792C-204.438 211.099 -210.82 213.078 -218.206 213.514C-234.072 214.465 -248.929 208.369 -265.046 194.382C-266.418 193.192 -268.535 193.293 -269.776 194.609C-271.017 195.924 -270.913 197.955 -269.541 199.145C-252.951 213.541 -236.71 220.383 -219.966 220.013C-219.244 219.997 -218.521 219.967 -217.798 219.925C-215.967 219.817 -214.195 219.606 -212.467 219.332C-209.795 229.875 -220.733 240.409 -228.101 245.221C-240.235 253.139 -257.256 254.798 -272.524 249.548C-286.624 244.7 -299.015 233.07 -307.471 216.787C-302.508 211.174 -300.568 203.759 -301.509 197.403C-302.721 189.202 -309.118 180.441 -323.429 180.446C-325.174 180.447 -331.303 180.837 -335.938 185.828C-339.752 189.933 -341.239 195.717 -340.356 203.017C-340.142 204.778 -338.441 206.039 -336.645 205.835C-334.806 205.63 -333.489 204.036 -333.703 202.274C-334.357 196.873 -333.426 192.776 -330.938 190.099C-328.725 187.719 -325.572 186.879 -323.43 186.869C-311.158 186.865 -308.649 194.867 -308.14 198.307C-307.015 205.915 -311.743 215.422 -321.605 218.166C-334.44 221.737 -355.083 217.812 -364.182 206.466C-366.319 203.802 -366.019 201.633 -365.564 198.348C-365.197 195.693 -364.779 192.682 -365.812 189.194C-368.337 180.656 -376.422 181.262 -381.236 181.62C-382.81 181.74 -384.267 181.769 -385.954 181.902C-387.14 181.994 -388.49 182.102 -389.23 181.907C-395.935 180.15 -397.742 174.015 -399.731 164.852C-400.252 162.449 -400.744 160.179 -401.417 158.036C-404.464 148.328 -411.516 141.37 -422.374 137.352Z" stroke="#ECE1D8" stroke-width="6" mask="url(#path-1-outside-1_0_1)"/>
<path d="M26.0313 102.154C22.0088 113.704 14.6315 124.426 4.48686 132.581C-14.0701 147.5 -40.6065 153.558 -66.5095 148.665L-66.5105 148.666C-68.7808 148.238 -70.9735 147.704 -73.1425 147.119L-77.3854 145.976L-74.7252 149.474C-72.3124 152.647 -70.3209 155.944 -68.7617 159.258C-58.5021 181.061 -63.3061 210.583 -78.9069 232.057L-79.592 232.999L-78.846 233.897C-72.9519 240.989 -65.0925 246.939 -56.456 249.658C-47.7746 252.392 -38.32 251.849 -29.456 245.942C-27.333 244.529 -25.2264 242.954 -23.4978 241.523C-21.811 240.127 -20.362 238.77 -19.6616 237.8L-19.269 237.257L-19.4124 236.602C-19.5317 236.057 -19.3624 235.454 -18.8723 235.023L-18.8713 235.022C-18.1093 234.352 -16.9099 234.408 -16.2248 235.116L-16.2068 235.136C-15.6232 235.746 -15.0511 236.353 -14.4867 236.956L-12.8111 238.753C-6.55244 245.481 -0.917077 251.569 8.83959 255.144C18.1414 258.552 29.0761 259.389 38.87 257.452C54.1633 254.426 62.3954 247.143 73.415 237.433C74.1044 236.826 74.8014 236.212 75.509 235.591L77.6664 233.708C80.2649 231.455 83.0875 228.595 86.0166 225.628C87.8883 223.733 89.8561 221.742 91.9322 219.738L90.1635 217.345C79.4777 223.242 68.7002 229.137 57.1249 231.023C53.8546 231.556 50.5839 231.853 47.3485 231.925C32.5761 232.252 18.6015 227.86 8.64196 219.627L8.64194 219.626C7.89261 219.007 7.8198 217.961 8.45333 217.258L8.45526 217.257C9.12419 216.512 10.3228 216.422 11.1049 217.07L11.1069 217.072C22.5441 226.525 39.5083 230.414 56.4925 227.651C66.1993 226.069 75.6789 221.294 84.7035 216.369L88.5425 214.257C101.914 206.876 115.198 199.617 129.832 200.037L129.87 200.038L129.909 200.037C132.258 199.985 134.679 200.132 137.184 200.535L137.185 200.534C137.54 200.592 137.851 200.746 138.108 200.964L138.378 201.193L138.72 201.278C140.226 201.653 141.723 202.08 143.232 202.624L143.879 202.864C150.447 205.373 156.465 208.951 162.407 212.488C173.413 219.04 184.284 225.543 198.168 224.485L198.169 224.485C205.78 223.903 211.419 221.346 215.919 217.107C220.371 212.914 223.62 207.154 226.628 200.335C227.88 197.498 229.568 193.685 232.064 190.162C234.556 186.643 237.782 183.517 242.057 181.954L246.674 180.267L241.896 179.09C241.677 179.036 241.464 178.983 241.253 178.928L241.249 178.927C238.16 178.143 235.17 177.909 231.332 178.103L231.33 178.103C228.986 178.223 226.916 179.086 224.841 179.936L224.842 179.936C223.942 180.305 223.071 180.661 222.175 180.978L222.174 180.978C219.636 181.877 217.404 182.888 215.303 183.837L215.302 183.837C209.888 186.285 205.053 188.467 197.348 188.059C192.438 187.798 187.511 187.367 183.075 185.355C173.828 181.162 168.184 173.589 162.489 165.906C158.063 159.934 153.707 154.032 147.584 149.916L147.583 149.916C133.202 140.253 112.818 140.389 98.9338 150.247L98.2007 150.767L98.3165 151.659C98.7487 155.018 98.8229 158.384 98.4437 161.708L98.3617 162.372C97.0924 171.973 91.9077 181.067 84.131 187.291L83.4719 187.802C76.546 193.018 66.0486 196.063 55.5948 196.295C49.2693 196.434 43.0476 195.539 37.7466 193.535C28.1508 189.909 22.3674 182.977 21.2089 174.043L21.1417 173.471C19.8913 161.515 28.5919 153.11 37.5847 150.367C47.8122 147.246 57.5808 151.092 62.622 160.118L62.622 160.119C63.0359 160.859 62.815 161.807 62.0357 162.308L61.8718 162.402L61.694 162.483C60.7946 162.837 59.7676 162.469 59.3359 161.694L59.3359 161.693C54.2784 152.634 45.2858 151.62 38.7348 153.619C31.3682 155.866 23.757 162.876 24.8244 173.139L24.8818 173.63C25.9161 181.593 30.839 187.227 39.1509 190.368C45.7525 192.862 53.8758 193.435 61.5482 192.421C69.2108 191.408 76.6162 188.788 81.7188 184.705C88.7961 179.041 93.5297 170.763 94.6919 161.967C95.9463 152.479 93.3603 142.76 88.8114 134.218C84.2611 125.673 77.6909 118.198 70.8059 113.168L70.2942 112.8C59.4775 105.114 44.3038 101.08 27.4397 101.149L26.3799 101.154L26.0313 102.154Z" fill="white" stroke="#ECE1D8" stroke-width="3"/>
</svg>
