<svg width="326" height="30" viewBox="0 0 326 30" fill="none" xmlns="http://www.w3.org/2000/svg">
<line x1="21" y1="14.5" x2="141" y2="14.5" stroke="#DCB68A"/>
<path d="M141.001 15.0191H154.147L159.933 20.7267L162.716 17.9805L164.756 19.9928L162.591 22.1292L165.501 25L168.411 22.1292L166.245 19.9928L168.285 17.9805L171.068 20.7267L176.854 15.0191H190V13.9809H176.853L171.068 8.27332L170.696 8.64053L168.284 11.0194L166.244 9.00718L168.41 6.8708L165.5 4L165.128 4.36721L162.59 6.8708L164.756 9.00718L162.716 11.0194L159.932 8.27332L159.56 8.64053L154.147 13.9809H141V15.0191H141.001ZM165.5 23.5317L164.078 22.1292L165.5 20.7267L166.922 22.1292L165.5 23.5317ZM165.5 19.2584L163.46 17.2461L165.5 15.2338L167.54 17.2461L165.5 19.2584ZM162.716 16.5123L160.677 14.5L162.716 12.4877L164.756 14.5L162.716 16.5123ZM166.244 14.5L168.284 12.4877L170.324 14.5L168.284 16.5123L166.244 14.5ZM171.068 9.74159L175.891 14.5L171.068 19.2584L169.028 17.2461L171.812 14.5L169.028 11.7539L171.068 9.74159ZM165.5 5.46884L166.922 6.87135L165.5 8.27389L164.078 6.87135L165.5 5.46884ZM165.5 9.74159L167.54 11.7539L165.5 13.7662L163.46 11.7539L165.5 9.74159ZM159.933 9.74159L161.973 11.7539L159.189 14.5L161.973 17.2461L159.933 19.2584L155.109 14.5L159.933 9.74159Z" fill="#D5B47B"/>
<line x1="190" y1="14.5" x2="302" y2="14.5" stroke="#DCB68A"/>
</svg>
