<svg width="1492" height="46" viewBox="0 0 1492 46" fill="none" xmlns="http://www.w3.org/2000/svg">
<line x1="120" y1="21" x2="726" y2="21" stroke="#D9B881" stroke-width="2"/>
<mask id="path-2-inside-1_900_8725" fill="white">
<path d="M726.001 21.9887H751.221L762.32 32.8603L767.66 27.6296L771.573 31.4625L767.419 35.5318L773.001 41L778.584 35.5318L774.429 31.4625L778.342 27.6296L783.682 32.8603L794.781 21.9887H820V20.0113H794.78L783.681 9.13965L782.967 9.83911L778.341 14.3704L774.428 10.5375L778.582 6.46819L773 1L772.286 1.69945L767.418 6.46819L771.572 10.5375L767.659 14.3704L762.319 9.13965L761.605 9.83911L751.22 20.0113H726V21.9887H726.001ZM773 38.2033L770.273 35.5318L773 32.8603L775.727 35.5318L773 38.2033ZM773 30.0636L769.087 26.2307L773 22.3978L776.913 26.2307L773 30.0636ZM767.66 24.8329L763.747 21L767.66 17.1671L771.573 21L767.66 24.8329ZM774.428 21L778.341 17.1671L782.254 21L778.341 24.8329L774.428 21ZM783.681 11.9364L792.934 21L783.681 30.0636L779.768 26.2307L785.108 21L779.768 15.7693L783.681 11.9364ZM773 3.79779L775.727 6.46925L773 9.14074L770.273 6.46925L773 3.79779ZM773 11.9364L776.913 15.7693L773 19.6022L769.087 15.7693L773 11.9364ZM762.32 11.9364L766.233 15.7693L760.893 21L766.233 26.2307L762.32 30.0636L753.067 21L762.32 11.9364Z"/>
</mask>
<path d="M726.001 21.9887H751.221L762.32 32.8603L767.66 27.6296L771.573 31.4625L767.419 35.5318L773.001 41L778.584 35.5318L774.429 31.4625L778.342 27.6296L783.682 32.8603L794.781 21.9887H820V20.0113H794.78L783.681 9.13965L782.967 9.83911L778.341 14.3704L774.428 10.5375L778.582 6.46819L773 1L772.286 1.69945L767.418 6.46819L771.572 10.5375L767.659 14.3704L762.319 9.13965L761.605 9.83911L751.22 20.0113H726V21.9887H726.001ZM773 38.2033L770.273 35.5318L773 32.8603L775.727 35.5318L773 38.2033ZM773 30.0636L769.087 26.2307L773 22.3978L776.913 26.2307L773 30.0636ZM767.66 24.8329L763.747 21L767.66 17.1671L771.573 21L767.66 24.8329ZM774.428 21L778.341 17.1671L782.254 21L778.341 24.8329L774.428 21ZM783.681 11.9364L792.934 21L783.681 30.0636L779.768 26.2307L785.108 21L779.768 15.7693L783.681 11.9364ZM773 3.79779L775.727 6.46925L773 9.14074L770.273 6.46925L773 3.79779ZM773 11.9364L776.913 15.7693L773 19.6022L769.087 15.7693L773 11.9364ZM762.32 11.9364L766.233 15.7693L760.893 21L766.233 26.2307L762.32 30.0636L753.067 21L762.32 11.9364Z" fill="#D9B881"/>
<path d="M751.221 21.9887L753.32 19.8456L752.446 18.9887H751.221V21.9887ZM762.32 32.8603L760.221 35.0035L762.32 37.0598L764.419 35.0034L762.32 32.8603ZM767.66 27.6296L769.759 25.4864L767.66 23.4301L765.561 25.4865L767.66 27.6296ZM771.573 31.4625L773.672 33.6056L775.86 31.4625L773.672 29.3193L771.573 31.4625ZM767.419 35.5318L765.319 33.3887L763.131 35.5318L765.319 37.6749L767.419 35.5318ZM773.001 41L770.902 43.1431L773.001 45.1994L775.1 43.1431L773.001 41ZM778.584 35.5318L780.683 37.6749L782.871 35.5318L780.683 33.3887L778.584 35.5318ZM774.429 31.4625L772.33 29.3194L770.142 31.4625L772.33 33.6056L774.429 31.4625ZM778.342 27.6296L780.441 25.4864L778.342 23.4301L776.243 25.4864L778.342 27.6296ZM783.682 32.8603L781.583 35.0034L783.682 37.0598L785.781 35.0034L783.682 32.8603ZM794.781 21.9887V18.9887H793.556L792.682 19.8456L794.781 21.9887ZM820 21.9887V24.9887H823V21.9887H820ZM820 20.0113H823V17.0113H820V20.0113ZM794.78 20.0113L792.681 22.1544L793.555 23.0113H794.78V20.0113ZM783.681 9.13965L785.78 6.99652L783.681 4.94016L781.582 6.99656L783.681 9.13965ZM782.967 9.83911L785.066 11.9822L785.066 11.9822L782.967 9.83911ZM778.341 14.3704L776.242 16.5135L778.341 18.5698L780.44 16.5135L778.341 14.3704ZM774.428 10.5375L772.329 8.39433L770.141 10.5375L772.329 12.6806L774.428 10.5375ZM778.582 6.46819L780.682 8.61134L782.87 6.4682L780.682 4.32506L778.582 6.46819ZM773 1L775.099 -1.14314L773 -3.19945L770.901 -1.14314L773 1ZM772.286 1.69945L770.187 -0.443683L772.286 1.69945ZM767.418 6.46819L765.318 4.32506L763.13 6.4682L765.318 8.61134L767.418 6.46819ZM771.572 10.5375L773.671 12.6806L775.859 10.5375L773.671 8.39433L771.572 10.5375ZM767.659 14.3704L765.56 16.5135L767.659 18.5698L769.758 16.5135L767.659 14.3704ZM762.319 9.13965L764.418 6.99652L762.319 4.9402L760.22 6.99652L762.319 9.13965ZM761.605 9.83911L759.506 7.69597L759.506 7.69597L761.605 9.83911ZM751.22 20.0113V23.0113H752.445L753.319 22.1544L751.22 20.0113ZM726 20.0113V17.0113H723V20.0113H726ZM726 21.9887H723V24.9887H726V21.9887ZM773 38.2033L770.901 40.3464L773 42.4027L775.099 40.3464L773 38.2033ZM770.273 35.5318L768.173 33.3887L765.985 35.5318L768.173 37.6749L770.273 35.5318ZM773 32.8603L775.099 30.7172L773 28.6609L770.901 30.7172L773 32.8603ZM775.727 35.5318L777.827 37.6749L780.015 35.5318L777.827 33.3887L775.727 35.5318ZM773 30.0636L770.901 32.2068L773 34.2631L775.099 32.2068L773 30.0636ZM769.087 26.2307L766.988 24.0876L764.8 26.2307L766.988 28.3738L769.087 26.2307ZM773 22.3978L775.099 20.2547L773 18.1984L770.901 20.2547L773 22.3978ZM776.913 26.2307L779.012 28.3738L781.2 26.2307L779.012 24.0876L776.913 26.2307ZM767.66 24.8329L765.561 26.976L767.66 29.0323L769.759 26.976L767.66 24.8329ZM763.747 21L761.648 18.8568L759.46 21L761.648 23.1431L763.747 21ZM767.66 17.1671L769.759 15.0239L767.66 12.9676L765.561 15.0239L767.66 17.1671ZM771.573 21L773.672 23.1431L775.86 21L773.672 18.8568L771.573 21ZM774.428 21L772.329 18.8568L770.141 21L772.329 23.1431L774.428 21ZM778.341 17.1671L780.44 15.0239L778.341 12.9676L776.242 15.0239L778.341 17.1671ZM782.254 21L784.353 23.1431L786.541 21L784.353 18.8568L782.254 21ZM778.341 24.8329L776.242 26.976L778.341 29.0323L780.44 26.976L778.341 24.8329ZM783.681 11.9364L785.78 9.79321L783.681 7.73689L781.582 9.79322L783.681 11.9364ZM792.934 21L795.033 23.1431L797.221 21L795.033 18.8568L792.934 21ZM783.681 30.0636L781.582 32.2068L783.681 34.2631L785.78 32.2068L783.681 30.0636ZM779.768 26.2307L777.669 24.0876L775.481 26.2307L777.669 28.3738L779.768 26.2307ZM785.108 21L787.207 23.1431L789.395 21L787.207 18.8568L785.108 21ZM779.768 15.7693L777.669 13.6262L775.481 15.7693L777.669 17.9124L779.768 15.7693ZM773 3.79779L775.099 1.65464L773 -0.401638L770.901 1.65464L773 3.79779ZM775.727 6.46925L777.827 8.61238L780.015 6.46923L777.827 4.3261L775.727 6.46925ZM773 9.14074L770.901 11.2839L773 13.3402L775.099 11.2839L773 9.14074ZM770.273 6.46925L768.173 4.3261L765.985 6.46923L768.173 8.61238L770.273 6.46925ZM773 11.9364L775.099 9.79322L773 7.73689L770.901 9.79322L773 11.9364ZM776.913 15.7693L779.012 17.9124L781.2 15.7693L779.012 13.6262L776.913 15.7693ZM773 19.6022L770.901 21.7453L773 23.8016L775.099 21.7453L773 19.6022ZM769.087 15.7693L766.988 13.6262L764.8 15.7693L766.988 17.9124L769.087 15.7693ZM762.32 11.9364L764.419 9.79322L762.32 7.73689L760.221 9.79321L762.32 11.9364ZM766.233 15.7693L768.332 17.9124L770.52 15.7693L768.332 13.6262L766.233 15.7693ZM760.893 21L758.794 18.8568L756.606 21L758.794 23.1431L760.893 21ZM766.233 26.2307L768.332 28.3738L770.52 26.2307L768.332 24.0876L766.233 26.2307ZM762.32 30.0636L760.221 32.2068L762.32 34.2631L764.419 32.2068L762.32 30.0636ZM753.067 21L750.968 18.8568L748.78 21L750.968 23.1431L753.067 21ZM726.001 21.9887V24.9887H751.221V21.9887V18.9887H726.001V21.9887ZM751.221 21.9887L749.122 24.1319L760.221 35.0035L762.32 32.8603L764.419 30.7172L753.32 19.8456L751.221 21.9887ZM762.32 32.8603L764.419 35.0034L769.759 29.7727L767.66 27.6296L765.561 25.4865L760.221 30.7172L762.32 32.8603ZM767.66 27.6296L765.561 29.7727L769.474 33.6056L771.573 31.4625L773.672 29.3193L769.759 25.4864L767.66 27.6296ZM771.573 31.4625L769.474 29.3194L765.319 33.3887L767.419 35.5318L769.518 37.6749L773.672 33.6056L771.573 31.4625ZM767.419 35.5318L765.319 37.6749L770.902 43.1431L773.001 41L775.1 38.8569L769.518 33.3887L767.419 35.5318ZM773.001 41L775.1 43.1431L780.683 37.6749L778.584 35.5318L776.484 33.3887L770.902 38.8569L773.001 41ZM778.584 35.5318L780.683 33.3887L776.528 29.3194L774.429 31.4625L772.33 33.6056L776.484 37.6749L778.584 35.5318ZM774.429 31.4625L776.528 33.6056L780.441 29.7727L778.342 27.6296L776.243 25.4864L772.33 29.3194L774.429 31.4625ZM778.342 27.6296L776.243 29.7727L781.583 35.0034L783.682 32.8603L785.781 30.7172L780.441 25.4864L778.342 27.6296ZM783.682 32.8603L785.781 35.0034L796.88 24.1319L794.781 21.9887L792.682 19.8456L781.583 30.7172L783.682 32.8603ZM794.781 21.9887V24.9887H820V21.9887V18.9887H794.781V21.9887ZM820 21.9887H823V20.0113H820H817V21.9887H820ZM820 20.0113V17.0113H794.78V20.0113V23.0113H820V20.0113ZM794.78 20.0113L796.879 17.8681L785.78 6.99652L783.681 9.13965L781.582 11.2828L792.681 22.1544L794.78 20.0113ZM783.681 9.13965L781.582 6.99656L780.868 7.69602L782.967 9.83911L785.066 11.9822L785.78 11.2827L783.681 9.13965ZM782.967 9.83911L780.868 7.69597L776.242 12.2272L778.341 14.3704L780.44 16.5135L785.066 11.9822L782.967 9.83911ZM778.341 14.3704L780.44 12.2272L776.527 8.39433L774.428 10.5375L772.329 12.6806L776.242 16.5135L778.341 14.3704ZM774.428 10.5375L776.527 12.6806L780.682 8.61134L778.582 6.46819L776.483 4.32505L772.329 8.39433L774.428 10.5375ZM778.582 6.46819L780.682 4.32506L775.099 -1.14314L773 1L770.901 3.14314L776.483 8.61133L778.582 6.46819ZM773 1L770.901 -1.14314L770.187 -0.443683L772.286 1.69945L774.385 3.84259L775.099 3.14314L773 1ZM772.286 1.69945L770.187 -0.443683L765.318 4.32506L767.418 6.46819L769.517 8.61133L774.385 3.84259L772.286 1.69945ZM767.418 6.46819L765.318 8.61134L769.473 12.6806L771.572 10.5375L773.671 8.39433L769.517 4.32505L767.418 6.46819ZM771.572 10.5375L769.473 8.39434L765.56 12.2272L767.659 14.3704L769.758 16.5135L773.671 12.6806L771.572 10.5375ZM767.659 14.3704L769.758 12.2272L764.418 6.99652L762.319 9.13965L760.22 11.2828L765.56 16.5135L767.659 14.3704ZM762.319 9.13965L760.22 6.99652L759.506 7.69597L761.605 9.83911L763.704 11.9822L764.418 11.2828L762.319 9.13965ZM761.605 9.83911L759.506 7.69597L749.121 17.8681L751.22 20.0113L753.319 22.1544L763.704 11.9822L761.605 9.83911ZM751.22 20.0113V17.0113H726V20.0113V23.0113H751.22V20.0113ZM726 20.0113H723V21.9887H726H729V20.0113H726ZM726 21.9887V24.9887H726.001V21.9887V18.9887H726V21.9887ZM773 38.2033L775.099 36.0602L772.372 33.3887L770.273 35.5318L768.173 37.6749L770.901 40.3464L773 38.2033ZM770.273 35.5318L772.372 37.6749L775.099 35.0034L773 32.8603L770.901 30.7172L768.173 33.3887L770.273 35.5318ZM773 32.8603L770.901 35.0034L773.628 37.6749L775.727 35.5318L777.827 33.3887L775.099 30.7172L773 32.8603ZM775.727 35.5318L773.628 33.3887L770.901 36.0602L773 38.2033L775.099 40.3464L777.827 37.6749L775.727 35.5318ZM773 30.0636L775.099 27.9205L771.186 24.0876L769.087 26.2307L766.988 28.3738L770.901 32.2068L773 30.0636ZM769.087 26.2307L771.186 28.3738L775.099 24.5409L773 22.3978L770.901 20.2547L766.988 24.0876L769.087 26.2307ZM773 22.3978L770.901 24.5409L774.814 28.3738L776.913 26.2307L779.012 24.0876L775.099 20.2547L773 22.3978ZM776.913 26.2307L774.814 24.0876L770.901 27.9205L773 30.0636L775.099 32.2068L779.012 28.3738L776.913 26.2307ZM767.66 24.8329L769.759 22.6897L765.846 18.8568L763.747 21L761.648 23.1431L765.561 26.976L767.66 24.8329ZM763.747 21L765.846 23.1431L769.759 19.3102L767.66 17.1671L765.561 15.0239L761.648 18.8568L763.747 21ZM767.66 17.1671L765.561 19.3102L769.474 23.1431L771.573 21L773.672 18.8568L769.759 15.0239L767.66 17.1671ZM771.573 21L769.474 18.8568L765.561 22.6897L767.66 24.8329L769.759 26.976L773.672 23.1431L771.573 21ZM774.428 21L776.527 23.1431L780.44 19.3102L778.341 17.1671L776.242 15.0239L772.329 18.8568L774.428 21ZM778.341 17.1671L776.242 19.3102L780.155 23.1431L782.254 21L784.353 18.8568L780.44 15.0239L778.341 17.1671ZM782.254 21L780.155 18.8568L776.242 22.6897L778.341 24.8329L780.44 26.976L784.353 23.1431L782.254 21ZM778.341 24.8329L780.44 22.6897L776.527 18.8568L774.428 21L772.329 23.1431L776.242 26.976L778.341 24.8329ZM783.681 11.9364L781.582 14.0795L790.835 23.1431L792.934 21L795.033 18.8568L785.78 9.79321L783.681 11.9364ZM792.934 21L790.835 18.8568L781.582 27.9205L783.681 30.0636L785.78 32.2068L795.033 23.1431L792.934 21ZM783.681 30.0636L785.78 27.9205L781.867 24.0876L779.768 26.2307L777.669 28.3738L781.582 32.2068L783.681 30.0636ZM779.768 26.2307L781.867 28.3738L787.207 23.1431L785.108 21L783.009 18.8568L777.669 24.0876L779.768 26.2307ZM785.108 21L787.207 18.8568L781.867 13.6261L779.768 15.7693L777.669 17.9124L783.009 23.1431L785.108 21ZM779.768 15.7693L781.867 17.9124L785.78 14.0795L783.681 11.9364L781.582 9.79322L777.669 13.6262L779.768 15.7693ZM773 3.79779L770.901 5.94094L773.628 8.6124L775.727 6.46925L777.827 4.3261L775.099 1.65464L773 3.79779ZM775.727 6.46925L773.628 4.32611L770.901 6.9976L773 9.14074L775.099 11.2839L777.827 8.61238L775.727 6.46925ZM773 9.14074L775.099 6.9976L772.372 4.32611L770.273 6.46925L768.173 8.61238L770.901 11.2839L773 9.14074ZM770.273 6.46925L772.372 8.6124L775.099 5.94094L773 3.79779L770.901 1.65464L768.173 4.3261L770.273 6.46925ZM773 11.9364L770.901 14.0795L774.814 17.9124L776.913 15.7693L779.012 13.6262L775.099 9.79322L773 11.9364ZM776.913 15.7693L774.814 13.6262L770.901 17.4591L773 19.6022L775.099 21.7453L779.012 17.9124L776.913 15.7693ZM773 19.6022L775.099 17.4591L771.186 13.6262L769.087 15.7693L766.988 17.9124L770.901 21.7453L773 19.6022ZM769.087 15.7693L771.186 17.9124L775.099 14.0795L773 11.9364L770.901 9.79322L766.988 13.6262L769.087 15.7693ZM762.32 11.9364L760.221 14.0795L764.134 17.9124L766.233 15.7693L768.332 13.6262L764.419 9.79322L762.32 11.9364ZM766.233 15.7693L764.134 13.6261L758.794 18.8568L760.893 21L762.992 23.1431L768.332 17.9124L766.233 15.7693ZM760.893 21L758.794 23.1431L764.134 28.3738L766.233 26.2307L768.332 24.0876L762.992 18.8568L760.893 21ZM766.233 26.2307L764.134 24.0876L760.221 27.9205L762.32 30.0636L764.419 32.2068L768.332 28.3738L766.233 26.2307ZM762.32 30.0636L764.419 27.9205L755.166 18.8568L753.067 21L750.968 23.1431L760.221 32.2068L762.32 30.0636ZM753.067 21L755.166 23.1431L764.419 14.0795L762.32 11.9364L760.221 9.79321L750.968 18.8568L753.067 21Z" fill="#D9B881" mask="url(#path-2-inside-1_900_8725)"/>
<line x1="820" y1="21" x2="1383" y2="21" stroke="#D9B881" stroke-width="2"/>
</svg>
