<svg width="701" height="517" viewBox="0 0 701 517" fill="none" xmlns="http://www.w3.org/2000/svg">
<g filter="url(#filter0_d_874_9815)">
<path d="M655.707 16C655.707 35.4534 667.49 51.2236 682.024 51.2236C682.706 51.2236 683.381 51.1891 684.049 51.1211V457.753C683.381 457.685 682.706 457.65 682.024 457.65C667.49 457.65 655.707 473.421 655.707 492.874C655.707 495.671 655.952 498.391 656.412 501H41.6123C42.0726 498.391 42.3174 495.671 42.3174 492.874C42.3174 473.725 30.9003 458.143 16.6797 457.661L16 457.65V51.2236C30.5345 51.2236 42.3174 35.4534 42.3174 16H655.707Z" fill="white"/>
</g>
<mask id="path-2-inside-1_874_9815" fill="white">
<path d="M644.98 33.6592C644.98 51.7224 656.304 66.3652 670.272 66.3652C670.927 66.3652 671.576 66.3337 672.218 66.2705V443.844C671.576 443.781 670.927 443.748 670.272 443.748C656.304 443.748 644.981 458.391 644.98 476.454C644.98 479.051 645.216 481.578 645.658 484H54.8105C55.2529 481.578 55.4883 479.051 55.4883 476.454C55.4882 458.673 44.5162 444.206 30.8496 443.759L30.1973 443.748V66.3652C44.1654 66.365 55.4883 51.7223 55.4883 33.6592V33.6582H644.98V33.6592Z"/>
</mask>
<path d="M644.98 33.6592C644.98 51.7224 656.304 66.3652 670.272 66.3652C670.927 66.3652 671.576 66.3337 672.218 66.2705V443.844C671.576 443.781 670.927 443.748 670.272 443.748C656.304 443.748 644.981 458.391 644.98 476.454C644.98 479.051 645.216 481.578 645.658 484H54.8105C55.2529 481.578 55.4883 479.051 55.4883 476.454C55.4882 458.673 44.5162 444.206 30.8496 443.759L30.1973 443.748V66.3652C44.1654 66.365 55.4883 51.7223 55.4883 33.6592V33.6582H644.98V33.6592Z" fill="white"/>
<path d="M670.272 66.3652V67.3652V66.3652ZM672.218 66.2705H673.218V65.1673L672.12 65.2753L672.218 66.2705ZM672.218 443.844L672.12 444.839L673.218 444.947V443.844H672.218ZM670.272 443.748V442.748V443.748ZM644.98 476.454H643.98H644.98ZM645.658 484V485H646.857L646.642 483.82L645.658 484ZM54.8105 484L53.8268 483.82L53.6114 485H54.8105V484ZM55.4883 476.454H56.4883H55.4883ZM30.8496 443.759L30.8823 442.759L30.8742 442.759L30.8661 442.759L30.8496 443.759ZM30.1973 443.748H29.1973V444.732L30.1808 444.748L30.1973 443.748ZM30.1973 66.3652L30.1973 65.3652L29.1973 65.3652V66.3652H30.1973ZM55.4883 33.6582V32.6582H54.4883V33.6582H55.4883ZM644.98 33.6582H645.98V32.6582H644.98V33.6582ZM644.98 33.6592H643.98C643.98 52.0204 655.528 67.3652 670.272 67.3652V66.3652V65.3652C657.08 65.3652 645.98 51.4244 645.98 33.6592H644.98ZM670.272 66.3652V67.3652C670.959 67.3652 671.641 67.3321 672.316 67.2657L672.218 66.2705L672.12 65.2753C671.511 65.3352 670.895 65.3652 670.272 65.3652V66.3652ZM672.218 66.2705H671.218V443.844H672.218H673.218V66.2705H672.218ZM672.218 443.844L672.316 442.849C671.642 442.782 670.96 442.748 670.272 442.748V443.748V444.748C670.894 444.748 671.51 444.779 672.12 444.839L672.218 443.844ZM670.272 443.748V442.748C655.528 442.748 643.981 458.093 643.98 476.454H644.98H645.98C645.981 458.689 657.08 444.748 670.272 444.748V443.748ZM644.98 476.454H643.98C643.98 479.112 644.221 481.698 644.674 484.18L645.658 484L646.642 483.82C646.21 481.457 645.98 478.991 645.98 476.454H644.98ZM645.658 484V483H54.8105V484V485H645.658V484ZM54.8105 484L55.7943 484.18C56.2475 481.698 56.4883 479.112 56.4883 476.454H55.4883H54.4883C54.4883 478.991 54.2584 481.457 53.8268 483.82L54.8105 484ZM55.4883 476.454H56.4883C56.4882 458.374 45.3001 443.232 30.8823 442.759L30.8496 443.759L30.8169 444.758C43.7323 445.181 54.4882 458.972 54.4883 476.454H55.4883ZM30.8496 443.759L30.8661 442.759L30.2137 442.748L30.1973 443.748L30.1808 444.748L30.8331 444.759L30.8496 443.759ZM30.1973 443.748H31.1973V66.3652H30.1973H29.1973V443.748H30.1973ZM30.1973 66.3652L30.1973 67.3652C44.9416 67.365 56.4883 52.0202 56.4883 33.6592H55.4883H54.4883C54.4883 51.4243 43.3892 65.3651 30.1973 65.3652L30.1973 66.3652ZM55.4883 33.6592H56.4883V33.6582H55.4883H54.4883V33.6592H55.4883ZM55.4883 33.6582V34.6582H644.98V33.6582V32.6582H55.4883V33.6582ZM644.98 33.6582H643.98V33.6592H644.98H645.98V33.6582H644.98Z" fill="#D9B881" mask="url(#path-2-inside-1_874_9815)"/>
<defs>
<filter id="filter0_d_874_9815" x="0" y="0" width="700.049" height="517" filterUnits="userSpaceOnUse" color-interpolation-filters="sRGB">
<feFlood flood-opacity="0" result="BackgroundImageFix"/>
<feColorMatrix in="SourceAlpha" type="matrix" values="0 0 0 0 0 0 0 0 0 0 0 0 0 0 0 0 0 0 127 0" result="hardAlpha"/>
<feOffset/>
<feGaussianBlur stdDeviation="8"/>
<feComposite in2="hardAlpha" operator="out"/>
<feColorMatrix type="matrix" values="0 0 0 0 0.44391 0 0 0 0 0.44391 0 0 0 0 0.44391 0 0 0 0.25 0"/>
<feBlend mode="normal" in2="BackgroundImageFix" result="effect1_dropShadow_874_9815"/>
<feBlend mode="normal" in="SourceGraphic" in2="effect1_dropShadow_874_9815" result="shape"/>
</filter>
</defs>
</svg>
