<svg width="377" height="144" viewBox="0 0 377 144" fill="none" xmlns="http://www.w3.org/2000/svg">
<g filter="url(#filter0_d_161_635)">
<path d="M346.364 16C346.364 20.4923 352.449 24.1338 359.955 24.1338C360.307 24.1338 360.655 24.1221 361 24.1064V118.015C360.655 117.999 360.307 117.988 359.955 117.988C352.449 117.988 346.364 121.631 346.364 126.123C346.364 126.769 346.491 127.397 346.729 128H29.2266C29.4645 127.397 29.5908 126.769 29.5908 126.123C29.5908 121.631 23.5061 117.988 16 117.988V24.1338C23.506 24.1338 29.5908 20.4923 29.5908 16H346.364Z" fill="#A50000"/>
</g>
<mask id="path-2-inside-1_161_635" fill="white">
<path d="M339.043 24C339.043 27.8104 344.845 30.8994 352.003 30.8994C352.338 30.8994 352.671 30.8903 353 30.877V110.53C352.671 110.517 352.338 110.509 352.003 110.509C344.845 110.509 339.043 113.598 339.043 117.408C339.043 117.956 339.163 118.489 339.39 119H36.6133C36.8401 118.489 36.9609 117.956 36.9609 117.408C36.9609 113.598 31.1587 110.509 24.001 110.509H24V30.8984L24.001 30.8994C31.1587 30.8993 36.9609 27.8104 36.9609 24H339.043Z"/>
</mask>
<path d="M339.043 24C339.043 27.8104 344.845 30.8994 352.003 30.8994C352.338 30.8994 352.671 30.8903 353 30.877V110.53C352.671 110.517 352.338 110.509 352.003 110.509C344.845 110.509 339.043 113.598 339.043 117.408C339.043 117.956 339.163 118.489 339.39 119H36.6133C36.8401 118.489 36.9609 117.956 36.9609 117.408C36.9609 113.598 31.1587 110.509 24.001 110.509H24V30.8984L24.001 30.8994C31.1587 30.8993 36.9609 27.8104 36.9609 24H339.043Z" fill="#A50000"/>
<path d="M339.043 24H340.043V23H339.043V24ZM352.003 30.8994L352.003 31.8994H352.003V30.8994ZM353 30.877H354V29.8356L352.96 29.8778L353 30.877ZM353 110.53L352.96 111.529L354 111.572V110.53H353ZM352.003 110.509L352.003 109.509L352.003 109.509L352.003 110.509ZM339.043 117.408L338.043 117.408L338.043 117.408L339.043 117.408ZM339.39 119V120H340.927L340.304 118.594L339.39 119ZM36.6133 119L35.6992 118.594L35.0754 120H36.6133V119ZM36.9609 117.408L37.9609 117.408V117.408H36.9609ZM24.001 110.509L24.001 109.509H24.001V110.509ZM24 110.509H23V111.509H24V110.509ZM24 30.8984L24.7071 30.1913L23 28.4842V30.8984H24ZM24.001 30.8994L23.2939 31.6065L23.5868 31.8994L24.001 31.8994L24.001 30.8994ZM36.9609 24V23H35.9609V24H36.9609ZM339.043 24H338.043C338.043 26.4553 339.896 28.4446 342.369 29.7613C344.885 31.1011 348.293 31.8994 352.003 31.8994L352.003 30.8994L352.003 29.8994C348.555 29.8994 345.483 29.1532 343.309 27.9959C341.091 26.8155 340.043 25.3552 340.043 24H339.043ZM352.003 30.8994V31.8994C352.356 31.8994 352.703 31.8898 353.04 31.8761L353 30.877L352.96 29.8778C352.639 29.8908 352.321 29.8994 352.003 29.8994V30.8994ZM353 30.877H352V110.53H353H354V30.877H353ZM353 110.53L353.04 109.531C352.701 109.517 352.354 109.509 352.003 109.509V110.509V111.509C352.322 111.509 352.641 111.517 352.96 111.529L353 110.53ZM352.003 110.509L352.003 109.509C348.293 109.509 344.885 110.307 342.369 111.647C339.896 112.964 338.043 114.953 338.043 117.408H339.043H340.043C340.043 116.053 341.091 114.593 343.309 113.412C345.483 112.255 348.555 111.509 352.003 111.509L352.003 110.509ZM339.043 117.408L338.043 117.408C338.043 118.106 338.196 118.776 338.476 119.406L339.39 119L340.304 118.594C340.129 118.202 340.043 117.807 340.043 117.408L339.043 117.408ZM339.39 119V118H36.6133V119V120H339.39V119ZM36.6133 119L37.5273 119.406C37.8062 118.777 37.9609 118.107 37.9609 117.408L36.9609 117.408L35.9609 117.408C35.9609 117.806 35.874 118.201 35.6992 118.594L36.6133 119ZM36.9609 117.408H37.9609C37.9609 114.953 36.1083 112.964 33.635 111.647C31.1184 110.307 27.7105 109.509 24.001 109.509L24.001 110.509L24.001 111.509C27.4492 111.509 30.5213 112.255 32.6952 113.412C34.9125 114.593 35.9609 116.053 35.9609 117.408H36.9609ZM24.001 110.509V109.509H24V110.509V111.509H24.001V110.509ZM24 110.509H25V30.8984H24H23V110.509H24ZM24 30.8984L23.2929 31.6055L23.2939 31.6065L24.001 30.8994L24.7081 30.1923L24.7071 30.1913L24 30.8984ZM24.001 30.8994L24.001 31.8994C27.7105 31.8994 31.1184 31.1011 33.635 29.7613C36.1083 28.4446 37.9609 26.4552 37.9609 24H36.9609H35.9609C35.9609 25.3552 34.9125 26.8155 32.6952 27.9959C30.5213 29.1532 27.4492 29.8994 24.001 29.8994L24.001 30.8994ZM36.9609 24V25H339.043V24V23H36.9609V24Z" fill="#D9B881" mask="url(#path-2-inside-1_161_635)"/>
<path d="M128.785 69V50.0909H132.21V66.1286H140.539V69H128.785ZM147.445 69.2862C146.546 69.2862 145.737 69.1262 145.017 68.8061C144.302 68.4799 143.736 67.9998 143.318 67.3658C142.905 66.7318 142.699 65.95 142.699 65.0206C142.699 64.2204 142.847 63.5587 143.142 63.0355C143.438 62.5123 143.841 62.0938 144.352 61.7798C144.863 61.4659 145.438 61.2289 146.078 61.0689C146.725 60.9027 147.392 60.7827 148.082 60.7088C148.913 60.6226 149.587 60.5457 150.104 60.478C150.621 60.4041 150.996 60.2933 151.23 60.1456C151.47 59.9917 151.59 59.7547 151.59 59.4347V59.3793C151.59 58.6837 151.384 58.1451 150.972 57.7635C150.559 57.3819 149.965 57.1911 149.19 57.1911C148.371 57.1911 147.722 57.3696 147.242 57.7266C146.768 58.0836 146.448 58.5052 146.281 58.9915L143.161 58.5483C143.407 57.6866 143.813 56.9664 144.379 56.3878C144.946 55.803 145.638 55.366 146.457 55.0767C147.276 54.7812 148.18 54.6335 149.171 54.6335C149.855 54.6335 150.535 54.7135 151.212 54.8736C151.889 55.0336 152.508 55.2983 153.068 55.6676C153.628 56.0308 154.077 56.5263 154.416 57.1541C154.76 57.782 154.933 58.5668 154.933 59.5085V69H151.72V67.0518H151.609C151.406 67.4458 151.119 67.8151 150.75 68.1598C150.387 68.4983 149.928 68.7723 149.374 68.9815C148.827 69.1847 148.183 69.2862 147.445 69.2862ZM148.313 66.8303C148.984 66.8303 149.565 66.6979 150.058 66.4332C150.55 66.1624 150.929 65.8054 151.193 65.3622C151.464 64.919 151.6 64.4358 151.6 63.9126V62.2415C151.495 62.3277 151.316 62.4077 151.064 62.4815C150.818 62.5554 150.541 62.62 150.233 62.6754C149.925 62.7308 149.621 62.7801 149.319 62.8232C149.017 62.8662 148.756 62.9032 148.534 62.9339C148.036 63.0017 147.589 63.1125 147.195 63.2663C146.802 63.4202 146.491 63.6357 146.263 63.9126C146.035 64.1835 145.921 64.5343 145.921 64.9652C145.921 65.5807 146.146 66.0455 146.595 66.3594C147.045 66.6733 147.617 66.8303 148.313 66.8303ZM161.636 60.6903V69H158.294V54.8182H161.488V57.228H161.654C161.981 56.4339 162.501 55.803 163.215 55.3352C163.935 54.8674 164.824 54.6335 165.883 54.6335C166.862 54.6335 167.714 54.8428 168.441 55.2614C169.173 55.6799 169.739 56.2862 170.139 57.0803C170.546 57.8743 170.746 58.8376 170.74 59.9702V69H167.397V60.4872C167.397 59.5393 167.151 58.7976 166.659 58.2621C166.172 57.7266 165.498 57.4588 164.637 57.4588C164.052 57.4588 163.532 57.5881 163.076 57.8466C162.627 58.099 162.273 58.4652 162.014 58.9453C161.762 59.4254 161.636 60.0071 161.636 60.6903ZM180.305 74.6136C179.105 74.6136 178.074 74.4505 177.212 74.1243C176.35 73.8042 175.658 73.3733 175.134 72.8317C174.611 72.29 174.248 71.6899 174.045 71.0312L177.055 70.3018C177.19 70.5788 177.387 70.8527 177.646 71.1236C177.904 71.4006 178.252 71.6283 178.689 71.8068C179.132 71.9915 179.689 72.0838 180.36 72.0838C181.308 72.0838 182.093 71.853 182.715 71.3913C183.336 70.9358 183.647 70.1849 183.647 69.1385V66.4517H183.481C183.309 66.7964 183.056 67.1503 182.724 67.5135C182.398 67.8767 181.964 68.1813 181.422 68.4276C180.887 68.6738 180.213 68.7969 179.4 68.7969C178.311 68.7969 177.323 68.5414 176.436 68.0305C175.556 67.5135 174.854 66.7441 174.331 65.7223C173.814 64.6944 173.556 63.4079 173.556 61.8629C173.556 60.3056 173.814 58.9915 174.331 57.9205C174.854 56.8433 175.559 56.0277 176.445 55.4737C177.332 54.9136 178.32 54.6335 179.409 54.6335C180.24 54.6335 180.923 54.7751 181.459 55.0582C182.001 55.3352 182.432 55.6707 182.752 56.0646C183.072 56.4524 183.315 56.8187 183.481 57.1634H183.666V54.8182H186.962V69.2308C186.962 70.4434 186.673 71.4467 186.094 72.2408C185.515 73.0348 184.724 73.6288 183.721 74.0227C182.718 74.4167 181.579 74.6136 180.305 74.6136ZM180.333 66.1747C181.04 66.1747 181.644 66.0024 182.142 65.6577C182.641 65.313 183.019 64.8175 183.278 64.1712C183.536 63.5249 183.666 62.7493 183.666 61.8445C183.666 60.9519 183.536 60.1702 183.278 59.4993C183.026 58.8284 182.65 58.3082 182.151 57.9389C181.659 57.5634 181.053 57.3757 180.333 57.3757C179.588 57.3757 178.966 57.5696 178.468 57.9574C177.969 58.3452 177.593 58.8776 177.341 59.5547C177.089 60.2256 176.963 60.9889 176.963 61.8445C176.963 62.7124 177.089 63.4725 177.341 64.125C177.6 64.7713 177.978 65.276 178.477 65.6392C178.981 65.9962 179.6 66.1747 180.333 66.1747ZM199.426 63.0355V54.8182H202.769V69H199.528V66.4794H199.38C199.06 67.2734 198.534 67.9228 197.801 68.4276C197.075 68.9323 196.179 69.1847 195.115 69.1847C194.185 69.1847 193.363 68.9785 192.649 68.5661C191.941 68.1475 191.387 67.5412 190.987 66.7472C190.587 65.947 190.387 64.9806 190.387 63.848V54.8182H193.73V63.331C193.73 64.2296 193.976 64.9437 194.468 65.473C194.961 66.0024 195.607 66.267 196.407 66.267C196.9 66.267 197.377 66.147 197.838 65.907C198.3 65.6669 198.678 65.3099 198.974 64.8359C199.276 64.3558 199.426 63.7557 199.426 63.0355ZM210.287 69.2862C209.388 69.2862 208.578 69.1262 207.858 68.8061C207.144 68.4799 206.578 67.9998 206.159 67.3658C205.747 66.7318 205.541 65.95 205.541 65.0206C205.541 64.2204 205.689 63.5587 205.984 63.0355C206.279 62.5123 206.683 62.0938 207.194 61.7798C207.704 61.4659 208.28 61.2289 208.92 61.0689C209.566 60.9027 210.234 60.7827 210.924 60.7088C211.755 60.6226 212.429 60.5457 212.946 60.478C213.463 60.4041 213.838 60.2933 214.072 60.1456C214.312 59.9917 214.432 59.7547 214.432 59.4347V59.3793C214.432 58.6837 214.226 58.1451 213.814 57.7635C213.401 57.3819 212.807 57.1911 212.032 57.1911C211.213 57.1911 210.564 57.3696 210.083 57.7266C209.609 58.0836 209.289 58.5052 209.123 58.9915L206.002 58.5483C206.249 57.6866 206.655 56.9664 207.221 56.3878C207.788 55.803 208.48 55.366 209.299 55.0767C210.117 54.7812 211.022 54.6335 212.013 54.6335C212.696 54.6335 213.377 54.7135 214.054 54.8736C214.731 55.0336 215.349 55.2983 215.909 55.6676C216.47 56.0308 216.919 56.5263 217.257 57.1541C217.602 57.782 217.775 58.5668 217.775 59.5085V69H214.561V67.0518H214.451C214.248 67.4458 213.961 67.8151 213.592 68.1598C213.229 68.4983 212.77 68.7723 212.216 68.9815C211.668 69.1847 211.025 69.2862 210.287 69.2862ZM211.154 66.8303C211.825 66.8303 212.407 66.6979 212.9 66.4332C213.392 66.1624 213.77 65.8054 214.035 65.3622C214.306 64.919 214.441 64.4358 214.441 63.9126V62.2415C214.337 62.3277 214.158 62.4077 213.906 62.4815C213.66 62.5554 213.383 62.62 213.075 62.6754C212.767 62.7308 212.462 62.7801 212.161 62.8232C211.859 62.8662 211.598 62.9032 211.376 62.9339C210.877 63.0017 210.431 63.1125 210.037 63.2663C209.643 63.4202 209.333 63.6357 209.105 63.9126C208.877 64.1835 208.763 64.5343 208.763 64.9652C208.763 65.5807 208.988 66.0455 209.437 66.3594C209.886 66.6733 210.459 66.8303 211.154 66.8303ZM227.303 74.6136C226.103 74.6136 225.072 74.4505 224.21 74.1243C223.348 73.8042 222.656 73.3733 222.132 72.8317C221.609 72.29 221.246 71.6899 221.043 71.0312L224.053 70.3018C224.188 70.5788 224.385 70.8527 224.644 71.1236C224.902 71.4006 225.25 71.6283 225.687 71.8068C226.13 71.9915 226.687 72.0838 227.358 72.0838C228.306 72.0838 229.091 71.853 229.713 71.3913C230.334 70.9358 230.645 70.1849 230.645 69.1385V66.4517H230.479C230.307 66.7964 230.054 67.1503 229.722 67.5135C229.396 67.8767 228.962 68.1813 228.42 68.4276C227.885 68.6738 227.211 68.7969 226.398 68.7969C225.309 68.7969 224.321 68.5414 223.434 68.0305C222.554 67.5135 221.852 66.7441 221.329 65.7223C220.812 64.6944 220.554 63.4079 220.554 61.8629C220.554 60.3056 220.812 58.9915 221.329 57.9205C221.852 56.8433 222.557 56.0277 223.444 55.4737C224.33 54.9136 225.318 54.6335 226.407 54.6335C227.238 54.6335 227.922 54.7751 228.457 55.0582C228.999 55.3352 229.43 55.6707 229.75 56.0646C230.07 56.4524 230.313 56.8187 230.479 57.1634H230.664V54.8182H233.96V69.2308C233.96 70.4434 233.671 71.4467 233.092 72.2408C232.513 73.0348 231.722 73.6288 230.719 74.0227C229.716 74.4167 228.577 74.6136 227.303 74.6136ZM227.331 66.1747C228.038 66.1747 228.642 66.0024 229.14 65.6577C229.639 65.313 230.017 64.8175 230.276 64.1712C230.534 63.5249 230.664 62.7493 230.664 61.8445C230.664 60.9519 230.534 60.1702 230.276 59.4993C230.024 58.8284 229.648 58.3082 229.15 57.9389C228.657 57.5634 228.051 57.3757 227.331 57.3757C226.586 57.3757 225.964 57.5696 225.466 57.9574C224.967 58.3452 224.592 58.8776 224.339 59.5547C224.087 60.2256 223.961 60.9889 223.961 61.8445C223.961 62.7124 224.087 63.4725 224.339 64.125C224.598 64.7713 224.976 65.276 225.475 65.6392C225.98 65.9962 226.598 66.1747 227.331 66.1747ZM243.664 69.277C242.242 69.277 241.014 68.9815 239.98 68.3906C238.952 67.7936 238.161 66.9503 237.607 65.8608C237.053 64.7652 236.776 63.4756 236.776 61.9922C236.776 60.5334 237.053 59.2531 237.607 58.1513C238.167 57.0433 238.949 56.1816 239.952 55.5661C240.955 54.9444 242.134 54.6335 243.488 54.6335C244.362 54.6335 245.187 54.7751 245.963 55.0582C246.744 55.3352 247.434 55.7661 248.031 56.3509C248.634 56.9356 249.108 57.6804 249.453 58.5852C249.797 59.4839 249.97 60.5549 249.97 61.7983V62.8232H238.346V60.5703H246.766C246.76 59.9302 246.621 59.3608 246.35 58.8622C246.08 58.3575 245.701 57.9605 245.215 57.6712C244.735 57.3819 244.175 57.2372 243.534 57.2372C242.851 57.2372 242.251 57.4034 241.734 57.7358C241.217 58.062 240.814 58.4929 240.525 59.0284C240.241 59.5578 240.097 60.1394 240.091 60.7734V62.7401C240.091 63.5649 240.241 64.2727 240.543 64.8636C240.845 65.4484 241.266 65.8977 241.808 66.2116C242.35 66.5194 242.984 66.6733 243.71 66.6733C244.196 66.6733 244.636 66.6056 245.03 66.4702C245.424 66.3286 245.766 66.1224 246.055 65.8516C246.344 65.5807 246.563 65.2453 246.711 64.8452L249.831 65.196C249.634 66.0208 249.259 66.741 248.705 67.3565C248.157 67.9659 247.455 68.4399 246.6 68.7784C245.744 69.1108 244.766 69.277 243.664 69.277ZM146.452 97.277C145.037 97.277 143.821 96.9661 142.805 96.3445C141.796 95.7228 141.017 94.8641 140.469 93.7685C139.928 92.6667 139.657 91.3987 139.657 89.9645C139.657 88.5241 139.934 87.2531 140.488 86.1513C141.042 85.0433 141.823 84.1816 142.833 83.5661C143.849 82.9444 145.049 82.6335 146.434 82.6335C147.585 82.6335 148.604 82.8459 149.49 83.2706C150.382 83.6892 151.093 84.2831 151.623 85.0526C152.152 85.8158 152.454 86.7083 152.528 87.7301H149.333C149.204 87.0469 148.896 86.4775 148.41 86.022C147.93 85.5604 147.286 85.3295 146.48 85.3295C145.797 85.3295 145.197 85.5142 144.68 85.8835C144.162 86.2467 143.759 86.7699 143.47 87.4531C143.187 88.1364 143.045 88.955 143.045 89.9091C143.045 90.8755 143.187 91.7064 143.47 92.402C143.753 93.0914 144.15 93.6238 144.661 93.9993C145.178 94.3686 145.784 94.5533 146.48 94.5533C146.972 94.5533 147.412 94.4609 147.8 94.2763C148.194 94.0855 148.523 93.8116 148.788 93.4545C149.053 93.0975 149.234 92.6636 149.333 92.1527H152.528C152.448 93.156 152.152 94.0455 151.641 94.821C151.13 95.5904 150.435 96.1937 149.555 96.6307C148.674 97.0616 147.64 97.277 146.452 97.277ZM161.458 97.277C160.073 97.277 158.873 96.9723 157.857 96.3629C156.842 95.7536 156.054 94.901 155.494 93.8054C154.94 92.7098 154.663 91.4295 154.663 89.9645C154.663 88.4995 154.94 87.2161 155.494 86.1143C156.054 85.0125 156.842 84.157 157.857 83.5476C158.873 82.9382 160.073 82.6335 161.458 82.6335C162.843 82.6335 164.043 82.9382 165.059 83.5476C166.075 84.157 166.859 85.0125 167.413 86.1143C167.973 87.2161 168.254 88.4995 168.254 89.9645C168.254 91.4295 167.973 92.7098 167.413 93.8054C166.859 94.901 166.075 95.7536 165.059 96.3629C164.043 96.9723 162.843 97.277 161.458 97.277ZM161.477 94.5994C162.228 94.5994 162.855 94.3932 163.36 93.9808C163.865 93.5623 164.24 93.0021 164.487 92.3004C164.739 91.5987 164.865 90.817 164.865 89.9553C164.865 89.0874 164.739 88.3026 164.487 87.6009C164.24 86.893 163.865 86.3298 163.36 85.9112C162.855 85.4927 162.228 85.2834 161.477 85.2834C160.707 85.2834 160.067 85.4927 159.556 85.9112C159.051 86.3298 158.673 86.893 158.42 87.6009C158.174 88.3026 158.051 89.0874 158.051 89.9553C158.051 90.817 158.174 91.5987 158.42 92.3004C158.673 93.0021 159.051 93.5623 159.556 93.9808C160.067 94.3932 160.707 94.5994 161.477 94.5994ZM180.129 91.0355V82.8182H183.472V97H180.231V94.4794H180.083C179.763 95.2734 179.237 95.9228 178.504 96.4276C177.778 96.9323 176.883 97.1847 175.818 97.1847C174.888 97.1847 174.066 96.9785 173.352 96.5661C172.645 96.1475 172.091 95.5412 171.691 94.7472C171.29 93.947 171.09 92.9806 171.09 91.848V82.8182H174.433V91.331C174.433 92.2296 174.679 92.9437 175.171 93.473C175.664 94.0024 176.31 94.267 177.11 94.267C177.603 94.267 178.08 94.147 178.541 93.907C179.003 93.6669 179.382 93.3099 179.677 92.8359C179.979 92.3558 180.129 91.7557 180.129 91.0355ZM186.909 97V82.8182H190.15V85.1818H190.297C190.556 84.3632 190.999 83.7322 191.627 83.2891C192.261 82.8397 192.984 82.6151 193.797 82.6151C193.981 82.6151 194.187 82.6243 194.415 82.6428C194.649 82.6551 194.843 82.6766 194.997 82.7074V85.782C194.855 85.7327 194.631 85.6896 194.323 85.6527C194.021 85.6096 193.729 85.5881 193.446 85.5881C192.836 85.5881 192.288 85.7204 191.802 85.9851C191.322 86.2436 190.944 86.6037 190.667 87.0653C190.39 87.527 190.251 88.0594 190.251 88.6626V97H186.909ZM208.426 86.5668L205.379 86.8991C205.293 86.5914 205.142 86.3021 204.927 86.0312C204.718 85.7604 204.434 85.5419 204.077 85.3757C203.72 85.2095 203.283 85.1264 202.766 85.1264C202.071 85.1264 201.486 85.2772 201.012 85.5788C200.544 85.8804 200.313 86.2713 200.32 86.7514C200.313 87.1638 200.464 87.4993 200.772 87.7578C201.086 88.0163 201.603 88.2287 202.323 88.3949L204.742 88.9119C206.084 89.2012 207.081 89.6598 207.734 90.2876C208.392 90.9155 208.725 91.7372 208.731 92.7528C208.725 93.6454 208.463 94.4332 207.946 95.1165C207.435 95.7936 206.724 96.3229 205.813 96.7045C204.902 97.0862 203.856 97.277 202.674 97.277C200.938 97.277 199.541 96.9138 198.482 96.1875C197.424 95.455 196.793 94.4363 196.589 93.1314L199.849 92.8175C199.996 93.4576 200.31 93.9408 200.79 94.267C201.271 94.5933 201.895 94.7564 202.665 94.7564C203.459 94.7564 204.096 94.5933 204.576 94.267C205.062 93.9408 205.305 93.5376 205.305 93.0575C205.305 92.6513 205.148 92.3158 204.835 92.0511C204.527 91.7865 204.047 91.5833 203.394 91.4418L200.975 90.9339C199.615 90.6508 198.608 90.1738 197.956 89.5028C197.304 88.8258 196.98 87.9702 196.987 86.9361C196.98 86.062 197.217 85.3049 197.697 84.6648C198.184 84.0185 198.858 83.5199 199.719 83.169C200.587 82.812 201.588 82.6335 202.72 82.6335C204.382 82.6335 205.69 82.9875 206.644 83.6953C207.604 84.4032 208.198 85.3603 208.426 86.5668ZM217.765 97.277C216.343 97.277 215.115 96.9815 214.081 96.3906C213.053 95.7936 212.262 94.9503 211.708 93.8608C211.154 92.7652 210.877 91.4756 210.877 89.9922C210.877 88.5334 211.154 87.2531 211.708 86.1513C212.269 85.0433 213.05 84.1816 214.054 83.5661C215.057 82.9444 216.236 82.6335 217.59 82.6335C218.464 82.6335 219.289 82.7751 220.064 83.0582C220.846 83.3352 221.535 83.7661 222.132 84.3509C222.736 84.9356 223.21 85.6804 223.554 86.5852C223.899 87.4839 224.071 88.5549 224.071 89.7983V90.8232H212.447V88.5703H220.868C220.861 87.9302 220.723 87.3608 220.452 86.8622C220.181 86.3575 219.803 85.9605 219.316 85.6712C218.836 85.3819 218.276 85.2372 217.636 85.2372C216.953 85.2372 216.353 85.4034 215.836 85.7358C215.319 86.062 214.915 86.4929 214.626 87.0284C214.343 87.5578 214.198 88.1394 214.192 88.7734V90.7401C214.192 91.5649 214.343 92.2727 214.645 92.8636C214.946 93.4484 215.368 93.8977 215.909 94.2116C216.451 94.5194 217.085 94.6733 217.811 94.6733C218.298 94.6733 218.738 94.6056 219.132 94.4702C219.526 94.3286 219.867 94.1224 220.157 93.8516C220.446 93.5807 220.664 93.2453 220.812 92.8452L223.933 93.196C223.736 94.0208 223.36 94.741 222.806 95.3565C222.259 95.9659 221.557 96.4399 220.701 96.7784C219.846 97.1108 218.867 97.277 217.765 97.277ZM238.108 86.5668L235.061 86.8991C234.975 86.5914 234.824 86.3021 234.608 86.0312C234.399 85.7604 234.116 85.5419 233.759 85.3757C233.402 85.2095 232.965 85.1264 232.448 85.1264C231.752 85.1264 231.168 85.2772 230.694 85.5788C230.226 85.8804 229.995 86.2713 230.001 86.7514C229.995 87.1638 230.146 87.4993 230.454 87.7578C230.768 88.0163 231.285 88.2287 232.005 88.3949L234.424 88.9119C235.766 89.2012 236.763 89.6598 237.415 90.2876C238.074 90.9155 238.406 91.7372 238.412 92.7528C238.406 93.6454 238.145 94.4332 237.628 95.1165C237.117 95.7936 236.406 96.3229 235.495 96.7045C234.584 97.0862 233.537 97.277 232.356 97.277C230.62 97.277 229.223 96.9138 228.164 96.1875C227.105 95.455 226.474 94.4363 226.271 93.1314L229.53 92.8175C229.678 93.4576 229.992 93.9408 230.472 94.267C230.952 94.5933 231.577 94.7564 232.346 94.7564C233.14 94.7564 233.778 94.5933 234.258 94.267C234.744 93.9408 234.987 93.5376 234.987 93.0575C234.987 92.6513 234.83 92.3158 234.516 92.0511C234.208 91.7865 233.728 91.5833 233.076 91.4418L230.657 90.9339C229.296 90.6508 228.29 90.1738 227.638 89.5028C226.985 88.8258 226.662 87.9702 226.668 86.9361C226.662 86.062 226.899 85.3049 227.379 84.6648C227.865 84.0185 228.539 83.5199 229.401 83.169C230.269 82.812 231.269 82.6335 232.402 82.6335C234.064 82.6335 235.372 82.9875 236.326 83.6953C237.286 84.4032 237.88 85.3603 238.108 86.5668Z" fill="white"/>
<path d="M284 43.0171C285.643 43.6784 287.226 44.4129 288.747 45.2137C292.296 43.2403 296.645 42.0647 301.381 42.064C306.117 42.0647 310.466 43.2403 314.015 45.2137C315.535 44.4129 317.118 43.6792 318.761 43.0171C314.09 39.9573 308.026 38.096 301.381 38.0952C294.735 38.096 288.672 39.9565 284 43.0171Z" fill="#A50000"/>
<defs>
<filter id="filter0_d_161_635" x="0" y="0" width="377" height="144" filterUnits="userSpaceOnUse" color-interpolation-filters="sRGB">
<feFlood flood-opacity="0" result="BackgroundImageFix"/>
<feColorMatrix in="SourceAlpha" type="matrix" values="0 0 0 0 0 0 0 0 0 0 0 0 0 0 0 0 0 0 127 0" result="hardAlpha"/>
<feOffset/>
<feGaussianBlur stdDeviation="8"/>
<feComposite in2="hardAlpha" operator="out"/>
<feColorMatrix type="matrix" values="0 0 0 0 0.44391 0 0 0 0 0.44391 0 0 0 0 0.44391 0 0 0 0.25 0"/>
<feBlend mode="normal" in2="BackgroundImageFix" result="effect1_dropShadow_161_635"/>
<feBlend mode="normal" in="SourceGraphic" in2="effect1_dropShadow_161_635" result="shape"/>
</filter>
</defs>
</svg>
