<svg width="377" height="144" viewBox="0 0 377 144" fill="none" xmlns="http://www.w3.org/2000/svg">
<g filter="url(#filter0_d_0_3247)">
<path d="M346.364 16C346.364 20.4923 352.449 24.1338 359.955 24.1338C360.307 24.1338 360.655 24.1221 361 24.1064V118.015C360.655 117.999 360.307 117.988 359.955 117.988C352.449 117.988 346.364 121.631 346.364 126.123C346.364 126.769 346.491 127.397 346.729 128H29.2266C29.4645 127.397 29.5908 126.769 29.5908 126.123C29.5908 121.631 23.5061 117.988 16 117.988V24.1338C23.506 24.1338 29.5908 20.4923 29.5908 16H346.364Z" fill="#A50000"/>
</g>
<mask id="path-2-inside-1_0_3247" fill="white">
<path d="M339.043 24C339.043 27.8104 344.845 30.8994 352.003 30.8994C352.338 30.8994 352.671 30.8903 353 30.877V110.53C352.671 110.517 352.338 110.509 352.003 110.509C344.845 110.509 339.043 113.598 339.043 117.408C339.043 117.956 339.163 118.489 339.39 119H36.6133C36.8401 118.489 36.9609 117.956 36.9609 117.408C36.9609 113.598 31.1587 110.509 24.001 110.509H24V30.8984L24.001 30.8994C31.1587 30.8993 36.9609 27.8104 36.9609 24H339.043Z"/>
</mask>
<path d="M339.043 24C339.043 27.8104 344.845 30.8994 352.003 30.8994C352.338 30.8994 352.671 30.8903 353 30.877V110.53C352.671 110.517 352.338 110.509 352.003 110.509C344.845 110.509 339.043 113.598 339.043 117.408C339.043 117.956 339.163 118.489 339.39 119H36.6133C36.8401 118.489 36.9609 117.956 36.9609 117.408C36.9609 113.598 31.1587 110.509 24.001 110.509H24V30.8984L24.001 30.8994C31.1587 30.8993 36.9609 27.8104 36.9609 24H339.043Z" fill="#A50000"/>
<path d="M339.043 24H340.043V23H339.043V24ZM352.003 30.8994V31.8994V30.8994ZM353 30.877H354V29.8356L352.96 29.8778L353 30.877ZM353 110.53L352.96 111.529L354 111.572V110.53H353ZM352.003 110.509V109.509V110.509ZM339.043 117.408H338.043V117.408L339.043 117.408ZM339.39 119V120H340.927L340.304 118.594L339.39 119ZM36.6133 119L35.6992 118.594L35.0754 120H36.6133V119ZM36.9609 117.408L37.9609 117.408V117.408H36.9609ZM24.001 110.509L24.001 109.509H24.001V110.509ZM24 110.509H23V111.509H24V110.509ZM24 30.8984L24.7071 30.1913L23 28.4842V30.8984H24ZM24.001 30.8994L23.2939 31.6065L23.5868 31.8994L24.001 31.8994L24.001 30.8994ZM36.9609 24V23H35.9609V24H36.9609ZM339.043 24H338.043C338.043 26.4553 339.896 28.4446 342.369 29.7613C344.885 31.1011 348.293 31.8994 352.003 31.8994V30.8994V29.8994C348.555 29.8994 345.483 29.1532 343.309 27.9959C341.091 26.8155 340.043 25.3552 340.043 24H339.043ZM352.003 30.8994V31.8994C352.356 31.8994 352.703 31.8898 353.04 31.8761L353 30.877L352.96 29.8778C352.639 29.8908 352.321 29.8994 352.003 29.8994V30.8994ZM353 30.877H352V110.53H353H354V30.877H353ZM353 110.53L353.04 109.531C352.701 109.517 352.354 109.509 352.003 109.509V110.509V111.509C352.322 111.509 352.641 111.517 352.96 111.529L353 110.53ZM352.003 110.509V109.509C348.293 109.509 344.885 110.307 342.369 111.647C339.896 112.964 338.043 114.953 338.043 117.408H339.043H340.043C340.043 116.053 341.091 114.593 343.309 113.412C345.483 112.255 348.555 111.509 352.003 111.509V110.509ZM339.043 117.408L338.043 117.408C338.043 118.106 338.196 118.776 338.476 119.406L339.39 119L340.304 118.594C340.129 118.202 340.043 117.807 340.043 117.408L339.043 117.408ZM339.39 119V118H36.6133V119V120H339.39V119ZM36.6133 119L37.5273 119.406C37.8062 118.777 37.9609 118.107 37.9609 117.408L36.9609 117.408L35.9609 117.408C35.9609 117.806 35.874 118.201 35.6992 118.594L36.6133 119ZM36.9609 117.408H37.9609C37.9609 114.953 36.1083 112.964 33.635 111.647C31.1184 110.307 27.7105 109.509 24.001 109.509L24.001 110.509L24.001 111.509C27.4492 111.509 30.5213 112.255 32.6952 113.412C34.9125 114.593 35.9609 116.053 35.9609 117.408H36.9609ZM24.001 110.509V109.509H24V110.509V111.509H24.001V110.509ZM24 110.509H25V30.8984H24H23V110.509H24ZM24 30.8984L23.2929 31.6055L23.2939 31.6065L24.001 30.8994L24.7081 30.1923L24.7071 30.1913L24 30.8984ZM24.001 30.8994L24.001 31.8994C27.7105 31.8994 31.1184 31.1011 33.635 29.7613C36.1083 28.4446 37.9609 26.4552 37.9609 24H36.9609H35.9609C35.9609 25.3552 34.9125 26.8155 32.6952 27.9959C30.5213 29.1532 27.4492 29.8994 24.001 29.8994L24.001 30.8994ZM36.9609 24V25H339.043V24V23H36.9609V24Z" fill="#FFE2B4" mask="url(#path-2-inside-1_0_3247)"/>
<path d="M144.22 67H141.313V53.4219H138.657C137.938 53.4219 137.347 53.5286 136.884 53.7422C136.425 53.9505 136.084 54.2578 135.86 54.6641C135.642 55.0651 135.532 55.5495 135.532 56.1172C135.532 56.6849 135.642 57.1641 135.86 57.5547C136.079 57.9401 136.418 58.2344 136.876 58.4375C137.34 58.6354 137.928 58.7344 138.642 58.7344H142.532V61.1406H138.251C137.022 61.1406 135.985 60.9375 135.142 60.5312C134.298 60.1198 133.657 59.5391 133.22 58.7891C132.787 58.0339 132.571 57.1432 132.571 56.1172C132.571 55.0964 132.785 54.2031 133.212 53.4375C133.644 52.6667 134.28 52.0677 135.118 51.6406C135.957 51.2135 136.988 51 138.212 51H144.22V67ZM135.946 59.75H139.11L135.22 67H131.985L135.946 59.75ZM146.571 63.7109H149.376C149.402 64.1589 149.603 64.5052 149.978 64.75C150.353 64.9948 150.84 65.1172 151.438 65.1172C152.048 65.1172 152.561 64.9844 152.978 64.7187C153.399 64.4479 153.61 64.0391 153.61 63.4922C153.61 63.1693 153.53 62.8854 153.368 62.6406C153.207 62.3906 152.98 62.1979 152.688 62.0625C152.397 61.9271 152.053 61.8594 151.657 61.8594H149.821V59.8516H151.657C152.246 59.8516 152.691 59.7161 152.993 59.4453C153.3 59.1745 153.454 58.8333 153.454 58.4219C153.454 57.9792 153.293 57.6198 152.97 57.3437C152.652 57.0677 152.212 56.9297 151.649 56.9297C151.087 56.9297 150.618 57.0573 150.243 57.3125C149.873 57.5677 149.681 57.8958 149.665 58.2969H146.876C146.886 57.599 147.095 56.9922 147.501 56.4766C147.912 55.9609 148.465 55.5599 149.157 55.2734C149.855 54.987 150.642 54.8438 151.517 54.8438C152.454 54.8438 153.264 54.9844 153.946 55.2656C154.629 55.5469 155.155 55.9401 155.524 56.4453C155.894 56.9453 156.079 57.5339 156.079 58.2109C156.079 58.862 155.876 59.401 155.47 59.8281C155.063 60.25 154.517 60.5521 153.829 60.7344V60.8594C154.303 60.8854 154.73 61.0208 155.11 61.2656C155.491 61.5052 155.793 61.8307 156.017 62.2422C156.241 62.6536 156.353 63.1302 156.353 63.6719C156.353 64.4062 156.142 65.0417 155.72 65.5781C155.298 66.1094 154.717 66.5182 153.978 66.8047C153.243 67.0911 152.402 67.2344 151.454 67.2344C150.532 67.2344 149.707 67.0964 148.978 66.8203C148.254 66.5391 147.678 66.1354 147.251 65.6094C146.824 65.0833 146.597 64.4505 146.571 63.7109ZM160.493 58.9062H164.032C165.563 58.9062 166.748 59.2786 167.587 60.0234C168.425 60.7682 168.847 61.7448 168.853 62.9531C168.847 63.7396 168.655 64.4375 168.274 65.0469C167.899 65.6562 167.353 66.1354 166.634 66.4844C165.92 66.8281 165.053 67 164.032 67H158.579V55H161.306V64.6797H164.032C164.647 64.6797 165.152 64.5234 165.548 64.2109C165.944 63.8932 166.142 63.487 166.142 62.9922C166.142 62.4714 165.944 62.0469 165.548 61.7187C165.152 61.3906 164.647 61.2266 164.032 61.2266H160.493V58.9062ZM170.345 67V55H173.173V67H170.345ZM176.089 67V55H178.917V59.8437H179.948L183.558 55H186.964L182.519 60.8906L187.011 67H183.589L180.3 62.4766H178.917V67H176.089ZM193.354 67.2344C192.183 67.2344 191.167 66.9766 190.308 66.4609C189.448 65.9453 188.782 65.224 188.308 64.2969C187.839 63.3698 187.604 62.2865 187.604 61.0469C187.604 59.8073 187.839 58.7214 188.308 57.7891C188.782 56.8568 189.448 56.1328 190.308 55.6172C191.167 55.1016 192.183 54.8438 193.354 54.8438C194.526 54.8438 195.542 55.1016 196.401 55.6172C197.261 56.1328 197.925 56.8568 198.394 57.7891C198.868 58.7214 199.104 59.8073 199.104 61.0469C199.104 62.2865 198.868 63.3698 198.394 64.2969C197.925 65.224 197.261 65.9453 196.401 66.4609C195.542 66.9766 194.526 67.2344 193.354 67.2344ZM193.37 64.9687C194.006 64.9687 194.537 64.7943 194.964 64.4453C195.391 64.0911 195.709 63.6172 195.917 63.0234C196.131 62.4297 196.237 61.7682 196.237 61.0391C196.237 60.3047 196.131 59.6406 195.917 59.0469C195.709 58.4479 195.391 57.9714 194.964 57.6172C194.537 57.263 194.006 57.0859 193.37 57.0859C192.719 57.0859 192.177 57.263 191.745 57.6172C191.318 57.9714 190.998 58.4479 190.784 59.0469C190.576 59.6406 190.472 60.3047 190.472 61.0391C190.472 61.7682 190.576 62.4297 190.784 63.0234C190.998 63.6172 191.318 64.0911 191.745 64.4453C192.177 64.7943 192.719 64.9687 193.37 64.9687ZM201.505 67V55H206.544C207.966 55 209.088 55.2839 209.911 55.8516C210.739 56.4193 211.153 57.2109 211.153 58.2266C211.153 58.8984 210.919 59.4479 210.45 59.875C209.987 60.2969 209.354 60.5807 208.552 60.7266C209.182 60.7786 209.734 60.9375 210.208 61.2031C210.687 61.4687 211.062 61.8177 211.333 62.25C211.604 62.6823 211.739 63.1797 211.739 63.7422C211.739 64.4036 211.565 64.9792 211.216 65.4687C210.872 65.9531 210.369 66.3307 209.708 66.6016C209.052 66.8672 208.255 67 207.317 67H201.505ZM204.153 64.7734H207.317C207.838 64.7734 208.247 64.651 208.544 64.4062C208.841 64.1562 208.989 63.8177 208.989 63.3906C208.989 62.8958 208.841 62.5078 208.544 62.2266C208.247 61.9401 207.838 61.7969 207.317 61.7969H204.153V64.7734ZM204.153 59.9687H206.599C206.984 59.9687 207.315 59.9141 207.591 59.8047C207.867 59.6901 208.078 59.5313 208.224 59.3281C208.369 59.1198 208.442 58.8724 208.442 58.5859C208.442 58.1745 208.273 57.8516 207.935 57.6172C207.601 57.3828 207.138 57.2656 206.544 57.2656H204.153V59.9687ZM215.987 58.9062H219.526C221.058 58.9062 222.243 59.2786 223.081 60.0234C223.92 60.7682 224.341 61.7448 224.347 62.9531C224.341 63.7396 224.149 64.4375 223.769 65.0469C223.394 65.6562 222.847 66.1354 222.128 66.4844C221.414 66.8281 220.547 67 219.526 67H214.073V55H216.8V64.6797H219.526C220.141 64.6797 220.646 64.5234 221.042 64.2109C221.438 63.8932 221.636 63.487 221.636 62.9922C221.636 62.4714 221.438 62.0469 221.042 61.7187C220.646 61.3906 220.141 61.2266 219.526 61.2266H215.987V58.9062ZM225.839 67V55H228.667V67H225.839ZM236.896 67.2344C235.692 67.2344 234.653 66.9844 233.778 66.4844C232.909 65.9792 232.239 65.2656 231.771 64.3437C231.302 63.4167 231.067 62.3255 231.067 61.0703C231.067 59.8359 231.302 58.7526 231.771 57.8203C232.244 56.8828 232.906 56.1536 233.755 55.6328C234.604 55.1068 235.601 54.8438 236.747 54.8438C237.487 54.8438 238.185 54.9635 238.841 55.2031C239.502 55.4375 240.086 55.8021 240.591 56.2969C241.101 56.7917 241.502 57.4219 241.794 58.1875C242.086 58.9479 242.231 59.8542 242.231 60.9062V61.7734H232.396V59.8672H239.521C239.515 59.3255 239.398 58.8437 239.169 58.4219C238.94 57.9948 238.619 57.6589 238.208 57.4141C237.802 57.1693 237.328 57.0469 236.786 57.0469C236.208 57.0469 235.7 57.1875 235.263 57.4687C234.825 57.7448 234.484 58.1094 234.239 58.5625C234 59.0104 233.877 59.5026 233.872 60.0391V61.7031C233.872 62.401 234 63 234.255 63.5C234.51 63.9948 234.867 64.375 235.325 64.6406C235.784 64.901 236.32 65.0312 236.935 65.0312C237.346 65.0312 237.718 64.974 238.052 64.8594C238.385 64.7396 238.674 64.5651 238.919 64.3359C239.164 64.1068 239.349 63.8229 239.474 63.4844L242.114 63.7812C241.948 64.4792 241.63 65.0885 241.161 65.6094C240.698 66.125 240.104 66.526 239.38 66.8125C238.656 67.0937 237.828 67.2344 236.896 67.2344ZM153.81 94V82H156.638V86.8437H157.669L161.278 82H164.685L160.239 87.8906L164.731 94H161.31L158.021 89.4766H156.638V94H153.81ZM168.222 98.5C167.836 98.5 167.479 98.4688 167.151 98.4063C166.828 98.349 166.571 98.2813 166.378 98.2031L167.034 96C167.446 96.1198 167.813 96.1771 168.136 96.1719C168.459 96.1667 168.743 96.0651 168.987 95.8672C169.237 95.6745 169.448 95.3516 169.62 94.8984L169.862 94.25L165.511 82H168.511L171.276 91.0625H171.401L174.175 82H177.183L172.378 95.4531C172.154 96.0885 171.857 96.6328 171.487 97.0859C171.118 97.5443 170.664 97.8932 170.128 98.1328C169.597 98.3776 168.961 98.5 168.222 98.5ZM179.14 98.5V82H181.921V83.9844H182.085C182.231 83.6927 182.437 83.3828 182.702 83.0547C182.968 82.7214 183.327 82.4375 183.78 82.2031C184.233 81.9635 184.812 81.8438 185.515 81.8438C186.442 81.8438 187.278 82.0807 188.022 82.5547C188.772 83.0234 189.366 83.7187 189.804 84.6406C190.246 85.5573 190.468 86.6823 190.468 88.0156C190.468 89.3333 190.252 90.4531 189.819 91.375C189.387 92.2969 188.799 93 188.054 93.4844C187.309 93.9688 186.465 94.2109 185.522 94.2109C184.835 94.2109 184.265 94.0964 183.812 93.8672C183.358 93.638 182.994 93.362 182.718 93.0391C182.447 92.7109 182.236 92.401 182.085 92.1094H181.968V98.5H179.14ZM181.913 88C181.913 88.776 182.022 89.4557 182.241 90.0391C182.465 90.6224 182.785 91.0781 183.202 91.4062C183.624 91.7292 184.134 91.8906 184.733 91.8906C185.358 91.8906 185.882 91.724 186.304 91.3906C186.726 91.0521 187.043 90.5911 187.257 90.0078C187.476 89.4193 187.585 88.75 187.585 88C187.585 87.2552 187.478 86.5937 187.265 86.0156C187.051 85.4375 186.733 84.9844 186.312 84.6562C185.89 84.3281 185.364 84.1641 184.733 84.1641C184.129 84.1641 183.616 84.3229 183.194 84.6406C182.772 84.9583 182.452 85.4036 182.233 85.9766C182.02 86.5495 181.913 87.224 181.913 88ZM198.124 94.2344C196.926 94.2344 195.897 93.9714 195.038 93.4453C194.184 92.9193 193.525 92.1927 193.062 91.2656C192.603 90.3333 192.374 89.2604 192.374 88.0469C192.374 86.8281 192.608 85.7526 193.077 84.8203C193.546 83.8828 194.207 83.1536 195.062 82.6328C195.921 82.1068 196.937 81.8438 198.108 81.8438C199.082 81.8438 199.944 82.0234 200.694 82.3828C201.45 82.737 202.051 83.2396 202.499 83.8906C202.947 84.5365 203.202 85.2917 203.265 86.1562H200.562C200.452 85.5781 200.192 85.0964 199.78 84.7109C199.374 84.3203 198.83 84.125 198.147 84.125C197.569 84.125 197.062 84.2812 196.624 84.5937C196.187 84.901 195.845 85.3437 195.601 85.9219C195.361 86.5 195.241 87.1927 195.241 88C195.241 88.8177 195.361 89.5208 195.601 90.1094C195.84 90.6927 196.176 91.1432 196.608 91.4609C197.046 91.7734 197.559 91.9297 198.147 91.9297C198.564 91.9297 198.937 91.8516 199.265 91.6953C199.598 91.5339 199.877 91.3021 200.101 91C200.325 90.6979 200.478 90.3307 200.562 89.8984H203.265C203.197 90.7474 202.947 91.5 202.515 92.1562C202.082 92.8073 201.494 93.3177 200.749 93.6875C200.004 94.0521 199.129 94.2344 198.124 94.2344ZM207.501 85.9062H211.04C212.571 85.9062 213.756 86.2786 214.595 87.0234C215.433 87.7682 215.855 88.7448 215.86 89.9531C215.855 90.7396 215.662 91.4375 215.282 92.0469C214.907 92.6562 214.36 93.1354 213.642 93.4844C212.928 93.8281 212.061 94 211.04 94H205.587V82H208.313V91.6797H211.04C211.655 91.6797 212.16 91.5234 212.556 91.2109C212.951 90.8932 213.149 90.487 213.149 89.9922C213.149 89.4714 212.951 89.0469 212.556 88.7187C212.16 88.3906 211.655 88.2266 211.04 88.2266H207.501V85.9062ZM217.353 94V82H220.181V94H217.353Z" fill="white"/>
<path d="M284 43.0171C285.643 43.6784 287.226 44.4129 288.747 45.2137C292.296 43.2403 296.645 42.0647 301.381 42.064C306.117 42.0647 310.466 43.2403 314.015 45.2137C315.535 44.4129 317.118 43.6792 318.761 43.0171C314.09 39.9573 308.026 38.096 301.381 38.0952C294.735 38.096 288.672 39.9565 284 43.0171Z" fill="#A50000"/>
<defs>
<filter id="filter0_d_0_3247" x="0" y="0" width="377" height="144" filterUnits="userSpaceOnUse" color-interpolation-filters="sRGB">
<feFlood flood-opacity="0" result="BackgroundImageFix"/>
<feColorMatrix in="SourceAlpha" type="matrix" values="0 0 0 0 0 0 0 0 0 0 0 0 0 0 0 0 0 0 127 0" result="hardAlpha"/>
<feOffset/>
<feGaussianBlur stdDeviation="8"/>
<feComposite in2="hardAlpha" operator="out"/>
<feColorMatrix type="matrix" values="0 0 0 0 0.44391 0 0 0 0 0.44391 0 0 0 0 0.44391 0 0 0 0.25 0"/>
<feBlend mode="normal" in2="BackgroundImageFix" result="effect1_dropShadow_0_3247"/>
<feBlend mode="normal" in="SourceGraphic" in2="effect1_dropShadow_0_3247" result="shape"/>
</filter>
</defs>
</svg>
