<svg width="377" height="144" viewBox="0 0 377 144" fill="none" xmlns="http://www.w3.org/2000/svg">
<g filter="url(#filter0_d_161_603)">
<path d="M346.364 16C346.364 20.4923 352.449 24.1338 359.955 24.1338C360.307 24.1338 360.655 24.1221 361 24.1064V118.015C360.655 117.999 360.307 117.988 359.955 117.988C352.449 117.988 346.364 121.631 346.364 126.123C346.364 126.769 346.491 127.397 346.729 128H29.2266C29.4645 127.397 29.5908 126.769 29.5908 126.123C29.5908 121.631 23.5061 117.988 16 117.988V24.1338C23.506 24.1338 29.5908 20.4923 29.5908 16H346.364Z" fill="#A50000"/>
</g>
<mask id="path-2-inside-1_161_603" fill="white">
<path d="M339.043 24C339.043 27.8104 344.845 30.8994 352.003 30.8994C352.338 30.8994 352.671 30.8903 353 30.877V110.53C352.671 110.517 352.338 110.509 352.003 110.509C344.845 110.509 339.043 113.598 339.043 117.408C339.043 117.956 339.163 118.489 339.39 119H36.6133C36.8401 118.489 36.9609 117.956 36.9609 117.408C36.9609 113.598 31.1587 110.509 24.001 110.509H24V30.8984L24.001 30.8994C31.1587 30.8993 36.9609 27.8104 36.9609 24H339.043Z"/>
</mask>
<path d="M339.043 24C339.043 27.8104 344.845 30.8994 352.003 30.8994C352.338 30.8994 352.671 30.8903 353 30.877V110.53C352.671 110.517 352.338 110.509 352.003 110.509C344.845 110.509 339.043 113.598 339.043 117.408C339.043 117.956 339.163 118.489 339.39 119H36.6133C36.8401 118.489 36.9609 117.956 36.9609 117.408C36.9609 113.598 31.1587 110.509 24.001 110.509H24V30.8984L24.001 30.8994C31.1587 30.8993 36.9609 27.8104 36.9609 24H339.043Z" fill="#A50000"/>
<path d="M339.043 24H340.043V23H339.043V24ZM352.003 30.8994L352.003 31.8994H352.003V30.8994ZM353 30.877H354V29.8356L352.96 29.8778L353 30.877ZM353 110.53L352.96 111.529L354 111.572V110.53H353ZM352.003 110.509L352.003 109.509L352.003 109.509L352.003 110.509ZM339.043 117.408L338.043 117.408L338.043 117.408L339.043 117.408ZM339.39 119V120H340.927L340.304 118.594L339.39 119ZM36.6133 119L35.6992 118.594L35.0754 120H36.6133V119ZM36.9609 117.408L37.9609 117.408V117.408H36.9609ZM24.001 110.509L24.001 109.509H24.001V110.509ZM24 110.509H23V111.509H24V110.509ZM24 30.8984L24.7071 30.1913L23 28.4842V30.8984H24ZM24.001 30.8994L23.2939 31.6065L23.5868 31.8994L24.001 31.8994L24.001 30.8994ZM36.9609 24V23H35.9609V24H36.9609ZM339.043 24H338.043C338.043 26.4553 339.896 28.4446 342.369 29.7613C344.885 31.1011 348.293 31.8994 352.003 31.8994L352.003 30.8994L352.003 29.8994C348.555 29.8994 345.483 29.1532 343.309 27.9959C341.091 26.8155 340.043 25.3552 340.043 24H339.043ZM352.003 30.8994V31.8994C352.356 31.8994 352.703 31.8898 353.04 31.8761L353 30.877L352.96 29.8778C352.639 29.8908 352.321 29.8994 352.003 29.8994V30.8994ZM353 30.877H352V110.53H353H354V30.877H353ZM353 110.53L353.04 109.531C352.701 109.517 352.354 109.509 352.003 109.509V110.509V111.509C352.322 111.509 352.641 111.517 352.96 111.529L353 110.53ZM352.003 110.509L352.003 109.509C348.293 109.509 344.885 110.307 342.369 111.647C339.896 112.964 338.043 114.953 338.043 117.408H339.043H340.043C340.043 116.053 341.091 114.593 343.309 113.412C345.483 112.255 348.555 111.509 352.003 111.509L352.003 110.509ZM339.043 117.408L338.043 117.408C338.043 118.106 338.196 118.776 338.476 119.406L339.39 119L340.304 118.594C340.129 118.202 340.043 117.807 340.043 117.408L339.043 117.408ZM339.39 119V118H36.6133V119V120H339.39V119ZM36.6133 119L37.5273 119.406C37.8062 118.777 37.9609 118.107 37.9609 117.408L36.9609 117.408L35.9609 117.408C35.9609 117.806 35.874 118.201 35.6992 118.594L36.6133 119ZM36.9609 117.408H37.9609C37.9609 114.953 36.1083 112.964 33.635 111.647C31.1184 110.307 27.7105 109.509 24.001 109.509L24.001 110.509L24.001 111.509C27.4492 111.509 30.5213 112.255 32.6952 113.412C34.9125 114.593 35.9609 116.053 35.9609 117.408H36.9609ZM24.001 110.509V109.509H24V110.509V111.509H24.001V110.509ZM24 110.509H25V30.8984H24H23V110.509H24ZM24 30.8984L23.2929 31.6055L23.2939 31.6065L24.001 30.8994L24.7081 30.1923L24.7071 30.1913L24 30.8984ZM24.001 30.8994L24.001 31.8994C27.7105 31.8994 31.1184 31.1011 33.635 29.7613C36.1083 28.4446 37.9609 26.4552 37.9609 24H36.9609H35.9609C35.9609 25.3552 34.9125 26.8155 32.6952 27.9959C30.5213 29.1532 27.4492 29.8994 24.001 29.8994L24.001 30.8994ZM36.9609 24V25H339.043V24V23H36.9609V24Z" fill="#D9B881" mask="url(#path-2-inside-1_161_603)"/>
<path d="M161.689 56.1293C161.535 55.6307 161.323 55.1844 161.052 54.7905C160.787 54.3904 160.467 54.0488 160.092 53.7656C159.722 53.4825 159.298 53.2701 158.817 53.1286C158.337 52.9808 157.814 52.907 157.248 52.907C156.232 52.907 155.327 53.1624 154.533 53.6733C153.739 54.1842 153.115 54.9351 152.659 55.9261C152.21 56.911 151.985 58.1113 151.985 59.527C151.985 60.955 152.21 62.1645 152.659 63.1555C153.108 64.1465 153.733 64.9006 154.533 65.4176C155.334 65.9285 156.263 66.1839 157.322 66.1839C158.282 66.1839 159.113 65.9993 159.815 65.63C160.522 65.2607 161.067 64.7375 161.449 64.0604C161.83 63.3771 162.021 62.5769 162.021 61.6598L162.797 61.7798H157.663V59.1023H165.336V61.3736C165.336 62.9924 164.991 64.3928 164.302 65.5746C163.612 66.7564 162.665 67.6674 161.458 68.3075C160.252 68.9415 158.867 69.2585 157.303 69.2585C155.561 69.2585 154.032 68.8677 152.714 68.0859C151.403 67.2981 150.379 66.1809 149.64 64.7344C148.907 63.2817 148.541 61.5582 148.541 59.5639C148.541 58.0374 148.757 56.674 149.188 55.4737C149.625 54.2734 150.234 53.2547 151.016 52.4176C151.797 51.5743 152.714 50.9342 153.767 50.4972C154.82 50.054 155.964 49.8324 157.202 49.8324C158.248 49.8324 159.224 49.9863 160.129 50.294C161.033 50.5956 161.837 51.0265 162.538 51.5866C163.246 52.1468 163.828 52.8116 164.283 53.581C164.739 54.3504 165.037 55.1998 165.179 56.1293H161.689ZM168.501 69V54.8182H171.741V57.1818H171.889C172.148 56.3632 172.591 55.7322 173.219 55.2891C173.853 54.8397 174.576 54.6151 175.388 54.6151C175.573 54.6151 175.779 54.6243 176.007 54.6428C176.241 54.6551 176.435 54.6766 176.589 54.7074V57.782C176.447 57.7327 176.222 57.6896 175.915 57.6527C175.613 57.6096 175.321 57.5881 175.037 57.5881C174.428 57.5881 173.88 57.7204 173.394 57.9851C172.914 58.2436 172.535 58.6037 172.258 59.0653C171.981 59.527 171.843 60.0594 171.843 60.6626V69H168.501ZM184.411 69.277C183.026 69.277 181.826 68.9723 180.81 68.3629C179.795 67.7536 179.007 66.901 178.447 65.8054C177.893 64.7098 177.616 63.4295 177.616 61.9645C177.616 60.4995 177.893 59.2161 178.447 58.1143C179.007 57.0125 179.795 56.157 180.81 55.5476C181.826 54.9382 183.026 54.6335 184.411 54.6335C185.796 54.6335 186.996 54.9382 188.012 55.5476C189.028 56.157 189.813 57.0125 190.366 58.1143C190.927 59.2161 191.207 60.4995 191.207 61.9645C191.207 63.4295 190.927 64.7098 190.366 65.8054C189.813 66.901 189.028 67.7536 188.012 68.3629C186.996 68.9723 185.796 69.277 184.411 69.277ZM184.43 66.5994C185.181 66.5994 185.808 66.3932 186.313 65.9808C186.818 65.5623 187.193 65.0021 187.44 64.3004C187.692 63.5987 187.818 62.817 187.818 61.9553C187.818 61.0874 187.692 60.3026 187.44 59.6009C187.193 58.893 186.818 58.3298 186.313 57.9112C185.808 57.4927 185.181 57.2834 184.43 57.2834C183.66 57.2834 183.02 57.4927 182.509 57.9112C182.004 58.3298 181.626 58.893 181.374 59.6009C181.127 60.3026 181.004 61.0874 181.004 61.9553C181.004 62.817 181.127 63.5987 181.374 64.3004C181.626 65.0021 182.004 65.5623 182.509 65.9808C183.02 66.3932 183.66 66.5994 184.43 66.5994ZM203.083 63.0355V54.8182H206.425V69H203.184V66.4794H203.036C202.716 67.2734 202.19 67.9228 201.458 68.4276C200.731 68.9323 199.836 69.1847 198.771 69.1847C197.841 69.1847 197.02 68.9785 196.306 68.5661C195.598 68.1475 195.044 67.5412 194.644 66.7472C194.244 65.947 194.044 64.9806 194.044 63.848V54.8182H197.386V63.331C197.386 64.2296 197.632 64.9437 198.124 65.473C198.617 66.0024 199.263 66.267 200.063 66.267C200.556 66.267 201.033 66.147 201.494 65.907C201.956 65.6669 202.335 65.3099 202.63 64.8359C202.932 64.3558 203.083 63.7557 203.083 63.0355ZM209.862 74.3182V54.8182H213.149V57.1634H213.343C213.515 56.8187 213.758 56.4524 214.072 56.0646C214.386 55.6707 214.811 55.3352 215.346 55.0582C215.882 54.7751 216.565 54.6335 217.396 54.6335C218.492 54.6335 219.48 54.9136 220.36 55.4737C221.246 56.0277 221.948 56.8494 222.465 57.9389C222.988 59.0223 223.25 60.3518 223.25 61.9276C223.25 63.4848 222.994 64.8082 222.483 65.8977C221.972 66.9872 221.277 67.8182 220.397 68.3906C219.516 68.9631 218.519 69.2493 217.405 69.2493C216.593 69.2493 215.919 69.1139 215.383 68.843C214.848 68.5722 214.417 68.246 214.091 67.8643C213.77 67.4766 213.521 67.1103 213.343 66.7656H213.204V74.3182H209.862ZM213.14 61.9091C213.14 62.8262 213.269 63.6295 213.527 64.3189C213.792 65.0083 214.171 65.5469 214.663 65.9347C215.162 66.3163 215.765 66.5071 216.473 66.5071C217.211 66.5071 217.83 66.3101 218.328 65.9162C218.827 65.5161 219.203 64.9714 219.455 64.282C219.713 63.5864 219.843 62.7955 219.843 61.9091C219.843 61.0289 219.717 60.2472 219.464 59.5639C219.212 58.8807 218.836 58.3452 218.338 57.9574C217.839 57.5696 217.217 57.3757 216.473 57.3757C215.759 57.3757 215.152 57.5634 214.654 57.9389C214.155 58.3144 213.777 58.8407 213.518 59.5178C213.266 60.1948 213.14 60.992 213.14 61.9091ZM149.436 97.277C148.02 97.277 146.804 96.9661 145.789 96.3445C144.779 95.7228 144.001 94.8641 143.453 93.7685C142.911 92.6667 142.64 91.3987 142.64 89.9645C142.64 88.5241 142.917 87.2531 143.471 86.1513C144.025 85.0433 144.807 84.1816 145.816 83.5661C146.832 82.9444 148.032 82.6335 149.417 82.6335C150.568 82.6335 151.587 82.8459 152.473 83.2706C153.366 83.6892 154.077 84.2831 154.606 85.0526C155.135 85.8158 155.437 86.7083 155.511 87.7301H152.316C152.187 87.0469 151.879 86.4775 151.393 86.022C150.913 85.5604 150.27 85.3295 149.463 85.3295C148.78 85.3295 148.18 85.5142 147.663 85.8835C147.146 86.2467 146.743 86.7699 146.453 87.4531C146.17 88.1364 146.029 88.955 146.029 89.9091C146.029 90.8755 146.17 91.7064 146.453 92.402C146.737 93.0914 147.134 93.6238 147.644 93.9993C148.161 94.3686 148.768 94.5533 149.463 94.5533C149.956 94.5533 150.396 94.4609 150.784 94.2763C151.178 94.0855 151.507 93.8116 151.772 93.4545C152.036 93.0975 152.218 92.6636 152.316 92.1527H155.511C155.431 93.156 155.135 94.0455 154.625 94.821C154.114 95.5904 153.418 96.1937 152.538 96.6307C151.658 97.0616 150.624 97.277 149.436 97.277ZM161.598 78.0909V97H158.255V78.0909H161.598ZM169.116 97.2862C168.217 97.2862 167.408 97.1262 166.687 96.8061C165.973 96.4799 165.407 95.9998 164.989 95.3658C164.576 94.7318 164.37 93.95 164.37 93.0206C164.37 92.2204 164.518 91.5587 164.813 91.0355C165.109 90.5123 165.512 90.0938 166.023 89.7798C166.534 89.4659 167.109 89.2289 167.749 89.0689C168.396 88.9027 169.063 88.7827 169.753 88.7088C170.584 88.6226 171.258 88.5457 171.775 88.478C172.292 88.4041 172.667 88.2933 172.901 88.1456C173.141 87.9917 173.261 87.7547 173.261 87.4347V87.3793C173.261 86.6837 173.055 86.1451 172.643 85.7635C172.23 85.3819 171.636 85.1911 170.861 85.1911C170.042 85.1911 169.393 85.3696 168.913 85.7266C168.439 86.0836 168.119 86.5052 167.952 86.9915L164.832 86.5483C165.078 85.6866 165.484 84.9664 166.05 84.3878C166.617 83.803 167.309 83.366 168.128 83.0767C168.946 82.7812 169.851 82.6335 170.842 82.6335C171.525 82.6335 172.206 82.7135 172.883 82.8736C173.56 83.0336 174.178 83.2983 174.739 83.6676C175.299 84.0308 175.748 84.5263 176.087 85.1541C176.431 85.782 176.604 86.5668 176.604 87.5085V97H173.391V95.0518H173.28C173.077 95.4458 172.79 95.8151 172.421 96.1598C172.058 96.4983 171.599 96.7723 171.045 96.9815C170.498 97.1847 169.854 97.2862 169.116 97.2862ZM169.984 94.8303C170.655 94.8303 171.236 94.6979 171.729 94.4332C172.221 94.1624 172.6 93.8054 172.864 93.3622C173.135 92.919 173.271 92.4358 173.271 91.9126V90.2415C173.166 90.3277 172.987 90.4077 172.735 90.4815C172.489 90.5554 172.212 90.62 171.904 90.6754C171.596 90.7308 171.292 90.7801 170.99 90.8232C170.688 90.8662 170.427 90.9032 170.205 90.9339C169.707 91.0017 169.26 91.1125 168.866 91.2663C168.472 91.4202 168.162 91.6357 167.934 91.9126C167.706 92.1835 167.592 92.5343 167.592 92.9652C167.592 93.5807 167.817 94.0455 168.266 94.3594C168.716 94.6733 169.288 94.8303 169.984 94.8303ZM191.173 86.5668L188.126 86.8991C188.04 86.5914 187.889 86.3021 187.674 86.0312C187.465 85.7604 187.181 85.5419 186.824 85.3757C186.467 85.2095 186.03 85.1264 185.513 85.1264C184.818 85.1264 184.233 85.2772 183.759 85.5788C183.291 85.8804 183.061 86.2713 183.067 86.7514C183.061 87.1638 183.211 87.4993 183.519 87.7578C183.833 88.0163 184.35 88.2287 185.07 88.3949L187.489 88.9119C188.831 89.2012 189.828 89.6598 190.481 90.2876C191.139 90.9155 191.472 91.7372 191.478 92.7528C191.472 93.6454 191.21 94.4332 190.693 95.1165C190.182 95.7936 189.471 96.3229 188.56 96.7045C187.649 97.0862 186.603 97.277 185.421 97.277C183.685 97.277 182.288 96.9138 181.229 96.1875C180.171 95.455 179.54 94.4363 179.337 93.1314L182.596 92.8175C182.744 93.4576 183.057 93.9408 183.538 94.267C184.018 94.5933 184.642 94.7564 185.412 94.7564C186.206 94.7564 186.843 94.5933 187.323 94.267C187.809 93.9408 188.052 93.5376 188.052 93.0575C188.052 92.6513 187.896 92.3158 187.582 92.0511C187.274 91.7865 186.794 91.5833 186.141 91.4418L183.722 90.9339C182.362 90.6508 181.355 90.1738 180.703 89.5028C180.051 88.8258 179.727 87.9702 179.734 86.9361C179.727 86.062 179.964 85.3049 180.445 84.6648C180.931 84.0185 181.605 83.5199 182.467 83.169C183.334 82.812 184.335 82.6335 185.467 82.6335C187.129 82.6335 188.437 82.9875 189.391 83.6953C190.351 84.4032 190.945 85.3603 191.173 86.5668ZM205.443 86.5668L202.396 86.8991C202.31 86.5914 202.159 86.3021 201.943 86.0312C201.734 85.7604 201.451 85.5419 201.094 85.3757C200.737 85.2095 200.3 85.1264 199.783 85.1264C199.087 85.1264 198.503 85.2772 198.029 85.5788C197.561 85.8804 197.33 86.2713 197.336 86.7514C197.33 87.1638 197.481 87.4993 197.789 87.7578C198.103 88.0163 198.62 88.2287 199.34 88.3949L201.759 88.9119C203.101 89.2012 204.098 89.6598 204.75 90.2876C205.409 90.9155 205.741 91.7372 205.747 92.7528C205.741 93.6454 205.48 94.4332 204.963 95.1165C204.452 95.7936 203.741 96.3229 202.83 96.7045C201.919 97.0862 200.872 97.277 199.691 97.277C197.955 97.277 196.558 96.9138 195.499 96.1875C194.44 95.455 193.809 94.4363 193.606 93.1314L196.865 92.8175C197.013 93.4576 197.327 93.9408 197.807 94.267C198.287 94.5933 198.912 94.7564 199.681 94.7564C200.475 94.7564 201.112 94.5933 201.593 94.267C202.079 93.9408 202.322 93.5376 202.322 93.0575C202.322 92.6513 202.165 92.3158 201.851 92.0511C201.543 91.7865 201.063 91.5833 200.411 91.4418L197.992 90.9339C196.631 90.6508 195.625 90.1738 194.973 89.5028C194.32 88.8258 193.997 87.9702 194.003 86.9361C193.997 86.062 194.234 85.3049 194.714 84.6648C195.2 84.0185 195.874 83.5199 196.736 83.169C197.604 82.812 198.604 82.6335 199.737 82.6335C201.399 82.6335 202.707 82.9875 203.661 83.6953C204.621 84.4032 205.215 85.3603 205.443 86.5668ZM214.782 97.277C213.36 97.277 212.132 96.9815 211.098 96.3906C210.07 95.7936 209.279 94.9503 208.725 93.8608C208.171 92.7652 207.894 91.4756 207.894 89.9922C207.894 88.5334 208.171 87.2531 208.725 86.1513C209.285 85.0433 210.067 84.1816 211.07 83.5661C212.074 82.9444 213.252 82.6335 214.606 82.6335C215.48 82.6335 216.305 82.7751 217.081 83.0582C217.863 83.3352 218.552 83.7661 219.149 84.3509C219.752 84.9356 220.226 85.6804 220.571 86.5852C220.916 87.4839 221.088 88.5549 221.088 89.7983V90.8232H209.464V88.5703H217.884C217.878 87.9302 217.739 87.3608 217.469 86.8622C217.198 86.3575 216.819 85.9605 216.333 85.6712C215.853 85.3819 215.293 85.2372 214.653 85.2372C213.969 85.2372 213.369 85.4034 212.852 85.7358C212.335 86.062 211.932 86.4929 211.643 87.0284C211.36 87.5578 211.215 88.1394 211.209 88.7734V90.7401C211.209 91.5649 211.36 92.2727 211.661 92.8636C211.963 93.4484 212.384 93.8977 212.926 94.2116C213.468 94.5194 214.102 94.6733 214.828 94.6733C215.314 94.6733 215.754 94.6056 216.148 94.4702C216.542 94.3286 216.884 94.1224 217.173 93.8516C217.463 93.5807 217.681 93.2453 217.829 92.8452L220.949 93.196C220.753 94.0208 220.377 94.741 219.823 95.3565C219.275 95.9659 218.574 96.4399 217.718 96.7784C216.862 97.1108 215.884 97.277 214.782 97.277ZM235.124 86.5668L232.078 86.8991C231.991 86.5914 231.841 86.3021 231.625 86.0312C231.416 85.7604 231.133 85.5419 230.776 85.3757C230.419 85.2095 229.982 85.1264 229.465 85.1264C228.769 85.1264 228.184 85.2772 227.71 85.5788C227.243 85.8804 227.012 86.2713 227.018 86.7514C227.012 87.1638 227.162 87.4993 227.47 87.7578C227.784 88.0163 228.301 88.2287 229.021 88.3949L231.44 88.9119C232.782 89.2012 233.779 89.6598 234.432 90.2876C235.091 90.9155 235.423 91.7372 235.429 92.7528C235.423 93.6454 235.161 94.4332 234.644 95.1165C234.133 95.7936 233.422 96.3229 232.511 96.7045C231.6 97.0862 230.554 97.277 229.372 97.277C227.636 97.277 226.239 96.9138 225.18 96.1875C224.122 95.455 223.491 94.4363 223.288 93.1314L226.547 92.8175C226.695 93.4576 227.009 93.9408 227.489 94.267C227.969 94.5933 228.594 94.7564 229.363 94.7564C230.157 94.7564 230.794 94.5933 231.274 94.267C231.761 93.9408 232.004 93.5376 232.004 93.0575C232.004 92.6513 231.847 92.3158 231.533 92.0511C231.225 91.7865 230.745 91.5833 230.092 91.4418L227.673 90.9339C226.313 90.6508 225.307 90.1738 224.654 89.5028C224.002 88.8258 223.679 87.9702 223.685 86.9361C223.679 86.062 223.916 85.3049 224.396 84.6648C224.882 84.0185 225.556 83.5199 226.418 83.169C227.286 82.812 228.286 82.6335 229.418 82.6335C231.08 82.6335 232.388 82.9875 233.342 83.6953C234.303 84.4032 234.897 85.3603 235.124 86.5668Z" fill="white"/>
<path d="M284 43.0171C285.643 43.6784 287.226 44.4129 288.747 45.2137C292.296 43.2403 296.645 42.0647 301.381 42.064C306.117 42.0647 310.466 43.2403 314.015 45.2137C315.535 44.4129 317.118 43.6792 318.761 43.0171C314.09 39.9573 308.026 38.096 301.381 38.0952C294.735 38.096 288.672 39.9565 284 43.0171Z" fill="#A50000"/>
<defs>
<filter id="filter0_d_161_603" x="0" y="0" width="377" height="144" filterUnits="userSpaceOnUse" color-interpolation-filters="sRGB">
<feFlood flood-opacity="0" result="BackgroundImageFix"/>
<feColorMatrix in="SourceAlpha" type="matrix" values="0 0 0 0 0 0 0 0 0 0 0 0 0 0 0 0 0 0 127 0" result="hardAlpha"/>
<feOffset/>
<feGaussianBlur stdDeviation="8"/>
<feComposite in2="hardAlpha" operator="out"/>
<feColorMatrix type="matrix" values="0 0 0 0 0.44391 0 0 0 0 0.44391 0 0 0 0 0.44391 0 0 0 0.25 0"/>
<feBlend mode="normal" in2="BackgroundImageFix" result="effect1_dropShadow_161_603"/>
<feBlend mode="normal" in="SourceGraphic" in2="effect1_dropShadow_161_603" result="shape"/>
</filter>
</defs>
</svg>
