<svg width="377" height="144" viewBox="0 0 377 144" fill="none" xmlns="http://www.w3.org/2000/svg">
<g filter="url(#filter0_d_0_3217)">
<path d="M346.364 16C346.364 20.4923 352.449 24.1338 359.955 24.1338C360.307 24.1338 360.655 24.1221 361 24.1064V118.015C360.655 117.999 360.307 117.988 359.955 117.988C352.449 117.988 346.364 121.631 346.364 126.123C346.364 126.769 346.491 127.397 346.729 128H29.2266C29.4645 127.397 29.5908 126.769 29.5908 126.123C29.5908 121.631 23.5061 117.988 16 117.988V24.1338C23.506 24.1338 29.5908 20.4923 29.5908 16H346.364Z" fill="#A50000"/>
</g>
<mask id="path-2-inside-1_0_3217" fill="white">
<path d="M339.043 24C339.043 27.8104 344.845 30.8994 352.003 30.8994C352.338 30.8994 352.671 30.8903 353 30.877V110.53C352.671 110.517 352.338 110.509 352.003 110.509C344.845 110.509 339.043 113.598 339.043 117.408C339.043 117.956 339.163 118.489 339.39 119H36.6133C36.8401 118.489 36.9609 117.956 36.9609 117.408C36.9609 113.598 31.1587 110.509 24.001 110.509H24V30.8984L24.001 30.8994C31.1587 30.8993 36.9609 27.8104 36.9609 24H339.043Z"/>
</mask>
<path d="M339.043 24C339.043 27.8104 344.845 30.8994 352.003 30.8994C352.338 30.8994 352.671 30.8903 353 30.877V110.53C352.671 110.517 352.338 110.509 352.003 110.509C344.845 110.509 339.043 113.598 339.043 117.408C339.043 117.956 339.163 118.489 339.39 119H36.6133C36.8401 118.489 36.9609 117.956 36.9609 117.408C36.9609 113.598 31.1587 110.509 24.001 110.509H24V30.8984L24.001 30.8994C31.1587 30.8993 36.9609 27.8104 36.9609 24H339.043Z" fill="#A50000"/>
<path d="M339.043 24H340.043V23H339.043V24ZM352.003 30.8994V31.8994V30.8994ZM353 30.877H354V29.8356L352.96 29.8778L353 30.877ZM353 110.53L352.96 111.529L354 111.572V110.53H353ZM352.003 110.509V109.509V110.509ZM339.043 117.408H338.043V117.408L339.043 117.408ZM339.39 119V120H340.927L340.304 118.594L339.39 119ZM36.6133 119L35.6992 118.594L35.0754 120H36.6133V119ZM36.9609 117.408L37.9609 117.408V117.408H36.9609ZM24.001 110.509L24.001 109.509H24.001V110.509ZM24 110.509H23V111.509H24V110.509ZM24 30.8984L24.7071 30.1913L23 28.4842V30.8984H24ZM24.001 30.8994L23.2939 31.6065L23.5868 31.8994L24.001 31.8994L24.001 30.8994ZM36.9609 24V23H35.9609V24H36.9609ZM339.043 24H338.043C338.043 26.4553 339.896 28.4446 342.369 29.7613C344.885 31.1011 348.293 31.8994 352.003 31.8994V30.8994V29.8994C348.555 29.8994 345.483 29.1532 343.309 27.9959C341.091 26.8155 340.043 25.3552 340.043 24H339.043ZM352.003 30.8994V31.8994C352.356 31.8994 352.703 31.8898 353.04 31.8761L353 30.877L352.96 29.8778C352.639 29.8908 352.321 29.8994 352.003 29.8994V30.8994ZM353 30.877H352V110.53H353H354V30.877H353ZM353 110.53L353.04 109.531C352.701 109.517 352.354 109.509 352.003 109.509V110.509V111.509C352.322 111.509 352.641 111.517 352.96 111.529L353 110.53ZM352.003 110.509V109.509C348.293 109.509 344.885 110.307 342.369 111.647C339.896 112.964 338.043 114.953 338.043 117.408H339.043H340.043C340.043 116.053 341.091 114.593 343.309 113.412C345.483 112.255 348.555 111.509 352.003 111.509V110.509ZM339.043 117.408L338.043 117.408C338.043 118.106 338.196 118.776 338.476 119.406L339.39 119L340.304 118.594C340.129 118.202 340.043 117.807 340.043 117.408L339.043 117.408ZM339.39 119V118H36.6133V119V120H339.39V119ZM36.6133 119L37.5273 119.406C37.8062 118.777 37.9609 118.107 37.9609 117.408L36.9609 117.408L35.9609 117.408C35.9609 117.806 35.874 118.201 35.6992 118.594L36.6133 119ZM36.9609 117.408H37.9609C37.9609 114.953 36.1083 112.964 33.635 111.647C31.1184 110.307 27.7105 109.509 24.001 109.509L24.001 110.509L24.001 111.509C27.4492 111.509 30.5213 112.255 32.6952 113.412C34.9125 114.593 35.9609 116.053 35.9609 117.408H36.9609ZM24.001 110.509V109.509H24V110.509V111.509H24.001V110.509ZM24 110.509H25V30.8984H24H23V110.509H24ZM24 30.8984L23.2929 31.6055L23.2939 31.6065L24.001 30.8994L24.7081 30.1923L24.7071 30.1913L24 30.8984ZM24.001 30.8994L24.001 31.8994C27.7105 31.8994 31.1184 31.1011 33.635 29.7613C36.1083 28.4446 37.9609 26.4552 37.9609 24H36.9609H35.9609C35.9609 25.3552 34.9125 26.8155 32.6952 27.9959C30.5213 29.1532 27.4492 29.8994 24.001 29.8994L24.001 30.8994ZM36.9609 24V25H339.043V24V23H36.9609V24Z" fill="#FFE2B4" mask="url(#path-2-inside-1_0_3217)"/>
<path d="M140.228 67.2187C139.103 67.2187 138.103 67.026 137.228 66.6406C136.358 66.2552 135.67 65.7187 135.165 65.0312C134.66 64.3437 134.392 63.5495 134.36 62.6484H137.298C137.324 63.0807 137.467 63.4583 137.728 63.7812C137.988 64.099 138.334 64.3464 138.767 64.5234C139.199 64.7005 139.683 64.7891 140.22 64.7891C140.793 64.7891 141.3 64.6901 141.743 64.4922C142.186 64.2891 142.532 64.0078 142.782 63.6484C143.032 63.2891 143.155 62.875 143.149 62.4062C143.155 61.9219 143.03 61.4948 142.774 61.125C142.519 60.7552 142.149 60.4661 141.665 60.2578C141.186 60.0495 140.608 59.9453 139.931 59.9453H138.517V57.7109H139.931C140.488 57.7109 140.975 57.6146 141.392 57.4219C141.813 57.2292 142.144 56.9583 142.384 56.6094C142.623 56.2552 142.741 55.8464 142.735 55.3828C142.741 54.9297 142.639 54.5365 142.431 54.2031C142.228 53.8646 141.938 53.6016 141.563 53.4141C141.194 53.2266 140.759 53.1328 140.259 53.1328C139.769 53.1328 139.316 53.2214 138.899 53.3984C138.483 53.5755 138.147 53.8281 137.892 54.1563C137.636 54.4792 137.501 54.8646 137.485 55.3125H134.696C134.717 54.4167 134.975 53.6302 135.47 52.9531C135.97 52.2708 136.636 51.7396 137.47 51.3594C138.303 50.974 139.238 50.7812 140.274 50.7812C141.342 50.7812 142.269 50.9818 143.056 51.3828C143.847 51.7786 144.459 52.3125 144.892 52.9844C145.324 53.6562 145.54 54.3984 145.54 55.2109C145.545 56.112 145.28 56.8672 144.743 57.4766C144.212 58.0859 143.514 58.4844 142.649 58.6719V58.7969C143.774 58.9531 144.636 59.3698 145.235 60.0469C145.84 60.7187 146.139 61.5547 146.134 62.5547C146.134 63.4505 145.879 64.2526 145.368 64.9609C144.863 65.6641 144.165 66.2161 143.274 66.6172C142.389 67.0182 141.373 67.2187 140.228 67.2187ZM152.3 67.2422C151.539 67.2422 150.854 67.1068 150.245 66.8359C149.641 66.5599 149.162 66.1536 148.808 65.6172C148.459 65.0807 148.284 64.4193 148.284 63.6328C148.284 62.9557 148.409 62.3958 148.659 61.9531C148.909 61.5104 149.25 61.1562 149.683 60.8906C150.115 60.625 150.602 60.4245 151.144 60.2891C151.69 60.1484 152.256 60.0469 152.839 59.9844C153.542 59.9115 154.112 59.8464 154.55 59.7891C154.987 59.7266 155.305 59.6328 155.503 59.5078C155.706 59.3776 155.808 59.1771 155.808 58.9062V58.8594C155.808 58.2708 155.633 57.8151 155.284 57.4922C154.935 57.1693 154.433 57.0078 153.776 57.0078C153.084 57.0078 152.534 57.1589 152.128 57.4609C151.727 57.763 151.456 58.1198 151.315 58.5312L148.675 58.1562C148.883 57.4271 149.227 56.8177 149.706 56.3281C150.185 55.8333 150.771 55.4635 151.464 55.2187C152.157 54.9688 152.922 54.8438 153.761 54.8438C154.339 54.8438 154.914 54.9115 155.487 55.0469C156.06 55.1823 156.584 55.4062 157.058 55.7187C157.532 56.026 157.912 56.4453 158.198 56.9766C158.49 57.5078 158.636 58.1719 158.636 58.9687V67H155.917V65.3516H155.823C155.651 65.6849 155.409 65.9974 155.097 66.2891C154.789 66.5755 154.401 66.8073 153.933 66.9844C153.469 67.1563 152.925 67.2422 152.3 67.2422ZM153.034 65.1641C153.602 65.1641 154.094 65.0521 154.511 64.8281C154.927 64.599 155.248 64.2969 155.472 63.9219C155.701 63.5469 155.815 63.138 155.815 62.6953V61.2812C155.727 61.3542 155.576 61.4219 155.362 61.4844C155.154 61.5469 154.92 61.6016 154.659 61.6484C154.399 61.6953 154.141 61.737 153.886 61.7734C153.631 61.8099 153.409 61.8411 153.222 61.8672C152.8 61.9245 152.422 62.0182 152.089 62.1484C151.756 62.2786 151.493 62.4609 151.3 62.6953C151.107 62.9245 151.011 63.2214 151.011 63.5859C151.011 64.1068 151.201 64.5 151.581 64.7656C151.961 65.0312 152.446 65.1641 153.034 65.1641ZM169.722 59.8281V62.1484H163.331V59.8281H169.722ZM164.206 55V67H161.479V55H164.206ZM171.573 55V67H168.854V55H171.573ZM181.528 67V57.2969H178.966C178.315 57.2969 177.815 57.4479 177.466 57.75C177.117 58.0521 176.945 58.4271 176.95 58.875C176.945 59.3229 177.109 59.6927 177.442 59.9844C177.776 60.276 178.252 60.4219 178.872 60.4219H182.419V62.4844H178.872C177.914 62.4844 177.086 62.3333 176.388 62.0312C175.69 61.7292 175.153 61.3021 174.778 60.75C174.403 60.1979 174.216 59.5521 174.216 58.8125C174.216 58.0417 174.406 57.3724 174.786 56.8047C175.172 56.2318 175.718 55.7891 176.427 55.4766C177.14 55.1589 177.987 55 178.966 55H184.177V67H181.528ZM173.778 67L177.13 60.8437H179.919L176.56 67H173.778ZM185.681 57.3203V55H196.181V57.3203H192.298V67H189.563V57.3203H185.681ZM201.159 63.1719L205.964 55H208.87V67H206.136V58.8203L201.347 67H198.433V55H201.159V63.1719ZM218.868 67V57.2969H216.306C215.655 57.2969 215.155 57.4479 214.806 57.75C214.457 58.0521 214.285 58.4271 214.29 58.875C214.285 59.3229 214.449 59.6927 214.782 59.9844C215.116 60.276 215.592 60.4219 216.212 60.4219H219.759V62.4844H216.212C215.254 62.4844 214.425 62.3333 213.728 62.0312C213.03 61.7292 212.493 61.3021 212.118 60.75C211.743 60.1979 211.556 59.5521 211.556 58.8125C211.556 58.0417 211.746 57.3724 212.126 56.8047C212.511 56.2318 213.058 55.7891 213.767 55.4766C214.48 55.1589 215.326 55 216.306 55H221.517V67H218.868ZM211.118 67L214.47 60.8437H217.259L213.899 67H211.118ZM229.821 67V55H234.86C236.282 55 237.405 55.2839 238.228 55.8516C239.056 56.4193 239.47 57.2109 239.47 58.2266C239.47 58.8984 239.235 59.4479 238.767 59.875C238.303 60.2969 237.67 60.5807 236.868 60.7266C237.498 60.7786 238.05 60.9375 238.524 61.2031C239.004 61.4687 239.379 61.8177 239.649 62.25C239.92 62.6823 240.056 63.1797 240.056 63.7422C240.056 64.4036 239.881 64.9792 239.532 65.4687C239.188 65.9531 238.686 66.3307 238.024 66.6016C237.368 66.8672 236.571 67 235.634 67H229.821ZM232.47 64.7734H235.634C236.155 64.7734 236.563 64.651 236.86 64.4062C237.157 64.1562 237.306 63.8177 237.306 63.3906C237.306 62.8958 237.157 62.5078 236.86 62.2266C236.563 61.9401 236.155 61.7969 235.634 61.7969H232.47V64.7734ZM232.47 59.9687H234.915C235.3 59.9687 235.631 59.9141 235.907 59.8047C236.183 59.6901 236.394 59.5313 236.54 59.3281C236.686 59.1198 236.759 58.8724 236.759 58.5859C236.759 58.1745 236.59 57.8516 236.251 57.6172C235.918 57.3828 235.454 57.2656 234.86 57.2656H232.47V59.9687ZM158.718 82V84.3203H153.546V94H150.78V82H158.718ZM160.985 98.5V82H163.767V83.9844H163.931C164.076 83.6927 164.282 83.3828 164.548 83.0547C164.813 82.7214 165.173 82.4375 165.626 82.2031C166.079 81.9635 166.657 81.8438 167.36 81.8438C168.287 81.8438 169.123 82.0807 169.868 82.5547C170.618 83.0234 171.212 83.7187 171.649 84.6406C172.092 85.5573 172.313 86.6823 172.313 88.0156C172.313 89.3333 172.097 90.4531 171.665 91.375C171.233 92.2969 170.644 93 169.899 93.4844C169.155 93.9688 168.311 94.2109 167.368 94.2109C166.681 94.2109 166.11 94.0964 165.657 93.8672C165.204 93.638 164.84 93.362 164.563 93.0391C164.293 92.7109 164.082 92.401 163.931 92.1094H163.813V98.5H160.985ZM163.759 88C163.759 88.776 163.868 89.4557 164.087 90.0391C164.311 90.6224 164.631 91.0781 165.048 91.4062C165.47 91.7292 165.98 91.8906 166.579 91.8906C167.204 91.8906 167.728 91.724 168.149 91.3906C168.571 91.0521 168.889 90.5911 169.103 90.0078C169.321 89.4193 169.431 88.75 169.431 88C169.431 87.2552 169.324 86.5937 169.11 86.0156C168.897 85.4375 168.579 84.9844 168.157 84.6562C167.735 84.3281 167.209 84.1641 166.579 84.1641C165.975 84.1641 165.462 84.3229 165.04 84.6406C164.618 84.9583 164.298 85.4036 164.079 85.9766C163.866 86.5495 163.759 87.224 163.759 88ZM176.085 98.5C175.7 98.5 175.343 98.4688 175.015 98.4063C174.692 98.349 174.434 98.2813 174.241 98.2031L174.897 96C175.309 96.1198 175.676 96.1771 175.999 96.1719C176.322 96.1667 176.606 96.0651 176.851 95.8672C177.101 95.6745 177.312 95.3516 177.483 94.8984L177.726 94.25L173.374 82H176.374L179.14 91.0625H179.265L182.038 82H185.046L180.241 95.4531C180.017 96.0885 179.72 96.6328 179.351 97.0859C178.981 97.5443 178.528 97.8932 177.991 98.1328C177.46 98.3776 176.825 98.5 176.085 98.5ZM187.003 94V82H197.136V94H194.409V84.3203H189.706V94H187.003ZM200.044 94V82H210.177V94H207.45V84.3203H202.747V94H200.044ZM218.397 94.2344C217.194 94.2344 216.155 93.9844 215.28 93.4844C214.41 92.9792 213.741 92.2656 213.272 91.3437C212.804 90.4167 212.569 89.3255 212.569 88.0703C212.569 86.8359 212.804 85.7526 213.272 84.8203C213.746 83.8828 214.408 83.1536 215.257 82.6328C216.106 82.1068 217.103 81.8438 218.249 81.8438C218.989 81.8438 219.687 81.9635 220.343 82.2031C221.004 82.4375 221.588 82.8021 222.093 83.2969C222.603 83.7917 223.004 84.4219 223.296 85.1875C223.588 85.9479 223.733 86.8542 223.733 87.9062V88.7734H213.897V86.8672H221.022C221.017 86.3255 220.9 85.8437 220.671 85.4219C220.442 84.9948 220.121 84.6589 219.71 84.4141C219.304 84.1693 218.83 84.0469 218.288 84.0469C217.71 84.0469 217.202 84.1875 216.765 84.4687C216.327 84.7448 215.986 85.1094 215.741 85.5625C215.502 86.0104 215.379 86.5026 215.374 87.0391V88.7031C215.374 89.401 215.502 90 215.757 90.5C216.012 90.9948 216.369 91.375 216.827 91.6406C217.285 91.901 217.822 92.0312 218.437 92.0312C218.848 92.0312 219.22 91.974 219.554 91.8594C219.887 91.7396 220.176 91.5651 220.421 91.3359C220.666 91.1068 220.851 90.8229 220.976 90.4844L223.616 90.7812C223.45 91.4792 223.132 92.0885 222.663 92.6094C222.2 93.125 221.606 93.526 220.882 93.8125C220.158 94.0937 219.33 94.2344 218.397 94.2344Z" fill="white"/>
<path d="M284 43.0171C285.643 43.6784 287.226 44.4129 288.747 45.2137C292.296 43.2403 296.645 42.0647 301.381 42.064C306.117 42.0647 310.466 43.2403 314.015 45.2137C315.535 44.4129 317.118 43.6792 318.761 43.0171C314.09 39.9573 308.026 38.096 301.381 38.0952C294.735 38.096 288.672 39.9565 284 43.0171Z" fill="#A50000"/>
<defs>
<filter id="filter0_d_0_3217" x="0" y="0" width="377" height="144" filterUnits="userSpaceOnUse" color-interpolation-filters="sRGB">
<feFlood flood-opacity="0" result="BackgroundImageFix"/>
<feColorMatrix in="SourceAlpha" type="matrix" values="0 0 0 0 0 0 0 0 0 0 0 0 0 0 0 0 0 0 127 0" result="hardAlpha"/>
<feOffset/>
<feGaussianBlur stdDeviation="8"/>
<feComposite in2="hardAlpha" operator="out"/>
<feColorMatrix type="matrix" values="0 0 0 0 0.44391 0 0 0 0 0.44391 0 0 0 0 0.44391 0 0 0 0.25 0"/>
<feBlend mode="normal" in2="BackgroundImageFix" result="effect1_dropShadow_0_3217"/>
<feBlend mode="normal" in="SourceGraphic" in2="effect1_dropShadow_0_3217" result="shape"/>
</filter>
</defs>
</svg>
