<svg width="377" height="144" viewBox="0 0 377 144" fill="none" xmlns="http://www.w3.org/2000/svg">
<g filter="url(#filter0_d_161_619)">
<path d="M346.364 16C346.364 20.4923 352.449 24.1338 359.955 24.1338C360.307 24.1338 360.655 24.1221 361 24.1064V118.015C360.655 117.999 360.307 117.988 359.955 117.988C352.449 117.988 346.364 121.631 346.364 126.123C346.364 126.769 346.491 127.397 346.729 128H29.2266C29.4645 127.397 29.5908 126.769 29.5908 126.123C29.5908 121.631 23.5061 117.988 16 117.988V24.1338C23.506 24.1338 29.5908 20.4923 29.5908 16H346.364Z" fill="#A50000"/>
</g>
<mask id="path-2-inside-1_161_619" fill="white">
<path d="M339.043 24C339.043 27.8104 344.845 30.8994 352.003 30.8994C352.338 30.8994 352.671 30.8903 353 30.877V110.53C352.671 110.517 352.338 110.509 352.003 110.509C344.845 110.509 339.043 113.598 339.043 117.408C339.043 117.956 339.163 118.489 339.39 119H36.6133C36.8401 118.489 36.9609 117.956 36.9609 117.408C36.9609 113.598 31.1587 110.509 24.001 110.509H24V30.8984L24.001 30.8994C31.1587 30.8993 36.9609 27.8104 36.9609 24H339.043Z"/>
</mask>
<path d="M339.043 24C339.043 27.8104 344.845 30.8994 352.003 30.8994C352.338 30.8994 352.671 30.8903 353 30.877V110.53C352.671 110.517 352.338 110.509 352.003 110.509C344.845 110.509 339.043 113.598 339.043 117.408C339.043 117.956 339.163 118.489 339.39 119H36.6133C36.8401 118.489 36.9609 117.956 36.9609 117.408C36.9609 113.598 31.1587 110.509 24.001 110.509H24V30.8984L24.001 30.8994C31.1587 30.8993 36.9609 27.8104 36.9609 24H339.043Z" fill="#A50000"/>
<path d="M339.043 24H340.043V23H339.043V24ZM352.003 30.8994L352.003 31.8994H352.003V30.8994ZM353 30.877H354V29.8356L352.96 29.8778L353 30.877ZM353 110.53L352.96 111.529L354 111.572V110.53H353ZM352.003 110.509L352.003 109.509L352.003 109.509L352.003 110.509ZM339.043 117.408L338.043 117.408L338.043 117.408L339.043 117.408ZM339.39 119V120H340.927L340.304 118.594L339.39 119ZM36.6133 119L35.6992 118.594L35.0754 120H36.6133V119ZM36.9609 117.408L37.9609 117.408V117.408H36.9609ZM24.001 110.509L24.001 109.509H24.001V110.509ZM24 110.509H23V111.509H24V110.509ZM24 30.8984L24.7071 30.1913L23 28.4842V30.8984H24ZM24.001 30.8994L23.2939 31.6065L23.5868 31.8994L24.001 31.8994L24.001 30.8994ZM36.9609 24V23H35.9609V24H36.9609ZM339.043 24H338.043C338.043 26.4553 339.896 28.4446 342.369 29.7613C344.885 31.1011 348.293 31.8994 352.003 31.8994L352.003 30.8994L352.003 29.8994C348.555 29.8994 345.483 29.1532 343.309 27.9959C341.091 26.8155 340.043 25.3552 340.043 24H339.043ZM352.003 30.8994V31.8994C352.356 31.8994 352.703 31.8898 353.04 31.8761L353 30.877L352.96 29.8778C352.639 29.8908 352.321 29.8994 352.003 29.8994V30.8994ZM353 30.877H352V110.53H353H354V30.877H353ZM353 110.53L353.04 109.531C352.701 109.517 352.354 109.509 352.003 109.509V110.509V111.509C352.322 111.509 352.641 111.517 352.96 111.529L353 110.53ZM352.003 110.509L352.003 109.509C348.293 109.509 344.885 110.307 342.369 111.647C339.896 112.964 338.043 114.953 338.043 117.408H339.043H340.043C340.043 116.053 341.091 114.593 343.309 113.412C345.483 112.255 348.555 111.509 352.003 111.509L352.003 110.509ZM339.043 117.408L338.043 117.408C338.043 118.106 338.196 118.776 338.476 119.406L339.39 119L340.304 118.594C340.129 118.202 340.043 117.807 340.043 117.408L339.043 117.408ZM339.39 119V118H36.6133V119V120H339.39V119ZM36.6133 119L37.5273 119.406C37.8062 118.777 37.9609 118.107 37.9609 117.408L36.9609 117.408L35.9609 117.408C35.9609 117.806 35.874 118.201 35.6992 118.594L36.6133 119ZM36.9609 117.408H37.9609C37.9609 114.953 36.1083 112.964 33.635 111.647C31.1184 110.307 27.7105 109.509 24.001 109.509L24.001 110.509L24.001 111.509C27.4492 111.509 30.5213 112.255 32.6952 113.412C34.9125 114.593 35.9609 116.053 35.9609 117.408H36.9609ZM24.001 110.509V109.509H24V110.509V111.509H24.001V110.509ZM24 110.509H25V30.8984H24H23V110.509H24ZM24 30.8984L23.2929 31.6055L23.2939 31.6065L24.001 30.8994L24.7081 30.1923L24.7071 30.1913L24 30.8984ZM24.001 30.8994L24.001 31.8994C27.7105 31.8994 31.1184 31.1011 33.635 29.7613C36.1083 28.4446 37.9609 26.4552 37.9609 24H36.9609H35.9609C35.9609 25.3552 34.9125 26.8155 32.6952 27.9959C30.5213 29.1532 27.4492 29.8994 24.001 29.8994L24.001 30.8994ZM36.9609 24V25H339.043V24V23H36.9609V24Z" fill="#D9B881" mask="url(#path-2-inside-1_161_619)"/>
<path d="M163.951 69V50.0909H167.376V58.0959H176.138V50.0909H179.573V69H176.138V60.9673H167.376V69H163.951ZM193.575 55.2891C193.489 54.4827 193.126 53.8549 192.485 53.4055C191.851 52.9562 191.027 52.7315 190.011 52.7315C189.297 52.7315 188.685 52.8393 188.174 53.0547C187.663 53.2701 187.272 53.5625 187.001 53.9318C186.73 54.3011 186.592 54.7228 186.586 55.1967C186.586 55.5907 186.675 55.9323 186.853 56.2216C187.038 56.5109 187.287 56.7571 187.601 56.9602C187.915 57.1572 188.263 57.3234 188.645 57.4588C189.026 57.5942 189.411 57.7081 189.799 57.8004L191.571 58.2436C192.285 58.4098 192.972 58.6345 193.63 58.9176C194.295 59.2008 194.889 59.5578 195.412 59.9886C195.942 60.4195 196.36 60.9396 196.668 61.549C196.976 62.1584 197.13 62.8724 197.13 63.6911C197.13 64.799 196.846 65.7746 196.28 66.6179C195.714 67.455 194.895 68.1106 193.824 68.5845C192.759 69.0523 191.47 69.2862 189.956 69.2862C188.484 69.2862 187.207 69.0585 186.124 68.603C185.047 68.1475 184.203 67.4827 183.594 66.6087C182.991 65.7346 182.665 64.6697 182.615 63.4141H185.985C186.035 64.0727 186.238 64.6205 186.595 65.0575C186.952 65.4946 187.417 65.8208 187.989 66.0362C188.568 66.2517 189.214 66.3594 189.928 66.3594C190.673 66.3594 191.325 66.2486 191.885 66.027C192.452 65.7992 192.895 65.4853 193.215 65.0852C193.535 64.679 193.698 64.205 193.704 63.6634C193.698 63.1709 193.553 62.7647 193.27 62.4446C192.987 62.1184 192.59 61.8475 192.079 61.6321C191.574 61.4105 190.984 61.2135 190.306 61.0412L188.155 60.4872C186.598 60.0871 185.367 59.4808 184.462 58.6683C183.563 57.8497 183.114 56.7633 183.114 55.4091C183.114 54.295 183.416 53.3194 184.019 52.4822C184.628 51.6451 185.456 50.9957 186.502 50.5341C187.549 50.0663 188.734 49.8324 190.057 49.8324C191.399 49.8324 192.575 50.0663 193.584 50.5341C194.6 50.9957 195.397 51.639 195.975 52.4638C196.554 53.2824 196.853 54.2242 196.871 55.2891H193.575ZM200.183 69V50.0909H203.609V58.7791H203.84L211.217 50.0909H215.399L208.087 58.576L215.464 69H211.346L205.705 60.8935L203.609 63.3679V69H200.183ZM117.783 102.318V82.8182H121.07V85.1634H121.264C121.436 84.8187 121.679 84.4524 121.993 84.0646C122.307 83.6707 122.732 83.3352 123.267 83.0582C123.803 82.7751 124.486 82.6335 125.317 82.6335C126.412 82.6335 127.4 82.9136 128.281 83.4737C129.167 84.0277 129.869 84.8494 130.386 85.9389C130.909 87.0223 131.171 88.3518 131.171 89.9276C131.171 91.4848 130.915 92.8082 130.404 93.8977C129.893 94.9872 129.198 95.8182 128.318 96.3906C127.437 96.9631 126.44 97.2493 125.326 97.2493C124.514 97.2493 123.84 97.1139 123.304 96.843C122.769 96.5722 122.338 96.246 122.011 95.8643C121.691 95.4766 121.442 95.1103 121.264 94.7656H121.125V102.318H117.783ZM121.06 89.9091C121.06 90.8262 121.19 91.6295 121.448 92.3189C121.713 93.0083 122.091 93.5469 122.584 93.9347C123.082 94.3163 123.686 94.5071 124.394 94.5071C125.132 94.5071 125.751 94.3101 126.249 93.9162C126.748 93.5161 127.123 92.9714 127.376 92.282C127.634 91.5864 127.764 90.7955 127.764 89.9091C127.764 89.0289 127.637 88.2472 127.385 87.5639C127.133 86.8807 126.757 86.3452 126.259 85.9574C125.76 85.5696 125.138 85.3757 124.394 85.3757C123.68 85.3757 123.073 85.5634 122.575 85.9389C122.076 86.3144 121.698 86.8407 121.439 87.5178C121.187 88.1948 121.06 88.992 121.06 89.9091ZM134.033 97V82.8182H137.274V85.1818H137.421C137.68 84.3632 138.123 83.7322 138.751 83.2891C139.385 82.8397 140.108 82.6151 140.921 82.6151C141.105 82.6151 141.311 82.6243 141.539 82.6428C141.773 82.6551 141.967 82.6766 142.121 82.7074V85.782C141.979 85.7327 141.755 85.6896 141.447 85.6527C141.145 85.6096 140.853 85.5881 140.57 85.5881C139.96 85.5881 139.412 85.7204 138.926 85.9851C138.446 86.2436 138.068 86.6037 137.791 87.0653C137.514 87.527 137.375 88.0594 137.375 88.6626V97H134.033ZM150.036 97.277C148.614 97.277 147.386 96.9815 146.352 96.3906C145.324 95.7936 144.533 94.9503 143.979 93.8608C143.425 92.7652 143.148 91.4756 143.148 89.9922C143.148 88.5334 143.425 87.2531 143.979 86.1513C144.539 85.0433 145.321 84.1816 146.324 83.5661C147.327 82.9444 148.506 82.6335 149.86 82.6335C150.734 82.6335 151.559 82.7751 152.335 83.0582C153.117 83.3352 153.806 83.7661 154.403 84.3509C155.006 84.9356 155.48 85.6804 155.825 86.5852C156.17 87.4839 156.342 88.5549 156.342 89.7983V90.8232H144.718V88.5703H153.138C153.132 87.9302 152.993 87.3608 152.723 86.8622C152.452 86.3575 152.073 85.9605 151.587 85.6712C151.107 85.3819 150.547 85.2372 149.907 85.2372C149.223 85.2372 148.623 85.4034 148.106 85.7358C147.589 86.062 147.186 86.4929 146.897 87.0284C146.613 87.5578 146.469 88.1394 146.463 88.7734V90.7401C146.463 91.5649 146.613 92.2727 146.915 92.8636C147.217 93.4484 147.638 93.8977 148.18 94.2116C148.722 94.5194 149.356 94.6733 150.082 94.6733C150.568 94.6733 151.008 94.6056 151.402 94.4702C151.796 94.3286 152.138 94.1224 152.427 93.8516C152.716 93.5807 152.935 93.2453 153.083 92.8452L156.203 93.196C156.006 94.0208 155.631 94.741 155.077 95.3565C154.529 95.9659 153.827 96.4399 152.972 96.7784C152.116 97.1108 151.138 97.277 150.036 97.277ZM159.169 102.318V82.8182H162.456V85.1634H162.65C162.823 84.8187 163.066 84.4524 163.38 84.0646C163.694 83.6707 164.118 83.3352 164.654 83.0582C165.189 82.7751 165.873 82.6335 166.704 82.6335C167.799 82.6335 168.787 82.9136 169.667 83.4737C170.554 84.0277 171.255 84.8494 171.772 85.9389C172.296 87.0223 172.557 88.3518 172.557 89.9276C172.557 91.4848 172.302 92.8082 171.791 93.8977C171.28 94.9872 170.584 95.8182 169.704 96.3906C168.824 96.9631 167.827 97.2493 166.713 97.2493C165.9 97.2493 165.226 97.1139 164.691 96.843C164.155 96.5722 163.724 96.246 163.398 95.8643C163.078 95.4766 162.829 95.1103 162.65 94.7656H162.512V102.318H159.169ZM162.447 89.9091C162.447 90.8262 162.576 91.6295 162.835 92.3189C163.1 93.0083 163.478 93.5469 163.971 93.9347C164.469 94.3163 165.072 94.5071 165.78 94.5071C166.519 94.5071 167.138 94.3101 167.636 93.9162C168.135 93.5161 168.51 92.9714 168.763 92.282C169.021 91.5864 169.15 90.7955 169.15 89.9091C169.15 89.0289 169.024 88.2472 168.772 87.5639C168.519 86.8807 168.144 86.3452 167.645 85.9574C167.147 85.5696 166.525 85.3757 165.78 85.3757C165.066 85.3757 164.46 85.5634 163.961 85.9389C163.463 86.3144 163.084 86.8407 162.826 87.5178C162.573 88.1948 162.447 88.992 162.447 89.9091ZM179.5 97.2862C178.602 97.2862 177.792 97.1262 177.072 96.8061C176.358 96.4799 175.792 95.9998 175.373 95.3658C174.961 94.7318 174.755 93.95 174.755 93.0206C174.755 92.2204 174.902 91.5587 175.198 91.0355C175.493 90.5123 175.897 90.0938 176.407 89.7798C176.918 89.4659 177.494 89.2289 178.134 89.0689C178.78 88.9027 179.448 88.7827 180.138 88.7088C180.968 88.6226 181.642 88.5457 182.16 88.478C182.677 88.4041 183.052 88.2933 183.286 88.1456C183.526 87.9917 183.646 87.7547 183.646 87.4347V87.3793C183.646 86.6837 183.44 86.1451 183.027 85.7635C182.615 85.3819 182.021 85.1911 181.245 85.1911C180.427 85.1911 179.777 85.3696 179.297 85.7266C178.823 86.0836 178.503 86.5052 178.337 86.9915L175.216 86.5483C175.463 85.6866 175.869 84.9664 176.435 84.3878C177.001 83.803 177.694 83.366 178.513 83.0767C179.331 82.7812 180.236 82.6335 181.227 82.6335C181.91 82.6335 182.59 82.7135 183.267 82.8736C183.945 83.0336 184.563 83.2983 185.123 83.6676C185.683 84.0308 186.133 84.5263 186.471 85.1541C186.816 85.782 186.988 86.5668 186.988 87.5085V97H183.775V95.0518H183.665C183.461 95.4458 183.175 95.8151 182.806 96.1598C182.443 96.4983 181.984 96.7723 181.43 96.9815C180.882 97.1847 180.239 97.2862 179.5 97.2862ZM180.368 94.8303C181.039 94.8303 181.621 94.6979 182.113 94.4332C182.606 94.1624 182.984 93.8054 183.249 93.3622C183.52 92.919 183.655 92.4358 183.655 91.9126V90.2415C183.551 90.3277 183.372 90.4077 183.12 90.4815C182.874 90.5554 182.597 90.62 182.289 90.6754C181.981 90.7308 181.676 90.7801 181.375 90.8232C181.073 90.8662 180.812 90.9032 180.59 90.9339C180.091 91.0017 179.645 91.1125 179.251 91.2663C178.857 91.4202 178.546 91.6357 178.319 91.9126C178.091 92.1835 177.977 92.5343 177.977 92.9652C177.977 93.5807 178.202 94.0455 178.651 94.3594C179.1 94.6733 179.673 94.8303 180.368 94.8303ZM190.349 97V82.8182H193.59V85.1818H193.738C193.996 84.3632 194.439 83.7322 195.067 83.2891C195.701 82.8397 196.424 82.6151 197.237 82.6151C197.422 82.6151 197.628 82.6243 197.856 82.6428C198.089 82.6551 198.283 82.6766 198.437 82.7074V85.782C198.296 85.7327 198.071 85.6896 197.763 85.6527C197.462 85.6096 197.169 85.5881 196.886 85.5881C196.277 85.5881 195.729 85.7204 195.243 85.9851C194.763 86.2436 194.384 86.6037 194.107 87.0653C193.83 87.527 193.691 88.0594 193.691 88.6626V97H190.349ZM204.485 97.2862C203.586 97.2862 202.777 97.1262 202.057 96.8061C201.343 96.4799 200.776 95.9998 200.358 95.3658C199.945 94.7318 199.739 93.95 199.739 93.0206C199.739 92.2204 199.887 91.5587 200.182 91.0355C200.478 90.5123 200.881 90.0938 201.392 89.7798C201.903 89.4659 202.478 89.2289 203.118 89.0689C203.765 88.9027 204.432 88.7827 205.122 88.7088C205.953 88.6226 206.627 88.5457 207.144 88.478C207.661 88.4041 208.036 88.2933 208.27 88.1456C208.51 87.9917 208.63 87.7547 208.63 87.4347V87.3793C208.63 86.6837 208.424 86.1451 208.012 85.7635C207.599 85.3819 207.005 85.1911 206.23 85.1911C205.411 85.1911 204.762 85.3696 204.282 85.7266C203.808 86.0836 203.488 86.5052 203.321 86.9915L200.201 86.5483C200.447 85.6866 200.853 84.9664 201.419 84.3878C201.986 83.803 202.678 83.366 203.497 83.0767C204.316 82.7812 205.22 82.6335 206.211 82.6335C206.895 82.6335 207.575 82.7135 208.252 82.8736C208.929 83.0336 209.548 83.2983 210.108 83.6676C210.668 84.0308 211.117 84.5263 211.456 85.1541C211.8 85.782 211.973 86.5668 211.973 87.5085V97H208.76V95.0518H208.649C208.446 95.4458 208.16 95.8151 207.79 96.1598C207.427 96.4983 206.968 96.7723 206.415 96.9815C205.867 97.1847 205.223 97.2862 204.485 97.2862ZM205.353 94.8303C206.024 94.8303 206.605 94.6979 207.098 94.4332C207.59 94.1624 207.969 93.8054 208.233 93.3622C208.504 92.919 208.64 92.4358 208.64 91.9126V90.2415C208.535 90.3277 208.357 90.4077 208.104 90.4815C207.858 90.5554 207.581 90.62 207.273 90.6754C206.965 90.7308 206.661 90.7801 206.359 90.8232C206.057 90.8662 205.796 90.9032 205.574 90.9339C205.076 91.0017 204.629 91.1125 204.236 91.2663C203.842 91.4202 203.531 91.6357 203.303 91.9126C203.075 92.1835 202.961 92.5343 202.961 92.9652C202.961 93.5807 203.186 94.0455 203.635 94.3594C204.085 94.6733 204.657 94.8303 205.353 94.8303ZM222.415 82.8182V85.4034H214.263V82.8182H222.415ZM216.275 79.4205H219.618V92.7344C219.618 93.1837 219.685 93.5284 219.821 93.7685C219.962 94.0024 220.147 94.1624 220.375 94.2486C220.602 94.3348 220.855 94.3778 221.132 94.3778C221.341 94.3778 221.532 94.3625 221.704 94.3317C221.883 94.3009 222.018 94.2732 222.111 94.2486L222.674 96.8615C222.495 96.9231 222.24 96.9908 221.907 97.0646C221.581 97.1385 221.181 97.1816 220.707 97.1939C219.87 97.2185 219.116 97.0923 218.445 96.8153C217.774 96.5322 217.242 96.0952 216.848 95.5043C216.46 94.9134 216.269 94.1747 216.275 93.2884V79.4205ZM225.21 97V82.8182H228.553V97H225.21ZM226.891 80.8054C226.362 80.8054 225.906 80.63 225.524 80.2791C225.143 79.9221 224.952 79.4943 224.952 78.9957C224.952 78.491 225.143 78.0632 225.524 77.7124C225.906 77.3553 226.362 77.1768 226.891 77.1768C227.426 77.1768 227.882 77.3553 228.257 77.7124C228.639 78.0632 228.83 78.491 228.83 78.9957C228.83 79.4943 228.639 79.9221 228.257 80.2791C227.882 80.63 227.426 80.8054 226.891 80.8054ZM238.176 97.277C236.791 97.277 235.591 96.9723 234.575 96.3629C233.559 95.7536 232.772 94.901 232.211 93.8054C231.657 92.7098 231.38 91.4295 231.38 89.9645C231.38 88.4995 231.657 87.2161 232.211 86.1143C232.772 85.0125 233.559 84.157 234.575 83.5476C235.591 82.9382 236.791 82.6335 238.176 82.6335C239.561 82.6335 240.761 82.9382 241.777 83.5476C242.792 84.157 243.577 85.0125 244.131 86.1143C244.691 87.2161 244.971 88.4995 244.971 89.9645C244.971 91.4295 244.691 92.7098 244.131 93.8054C243.577 94.901 242.792 95.7536 241.777 96.3629C240.761 96.9723 239.561 97.277 238.176 97.277ZM238.194 94.5994C238.945 94.5994 239.573 94.3932 240.078 93.9808C240.583 93.5623 240.958 93.0021 241.204 92.3004C241.457 91.5987 241.583 90.817 241.583 89.9553C241.583 89.0874 241.457 88.3026 241.204 87.6009C240.958 86.893 240.583 86.3298 240.078 85.9112C239.573 85.4927 238.945 85.2834 238.194 85.2834C237.425 85.2834 236.785 85.4927 236.274 85.9112C235.769 86.3298 235.391 86.893 235.138 87.6009C234.892 88.3026 234.769 89.0874 234.769 89.9553C234.769 90.817 234.892 91.5987 235.138 92.3004C235.391 93.0021 235.769 93.5623 236.274 93.9808C236.785 94.3932 237.425 94.5994 238.194 94.5994ZM251.15 88.6903V97H247.808V82.8182H251.003V85.228H251.169C251.495 84.4339 252.015 83.803 252.729 83.3352C253.449 82.8674 254.339 82.6335 255.398 82.6335C256.376 82.6335 257.229 82.8428 257.955 83.2614C258.688 83.6799 259.254 84.2862 259.654 85.0803C260.06 85.8743 260.26 86.8376 260.254 87.9702V97H256.912V88.4872C256.912 87.5393 256.666 86.7976 256.173 86.2621C255.687 85.7266 255.013 85.4588 254.151 85.4588C253.566 85.4588 253.046 85.5881 252.591 85.8466C252.141 86.099 251.788 86.4652 251.529 86.9453C251.277 87.4254 251.15 88.0071 251.15 88.6903Z" fill="white"/>
<path d="M284 43.0171C285.643 43.6784 287.226 44.4129 288.747 45.2137C292.296 43.2403 296.645 42.0647 301.381 42.064C306.117 42.0647 310.466 43.2403 314.015 45.2137C315.535 44.4129 317.118 43.6792 318.761 43.0171C314.09 39.9573 308.026 38.096 301.381 38.0952C294.735 38.096 288.672 39.9565 284 43.0171Z" fill="#A50000"/>
<defs>
<filter id="filter0_d_161_619" x="0" y="0" width="377" height="144" filterUnits="userSpaceOnUse" color-interpolation-filters="sRGB">
<feFlood flood-opacity="0" result="BackgroundImageFix"/>
<feColorMatrix in="SourceAlpha" type="matrix" values="0 0 0 0 0 0 0 0 0 0 0 0 0 0 0 0 0 0 127 0" result="hardAlpha"/>
<feOffset/>
<feGaussianBlur stdDeviation="8"/>
<feComposite in2="hardAlpha" operator="out"/>
<feColorMatrix type="matrix" values="0 0 0 0 0.44391 0 0 0 0 0.44391 0 0 0 0 0.44391 0 0 0 0.25 0"/>
<feBlend mode="normal" in2="BackgroundImageFix" result="effect1_dropShadow_161_619"/>
<feBlend mode="normal" in="SourceGraphic" in2="effect1_dropShadow_161_619" result="shape"/>
</filter>
</defs>
</svg>
