<svg width="377" height="144" viewBox="0 0 377 144" fill="none" xmlns="http://www.w3.org/2000/svg">
<g filter="url(#filter0_d_0_3232)">
<path d="M346.364 16C346.364 20.4923 352.449 24.1338 359.955 24.1338C360.307 24.1338 360.655 24.1221 361 24.1064V118.015C360.655 117.999 360.307 117.988 359.955 117.988C352.449 117.988 346.364 121.631 346.364 126.123C346.364 126.769 346.491 127.397 346.729 128H29.2266C29.4645 127.397 29.5908 126.769 29.5908 126.123C29.5908 121.631 23.5061 117.988 16 117.988V24.1338C23.506 24.1338 29.5908 20.4923 29.5908 16H346.364Z" fill="#A50000"/>
</g>
<mask id="path-2-inside-1_0_3232" fill="white">
<path d="M339.043 24C339.043 27.8104 344.845 30.8994 352.003 30.8994C352.338 30.8994 352.671 30.8903 353 30.877V110.53C352.671 110.517 352.338 110.509 352.003 110.509C344.845 110.509 339.043 113.598 339.043 117.408C339.043 117.956 339.163 118.489 339.39 119H36.6133C36.8401 118.489 36.9609 117.956 36.9609 117.408C36.9609 113.598 31.1587 110.509 24.001 110.509H24V30.8984L24.001 30.8994C31.1587 30.8993 36.9609 27.8104 36.9609 24H339.043Z"/>
</mask>
<path d="M339.043 24C339.043 27.8104 344.845 30.8994 352.003 30.8994C352.338 30.8994 352.671 30.8903 353 30.877V110.53C352.671 110.517 352.338 110.509 352.003 110.509C344.845 110.509 339.043 113.598 339.043 117.408C339.043 117.956 339.163 118.489 339.39 119H36.6133C36.8401 118.489 36.9609 117.956 36.9609 117.408C36.9609 113.598 31.1587 110.509 24.001 110.509H24V30.8984L24.001 30.8994C31.1587 30.8993 36.9609 27.8104 36.9609 24H339.043Z" fill="#A50000"/>
<path d="M339.043 24H340.043V23H339.043V24ZM352.003 30.8994V31.8994V30.8994ZM353 30.877H354V29.8356L352.96 29.8778L353 30.877ZM353 110.53L352.96 111.529L354 111.572V110.53H353ZM352.003 110.509V109.509V110.509ZM339.043 117.408H338.043V117.408L339.043 117.408ZM339.39 119V120H340.927L340.304 118.594L339.39 119ZM36.6133 119L35.6992 118.594L35.0754 120H36.6133V119ZM36.9609 117.408L37.9609 117.408V117.408H36.9609ZM24.001 110.509L24.001 109.509H24.001V110.509ZM24 110.509H23V111.509H24V110.509ZM24 30.8984L24.7071 30.1913L23 28.4842V30.8984H24ZM24.001 30.8994L23.2939 31.6065L23.5868 31.8994L24.001 31.8994L24.001 30.8994ZM36.9609 24V23H35.9609V24H36.9609ZM339.043 24H338.043C338.043 26.4553 339.896 28.4446 342.369 29.7613C344.885 31.1011 348.293 31.8994 352.003 31.8994V30.8994V29.8994C348.555 29.8994 345.483 29.1532 343.309 27.9959C341.091 26.8155 340.043 25.3552 340.043 24H339.043ZM352.003 30.8994V31.8994C352.356 31.8994 352.703 31.8898 353.04 31.8761L353 30.877L352.96 29.8778C352.639 29.8908 352.321 29.8994 352.003 29.8994V30.8994ZM353 30.877H352V110.53H353H354V30.877H353ZM353 110.53L353.04 109.531C352.701 109.517 352.354 109.509 352.003 109.509V110.509V111.509C352.322 111.509 352.641 111.517 352.96 111.529L353 110.53ZM352.003 110.509V109.509C348.293 109.509 344.885 110.307 342.369 111.647C339.896 112.964 338.043 114.953 338.043 117.408H339.043H340.043C340.043 116.053 341.091 114.593 343.309 113.412C345.483 112.255 348.555 111.509 352.003 111.509V110.509ZM339.043 117.408L338.043 117.408C338.043 118.106 338.196 118.776 338.476 119.406L339.39 119L340.304 118.594C340.129 118.202 340.043 117.807 340.043 117.408L339.043 117.408ZM339.39 119V118H36.6133V119V120H339.39V119ZM36.6133 119L37.5273 119.406C37.8062 118.777 37.9609 118.107 37.9609 117.408L36.9609 117.408L35.9609 117.408C35.9609 117.806 35.874 118.201 35.6992 118.594L36.6133 119ZM36.9609 117.408H37.9609C37.9609 114.953 36.1083 112.964 33.635 111.647C31.1184 110.307 27.7105 109.509 24.001 109.509L24.001 110.509L24.001 111.509C27.4492 111.509 30.5213 112.255 32.6952 113.412C34.9125 114.593 35.9609 116.053 35.9609 117.408H36.9609ZM24.001 110.509V109.509H24V110.509V111.509H24.001V110.509ZM24 110.509H25V30.8984H24H23V110.509H24ZM24 30.8984L23.2929 31.6055L23.2939 31.6065L24.001 30.8994L24.7081 30.1923L24.7071 30.1913L24 30.8984ZM24.001 30.8994L24.001 31.8994C27.7105 31.8994 31.1184 31.1011 33.635 29.7613C36.1083 28.4446 37.9609 26.4552 37.9609 24H36.9609H35.9609C35.9609 25.3552 34.9125 26.8155 32.6952 27.9959C30.5213 29.1532 27.4492 29.8994 24.001 29.8994L24.001 30.8994ZM36.9609 24V25H339.043V24V23H36.9609V24Z" fill="#FFE2B4" mask="url(#path-2-inside-1_0_3232)"/>
<path d="M127.909 51V67H125.034V53.4062H118.034V67H115.159V51H127.909ZM136.485 67.2344C135.313 67.2344 134.298 66.9766 133.438 66.4609C132.579 65.9453 131.912 65.224 131.438 64.2969C130.97 63.3698 130.735 62.2865 130.735 61.0469C130.735 59.8073 130.97 58.7214 131.438 57.7891C131.912 56.8568 132.579 56.1328 133.438 55.6172C134.298 55.1016 135.313 54.8438 136.485 54.8438C137.657 54.8438 138.673 55.1016 139.532 55.6172C140.392 56.1328 141.056 56.8568 141.524 57.7891C141.998 58.7214 142.235 59.8073 142.235 61.0469C142.235 62.2865 141.998 63.3698 141.524 64.2969C141.056 65.224 140.392 65.9453 139.532 66.4609C138.673 66.9766 137.657 67.2344 136.485 67.2344ZM136.501 64.9687C137.136 64.9687 137.668 64.7943 138.095 64.4453C138.522 64.0911 138.84 63.6172 139.048 63.0234C139.261 62.4297 139.368 61.7682 139.368 61.0391C139.368 60.3047 139.261 59.6406 139.048 59.0469C138.84 58.4479 138.522 57.9714 138.095 57.6172C137.668 57.263 137.136 57.0859 136.501 57.0859C135.85 57.0859 135.308 57.263 134.876 57.6172C134.449 57.9714 134.129 58.4479 133.915 59.0469C133.707 59.6406 133.603 60.3047 133.603 61.0391C133.603 61.7682 133.707 62.4297 133.915 63.0234C134.129 63.6172 134.449 64.0911 134.876 64.4453C135.308 64.7943 135.85 64.9687 136.501 64.9687ZM143.573 70.4844V64.6719H144.526C144.782 64.474 144.995 64.2057 145.167 63.8672C145.339 63.5234 145.479 63.1198 145.589 62.6562C145.703 62.1875 145.797 61.6641 145.87 61.0859C145.943 60.5026 146.008 59.875 146.065 59.2031L146.409 55H155.081V64.6719H156.94V70.4844H154.206V67H146.354V70.4844H143.573ZM147.433 64.6719H152.378V57.2812H148.862L148.675 59.2031C148.571 60.474 148.433 61.5625 148.261 62.4687C148.089 63.375 147.813 64.1094 147.433 64.6719ZM166.989 55V57.3203H161.817V67H159.052V55H166.989ZM173.997 67.2344C172.825 67.2344 171.81 66.9766 170.95 66.4609C170.091 65.9453 169.424 65.224 168.95 64.2969C168.481 63.3698 168.247 62.2865 168.247 61.0469C168.247 59.8073 168.481 58.7214 168.95 57.7891C169.424 56.8568 170.091 56.1328 170.95 55.6172C171.81 55.1016 172.825 54.8438 173.997 54.8438C175.169 54.8438 176.185 55.1016 177.044 55.6172C177.903 56.1328 178.567 56.8568 179.036 57.7891C179.51 58.7214 179.747 59.8073 179.747 61.0469C179.747 62.2865 179.51 63.3698 179.036 64.2969C178.567 65.224 177.903 65.9453 177.044 66.4609C176.185 66.9766 175.169 67.2344 173.997 67.2344ZM174.013 64.9687C174.648 64.9687 175.179 64.7943 175.606 64.4453C176.034 64.0911 176.351 63.6172 176.56 63.0234C176.773 62.4297 176.88 61.7682 176.88 61.0391C176.88 60.3047 176.773 59.6406 176.56 59.0469C176.351 58.4479 176.034 57.9714 175.606 57.6172C175.179 57.263 174.648 57.0859 174.013 57.0859C173.362 57.0859 172.82 57.263 172.388 57.6172C171.961 57.9714 171.64 58.4479 171.427 59.0469C171.218 59.6406 171.114 60.3047 171.114 61.0391C171.114 61.7682 171.218 62.4297 171.427 63.0234C171.64 63.6172 171.961 64.0911 172.388 64.4453C172.82 64.7943 173.362 64.9687 174.013 64.9687ZM180.825 57.3203V55H191.325V57.3203H187.442V67H184.708V57.3203H180.825ZM198.317 67.2344C197.146 67.2344 196.13 66.9766 195.271 66.4609C194.411 65.9453 193.744 65.224 193.271 64.2969C192.802 63.3698 192.567 62.2865 192.567 61.0469C192.567 59.8073 192.802 58.7214 193.271 57.7891C193.744 56.8568 194.411 56.1328 195.271 55.6172C196.13 55.1016 197.146 54.8438 198.317 54.8438C199.489 54.8438 200.505 55.1016 201.364 55.6172C202.224 56.1328 202.888 56.8568 203.356 57.7891C203.83 58.7214 204.067 59.8073 204.067 61.0469C204.067 62.2865 203.83 63.3698 203.356 64.2969C202.888 65.224 202.224 65.9453 201.364 66.4609C200.505 66.9766 199.489 67.2344 198.317 67.2344ZM198.333 64.9687C198.968 64.9687 199.5 64.7943 199.927 64.4453C200.354 64.0911 200.672 63.6172 200.88 63.0234C201.093 62.4297 201.2 61.7682 201.2 61.0391C201.2 60.3047 201.093 59.6406 200.88 59.0469C200.672 58.4479 200.354 57.9714 199.927 57.6172C199.5 57.263 198.968 57.0859 198.333 57.0859C197.682 57.0859 197.14 57.263 196.708 57.6172C196.281 57.9714 195.961 58.4479 195.747 59.0469C195.539 59.6406 195.435 60.3047 195.435 61.0391C195.435 61.7682 195.539 62.4297 195.747 63.0234C195.961 63.6172 196.281 64.0911 196.708 64.4453C197.14 64.7943 197.682 64.9687 198.333 64.9687ZM206.468 67V55H211.507C212.929 55 214.051 55.2839 214.874 55.8516C215.702 56.4193 216.116 57.2109 216.116 58.2266C216.116 58.8984 215.882 59.4479 215.413 59.875C214.95 60.2969 214.317 60.5807 213.515 60.7266C214.145 60.7786 214.697 60.9375 215.171 61.2031C215.65 61.4687 216.025 61.8177 216.296 62.25C216.567 62.6823 216.702 63.1797 216.702 63.7422C216.702 64.4036 216.528 64.9792 216.179 65.4687C215.835 65.9531 215.332 66.3307 214.671 66.6016C214.015 66.8672 213.218 67 212.28 67H206.468ZM209.116 64.7734H212.28C212.801 64.7734 213.21 64.651 213.507 64.4062C213.804 64.1562 213.952 63.8177 213.952 63.3906C213.952 62.8958 213.804 62.5078 213.507 62.2266C213.21 61.9401 212.801 61.7969 212.28 61.7969H209.116V64.7734ZM209.116 59.9687H211.562C211.947 59.9687 212.278 59.9141 212.554 59.8047C212.83 59.6901 213.041 59.5313 213.187 59.3281C213.332 59.1198 213.405 58.8724 213.405 58.5859C213.405 58.1745 213.236 57.8516 212.897 57.6172C212.564 57.3828 212.101 57.2656 211.507 57.2656H209.116V59.9687ZM219.036 67V55H221.864V59.8437H222.896L226.505 55H229.911L225.466 60.8906L229.958 67H226.536L223.247 62.4766H221.864V67H219.036ZM235.015 67.2422C234.254 67.2422 233.569 67.1068 232.96 66.8359C232.356 66.5599 231.877 66.1536 231.522 65.6172C231.174 65.0807 230.999 64.4193 230.999 63.6328C230.999 62.9557 231.124 62.3958 231.374 61.9531C231.624 61.5104 231.965 61.1562 232.397 60.8906C232.83 60.625 233.317 60.4245 233.858 60.2891C234.405 60.1484 234.97 60.0469 235.554 59.9844C236.257 59.9115 236.827 59.8464 237.265 59.7891C237.702 59.7266 238.02 59.6328 238.218 59.5078C238.421 59.3776 238.522 59.1771 238.522 58.9062V58.8594C238.522 58.2708 238.348 57.8151 237.999 57.4922C237.65 57.1693 237.147 57.0078 236.491 57.0078C235.799 57.0078 235.249 57.1589 234.843 57.4609C234.442 57.763 234.171 58.1198 234.03 58.5312L231.39 58.1562C231.598 57.4271 231.942 56.8177 232.421 56.3281C232.9 55.8333 233.486 55.4635 234.179 55.2187C234.871 54.9688 235.637 54.8438 236.476 54.8438C237.054 54.8438 237.629 54.9115 238.202 55.0469C238.775 55.1823 239.299 55.4062 239.772 55.7187C240.246 56.026 240.627 56.4453 240.913 56.9766C241.205 57.5078 241.351 58.1719 241.351 58.9687V67H238.632V65.3516H238.538C238.366 65.6849 238.124 65.9974 237.812 66.2891C237.504 66.5755 237.116 66.8073 236.647 66.9844C236.184 67.1563 235.64 67.2422 235.015 67.2422ZM235.749 65.1641C236.317 65.1641 236.809 65.0521 237.226 64.8281C237.642 64.599 237.963 64.2969 238.187 63.9219C238.416 63.5469 238.53 63.138 238.53 62.6953V61.2812C238.442 61.3542 238.291 61.4219 238.077 61.4844C237.869 61.5469 237.634 61.6016 237.374 61.6484C237.114 61.6953 236.856 61.737 236.601 61.7734C236.345 61.8099 236.124 61.8411 235.937 61.8672C235.515 61.9245 235.137 62.0182 234.804 62.1484C234.47 62.2786 234.207 62.4609 234.015 62.6953C233.822 62.9245 233.726 63.2214 233.726 63.5859C233.726 64.1068 233.916 64.5 234.296 64.7656C234.676 65.0312 235.16 65.1641 235.749 65.1641ZM249.651 67V55H252.479V59.8437H253.511L257.12 55H260.526L256.081 60.8906L260.573 67H257.151L253.862 62.4766H252.479V67H249.651ZM165.805 94V78H168.703V84.7734H176.117V78H179.023V94H176.117V87.2031H168.703V94H165.805ZM190.871 82.3984C190.798 81.7161 190.491 81.1849 189.949 80.8047C189.413 80.4245 188.715 80.2344 187.855 80.2344C187.251 80.2344 186.733 80.3255 186.301 80.5078C185.868 80.6901 185.538 80.9375 185.309 81.25C185.079 81.5625 184.962 81.9193 184.957 82.3203C184.957 82.6536 185.033 82.9427 185.184 83.1875C185.34 83.4323 185.551 83.6406 185.816 83.8125C186.082 83.9792 186.376 84.1198 186.699 84.2344C187.022 84.349 187.348 84.4453 187.676 84.5234L189.176 84.8984C189.78 85.0391 190.361 85.2292 190.918 85.4687C191.48 85.7083 191.983 86.0104 192.426 86.375C192.874 86.7396 193.228 87.1797 193.488 87.6953C193.749 88.2109 193.879 88.8151 193.879 89.5078C193.879 90.4453 193.639 91.2708 193.16 91.9844C192.681 92.6927 191.988 93.2474 191.082 93.6484C190.181 94.0443 189.09 94.2422 187.809 94.2422C186.564 94.2422 185.483 94.0495 184.566 93.6641C183.655 93.2786 182.941 92.7161 182.426 91.9766C181.915 91.237 181.639 90.3359 181.598 89.2734H184.449C184.491 89.8307 184.663 90.2943 184.965 90.6641C185.267 91.0339 185.66 91.3099 186.145 91.4922C186.634 91.6745 187.181 91.7656 187.785 91.7656C188.415 91.7656 188.967 91.6719 189.441 91.4844C189.921 91.2917 190.296 91.026 190.566 90.6875C190.837 90.3437 190.975 89.9427 190.98 89.4844C190.975 89.0677 190.853 88.724 190.613 88.4531C190.374 88.1771 190.038 87.9479 189.605 87.7656C189.178 87.5781 188.678 87.4115 188.105 87.2656L186.285 86.7969C184.967 86.4583 183.926 85.9453 183.16 85.2578C182.4 84.5651 182.02 83.6458 182.02 82.5C182.02 81.5573 182.275 80.7318 182.785 80.0234C183.301 79.3151 184.001 78.7656 184.887 78.375C185.772 77.9792 186.775 77.7812 187.895 77.7812C189.03 77.7812 190.025 77.9792 190.879 78.375C191.738 78.7656 192.413 79.3099 192.902 80.0078C193.392 80.7005 193.645 81.4974 193.66 82.3984H190.871ZM196.463 94V78H199.361V85.3516H199.557L205.799 78H209.338L203.15 85.1797L209.393 94H205.908L201.135 87.1406L199.361 89.2344V94H196.463Z" fill="white"/>
<path d="M284 43.0171C285.643 43.6784 287.226 44.4129 288.747 45.2137C292.296 43.2403 296.645 42.0647 301.381 42.064C306.117 42.0647 310.466 43.2403 314.015 45.2137C315.535 44.4129 317.118 43.6792 318.761 43.0171C314.09 39.9573 308.026 38.096 301.381 38.0952C294.735 38.096 288.672 39.9565 284 43.0171Z" fill="#A50000"/>
<defs>
<filter id="filter0_d_0_3232" x="0" y="0" width="377" height="144" filterUnits="userSpaceOnUse" color-interpolation-filters="sRGB">
<feFlood flood-opacity="0" result="BackgroundImageFix"/>
<feColorMatrix in="SourceAlpha" type="matrix" values="0 0 0 0 0 0 0 0 0 0 0 0 0 0 0 0 0 0 127 0" result="hardAlpha"/>
<feOffset/>
<feGaussianBlur stdDeviation="8"/>
<feComposite in2="hardAlpha" operator="out"/>
<feColorMatrix type="matrix" values="0 0 0 0 0.44391 0 0 0 0 0.44391 0 0 0 0 0.44391 0 0 0 0.25 0"/>
<feBlend mode="normal" in2="BackgroundImageFix" result="effect1_dropShadow_0_3232"/>
<feBlend mode="normal" in="SourceGraphic" in2="effect1_dropShadow_0_3232" result="shape"/>
</filter>
</defs>
</svg>
