<svg width="377" height="144" viewBox="0 0 377 144" fill="none" xmlns="http://www.w3.org/2000/svg">
<g filter="url(#filter0_d_878_383)">
<path d="M346.364 16C346.364 20.4923 352.449 24.1338 359.955 24.1338C360.307 24.1338 360.655 24.1221 361 24.1064V118.015C360.655 117.999 360.307 117.988 359.955 117.988C352.449 117.988 346.364 121.631 346.364 126.123C346.364 126.769 346.491 127.397 346.729 128H29.2266C29.4645 127.397 29.5908 126.769 29.5908 126.123C29.5908 121.631 23.5061 117.988 16 117.988V24.1338C23.506 24.1338 29.5908 20.4923 29.5908 16H346.364Z" fill="#A50000"/>
</g>
<mask id="path-2-inside-1_878_383" fill="white">
<path d="M339.043 24C339.043 27.8104 344.845 30.8994 352.003 30.8994C352.338 30.8994 352.671 30.8903 353 30.877V110.53C352.671 110.517 352.338 110.509 352.003 110.509C344.845 110.509 339.043 113.598 339.043 117.408C339.043 117.956 339.163 118.489 339.39 119H36.6133C36.8401 118.489 36.9609 117.956 36.9609 117.408C36.9609 113.598 31.1587 110.509 24.001 110.509H24V30.8984L24.001 30.8994C31.1587 30.8993 36.9609 27.8104 36.9609 24H339.043Z"/>
</mask>
<path d="M339.043 24C339.043 27.8104 344.845 30.8994 352.003 30.8994C352.338 30.8994 352.671 30.8903 353 30.877V110.53C352.671 110.517 352.338 110.509 352.003 110.509C344.845 110.509 339.043 113.598 339.043 117.408C339.043 117.956 339.163 118.489 339.39 119H36.6133C36.8401 118.489 36.9609 117.956 36.9609 117.408C36.9609 113.598 31.1587 110.509 24.001 110.509H24V30.8984L24.001 30.8994C31.1587 30.8993 36.9609 27.8104 36.9609 24H339.043Z" fill="#A50000"/>
<path d="M339.043 24H340.043V23H339.043V24ZM352.003 30.8994V31.8994V30.8994ZM353 30.877H354V29.8356L352.96 29.8778L353 30.877ZM353 110.53L352.96 111.529L354 111.572V110.53H353ZM352.003 110.509V109.509V110.509ZM339.043 117.408H338.043V117.408L339.043 117.408ZM339.39 119V120H340.927L340.304 118.594L339.39 119ZM36.6133 119L35.6992 118.594L35.0754 120H36.6133V119ZM36.9609 117.408L37.9609 117.408V117.408H36.9609ZM24.001 110.509L24.001 109.509H24.001V110.509ZM24 110.509H23V111.509H24V110.509ZM24 30.8984L24.7071 30.1913L23 28.4842V30.8984H24ZM24.001 30.8994L23.2939 31.6065L23.5868 31.8994L24.001 31.8994L24.001 30.8994ZM36.9609 24V23H35.9609V24H36.9609ZM339.043 24H338.043C338.043 26.4553 339.896 28.4446 342.369 29.7613C344.885 31.1011 348.293 31.8994 352.003 31.8994V30.8994V29.8994C348.555 29.8994 345.483 29.1532 343.309 27.9959C341.091 26.8155 340.043 25.3552 340.043 24H339.043ZM352.003 30.8994V31.8994C352.356 31.8994 352.703 31.8898 353.04 31.8761L353 30.877L352.96 29.8778C352.639 29.8908 352.321 29.8994 352.003 29.8994V30.8994ZM353 30.877H352V110.53H353H354V30.877H353ZM353 110.53L353.04 109.531C352.701 109.517 352.354 109.509 352.003 109.509V110.509V111.509C352.322 111.509 352.641 111.517 352.96 111.529L353 110.53ZM352.003 110.509V109.509C348.293 109.509 344.885 110.307 342.369 111.647C339.896 112.964 338.043 114.953 338.043 117.408H339.043H340.043C340.043 116.053 341.091 114.593 343.309 113.412C345.483 112.255 348.555 111.509 352.003 111.509V110.509ZM339.043 117.408L338.043 117.408C338.043 118.106 338.196 118.776 338.476 119.406L339.39 119L340.304 118.594C340.129 118.202 340.043 117.807 340.043 117.408L339.043 117.408ZM339.39 119V118H36.6133V119V120H339.39V119ZM36.6133 119L37.5273 119.406C37.8062 118.777 37.9609 118.107 37.9609 117.408L36.9609 117.408L35.9609 117.408C35.9609 117.806 35.874 118.201 35.6992 118.594L36.6133 119ZM36.9609 117.408H37.9609C37.9609 114.953 36.1083 112.964 33.635 111.647C31.1184 110.307 27.7105 109.509 24.001 109.509L24.001 110.509L24.001 111.509C27.4492 111.509 30.5213 112.255 32.6952 113.412C34.9125 114.593 35.9609 116.053 35.9609 117.408H36.9609ZM24.001 110.509V109.509H24V110.509V111.509H24.001V110.509ZM24 110.509H25V30.8984H24H23V110.509H24ZM24 30.8984L23.2929 31.6055L23.2939 31.6065L24.001 30.8994L24.7081 30.1923L24.7071 30.1913L24 30.8984ZM24.001 30.8994L24.001 31.8994C27.7105 31.8994 31.1184 31.1011 33.635 29.7613C36.1083 28.4446 37.9609 26.4552 37.9609 24H36.9609H35.9609C35.9609 25.3552 34.9125 26.8155 32.6952 27.9959C30.5213 29.1532 27.4492 29.8994 24.001 29.8994L24.001 30.8994ZM36.9609 24V25H339.043V24V23H36.9609V24Z" fill="#D9B881" mask="url(#path-2-inside-1_878_383)"/>
<path d="M158.123 60.82C157.723 61.7267 157.297 62.5133 156.843 63.18C156.403 63.8333 155.837 64.3333 155.143 64.68C154.45 65.0267 153.543 65.2 152.423 65.2C152.077 65.2 151.697 65.1733 151.283 65.12C150.87 65.0667 150.49 64.9933 150.143 64.9V62.3C150.463 62.4333 150.817 62.5267 151.203 62.58C151.59 62.6333 151.95 62.66 152.283 62.66C152.723 62.66 153.077 62.5867 153.343 62.44C153.623 62.2933 153.843 62.0933 154.003 61.84C154.177 61.5733 154.317 61.2867 154.423 60.98L149.483 50.72H152.683L155.343 56.9C155.41 57.0333 155.49 57.2067 155.583 57.42C155.677 57.6333 155.77 57.8533 155.863 58.08C155.957 58.3067 156.03 58.5067 156.083 58.68H156.183C156.237 58.52 156.303 58.3267 156.383 58.1C156.477 57.86 156.57 57.62 156.663 57.38C156.77 57.1267 156.863 56.9067 156.943 56.72L159.423 50.72H162.543L158.123 60.82ZM170.185 53.88C171.412 53.88 172.405 54.36 173.165 55.32C173.925 56.2667 174.305 57.6667 174.305 59.52C174.305 60.76 174.125 61.8067 173.765 62.66C173.405 63.5 172.912 64.1333 172.285 64.56C171.658 64.9867 170.932 65.2 170.105 65.2C169.585 65.2 169.132 65.1333 168.745 65C168.372 64.8667 168.052 64.6933 167.785 64.48C167.518 64.2667 167.285 64.04 167.085 63.8H166.925C166.978 64.0533 167.018 64.32 167.045 64.6C167.072 64.8667 167.085 65.1333 167.085 65.4V69.8H164.105V54.08H166.525L166.945 55.5H167.085C167.285 55.2067 167.525 54.94 167.805 54.7C168.085 54.4467 168.418 54.2467 168.805 54.1C169.205 53.9533 169.665 53.88 170.185 53.88ZM169.225 56.26C168.705 56.26 168.292 56.3667 167.985 56.58C167.678 56.7933 167.452 57.12 167.305 57.56C167.172 57.9867 167.098 58.5267 167.085 59.18V59.5C167.085 60.2067 167.152 60.8067 167.285 61.3C167.418 61.78 167.645 62.1467 167.965 62.4C168.285 62.6533 168.718 62.78 169.265 62.78C169.718 62.78 170.092 62.6533 170.385 62.4C170.678 62.1467 170.898 61.7733 171.045 61.28C171.192 60.7867 171.265 60.1867 171.265 59.48C171.265 58.4133 171.098 57.6133 170.765 57.08C170.445 56.5333 169.932 56.26 169.225 56.26ZM186.681 59.52C186.681 60.4267 186.555 61.2333 186.301 61.94C186.061 62.6467 185.708 63.2467 185.241 63.74C184.788 64.22 184.235 64.5867 183.581 64.84C182.928 65.08 182.188 65.2 181.361 65.2C180.601 65.2 179.895 65.08 179.241 64.84C178.601 64.5867 178.048 64.22 177.581 63.74C177.115 63.2467 176.748 62.6467 176.481 61.94C176.228 61.2333 176.101 60.4267 176.101 59.52C176.101 58.3067 176.315 57.2867 176.741 56.46C177.168 55.62 177.781 54.98 178.581 54.54C179.381 54.1 180.328 53.88 181.421 53.88C182.448 53.88 183.355 54.1 184.141 54.54C184.928 54.98 185.548 55.62 186.001 56.46C186.455 57.2867 186.681 58.3067 186.681 59.52ZM179.141 59.52C179.141 60.24 179.215 60.8467 179.361 61.34C179.521 61.82 179.768 62.1867 180.101 62.44C180.435 62.68 180.868 62.8 181.401 62.8C181.935 62.8 182.361 62.68 182.681 62.44C183.015 62.1867 183.255 61.82 183.401 61.34C183.561 60.8467 183.641 60.24 183.641 59.52C183.641 58.8 183.561 58.2 183.401 57.72C183.255 57.24 183.015 56.88 182.681 56.64C182.348 56.4 181.915 56.28 181.381 56.28C180.595 56.28 180.021 56.5533 179.661 57.1C179.315 57.6333 179.141 58.44 179.141 59.52ZM196.304 54.08H199.584L195.264 59.32L199.964 65H196.584L192.124 59.46V65H189.144V54.08H192.124V59.38L196.304 54.08ZM204.407 58.4C204.407 58.6267 204.393 58.9067 204.367 59.24C204.353 59.5733 204.333 59.9133 204.307 60.26C204.293 60.6067 204.273 60.9133 204.247 61.18C204.22 61.4467 204.2 61.6333 204.187 61.74L209.227 54.08H212.807V65H209.927V60.64C209.927 60.28 209.94 59.8867 209.967 59.46C209.993 59.02 210.02 58.6133 210.047 58.24C210.087 57.8533 210.113 57.56 210.127 57.36L205.107 65H201.527V54.08H204.407V58.4ZM224.443 65.2C223.363 65.2 222.443 65.0067 221.683 64.62C220.923 64.22 220.343 63.6067 219.943 62.78C219.543 61.9533 219.343 60.8933 219.343 59.6C219.343 58.2667 219.57 57.18 220.023 56.34C220.477 55.5 221.103 54.88 221.903 54.48C222.717 54.08 223.65 53.88 224.703 53.88C225.45 53.88 226.097 53.9533 226.643 54.1C227.203 54.2467 227.69 54.42 228.103 54.62L227.223 56.92C226.757 56.7333 226.317 56.58 225.903 56.46C225.503 56.34 225.103 56.28 224.703 56.28C224.183 56.28 223.75 56.4067 223.403 56.66C223.057 56.9 222.797 57.2667 222.623 57.76C222.463 58.24 222.383 58.8467 222.383 59.58C222.383 60.3 222.47 60.9 222.643 61.38C222.83 61.8467 223.097 62.2 223.443 62.44C223.79 62.6667 224.21 62.78 224.703 62.78C225.33 62.78 225.883 62.7 226.363 62.54C226.843 62.3667 227.31 62.1333 227.763 61.84V64.38C227.31 64.6733 226.83 64.88 226.323 65C225.83 65.1333 225.203 65.2 224.443 65.2ZM136.265 80.08V84.28H140.425V80.08H143.405V91H140.425V86.5H136.265V91H133.285V80.08H136.265ZM156.447 85.52C156.447 86.4267 156.32 87.2333 156.067 87.94C155.827 88.6467 155.473 89.2467 155.007 89.74C154.553 90.22 154 90.5867 153.347 90.84C152.693 91.08 151.953 91.2 151.127 91.2C150.367 91.2 149.66 91.08 149.007 90.84C148.367 90.5867 147.813 90.22 147.347 89.74C146.88 89.2467 146.513 88.6467 146.247 87.94C145.993 87.2333 145.867 86.4267 145.867 85.52C145.867 84.3067 146.08 83.2867 146.507 82.46C146.933 81.62 147.547 80.98 148.347 80.54C149.147 80.1 150.093 79.88 151.187 79.88C152.213 79.88 153.12 80.1 153.907 80.54C154.693 80.98 155.313 81.62 155.767 82.46C156.22 83.2867 156.447 84.3067 156.447 85.52ZM148.907 85.52C148.907 86.24 148.98 86.8467 149.127 87.34C149.287 87.82 149.533 88.1867 149.867 88.44C150.2 88.68 150.633 88.8 151.167 88.8C151.7 88.8 152.127 88.68 152.447 88.44C152.78 88.1867 153.02 87.82 153.167 87.34C153.327 86.8467 153.407 86.24 153.407 85.52C153.407 84.8 153.327 84.2 153.167 83.72C153.02 83.24 152.78 82.88 152.447 82.64C152.113 82.4 151.68 82.28 151.147 82.28C150.36 82.28 149.787 82.5533 149.427 83.1C149.08 83.6333 148.907 84.44 148.907 85.52ZM163.35 91.2C162.27 91.2 161.35 91.0067 160.59 90.62C159.83 90.22 159.25 89.6067 158.85 88.78C158.45 87.9533 158.25 86.8933 158.25 85.6C158.25 84.2667 158.476 83.18 158.93 82.34C159.383 81.5 160.01 80.88 160.81 80.48C161.623 80.08 162.556 79.88 163.61 79.88C164.356 79.88 165.003 79.9533 165.55 80.1C166.11 80.2467 166.596 80.42 167.01 80.62L166.13 82.92C165.663 82.7333 165.223 82.58 164.81 82.46C164.41 82.34 164.01 82.28 163.61 82.28C163.09 82.28 162.656 82.4067 162.31 82.66C161.963 82.9 161.703 83.2667 161.53 83.76C161.37 84.24 161.29 84.8467 161.29 85.58C161.29 86.3 161.376 86.9 161.55 87.38C161.736 87.8467 162.003 88.2 162.35 88.44C162.696 88.6667 163.116 88.78 163.61 88.78C164.236 88.78 164.79 88.7 165.27 88.54C165.75 88.3667 166.216 88.1333 166.67 87.84V90.38C166.216 90.6733 165.736 90.88 165.23 91C164.736 91.1333 164.11 91.2 163.35 91.2ZM172.063 84.4C172.063 84.6267 172.05 84.9067 172.023 85.24C172.01 85.5733 171.99 85.9133 171.963 86.26C171.95 86.6067 171.93 86.9133 171.903 87.18C171.876 87.4467 171.856 87.6333 171.843 87.74L176.883 80.08H180.463V91H177.583V86.64C177.583 86.28 177.596 85.8867 177.623 85.46C177.65 85.02 177.676 84.6133 177.703 84.24C177.743 83.8533 177.77 83.56 177.783 83.36L172.763 91H169.183V80.08H172.063V84.4ZM192.618 82.32H189.038V91H186.058V82.32H182.478V80.08H192.618V82.32ZM198.937 79.88C199.95 79.88 200.817 80.0733 201.537 80.46C202.27 80.8467 202.837 81.4067 203.237 82.14C203.637 82.8733 203.837 83.7733 203.837 84.84V86.28H196.797C196.824 87.12 197.07 87.78 197.537 88.26C198.017 88.74 198.677 88.98 199.517 88.98C200.224 88.98 200.864 88.9133 201.437 88.78C202.01 88.6333 202.604 88.4133 203.217 88.12V90.42C202.684 90.6867 202.117 90.88 201.517 91C200.93 91.1333 200.217 91.2 199.377 91.2C198.284 91.2 197.317 91 196.477 90.6C195.637 90.1867 194.977 89.5667 194.497 88.74C194.017 87.9133 193.777 86.8733 193.777 85.62C193.777 84.34 193.99 83.28 194.417 82.44C194.857 81.5867 195.464 80.9467 196.237 80.52C197.01 80.0933 197.91 79.88 198.937 79.88ZM198.957 82C198.384 82 197.904 82.1867 197.517 82.56C197.144 82.9333 196.924 83.5133 196.857 84.3H201.037C201.037 83.86 200.957 83.4667 200.797 83.12C200.65 82.7733 200.424 82.5 200.117 82.3C199.81 82.1 199.424 82 198.957 82ZM216.033 91H213.053V82.32H210.313C210.18 83.92 210.013 85.2867 209.813 86.42C209.627 87.54 209.387 88.4533 209.093 89.16C208.813 89.8667 208.453 90.3867 208.013 90.72C207.573 91.04 207.033 91.2 206.393 91.2C206.047 91.2 205.733 91.1733 205.453 91.12C205.173 91.0667 204.92 90.9867 204.693 90.88V88.5C204.84 88.5533 204.993 88.6 205.153 88.64C205.313 88.68 205.48 88.7 205.653 88.7C205.84 88.7 206.013 88.6267 206.173 88.48C206.347 88.3333 206.507 88.0733 206.653 87.7C206.813 87.3267 206.96 86.8133 207.093 86.16C207.227 85.5067 207.347 84.6867 207.453 83.7C207.573 82.7 207.68 81.4933 207.773 80.08H216.033V91ZM223.644 79.88C224.657 79.88 225.524 80.0733 226.244 80.46C226.977 80.8467 227.544 81.4067 227.944 82.14C228.344 82.8733 228.544 83.7733 228.544 84.84V86.28H221.504C221.531 87.12 221.777 87.78 222.244 88.26C222.724 88.74 223.384 88.98 224.224 88.98C224.931 88.98 225.571 88.9133 226.144 88.78C226.717 88.6333 227.311 88.4133 227.924 88.12V90.42C227.391 90.6867 226.824 90.88 226.224 91C225.637 91.1333 224.924 91.2 224.084 91.2C222.991 91.2 222.024 91 221.184 90.6C220.344 90.1867 219.684 89.5667 219.204 88.74C218.724 87.9133 218.484 86.8733 218.484 85.62C218.484 84.34 218.697 83.28 219.124 82.44C219.564 81.5867 220.171 80.9467 220.944 80.52C221.717 80.0933 222.617 79.88 223.644 79.88ZM223.664 82C223.091 82 222.611 82.1867 222.224 82.56C221.851 82.9333 221.631 83.5133 221.564 84.3H225.744C225.744 83.86 225.664 83.4667 225.504 83.12C225.357 82.7733 225.131 82.5 224.824 82.3C224.517 82.1 224.131 82 223.664 82ZM244.72 80.08V91H241.94V85.64C241.94 85.1067 241.947 84.5867 241.96 84.08C241.987 83.5733 242.02 83.1067 242.06 82.68H242L238.98 91H236.74L233.68 82.66H233.6C233.654 83.1 233.687 83.5733 233.7 84.08C233.727 84.5733 233.74 85.12 233.74 85.72V91H230.96V80.08H235.18L237.9 87.48L240.66 80.08H244.72Z" fill="white"/>
<path d="M284 43.0171C285.643 43.6785 287.226 44.413 288.747 45.2137C292.296 43.2404 296.645 42.0648 301.381 42.064C306.117 42.0648 310.466 43.2404 314.015 45.2137C315.535 44.413 317.118 43.6792 318.761 43.0171C314.09 39.9573 308.026 38.096 301.381 38.0952C294.735 38.096 288.672 39.9566 284 43.0171Z" fill="#A50000"/>
<defs>
<filter id="filter0_d_878_383" x="0" y="0" width="377" height="144" filterUnits="userSpaceOnUse" color-interpolation-filters="sRGB">
<feFlood flood-opacity="0" result="BackgroundImageFix"/>
<feColorMatrix in="SourceAlpha" type="matrix" values="0 0 0 0 0 0 0 0 0 0 0 0 0 0 0 0 0 0 127 0" result="hardAlpha"/>
<feOffset/>
<feGaussianBlur stdDeviation="8"/>
<feComposite in2="hardAlpha" operator="out"/>
<feColorMatrix type="matrix" values="0 0 0 0 0.44391 0 0 0 0 0.44391 0 0 0 0 0.44391 0 0 0 0.25 0"/>
<feBlend mode="normal" in2="BackgroundImageFix" result="effect1_dropShadow_878_383"/>
<feBlend mode="normal" in="SourceGraphic" in2="effect1_dropShadow_878_383" result="shape"/>
</filter>
</defs>
</svg>
