<svg width="377" height="144" viewBox="0 0 377 144" fill="none" xmlns="http://www.w3.org/2000/svg">
<g filter="url(#filter0_d_0_3202)">
<path d="M346.364 16C346.364 20.4923 352.449 24.1338 359.955 24.1338C360.307 24.1338 360.655 24.1221 361 24.1064V118.015C360.655 117.999 360.307 117.988 359.955 117.988C352.449 117.988 346.364 121.631 346.364 126.123C346.364 126.769 346.491 127.397 346.729 128H29.2266C29.4645 127.397 29.5908 126.769 29.5908 126.123C29.5908 121.631 23.5061 117.988 16 117.988V24.1338C23.506 24.1338 29.5908 20.4923 29.5908 16H346.364Z" fill="#A50000"/>
</g>
<mask id="path-2-inside-1_0_3202" fill="white">
<path d="M339.043 24C339.043 27.8104 344.845 30.8994 352.003 30.8994C352.338 30.8994 352.671 30.8903 353 30.877V110.53C352.671 110.517 352.338 110.509 352.003 110.509C344.845 110.509 339.043 113.598 339.043 117.408C339.043 117.956 339.163 118.489 339.39 119H36.6133C36.8401 118.489 36.9609 117.956 36.9609 117.408C36.9609 113.598 31.1587 110.509 24.001 110.509H24V30.8984L24.001 30.8994C31.1587 30.8993 36.9609 27.8104 36.9609 24H339.043Z"/>
</mask>
<path d="M339.043 24C339.043 27.8104 344.845 30.8994 352.003 30.8994C352.338 30.8994 352.671 30.8903 353 30.877V110.53C352.671 110.517 352.338 110.509 352.003 110.509C344.845 110.509 339.043 113.598 339.043 117.408C339.043 117.956 339.163 118.489 339.39 119H36.6133C36.8401 118.489 36.9609 117.956 36.9609 117.408C36.9609 113.598 31.1587 110.509 24.001 110.509H24V30.8984L24.001 30.8994C31.1587 30.8993 36.9609 27.8104 36.9609 24H339.043Z" fill="#A50000"/>
<path d="M339.043 24H340.043V23H339.043V24ZM352.003 30.8994V31.8994V30.8994ZM353 30.877H354V29.8356L352.96 29.8778L353 30.877ZM353 110.53L352.96 111.529L354 111.572V110.53H353ZM352.003 110.509V109.509V110.509ZM339.043 117.408H338.043V117.408L339.043 117.408ZM339.39 119V120H340.927L340.304 118.594L339.39 119ZM36.6133 119L35.6992 118.594L35.0754 120H36.6133V119ZM36.9609 117.408L37.9609 117.408V117.408H36.9609ZM24.001 110.509L24.001 109.509H24.001V110.509ZM24 110.509H23V111.509H24V110.509ZM24 30.8984L24.7071 30.1913L23 28.4842V30.8984H24ZM24.001 30.8994L23.2939 31.6065L23.5868 31.8994L24.001 31.8994L24.001 30.8994ZM36.9609 24V23H35.9609V24H36.9609ZM339.043 24H338.043C338.043 26.4553 339.896 28.4446 342.369 29.7613C344.885 31.1011 348.293 31.8994 352.003 31.8994V30.8994V29.8994C348.555 29.8994 345.483 29.1532 343.309 27.9959C341.091 26.8155 340.043 25.3552 340.043 24H339.043ZM352.003 30.8994V31.8994C352.356 31.8994 352.703 31.8898 353.04 31.8761L353 30.877L352.96 29.8778C352.639 29.8908 352.321 29.8994 352.003 29.8994V30.8994ZM353 30.877H352V110.53H353H354V30.877H353ZM353 110.53L353.04 109.531C352.701 109.517 352.354 109.509 352.003 109.509V110.509V111.509C352.322 111.509 352.641 111.517 352.96 111.529L353 110.53ZM352.003 110.509V109.509C348.293 109.509 344.885 110.307 342.369 111.647C339.896 112.964 338.043 114.953 338.043 117.408H339.043H340.043C340.043 116.053 341.091 114.593 343.309 113.412C345.483 112.255 348.555 111.509 352.003 111.509V110.509ZM339.043 117.408L338.043 117.408C338.043 118.106 338.196 118.776 338.476 119.406L339.39 119L340.304 118.594C340.129 118.202 340.043 117.807 340.043 117.408L339.043 117.408ZM339.39 119V118H36.6133V119V120H339.39V119ZM36.6133 119L37.5273 119.406C37.8062 118.777 37.9609 118.107 37.9609 117.408L36.9609 117.408L35.9609 117.408C35.9609 117.806 35.874 118.201 35.6992 118.594L36.6133 119ZM36.9609 117.408H37.9609C37.9609 114.953 36.1083 112.964 33.635 111.647C31.1184 110.307 27.7105 109.509 24.001 109.509L24.001 110.509L24.001 111.509C27.4492 111.509 30.5213 112.255 32.6952 113.412C34.9125 114.593 35.9609 116.053 35.9609 117.408H36.9609ZM24.001 110.509V109.509H24V110.509V111.509H24.001V110.509ZM24 110.509H25V30.8984H24H23V110.509H24ZM24 30.8984L23.2929 31.6055L23.2939 31.6065L24.001 30.8994L24.7081 30.1923L24.7071 30.1913L24 30.8984ZM24.001 30.8994L24.001 31.8994C27.7105 31.8994 31.1184 31.1011 33.635 29.7613C36.1083 28.4446 37.9609 26.4552 37.9609 24H36.9609H35.9609C35.9609 25.3552 34.9125 26.8155 32.6952 27.9959C30.5213 29.1532 27.4492 29.8994 24.001 29.8994L24.001 30.8994ZM36.9609 24V25H339.043V24V23H36.9609V24Z" fill="#FFE2B4" mask="url(#path-2-inside-1_0_3202)"/>
<path d="M144.934 67.2187V64.7812H145.848C146.259 64.7812 146.598 64.7214 146.863 64.6016C147.129 64.4818 147.342 64.3099 147.504 64.0859C147.671 63.862 147.809 63.6016 147.918 63.3047L148.129 62.7656L142.41 51H145.441L149.426 59.5625L152.871 51H155.855L150.34 64.0469C150.085 64.6094 149.79 65.1328 149.457 65.6172C149.124 66.0964 148.689 66.4844 148.152 66.7813C147.621 67.0729 146.928 67.2187 146.074 67.2187H144.934ZM156.914 71.5V55H159.695V56.9844H159.859C160.005 56.6927 160.211 56.3828 160.477 56.0547C160.742 55.7214 161.102 55.4375 161.555 55.2031C162.008 54.9635 162.586 54.8438 163.289 54.8438C164.216 54.8438 165.052 55.0807 165.797 55.5547C166.547 56.0234 167.141 56.7187 167.578 57.6406C168.021 58.5573 168.242 59.6823 168.242 61.0156C168.242 62.3333 168.026 63.4531 167.594 64.375C167.161 65.2969 166.573 66 165.828 66.4844C165.083 66.9688 164.24 67.2109 163.297 67.2109C162.609 67.2109 162.039 67.0964 161.586 66.8672C161.133 66.638 160.768 66.362 160.492 66.0391C160.221 65.7109 160.01 65.401 159.859 65.1094H159.742V71.5H156.914ZM159.688 61C159.688 61.776 159.797 62.4557 160.016 63.0391C160.24 63.6224 160.56 64.0781 160.977 64.4062C161.398 64.7292 161.909 64.8906 162.508 64.8906C163.133 64.8906 163.656 64.724 164.078 64.3906C164.5 64.0521 164.818 63.5911 165.031 63.0078C165.25 62.4193 165.359 61.75 165.359 61C165.359 60.2552 165.253 59.5937 165.039 59.0156C164.826 58.4375 164.508 57.9844 164.086 57.6562C163.664 57.3281 163.138 57.1641 162.508 57.1641C161.904 57.1641 161.391 57.3229 160.969 57.6406C160.547 57.9583 160.227 58.4036 160.008 58.9766C159.794 59.5495 159.688 60.224 159.688 61ZM175.898 67.2344C174.727 67.2344 173.711 66.9766 172.852 66.4609C171.992 65.9453 171.326 65.224 170.852 64.2969C170.383 63.3698 170.148 62.2865 170.148 61.0469C170.148 59.8073 170.383 58.7214 170.852 57.7891C171.326 56.8568 171.992 56.1328 172.852 55.6172C173.711 55.1016 174.727 54.8438 175.898 54.8438C177.07 54.8438 178.086 55.1016 178.945 55.6172C179.805 56.1328 180.469 56.8568 180.937 57.7891C181.411 58.7214 181.648 59.8073 181.648 61.0469C181.648 62.2865 181.411 63.3698 180.937 64.2969C180.469 65.224 179.805 65.9453 178.945 66.4609C178.086 66.9766 177.07 67.2344 175.898 67.2344ZM175.914 64.9687C176.549 64.9687 177.081 64.7943 177.508 64.4453C177.935 64.0911 178.253 63.6172 178.461 63.0234C178.674 62.4297 178.781 61.7682 178.781 61.0391C178.781 60.3047 178.674 59.6406 178.461 59.0469C178.253 58.4479 177.935 57.9714 177.508 57.6172C177.081 57.263 176.549 57.0859 175.914 57.0859C175.263 57.0859 174.721 57.263 174.289 57.6172C173.862 57.9714 173.542 58.4479 173.328 59.0469C173.12 59.6406 173.016 60.3047 173.016 61.0391C173.016 61.7682 173.12 62.4297 173.328 63.0234C173.542 63.6172 173.862 64.0911 174.289 64.4453C174.721 64.7943 175.263 64.9687 175.914 64.9687ZM184.049 67V55H186.877V59.8437H187.908L191.518 55H194.924L190.479 60.8906L194.971 67H191.549L188.26 62.4766H186.877V67H184.049ZM199.301 63.1719L204.105 55H207.012V67H204.277V58.8203L199.488 67H196.574V55H199.301V63.1719ZM220.607 67.2344C219.41 67.2344 218.381 66.9714 217.521 66.4453C216.667 65.9193 216.008 65.1927 215.545 64.2656C215.087 63.3333 214.857 62.2604 214.857 61.0469C214.857 59.8281 215.092 58.7526 215.561 57.8203C216.029 56.8828 216.691 56.1536 217.545 55.6328C218.404 55.1068 219.42 54.8438 220.592 54.8438C221.566 54.8438 222.428 55.0234 223.178 55.3828C223.933 55.737 224.535 56.2396 224.982 56.8906C225.43 57.5365 225.686 58.2917 225.748 59.1562H223.045C222.936 58.5781 222.675 58.0964 222.264 57.7109C221.857 57.3203 221.313 57.125 220.631 57.125C220.053 57.125 219.545 57.2812 219.107 57.5937C218.67 57.901 218.329 58.3437 218.084 58.9219C217.844 59.5 217.725 60.1927 217.725 61C217.725 61.8177 217.844 62.5208 218.084 63.1094C218.324 63.6927 218.66 64.1432 219.092 64.4609C219.529 64.7734 220.042 64.9297 220.631 64.9297C221.048 64.9297 221.42 64.8516 221.748 64.6953C222.081 64.5339 222.36 64.3021 222.584 64C222.808 63.6979 222.962 63.3307 223.045 62.8984H225.748C225.68 63.7474 225.43 64.5 224.998 65.1562C224.566 65.8073 223.977 66.3177 223.232 66.6875C222.488 67.0521 221.613 67.2344 220.607 67.2344ZM137.033 86.8281V89.1484H130.643V86.8281H137.033ZM131.518 82V94H128.791V82H131.518ZM138.885 82V94H136.166V82H138.885ZM146.98 94.2344C145.809 94.2344 144.793 93.9766 143.934 93.4609C143.074 92.9453 142.408 92.224 141.934 91.2969C141.465 90.3698 141.23 89.2865 141.23 88.0469C141.23 86.8073 141.465 85.7214 141.934 84.7891C142.408 83.8568 143.074 83.1328 143.934 82.6172C144.793 82.1016 145.809 81.8438 146.98 81.8438C148.152 81.8438 149.168 82.1016 150.027 82.6172C150.887 83.1328 151.551 83.8568 152.02 84.7891C152.493 85.7214 152.73 86.8073 152.73 88.0469C152.73 89.2865 152.493 90.3698 152.02 91.2969C151.551 92.224 150.887 92.9453 150.027 93.4609C149.168 93.9766 148.152 94.2344 146.98 94.2344ZM146.996 91.9687C147.632 91.9687 148.163 91.7943 148.59 91.4453C149.017 91.0911 149.335 90.6172 149.543 90.0234C149.757 89.4297 149.863 88.7682 149.863 88.0391C149.863 87.3047 149.757 86.6406 149.543 86.0469C149.335 85.4479 149.017 84.9714 148.59 84.6172C148.163 84.263 147.632 84.0859 146.996 84.0859C146.345 84.0859 145.803 84.263 145.371 84.6172C144.944 84.9714 144.624 85.4479 144.41 86.0469C144.202 86.6406 144.098 87.3047 144.098 88.0391C144.098 88.7682 144.202 89.4297 144.41 90.0234C144.624 90.6172 144.944 91.0911 145.371 91.4453C145.803 91.7943 146.345 91.9687 146.996 91.9687ZM160.365 94.2344C159.167 94.2344 158.139 93.9714 157.279 93.4453C156.425 92.9193 155.766 92.1927 155.303 91.2656C154.844 90.3333 154.615 89.2604 154.615 88.0469C154.615 86.8281 154.85 85.7526 155.318 84.8203C155.787 83.8828 156.449 83.1536 157.303 82.6328C158.162 82.1068 159.178 81.8438 160.35 81.8438C161.324 81.8438 162.186 82.0234 162.936 82.3828C163.691 82.737 164.292 83.2396 164.74 83.8906C165.188 84.5365 165.443 85.2917 165.506 86.1562H162.803C162.693 85.5781 162.433 85.0964 162.021 84.7109C161.615 84.3203 161.071 84.125 160.389 84.125C159.811 84.125 159.303 84.2812 158.865 84.5937C158.428 84.901 158.087 85.3437 157.842 85.9219C157.602 86.5 157.482 87.1927 157.482 88C157.482 88.8177 157.602 89.5208 157.842 90.1094C158.081 90.6927 158.417 91.1432 158.85 91.4609C159.287 91.7734 159.8 91.9297 160.389 91.9297C160.805 91.9297 161.178 91.8516 161.506 91.6953C161.839 91.5339 162.118 91.3021 162.342 91C162.566 90.6979 162.719 90.3307 162.803 89.8984H165.506C165.438 90.7474 165.188 91.5 164.756 92.1562C164.324 92.8073 163.735 93.3177 162.99 93.6875C162.245 94.0521 161.37 94.2344 160.365 94.2344ZM170.555 90.1719L175.359 82H178.266V94H175.531V85.8203L170.742 94H167.828V82H170.555V90.1719ZM179.826 84.3203V82H190.326V84.3203H186.443V94H183.709V84.3203H179.826ZM197.396 94.2344C196.193 94.2344 195.154 93.9844 194.279 93.4844C193.41 92.9792 192.74 92.2656 192.271 91.3437C191.803 90.4167 191.568 89.3255 191.568 88.0703C191.568 86.8359 191.803 85.7526 192.271 84.8203C192.745 83.8828 193.407 83.1536 194.256 82.6328C195.105 82.1068 196.102 81.8438 197.248 81.8438C197.988 81.8438 198.686 81.9635 199.342 82.2031C200.003 82.4375 200.587 82.8021 201.092 83.2969C201.602 83.7917 202.003 84.4219 202.295 85.1875C202.587 85.9479 202.732 86.8542 202.732 87.9062V88.7734H192.896V86.8672H200.021C200.016 86.3255 199.899 85.8437 199.67 85.4219C199.441 84.9948 199.12 84.6589 198.709 84.4141C198.303 84.1693 197.829 84.0469 197.287 84.0469C196.709 84.0469 196.201 84.1875 195.764 84.4687C195.326 84.7448 194.985 85.1094 194.74 85.5625C194.501 86.0104 194.378 86.5026 194.373 87.0391V88.7031C194.373 89.401 194.501 90 194.756 90.5C195.011 90.9948 195.368 91.375 195.826 91.6406C196.285 91.901 196.821 92.0312 197.436 92.0312C197.847 92.0312 198.219 91.974 198.553 91.8594C198.886 91.7396 199.175 91.5651 199.42 91.3359C199.665 91.1068 199.85 90.8229 199.975 90.4844L202.615 90.7812C202.449 91.4792 202.131 92.0885 201.662 92.6094C201.199 93.125 200.605 93.526 199.881 93.8125C199.157 94.0937 198.329 94.2344 197.396 94.2344ZM204.297 94L204.281 91.6719H204.695C205.008 91.6719 205.271 91.6016 205.484 91.4609C205.698 91.3203 205.875 91.0859 206.016 90.7578C206.156 90.4245 206.266 89.9766 206.344 89.4141C206.422 88.8516 206.477 88.151 206.508 87.3125L206.719 82H215.469V94H212.734V84.3203H209.289L209.102 88.1875C209.055 89.1875 208.943 90.0547 208.766 90.7891C208.594 91.5182 208.349 92.1198 208.031 92.5938C207.719 93.0677 207.326 93.4219 206.852 93.6562C206.378 93.8854 205.818 94 205.172 94H204.297ZM223.629 94.2344C222.426 94.2344 221.387 93.9844 220.512 93.4844C219.642 92.9792 218.973 92.2656 218.504 91.3437C218.035 90.4167 217.801 89.3255 217.801 88.0703C217.801 86.8359 218.035 85.7526 218.504 84.8203C218.978 83.8828 219.639 83.1536 220.488 82.6328C221.337 82.1068 222.335 81.8438 223.48 81.8438C224.22 81.8438 224.918 81.9635 225.574 82.2031C226.236 82.4375 226.819 82.8021 227.324 83.2969C227.835 83.7917 228.236 84.4219 228.527 85.1875C228.819 85.9479 228.965 86.8542 228.965 87.9062V88.7734H219.129V86.8672H226.254C226.249 86.3255 226.132 85.8437 225.902 85.4219C225.673 84.9948 225.353 84.6589 224.941 84.4141C224.535 84.1693 224.061 84.0469 223.52 84.0469C222.941 84.0469 222.434 84.1875 221.996 84.4687C221.559 84.7448 221.217 85.1094 220.973 85.5625C220.733 86.0104 220.611 86.5026 220.605 87.0391V88.7031C220.605 89.401 220.733 90 220.988 90.5C221.243 90.9948 221.6 91.375 222.059 91.6406C222.517 91.901 223.053 92.0312 223.668 92.0312C224.079 92.0312 224.452 91.974 224.785 91.8594C225.118 91.7396 225.408 91.5651 225.652 91.3359C225.897 91.1068 226.082 90.8229 226.207 90.4844L228.848 90.7812C228.681 91.4792 228.363 92.0885 227.895 92.6094C227.431 93.125 226.837 93.526 226.113 93.8125C225.389 94.0937 224.561 94.2344 223.629 94.2344ZM238.264 90.7109L241.826 82H244.107L239.256 94H237.279L232.537 82H234.795L238.264 90.7109ZM234.084 82V94H231.357V82H234.084ZM242.561 94V82H245.264V94H242.561Z" fill="white"/>
<path d="M284 43.0171C285.643 43.6784 287.226 44.4129 288.747 45.2137C292.296 43.2403 296.645 42.0647 301.381 42.064C306.117 42.0647 310.466 43.2403 314.015 45.2137C315.535 44.4129 317.118 43.6792 318.761 43.0171C314.09 39.9573 308.026 38.096 301.381 38.0952C294.735 38.096 288.672 39.9565 284 43.0171Z" fill="#A50000"/>
<defs>
<filter id="filter0_d_0_3202" x="0" y="0" width="377" height="144" filterUnits="userSpaceOnUse" color-interpolation-filters="sRGB">
<feFlood flood-opacity="0" result="BackgroundImageFix"/>
<feColorMatrix in="SourceAlpha" type="matrix" values="0 0 0 0 0 0 0 0 0 0 0 0 0 0 0 0 0 0 127 0" result="hardAlpha"/>
<feOffset/>
<feGaussianBlur stdDeviation="8"/>
<feComposite in2="hardAlpha" operator="out"/>
<feColorMatrix type="matrix" values="0 0 0 0 0.44391 0 0 0 0 0.44391 0 0 0 0 0.44391 0 0 0 0.25 0"/>
<feBlend mode="normal" in2="BackgroundImageFix" result="effect1_dropShadow_0_3202"/>
<feBlend mode="normal" in="SourceGraphic" in2="effect1_dropShadow_0_3202" result="shape"/>
</filter>
</defs>
</svg>
