<svg width="377" height="144" viewBox="0 0 377 144" fill="none" xmlns="http://www.w3.org/2000/svg">
<g filter="url(#filter0_d_161_587)">
<path d="M346.364 16C346.364 20.4923 352.449 24.1338 359.955 24.1338C360.307 24.1338 360.655 24.1221 361 24.1064V118.015C360.655 117.999 360.307 117.988 359.955 117.988C352.449 117.988 346.364 121.631 346.364 126.123C346.364 126.769 346.491 127.397 346.729 128H29.2266C29.4645 127.397 29.5908 126.769 29.5908 126.123C29.5908 121.631 23.5061 117.988 16 117.988V24.1338C23.506 24.1338 29.5908 20.4923 29.5908 16H346.364Z" fill="#A50000"/>
</g>
<mask id="path-2-inside-1_161_587" fill="white">
<path d="M339.043 24C339.043 27.8104 344.845 30.8994 352.003 30.8994C352.338 30.8994 352.671 30.8903 353 30.877V110.53C352.671 110.517 352.338 110.509 352.003 110.509C344.845 110.509 339.043 113.598 339.043 117.408C339.043 117.956 339.163 118.489 339.39 119H36.6133C36.8401 118.489 36.9609 117.956 36.9609 117.408C36.9609 113.598 31.1587 110.509 24.001 110.509H24V30.8984L24.001 30.8994C31.1587 30.8993 36.9609 27.8104 36.9609 24H339.043Z"/>
</mask>
<path d="M339.043 24C339.043 27.8104 344.845 30.8994 352.003 30.8994C352.338 30.8994 352.671 30.8903 353 30.877V110.53C352.671 110.517 352.338 110.509 352.003 110.509C344.845 110.509 339.043 113.598 339.043 117.408C339.043 117.956 339.163 118.489 339.39 119H36.6133C36.8401 118.489 36.9609 117.956 36.9609 117.408C36.9609 113.598 31.1587 110.509 24.001 110.509H24V30.8984L24.001 30.8994C31.1587 30.8993 36.9609 27.8104 36.9609 24H339.043Z" fill="#A50000"/>
<path d="M339.043 24H340.043V23H339.043V24ZM352.003 30.8994L352.003 31.8994H352.003V30.8994ZM353 30.877H354V29.8356L352.96 29.8778L353 30.877ZM353 110.53L352.96 111.529L354 111.572V110.53H353ZM352.003 110.509L352.003 109.509L352.003 109.509L352.003 110.509ZM339.043 117.408L338.043 117.408L338.043 117.408L339.043 117.408ZM339.39 119V120H340.927L340.304 118.594L339.39 119ZM36.6133 119L35.6992 118.594L35.0754 120H36.6133V119ZM36.9609 117.408L37.9609 117.408V117.408H36.9609ZM24.001 110.509L24.001 109.509H24.001V110.509ZM24 110.509H23V111.509H24V110.509ZM24 30.8984L24.7071 30.1913L23 28.4842V30.8984H24ZM24.001 30.8994L23.2939 31.6065L23.5868 31.8994L24.001 31.8994L24.001 30.8994ZM36.9609 24V23H35.9609V24H36.9609ZM339.043 24H338.043C338.043 26.4553 339.896 28.4446 342.369 29.7613C344.885 31.1011 348.293 31.8994 352.003 31.8994L352.003 30.8994L352.003 29.8994C348.555 29.8994 345.483 29.1532 343.309 27.9959C341.091 26.8155 340.043 25.3552 340.043 24H339.043ZM352.003 30.8994V31.8994C352.356 31.8994 352.703 31.8898 353.04 31.8761L353 30.877L352.96 29.8778C352.639 29.8908 352.321 29.8994 352.003 29.8994V30.8994ZM353 30.877H352V110.53H353H354V30.877H353ZM353 110.53L353.04 109.531C352.701 109.517 352.354 109.509 352.003 109.509V110.509V111.509C352.322 111.509 352.641 111.517 352.96 111.529L353 110.53ZM352.003 110.509L352.003 109.509C348.293 109.509 344.885 110.307 342.369 111.647C339.896 112.964 338.043 114.953 338.043 117.408H339.043H340.043C340.043 116.053 341.091 114.593 343.309 113.412C345.483 112.255 348.555 111.509 352.003 111.509L352.003 110.509ZM339.043 117.408L338.043 117.408C338.043 118.106 338.196 118.776 338.476 119.406L339.39 119L340.304 118.594C340.129 118.202 340.043 117.807 340.043 117.408L339.043 117.408ZM339.39 119V118H36.6133V119V120H339.39V119ZM36.6133 119L37.5273 119.406C37.8062 118.777 37.9609 118.107 37.9609 117.408L36.9609 117.408L35.9609 117.408C35.9609 117.806 35.874 118.201 35.6992 118.594L36.6133 119ZM36.9609 117.408H37.9609C37.9609 114.953 36.1083 112.964 33.635 111.647C31.1184 110.307 27.7105 109.509 24.001 109.509L24.001 110.509L24.001 111.509C27.4492 111.509 30.5213 112.255 32.6952 113.412C34.9125 114.593 35.9609 116.053 35.9609 117.408H36.9609ZM24.001 110.509V109.509H24V110.509V111.509H24.001V110.509ZM24 110.509H25V30.8984H24H23V110.509H24ZM24 30.8984L23.2929 31.6055L23.2939 31.6065L24.001 30.8994L24.7081 30.1923L24.7071 30.1913L24 30.8984ZM24.001 30.8994L24.001 31.8994C27.7105 31.8994 31.1184 31.1011 33.635 29.7613C36.1083 28.4446 37.9609 26.4552 37.9609 24H36.9609H35.9609C35.9609 25.3552 34.9125 26.8155 32.6952 27.9959C30.5213 29.1532 27.4492 29.8994 24.001 29.8994L24.001 30.8994ZM36.9609 24V25H339.043V24V23H36.9609V24Z" fill="#D9B881" mask="url(#path-2-inside-1_161_587)"/>
<path d="M97.3133 69V50.0909H100.739V66.1286H109.067V69H97.3133ZM118.171 69.277C116.749 69.277 115.521 68.9815 114.487 68.3906C113.459 67.7936 112.668 66.9503 112.114 65.8608C111.56 64.7652 111.283 63.4756 111.283 61.9922C111.283 60.5334 111.56 59.2531 112.114 58.1513C112.674 57.0433 113.456 56.1816 114.459 55.5661C115.462 54.9444 116.641 54.6335 117.995 54.6335C118.869 54.6335 119.694 54.7751 120.47 55.0582C121.251 55.3352 121.941 55.7661 122.538 56.3509C123.141 56.9356 123.615 57.6804 123.96 58.5852C124.304 59.4839 124.477 60.5549 124.477 61.7983V62.8232H112.852V60.5703H121.273C121.267 59.9302 121.128 59.3608 120.857 58.8622C120.587 58.3575 120.208 57.9605 119.722 57.6712C119.242 57.3819 118.681 57.2372 118.041 57.2372C117.358 57.2372 116.758 57.4034 116.241 57.7358C115.724 58.062 115.321 58.4929 115.031 59.0284C114.748 59.5578 114.604 60.1394 114.597 60.7734V62.7401C114.597 63.5649 114.748 64.2727 115.05 64.8636C115.351 65.4484 115.773 65.8977 116.315 66.2116C116.856 66.5194 117.49 66.6733 118.217 66.6733C118.703 66.6733 119.143 66.6056 119.537 66.4702C119.931 66.3286 120.273 66.1224 120.562 65.8516C120.851 65.5807 121.07 65.2453 121.217 64.8452L124.338 65.196C124.141 66.0208 123.766 66.741 123.212 67.3565C122.664 67.9659 121.962 68.4399 121.107 68.7784C120.251 69.1108 119.272 69.277 118.171 69.277ZM138.513 58.5668L135.466 58.8991C135.38 58.5914 135.229 58.3021 135.014 58.0312C134.804 57.7604 134.521 57.5419 134.164 57.3757C133.807 57.2095 133.37 57.1264 132.853 57.1264C132.158 57.1264 131.573 57.2772 131.099 57.5788C130.631 57.8804 130.4 58.2713 130.407 58.7514C130.4 59.1638 130.551 59.4993 130.859 59.7578C131.173 60.0163 131.69 60.2287 132.41 60.3949L134.829 60.9119C136.171 61.2012 137.168 61.6598 137.821 62.2876C138.479 62.9155 138.812 63.7372 138.818 64.7528C138.812 65.6454 138.55 66.4332 138.033 67.1165C137.522 67.7936 136.811 68.3229 135.9 68.7045C134.989 69.0862 133.943 69.277 132.761 69.277C131.025 69.277 129.628 68.9138 128.569 68.1875C127.51 67.455 126.88 66.4363 126.676 65.1314L129.936 64.8175C130.083 65.4576 130.397 65.9408 130.877 66.267C131.358 66.5933 131.982 66.7564 132.752 66.7564C133.546 66.7564 134.183 66.5933 134.663 66.267C135.149 65.9408 135.392 65.5376 135.392 65.0575C135.392 64.6513 135.235 64.3158 134.921 64.0511C134.614 63.7865 134.134 63.5833 133.481 63.4418L131.062 62.9339C129.702 62.6508 128.695 62.1738 128.043 61.5028C127.39 60.8258 127.067 59.9702 127.073 58.9361C127.067 58.062 127.304 57.3049 127.784 56.6648C128.271 56.0185 128.945 55.5199 129.806 55.169C130.674 54.812 131.675 54.6335 132.807 54.6335C134.469 54.6335 135.777 54.9875 136.731 55.6953C137.691 56.4032 138.285 57.3603 138.513 58.5668ZM152.783 58.5668L149.736 58.8991C149.65 58.5914 149.499 58.3021 149.283 58.0312C149.074 57.7604 148.791 57.5419 148.434 57.3757C148.077 57.2095 147.64 57.1264 147.123 57.1264C146.427 57.1264 145.842 57.2772 145.369 57.5788C144.901 57.8804 144.67 58.2713 144.676 58.7514C144.67 59.1638 144.821 59.4993 145.128 59.7578C145.442 60.0163 145.959 60.2287 146.68 60.3949L149.099 60.9119C150.44 61.2012 151.438 61.6598 152.09 62.2876C152.749 62.9155 153.081 63.7372 153.087 64.7528C153.081 65.6454 152.82 66.4332 152.302 67.1165C151.792 67.7936 151.081 68.3229 150.17 68.7045C149.259 69.0862 148.212 69.277 147.03 69.277C145.295 69.277 143.897 68.9138 142.839 68.1875C141.78 67.455 141.149 66.4363 140.946 65.1314L144.205 64.8175C144.353 65.4576 144.667 65.9408 145.147 66.267C145.627 66.5933 146.252 66.7564 147.021 66.7564C147.815 66.7564 148.452 66.5933 148.932 66.267C149.419 65.9408 149.662 65.5376 149.662 65.0575C149.662 64.6513 149.505 64.3158 149.191 64.0511C148.883 63.7865 148.403 63.5833 147.751 63.4418L145.332 62.9339C143.971 62.6508 142.965 62.1738 142.312 61.5028C141.66 60.8258 141.337 59.9702 141.343 58.9361C141.337 58.062 141.574 57.3049 142.054 56.6648C142.54 56.0185 143.214 55.5199 144.076 55.169C144.944 54.812 145.944 54.6335 147.077 54.6335C148.739 54.6335 150.047 54.9875 151.001 55.6953C151.961 56.4032 152.555 57.3603 152.783 58.5668ZM162.029 69.277C160.644 69.277 159.444 68.9723 158.429 68.3629C157.413 67.7536 156.625 66.901 156.065 65.8054C155.511 64.7098 155.234 63.4295 155.234 61.9645C155.234 60.4995 155.511 59.2161 156.065 58.1143C156.625 57.0125 157.413 56.157 158.429 55.5476C159.444 54.9382 160.644 54.6335 162.029 54.6335C163.414 54.6335 164.615 54.9382 165.63 55.5476C166.646 56.157 167.431 57.0125 167.985 58.1143C168.545 59.2161 168.825 60.4995 168.825 61.9645C168.825 63.4295 168.545 64.7098 167.985 65.8054C167.431 66.901 166.646 67.7536 165.63 68.3629C164.615 68.9723 163.414 69.277 162.029 69.277ZM162.048 66.5994C162.799 66.5994 163.427 66.3932 163.931 65.9808C164.436 65.5623 164.812 65.0021 165.058 64.3004C165.31 63.5987 165.436 62.817 165.436 61.9553C165.436 61.0874 165.31 60.3026 165.058 59.6009C164.812 58.893 164.436 58.3298 163.931 57.9112C163.427 57.4927 162.799 57.2834 162.048 57.2834C161.278 57.2834 160.638 57.4927 160.127 57.9112C159.623 58.3298 159.244 58.893 158.992 59.6009C158.746 60.3026 158.622 61.0874 158.622 61.9553C158.622 62.817 158.746 63.5987 158.992 64.3004C159.244 65.0021 159.623 65.5623 160.127 65.9808C160.638 66.3932 161.278 66.5994 162.048 66.5994ZM175.004 60.6903V69H171.662V54.8182H174.856V57.228H175.022C175.349 56.4339 175.869 55.803 176.583 55.3352C177.303 54.8674 178.192 54.6335 179.251 54.6335C180.23 54.6335 181.082 54.8428 181.809 55.2614C182.541 55.6799 183.107 56.2862 183.508 57.0803C183.914 57.8743 184.114 58.8376 184.108 59.9702V69H180.765V60.4872C180.765 59.5393 180.519 58.7976 180.027 58.2621C179.54 57.7266 178.866 57.4588 178.005 57.4588C177.42 57.4588 176.9 57.5881 176.444 57.8466C175.995 58.099 175.641 58.4652 175.383 58.9453C175.13 59.4254 175.004 60.0071 175.004 60.6903ZM198.714 58.5668L195.667 58.8991C195.581 58.5914 195.43 58.3021 195.215 58.0312C195.006 57.7604 194.723 57.5419 194.366 57.3757C194.008 57.2095 193.571 57.1264 193.054 57.1264C192.359 57.1264 191.774 57.2772 191.3 57.5788C190.832 57.8804 190.602 58.2713 190.608 58.7514C190.602 59.1638 190.752 59.4993 191.06 59.7578C191.374 60.0163 191.891 60.2287 192.611 60.3949L195.03 60.9119C196.372 61.2012 197.369 61.6598 198.022 62.2876C198.68 62.9155 199.013 63.7372 199.019 64.7528C199.013 65.6454 198.751 66.4332 198.234 67.1165C197.723 67.7936 197.012 68.3229 196.101 68.7045C195.19 69.0862 194.144 69.277 192.962 69.277C191.226 69.277 189.829 68.9138 188.77 68.1875C187.712 67.455 187.081 66.4363 186.878 65.1314L190.137 64.8175C190.285 65.4576 190.598 65.9408 191.079 66.267C191.559 66.5933 192.183 66.7564 192.953 66.7564C193.747 66.7564 194.384 66.5933 194.864 66.267C195.35 65.9408 195.593 65.5376 195.593 65.0575C195.593 64.6513 195.437 64.3158 195.123 64.0511C194.815 63.7865 194.335 63.5833 193.682 63.4418L191.263 62.9339C189.903 62.6508 188.897 62.1738 188.244 61.5028C187.592 60.8258 187.268 59.9702 187.275 58.9361C187.268 58.062 187.505 57.3049 187.986 56.6648C188.472 56.0185 189.146 55.5199 190.008 55.169C190.875 54.812 191.876 54.6335 193.008 54.6335C194.67 54.6335 195.978 54.9875 196.932 55.6953C197.892 56.4032 198.486 57.3603 198.714 58.5668ZM211.151 69L207.144 54.8182H210.551L213.044 64.7898H213.173L215.721 54.8182H219.091L221.64 64.7344H221.778L224.234 54.8182H227.65L223.634 69H220.153L217.494 59.4162H217.3L214.641 69H211.151ZM229.984 69V54.8182H233.326V69H229.984ZM231.664 52.8054C231.135 52.8054 230.679 52.63 230.298 52.2791C229.916 51.9221 229.725 51.4943 229.725 50.9957C229.725 50.491 229.916 50.0632 230.298 49.7124C230.679 49.3553 231.135 49.1768 231.664 49.1768C232.2 49.1768 232.655 49.3553 233.031 49.7124C233.412 50.0632 233.603 50.491 233.603 50.9957C233.603 51.4943 233.412 51.9221 233.031 52.2791C232.655 52.63 232.2 52.8054 231.664 52.8054ZM243.845 54.8182V57.4034H235.692V54.8182H243.845ZM237.705 51.4205H241.047V64.7344C241.047 65.1837 241.115 65.5284 241.25 65.7685C241.392 66.0024 241.577 66.1624 241.804 66.2486C242.032 66.3348 242.285 66.3778 242.562 66.3778C242.771 66.3778 242.962 66.3625 243.134 66.3317C243.312 66.3009 243.448 66.2732 243.54 66.2486L244.103 68.8615C243.925 68.9231 243.669 68.9908 243.337 69.0646C243.011 69.1385 242.611 69.1816 242.137 69.1939C241.3 69.2185 240.546 69.0923 239.875 68.8153C239.204 68.5322 238.671 68.0952 238.277 67.5043C237.89 66.9134 237.699 66.1747 237.705 65.2884V51.4205ZM250.287 60.6903V69H246.945V50.0909H250.213V57.228H250.38C250.712 56.4278 251.226 55.7969 251.921 55.3352C252.623 54.8674 253.516 54.6335 254.599 54.6335C255.584 54.6335 256.443 54.8397 257.175 55.2521C257.907 55.6645 258.474 56.2678 258.874 57.0618C259.28 57.8558 259.483 58.8253 259.483 59.9702V69H256.141V60.4872C256.141 59.5331 255.895 58.7914 255.402 58.2621C254.916 57.7266 254.233 57.4588 253.353 57.4588C252.762 57.4588 252.232 57.5881 251.764 57.8466C251.303 58.099 250.94 58.4652 250.675 58.9453C250.416 59.4254 250.287 60.0071 250.287 60.6903ZM273.42 69.2862C272.522 69.2862 271.712 69.1262 270.992 68.8061C270.278 68.4799 269.712 67.9998 269.293 67.3658C268.881 66.7318 268.675 65.95 268.675 65.0206C268.675 64.2204 268.822 63.5587 269.118 63.0355C269.413 62.5123 269.816 62.0938 270.327 61.7798C270.838 61.4659 271.414 61.2289 272.054 61.0689C272.7 60.9027 273.368 60.7827 274.057 60.7088C274.888 60.6226 275.562 60.5457 276.079 60.478C276.597 60.4041 276.972 60.2933 277.206 60.1456C277.446 59.9917 277.566 59.7547 277.566 59.4347V59.3793C277.566 58.6837 277.36 58.1451 276.947 57.7635C276.535 57.3819 275.941 57.1911 275.165 57.1911C274.347 57.1911 273.697 57.3696 273.217 57.7266C272.743 58.0836 272.423 58.5052 272.257 58.9915L269.136 58.5483C269.382 57.6866 269.789 56.9664 270.355 56.3878C270.921 55.803 271.614 55.366 272.432 55.0767C273.251 54.7812 274.156 54.6335 275.147 54.6335C275.83 54.6335 276.51 54.7135 277.187 54.8736C277.864 55.0336 278.483 55.2983 279.043 55.6676C279.603 56.0308 280.053 56.5263 280.391 57.1541C280.736 57.782 280.908 58.5668 280.908 59.5085V69H277.695V67.0518H277.584C277.381 67.4458 277.095 67.8151 276.726 68.1598C276.363 68.4983 275.904 68.7723 275.35 68.9815C274.802 69.1847 274.159 69.2862 273.42 69.2862ZM274.288 66.8303C274.959 66.8303 275.541 66.6979 276.033 66.4332C276.526 66.1624 276.904 65.8054 277.169 65.3622C277.44 64.919 277.575 64.4358 277.575 63.9126V62.2415C277.471 62.3277 277.292 62.4077 277.04 62.4815C276.793 62.5554 276.516 62.62 276.209 62.6754C275.901 62.7308 275.596 62.7801 275.295 62.8232C274.993 62.8662 274.731 62.9032 274.51 62.9339C274.011 63.0017 273.565 63.1125 273.171 63.2663C272.777 63.4202 272.466 63.6357 272.239 63.9126C272.011 64.1835 271.897 64.5343 271.897 64.9652C271.897 65.5807 272.122 66.0455 272.571 66.3594C273.02 66.6733 273.593 66.8303 274.288 66.8303ZM101.765 88.6903V97H98.4224V82.8182H101.617V85.228H101.783C102.109 84.4339 102.63 83.803 103.344 83.3352C104.064 82.8674 104.953 82.6335 106.012 82.6335C106.991 82.6335 107.843 82.8428 108.569 83.2614C109.302 83.6799 109.868 84.2862 110.268 85.0803C110.675 85.8743 110.875 86.8376 110.868 87.9702V97H107.526V88.4872C107.526 87.5393 107.28 86.7976 106.787 86.2621C106.301 85.7266 105.627 85.4588 104.765 85.4588C104.181 85.4588 103.661 85.5881 103.205 85.8466C102.756 86.099 102.402 86.4652 102.143 86.9453C101.891 87.4254 101.765 88.0071 101.765 88.6903ZM118.347 97.2862C117.448 97.2862 116.639 97.1262 115.919 96.8061C115.205 96.4799 114.639 95.9998 114.22 95.3658C113.808 94.7318 113.601 93.95 113.601 93.0206C113.601 92.2204 113.749 91.5587 114.045 91.0355C114.34 90.5123 114.743 90.0938 115.254 89.7798C115.765 89.4659 116.34 89.2289 116.981 89.0689C117.627 88.9027 118.295 88.7827 118.984 88.7088C119.815 88.6226 120.489 88.5457 121.006 88.478C121.523 88.4041 121.899 88.2933 122.133 88.1456C122.373 87.9917 122.493 87.7547 122.493 87.4347V87.3793C122.493 86.6837 122.287 86.1451 121.874 85.7635C121.462 85.3819 120.868 85.1911 120.092 85.1911C119.273 85.1911 118.624 85.3696 118.144 85.7266C117.67 86.0836 117.35 86.5052 117.184 86.9915L114.063 86.5483C114.309 85.6866 114.715 84.9664 115.282 84.3878C115.848 83.803 116.541 83.366 117.359 83.0767C118.178 82.7812 119.083 82.6335 120.074 82.6335C120.757 82.6335 121.437 82.7135 122.114 82.8736C122.791 83.0336 123.41 83.2983 123.97 83.6676C124.53 84.0308 124.979 84.5263 125.318 85.1541C125.663 85.782 125.835 86.5668 125.835 87.5085V97H122.622V95.0518H122.511C122.308 95.4458 122.022 95.8151 121.653 96.1598C121.289 96.4983 120.831 96.7723 120.277 96.9815C119.729 97.1847 119.086 97.2862 118.347 97.2862ZM119.215 94.8303C119.886 94.8303 120.468 94.6979 120.96 94.4332C121.452 94.1624 121.831 93.8054 122.096 93.3622C122.367 92.919 122.502 92.4358 122.502 91.9126V90.2415C122.397 90.3277 122.219 90.4077 121.966 90.4815C121.72 90.5554 121.443 90.62 121.135 90.6754C120.828 90.7308 120.523 90.7801 120.221 90.8232C119.92 90.8662 119.658 90.9032 119.437 90.9339C118.938 91.0017 118.492 91.1125 118.098 91.2663C117.704 91.4202 117.393 91.6357 117.165 91.9126C116.938 92.1835 116.824 92.5343 116.824 92.9652C116.824 93.5807 117.048 94.0455 117.498 94.3594C117.947 94.6733 118.519 94.8303 119.215 94.8303ZM136.278 82.8182V85.4034H128.125V82.8182H136.278ZM130.138 79.4205H133.48V92.7344C133.48 93.1837 133.548 93.5284 133.683 93.7685C133.825 94.0024 134.009 94.1624 134.237 94.2486C134.465 94.3348 134.717 94.3778 134.994 94.3778C135.203 94.3778 135.394 94.3625 135.567 94.3317C135.745 94.3009 135.881 94.2732 135.973 94.2486L136.536 96.8615C136.358 96.9231 136.102 96.9908 135.77 97.0646C135.443 97.1385 135.043 97.1816 134.569 97.1939C133.732 97.2185 132.978 97.0923 132.307 96.8153C131.636 96.5322 131.104 96.0952 130.71 95.5043C130.322 94.9134 130.131 94.1747 130.138 93.2884V79.4205ZM139.073 97V82.8182H142.415V97H139.073ZM140.753 80.8054C140.224 80.8054 139.768 80.63 139.387 80.2791C139.005 79.9221 138.814 79.4943 138.814 78.9957C138.814 78.491 139.005 78.0632 139.387 77.7124C139.768 77.3553 140.224 77.1768 140.753 77.1768C141.289 77.1768 141.744 77.3553 142.12 77.7124C142.501 78.0632 142.692 78.491 142.692 78.9957C142.692 79.4943 142.501 79.9221 142.12 80.2791C141.744 80.63 141.289 80.8054 140.753 80.8054ZM158.52 82.8182L153.469 97H149.776L144.726 82.8182H148.29L151.549 93.353H151.697L154.965 82.8182H158.52ZM166.629 97.277C165.207 97.277 163.979 96.9815 162.945 96.3906C161.917 95.7936 161.126 94.9503 160.572 93.8608C160.018 92.7652 159.741 91.4756 159.741 89.9922C159.741 88.5334 160.018 87.2531 160.572 86.1513C161.132 85.0433 161.914 84.1816 162.917 83.5661C163.92 82.9444 165.099 82.6335 166.453 82.6335C167.327 82.6335 168.152 82.7751 168.928 83.0582C169.709 83.3352 170.399 83.7661 170.996 84.3509C171.599 84.9356 172.073 85.6804 172.418 86.5852C172.762 87.4839 172.935 88.5549 172.935 89.7983V90.8232H161.31V88.5703H169.731C169.725 87.9302 169.586 87.3608 169.315 86.8622C169.045 86.3575 168.666 85.9605 168.18 85.6712C167.7 85.3819 167.139 85.2372 166.499 85.2372C165.816 85.2372 165.216 85.4034 164.699 85.7358C164.182 86.062 163.779 86.4929 163.489 87.0284C163.206 87.5578 163.062 88.1394 163.055 88.7734V90.7401C163.055 91.5649 163.206 92.2727 163.508 92.8636C163.809 93.4484 164.231 93.8977 164.773 94.2116C165.314 94.5194 165.948 94.6733 166.675 94.6733C167.161 94.6733 167.601 94.6056 167.995 94.4702C168.389 94.3286 168.731 94.1224 169.02 93.8516C169.309 93.5807 169.528 93.2453 169.675 92.8452L172.796 93.196C172.599 94.0208 172.224 94.741 171.67 95.3565C171.122 95.9659 170.42 96.4399 169.565 96.7784C168.709 97.1108 167.73 97.277 166.629 97.277ZM193.42 86.5668L190.373 86.8991C190.287 86.5914 190.136 86.3021 189.921 86.0312C189.712 85.7604 189.429 85.5419 189.072 85.3757C188.715 85.2095 188.278 85.1264 187.76 85.1264C187.065 85.1264 186.48 85.2772 186.006 85.5788C185.538 85.8804 185.308 86.2713 185.314 86.7514C185.308 87.1638 185.458 87.4993 185.766 87.7578C186.08 88.0163 186.597 88.2287 187.317 88.3949L189.736 88.9119C191.078 89.2012 192.075 89.6598 192.728 90.2876C193.386 90.9155 193.719 91.7372 193.725 92.7528C193.719 93.6454 193.457 94.4332 192.94 95.1165C192.429 95.7936 191.718 96.3229 190.807 96.7045C189.896 97.0862 188.85 97.277 187.668 97.277C185.932 97.277 184.535 96.9138 183.476 96.1875C182.418 95.455 181.787 94.4363 181.584 93.1314L184.843 92.8175C184.991 93.4576 185.305 93.9408 185.785 94.267C186.265 94.5933 186.89 94.7564 187.659 94.7564C188.453 94.7564 189.09 94.5933 189.57 94.267C190.056 93.9408 190.3 93.5376 190.3 93.0575C190.3 92.6513 190.143 92.3158 189.829 92.0511C189.521 91.7865 189.041 91.5833 188.388 91.4418L185.969 90.9339C184.609 90.6508 183.603 90.1738 182.95 89.5028C182.298 88.8258 181.974 87.9702 181.981 86.9361C181.974 86.062 182.211 85.3049 182.692 84.6648C183.178 84.0185 183.852 83.5199 184.714 83.169C185.581 82.812 186.582 82.6335 187.714 82.6335C189.376 82.6335 190.684 82.9875 191.638 83.6953C192.599 84.4032 193.193 85.3603 193.42 86.5668ZM196.481 102.318V82.8182H199.768V85.1634H199.962C200.134 84.8187 200.377 84.4524 200.691 84.0646C201.005 83.6707 201.43 83.3352 201.965 83.0582C202.501 82.7751 203.184 82.6335 204.015 82.6335C205.111 82.6335 206.099 82.9136 206.979 83.4737C207.865 84.0277 208.567 84.8494 209.084 85.9389C209.607 87.0223 209.869 88.3518 209.869 89.9276C209.869 91.4848 209.613 92.8082 209.102 93.8977C208.592 94.9872 207.896 95.8182 207.016 96.3906C206.136 96.9631 205.138 97.2493 204.024 97.2493C203.212 97.2493 202.538 97.1139 202.002 96.843C201.467 96.5722 201.036 96.246 200.71 95.8643C200.39 95.4766 200.14 95.1103 199.962 94.7656H199.823V102.318H196.481ZM199.759 89.9091C199.759 90.8262 199.888 91.6295 200.146 92.3189C200.411 93.0083 200.79 93.5469 201.282 93.9347C201.781 94.3163 202.384 94.5071 203.092 94.5071C203.83 94.5071 204.449 94.3101 204.948 93.9162C205.446 93.5161 205.822 92.9714 206.074 92.282C206.333 91.5864 206.462 90.7955 206.462 89.9091C206.462 89.0289 206.336 88.2472 206.083 87.5639C205.831 86.8807 205.455 86.3452 204.957 85.9574C204.458 85.5696 203.837 85.3757 203.092 85.3757C202.378 85.3757 201.771 85.5634 201.273 85.9389C200.774 86.3144 200.396 86.8407 200.137 87.5178C199.885 88.1948 199.759 88.992 199.759 89.9091ZM219.009 97.277C217.588 97.277 216.36 96.9815 215.325 96.3906C214.298 95.7936 213.507 94.9503 212.953 93.8608C212.399 92.7652 212.122 91.4756 212.122 89.9922C212.122 88.5334 212.399 87.2531 212.953 86.1513C213.513 85.0433 214.294 84.1816 215.298 83.5661C216.301 82.9444 217.48 82.6335 218.834 82.6335C219.708 82.6335 220.533 82.7751 221.308 83.0582C222.09 83.3352 222.78 83.7661 223.377 84.3509C223.98 84.9356 224.454 85.6804 224.798 86.5852C225.143 87.4839 225.316 88.5549 225.316 89.7983V90.8232H213.691V88.5703H222.112C222.106 87.9302 221.967 87.3608 221.696 86.8622C221.425 86.3575 221.047 85.9605 220.561 85.6712C220.08 85.3819 219.52 85.2372 218.88 85.2372C218.197 85.2372 217.597 85.4034 217.08 85.7358C216.563 86.062 216.16 86.4929 215.87 87.0284C215.587 87.5578 215.442 88.1394 215.436 88.7734V90.7401C215.436 91.5649 215.587 92.2727 215.889 92.8636C216.19 93.4484 216.612 93.8977 217.154 94.2116C217.695 94.5194 218.329 94.6733 219.056 94.6733C219.542 94.6733 219.982 94.6056 220.376 94.4702C220.77 94.3286 221.111 94.1224 221.401 93.8516C221.69 93.5807 221.909 93.2453 222.056 92.8452L225.177 93.196C224.98 94.0208 224.605 94.741 224.051 95.3565C223.503 95.9659 222.801 96.4399 221.945 96.7784C221.09 97.1108 220.111 97.277 219.009 97.277ZM232.224 97.2862C231.325 97.2862 230.516 97.1262 229.796 96.8061C229.082 96.4799 228.516 95.9998 228.097 95.3658C227.685 94.7318 227.478 93.95 227.478 93.0206C227.478 92.2204 227.626 91.5587 227.922 91.0355C228.217 90.5123 228.62 90.0938 229.131 89.7798C229.642 89.4659 230.217 89.2289 230.858 89.0689C231.504 88.9027 232.172 88.7827 232.861 88.7088C233.692 88.6226 234.366 88.5457 234.883 88.478C235.4 88.4041 235.776 88.2933 236.01 88.1456C236.25 87.9917 236.37 87.7547 236.37 87.4347V87.3793C236.37 86.6837 236.163 86.1451 235.751 85.7635C235.339 85.3819 234.745 85.1911 233.969 85.1911C233.15 85.1911 232.501 85.3696 232.021 85.7266C231.547 86.0836 231.227 86.5052 231.061 86.9915L227.94 86.5483C228.186 85.6866 228.592 84.9664 229.159 84.3878C229.725 83.803 230.417 83.366 231.236 83.0767C232.055 82.7812 232.96 82.6335 233.951 82.6335C234.634 82.6335 235.314 82.7135 235.991 82.8736C236.668 83.0336 237.287 83.2983 237.847 83.6676C238.407 84.0308 238.856 84.5263 239.195 85.1541C239.54 85.782 239.712 86.5668 239.712 87.5085V97H236.499V95.0518H236.388C236.185 95.4458 235.899 95.8151 235.529 96.1598C235.166 96.4983 234.708 96.7723 234.154 96.9815C233.606 97.1847 232.963 97.2862 232.224 97.2862ZM233.092 94.8303C233.763 94.8303 234.345 94.6979 234.837 94.4332C235.329 94.1624 235.708 93.8054 235.973 93.3622C236.243 92.919 236.379 92.4358 236.379 91.9126V90.2415C236.274 90.3277 236.096 90.4077 235.843 90.4815C235.597 90.5554 235.32 90.62 235.012 90.6754C234.705 90.7308 234.4 90.7801 234.098 90.8232C233.797 90.8662 233.535 90.9032 233.314 90.9339C232.815 91.0017 232.369 91.1125 231.975 91.2663C231.581 91.4202 231.27 91.6357 231.042 91.9126C230.815 92.1835 230.701 92.5343 230.701 92.9652C230.701 93.5807 230.925 94.0455 231.375 94.3594C231.824 94.6733 232.396 94.8303 233.092 94.8303ZM246.12 92.5497L246.11 88.5149H246.646L251.743 82.8182H255.648L249.379 89.7983H248.686L246.12 92.5497ZM243.073 97V78.0909H246.415V97H243.073ZM251.973 97L247.357 90.5462L249.61 88.1918L255.971 97H251.973ZM263.57 97.277C262.148 97.277 260.92 96.9815 259.886 96.3906C258.858 95.7936 258.067 94.9503 257.513 93.8608C256.959 92.7652 256.682 91.4756 256.682 89.9922C256.682 88.5334 256.959 87.2531 257.513 86.1513C258.073 85.0433 258.855 84.1816 259.858 83.5661C260.862 82.9444 262.04 82.6335 263.395 82.6335C264.269 82.6335 265.093 82.7751 265.869 83.0582C266.651 83.3352 267.34 83.7661 267.937 84.3509C268.54 84.9356 269.014 85.6804 269.359 86.5852C269.704 87.4839 269.876 88.5549 269.876 89.7983V90.8232H258.252V88.5703H266.672C266.666 87.9302 266.528 87.3608 266.257 86.8622C265.986 86.3575 265.607 85.9605 265.121 85.6712C264.641 85.3819 264.081 85.2372 263.441 85.2372C262.757 85.2372 262.157 85.4034 261.64 85.7358C261.123 86.062 260.72 86.4929 260.431 87.0284C260.148 87.5578 260.003 88.1394 259.997 88.7734V90.7401C259.997 91.5649 260.148 92.2727 260.449 92.8636C260.751 93.4484 261.172 93.8977 261.714 94.2116C262.256 94.5194 262.89 94.6733 263.616 94.6733C264.102 94.6733 264.542 94.6056 264.936 94.4702C265.33 94.3286 265.672 94.1224 265.961 93.8516C266.251 93.5807 266.469 93.2453 266.617 92.8452L269.738 93.196C269.541 94.0208 269.165 94.741 268.611 95.3565C268.063 95.9659 267.362 96.4399 266.506 96.7784C265.65 97.1108 264.672 97.277 263.57 97.277ZM272.704 97V82.8182H275.944V85.1818H276.092C276.351 84.3632 276.794 83.7322 277.422 83.2891C278.056 82.8397 278.779 82.6151 279.591 82.6151C279.776 82.6151 279.982 82.6243 280.21 82.6428C280.444 82.6551 280.638 82.6766 280.792 82.7074V85.782C280.65 85.7327 280.425 85.6896 280.118 85.6527C279.816 85.6096 279.524 85.5881 279.241 85.5881C278.631 85.5881 278.083 85.7204 277.597 85.9851C277.117 86.2436 276.738 86.6037 276.461 87.0653C276.184 87.527 276.046 88.0594 276.046 88.6626V97H272.704Z" fill="white"/>
<path d="M284 43.0171C285.643 43.6784 287.226 44.4129 288.747 45.2137C292.296 43.2403 296.645 42.0647 301.381 42.064C306.117 42.0647 310.466 43.2403 314.015 45.2137C315.535 44.4129 317.118 43.6792 318.761 43.0171C314.09 39.9573 308.026 38.096 301.381 38.0952C294.735 38.096 288.672 39.9565 284 43.0171Z" fill="#A50000"/>
<defs>
<filter id="filter0_d_161_587" x="0" y="0" width="377" height="144" filterUnits="userSpaceOnUse" color-interpolation-filters="sRGB">
<feFlood flood-opacity="0" result="BackgroundImageFix"/>
<feColorMatrix in="SourceAlpha" type="matrix" values="0 0 0 0 0 0 0 0 0 0 0 0 0 0 0 0 0 0 127 0" result="hardAlpha"/>
<feOffset/>
<feGaussianBlur stdDeviation="8"/>
<feComposite in2="hardAlpha" operator="out"/>
<feColorMatrix type="matrix" values="0 0 0 0 0.44391 0 0 0 0 0.44391 0 0 0 0 0.44391 0 0 0 0.25 0"/>
<feBlend mode="normal" in2="BackgroundImageFix" result="effect1_dropShadow_161_587"/>
<feBlend mode="normal" in="SourceGraphic" in2="effect1_dropShadow_161_587" result="shape"/>
</filter>
</defs>
</svg>
