<svg width="456" height="61" viewBox="0 0 456 61" fill="none" xmlns="http://www.w3.org/2000/svg">
<rect width="456" height="61" rx="16" fill="white"/>
<path d="M84.8551 21.5455V39H81.2074V24.5455H74.1506V39H70.5028V21.5455H84.8551ZM104.408 30.2727C104.408 32.1761 104.048 33.7955 103.326 35.1307C102.61 36.4659 101.633 37.4858 100.394 38.1903C99.1612 38.8892 97.7749 39.2386 96.2351 39.2386C94.6839 39.2386 93.2919 38.8864 92.0589 38.1818C90.826 37.4773 89.8516 36.4574 89.1357 35.1222C88.4197 33.7869 88.0618 32.1705 88.0618 30.2727C88.0618 28.3693 88.4197 26.75 89.1357 25.4148C89.8516 24.0795 90.826 23.0625 92.0589 22.3636C93.2919 21.6591 94.6839 21.3068 96.2351 21.3068C97.7749 21.3068 99.1612 21.6591 100.394 22.3636C101.633 23.0625 102.61 24.0795 103.326 25.4148C104.048 26.75 104.408 28.3693 104.408 30.2727ZM100.667 30.2727C100.667 29.0398 100.482 28 100.113 27.1534C99.7493 26.3068 99.2351 25.6648 98.5703 25.2273C97.9055 24.7898 97.1271 24.571 96.2351 24.571C95.343 24.571 94.5646 24.7898 93.8999 25.2273C93.2351 25.6648 92.718 26.3068 92.3487 27.1534C91.9851 28 91.8033 29.0398 91.8033 30.2727C91.8033 31.5057 91.9851 32.5455 92.3487 33.392C92.718 34.2386 93.2351 34.8807 93.8999 35.3182C94.5646 35.7557 95.343 35.9744 96.2351 35.9744C97.1271 35.9744 97.9055 35.7557 98.5703 35.3182C99.2351 34.8807 99.7493 34.2386 100.113 33.392C100.482 32.5455 100.667 31.5057 100.667 30.2727ZM106.196 43.2102V36.0597H107.381C107.784 35.7699 108.153 35.3608 108.489 34.8324C108.824 34.2983 109.111 33.5625 109.349 32.625C109.588 31.6818 109.759 30.4489 109.861 28.9261L110.355 21.5455H121.903V36.0597H123.812V43.1932H120.267V39H109.741V43.2102H106.196ZM111.642 36.0597H118.358V24.5881H113.679L113.406 28.9261C113.332 30.0795 113.21 31.1023 113.04 31.9943C112.875 32.8864 112.673 33.6676 112.435 34.3381C112.202 35.0028 111.938 35.5767 111.642 36.0597ZM126.056 39V21.5455H132.942C134.266 21.5455 135.394 21.7983 136.326 22.304C137.258 22.804 137.968 23.5 138.457 24.392C138.951 25.2784 139.198 26.3011 139.198 27.4602C139.198 28.6193 138.948 29.642 138.448 30.5284C137.948 31.4148 137.224 32.1051 136.275 32.5994C135.332 33.0937 134.19 33.3409 132.849 33.3409H128.46V30.3835H132.252C132.962 30.3835 133.548 30.2614 134.008 30.017C134.474 29.767 134.82 29.4233 135.048 28.9858C135.281 28.5426 135.397 28.0341 135.397 27.4602C135.397 26.8807 135.281 26.375 135.048 25.9432C134.82 25.5057 134.474 25.1676 134.008 24.929C133.542 24.6847 132.951 24.5625 132.235 24.5625H129.746V39H126.056ZM157.635 30.2727C157.635 32.1761 157.274 33.7955 156.553 35.1307C155.837 36.4659 154.859 37.4858 153.621 38.1903C152.388 38.8892 151.001 39.2386 149.462 39.2386C147.911 39.2386 146.518 38.8864 145.286 38.1818C144.053 37.4773 143.078 36.4574 142.362 35.1222C141.646 33.7869 141.288 32.1705 141.288 30.2727C141.288 28.3693 141.646 26.75 142.362 25.4148C143.078 24.0795 144.053 23.0625 145.286 22.3636C146.518 21.6591 147.911 21.3068 149.462 21.3068C151.001 21.3068 152.388 21.6591 153.621 22.3636C154.859 23.0625 155.837 24.0795 156.553 25.4148C157.274 26.75 157.635 28.3693 157.635 30.2727ZM153.893 30.2727C153.893 29.0398 153.709 28 153.339 27.1534C152.976 26.3068 152.462 25.6648 151.797 25.2273C151.132 24.7898 150.354 24.571 149.462 24.571C148.57 24.571 147.791 24.7898 147.126 25.2273C146.462 25.6648 145.945 26.3068 145.575 27.1534C145.212 28 145.03 29.0398 145.03 30.2727C145.03 31.5057 145.212 32.5455 145.575 33.392C145.945 34.2386 146.462 34.8807 147.126 35.3182C147.791 35.7557 148.57 35.9744 149.462 35.9744C150.354 35.9744 151.132 35.7557 151.797 35.3182C152.462 34.8807 152.976 34.2386 153.339 33.392C153.709 32.5455 153.893 31.5057 153.893 30.2727ZM160.369 39V21.5455H171.951V24.5881H164.059V27.9972H166.897C168.278 27.9972 169.468 28.2216 170.468 28.6705C171.474 29.1136 172.249 29.7415 172.795 30.554C173.34 31.3665 173.613 32.3239 173.613 33.4261C173.613 34.5227 173.34 35.4915 172.795 36.3324C172.249 37.1676 171.474 37.821 170.468 38.2926C169.468 38.7642 168.278 39 166.897 39H160.369ZM164.059 36.0341H166.897C167.556 36.0341 168.113 35.9148 168.567 35.6761C169.022 35.4318 169.366 35.1108 169.599 34.7131C169.837 34.3097 169.957 33.8693 169.957 33.392C169.957 32.6989 169.692 32.1136 169.164 31.6364C168.641 31.1534 167.886 30.9119 166.897 30.9119H164.059V36.0341ZM176.001 39V21.5455H179.692V28.7472H187.183V21.5455H190.865V39H187.183V31.7898H179.692V39H176.001ZM193.908 39V21.5455H205.669V24.5881H197.598V28.7472H205.064V31.7898H197.598V35.9574H205.703V39H193.908ZM208.603 39V21.5455H220.364V24.5881H212.293V28.7472H219.759V31.7898H212.293V35.9574H220.398V39H208.603ZM244.893 30.2727C244.893 32.1761 244.532 33.7955 243.81 35.1307C243.094 36.4659 242.117 37.4858 240.879 38.1903C239.646 38.8892 238.259 39.2386 236.719 39.2386C235.168 39.2386 233.776 38.8864 232.543 38.1818C231.31 37.4773 230.336 36.4574 229.62 35.1222C228.904 33.7869 228.546 32.1705 228.546 30.2727C228.546 28.3693 228.904 26.75 229.62 25.4148C230.336 24.0795 231.31 23.0625 232.543 22.3636C233.776 21.6591 235.168 21.3068 236.719 21.3068C238.259 21.3068 239.646 21.6591 240.879 22.3636C242.117 23.0625 243.094 24.0795 243.81 25.4148C244.532 26.75 244.893 28.3693 244.893 30.2727ZM241.151 30.2727C241.151 29.0398 240.967 28 240.597 27.1534C240.234 26.3068 239.719 25.6648 239.055 25.2273C238.39 24.7898 237.612 24.571 236.719 24.571C235.827 24.571 235.049 24.7898 234.384 25.2273C233.719 25.6648 233.202 26.3068 232.833 27.1534C232.469 28 232.288 29.0398 232.288 30.2727C232.288 31.5057 232.469 32.5455 232.833 33.392C233.202 34.2386 233.719 34.8807 234.384 35.3182C235.049 35.7557 235.827 35.9744 236.719 35.9744C237.612 35.9744 238.39 35.7557 239.055 35.3182C239.719 34.8807 240.234 34.2386 240.597 33.392C240.967 32.5455 241.151 31.5057 241.151 30.2727ZM263.741 39L258.133 31.5597H256.871V39H253.181V21.5455H256.871V28.517H257.613L263.408 21.5455H268.002L261.192 29.642L268.317 39H263.741ZM272.057 39.2386V36.2386H273.003C273.474 36.2386 273.855 36.1818 274.145 36.0682C274.435 35.9489 274.665 35.7756 274.835 35.5483C275.011 35.3153 275.159 35.0256 275.278 34.679L275.491 34.108L269.151 21.5455H272.969L277.077 30.1364L280.511 21.5455H284.278L278.261 35.5739C277.972 36.2216 277.628 36.8239 277.23 37.3807C276.838 37.9375 276.335 38.3864 275.722 38.7273C275.108 39.0682 274.324 39.2386 273.369 39.2386H272.057ZM286.275 39V21.5455H293.161C294.485 21.5455 295.613 21.7983 296.545 22.304C297.477 22.804 298.187 23.5 298.675 24.392C299.17 25.2784 299.417 26.3011 299.417 27.4602C299.417 28.6193 299.167 29.642 298.667 30.5284C298.167 31.4148 297.442 32.1051 296.494 32.5994C295.55 33.0937 294.408 33.3409 293.067 33.3409H288.678V30.3835H292.471C293.181 30.3835 293.766 30.2614 294.227 30.017C294.692 29.767 295.039 29.4233 295.266 28.9858C295.499 28.5426 295.616 28.0341 295.616 27.4602C295.616 26.8807 295.499 26.375 295.266 25.9432C295.039 25.5057 294.692 25.1676 294.227 24.929C293.761 24.6847 293.17 24.5625 292.454 24.5625H289.965V39H286.275ZM317.214 27.6562H313.482C313.413 27.1733 313.274 26.7443 313.064 26.3693C312.854 25.9886 312.584 25.6648 312.254 25.3977C311.925 25.1307 311.544 24.9261 311.112 24.7841C310.686 24.642 310.223 24.571 309.723 24.571C308.82 24.571 308.033 24.7955 307.362 25.2443C306.692 25.6875 306.172 26.3352 305.803 27.1875C305.433 28.0341 305.249 29.0625 305.249 30.2727C305.249 31.517 305.433 32.5625 305.803 33.4091C306.178 34.2557 306.7 34.8949 307.371 35.3267C308.041 35.7585 308.817 35.9744 309.697 35.9744C310.192 35.9744 310.649 35.9091 311.07 35.7784C311.496 35.6477 311.874 35.4574 312.203 35.2074C312.533 34.9517 312.805 34.642 313.021 34.2784C313.243 33.9148 313.396 33.5 313.482 33.0341L317.214 33.0511C317.118 33.8523 316.876 34.625 316.49 35.3693C316.109 36.108 315.595 36.7699 314.947 37.3551C314.305 37.9347 313.538 38.3949 312.646 38.7358C311.76 39.071 310.757 39.2386 309.638 39.2386C308.081 39.2386 306.689 38.8864 305.462 38.1818C304.24 37.4773 303.274 36.4574 302.564 35.1222C301.859 33.7869 301.507 32.1705 301.507 30.2727C301.507 28.3693 301.865 26.75 302.581 25.4148C303.297 24.0795 304.268 23.0625 305.496 22.3636C306.723 21.6591 308.104 21.3068 309.638 21.3068C310.649 21.3068 311.587 21.4489 312.45 21.733C313.32 22.017 314.089 22.4318 314.76 22.9773C315.43 23.517 315.976 24.179 316.396 24.9631C316.822 25.7472 317.095 26.6449 317.214 27.6562ZM322.541 39H318.587L324.612 21.5455H329.368L335.385 39H331.43L327.058 25.5341H326.922L322.541 39ZM322.294 32.1392H331.635V35.0199H322.294V32.1392ZM340.946 21.5455L344.466 27.4943H344.602L348.139 21.5455H352.307L346.98 30.2727L352.426 39H348.182L344.602 33.0426H344.466L340.886 39H336.659L342.122 30.2727L336.761 21.5455H340.946Z" fill="#604127"/>
<path d="M368.5 30.5H382.5M382.5 30.5L376.5 24.5M382.5 30.5L376.5 36.5" stroke="#A50000" stroke-width="2" stroke-linecap="round" stroke-linejoin="round"/>
</svg>
