<svg width="456" height="61" viewBox="0 0 456 61" fill="none" xmlns="http://www.w3.org/2000/svg">
<rect width="456" height="61" rx="8" fill="white"/>
<path d="M33.7216 21.5455H37.5909L42.7727 34.1932H42.9773L48.1591 21.5455H52.0284V39H48.9943V27.0085H48.8324L44.0085 38.9489H41.7415L36.9176 26.983H36.7557V39H33.7216V21.5455ZM71.0682 30.2727C71.0682 32.1534 70.7159 33.7642 70.0114 35.1051C69.3125 36.4403 68.358 37.4631 67.1477 38.1733C65.9432 38.8835 64.5767 39.2386 63.0483 39.2386C61.5199 39.2386 60.1506 38.8835 58.9403 38.1733C57.7358 37.4574 56.7813 36.4318 56.0767 35.0966C55.3778 33.7557 55.0284 32.1477 55.0284 30.2727C55.0284 28.392 55.3778 26.7841 56.0767 25.4489C56.7813 24.108 57.7358 23.0824 58.9403 22.3722C60.1506 21.6619 61.5199 21.3068 63.0483 21.3068C64.5767 21.3068 65.9432 21.6619 67.1477 22.3722C68.358 23.0824 69.3125 24.108 70.0114 25.4489C70.7159 26.7841 71.0682 28.392 71.0682 30.2727ZM67.8892 30.2727C67.8892 28.9489 67.6818 27.8324 67.267 26.9233C66.858 26.0085 66.2898 25.3182 65.5625 24.8523C64.8352 24.3807 63.9972 24.1449 63.0483 24.1449C62.0994 24.1449 61.2614 24.3807 60.5341 24.8523C59.8068 25.3182 59.2358 26.0085 58.821 26.9233C58.4119 27.8324 58.2074 28.9489 58.2074 30.2727C58.2074 31.5966 58.4119 32.7159 58.821 33.6307C59.2358 34.5398 59.8068 35.2301 60.5341 35.7017C61.2614 36.1676 62.0994 36.4006 63.0483 36.4006C63.9972 36.4006 64.8352 36.1676 65.5625 35.7017C66.2898 35.2301 66.858 34.5398 67.267 33.6307C67.6818 32.7159 67.8892 31.5966 67.8892 30.2727ZM74.0575 39V21.5455H80.603C81.9439 21.5455 83.0689 21.7784 83.978 22.2443C84.8928 22.7102 85.5831 23.3636 86.049 24.2045C86.5206 25.0398 86.7564 26.0142 86.7564 27.1278C86.7564 28.2472 86.5178 29.2187 86.0405 30.0426C85.5689 30.8608 84.8729 31.4943 83.9524 31.9432C83.032 32.3864 81.9013 32.608 80.5604 32.608H75.8984V29.983H80.1342C80.9183 29.983 81.5604 29.875 82.0604 29.6591C82.5604 29.4375 82.9297 29.1165 83.1683 28.696C83.4126 28.2699 83.5348 27.7472 83.5348 27.1278C83.5348 26.5085 83.4126 25.9801 83.1683 25.5426C82.924 25.0994 82.5518 24.7642 82.0518 24.5369C81.5518 24.304 80.907 24.1875 80.1172 24.1875H77.2195V39H74.0575ZM83.0746 31.0909L87.3956 39H83.8672L79.6229 31.0909H83.0746ZM89.6669 39V21.5455H101.019V24.196H92.8288V28.9347H100.431V31.5852H92.8288V36.3494H101.087V39H89.6669ZM112.44 39H109.065L115.21 21.5455H119.113L125.266 39H121.891L117.229 25.125H117.093L112.44 39ZM112.55 32.1562H121.755V34.696H112.55V32.1562ZM127.565 39V21.5455H134.247C135.509 21.5455 136.557 21.7443 137.392 22.142C138.233 22.5341 138.861 23.071 139.276 23.7528C139.696 24.4347 139.906 25.2074 139.906 26.071C139.906 26.7812 139.77 27.3892 139.497 27.8949C139.224 28.3949 138.858 28.8011 138.398 29.1136C137.938 29.4261 137.423 29.6506 136.855 29.7869V29.9574C137.474 29.9915 138.068 30.1818 138.636 30.5284C139.21 30.8693 139.679 31.3523 140.043 31.9773C140.406 32.6023 140.588 33.358 140.588 34.2443C140.588 35.1477 140.369 35.9602 139.932 36.6818C139.494 37.3977 138.835 37.9631 137.955 38.3778C137.074 38.7926 135.966 39 134.631 39H127.565ZM130.727 36.358H134.128C135.276 36.358 136.102 36.1392 136.608 35.7017C137.119 35.2585 137.375 34.6903 137.375 33.9972C137.375 33.4801 137.247 33.0142 136.991 32.5994C136.736 32.179 136.372 31.8494 135.901 31.6108C135.429 31.3665 134.866 31.2443 134.213 31.2443H130.727V36.358ZM130.727 28.9688H133.855C134.401 28.9688 134.892 28.8693 135.33 28.6705C135.767 28.4659 136.111 28.179 136.361 27.8097C136.616 27.4347 136.744 26.9915 136.744 26.4801C136.744 25.804 136.506 25.2472 136.028 24.8097C135.557 24.3722 134.855 24.1534 133.923 24.1534H130.727V28.9688ZM158.935 30.2727C158.935 32.1534 158.583 33.7642 157.879 35.1051C157.18 36.4403 156.225 37.4631 155.015 38.1733C153.81 38.8835 152.444 39.2386 150.915 39.2386C149.387 39.2386 148.018 38.8835 146.808 38.1733C145.603 37.4574 144.648 36.4318 143.944 35.0966C143.245 33.7557 142.896 32.1477 142.896 30.2727C142.896 28.392 143.245 26.7841 143.944 25.4489C144.648 24.108 145.603 23.0824 146.808 22.3722C148.018 21.6619 149.387 21.3068 150.915 21.3068C152.444 21.3068 153.81 21.6619 155.015 22.3722C156.225 23.0824 157.18 24.108 157.879 25.4489C158.583 26.7841 158.935 28.392 158.935 30.2727ZM155.756 30.2727C155.756 28.9489 155.549 27.8324 155.134 26.9233C154.725 26.0085 154.157 25.3182 153.43 24.8523C152.702 24.3807 151.864 24.1449 150.915 24.1449C149.967 24.1449 149.129 24.3807 148.401 24.8523C147.674 25.3182 147.103 26.0085 146.688 26.9233C146.279 27.8324 146.075 28.9489 146.075 30.2727C146.075 31.5966 146.279 32.7159 146.688 33.6307C147.103 34.5398 147.674 35.2301 148.401 35.7017C149.129 36.1676 149.967 36.4006 150.915 36.4006C151.864 36.4006 152.702 36.1676 153.43 35.7017C154.157 35.2301 154.725 34.5398 155.134 33.6307C155.549 32.7159 155.756 31.5966 155.756 30.2727ZM172.928 21.5455H176.089V32.9489C176.089 34.1989 175.794 35.2983 175.203 36.2472C174.618 37.196 173.794 37.9375 172.732 38.4716C171.669 39 170.428 39.2642 169.007 39.2642C167.581 39.2642 166.337 39 165.274 38.4716C164.212 37.9375 163.388 37.196 162.803 36.2472C162.217 35.2983 161.925 34.1989 161.925 32.9489V21.5455H165.087V32.6847C165.087 33.4119 165.246 34.0597 165.564 34.6278C165.888 35.196 166.342 35.642 166.928 35.9659C167.513 36.2841 168.206 36.4432 169.007 36.4432C169.808 36.4432 170.501 36.2841 171.087 35.9659C171.678 35.642 172.132 35.196 172.45 34.6278C172.768 34.0597 172.928 33.4119 172.928 32.6847V21.5455ZM178.759 24.196V21.5455H192.685V24.196H187.29V39H184.154V24.196H178.759ZM200.556 24.196V21.5455H214.482V24.196H209.087V39H205.951V24.196H200.556ZM217.167 39V21.5455H220.329V28.9347H228.417V21.5455H231.587V39H228.417V31.5852H220.329V39H217.167ZM235.026 39V21.5455H246.379V24.196H238.188V28.9347H245.79V31.5852H238.188V36.3494H246.447V39H235.026ZM270.498 27.4347H267.31C267.219 26.9119 267.052 26.4489 266.808 26.0455C266.563 25.6364 266.259 25.2898 265.896 25.0057C265.532 24.7216 265.117 24.5085 264.651 24.3665C264.191 24.2188 263.694 24.1449 263.16 24.1449C262.211 24.1449 261.37 24.3835 260.637 24.8608C259.904 25.3324 259.33 26.0256 258.915 26.9403C258.501 27.8494 258.293 28.9602 258.293 30.2727C258.293 31.608 258.501 32.733 258.915 33.6477C259.336 34.5568 259.91 35.2443 260.637 35.7102C261.37 36.1705 262.208 36.4006 263.151 36.4006C263.674 36.4006 264.163 36.3324 264.617 36.196C265.077 36.054 265.489 35.8466 265.853 35.5739C266.222 35.3011 266.532 34.9659 266.782 34.5682C267.038 34.1705 267.214 33.7159 267.31 33.2045L270.498 33.2216C270.379 34.0511 270.12 34.8295 269.722 35.5568C269.33 36.2841 268.816 36.9261 268.18 37.483C267.543 38.0341 266.799 38.4659 265.947 38.7784C265.094 39.0852 264.148 39.2386 263.109 39.2386C261.575 39.2386 260.205 38.8835 259.001 38.1733C257.796 37.4631 256.847 36.4375 256.154 35.0966C255.461 33.7557 255.114 32.1477 255.114 30.2727C255.114 28.392 255.464 26.7841 256.163 25.4489C256.862 24.108 257.813 23.0824 259.018 22.3722C260.222 21.6619 261.586 21.3068 263.109 21.3068C264.08 21.3068 264.984 21.4432 265.819 21.7159C266.654 21.9886 267.398 22.3892 268.052 22.9176C268.705 23.4403 269.242 24.0824 269.663 24.8438C270.089 25.5994 270.367 26.4631 270.498 27.4347ZM288.99 30.2727C288.99 32.1534 288.638 33.7642 287.933 35.1051C287.234 36.4403 286.28 37.4631 285.07 38.1733C283.865 38.8835 282.499 39.2386 280.97 39.2386C279.442 39.2386 278.072 38.8835 276.862 38.1733C275.658 37.4574 274.703 36.4318 273.999 35.0966C273.3 33.7557 272.95 32.1477 272.95 30.2727C272.95 28.392 273.3 26.7841 273.999 25.4489C274.703 24.108 275.658 23.0824 276.862 22.3722C278.072 21.6619 279.442 21.3068 280.97 21.3068C282.499 21.3068 283.865 21.6619 285.07 22.3722C286.28 23.0824 287.234 24.108 287.933 25.4489C288.638 26.7841 288.99 28.392 288.99 30.2727ZM285.811 30.2727C285.811 28.9489 285.604 27.8324 285.189 26.9233C284.78 26.0085 284.212 25.3182 283.484 24.8523C282.757 24.3807 281.919 24.1449 280.97 24.1449C280.021 24.1449 279.183 24.3807 278.456 24.8523C277.729 25.3182 277.158 26.0085 276.743 26.9233C276.334 27.8324 276.129 28.9489 276.129 30.2727C276.129 31.5966 276.334 32.7159 276.743 33.6307C277.158 34.5398 277.729 35.2301 278.456 35.7017C279.183 36.1676 280.021 36.4006 280.97 36.4006C281.919 36.4006 282.757 36.1676 283.484 35.7017C284.212 35.2301 284.78 34.5398 285.189 33.6307C285.604 32.7159 285.811 31.5966 285.811 30.2727ZM302.982 21.5455H306.144V32.9489C306.144 34.1989 305.849 35.2983 305.258 36.2472C304.673 37.196 303.849 37.9375 302.786 38.4716C301.724 39 300.482 39.2642 299.062 39.2642C297.636 39.2642 296.391 39 295.329 38.4716C294.266 37.9375 293.442 37.196 292.857 36.2472C292.272 35.2983 291.979 34.1989 291.979 32.9489V21.5455H295.141V32.6847C295.141 33.4119 295.3 34.0597 295.619 34.6278C295.942 35.196 296.397 35.642 296.982 35.9659C297.567 36.2841 298.261 36.4432 299.062 36.4432C299.863 36.4432 300.556 36.2841 301.141 35.9659C301.732 35.642 302.187 35.196 302.505 34.6278C302.823 34.0597 302.982 33.4119 302.982 32.6847V21.5455ZM309.581 39V21.5455H316.126C317.467 21.5455 318.592 21.7784 319.501 22.2443C320.416 22.7102 321.107 23.3636 321.572 24.2045C322.044 25.0398 322.28 26.0142 322.28 27.1278C322.28 28.2472 322.041 29.2187 321.564 30.0426C321.092 30.8608 320.396 31.4943 319.476 31.9432C318.555 32.3864 317.425 32.608 316.084 32.608H311.422V29.983H315.658C316.442 29.983 317.084 29.875 317.584 29.6591C318.084 29.4375 318.453 29.1165 318.692 28.696C318.936 28.2699 319.058 27.7472 319.058 27.1278C319.058 26.5085 318.936 25.9801 318.692 25.5426C318.447 25.0994 318.075 24.7642 317.575 24.5369C317.075 24.304 316.43 24.1875 315.641 24.1875H312.743V39H309.581ZM318.598 31.0909L322.919 39H319.391L315.146 31.0909H318.598ZM334.676 26.3438C334.597 25.5994 334.261 25.0199 333.67 24.6051C333.085 24.1903 332.324 23.983 331.386 23.983C330.727 23.983 330.162 24.0824 329.69 24.2812C329.219 24.4801 328.858 24.75 328.608 25.0909C328.358 25.4318 328.23 25.821 328.224 26.2585C328.224 26.6222 328.307 26.9375 328.472 27.2045C328.642 27.4716 328.872 27.6989 329.162 27.8864C329.452 28.0682 329.773 28.2216 330.125 28.3466C330.477 28.4716 330.832 28.5767 331.19 28.6619L332.827 29.071C333.486 29.2244 334.119 29.4318 334.727 29.6932C335.341 29.9545 335.889 30.2841 336.372 30.6818C336.861 31.0795 337.247 31.5597 337.531 32.1222C337.815 32.6847 337.957 33.3437 337.957 34.0994C337.957 35.1222 337.696 36.0227 337.173 36.8011C336.651 37.5739 335.895 38.179 334.906 38.6165C333.923 39.0483 332.733 39.2642 331.335 39.2642C329.977 39.2642 328.798 39.054 327.798 38.6335C326.804 38.2131 326.026 37.5994 325.463 36.7926C324.906 35.9858 324.605 35.0028 324.56 33.8438H327.67C327.716 34.4517 327.903 34.9574 328.233 35.3608C328.563 35.7642 328.991 36.0653 329.52 36.2642C330.054 36.4631 330.651 36.5625 331.31 36.5625C331.997 36.5625 332.599 36.4602 333.116 36.2557C333.639 36.0455 334.048 35.7557 334.344 35.3864C334.639 35.0114 334.79 34.5739 334.795 34.0739C334.79 33.6193 334.656 33.2443 334.395 32.9489C334.134 32.6477 333.767 32.3977 333.295 32.1989C332.83 31.9943 332.284 31.8125 331.659 31.6534L329.673 31.142C328.236 30.7727 327.099 30.2131 326.264 29.4631C325.435 28.7074 325.02 27.7045 325.02 26.4545C325.02 25.4261 325.298 24.5256 325.855 23.7528C326.418 22.9801 327.182 22.3807 328.148 21.9545C329.114 21.5227 330.207 21.3068 331.429 21.3068C332.668 21.3068 333.753 21.5227 334.685 21.9545C335.622 22.3807 336.358 22.9744 336.892 23.7358C337.426 24.4915 337.702 25.3608 337.719 26.3438H334.676ZM340.776 39V21.5455H352.129V24.196H343.938V28.9347H351.54V31.5852H343.938V36.3494H352.197V39H340.776ZM364.84 26.3438C364.761 25.5994 364.425 25.0199 363.835 24.6051C363.249 24.1903 362.488 23.983 361.55 23.983C360.891 23.983 360.326 24.0824 359.854 24.2812C359.383 24.4801 359.022 24.75 358.772 25.0909C358.522 25.4318 358.394 25.821 358.388 26.2585C358.388 26.6222 358.471 26.9375 358.636 27.2045C358.806 27.4716 359.036 27.6989 359.326 27.8864C359.616 28.0682 359.937 28.2216 360.289 28.3466C360.641 28.4716 360.996 28.5767 361.354 28.6619L362.991 29.071C363.65 29.2244 364.283 29.4318 364.891 29.6932C365.505 29.9545 366.053 30.2841 366.536 30.6818C367.025 31.0795 367.411 31.5597 367.695 32.1222C367.979 32.6847 368.121 33.3437 368.121 34.0994C368.121 35.1222 367.86 36.0227 367.337 36.8011C366.815 37.5739 366.059 38.179 365.07 38.6165C364.087 39.0483 362.897 39.2642 361.499 39.2642C360.141 39.2642 358.962 39.054 357.962 38.6335C356.968 38.2131 356.19 37.5994 355.627 36.7926C355.07 35.9858 354.769 35.0028 354.724 33.8438H357.835C357.88 34.4517 358.067 34.9574 358.397 35.3608C358.727 35.7642 359.156 36.0653 359.684 36.2642C360.218 36.4631 360.815 36.5625 361.474 36.5625C362.161 36.5625 362.763 36.4602 363.281 36.2557C363.803 36.0455 364.212 35.7557 364.508 35.3864C364.803 35.0114 364.954 34.5739 364.96 34.0739C364.954 33.6193 364.82 33.2443 364.559 32.9489C364.298 32.6477 363.931 32.3977 363.46 32.1989C362.994 31.9943 362.448 31.8125 361.823 31.6534L359.837 31.142C358.4 30.7727 357.263 30.2131 356.428 29.4631C355.599 28.7074 355.184 27.7045 355.184 26.4545C355.184 25.4261 355.462 24.5256 356.019 23.7528C356.582 22.9801 357.346 22.3807 358.312 21.9545C359.278 21.5227 360.371 21.3068 361.593 21.3068C362.832 21.3068 363.917 21.5227 364.849 21.9545C365.786 22.3807 366.522 22.9744 367.056 23.7358C367.59 24.4915 367.866 25.3608 367.883 26.3438H364.84Z" fill="#502E12"/>
<path d="M405 30.5H419M419 30.5L413 24.5M419 30.5L413 36.5" stroke="#A50000" stroke-width="2" stroke-linecap="round" stroke-linejoin="round"/>
</svg>
