<svg width="80" height="78" viewBox="0 0 80 78" fill="none" xmlns="http://www.w3.org/2000/svg">
<rect width="80" height="77.9309" rx="38.9654" fill="#A50000"/>
<path d="M60 38.0989C60 48.6652 51.0444 57.2323 40 57.2323C38.7014 57.234 37.4065 57.1139 36.1308 56.8744C35.2127 56.7019 34.7536 56.6157 34.4331 56.6647C34.1125 56.7136 33.6584 56.9552 32.75 57.4382C30.1803 58.8048 27.1839 59.2874 24.3022 58.7514C25.3975 57.4042 26.1455 55.7879 26.4756 54.055C26.6756 52.9951 26.18 51.9654 25.4378 51.2117C22.0667 47.7885 20 43.1756 20 38.0989C20 27.5326 28.9556 18.9655 40 18.9655C51.0444 18.9655 60 27.5326 60 38.0989Z" stroke="white" stroke-width="3" stroke-linejoin="round"/>
<path d="M39.991 38.9655H40.009M47.9821 38.9655H48M32 38.9655H32.0179" stroke="white" stroke-width="4" stroke-linecap="round" stroke-linejoin="round"/>
</svg>
