<svg width="232" height="280" viewBox="0 0 232 280" fill="none" xmlns="http://www.w3.org/2000/svg">
<g opacity="0.8">
<path d="M107.394 169.705L192.507 195.313C195.136 187.935 197.081 180.3 198.267 172.491L108.927 163.844C108.545 165.835 108.034 167.792 107.394 169.705Z" fill="#A50000"/>
<path d="M107.421 140.306L193.757 114.543C191.108 106.707 187.767 99.2722 183.802 92.2957L104.459 133.799C105.616 135.889 106.609 138.063 107.421 140.306Z" fill="#A50000"/>
<path d="M109.633 150.184L199.488 141.198C198.644 133.265 197.008 125.293 194.565 117.369L108.221 143.133C108.882 145.492 109.347 147.847 109.633 150.184Z" fill="#A50000"/>
<path d="M109.575 160.628L198.979 169.256C199.988 161.105 200.187 152.791 199.521 144.415L109.823 153.295C109.942 155.772 109.852 158.22 109.575 160.628Z" fill="#A50000"/>
<path d="M102.93 131.014L182.115 89.708C177.708 82.4399 172.625 75.6917 166.97 69.5189L98.3928 125.098C100.052 126.963 101.574 128.939 102.93 131.014Z" fill="#A50000"/>
<path d="M96.173 122.743L164.652 67.3007C159.044 61.5029 152.91 56.26 146.367 51.5968L91.5044 118.637C93.1414 119.917 94.697 121.292 96.173 122.743Z" fill="#A50000"/>
<path d="M96.8 187.093L164.262 239.874C169.88 234.043 174.886 227.715 179.236 220.992L100.913 181.974C99.6596 183.759 98.2911 185.471 96.8 187.093Z" fill="#A50000"/>
<path d="M79.4613 111.726L120.531 37.7849C112.953 34.5902 105.068 32.0764 96.97 30.3029L72.9691 109.447C75.1784 110.065 77.3475 110.823 79.4613 111.726Z" fill="#A50000"/>
<path d="M88.7874 116.727L143.493 49.8982C137.253 45.6956 130.666 42.0137 123.798 38.9042L82.6026 113.071C84.7418 114.155 86.8085 115.376 88.7874 116.727Z" fill="#A50000"/>
<path d="M69.4854 108.755L93.4167 29.8498C84.8904 28.2144 76.1529 27.3941 67.3265 27.4561L61.4432 107.8C64.1463 107.89 66.8349 108.21 69.4854 108.755Z" fill="#A50000"/>
<path d="M102.922 179.056L181.343 218.125C185.158 211.856 188.401 205.266 191.05 198.434L106.065 172.861C105.172 174.999 104.122 177.067 102.922 179.056Z" fill="#A50000"/>
<path d="M88.2814 194.552L141.505 258.413C148.803 253.698 155.504 248.31 161.553 242.364L94.2245 189.673C92.3808 191.428 90.3969 193.06 88.2814 194.552Z" fill="#A50000"/>
<path d="M60.5498 111.618L57.8867 156.64L86.6517 191.987C86.6517 191.987 113.602 173.095 103.776 142.841C93.9446 112.569 60.5498 111.618 60.5498 111.618Z" fill="#A50000"/>
<path d="M48.1561 142.423C48.0994 142.44 48.0418 142.448 47.9836 142.466C39.0453 145.118 34.0936 154.326 36.9237 163.032C39.7465 171.716 49.2452 176.618 58.1633 174.011L58.8729 156.393L48.1561 142.423Z" fill="#A50000"/>
</g>
</svg>
