<svg width="346" height="360" viewBox="0 0 346 360" fill="none" xmlns="http://www.w3.org/2000/svg">
<g filter="url(#filter0_d_852_262)">
<path d="M331.321 0C331.321 14.3319 337.424 25.9498 344.951 25.9502C345.304 25.9502 345.654 25.9251 346 25.875V325.464C345.654 325.414 345.304 325.389 344.951 325.389C337.424 325.389 331.321 337.008 331.321 351.34C331.321 353.4 331.448 355.404 331.687 357.326H13.2646C13.503 355.404 13.6309 353.4 13.6309 351.34C13.6309 337.007 7.52781 325.389 0 325.389V25.9502C7.52771 25.9502 13.6307 14.3321 13.6309 0H331.321Z" fill="white"/>
</g>
<mask id="path-2-inside-1_852_262" fill="white">
<path d="M323.405 9.03711C323.405 22.668 329.203 33.7188 336.354 33.7188C336.689 33.7187 337.022 33.6942 337.35 33.6465V318.571C337.022 318.524 336.689 318.499 336.354 318.499C329.203 318.499 323.405 329.549 323.405 343.18C323.405 345.139 323.525 347.045 323.752 348.873H21.2517C21.4781 347.045 21.5994 345.139 21.5994 343.18C21.5993 329.549 15.8015 318.499 8.65015 318.499V33.7188C15.8015 33.7188 21.5993 22.6688 21.5994 9.03809V9.03711H323.405Z"/>
</mask>
<path d="M323.405 9.03711C323.405 22.668 329.203 33.7188 336.354 33.7188C336.689 33.7187 337.022 33.6942 337.35 33.6465V318.571C337.022 318.524 336.689 318.499 336.354 318.499C329.203 318.499 323.405 329.549 323.405 343.18C323.405 345.139 323.525 347.045 323.752 348.873H21.2517C21.4781 347.045 21.5994 345.139 21.5994 343.18C21.5993 329.549 15.8015 318.499 8.65015 318.499V33.7188C15.8015 33.7188 21.5993 22.6688 21.5994 9.03809V9.03711H323.405Z" fill="white"/>
<path d="M323.405 9.03711H324.405V8.03711H323.405V9.03711ZM336.354 33.7188V34.7188H336.354L336.354 33.7188ZM337.35 33.6465H338.35V32.491L337.207 32.6568L337.35 33.6465ZM337.35 318.571L337.207 319.561L338.35 319.727V318.571H337.35ZM336.354 318.499L336.354 317.499H336.354V318.499ZM323.405 343.18H322.405H323.405ZM323.752 348.873V349.873H324.883L324.744 348.75L323.752 348.873ZM21.2517 348.873L20.2593 348.75L20.1202 349.873H21.2517V348.873ZM21.5994 343.18H22.5994H21.5994ZM8.65015 318.499H7.65015V319.499H8.65015V318.499ZM8.65015 33.7188V32.7188H7.65015V33.7188H8.65015ZM21.5994 9.03809L22.5994 9.03809V9.03809H21.5994ZM21.5994 9.03711V8.03711H20.5994V9.03711H21.5994ZM323.405 9.03711H322.405C322.405 15.981 323.88 22.3173 326.312 26.9541C328.72 31.5439 332.221 34.7188 336.354 34.7188V33.7188V32.7188C333.336 32.7188 330.362 30.3682 328.083 26.0249C325.829 21.7286 324.405 15.7241 324.405 9.03711H323.405ZM336.354 33.7188L336.354 34.7188C336.738 34.7187 337.119 34.6906 337.494 34.6361L337.35 33.6465L337.207 32.6568C336.925 32.6978 336.64 32.7187 336.354 32.7188L336.354 33.7188ZM337.35 33.6465H336.35V318.571H337.35H338.35V33.6465H337.35ZM337.35 318.571L337.494 317.582C337.119 317.527 336.738 317.499 336.354 317.499L336.354 318.499L336.354 319.499C336.64 319.499 336.925 319.52 337.207 319.561L337.35 318.571ZM336.354 318.499V317.499C332.221 317.499 328.72 320.674 326.312 325.263C323.88 329.9 322.405 336.236 322.405 343.18H323.405H324.405C324.405 336.493 325.829 330.489 328.083 326.192C330.362 321.849 333.336 319.499 336.354 319.499V318.499ZM323.405 343.18H322.405C322.405 345.18 322.528 347.127 322.759 348.996L323.752 348.873L324.744 348.75C324.523 346.964 324.405 345.098 324.405 343.18H323.405ZM323.752 348.873V347.873H21.2517V348.873V349.873H323.752V348.873ZM21.2517 348.873L22.2441 348.996C22.4756 347.128 22.5994 345.18 22.5994 343.18H21.5994H20.5994C20.5994 345.098 20.4807 346.963 20.2593 348.75L21.2517 348.873ZM21.5994 343.18H22.5994C22.5993 336.236 21.1247 329.9 18.692 325.263C16.284 320.674 12.7835 317.499 8.65015 317.499V318.499V319.499C11.6682 319.499 14.6423 321.849 16.921 326.192C19.1751 330.489 20.5993 336.493 20.5994 343.18H21.5994ZM8.65015 318.499H9.65015V33.7188H8.65015H7.65015V318.499H8.65015ZM8.65015 33.7188V34.7188C12.7834 34.7188 16.284 31.5441 18.692 26.9545C21.1247 22.318 22.5993 15.9819 22.5994 9.03809L21.5994 9.03809L20.5994 9.03808C20.5993 15.725 19.175 21.7292 16.921 26.0253C14.6423 30.3684 11.6682 32.7188 8.65015 32.7188V33.7188ZM21.5994 9.03809H22.5994V9.03711H21.5994H20.5994V9.03809H21.5994ZM21.5994 9.03711V10.0371H323.405V9.03711V8.03711H21.5994V9.03711Z" fill="#D9B881" mask="url(#path-2-inside-1_852_262)"/>
<defs>
<filter id="filter0_d_852_262" x="-16" y="-16" width="378" height="389.326" filterUnits="userSpaceOnUse" color-interpolation-filters="sRGB">
<feFlood flood-opacity="0" result="BackgroundImageFix"/>
<feColorMatrix in="SourceAlpha" type="matrix" values="0 0 0 0 0 0 0 0 0 0 0 0 0 0 0 0 0 0 127 0" result="hardAlpha"/>
<feOffset/>
<feGaussianBlur stdDeviation="8"/>
<feComposite in2="hardAlpha" operator="out"/>
<feColorMatrix type="matrix" values="0 0 0 0 0.44391 0 0 0 0 0.44391 0 0 0 0 0.44391 0 0 0 0.25 0"/>
<feBlend mode="normal" in2="BackgroundImageFix" result="effect1_dropShadow_852_262"/>
<feBlend mode="normal" in="SourceGraphic" in2="effect1_dropShadow_852_262" result="shape"/>
</filter>
</defs>
</svg>
