<svg width="236" height="56" viewBox="0 0 236 56" fill="none" xmlns="http://www.w3.org/2000/svg">
<rect width="236" height="56" rx="16" fill="#A50000"/>
<path d="M38.4631 35.1989C37.4877 35.1989 36.6165 35.0308 35.8494 34.6946C35.0871 34.3584 34.4834 33.892 34.0384 33.2955C33.598 32.6941 33.3613 31.9981 33.3281 31.2074H35.5582C35.5866 31.6383 35.7311 32.0123 35.9915 32.3295C36.2566 32.642 36.6023 32.8835 37.0284 33.054C37.4545 33.2244 37.928 33.3097 38.4489 33.3097C39.0218 33.3097 39.5284 33.2102 39.9688 33.0114C40.4138 32.8125 40.7618 32.5355 41.0128 32.1804C41.2637 31.8205 41.3892 31.4062 41.3892 30.9375C41.3892 30.4498 41.2637 30.0213 41.0128 29.652C40.7666 29.2779 40.4044 28.9844 39.9261 28.7713C39.4527 28.5582 38.8797 28.4517 38.2074 28.4517H36.9787V26.6619H38.2074C38.7472 26.6619 39.2206 26.5649 39.6278 26.3707C40.0398 26.1766 40.3617 25.9067 40.5938 25.5611C40.8258 25.2107 40.9418 24.8011 40.9418 24.3324C40.9418 23.8826 40.84 23.492 40.6364 23.1605C40.4375 22.8243 40.1534 22.5616 39.7841 22.3722C39.4195 22.1828 38.9886 22.0881 38.4915 22.0881C38.018 22.0881 37.5753 22.1757 37.1634 22.3509C36.7562 22.5213 36.4247 22.7675 36.169 23.0895C35.9134 23.4067 35.776 23.7879 35.7571 24.233H33.6335C33.6572 23.447 33.8892 22.7557 34.3295 22.1591C34.7746 21.5625 35.3617 21.0961 36.0909 20.7599C36.8201 20.4238 37.6297 20.2557 38.5199 20.2557C39.4527 20.2557 40.2576 20.438 40.9347 20.8026C41.6165 21.1624 42.142 21.643 42.5114 22.2443C42.8854 22.8456 43.0701 23.5038 43.0653 24.2188C43.0701 25.0331 42.8428 25.7244 42.3835 26.2926C41.929 26.8608 41.3229 27.242 40.5653 27.4361V27.5497C41.5313 27.6965 42.2794 28.08 42.8097 28.7003C43.3447 29.3205 43.6098 30.09 43.6051 31.0085C43.6098 31.8087 43.3873 32.526 42.9375 33.1605C42.4924 33.795 41.884 34.2945 41.1122 34.6591C40.3404 35.0189 39.4574 35.1989 38.4631 35.1989ZM47.7173 35H45.3878L50.6222 20.4545H53.1577L58.392 35H56.0625L51.9503 23.0966H51.8366L47.7173 35ZM48.108 29.304H55.6648V31.1506H48.108V29.304ZM71.8633 20.4545V35H69.6758V22.3295H62.8292V35H60.6417V20.4545H71.8633ZM75.2191 20.4545H77.3924V31.1364H77.5273L84.9279 20.4545H86.9592V35H84.7646V24.3324H84.6296L77.2433 35H75.2191V20.4545ZM102.241 25.1847H100.026C99.9403 24.7112 99.7817 24.2945 99.5497 23.9347C99.3177 23.5748 99.0336 23.2694 98.6974 23.0185C98.3613 22.7675 97.9848 22.5781 97.5682 22.4503C97.1563 22.3224 96.7183 22.2585 96.2543 22.2585C95.4162 22.2585 94.6657 22.4692 94.0028 22.8906C93.3447 23.312 92.8239 23.9299 92.4403 24.7443C92.0616 25.5587 91.8722 26.553 91.8722 27.7273C91.8722 28.911 92.0616 29.91 92.4403 30.7244C92.8239 31.5388 93.3471 32.1544 94.0099 32.571C94.6728 32.9877 95.4186 33.196 96.2472 33.196C96.7064 33.196 97.142 33.1345 97.554 33.0114C97.9706 32.8835 98.3471 32.6965 98.6832 32.4503C99.0194 32.2041 99.3035 31.9034 99.5355 31.5483C99.7723 31.1884 99.9356 30.7765 100.026 30.3125L102.241 30.3196C102.123 31.0346 101.893 31.6927 101.553 32.294C101.216 32.8906 100.783 33.4067 100.253 33.8423C99.7273 34.2732 99.1259 34.607 98.4489 34.8438C97.7718 35.0805 97.0331 35.1989 96.233 35.1989C94.9735 35.1989 93.8513 34.9006 92.8665 34.304C91.8816 33.7027 91.1051 32.8433 90.5369 31.7259C89.9735 30.6084 89.6918 29.2756 89.6918 27.7273C89.6918 26.1742 89.9759 24.8414 90.544 23.7287C91.1122 22.6113 91.8887 21.7543 92.8736 21.1577C93.8584 20.5563 94.9782 20.2557 96.233 20.2557C97.0047 20.2557 97.7244 20.367 98.392 20.5895C99.0644 20.8073 99.6681 21.1293 100.203 21.5554C100.738 21.9768 101.181 22.4929 101.531 23.1037C101.882 23.7098 102.118 24.4034 102.241 25.1847ZM105.999 35H103.669L108.903 20.4545H111.439L116.673 35H114.344L110.232 23.0966H110.118L105.999 35ZM106.389 29.304H113.946V31.1506H106.389V29.304ZM116.338 22.3438V20.4545H127.595V22.3438H123.056V35H120.869V22.3438H116.338ZM131.624 26.321H135.544C136.624 26.321 137.542 26.4962 138.3 26.8466C139.057 27.197 139.635 27.6918 140.033 28.331C140.435 28.9702 140.634 29.723 140.629 30.5895C140.634 31.456 140.435 32.2206 140.033 32.8835C139.635 33.5464 139.057 34.0649 138.3 34.4389C137.542 34.813 136.624 35 135.544 35H130.097V20.4545H132.298V33.1534H135.544C136.174 33.1534 136.704 33.0303 137.135 32.7841C137.571 32.5379 137.9 32.2183 138.122 31.8253C138.349 31.4323 138.463 31.0109 138.463 30.5611C138.463 29.9077 138.212 29.3466 137.71 28.8778C137.208 28.4044 136.486 28.1676 135.544 28.1676H131.624V26.321ZM155.386 25.1847H153.17C153.085 24.7112 152.926 24.2945 152.694 23.9347C152.462 23.5748 152.178 23.2694 151.842 23.0185C151.506 22.7675 151.129 22.5781 150.713 22.4503C150.301 22.3224 149.863 22.2585 149.399 22.2585C148.561 22.2585 147.81 22.4692 147.147 22.8906C146.489 23.312 145.968 23.9299 145.585 24.7443C145.206 25.5587 145.017 26.553 145.017 27.7273C145.017 28.911 145.206 29.91 145.585 30.7244C145.968 31.5388 146.492 32.1544 147.154 32.571C147.817 32.9877 148.563 33.196 149.392 33.196C149.851 33.196 150.287 33.1345 150.699 33.0114C151.115 32.8835 151.492 32.6965 151.828 32.4503C152.164 32.2041 152.448 31.9034 152.68 31.5483C152.917 31.1884 153.08 30.7765 153.17 30.3125L155.386 30.3196C155.268 31.0346 155.038 31.6927 154.697 32.294C154.361 32.8906 153.928 33.4067 153.397 33.8423C152.872 34.2732 152.27 34.607 151.593 34.8438C150.916 35.0805 150.178 35.1989 149.377 35.1989C148.118 35.1989 146.996 34.9006 146.011 34.304C145.026 33.7027 144.25 32.8433 143.681 31.7259C143.118 30.6084 142.836 29.2756 142.836 27.7273C142.836 26.1742 143.12 24.8414 143.689 23.7287C144.257 22.6113 145.033 21.7543 146.018 21.1577C147.003 20.5563 148.123 20.2557 149.377 20.2557C150.149 20.2557 150.869 20.367 151.537 20.5895C152.209 20.8073 152.813 21.1293 153.348 21.5554C153.883 21.9768 154.325 22.4929 154.676 23.1037C155.026 23.7098 155.263 24.4034 155.386 25.1847ZM168.325 35H166.123V22.3366H163.367C162.647 22.3366 162.063 22.4455 161.613 22.6634C161.163 22.8764 160.834 23.1842 160.626 23.5866C160.417 23.9891 160.313 24.465 160.313 25.0142C160.313 25.5587 160.417 26.0251 160.626 26.4134C160.834 26.8016 161.161 27.0975 161.606 27.3011C162.051 27.5047 162.631 27.6065 163.346 27.6065H167.075V29.4957H163.14C162.018 29.4957 161.083 29.3087 160.335 28.9347C159.591 28.5606 159.032 28.0374 158.658 27.3651C158.289 26.688 158.104 25.9044 158.104 25.0142C158.104 24.1193 158.289 23.331 158.658 22.6491C159.028 21.9626 159.584 21.4252 160.327 21.0369C161.076 20.6487 162.011 20.4545 163.133 20.4545H168.325V35ZM161.144 28.4375H163.573L160.043 35H157.55L161.144 28.4375Z" fill="white"/>
<path d="M185 28H199M199 28L193 22M199 28L193 34" stroke="#FFFEFE" stroke-width="1.5" stroke-linecap="round" stroke-linejoin="round"/>
</svg>
