<svg width="414" height="219" viewBox="0 0 414 219" fill="none" xmlns="http://www.w3.org/2000/svg">
<mask id="path-1-outside-1_1_70472" maskUnits="userSpaceOnUse" x="0.560326" y="1.77536" width="414.466" height="216.789" fill="black">
<rect fill="white" x="0.560326" y="1.77536" width="414.466" height="216.789"/>
<path d="M391.47 112.412C397.436 110.287 403.822 110.934 410.044 111.692C407.884 110.866 405.804 109.937 403.767 109.027C402.872 108.627 401.977 108.228 401.079 107.839C393.13 104.394 385.309 101.508 377.074 103.952C367.422 106.816 358.737 113.883 352.249 119.718C352.012 119.931 351.822 120.184 351.624 120.429C351.236 120.908 350.752 121.505 350.08 122.038C337.934 131.692 314.011 141.844 297.921 130.259C292.689 126.494 289.021 121.393 285.995 116.906C276.847 103.342 265.872 91.4655 247.711 96.3289C247.279 96.4449 246.832 96.6312 246.314 96.8468C245.716 97.0971 245.115 97.341 244.476 97.5341C244.219 97.6119 243.883 97.7285 243.505 97.8574C241.185 98.6545 239.413 99.1973 237.925 98.9822C236.921 98.8365 236.089 98.2167 235.735 97.3552C234.61 94.6163 237.345 92.4955 238.815 91.3558C239.052 91.1722 239.269 91.0106 239.416 90.8744C240.325 90.0216 241.311 89.3563 242.268 88.7121C243.375 87.9654 244.421 87.2594 245.04 86.432C251.646 77.6037 252.115 68.8046 246.398 60.9848C237.599 48.9488 215.556 41.6141 198.26 44.978C189.85 46.611 179.219 51.3877 176.346 64.8639L174.234 74.7705C173.936 76.1814 172.456 77.133 170.891 76.884C169.343 76.6425 168.319 75.3067 168.6 73.8923C170.288 65.4068 172.202 55.7892 169.358 47.2635C167.547 41.8351 163.65 36.4277 157.443 30.7333C135.125 10.2549 100.534 1.4355 69.3397 8.26376C54.6692 11.4755 42.5082 18.3449 31.0684 29.8833C23.7048 37.3101 14.7996 47.3428 11.2779 59.108C6.15929 76.2001 13.3234 95.7653 29.1061 107.793C43.8761 119.049 65.1413 123.465 85.9868 119.603C91.9218 118.505 97.3063 116.795 102.033 114.575C104.698 112.584 107.651 110.76 110.9 109.168C111.567 108.641 112.232 108.113 112.847 107.555C126.483 95.1889 125.262 75.1607 116.311 63.6974C108.402 53.5718 96.2386 51.2115 82.9381 57.2161C78.7956 59.0854 73.8752 63.151 72.8614 67.6556C72.3338 70.0083 72.993 72.092 74.8823 74.0264C75.9249 75.0938 75.803 76.7424 74.6117 77.7078C73.4221 78.6716 71.613 78.5902 70.5669 77.522C67.5069 74.3871 66.3581 70.6428 67.2449 66.6929C68.6569 60.4086 74.8976 55.0644 80.4572 52.5553C96.3087 45.4027 111.466 48.4213 121.003 60.6343C129.898 72.0256 132.084 90.8005 122.343 104.929C131.317 102.557 141.869 101.775 154.038 103.378C166.624 105.036 183.241 112.129 188.652 126.668C194.459 142.266 183.6 158.372 170.431 165.607C161.749 170.376 149.739 171.354 141.223 167.993C134.733 165.429 130.582 160.72 129.219 154.372C127.1 144.502 133.879 134.474 144.018 132.473C149.614 131.369 154.801 132.17 157.894 134.613C159.54 135.913 161.429 138.329 161.081 142.458C160.865 145.014 159.156 147.522 156.623 149.007C154.29 150.373 151.602 150.701 149.243 149.9C147.768 149.4 147.037 147.899 147.614 146.551C148.188 145.201 149.853 144.516 151.325 145.014C152.249 145.328 153.204 144.857 153.572 144.64C154.584 144.048 155.287 143.067 155.367 142.143C155.502 140.524 155.087 139.355 154.094 138.572C152.388 137.223 148.881 136.827 145.148 137.566C137.299 139.114 133.486 146.948 134.847 153.293C135.852 157.98 138.791 161.315 143.58 163.206C150.503 165.942 160.354 165.098 167.525 161.158C178.748 154.992 188.062 141.419 183.219 128.411C178.622 116.062 164.137 109.987 153.128 108.537C136.992 106.413 124.005 108.803 114.053 113.549C111.452 115.533 108.51 117.287 105.322 118.839C99.5696 123.197 95.3696 128.415 92.6989 133.701C84.4135 150.096 88.3124 172.795 100.558 188.968C100.804 189.046 101.046 189.144 101.269 189.289C102.018 189.772 102.414 190.529 102.439 191.309C105.458 194.891 108.907 198.098 112.751 200.757C129.399 212.269 157.405 215.295 175.193 207.5C187.653 202.038 198.228 191.919 205.226 178.833C202.107 177.905 199.298 176.628 196.89 175.021C190.914 171.033 187.321 164.772 187.515 158.681C187.56 157.242 188.882 156.09 190.464 156.108C190.467 156.108 190.469 156.108 190.473 156.109C192.052 156.131 193.292 157.311 193.247 158.747C193.106 163.172 195.82 167.791 200.332 170.803C204.314 173.461 209.758 175.031 216.076 175.344C229.647 176.028 242.414 170.999 256.329 159.56C257.514 158.586 259.325 158.657 260.376 159.718C261.426 160.778 261.32 162.427 260.135 163.4C245.812 175.174 231.852 180.816 217.526 180.608C216.908 180.599 216.29 180.579 215.671 180.549C214.105 180.471 212.591 180.31 211.114 180.097C208.736 188.667 218.005 197.155 224.27 201.019C234.585 207.377 249.138 208.629 262.25 204.285C274.36 200.273 285.065 190.767 292.443 177.507C288.244 172.98 286.649 166.973 287.51 161.81C288.618 155.148 294.169 148.003 306.416 147.928C307.91 147.92 313.152 148.202 317.075 152.227C320.304 155.537 321.526 160.222 320.707 166.151C320.508 167.581 319.042 168.614 317.506 168.458C315.934 168.302 314.821 167.016 315.02 165.584C315.626 161.198 314.865 157.879 312.759 155.72C310.886 153.801 308.195 153.136 306.361 153.14C295.858 153.205 293.642 159.713 293.177 162.507C292.148 168.687 296.111 176.375 304.527 178.548C315.481 181.374 333.182 178.075 341.068 168.818C342.92 166.644 342.682 164.886 342.321 162.222C342.03 160.071 341.698 157.629 342.613 154.793C344.848 147.851 351.762 148.298 355.879 148.562C357.225 148.65 358.471 148.666 359.914 148.764C360.929 148.832 362.083 148.912 362.718 148.75C368.471 147.288 370.071 142.299 371.853 134.853C372.32 132.9 372.761 131.055 373.355 129.312C376.047 121.417 382.144 115.732 391.47 112.412Z"/>
</mask>
<path d="M391.47 112.412C397.436 110.287 403.822 110.934 410.044 111.692C407.884 110.866 405.804 109.937 403.767 109.027C402.872 108.627 401.977 108.228 401.079 107.839C393.13 104.394 385.309 101.508 377.074 103.952C367.422 106.816 358.737 113.883 352.249 119.718C352.012 119.931 351.822 120.184 351.624 120.429C351.236 120.908 350.752 121.505 350.08 122.038C337.934 131.692 314.011 141.844 297.921 130.259C292.689 126.494 289.021 121.393 285.995 116.906C276.847 103.342 265.872 91.4655 247.711 96.3289C247.279 96.4449 246.832 96.6312 246.314 96.8468C245.716 97.0971 245.115 97.341 244.476 97.5341C244.219 97.6119 243.883 97.7285 243.505 97.8574C241.185 98.6545 239.413 99.1973 237.925 98.9822C236.921 98.8365 236.089 98.2167 235.735 97.3552C234.61 94.6163 237.345 92.4955 238.815 91.3558C239.052 91.1722 239.269 91.0106 239.416 90.8744C240.325 90.0216 241.311 89.3563 242.268 88.7121C243.375 87.9654 244.421 87.2594 245.04 86.432C251.646 77.6037 252.115 68.8046 246.398 60.9848C237.599 48.9488 215.556 41.6141 198.26 44.978C189.85 46.611 179.219 51.3877 176.346 64.8639L174.234 74.7705C173.936 76.1814 172.456 77.133 170.891 76.884C169.343 76.6425 168.319 75.3067 168.6 73.8923C170.288 65.4068 172.202 55.7892 169.358 47.2635C167.547 41.8351 163.65 36.4277 157.443 30.7333C135.125 10.2549 100.534 1.4355 69.3397 8.26376C54.6692 11.4755 42.5082 18.3449 31.0684 29.8833C23.7048 37.3101 14.7996 47.3428 11.2779 59.108C6.15929 76.2001 13.3234 95.7653 29.1061 107.793C43.8761 119.049 65.1413 123.465 85.9868 119.603C91.9218 118.505 97.3063 116.795 102.033 114.575C104.698 112.584 107.651 110.76 110.9 109.168C111.567 108.641 112.232 108.113 112.847 107.555C126.483 95.1889 125.262 75.1607 116.311 63.6974C108.402 53.5718 96.2386 51.2115 82.9381 57.2161C78.7956 59.0854 73.8752 63.151 72.8614 67.6556C72.3338 70.0083 72.993 72.092 74.8823 74.0264C75.9249 75.0938 75.803 76.7424 74.6117 77.7078C73.4221 78.6716 71.613 78.5902 70.5669 77.522C67.5069 74.3871 66.3581 70.6428 67.2449 66.6929C68.6569 60.4086 74.8976 55.0644 80.4572 52.5553C96.3087 45.4027 111.466 48.4213 121.003 60.6343C129.898 72.0256 132.084 90.8005 122.343 104.929C131.317 102.557 141.869 101.775 154.038 103.378C166.624 105.036 183.241 112.129 188.652 126.668C194.459 142.266 183.6 158.372 170.431 165.607C161.749 170.376 149.739 171.354 141.223 167.993C134.733 165.429 130.582 160.72 129.219 154.372C127.1 144.502 133.879 134.474 144.018 132.473C149.614 131.369 154.801 132.17 157.894 134.613C159.54 135.913 161.429 138.329 161.081 142.458C160.865 145.014 159.156 147.522 156.623 149.007C154.29 150.373 151.602 150.701 149.243 149.9C147.768 149.4 147.037 147.899 147.614 146.551C148.188 145.201 149.853 144.516 151.325 145.014C152.249 145.328 153.204 144.857 153.572 144.64C154.584 144.048 155.287 143.067 155.367 142.143C155.502 140.524 155.087 139.355 154.094 138.572C152.388 137.223 148.881 136.827 145.148 137.566C137.299 139.114 133.486 146.948 134.847 153.293C135.852 157.98 138.791 161.315 143.58 163.206C150.503 165.942 160.354 165.098 167.525 161.158C178.748 154.992 188.062 141.419 183.219 128.411C178.622 116.062 164.137 109.987 153.128 108.537C136.992 106.413 124.005 108.803 114.053 113.549C111.452 115.533 108.51 117.287 105.322 118.839C99.5696 123.197 95.3696 128.415 92.6989 133.701C84.4135 150.096 88.3124 172.795 100.558 188.968C100.804 189.046 101.046 189.144 101.269 189.289C102.018 189.772 102.414 190.529 102.439 191.309C105.458 194.891 108.907 198.098 112.751 200.757C129.399 212.269 157.405 215.295 175.193 207.5C187.653 202.038 198.228 191.919 205.226 178.833C202.107 177.905 199.298 176.628 196.89 175.021C190.914 171.033 187.321 164.772 187.515 158.681C187.56 157.242 188.882 156.09 190.464 156.108C190.467 156.108 190.469 156.108 190.473 156.109C192.052 156.131 193.292 157.311 193.247 158.747C193.106 163.172 195.82 167.791 200.332 170.803C204.314 173.461 209.758 175.031 216.076 175.344C229.647 176.028 242.414 170.999 256.329 159.56C257.514 158.586 259.325 158.657 260.376 159.718C261.426 160.778 261.32 162.427 260.135 163.4C245.812 175.174 231.852 180.816 217.526 180.608C216.908 180.599 216.29 180.579 215.671 180.549C214.105 180.471 212.591 180.31 211.114 180.097C208.736 188.667 218.005 197.155 224.27 201.019C234.585 207.377 249.138 208.629 262.25 204.285C274.36 200.273 285.065 190.767 292.443 177.507C288.244 172.98 286.649 166.973 287.51 161.81C288.618 155.148 294.169 148.003 306.416 147.928C307.91 147.92 313.152 148.202 317.075 152.227C320.304 155.537 321.526 160.222 320.707 166.151C320.508 167.581 319.042 168.614 317.506 168.458C315.934 168.302 314.821 167.016 315.02 165.584C315.626 161.198 314.865 157.879 312.759 155.72C310.886 153.801 308.195 153.136 306.361 153.14C295.858 153.205 293.642 159.713 293.177 162.507C292.148 168.687 296.111 176.375 304.527 178.548C315.481 181.374 333.182 178.075 341.068 168.818C342.92 166.644 342.682 164.886 342.321 162.222C342.03 160.071 341.698 157.629 342.613 154.793C344.848 147.851 351.762 148.298 355.879 148.562C357.225 148.65 358.471 148.666 359.914 148.764C360.929 148.832 362.083 148.912 362.718 148.75C368.471 147.288 370.071 142.299 371.853 134.853C372.32 132.9 372.761 131.055 373.355 129.312C376.047 121.417 382.144 115.732 391.47 112.412Z" fill="white"/>
<path d="M391.47 112.412C397.436 110.287 403.822 110.934 410.044 111.692C407.884 110.866 405.804 109.937 403.767 109.027C402.872 108.627 401.977 108.228 401.079 107.839C393.13 104.394 385.309 101.508 377.074 103.952C367.422 106.816 358.737 113.883 352.249 119.718C352.012 119.931 351.822 120.184 351.624 120.429C351.236 120.908 350.752 121.505 350.08 122.038C337.934 131.692 314.011 141.844 297.921 130.259C292.689 126.494 289.021 121.393 285.995 116.906C276.847 103.342 265.872 91.4655 247.711 96.3289C247.279 96.4449 246.832 96.6312 246.314 96.8468C245.716 97.0971 245.115 97.341 244.476 97.5341C244.219 97.6119 243.883 97.7285 243.505 97.8574C241.185 98.6545 239.413 99.1973 237.925 98.9822C236.921 98.8365 236.089 98.2167 235.735 97.3552C234.61 94.6163 237.345 92.4955 238.815 91.3558C239.052 91.1722 239.269 91.0106 239.416 90.8744C240.325 90.0216 241.311 89.3563 242.268 88.7121C243.375 87.9654 244.421 87.2594 245.04 86.432C251.646 77.6037 252.115 68.8046 246.398 60.9848C237.599 48.9488 215.556 41.6141 198.26 44.978C189.85 46.611 179.219 51.3877 176.346 64.8639L174.234 74.7705C173.936 76.1814 172.456 77.133 170.891 76.884C169.343 76.6425 168.319 75.3067 168.6 73.8923C170.288 65.4068 172.202 55.7892 169.358 47.2635C167.547 41.8351 163.65 36.4277 157.443 30.7333C135.125 10.2549 100.534 1.4355 69.3397 8.26376C54.6692 11.4755 42.5082 18.3449 31.0684 29.8833C23.7048 37.3101 14.7996 47.3428 11.2779 59.108C6.15929 76.2001 13.3234 95.7653 29.1061 107.793C43.8761 119.049 65.1413 123.465 85.9868 119.603C91.9218 118.505 97.3063 116.795 102.033 114.575C104.698 112.584 107.651 110.76 110.9 109.168C111.567 108.641 112.232 108.113 112.847 107.555C126.483 95.1889 125.262 75.1607 116.311 63.6974C108.402 53.5718 96.2386 51.2115 82.9381 57.2161C78.7956 59.0854 73.8752 63.151 72.8614 67.6556C72.3338 70.0083 72.993 72.092 74.8823 74.0264C75.9249 75.0938 75.803 76.7424 74.6117 77.7078C73.4221 78.6716 71.613 78.5902 70.5669 77.522C67.5069 74.3871 66.3581 70.6428 67.2449 66.6929C68.6569 60.4086 74.8976 55.0644 80.4572 52.5553C96.3087 45.4027 111.466 48.4213 121.003 60.6343C129.898 72.0256 132.084 90.8005 122.343 104.929C131.317 102.557 141.869 101.775 154.038 103.378C166.624 105.036 183.241 112.129 188.652 126.668C194.459 142.266 183.6 158.372 170.431 165.607C161.749 170.376 149.739 171.354 141.223 167.993C134.733 165.429 130.582 160.72 129.219 154.372C127.1 144.502 133.879 134.474 144.018 132.473C149.614 131.369 154.801 132.17 157.894 134.613C159.54 135.913 161.429 138.329 161.081 142.458C160.865 145.014 159.156 147.522 156.623 149.007C154.29 150.373 151.602 150.701 149.243 149.9C147.768 149.4 147.037 147.899 147.614 146.551C148.188 145.201 149.853 144.516 151.325 145.014C152.249 145.328 153.204 144.857 153.572 144.64C154.584 144.048 155.287 143.067 155.367 142.143C155.502 140.524 155.087 139.355 154.094 138.572C152.388 137.223 148.881 136.827 145.148 137.566C137.299 139.114 133.486 146.948 134.847 153.293C135.852 157.98 138.791 161.315 143.58 163.206C150.503 165.942 160.354 165.098 167.525 161.158C178.748 154.992 188.062 141.419 183.219 128.411C178.622 116.062 164.137 109.987 153.128 108.537C136.992 106.413 124.005 108.803 114.053 113.549C111.452 115.533 108.51 117.287 105.322 118.839C99.5696 123.197 95.3696 128.415 92.6989 133.701C84.4135 150.096 88.3124 172.795 100.558 188.968C100.804 189.046 101.046 189.144 101.269 189.289C102.018 189.772 102.414 190.529 102.439 191.309C105.458 194.891 108.907 198.098 112.751 200.757C129.399 212.269 157.405 215.295 175.193 207.5C187.653 202.038 198.228 191.919 205.226 178.833C202.107 177.905 199.298 176.628 196.89 175.021C190.914 171.033 187.321 164.772 187.515 158.681C187.56 157.242 188.882 156.09 190.464 156.108C190.467 156.108 190.469 156.108 190.473 156.109C192.052 156.131 193.292 157.311 193.247 158.747C193.106 163.172 195.82 167.791 200.332 170.803C204.314 173.461 209.758 175.031 216.076 175.344C229.647 176.028 242.414 170.999 256.329 159.56C257.514 158.586 259.325 158.657 260.376 159.718C261.426 160.778 261.32 162.427 260.135 163.4C245.812 175.174 231.852 180.816 217.526 180.608C216.908 180.599 216.29 180.579 215.671 180.549C214.105 180.471 212.591 180.31 211.114 180.097C208.736 188.667 218.005 197.155 224.27 201.019C234.585 207.377 249.138 208.629 262.25 204.285C274.36 200.273 285.065 190.767 292.443 177.507C288.244 172.98 286.649 166.973 287.51 161.81C288.618 155.148 294.169 148.003 306.416 147.928C307.91 147.92 313.152 148.202 317.075 152.227C320.304 155.537 321.526 160.222 320.707 166.151C320.508 167.581 319.042 168.614 317.506 168.458C315.934 168.302 314.821 167.016 315.02 165.584C315.626 161.198 314.865 157.879 312.759 155.72C310.886 153.801 308.195 153.136 306.361 153.14C295.858 153.205 293.642 159.713 293.177 162.507C292.148 168.687 296.111 176.375 304.527 178.548C315.481 181.374 333.182 178.075 341.068 168.818C342.92 166.644 342.682 164.886 342.321 162.222C342.03 160.071 341.698 157.629 342.613 154.793C344.848 147.851 351.762 148.298 355.879 148.562C357.225 148.65 358.471 148.666 359.914 148.764C360.929 148.832 362.083 148.912 362.718 148.75C368.471 147.288 370.071 142.299 371.853 134.853C372.32 132.9 372.761 131.055 373.355 129.312C376.047 121.417 382.144 115.732 391.47 112.412Z" stroke="#ECE1D8" stroke-width="6" mask="url(#path-1-outside-1_1_70472)"/>
<path d="M7.64204 84.8908C10.9648 94.1908 17.1537 102.817 25.7355 109.36C41.4428 121.335 64.0627 126.106 86.2496 121.995C88.1921 121.636 90.0702 121.191 91.9298 120.705L96.2817 119.567L93.4418 123.082C91.3608 125.657 89.6391 128.328 88.2861 131.006C79.3847 148.628 83.192 172.442 96.3141 189.732L97.0495 190.7L96.229 191.632C86.0393 203.188 68.8751 211.355 53.6041 201.735C51.7934 200.595 49.9986 199.324 48.5254 198.167C47.0953 197.044 45.8432 195.933 45.2297 195.12L44.8108 194.565L44.9758 193.88C45.0497 193.573 44.9652 193.201 44.6156 192.909L44.6156 192.909C44.0355 192.424 43.0938 192.485 42.5845 192.989L42.5572 193.015C41.5553 194.006 40.5934 194.985 39.641 195.952L39.6401 195.952C34.2211 201.453 29.3112 206.464 20.8794 209.438C12.8579 212.268 3.46235 213.009 -4.93043 211.485C-18.0438 209.104 -25.0622 203.206 -34.4167 195.378C-35.5865 194.399 -36.781 193.4 -38.0218 192.377L-38.8604 191.672C-40.8363 189.975 -42.9442 187.941 -45.1144 185.849C-46.7007 184.32 -48.3662 182.716 -50.1239 181.102L-48.381 178.655C-39.2806 183.387 -30.1291 188.101 -20.2655 189.564C-17.4769 189.978 -14.6862 190.201 -11.9235 190.241C0.697169 190.424 12.6571 186.785 21.208 180.081L21.208 180.08C21.7286 179.672 21.7673 179.05 21.3558 178.614L21.3539 178.612C20.8633 178.092 19.9301 178.024 19.3298 178.496L19.3278 178.498C9.39748 186.282 -5.21033 189.535 -19.7541 187.38L-19.7551 187.38C-29.2675 185.969 -38.4841 181.159 -47.1291 176.664C-58.5173 170.741 -69.7905 164.942 -82.2778 165.362L-82.3139 165.362L-82.3501 165.362C-84.353 165.333 -86.4173 165.464 -88.556 165.803L-88.5551 165.804C-88.8329 165.848 -89.0706 165.963 -89.2618 166.117L-89.5313 166.334L-89.8654 166.415C-91.1552 166.727 -92.4352 167.08 -93.725 167.528L-94.2782 167.726C-99.2028 169.535 -103.776 172.005 -108.272 174.541L-110.195 175.63C-119.674 181.012 -129.08 186.381 -141.01 185.595L-141.011 185.595C-147.547 185.162 -152.392 183.107 -156.249 179.653C-160.062 176.238 -162.813 171.538 -165.336 166.002C-167.471 161.322 -170.99 153.771 -178.256 151.289L-183.128 149.624L-178.064 148.411C-177.876 148.366 -177.693 148.322 -177.513 148.277L-177.509 148.276C-174.839 147.618 -172.263 147.411 -168.968 147.547L-168.966 147.547C-166.932 147.633 -165.144 148.333 -163.378 149.011C-162.61 149.305 -161.872 149.588 -161.112 149.839L-161.111 149.84C-158.938 150.558 -157.03 151.369 -155.24 152.128L-155.239 152.128C-150.631 154.083 -146.538 155.817 -139.975 155.445C-135.767 155.206 -131.571 154.828 -127.788 153.184C-119.891 149.752 -115.028 143.62 -110.085 137.348C-106.246 132.477 -102.44 127.624 -97.1226 124.222L-97.1226 124.221C-84.6649 116.254 -67.1493 116.252 -55.2884 124.221L-54.5241 124.735L-54.6585 125.657C-55.0804 128.542 -55.1568 131.427 -54.7903 134.264L-54.7893 134.265C-53.7984 141.96 -49.4878 149.252 -42.9265 154.232C-37.1046 158.65 -27.8936 161.215 -18.6742 161.349C-13.2733 161.428 -7.95875 160.668 -3.42642 159.02L-2.66684 158.732C5.08262 155.685 9.7214 150.215 10.7357 143.328L10.7357 143.327C12.126 133.906 5.31526 127.147 -2.18685 124.727L-2.9147 124.506C-11.6009 122.04 -19.8956 125.219 -24.2151 132.452L-24.2161 132.452C-24.4808 132.894 -24.3767 133.542 -23.6873 133.875L-23.6863 133.875C-22.9377 134.237 -22.0747 133.921 -21.757 133.388L-21.756 133.387C-17.2627 125.86 -9.4425 125.01 -3.82941 126.603C2.47018 128.391 9.10707 134.111 8.07569 142.685L8.02008 143.095C7.04244 149.723 2.67406 154.387 -4.50745 156.997C-10.2116 159.071 -17.1962 159.58 -23.7724 158.798C-30.3373 158.016 -36.6884 155.924 -41.0594 152.607C-47.1118 148.014 -51.1414 141.253 -52.0724 134.02C-53.076 126.226 -50.7463 118.244 -46.7554 111.242C-42.7623 104.237 -37.0437 98.0991 -31.0771 93.9571C-21.6764 87.4293 -8.42848 83.9599 6.25493 83.9215L7.29455 83.919L7.64204 84.8908Z" fill="white" stroke="#ECE1D8" stroke-width="3"/>
</svg>
