<svg width="571" height="278" viewBox="0 0 571 278" fill="none" xmlns="http://www.w3.org/2000/svg">
<mask id="path-1-outside-1_1_70471" maskUnits="userSpaceOnUse" x="-6.67536" y="-3.89378" width="640.383" height="288.027" fill="black">
<rect fill="white" x="-6.67536" y="-3.89378" width="640.383" height="288.027"/>
<path d="M10.1795 220.33C18.9975 216.843 23.7583 211.526 26.7807 207.332C28.8418 204.469 30.1861 201.408 31.4872 198.445C33.9034 192.945 35.9906 188.193 42.055 185.878C53.2465 181.6 67.9904 184.954 77.7429 187.175C93.4841 190.754 106.159 188.697 113.924 181.427C115.166 182.758 116.452 184.049 117.73 185.321C122.629 190.195 127.253 194.799 128.147 200.978C128.28 201.905 127.991 202.856 127.47 203.187C125.957 204.155 125.608 206.038 126.693 207.396C127.369 208.242 128.442 208.685 129.519 208.664C130.173 208.651 130.828 208.469 131.4 208.104C133.982 206.457 135.299 203.436 134.837 200.222C133.674 192.17 128.114 186.639 122.74 181.288C118.691 177.259 114.864 173.453 113.079 168.772C110.527 162.088 112.273 154.485 117.869 147.913C128.524 135.396 151.296 127.739 168.211 136.284C171.919 138.157 177.018 141.572 179.724 145.223C185.835 156.357 196.36 162.349 210.237 162.542C211.433 162.556 212.759 162.401 214.036 162.249C215.369 162.091 217.827 161.798 218.55 162.102C218.533 162.135 218.589 162.332 218.593 162.717C218.613 164.838 218.491 166.988 218.376 169.068C217.979 176.098 217.567 183.366 222.462 190.512C235.578 209.655 262.686 216.859 281.915 217.211C282.842 217.229 283.784 217.228 284.731 217.209C308.178 216.762 336.878 205.582 348.57 184.19C349.388 182.695 348.695 180.885 347.022 180.148C345.353 179.415 343.329 180.027 342.511 181.524C331.581 201.514 303.822 211.556 282.031 211.175C264.505 210.854 239.894 204.426 228.206 187.367C224.407 181.82 224.732 176.061 225.109 169.39C225.232 167.224 225.358 164.984 225.338 162.687C225.317 160.48 224.524 158.753 222.977 157.551C220.238 155.419 216.291 155.887 213.125 156.266C212.049 156.394 211.023 156.507 210.323 156.505C199.325 156.352 191.252 151.877 186.232 143.298C186.155 143.089 186.058 142.882 185.925 142.683C185.799 142.497 185.66 142.317 185.529 142.135C185.507 142.093 185.479 142.058 185.456 142.014C176.375 124.656 181.826 98.213 192.762 86.168C202.836 75.0762 224.477 66.3494 240.627 71.0492C246.672 72.8041 251.45 69.1084 255.285 66.1368C256.422 65.2561 257.495 64.4233 258.499 63.8013C265.728 59.3129 277.152 57.8417 287.583 60.0516C295.462 61.7189 306.355 66.16 313.579 77.8217C307.113 89.1188 308.585 103.002 312.502 113.178C312.459 113.444 312.439 113.717 312.478 113.997C314.267 126.544 302.801 141.312 287.94 145.603C273.054 149.897 252.077 145.539 245.76 132.415C243.337 127.377 243.294 121.999 245.634 116.859C248.727 110.068 255.652 104.156 264.157 101.043C268.441 99.4766 277.054 97.7876 281.929 99.9285C283.476 100.609 284.406 101.599 284.856 103.045C285.247 104.307 285.089 105.457 284.37 106.566C283.033 108.623 279.814 110.479 276.169 111.296C274.362 111.7 273.268 113.339 273.725 114.957C274.181 116.572 276.018 117.56 277.822 117.153C282.057 116.205 287.533 113.727 290.205 109.612C291.836 107.097 292.234 104.272 291.354 101.443C290.391 98.3442 288.157 95.9489 284.891 94.5115C277.445 91.2369 266.394 93.6958 261.591 95.4533C251.448 99.1641 243.149 106.309 239.389 114.566C236.351 121.238 236.414 128.23 239.568 134.789C245.653 147.436 261.74 153.54 277.055 153.246C281.537 153.16 285.951 152.527 290.031 151.349C303.914 147.343 314.994 136.042 318.34 123.993C327.925 137.614 344.727 148.7 363.785 153.434C378.916 157.188 406.797 157.36 417.235 141.829C419.32 138.727 419.614 135.495 419.874 132.644C420.056 130.64 420.229 128.746 421.011 127.194C421.89 125.45 422.517 125.33 425.703 124.985C426.362 124.913 427.054 124.839 427.784 124.737C437.805 123.341 445.699 117.618 449.445 109.035C453.726 99.2244 451.794 87.5575 444.517 79.3128C436.843 70.6115 423.901 65.9592 409.91 66.8783C396.377 67.7631 384.777 73.8111 378.88 83.0583C377.96 84.5037 378.524 86.3494 380.141 87.1774C381.759 88.0053 383.819 87.5088 384.743 86.0605C389.526 78.5568 399.126 73.6352 410.421 72.898C422.014 72.148 433.045 76.0289 439.23 83.0437C445.045 89.6353 446.59 98.9691 443.161 106.823C440.268 113.454 434.433 117.698 426.729 118.77C426.078 118.86 425.462 118.927 424.874 118.991C421.336 119.373 417.324 119.808 414.858 124.699C413.597 127.201 413.371 129.71 413.149 132.136C412.92 134.644 412.724 136.81 411.453 138.704C403.385 150.706 379.766 151.139 365.572 147.615C344.39 142.355 326.293 128.647 319.467 112.693C315.555 103.551 313.533 89.184 320.709 78.7888C325.628 71.6631 335.827 60.0751 348.894 62.5147L348.901 62.516C350.72 62.859 352.508 61.8087 352.883 60.1785C353.078 59.3398 352.859 58.5091 352.356 57.8523C352.036 54.9576 353.666 43.7573 354.221 41.8265C361.2 19.1396 388.781 7.32887 412.264 3.84497C438.972 -0.115341 467.984 10.0534 486.15 29.7565C488.442 32.2441 490.561 34.8878 492.447 37.6111C498.542 46.4119 502.053 56.0717 502.6 65.5435C503.114 74.4683 500.224 81.0767 496.876 88.7284C496.183 90.3138 495.474 91.9363 494.774 93.6266C494.394 94.4178 494.067 95.2334 493.796 96.0707C493.285 97.6399 494.266 99.2923 496.007 99.7938C497.741 100.298 499.615 99.4685 500.217 97.9259C500.49 97.2287 500.767 96.5413 501.048 95.861C503.048 91.8011 506.994 88.6335 512.809 86.4292C526.048 81.4096 545.299 82.9072 554.964 87.4567C572.007 95.4761 585.539 112.664 587.136 128.325C587.758 134.408 585.328 137.708 581.967 142.272C580.618 144.102 579.225 145.997 577.911 148.245C577.906 148.249 577.904 148.253 577.901 148.258C577.039 149.733 577.68 151.559 579.331 152.334C580.535 152.9 581.944 152.752 582.953 152.057C585.621 152.042 593.872 154.624 595.607 155.522C614.257 165.178 628.213 184.498 628.788 201.458C629.19 213.349 623.171 223.296 611.381 230.224C600.575 236.572 587.676 240.093 575.063 240.135C569.599 240.153 564.254 239.23 558.6 238.253C550.968 236.933 543.079 235.573 534.84 236.702C522.389 238.412 510.878 242.919 499.746 247.277C489.179 251.414 478.255 255.691 466.802 257.39C460.043 258.396 436.864 260.824 422.61 249.891C402.513 234.476 398.427 206.286 413.687 188.329C423.881 176.332 440.165 167.895 457.248 165.756C470.134 164.141 482.879 166.761 491.319 172.757C501.755 180.172 504.04 193.282 496.413 201.982C494.044 204.684 490.885 206.744 487.518 207.781C480.69 209.883 472.485 208.071 465.895 206.616C464.101 206.217 462.262 207.202 461.819 208.822C461.378 210.441 462.488 212.078 464.298 212.478C471.749 214.124 481.029 216.172 489.73 213.492C494.375 212.06 498.521 209.372 501.724 205.718C511.631 194.416 508.839 177.512 495.503 168.034C485.643 161.028 470.991 157.935 456.294 159.778C437.492 162.132 419.554 171.437 408.311 184.668C395.818 199.368 394.414 219.353 402.853 236.064C387.939 232.734 369.285 239.532 360.707 247.685C346.786 260.918 331.302 273.903 308.69 274.67C308.482 274.678 308.271 274.683 308.064 274.687C292.394 274.988 279.363 266.49 266.755 258.269C265.542 257.476 264.331 256.688 263.123 255.909C254.63 250.434 236.368 242.144 221.78 245.815C215.236 247.463 210.322 251.456 207.571 257.36C206.855 258.898 207.667 260.667 209.387 261.311C211.107 261.959 213.081 261.235 213.796 259.697C215.784 255.431 218.998 252.791 223.625 251.627C229.913 250.046 238.313 251.496 246.184 254.389C246.179 254.614 246.196 254.843 246.252 255.072C247.123 258.711 238.061 264.952 231.524 267.384C224.029 270.172 214.54 271.187 204.797 270.246C191.767 268.983 177.318 262.985 174.724 250.021C175.889 249.586 177.045 249.125 178.177 248.612C188.91 243.747 196.912 235.631 200.132 226.343C202.919 218.31 201.951 210.045 197.337 202.44C193.465 196.063 186.9 192.071 179.325 191.487C172.313 190.951 165.586 193.355 161.722 197.764C160.574 199.073 160.832 200.972 162.299 202.003C163.767 203.035 165.884 202.811 167.034 201.5C169.478 198.712 174.091 197.132 178.767 197.504C181.864 197.741 187.625 199.074 191.413 205.311C195.137 211.448 195.926 218.096 193.693 224.538C191.009 232.279 184.239 239.09 175.119 243.223C161.463 249.415 144.59 249.216 128.83 242.674C119.619 238.85 112.342 232.272 104.639 225.311C99.8385 220.972 94.876 216.487 89.4221 212.766C83.7266 208.879 74.9371 203.697 64.4053 203.572C54.1272 203.42 46.4057 208.335 38.9145 213.059C31.7993 217.547 25.0917 221.786 16.7095 221.357C14.5599 221.252 12.411 220.829 10.1795 220.33Z"/>
</mask>
<path d="M10.1795 220.33C18.9975 216.843 23.7583 211.526 26.7807 207.332C28.8418 204.469 30.1861 201.408 31.4872 198.445C33.9034 192.945 35.9906 188.193 42.055 185.878C53.2465 181.6 67.9904 184.954 77.7429 187.175C93.4841 190.754 106.159 188.697 113.924 181.427C115.166 182.758 116.452 184.049 117.73 185.321C122.629 190.195 127.253 194.799 128.147 200.978C128.28 201.905 127.991 202.856 127.47 203.187C125.957 204.155 125.608 206.038 126.693 207.396C127.369 208.242 128.442 208.685 129.519 208.664C130.173 208.651 130.828 208.469 131.4 208.104C133.982 206.457 135.299 203.436 134.837 200.222C133.674 192.17 128.114 186.639 122.74 181.288C118.691 177.259 114.864 173.453 113.079 168.772C110.527 162.088 112.273 154.485 117.869 147.913C128.524 135.396 151.296 127.739 168.211 136.284C171.919 138.157 177.018 141.572 179.724 145.223C185.835 156.357 196.36 162.349 210.237 162.542C211.433 162.556 212.759 162.401 214.036 162.249C215.369 162.091 217.827 161.798 218.55 162.102C218.533 162.135 218.589 162.332 218.593 162.717C218.613 164.838 218.491 166.988 218.376 169.068C217.979 176.098 217.567 183.366 222.462 190.512C235.578 209.655 262.686 216.859 281.915 217.211C282.842 217.229 283.784 217.228 284.731 217.209C308.178 216.762 336.878 205.582 348.57 184.19C349.388 182.695 348.695 180.885 347.022 180.148C345.353 179.415 343.329 180.027 342.511 181.524C331.581 201.514 303.822 211.556 282.031 211.175C264.505 210.854 239.894 204.426 228.206 187.367C224.407 181.82 224.732 176.061 225.109 169.39C225.232 167.224 225.358 164.984 225.338 162.687C225.317 160.48 224.524 158.753 222.977 157.551C220.238 155.419 216.291 155.887 213.125 156.266C212.049 156.394 211.023 156.507 210.323 156.505C199.325 156.352 191.252 151.877 186.232 143.298C186.155 143.089 186.058 142.882 185.925 142.683C185.799 142.497 185.66 142.317 185.529 142.135C185.507 142.093 185.479 142.058 185.456 142.014C176.375 124.656 181.826 98.213 192.762 86.168C202.836 75.0762 224.477 66.3494 240.627 71.0492C246.672 72.8041 251.45 69.1084 255.285 66.1368C256.422 65.2561 257.495 64.4233 258.499 63.8013C265.728 59.3129 277.152 57.8417 287.583 60.0516C295.462 61.7189 306.355 66.16 313.579 77.8217C307.113 89.1188 308.585 103.002 312.502 113.178C312.459 113.444 312.439 113.717 312.478 113.997C314.267 126.544 302.801 141.312 287.94 145.603C273.054 149.897 252.077 145.539 245.76 132.415C243.337 127.377 243.294 121.999 245.634 116.859C248.727 110.068 255.652 104.156 264.157 101.043C268.441 99.4766 277.054 97.7876 281.929 99.9285C283.476 100.609 284.406 101.599 284.856 103.045C285.247 104.307 285.089 105.457 284.37 106.566C283.033 108.623 279.814 110.479 276.169 111.296C274.362 111.7 273.268 113.339 273.725 114.957C274.181 116.572 276.018 117.56 277.822 117.153C282.057 116.205 287.533 113.727 290.205 109.612C291.836 107.097 292.234 104.272 291.354 101.443C290.391 98.3442 288.157 95.9489 284.891 94.5115C277.445 91.2369 266.394 93.6958 261.591 95.4533C251.448 99.1641 243.149 106.309 239.389 114.566C236.351 121.238 236.414 128.23 239.568 134.789C245.653 147.436 261.74 153.54 277.055 153.246C281.537 153.16 285.951 152.527 290.031 151.349C303.914 147.343 314.994 136.042 318.34 123.993C327.925 137.614 344.727 148.7 363.785 153.434C378.916 157.188 406.797 157.36 417.235 141.829C419.32 138.727 419.614 135.495 419.874 132.644C420.056 130.64 420.229 128.746 421.011 127.194C421.89 125.45 422.517 125.33 425.703 124.985C426.362 124.913 427.054 124.839 427.784 124.737C437.805 123.341 445.699 117.618 449.445 109.035C453.726 99.2244 451.794 87.5575 444.517 79.3128C436.843 70.6115 423.901 65.9592 409.91 66.8783C396.377 67.7631 384.777 73.8111 378.88 83.0583C377.96 84.5037 378.524 86.3494 380.141 87.1774C381.759 88.0053 383.819 87.5088 384.743 86.0605C389.526 78.5568 399.126 73.6352 410.421 72.898C422.014 72.148 433.045 76.0289 439.23 83.0437C445.045 89.6353 446.59 98.9691 443.161 106.823C440.268 113.454 434.433 117.698 426.729 118.77C426.078 118.86 425.462 118.927 424.874 118.991C421.336 119.373 417.324 119.808 414.858 124.699C413.597 127.201 413.371 129.71 413.149 132.136C412.92 134.644 412.724 136.81 411.453 138.704C403.385 150.706 379.766 151.139 365.572 147.615C344.39 142.355 326.293 128.647 319.467 112.693C315.555 103.551 313.533 89.184 320.709 78.7888C325.628 71.6631 335.827 60.0751 348.894 62.5147L348.901 62.516C350.72 62.859 352.508 61.8087 352.883 60.1785C353.078 59.3398 352.859 58.5091 352.356 57.8523C352.036 54.9576 353.666 43.7573 354.221 41.8265C361.2 19.1396 388.781 7.32887 412.264 3.84497C438.972 -0.115341 467.984 10.0534 486.15 29.7565C488.442 32.2441 490.561 34.8878 492.447 37.6111C498.542 46.4119 502.053 56.0717 502.6 65.5435C503.114 74.4683 500.224 81.0767 496.876 88.7284C496.183 90.3138 495.474 91.9363 494.774 93.6266C494.394 94.4178 494.067 95.2334 493.796 96.0707C493.285 97.6399 494.266 99.2923 496.007 99.7938C497.741 100.298 499.615 99.4685 500.217 97.9259C500.49 97.2287 500.767 96.5413 501.048 95.861C503.048 91.8011 506.994 88.6335 512.809 86.4292C526.048 81.4096 545.299 82.9072 554.964 87.4567C572.007 95.4761 585.539 112.664 587.136 128.325C587.758 134.408 585.328 137.708 581.967 142.272C580.618 144.102 579.225 145.997 577.911 148.245C577.906 148.249 577.904 148.253 577.901 148.258C577.039 149.733 577.68 151.559 579.331 152.334C580.535 152.9 581.944 152.752 582.953 152.057C585.621 152.042 593.872 154.624 595.607 155.522C614.257 165.178 628.213 184.498 628.788 201.458C629.19 213.349 623.171 223.296 611.381 230.224C600.575 236.572 587.676 240.093 575.063 240.135C569.599 240.153 564.254 239.23 558.6 238.253C550.968 236.933 543.079 235.573 534.84 236.702C522.389 238.412 510.878 242.919 499.746 247.277C489.179 251.414 478.255 255.691 466.802 257.39C460.043 258.396 436.864 260.824 422.61 249.891C402.513 234.476 398.427 206.286 413.687 188.329C423.881 176.332 440.165 167.895 457.248 165.756C470.134 164.141 482.879 166.761 491.319 172.757C501.755 180.172 504.04 193.282 496.413 201.982C494.044 204.684 490.885 206.744 487.518 207.781C480.69 209.883 472.485 208.071 465.895 206.616C464.101 206.217 462.262 207.202 461.819 208.822C461.378 210.441 462.488 212.078 464.298 212.478C471.749 214.124 481.029 216.172 489.73 213.492C494.375 212.06 498.521 209.372 501.724 205.718C511.631 194.416 508.839 177.512 495.503 168.034C485.643 161.028 470.991 157.935 456.294 159.778C437.492 162.132 419.554 171.437 408.311 184.668C395.818 199.368 394.414 219.353 402.853 236.064C387.939 232.734 369.285 239.532 360.707 247.685C346.786 260.918 331.302 273.903 308.69 274.67C308.482 274.678 308.271 274.683 308.064 274.687C292.394 274.988 279.363 266.49 266.755 258.269C265.542 257.476 264.331 256.688 263.123 255.909C254.63 250.434 236.368 242.144 221.78 245.815C215.236 247.463 210.322 251.456 207.571 257.36C206.855 258.898 207.667 260.667 209.387 261.311C211.107 261.959 213.081 261.235 213.796 259.697C215.784 255.431 218.998 252.791 223.625 251.627C229.913 250.046 238.313 251.496 246.184 254.389C246.179 254.614 246.196 254.843 246.252 255.072C247.123 258.711 238.061 264.952 231.524 267.384C224.029 270.172 214.54 271.187 204.797 270.246C191.767 268.983 177.318 262.985 174.724 250.021C175.889 249.586 177.045 249.125 178.177 248.612C188.91 243.747 196.912 235.631 200.132 226.343C202.919 218.31 201.951 210.045 197.337 202.44C193.465 196.063 186.9 192.071 179.325 191.487C172.313 190.951 165.586 193.355 161.722 197.764C160.574 199.073 160.832 200.972 162.299 202.003C163.767 203.035 165.884 202.811 167.034 201.5C169.478 198.712 174.091 197.132 178.767 197.504C181.864 197.741 187.625 199.074 191.413 205.311C195.137 211.448 195.926 218.096 193.693 224.538C191.009 232.279 184.239 239.09 175.119 243.223C161.463 249.415 144.59 249.216 128.83 242.674C119.619 238.85 112.342 232.272 104.639 225.311C99.8385 220.972 94.876 216.487 89.4221 212.766C83.7266 208.879 74.9371 203.697 64.4053 203.572C54.1272 203.42 46.4057 208.335 38.9145 213.059C31.7993 217.547 25.0917 221.786 16.7095 221.357C14.5599 221.252 12.411 220.829 10.1795 220.33Z" fill="white"/>
<path d="M10.1795 220.33C18.9975 216.843 23.7583 211.526 26.7807 207.332C28.8418 204.469 30.1861 201.408 31.4872 198.445C33.9034 192.945 35.9906 188.193 42.055 185.878C53.2465 181.6 67.9904 184.954 77.7429 187.175C93.4841 190.754 106.159 188.697 113.924 181.427C115.166 182.758 116.452 184.049 117.73 185.321C122.629 190.195 127.253 194.799 128.147 200.978C128.28 201.905 127.991 202.856 127.47 203.187C125.957 204.155 125.608 206.038 126.693 207.396C127.369 208.242 128.442 208.685 129.519 208.664C130.173 208.651 130.828 208.469 131.4 208.104C133.982 206.457 135.299 203.436 134.837 200.222C133.674 192.17 128.114 186.639 122.74 181.288C118.691 177.259 114.864 173.453 113.079 168.772C110.527 162.088 112.273 154.485 117.869 147.913C128.524 135.396 151.296 127.739 168.211 136.284C171.919 138.157 177.018 141.572 179.724 145.223C185.835 156.357 196.36 162.349 210.237 162.542C211.433 162.556 212.759 162.401 214.036 162.249C215.369 162.091 217.827 161.798 218.55 162.102C218.533 162.135 218.589 162.332 218.593 162.717C218.613 164.838 218.491 166.988 218.376 169.068C217.979 176.098 217.567 183.366 222.462 190.512C235.578 209.655 262.686 216.859 281.915 217.211C282.842 217.229 283.784 217.228 284.731 217.209C308.178 216.762 336.878 205.582 348.57 184.19C349.388 182.695 348.695 180.885 347.022 180.148C345.353 179.415 343.329 180.027 342.511 181.524C331.581 201.514 303.822 211.556 282.031 211.175C264.505 210.854 239.894 204.426 228.206 187.367C224.407 181.82 224.732 176.061 225.109 169.39C225.232 167.224 225.358 164.984 225.338 162.687C225.317 160.48 224.524 158.753 222.977 157.551C220.238 155.419 216.291 155.887 213.125 156.266C212.049 156.394 211.023 156.507 210.323 156.505C199.325 156.352 191.252 151.877 186.232 143.298C186.155 143.089 186.058 142.882 185.925 142.683C185.799 142.497 185.66 142.317 185.529 142.135C185.507 142.093 185.479 142.058 185.456 142.014C176.375 124.656 181.826 98.213 192.762 86.168C202.836 75.0762 224.477 66.3494 240.627 71.0492C246.672 72.8041 251.45 69.1084 255.285 66.1368C256.422 65.2561 257.495 64.4233 258.499 63.8013C265.728 59.3129 277.152 57.8417 287.583 60.0516C295.462 61.7189 306.355 66.16 313.579 77.8217C307.113 89.1188 308.585 103.002 312.502 113.178C312.459 113.444 312.439 113.717 312.478 113.997C314.267 126.544 302.801 141.312 287.94 145.603C273.054 149.897 252.077 145.539 245.76 132.415C243.337 127.377 243.294 121.999 245.634 116.859C248.727 110.068 255.652 104.156 264.157 101.043C268.441 99.4766 277.054 97.7876 281.929 99.9285C283.476 100.609 284.406 101.599 284.856 103.045C285.247 104.307 285.089 105.457 284.37 106.566C283.033 108.623 279.814 110.479 276.169 111.296C274.362 111.7 273.268 113.339 273.725 114.957C274.181 116.572 276.018 117.56 277.822 117.153C282.057 116.205 287.533 113.727 290.205 109.612C291.836 107.097 292.234 104.272 291.354 101.443C290.391 98.3442 288.157 95.9489 284.891 94.5115C277.445 91.2369 266.394 93.6958 261.591 95.4533C251.448 99.1641 243.149 106.309 239.389 114.566C236.351 121.238 236.414 128.23 239.568 134.789C245.653 147.436 261.74 153.54 277.055 153.246C281.537 153.16 285.951 152.527 290.031 151.349C303.914 147.343 314.994 136.042 318.34 123.993C327.925 137.614 344.727 148.7 363.785 153.434C378.916 157.188 406.797 157.36 417.235 141.829C419.32 138.727 419.614 135.495 419.874 132.644C420.056 130.64 420.229 128.746 421.011 127.194C421.89 125.45 422.517 125.33 425.703 124.985C426.362 124.913 427.054 124.839 427.784 124.737C437.805 123.341 445.699 117.618 449.445 109.035C453.726 99.2244 451.794 87.5575 444.517 79.3128C436.843 70.6115 423.901 65.9592 409.91 66.8783C396.377 67.7631 384.777 73.8111 378.88 83.0583C377.96 84.5037 378.524 86.3494 380.141 87.1774C381.759 88.0053 383.819 87.5088 384.743 86.0605C389.526 78.5568 399.126 73.6352 410.421 72.898C422.014 72.148 433.045 76.0289 439.23 83.0437C445.045 89.6353 446.59 98.9691 443.161 106.823C440.268 113.454 434.433 117.698 426.729 118.77C426.078 118.86 425.462 118.927 424.874 118.991C421.336 119.373 417.324 119.808 414.858 124.699C413.597 127.201 413.371 129.71 413.149 132.136C412.92 134.644 412.724 136.81 411.453 138.704C403.385 150.706 379.766 151.139 365.572 147.615C344.39 142.355 326.293 128.647 319.467 112.693C315.555 103.551 313.533 89.184 320.709 78.7888C325.628 71.6631 335.827 60.0751 348.894 62.5147L348.901 62.516C350.72 62.859 352.508 61.8087 352.883 60.1785C353.078 59.3398 352.859 58.5091 352.356 57.8523C352.036 54.9576 353.666 43.7573 354.221 41.8265C361.2 19.1396 388.781 7.32887 412.264 3.84497C438.972 -0.115341 467.984 10.0534 486.15 29.7565C488.442 32.2441 490.561 34.8878 492.447 37.6111C498.542 46.4119 502.053 56.0717 502.6 65.5435C503.114 74.4683 500.224 81.0767 496.876 88.7284C496.183 90.3138 495.474 91.9363 494.774 93.6266C494.394 94.4178 494.067 95.2334 493.796 96.0707C493.285 97.6399 494.266 99.2923 496.007 99.7938C497.741 100.298 499.615 99.4685 500.217 97.9259C500.49 97.2287 500.767 96.5413 501.048 95.861C503.048 91.8011 506.994 88.6335 512.809 86.4292C526.048 81.4096 545.299 82.9072 554.964 87.4567C572.007 95.4761 585.539 112.664 587.136 128.325C587.758 134.408 585.328 137.708 581.967 142.272C580.618 144.102 579.225 145.997 577.911 148.245C577.906 148.249 577.904 148.253 577.901 148.258C577.039 149.733 577.68 151.559 579.331 152.334C580.535 152.9 581.944 152.752 582.953 152.057C585.621 152.042 593.872 154.624 595.607 155.522C614.257 165.178 628.213 184.498 628.788 201.458C629.19 213.349 623.171 223.296 611.381 230.224C600.575 236.572 587.676 240.093 575.063 240.135C569.599 240.153 564.254 239.23 558.6 238.253C550.968 236.933 543.079 235.573 534.84 236.702C522.389 238.412 510.878 242.919 499.746 247.277C489.179 251.414 478.255 255.691 466.802 257.39C460.043 258.396 436.864 260.824 422.61 249.891C402.513 234.476 398.427 206.286 413.687 188.329C423.881 176.332 440.165 167.895 457.248 165.756C470.134 164.141 482.879 166.761 491.319 172.757C501.755 180.172 504.04 193.282 496.413 201.982C494.044 204.684 490.885 206.744 487.518 207.781C480.69 209.883 472.485 208.071 465.895 206.616C464.101 206.217 462.262 207.202 461.819 208.822C461.378 210.441 462.488 212.078 464.298 212.478C471.749 214.124 481.029 216.172 489.73 213.492C494.375 212.06 498.521 209.372 501.724 205.718C511.631 194.416 508.839 177.512 495.503 168.034C485.643 161.028 470.991 157.935 456.294 159.778C437.492 162.132 419.554 171.437 408.311 184.668C395.818 199.368 394.414 219.353 402.853 236.064C387.939 232.734 369.285 239.532 360.707 247.685C346.786 260.918 331.302 273.903 308.69 274.67C308.482 274.678 308.271 274.683 308.064 274.687C292.394 274.988 279.363 266.49 266.755 258.269C265.542 257.476 264.331 256.688 263.123 255.909C254.63 250.434 236.368 242.144 221.78 245.815C215.236 247.463 210.322 251.456 207.571 257.36C206.855 258.898 207.667 260.667 209.387 261.311C211.107 261.959 213.081 261.235 213.796 259.697C215.784 255.431 218.998 252.791 223.625 251.627C229.913 250.046 238.313 251.496 246.184 254.389C246.179 254.614 246.196 254.843 246.252 255.072C247.123 258.711 238.061 264.952 231.524 267.384C224.029 270.172 214.54 271.187 204.797 270.246C191.767 268.983 177.318 262.985 174.724 250.021C175.889 249.586 177.045 249.125 178.177 248.612C188.91 243.747 196.912 235.631 200.132 226.343C202.919 218.31 201.951 210.045 197.337 202.44C193.465 196.063 186.9 192.071 179.325 191.487C172.313 190.951 165.586 193.355 161.722 197.764C160.574 199.073 160.832 200.972 162.299 202.003C163.767 203.035 165.884 202.811 167.034 201.5C169.478 198.712 174.091 197.132 178.767 197.504C181.864 197.741 187.625 199.074 191.413 205.311C195.137 211.448 195.926 218.096 193.693 224.538C191.009 232.279 184.239 239.09 175.119 243.223C161.463 249.415 144.59 249.216 128.83 242.674C119.619 238.85 112.342 232.272 104.639 225.311C99.8385 220.972 94.876 216.487 89.4221 212.766C83.7266 208.879 74.9371 203.697 64.4053 203.572C54.1272 203.42 46.4057 208.335 38.9145 213.059C31.7993 217.547 25.0917 221.786 16.7095 221.357C14.5599 221.252 12.411 220.829 10.1795 220.33Z" stroke="#ECE1D6" stroke-width="6" mask="url(#path-1-outside-1_1_70471)"/>
</svg>
