<svg width="720" height="456" viewBox="0 0 720 456" fill="none" xmlns="http://www.w3.org/2000/svg">
<mask id="path-1-inside-1_980_9740" fill="white">
<path d="M689.455 0C689.455 18.2902 702.154 33.1172 717.818 33.1172C718.552 33.1172 719.28 33.0845 720 33.0205V415.338C719.28 415.274 718.552 415.241 717.818 415.241C702.154 415.241 689.455 430.068 689.455 448.358C689.455 450.989 689.719 453.547 690.215 456H27.6045C28.1007 453.547 28.3652 450.989 28.3652 448.358C28.3652 430.068 15.6657 415.241 0.000976562 415.241V33.1172C15.4211 33.1172 27.9673 18.7498 28.3555 0.854492L28.3652 0H689.455Z"/>
</mask>
<path d="M689.455 0C689.455 18.2902 702.154 33.1172 717.818 33.1172C718.552 33.1172 719.28 33.0845 720 33.0205V415.338C719.28 415.274 718.552 415.241 717.818 415.241C702.154 415.241 689.455 430.068 689.455 448.358C689.455 450.989 689.719 453.547 690.215 456H27.6045C28.1007 453.547 28.3652 450.989 28.3652 448.358C28.3652 430.068 15.6657 415.241 0.000976562 415.241V33.1172C15.4211 33.1172 27.9673 18.7498 28.3555 0.854492L28.3652 0H689.455Z" fill="white"/>
<path d="M689.455 0H690.455V-1H689.455V0ZM717.818 33.1172V34.1172V33.1172ZM720 33.0205H721V31.9277L719.911 32.0244L720 33.0205ZM720 415.338L719.911 416.334L721 416.431V415.338H720ZM717.818 415.241V414.241V415.241ZM689.455 448.358H688.455H689.455ZM690.215 456V457H691.437L691.195 455.802L690.215 456ZM27.6045 456L26.6243 455.802L26.3819 457H27.6045V456ZM28.3652 448.358H29.3652H28.3652ZM0.000976562 415.241H-0.999023V416.241H0.000976562V415.241ZM0.000976562 33.1172V32.1172H-0.999023V33.1172H0.000976562ZM28.3555 0.854492L29.3553 0.87618L29.3554 0.86592L28.3555 0.854492ZM28.3652 0V-1H27.3766L27.3653 -0.0114278L28.3652 0ZM689.455 0H688.455C688.455 18.6915 701.462 34.1172 717.818 34.1172V33.1172V32.1172C702.846 32.1172 690.455 17.8889 690.455 0H689.455ZM717.818 33.1172V34.1172C718.582 34.1172 719.339 34.0831 720.089 34.0166L720 33.0205L719.911 32.0244C719.221 32.0858 718.523 32.1172 717.818 32.1172V33.1172ZM720 33.0205H719V415.338H720H721V33.0205H720ZM720 415.338L720.089 414.342C719.339 414.275 718.582 414.241 717.818 414.241V415.241V416.241C718.523 416.241 719.221 416.273 719.911 416.334L720 415.338ZM717.818 415.241V414.241C701.462 414.241 688.455 429.667 688.455 448.358H689.455H690.455C690.455 430.47 702.846 416.241 717.818 416.241V415.241ZM689.455 448.358H688.455C688.455 451.055 688.725 453.68 689.235 456.198L690.215 456L691.195 455.802C690.712 453.414 690.455 450.922 690.455 448.358H689.455ZM690.215 456V455H27.6045V456V457H690.215V456ZM27.6045 456L28.5846 456.198C29.094 453.68 29.3652 451.056 29.3652 448.358H28.3652H27.3652C27.3652 450.921 27.1075 453.413 26.6243 455.802L27.6045 456ZM28.3652 448.358H29.3652C29.3652 429.667 16.3577 414.241 0.000976562 414.241V415.241V416.241C14.9737 416.241 27.3652 430.47 27.3652 448.358H28.3652ZM0.000976562 415.241H1.00098V33.1172H0.000976562H-0.999023V415.241H0.000976562ZM0.000976562 33.1172V34.1172C16.1014 34.1172 28.9585 19.1677 29.3552 0.876179L28.3555 0.854492L27.3557 0.832806C26.9761 18.3319 14.7407 32.1172 0.000976562 32.1172V33.1172ZM28.3555 0.854492L29.3554 0.86592L29.3652 0.0114278L28.3652 0L27.3653 -0.0114278L27.3555 0.843064L28.3555 0.854492ZM28.3652 0V1H689.455V0V-1H28.3652V0Z" fill="#D9B881" mask="url(#path-1-inside-1_980_9740)"/>
</svg>
