<svg width="381" height="108" viewBox="0 0 381 108" fill="none" xmlns="http://www.w3.org/2000/svg">
<mask id="path-1-inside-1_0_2926" fill="white">
<path d="M364.837 0C364.837 4.3319 371.556 7.84375 379.846 7.84375C380.234 7.84375 380.619 7.83253 381 7.81738V98.3711C380.619 98.3559 380.234 98.3467 379.846 98.3467C371.556 98.3467 364.837 101.859 364.837 106.19C364.837 106.813 364.976 107.419 365.238 108H14.6084C14.8709 107.419 15.0097 106.813 15.0098 106.19C15.0098 101.859 8.29016 98.3467 0.000976563 98.3467H0L0 7.84277C8.28928 7.84277 15.0098 4.3319 15.0098 0L364.837 0Z"/>
</mask>
<path d="M364.837 0C364.837 4.3319 371.556 7.84375 379.846 7.84375C380.234 7.84375 380.619 7.83253 381 7.81738V98.3711C380.619 98.3559 380.234 98.3467 379.846 98.3467C371.556 98.3467 364.837 101.859 364.837 106.19C364.837 106.813 364.976 107.419 365.238 108H14.6084C14.8709 107.419 15.0097 106.813 15.0098 106.19C15.0098 101.859 8.29016 98.3467 0.000976563 98.3467H0L0 7.84277C8.28928 7.84277 15.0098 4.3319 15.0098 0L364.837 0Z" fill="white"/>
<path d="M364.837 0L365.837 0V-1H364.837V0ZM379.846 7.84375V8.84375V7.84375ZM381 7.81738H382V6.77683L380.96 6.81817L381 7.81738ZM381 98.3711L380.96 99.3703L382 99.4116V98.3711H381ZM379.846 98.3467V97.3467V98.3467ZM364.837 106.19H363.837V106.19L364.837 106.19ZM365.238 108V109H366.788L366.15 107.588L365.238 108ZM14.6084 108L13.6971 107.588L13.0591 109H14.6084V108ZM15.0098 106.19L16.0098 106.19V106.19H15.0098ZM0.000976563 98.3467L0.000983711 97.3467H0.000976563L0.000976563 98.3467ZM0 98.3467H-1V99.3467H0L0 98.3467ZM0 7.84277L0 6.84277H-1V7.84277H0ZM15.0098 0V-1H14.0098V0L15.0098 0ZM364.837 0L363.837 0C363.837 2.72561 365.932 4.94942 368.77 6.4326C371.656 7.94084 375.573 8.84375 379.846 8.84375V7.84375V6.84375C375.829 6.84375 372.242 5.99073 369.696 4.66007C367.102 3.30436 365.837 1.60629 365.837 0L364.837 0ZM379.846 7.84375V8.84375C380.253 8.84375 380.652 8.832 381.04 8.81659L381 7.81738L380.96 6.81817C380.586 6.83306 380.216 6.84375 379.846 6.84375V7.84375ZM381 7.81738H380V98.3711H381H382V7.81738H381ZM381 98.3711L381.04 97.3719C380.648 97.3563 380.25 97.3467 379.846 97.3467V98.3467V99.3467C380.218 99.3467 380.59 99.3556 380.96 99.3703L381 98.3711ZM379.846 98.3467V97.3467C375.573 97.3467 371.656 98.2496 368.77 99.7578C365.932 101.241 363.837 103.465 363.837 106.19H364.837H365.837C365.837 104.584 367.102 102.886 369.696 101.53C372.242 100.2 375.829 99.3467 379.846 99.3467V98.3467ZM364.837 106.19L363.837 106.19C363.837 106.966 364.01 107.711 364.327 108.412L365.238 108L366.15 107.588C365.941 107.127 365.837 106.661 365.837 106.19L364.837 106.19ZM365.238 108V107H14.6084V108V109H365.238V108ZM14.6084 108L15.5197 108.412C15.8362 107.711 16.0097 106.966 16.0098 106.19L15.0098 106.19L14.0098 106.19C14.0097 106.661 13.9056 107.127 13.6971 107.588L14.6084 108ZM15.0098 106.19H16.0098C16.0098 103.465 13.915 101.241 11.077 99.7579C8.19105 98.2496 4.27347 97.3467 0.000983711 97.3467L0.000976563 98.3467L0.000969414 99.3467C4.01767 99.3467 7.60448 100.2 10.1506 101.53C12.7447 102.886 14.0098 104.584 14.0098 106.19H15.0098ZM0.000976563 98.3467L0.000976563 97.3467H0L0 98.3467L0 99.3467H0.000976563L0.000976563 98.3467ZM0 98.3467H1L1 7.84277H0H-1L-1 98.3467H0ZM0 7.84277L0 8.84277C4.27249 8.84277 8.19028 7.94013 11.0764 6.43216C13.9146 4.94927 16.0098 2.72572 16.0098 0L15.0098 0L14.0098 0C14.0098 1.60618 12.7447 3.30402 10.1503 4.65953C7.60388 5.98998 4.01679 6.84277 0 6.84277L0 7.84277ZM15.0098 0V1L364.837 1V0V-1L15.0098 -1V0Z" fill="#D9B881" mask="url(#path-1-inside-1_0_2926)"/>
</svg>
