<svg width="329" height="95" viewBox="0 0 329 95" fill="none" xmlns="http://www.w3.org/2000/svg">
<mask id="path-1-inside-1_0_2911" fill="white">
<path d="M315.043 0C315.043 3.81044 320.845 6.89937 328.003 6.89941C328.338 6.89941 328.671 6.89028 329 6.87695V86.5303C328.671 86.5169 328.338 86.5088 328.003 86.5088C320.845 86.5088 315.043 89.5978 315.043 93.4082C315.043 93.9561 315.163 94.489 315.39 95H12.6133C12.8401 94.4889 12.9609 93.9562 12.9609 93.4082C12.9609 89.5978 7.15875 86.5089 0.000976562 86.5088H0V6.89844L0.000976562 6.89941C7.15875 6.89931 12.9609 3.81041 12.9609 0H315.043Z"/>
</mask>
<path d="M315.043 0C315.043 3.81044 320.845 6.89937 328.003 6.89941C328.338 6.89941 328.671 6.89028 329 6.87695V86.5303C328.671 86.5169 328.338 86.5088 328.003 86.5088C320.845 86.5088 315.043 89.5978 315.043 93.4082C315.043 93.9561 315.163 94.489 315.39 95H12.6133C12.8401 94.4889 12.9609 93.9562 12.9609 93.4082C12.9609 89.5978 7.15875 86.5089 0.000976562 86.5088H0V6.89844L0.000976562 6.89941C7.15875 6.89931 12.9609 3.81041 12.9609 0H315.043Z" fill="#A50000"/>
<path d="M315.043 0H316.043V-1H315.043V0ZM328.003 6.89941V7.89941V6.89941ZM329 6.87695H330V5.83563L328.96 5.87777L329 6.87695ZM329 86.5303L328.96 87.5295L330 87.5716V86.5303H329ZM328.003 86.5088V85.5088V86.5088ZM315.043 93.4082H314.043V93.4082L315.043 93.4082ZM315.39 95V96H316.927L316.304 94.5944L315.39 95ZM12.6133 95L11.6992 94.5944L11.0754 96H12.6133V95ZM12.9609 93.4082L13.9609 93.4082V93.4082H12.9609ZM0.000976562 86.5088L0.000990707 85.5088H0.000976562V86.5088ZM0 86.5088H-1V87.5088H0V86.5088ZM0 6.89844L0.707107 6.19133L-1 4.48422V6.89844H0ZM0.000976562 6.89941L-0.70613 7.60652L-0.413231 7.89942L0.000990707 7.89941L0.000976562 6.89941ZM12.9609 0V-1H11.9609V0H12.9609ZM315.043 0H314.043C314.043 2.45525 315.896 4.44461 318.369 5.76131C320.885 7.10112 324.293 7.89939 328.003 7.89941V6.89941V5.89941C324.555 5.89939 321.483 5.15319 319.309 3.9959C317.091 2.81552 316.043 1.35519 316.043 0H315.043ZM328.003 6.89941V7.89941C328.356 7.89941 328.703 7.8898 329.04 7.87613L329 6.87695L328.96 5.87777C328.639 5.89076 328.321 5.89941 328.003 5.89941V6.89941ZM329 6.87695H328V86.5303H329H330V6.87695H329ZM329 86.5303L329.04 85.5311C328.701 85.5173 328.354 85.5088 328.003 85.5088V86.5088V87.5088C328.322 87.5088 328.641 87.5166 328.96 87.5295L329 86.5303ZM328.003 86.5088V85.5088C324.293 85.5088 320.885 86.3071 318.369 87.6469C315.896 88.9636 314.043 90.9529 314.043 93.4082H315.043H316.043C316.043 92.053 317.091 90.5927 319.309 89.4123C321.483 88.255 324.555 87.5088 328.003 87.5088V86.5088ZM315.043 93.4082L314.043 93.4082C314.043 94.1057 314.196 94.7762 314.476 95.4056L315.39 95L316.304 94.5944C316.129 94.2017 316.043 93.8065 316.043 93.4082L315.043 93.4082ZM315.39 95V94H12.6133V95V96H315.39V95ZM12.6133 95L13.5273 95.4056C13.8062 94.7772 13.9609 94.1069 13.9609 93.4082L12.9609 93.4082L11.9609 93.4082C11.9609 93.8055 11.874 94.2005 11.6992 94.5944L12.6133 95ZM12.9609 93.4082H13.9609C13.9609 90.953 12.1083 88.9636 9.63504 87.6469C7.11836 86.3071 3.7105 85.5088 0.000990707 85.5088L0.000976562 86.5088L0.000962418 87.5088C3.44922 87.5088 6.52134 88.2551 8.6952 89.4123C10.9125 90.5927 11.9609 92.053 11.9609 93.4082H12.9609ZM0.000976562 86.5088V85.5088H0V86.5088V87.5088H0.000976562V86.5088ZM0 86.5088H1V6.89844H0H-1V86.5088H0ZM0 6.89844L-0.707107 7.60554L-0.70613 7.60652L0.000976562 6.89941L0.708083 6.19231L0.707107 6.19133L0 6.89844ZM0.000976562 6.89941L0.000990707 7.89941C3.7105 7.89936 7.11836 7.10107 9.63504 5.76128C12.1083 4.44459 13.9609 2.45525 13.9609 0H12.9609H11.9609C11.9609 1.35516 10.9125 2.81547 8.6952 3.99586C6.52134 5.15315 3.44922 5.89937 0.000962418 5.89941L0.000976562 6.89941ZM12.9609 0V1H315.043V0V-1H12.9609V0Z" fill="#D9B881" mask="url(#path-1-inside-1_0_2911)"/>
</svg>
