<svg width="1305" height="629" viewBox="0 0 1305 629" fill="none" xmlns="http://www.w3.org/2000/svg">
<mask id="path-1-inside-1_980_862" fill="white">
<path d="M1248.81 0.745117C1248.81 25.9445 1271.79 46.373 1300.14 46.373C1301.47 46.373 1302.79 46.3274 1304.09 46.2393V572.979C1302.79 572.89 1301.47 572.846 1300.14 572.846C1271.79 572.846 1248.81 593.274 1248.81 618.474C1248.81 622.097 1249.28 625.621 1250.18 629H50.9092C51.807 625.621 52.2832 622.097 52.2832 618.474C52.2832 593.274 29.2992 572.846 0.947266 572.846V46.373C29.2992 46.3728 52.2832 25.9444 52.2832 0.745117V0.744141H1248.81V0.745117Z"/>
</mask>
<path d="M1248.81 0.745117C1248.81 25.9445 1271.79 46.373 1300.14 46.373C1301.47 46.373 1302.79 46.3274 1304.09 46.2393V572.979C1302.79 572.89 1301.47 572.846 1300.14 572.846C1271.79 572.846 1248.81 593.274 1248.81 618.474C1248.81 622.097 1249.28 625.621 1250.18 629H50.9092C51.807 625.621 52.2832 622.097 52.2832 618.474C52.2832 593.274 29.2992 572.846 0.947266 572.846V46.373C29.2992 46.3728 52.2832 25.9444 52.2832 0.745117V0.744141H1248.81V0.745117Z" fill="white"/>
<path d="M1300.14 46.373V47.373V46.373ZM1304.09 46.2393H1305.09V45.1694L1304.03 45.2415L1304.09 46.2393ZM1304.09 572.979L1304.03 573.976L1305.09 574.048V572.979H1304.09ZM1300.14 572.846V571.846V572.846ZM1248.81 618.474H1247.81H1248.81ZM1250.18 629V630H1251.48L1251.15 628.743L1250.18 629ZM50.9092 629L49.9427 628.743L49.6088 630H50.9092V629ZM52.2832 618.474H53.2832H52.2832ZM0.947266 572.846H-0.0527344V573.846H0.947258L0.947266 572.846ZM0.947266 46.373L0.947258 45.373L-0.0527344 45.3731V46.373H0.947266ZM52.2832 0.744141V-0.255859H51.2832V0.744141H52.2832ZM1248.81 0.744141H1249.81V-0.255859H1248.81V0.744141ZM1248.81 0.745117H1247.81C1247.81 26.6043 1271.35 47.373 1300.14 47.373V46.373V45.373C1272.23 45.373 1249.81 25.2847 1249.81 0.745117H1248.81ZM1300.14 46.373V47.373C1301.5 47.373 1302.83 47.3266 1304.16 47.237L1304.09 46.2393L1304.03 45.2415C1302.74 45.3282 1301.45 45.373 1300.14 45.373V46.373ZM1304.09 46.2393H1303.09V572.979H1304.09H1305.09V46.2393H1304.09ZM1304.09 572.979L1304.16 571.981C1302.83 571.891 1301.49 571.846 1300.14 571.846V572.846V573.846C1301.45 573.846 1302.74 573.89 1304.03 573.976L1304.09 572.979ZM1300.14 572.846V571.846C1271.35 571.846 1247.81 592.614 1247.81 618.474H1248.81H1249.81C1249.81 593.934 1272.23 573.846 1300.14 573.846V572.846ZM1248.81 618.474H1247.81C1247.81 622.185 1248.3 625.795 1249.22 629.257L1250.18 629L1251.15 628.743C1250.27 625.446 1249.81 622.009 1249.81 618.474H1248.81ZM1250.18 629V628H50.9092V629V630H1250.18V629ZM50.9092 629L51.8756 629.257C52.7954 625.795 53.2832 622.185 53.2832 618.474H52.2832H51.2832C51.2832 622.008 50.8187 625.446 49.9427 628.743L50.9092 629ZM52.2832 618.474H53.2832C53.2832 592.615 29.7374 571.846 0.947274 571.846L0.947266 572.846L0.947258 573.846C28.8609 573.846 51.2832 593.934 51.2832 618.474H52.2832ZM0.947266 572.846H1.94727V46.373H0.947266H-0.0527344V572.846H0.947266ZM0.947266 46.373L0.947274 47.373C29.7374 47.3728 53.2832 26.6042 53.2832 0.745117H52.2832H51.2832C51.2832 25.2845 28.8609 45.3728 0.947258 45.373L0.947266 46.373ZM52.2832 0.745117H53.2832V0.744141H52.2832H51.2832V0.745117H52.2832ZM52.2832 0.744141V1.74414H1248.81V0.744141V-0.255859H52.2832V0.744141ZM1248.81 0.744141H1247.81V0.745117H1248.81H1249.81V0.744141H1248.81Z" fill="#D9B881" mask="url(#path-1-inside-1_980_862)"/>
</svg>
