<svg width="936" height="252" viewBox="0 0 936 252" fill="none" xmlns="http://www.w3.org/2000/svg">
<mask id="path-1-inside-1_987_26463" fill="white">
<path d="M896.098 0.830078C896.098 10.8859 912.59 19.0381 932.935 19.0381C933.888 19.0381 934.833 19.0205 935.769 18.9854V229.181C934.833 229.145 933.888 229.128 932.935 229.128C912.59 229.128 896.098 237.28 896.098 247.336C896.098 248.781 896.44 250.187 897.084 251.535H36.5286C37.1726 250.187 37.5149 248.781 37.5149 247.336C37.5149 237.28 21.0223 229.128 0.677979 229.128V19.0381C21.0222 19.038 37.5147 10.8868 37.5149 0.831055V0.830078H896.098Z"/>
</mask>
<path d="M896.098 0.830078C896.098 10.8859 912.59 19.0381 932.935 19.0381C933.888 19.0381 934.833 19.0205 935.769 18.9854V229.181C934.833 229.145 933.888 229.128 932.935 229.128C912.59 229.128 896.098 237.28 896.098 247.336C896.098 248.781 896.44 250.187 897.084 251.535H36.5286C37.1726 250.187 37.5149 248.781 37.5149 247.336C37.5149 237.28 21.0223 229.128 0.677979 229.128V19.0381C21.0222 19.038 37.5147 10.8868 37.5149 0.831055V0.830078H896.098Z" fill="white"/>
<path d="M896.098 0.830078H897.098V-0.169922H896.098V0.830078ZM932.935 19.0381V20.0381V19.0381ZM935.769 18.9854H936.769V17.947L935.731 17.9861L935.769 18.9854ZM935.769 229.181L935.731 230.18L936.769 230.219V229.181H935.769ZM932.935 229.128V228.128V229.128ZM896.098 247.336H895.098V247.336L896.098 247.336ZM897.084 251.535V252.535H898.67L897.987 251.104L897.084 251.535ZM36.5286 251.535L35.6262 251.104L34.9426 252.535H36.5286V251.535ZM37.5149 247.336L38.5149 247.336V247.336H37.5149ZM0.677979 229.128H-0.322021V230.128H0.677975L0.677979 229.128ZM0.677979 19.0381L0.677975 18.0381L-0.322021 18.0381V19.0381H0.677979ZM37.5149 0.831055L38.5149 0.831071V0.831055H37.5149ZM37.5149 0.830078V-0.169922H36.5149V0.830078H37.5149ZM896.098 0.830078H895.098C895.098 6.44687 899.676 11.2561 906.444 14.6015C913.275 17.9781 922.643 20.0381 932.935 20.0381V19.0381V18.0381C922.883 18.0381 913.831 16.022 907.33 12.8085C900.766 9.56392 897.098 5.2691 897.098 0.830078H896.098ZM932.935 19.0381V20.0381C933.901 20.0381 934.858 20.0203 935.806 19.9846L935.769 18.9854L935.731 17.9861C934.809 18.0208 933.876 18.0381 932.935 18.0381V19.0381ZM935.769 18.9854H934.769V229.181H935.769H936.769V18.9854H935.769ZM935.769 229.181L935.806 228.181C934.858 228.146 933.901 228.128 932.935 228.128V229.128V230.128C933.876 230.128 934.809 230.145 935.731 230.18L935.769 229.181ZM932.935 229.128V228.128C922.643 228.128 913.275 230.188 906.444 233.565C899.676 236.91 895.098 241.719 895.098 247.336H896.098H897.098C897.098 242.897 900.766 238.602 907.33 235.357C913.831 232.144 922.883 230.128 932.935 230.128V229.128ZM896.098 247.336L895.098 247.336C895.098 248.944 895.479 250.496 896.182 251.966L897.084 251.535L897.987 251.104C897.401 249.878 897.098 248.619 897.098 247.336L896.098 247.336ZM897.084 251.535V250.535H36.5286V251.535V252.535H897.084V251.535ZM36.5286 251.535L37.4309 251.966C38.1333 250.496 38.5148 248.944 38.5149 247.336L37.5149 247.336L36.5149 247.336C36.5149 248.619 36.2119 249.878 35.6262 251.104L36.5286 251.535ZM37.5149 247.336H38.5149C38.5149 241.719 33.9368 236.91 27.1687 233.565C20.3374 230.188 10.9702 228.128 0.677982 228.128L0.677979 229.128L0.677975 230.128C10.7301 230.128 19.7814 232.144 26.2824 235.358C32.8467 238.602 36.5149 242.897 36.5149 247.336H37.5149ZM0.677979 229.128H1.67798V19.0381H0.677979H-0.322021V229.128H0.677979ZM0.677979 19.0381L0.677982 20.0381C10.9701 20.0381 20.3373 17.9783 27.1686 14.6019C33.9367 11.2567 38.5148 6.44782 38.5149 0.831071L37.5149 0.831055L36.5149 0.831039C36.5148 5.26999 32.8466 9.56456 26.2824 12.809C19.7813 16.0221 10.7301 18.0381 0.677975 18.0381L0.677979 19.0381ZM37.5149 0.831055H38.5149V0.830078H37.5149H36.5149V0.831055H37.5149ZM37.5149 0.830078V1.83008H896.098V0.830078V-0.169922H37.5149V0.830078Z" fill="#D9B881" mask="url(#path-1-inside-1_987_26463)"/>
</svg>
