<svg width="80" height="80" viewBox="0 0 80 80" fill="none" xmlns="http://www.w3.org/2000/svg">
<path d="M40.0911 0H39.9089C17.8678 0 0 17.8678 0 39.9089V40.0911C0 62.1322 17.8678 80 39.9089 80H40.0911C62.1322 80 80 62.1322 80 40.0911V39.9089C80 17.8678 62.1322 0 40.0911 0Z" fill="white"/>
<path d="M15.1517 38.6361C15.2638 38.5801 15.376 38.5268 15.4853 38.4764C17.3856 37.5963 19.3111 36.7723 21.2338 35.9483C21.3375 35.9483 21.5113 35.8277 21.6094 35.7885C21.7579 35.724 21.9065 35.6624 22.055 35.5979C22.3409 35.4746 22.6268 35.3541 22.9099 35.2307C23.4817 34.9869 24.0506 34.743 24.6224 34.4992L28.0446 33.0334C30.326 32.058 32.6103 31.0798 34.8918 30.1044C37.1733 29.1291 39.4575 28.1509 41.739 27.1755C44.0205 26.2001 46.3047 25.222 48.5862 24.2466C50.8677 23.2712 53.152 22.2931 55.4335 21.3177C55.9408 21.0991 56.4901 20.774 57.0339 20.6787C57.4907 20.5974 57.9363 20.4404 58.396 20.3535C59.2676 20.1882 60.229 20.1209 61.0642 20.4825C61.3529 20.6086 61.6192 20.7852 61.8406 21.0066C62.9001 22.0548 62.7515 23.7757 62.5273 25.25C60.9661 35.525 59.405 45.8029 57.841 56.0779C57.628 57.4877 57.3365 59.0348 56.2238 59.9261C55.2821 60.6801 53.9423 60.7641 52.7792 60.4446C51.616 60.1223 50.5902 59.4468 49.584 58.7826C45.4107 56.019 41.2345 53.2555 37.0612 50.4919C36.069 49.8361 34.9647 48.9784 34.9759 47.7872C34.9815 47.0697 35.4103 46.4307 35.8475 45.8617C39.4744 41.1306 44.7072 37.8794 48.6002 33.3669C49.1496 32.7307 49.5812 31.5815 48.8273 31.2143C48.3788 30.9957 47.8631 31.2928 47.4539 31.5759C42.3079 35.1495 37.1649 38.7258 32.019 42.2994C30.3401 43.4653 28.5799 44.6649 26.5563 44.9508C24.7457 45.2087 22.9239 44.7042 21.1722 44.1884C19.7035 43.7568 18.2376 43.314 16.7774 42.8571C16.001 42.6161 15.1994 42.3554 14.5996 41.8089C13.9998 41.2623 13.6551 40.343 14.0166 39.6143C14.2437 39.1574 14.6837 38.8688 15.1462 38.6333L15.1517 38.6361Z" fill="#A50000"/>
</svg>
