<svg width="522" height="282" viewBox="0 0 522 282" fill="none" xmlns="http://www.w3.org/2000/svg">
<path d="M177.597 114.631L190.172 3.24013C180.19 1.52336 170.043 0.712288 159.853 0.883586L169.798 113.959C172.416 114.014 175.019 114.237 177.597 114.631Z" fill="#A50000"/>
<path d="M139.33 121.599L86.8057 19.8662C77.5321 24.8122 68.9265 30.5315 61.0431 36.9284L131.806 126.652C134.176 124.774 136.688 123.081 139.33 121.599Z" fill="#A50000"/>
<path d="M151.802 116.353L119.628 6.70326C109.814 9.42824 100.135 13.1444 90.7024 17.854L143.232 119.597C146.055 118.277 148.918 117.203 151.802 116.353Z" fill="#A50000"/>
<path d="M165.392 114.018L155.457 1.03985C144.901 1.5054 134.328 3.01272 123.878 5.60764L156.048 115.257C159.157 114.587 162.278 114.182 165.392 114.018Z" fill="#A50000"/>
<path d="M128.463 129.49L57.6893 39.7543C49.5152 46.7678 42.1567 54.511 35.6605 62.8445L122.03 136.379C124.005 133.923 126.152 131.614 128.463 129.49Z" fill="#A50000"/>
<path d="M119.397 139.912L32.982 66.3379C26.9356 74.5445 21.7168 83.2891 17.3297 92.4217L115.278 146.592C116.52 144.284 117.9 142.056 119.397 139.912Z" fill="#A50000"/>
<path d="M202.14 123.848L253.534 28.3875C244.781 22.6015 235.539 17.6846 225.949 13.6724L194.65 119.792C197.22 120.98 199.723 122.328 202.14 123.848Z" fill="#A50000"/>
<path d="M108.987 163.311L5.09746 127.638C2.809 137.783 1.46036 148.168 1.10511 158.662L107.609 171.905C107.877 169.014 108.333 166.143 108.987 163.311Z" fill="#A50000"/>
<path d="M113.33 150.546L15.4752 96.4273C11.5944 105.098 8.45737 114.092 6.11448 123.315L110.131 159.032C111.007 156.135 112.076 153.299 113.33 150.546Z" fill="#A50000"/>
<path d="M107.355 176.341L0.991067 163.115C0.911679 174.138 1.92264 185.253 4.0807 196.291L108.03 186.613C107.508 183.21 107.283 179.775 107.355 176.341Z" fill="#A50000"/>
<path d="M190.551 118.067L221.836 12.0016C212.966 8.56789 203.821 5.9154 194.509 4.05341L181.933 115.455C184.862 116.117 187.739 116.991 190.551 118.067Z" fill="#A50000"/>
<path d="M213.454 132.761L282.441 52.5675C274.703 44.4297 266.246 37.1821 257.231 30.8695L205.826 126.354C208.5 128.291 211.051 130.428 213.454 132.761Z" fill="#A50000"/>
<path d="M113.259 185.815L171.417 179.555L209.825 135.958C209.825 135.958 179.348 106.2 142.997 124.968C106.624 143.747 113.259 185.815 113.259 185.815Z" fill="#A50000"/>
<mask id="path-14-outside-1_0_1" maskUnits="userSpaceOnUse" x="216.637" y="54.4394" width="346.022" height="231.722" fill="black">
<rect fill="white" x="216.637" y="54.4394" width="346.022" height="231.722"/>
<path d="M542.573 173.813C547.548 171.587 552.892 172.295 558.098 173.121C556.287 172.238 554.543 171.247 552.835 170.276C552.084 169.849 551.334 169.423 550.581 169.008C543.915 165.332 537.36 162.247 530.489 164.804C522.435 167.8 515.212 175.249 509.82 181.403C509.623 181.628 509.466 181.895 509.302 182.153C508.98 182.66 508.578 183.29 508.019 183.852C497.918 194.027 477.972 204.685 464.455 192.361C460.059 188.355 456.965 182.941 454.409 178.18C446.685 163.785 437.444 151.171 422.286 156.252C421.926 156.373 421.553 156.569 421.121 156.795C420.622 157.058 420.121 157.314 419.588 157.516C419.374 157.598 419.093 157.72 418.778 157.855C416.843 158.69 415.364 159.258 414.118 159.025C413.279 158.867 412.579 158.208 412.279 157.294C411.322 154.39 413.597 152.155 414.82 150.954C415.018 150.761 415.198 150.59 415.32 150.447C416.076 149.547 416.897 148.846 417.693 148.168C418.614 147.382 419.485 146.638 419.998 145.764C425.472 136.442 425.815 127.128 420.992 118.828C413.568 106.053 395.098 98.2055 380.655 101.703C373.632 103.4 364.77 108.418 362.443 122.675L360.732 133.155C360.491 134.648 359.259 135.65 357.948 135.38C356.653 135.119 355.789 133.701 356.017 132.204C357.381 123.227 358.928 113.052 356.503 104.015C354.958 98.2611 351.67 92.5217 346.449 86.4699C327.675 64.7062 298.705 55.2404 272.661 62.3537C260.413 65.6994 250.283 72.927 240.782 85.1002C234.667 92.9358 227.277 103.524 224.398 115.967C220.213 134.044 226.311 154.784 239.574 167.577C251.986 179.549 269.79 184.303 287.198 180.291C292.154 179.151 296.646 177.361 300.586 175.028C302.803 172.93 305.262 171.01 307.97 169.337C308.524 168.782 309.077 168.225 309.588 167.636C320.921 154.595 319.789 133.386 312.241 121.216C305.573 110.467 295.389 107.923 284.302 114.231C280.849 116.194 276.758 120.48 275.935 125.246C275.507 127.734 276.07 129.943 277.66 131.998C278.538 133.132 278.445 134.877 277.454 135.895C276.465 136.91 274.952 136.818 274.071 135.683C271.496 132.352 270.514 128.384 271.234 124.205C272.379 117.558 277.568 111.923 282.202 109.287C295.416 101.773 308.106 105.025 316.147 117.991C323.648 130.084 325.58 149.97 317.514 164.891C325.004 162.413 333.821 161.625 344.005 163.368C354.537 165.17 368.47 172.741 373.075 188.154C378.017 204.688 369.027 221.7 358.057 229.31C350.824 234.327 340.788 235.318 333.649 231.728C328.209 228.99 324.712 223.988 323.537 217.263C321.711 206.806 327.322 196.214 335.789 194.133C340.462 192.985 344.802 193.852 347.402 196.45C348.786 197.832 350.379 200.398 350.111 204.768C349.945 207.473 348.529 210.122 346.419 211.685C344.477 213.122 342.231 213.46 340.255 212.603C339.018 212.067 338.399 210.476 338.873 209.051C339.346 207.624 340.735 206.905 341.968 207.437C342.742 207.773 343.538 207.278 343.845 207.05C344.688 206.427 345.27 205.391 345.331 204.412C345.436 202.699 345.082 201.46 344.247 200.627C342.813 199.193 339.879 198.761 336.762 199.529C330.208 201.139 327.064 209.419 328.237 216.142C329.103 221.107 331.579 224.649 335.594 226.669C341.397 229.591 349.628 228.735 355.602 224.59C364.952 218.103 372.664 203.768 368.542 189.978C364.63 176.887 352.485 170.401 343.273 168.826C329.77 166.516 318.925 168.999 310.63 173.986C308.466 176.077 306.017 177.923 303.359 179.555C298.574 184.147 295.091 189.656 292.888 195.242C286.051 212.569 289.437 236.616 299.765 253.784C299.972 253.867 300.175 253.972 300.362 254.126C300.99 254.64 301.326 255.443 301.351 256.269C303.895 260.073 306.797 263.48 310.026 266.31C324.009 278.559 347.442 281.867 362.27 273.681C372.658 267.945 381.444 257.27 387.223 243.442C384.61 242.448 382.253 241.086 380.231 239.375C375.212 235.131 372.174 228.489 372.302 222.041C372.332 220.519 373.431 219.304 374.753 219.329C374.756 219.329 374.758 219.329 374.761 219.329C376.081 219.359 377.124 220.613 377.095 222.133C377.002 226.817 379.296 231.718 383.086 234.922C386.43 237.751 390.991 239.434 396.274 239.789C407.625 240.563 418.272 235.287 429.842 223.228C430.828 222.201 432.342 222.283 433.227 223.41C434.111 224.536 434.031 226.282 433.046 227.308C421.136 239.72 409.496 245.641 397.516 245.367C397 245.355 396.482 245.332 395.965 245.298C394.655 245.21 393.388 245.034 392.152 244.802C390.211 253.867 398.009 262.888 403.268 267.002C411.928 273.772 424.102 275.151 435.041 270.6C445.144 266.398 454.042 256.373 460.137 242.363C456.601 237.554 455.234 231.189 455.925 225.726C456.815 218.677 461.416 211.133 471.656 211.099C472.904 211.096 477.289 211.414 480.592 215.69C483.31 219.206 484.357 224.171 483.705 230.445C483.547 231.959 482.327 233.046 481.042 232.876C479.727 232.704 478.789 231.339 478.947 229.824C479.43 225.182 478.775 221.665 477.002 219.372C475.426 217.333 473.172 216.62 471.639 216.617C462.858 216.647 461.041 223.528 460.667 226.485C459.841 233.023 463.198 241.178 470.247 243.509C479.421 246.542 494.202 243.116 500.744 233.344C502.281 231.05 502.072 229.187 501.755 226.366C501.5 224.087 501.209 221.501 501.958 218.502C503.788 211.16 509.572 211.659 513.015 211.954C514.141 212.052 515.183 212.073 516.39 212.183C517.239 212.259 518.205 212.348 518.734 212.179C523.537 210.652 524.847 205.376 526.295 197.499C526.675 195.433 527.033 193.482 527.52 191.639C529.727 183.291 534.793 177.294 542.573 173.813Z"/>
</mask>
<path d="M542.573 173.813C547.548 171.587 552.892 172.295 558.098 173.121C556.287 172.238 554.543 171.247 552.835 170.276C552.084 169.849 551.334 169.423 550.581 169.008C543.915 165.332 537.36 162.247 530.489 164.804C522.435 167.8 515.212 175.249 509.82 181.403C509.623 181.628 509.466 181.895 509.302 182.153C508.98 182.66 508.578 183.29 508.019 183.852C497.918 194.027 477.972 204.685 464.455 192.361C460.059 188.355 456.965 182.941 454.409 178.18C446.685 163.785 437.444 151.171 422.286 156.252C421.926 156.373 421.553 156.569 421.121 156.795C420.622 157.058 420.121 157.314 419.588 157.516C419.374 157.598 419.093 157.72 418.778 157.855C416.843 158.69 415.364 159.258 414.118 159.025C413.279 158.867 412.579 158.208 412.279 157.294C411.322 154.39 413.597 152.155 414.82 150.954C415.018 150.761 415.198 150.59 415.32 150.447C416.076 149.547 416.897 148.846 417.693 148.168C418.614 147.382 419.485 146.638 419.998 145.764C425.472 136.442 425.815 127.128 420.992 118.828C413.568 106.053 395.098 98.2055 380.655 101.703C373.632 103.4 364.77 108.418 362.443 122.675L360.732 133.155C360.491 134.648 359.259 135.65 357.948 135.38C356.653 135.119 355.789 133.701 356.017 132.204C357.381 123.227 358.928 113.052 356.503 104.015C354.958 98.2611 351.67 92.5217 346.449 86.4699C327.675 64.7062 298.705 55.2404 272.661 62.3537C260.413 65.6994 250.283 72.927 240.782 85.1002C234.667 92.9358 227.277 103.524 224.398 115.967C220.213 134.044 226.311 154.784 239.574 167.577C251.986 179.549 269.79 184.303 287.198 180.291C292.154 179.151 296.646 177.361 300.586 175.028C302.803 172.93 305.262 171.01 307.97 169.337C308.524 168.782 309.077 168.225 309.588 167.636C320.921 154.595 319.789 133.386 312.241 121.216C305.573 110.467 295.389 107.923 284.302 114.231C280.849 116.194 276.758 120.48 275.935 125.246C275.507 127.734 276.07 129.943 277.66 131.998C278.538 133.132 278.445 134.877 277.454 135.895C276.465 136.91 274.952 136.818 274.071 135.683C271.496 132.352 270.514 128.384 271.234 124.205C272.379 117.558 277.568 111.923 282.202 109.287C295.416 101.773 308.106 105.025 316.147 117.991C323.648 130.084 325.58 149.97 317.514 164.891C325.004 162.413 333.821 161.625 344.005 163.368C354.537 165.17 368.47 172.741 373.075 188.154C378.017 204.688 369.027 221.7 358.057 229.31C350.824 234.327 340.788 235.318 333.649 231.728C328.209 228.99 324.712 223.988 323.537 217.263C321.711 206.806 327.322 196.214 335.789 194.133C340.462 192.985 344.802 193.852 347.402 196.45C348.786 197.832 350.379 200.398 350.111 204.768C349.945 207.473 348.529 210.122 346.419 211.685C344.477 213.122 342.231 213.46 340.255 212.603C339.018 212.067 338.399 210.476 338.873 209.051C339.346 207.624 340.735 206.905 341.968 207.437C342.742 207.773 343.538 207.278 343.845 207.05C344.688 206.427 345.27 205.391 345.331 204.412C345.436 202.699 345.082 201.46 344.247 200.627C342.813 199.193 339.879 198.761 336.762 199.529C330.208 201.139 327.064 209.419 328.237 216.142C329.103 221.107 331.579 224.649 335.594 226.669C341.397 229.591 349.628 228.735 355.602 224.59C364.952 218.103 372.664 203.768 368.542 189.978C364.63 176.887 352.485 170.401 343.273 168.826C329.77 166.516 318.925 168.999 310.63 173.986C308.466 176.077 306.017 177.923 303.359 179.555C298.574 184.147 295.091 189.656 292.888 195.242C286.051 212.569 289.437 236.616 299.765 253.784C299.972 253.867 300.175 253.972 300.362 254.126C300.99 254.64 301.326 255.443 301.351 256.269C303.895 260.073 306.797 263.48 310.026 266.31C324.009 278.559 347.442 281.867 362.27 273.681C372.658 267.945 381.444 257.27 387.223 243.442C384.61 242.448 382.253 241.086 380.231 239.375C375.212 235.131 372.174 228.489 372.302 222.041C372.332 220.519 373.431 219.304 374.753 219.329C374.756 219.329 374.758 219.329 374.761 219.329C376.081 219.359 377.124 220.613 377.095 222.133C377.002 226.817 379.296 231.718 383.086 234.922C386.43 237.751 390.991 239.434 396.274 239.789C407.625 240.563 418.272 235.287 429.842 223.228C430.828 222.201 432.342 222.283 433.227 223.41C434.111 224.536 434.031 226.282 433.046 227.308C421.136 239.72 409.496 245.641 397.516 245.367C397 245.355 396.482 245.332 395.965 245.298C394.655 245.21 393.388 245.034 392.152 244.802C390.211 253.867 398.009 262.888 403.268 267.002C411.928 273.772 424.102 275.151 435.041 270.6C445.144 266.398 454.042 256.373 460.137 242.363C456.601 237.554 455.234 231.189 455.925 225.726C456.815 218.677 461.416 211.133 471.656 211.099C472.904 211.096 477.289 211.414 480.592 215.69C483.31 219.206 484.357 224.171 483.705 230.445C483.547 231.959 482.327 233.046 481.042 232.876C479.727 232.704 478.789 231.339 478.947 229.824C479.43 225.182 478.775 221.665 477.002 219.372C475.426 217.333 473.172 216.62 471.639 216.617C462.858 216.647 461.041 223.528 460.667 226.485C459.841 233.023 463.198 241.178 470.247 243.509C479.421 246.542 494.202 243.116 500.744 233.344C502.281 231.05 502.072 229.187 501.755 226.366C501.5 224.087 501.209 221.501 501.958 218.502C503.788 211.16 509.572 211.659 513.015 211.954C514.141 212.052 515.183 212.073 516.39 212.183C517.239 212.259 518.205 212.348 518.734 212.179C523.537 210.652 524.847 205.376 526.295 197.499C526.675 195.433 527.033 193.482 527.52 191.639C529.727 183.291 534.793 177.294 542.573 173.813Z" fill="white"/>
<path d="M542.573 173.813C547.548 171.587 552.892 172.295 558.098 173.121C556.287 172.238 554.543 171.247 552.835 170.276C552.084 169.849 551.334 169.423 550.581 169.008C543.915 165.332 537.36 162.247 530.489 164.804C522.435 167.8 515.212 175.249 509.82 181.403C509.623 181.628 509.466 181.895 509.302 182.153C508.98 182.66 508.578 183.29 508.019 183.852C497.918 194.027 477.972 204.685 464.455 192.361C460.059 188.355 456.965 182.941 454.409 178.18C446.685 163.785 437.444 151.171 422.286 156.252C421.926 156.373 421.553 156.569 421.121 156.795C420.622 157.058 420.121 157.314 419.588 157.516C419.374 157.598 419.093 157.72 418.778 157.855C416.843 158.69 415.364 159.258 414.118 159.025C413.279 158.867 412.579 158.208 412.279 157.294C411.322 154.39 413.597 152.155 414.82 150.954C415.018 150.761 415.198 150.59 415.32 150.447C416.076 149.547 416.897 148.846 417.693 148.168C418.614 147.382 419.485 146.638 419.998 145.764C425.472 136.442 425.815 127.128 420.992 118.828C413.568 106.053 395.098 98.2055 380.655 101.703C373.632 103.4 364.77 108.418 362.443 122.675L360.732 133.155C360.491 134.648 359.259 135.65 357.948 135.38C356.653 135.119 355.789 133.701 356.017 132.204C357.381 123.227 358.928 113.052 356.503 104.015C354.958 98.2611 351.67 92.5217 346.449 86.4699C327.675 64.7062 298.705 55.2404 272.661 62.3537C260.413 65.6994 250.283 72.927 240.782 85.1002C234.667 92.9358 227.277 103.524 224.398 115.967C220.213 134.044 226.311 154.784 239.574 167.577C251.986 179.549 269.79 184.303 287.198 180.291C292.154 179.151 296.646 177.361 300.586 175.028C302.803 172.93 305.262 171.01 307.97 169.337C308.524 168.782 309.077 168.225 309.588 167.636C320.921 154.595 319.789 133.386 312.241 121.216C305.573 110.467 295.389 107.923 284.302 114.231C280.849 116.194 276.758 120.48 275.935 125.246C275.507 127.734 276.07 129.943 277.66 131.998C278.538 133.132 278.445 134.877 277.454 135.895C276.465 136.91 274.952 136.818 274.071 135.683C271.496 132.352 270.514 128.384 271.234 124.205C272.379 117.558 277.568 111.923 282.202 109.287C295.416 101.773 308.106 105.025 316.147 117.991C323.648 130.084 325.58 149.97 317.514 164.891C325.004 162.413 333.821 161.625 344.005 163.368C354.537 165.17 368.47 172.741 373.075 188.154C378.017 204.688 369.027 221.7 358.057 229.31C350.824 234.327 340.788 235.318 333.649 231.728C328.209 228.99 324.712 223.988 323.537 217.263C321.711 206.806 327.322 196.214 335.789 194.133C340.462 192.985 344.802 193.852 347.402 196.45C348.786 197.832 350.379 200.398 350.111 204.768C349.945 207.473 348.529 210.122 346.419 211.685C344.477 213.122 342.231 213.46 340.255 212.603C339.018 212.067 338.399 210.476 338.873 209.051C339.346 207.624 340.735 206.905 341.968 207.437C342.742 207.773 343.538 207.278 343.845 207.05C344.688 206.427 345.27 205.391 345.331 204.412C345.436 202.699 345.082 201.46 344.247 200.627C342.813 199.193 339.879 198.761 336.762 199.529C330.208 201.139 327.064 209.419 328.237 216.142C329.103 221.107 331.579 224.649 335.594 226.669C341.397 229.591 349.628 228.735 355.602 224.59C364.952 218.103 372.664 203.768 368.542 189.978C364.63 176.887 352.485 170.401 343.273 168.826C329.77 166.516 318.925 168.999 310.63 173.986C308.466 176.077 306.017 177.923 303.359 179.555C298.574 184.147 295.091 189.656 292.888 195.242C286.051 212.569 289.437 236.616 299.765 253.784C299.972 253.867 300.175 253.972 300.362 254.126C300.99 254.64 301.326 255.443 301.351 256.269C303.895 260.073 306.797 263.48 310.026 266.31C324.009 278.559 347.442 281.867 362.27 273.681C372.658 267.945 381.444 257.27 387.223 243.442C384.61 242.448 382.253 241.086 380.231 239.375C375.212 235.131 372.174 228.489 372.302 222.041C372.332 220.519 373.431 219.304 374.753 219.329C374.756 219.329 374.758 219.329 374.761 219.329C376.081 219.359 377.124 220.613 377.095 222.133C377.002 226.817 379.296 231.718 383.086 234.922C386.43 237.751 390.991 239.434 396.274 239.789C407.625 240.563 418.272 235.287 429.842 223.228C430.828 222.201 432.342 222.283 433.227 223.41C434.111 224.536 434.031 226.282 433.046 227.308C421.136 239.72 409.496 245.641 397.516 245.367C397 245.355 396.482 245.332 395.965 245.298C394.655 245.21 393.388 245.034 392.152 244.802C390.211 253.867 398.009 262.888 403.268 267.002C411.928 273.772 424.102 275.151 435.041 270.6C445.144 266.398 454.042 256.373 460.137 242.363C456.601 237.554 455.234 231.189 455.925 225.726C456.815 218.677 461.416 211.133 471.656 211.099C472.904 211.096 477.289 211.414 480.592 215.69C483.31 219.206 484.357 224.171 483.705 230.445C483.547 231.959 482.327 233.046 481.042 232.876C479.727 232.704 478.789 231.339 478.947 229.824C479.43 225.182 478.775 221.665 477.002 219.372C475.426 217.333 473.172 216.62 471.639 216.617C462.858 216.647 461.041 223.528 460.667 226.485C459.841 233.023 463.198 241.178 470.247 243.509C479.421 246.542 494.202 243.116 500.744 233.344C502.281 231.05 502.072 229.187 501.755 226.366C501.5 224.087 501.209 221.501 501.958 218.502C503.788 211.16 509.572 211.659 513.015 211.954C514.141 212.052 515.183 212.073 516.39 212.183C517.239 212.259 518.205 212.348 518.734 212.179C523.537 210.652 524.847 205.376 526.295 197.499C526.675 195.433 527.033 193.482 527.52 191.639C529.727 183.291 534.793 177.294 542.573 173.813Z" stroke="#ECE1D8" stroke-width="6" mask="url(#path-14-outside-1_0_1)"/>
<path d="M222.251 144.74C225.097 154.651 230.335 163.806 237.52 170.736C250.649 183.399 269.425 188.466 287.769 184.24L287.769 184.239C289.372 183.871 290.926 183.413 292.47 182.908L296.444 181.609L294.203 185.137C292.474 187.859 291.043 190.69 289.92 193.537C282.515 212.306 285.886 237.664 296.966 256.03L297.467 256.861L296.914 257.66C292.667 263.783 286.973 268.99 280.657 271.399C274.254 273.84 267.267 273.37 260.794 268.201C259.266 266.983 257.753 265.626 256.511 264.393C255.304 263.194 254.247 262.009 253.731 261.149L253.439 260.662L253.543 260.103C253.637 259.596 253.486 259.104 253.211 258.813L253.211 258.812C252.89 258.473 252.44 258.46 252.094 258.886L252.081 258.905C251.662 259.43 251.252 259.952 250.846 260.471L249.643 262.019C245.305 267.611 241.32 272.79 234.606 275.974L233.947 276.276C227.175 279.277 219.215 280.04 212.082 278.371C201.66 275.932 195.771 270.197 188.619 262.661L187.17 261.13C186.187 260.09 185.183 259.029 184.141 257.943C182.276 256.003 180.255 253.542 178.17 251.005C176.836 249.381 175.436 247.68 173.959 245.966L175.922 243.735C183.577 248.79 191.181 253.754 199.326 255.318L200.19 255.476C202.208 255.819 204.222 256.011 206.218 256.057C216.622 256.294 226.495 252.546 233.566 245.524L233.649 245.433C234.038 244.952 234.081 244.126 233.685 243.597L233.683 243.595C233.352 243.152 232.904 243.146 232.565 243.484L232.563 243.485C224.251 251.738 211.916 255.186 199.578 252.82C191.511 251.271 183.708 246.092 176.484 241.322C166.887 234.984 157.56 228.913 147.314 229.304L147.268 229.306L147.223 229.305C145.584 229.268 143.896 229.396 142.146 229.739C142.026 229.763 141.884 229.833 141.737 229.983L141.468 230.258L141.099 230.37C139.883 230.737 138.684 231.16 137.474 231.719C133.4 233.6 129.614 236.179 125.871 238.845L124.269 239.99C116.549 245.525 108.71 251.203 98.7496 250.525L98.2737 250.488C92.6658 249.993 88.5204 247.736 85.2534 244.04C82.2443 240.636 80.0198 236.055 77.9977 230.682L77.5956 229.597C76.7059 227.16 75.5126 223.9 73.7453 220.894C71.9715 217.877 69.7189 215.291 66.8066 214.022L63.05 212.385L66.9753 211.211C67.1322 211.164 67.2823 211.118 67.4307 211.072L67.4346 211.071C69.7263 210.364 71.9399 210.151 74.742 210.31L74.7439 210.31C76.5613 210.416 78.1456 211.213 79.6009 211.925C80.2462 212.24 80.8555 212.537 81.4799 212.8L81.4818 212.801C83.3222 213.578 84.9379 214.452 86.4358 215.26C90.3056 217.35 93.6291 219.132 98.9556 218.773C102.463 218.536 105.876 218.157 108.944 216.478C115.457 212.914 119.478 206.481 123.593 199.832L124.785 197.914C127.576 193.449 130.479 189.13 134.37 185.983L134.866 185.591C145.333 177.5 159.929 177.684 169.874 186.148L170.48 186.664L170.393 187.454C170.053 190.535 170.005 193.624 170.331 196.667L170.422 197.44C171.447 205.412 175.074 212.851 180.382 217.948C185.215 222.588 192.822 225.296 200.416 225.469C204.864 225.57 209.228 224.798 212.94 223.102L212.941 223.102C219.632 220.046 223.792 214.184 224.65 206.466L224.65 206.465C225.832 195.853 219.487 188.623 213.232 186.353L213.231 186.353C209.698 185.07 206.289 185.252 203.33 186.647C200.357 188.05 197.73 190.732 195.907 194.631L195.907 194.632C195.558 195.378 195.87 196.185 196.303 196.451L196.304 196.451C196.489 196.565 196.673 196.575 196.845 196.515C197.026 196.451 197.25 196.286 197.405 195.953L197.406 195.952C199.209 192.095 201.769 189.794 204.608 188.733C207.418 187.682 210.338 187.908 212.786 188.796C218.406 190.836 223.875 197.157 222.877 206.133C222.119 212.939 218.582 217.901 212.443 220.705C207.595 222.919 201.658 223.437 196.079 222.572C190.504 221.708 185.105 219.436 181.387 215.867L181.386 215.866C176.271 210.955 172.91 203.814 172.104 196.278C170.371 180.073 179.504 162.906 189.395 154.218C197.273 147.298 208.429 143.64 220.811 143.654L221.94 143.656L222.251 144.74Z" fill="white" stroke="#ECE1D8" stroke-width="3"/>
</svg>
