<svg width="749" height="214" viewBox="0 0 749 214" fill="none" xmlns="http://www.w3.org/2000/svg">
<path d="M107.345 93.0469L170.186 61.122C167.701 55.2823 164.684 49.6686 161.136 44.3722L105.052 88.7154C105.911 90.1102 106.678 91.5556 107.345 93.0469Z" fill="#A50000"/>
<path d="M90.6954 75.3468L126.364 12.5488C120.616 9.38582 114.688 6.84145 108.649 4.91111L85.4848 73.1404C87.2763 73.7361 89.019 74.4706 90.6954 75.3468Z" fill="#A50000"/>
<path d="M97.6854 80.0853L144.424 25.2445C139.661 21.0293 134.422 17.2277 128.744 13.8994L93.0717 76.7035C94.7236 77.7307 96.2603 78.8637 97.6854 80.0853Z" fill="#A50000"/>
<path d="M103.527 86.4204L159.563 42.1165C155.736 36.7296 151.355 31.6941 146.444 27.0993L99.7047 81.9382C101.112 83.3405 102.384 84.8403 103.527 86.4204Z" fill="#A50000"/>
<path d="M82.8566 72.3643L106.023 4.12515C99.5614 2.25524 92.9925 1.06647 86.4057 0.535058L77.0508 71.3665C79.0125 71.5546 80.9554 71.884 82.8566 72.3643Z" fill="#A50000"/>
<path d="M74.3005 71.2027L83.6609 0.333956C77.2936 -0.00494129 70.9243 0.277278 64.6332 1.13081L69.3898 71.3485C71.0253 71.2027 72.6649 71.1577 74.3005 71.2027Z" fill="#A50000"/>
<path d="M110.829 109.135L178.467 103.123C178.539 96.5212 177.988 89.9632 176.843 83.5348L110.42 103.795C110.667 105.557 110.808 107.339 110.829 109.135Z" fill="#A50000"/>
<path d="M58.4636 73.8268L41.9639 6.88532C35.8526 9.19211 29.9343 12.0757 24.2959 15.519L53.4769 76.0758C55.0882 75.2164 56.7525 74.463 58.4636 73.8268Z" fill="#A50000"/>
<path d="M66.6485 71.694L61.8962 1.54343C56.0198 2.50322 50.226 3.9657 44.5812 5.92488L61.1003 72.9485C62.9212 72.4069 64.775 71.9875 66.6485 71.694Z" fill="#A50000"/>
<path d="M51.0584 77.4772L21.9155 17.0003C16.0922 20.7718 10.5909 25.148 5.51878 30.1008L45.8858 81.3856C47.4985 79.9338 49.2282 78.6277 51.0584 77.4772Z" fill="#A50000"/>
<path d="M109.935 101.045L176.325 80.796C175.12 74.9462 173.411 69.2223 171.23 63.6844L108.384 95.6121C109.029 97.3802 109.547 99.1949 109.935 101.045Z" fill="#A50000"/>
<path d="M109.98 118.165L175.561 126.681C177.214 119.799 178.155 112.847 178.415 105.926L110.76 111.939C110.649 114.015 110.391 116.095 109.98 118.165Z" fill="#A50000"/>
<path d="M48.0792 83.8578L71.1085 112.258L107.068 117.363C107.068 117.363 112.373 91.0513 90.1669 78.4386C67.9481 65.8184 48.0792 83.8578 48.0792 83.8578Z" fill="#A50000"/>
<path d="M57.8009 108.78C57.7773 108.822 57.7485 108.859 57.7242 108.901C53.999 115.46 56.1541 123.716 62.5375 127.342C68.9043 130.958 77.0721 128.601 80.8102 122.08L71.6163 111.161L57.8009 108.78Z" fill="#A50000"/>
<path d="M648.194 35.8413C638.387 26.1163 623.269 23.8718 612.198 30.7353L612.199 30.7353C610.062 32.0596 608.124 31.4193 605.978 30.644L605.977 30.643C605.315 30.4044 604.592 30.1414 603.862 29.9673L603.86 29.9673C600.786 29.2381 597.259 29.121 593.399 29.5895L593.4 29.5895C583.541 30.7731 574.917 36.5968 568.487 44.3175C562.056 52.0396 557.714 61.779 556.469 71.0446L556.195 73.0892L558.223 72.7131C564.903 71.4748 572.979 73.3729 576.018 80.2766C577.622 83.9187 577.469 88.0487 575.501 91.9494L575.501 91.9504C573.146 96.6221 568.696 99.8955 564.308 100.411C562.542 100.619 560.652 100.135 559.016 99.0695L556.706 97.5644L556.694 100.328C556.665 107.298 557.868 124.099 569.056 138.002C580.569 152.31 599.163 159.628 623.989 160.054L625.176 160.069C625.248 160.07 625.345 160.1 625.442 160.209C625.541 160.32 625.621 160.496 625.62 160.716L625.62 160.718C625.618 160.934 625.54 161.102 625.446 161.206C625.354 161.309 625.263 161.339 625.194 161.34L625.183 161.341C599.128 161.124 580.156 153.478 568.453 138.899C553.649 120.458 555.861 97.637 555.958 96.7303C555.961 96.6972 555.97 96.6526 555.987 96.5918L556.141 96.0468L555.897 95.5371C555.155 93.9864 554.876 92.2207 555.144 90.3689L555.179 90.2234C555.224 90.0909 555.298 89.9961 555.371 89.9382C555.465 89.8634 555.549 89.8521 555.615 89.8637L555.616 89.8637C555.696 89.8778 555.802 89.9319 555.893 90.0707C555.986 90.2109 556.039 90.407 556.008 90.6207L556.007 90.6227C555.61 93.3771 556.69 95.3327 557.669 96.4667C559.292 98.3472 561.824 99.4163 564.227 99.145L564.234 99.1449C568.506 98.6423 572.674 95.4094 574.787 91.219C576.488 87.8447 576.705 84.1707 575.274 80.9195L575.274 80.9185C573.487 76.8622 569.739 74.7376 565.856 73.9589C561.986 73.183 557.755 73.6839 554.583 75.1028L554.584 75.1028C549.365 77.4362 545.97 82.9213 544.044 89.1455C542.102 95.4203 541.547 102.761 542.252 109.313C544.465 129.905 556.744 148.403 575.831 160.107C596.644 172.87 621.281 174.947 640.133 165.268C645.705 162.408 650.858 158.524 655.742 154.69L657.82 153.052C662.723 149.179 667.694 145.258 673.064 142.157C682.514 136.7 693.418 135.221 702.957 138.022L702.957 138.023C705.472 138.761 707.918 139.715 710.351 140.665C717.662 143.522 724.698 146.346 732.687 142.423L733.068 142.232C736.38 140.523 740.612 136.716 742.927 132.734L745.175 128.867L741.054 130.602C738.689 131.598 735.94 131.972 733.105 131.598L732.469 131.504C725.94 130.444 720.486 126.541 714.881 122.493L713.611 121.577C710.651 119.451 707.703 117.414 704.531 115.886C694.225 110.92 684.179 113.821 677.718 117.002L677.717 117.002C677.539 117.09 677.375 117.183 677.245 117.257C677.104 117.337 677.004 117.394 676.904 117.446L676.76 117.521L676.635 117.624C676.558 117.688 676.529 117.698 676.535 117.696L676.533 117.696C676.491 117.712 676.45 117.729 676.417 117.742C676.381 117.756 676.354 117.766 676.329 117.776L676.237 117.811L676.152 117.857C671.906 120.156 668.029 123.037 664.068 126.031L664.069 126.031C661.536 127.945 658.96 129.889 656.31 131.642C636.45 144.773 616.323 139.911 606.054 130.079C594.648 119.154 589.848 99.3551 594.934 84.1527C594.937 84.1471 594.94 84.1393 594.945 84.129C594.954 84.1097 594.969 84.0784 594.984 84.044L595.213 83.543L595.064 83.0144C593.656 78.0249 594.248 72.318 596.108 67.5499C600.422 56.4919 610.186 50.4088 620.28 52.0453L620.281 52.0453C623.352 52.5419 625.866 54.5242 627.559 57.224C629.257 59.934 630.042 63.2415 629.729 66.1362L629.729 66.1372C629.462 68.6057 628.461 70.4249 627.034 71.5755C625.605 72.7271 623.602 73.3278 621.113 73.0787L621.052 73.0656C620.986 73.0444 620.911 72.9962 620.84 72.9019C620.744 72.7744 620.678 72.5864 620.696 72.3682C620.714 72.1594 620.805 72.0025 620.907 71.9097C621.009 71.8177 621.096 71.8044 621.15 71.8098L621.151 71.8098C623.747 72.0759 625.69 71.4621 627.006 70.1627C628.27 68.9151 628.715 67.2666 628.858 65.9421C629.144 63.2991 628.4 60.4115 626.933 58.0749C625.462 55.7342 623.158 53.7864 620.208 53.3092L620.207 53.3092C610.247 51.7019 600.913 57.8207 596.88 68.1558L596.88 68.1567C593.853 75.9185 594.132 86.47 602.716 91.5148L602.715 91.5158C607.113 94.1003 611.245 93.3846 615.36 92.72C616.052 92.6084 616.737 92.4976 617.431 92.3975L617.431 92.3966C619.697 92.0731 621.244 93.2987 622.949 94.7112L622.95 94.7112C623.57 95.2244 624.266 95.8049 625.01 96.2509L625.01 96.2519C630.79 99.7129 637.894 99.035 643.646 94.7486L644.198 94.3226C647.737 91.4993 650.401 87.2094 651.954 82.487C653.51 77.7567 653.991 72.4802 653.049 67.5986C652.238 63.3916 649.497 55.5719 640.366 53.4392L640.299 53.4155C640.23 53.3824 640.152 53.3185 640.086 53.2069C639.998 53.0572 639.955 52.8557 639.995 52.6445C640.036 52.4348 640.14 52.3033 640.233 52.2371C640.321 52.1743 640.4 52.1636 640.475 52.1812L640.477 52.1821C646.461 53.5793 650.914 57.7863 653.041 64.0567L654.711 68.9822L655.92 63.9113C658.429 53.3922 655.752 43.3355 648.194 35.8413Z" fill="white" stroke="#ECE1D6" stroke-width="3"/>
<path d="M594.705 88.5792C591.69 102.587 596.369 119.295 606.533 129.03C616.787 138.851 636.606 143.291 655.969 130.483C657.861 129.231 659.727 127.869 661.539 126.515L660.178 123.891C654.79 125.674 649.418 126.972 644.012 127.107C639.539 127.22 635.034 126.546 630.468 124.7C622.311 121.4 615.886 115.457 613.175 108.944L613.022 108.564C611.472 104.634 611.213 100.576 612.247 96.4333L612.737 94.4673L610.717 94.5785C608.005 94.7271 605.296 94.3822 602.427 92.6957L602.426 92.6947C600.291 91.4402 598.651 89.844 597.408 88.0357L595.439 85.1701L594.705 88.5792Z" fill="white" stroke="#ECE1D6" stroke-width="3"/>
<path d="M163.241 122.642C158.419 122.847 153.647 124.171 150.04 126.668L150.04 126.668C145.432 129.859 143.198 134.535 143.387 140.36L143.387 140.361C143.484 143.326 144.835 146.277 147.025 148.071L147.026 148.072C148.234 149.059 150.348 150.184 153.12 149.514C153.683 149.379 154.287 149.147 154.782 148.842C155.026 148.691 155.309 148.483 155.544 148.205C155.767 147.942 156.086 147.447 156.036 146.783L156.035 146.78C155.954 145.724 156.685 144.947 157.473 144.873C158.293 144.808 159.095 145.434 159.173 146.481L159.173 146.484C159.402 149.489 157.468 152.083 153.778 152.968C150.74 153.695 147.694 152.987 145.172 150.92L145.171 150.92C142.858 149.026 141.211 146.178 140.556 142.997L140.453 142.498L140.067 142.167C139.978 142.09 139.897 142.033 139.84 141.995C139.825 141.986 139.811 141.976 139.799 141.968C130.314 131.495 122.189 126.018 113.525 124.732C100.454 122.785 86.109 126.497 70.9564 135.515L70.9555 135.515C65.084 139.011 59.8099 143.519 54.3487 148.183C46.0387 155.281 37.7075 162.371 27.4249 165.755L27.4259 165.755C21.8437 167.588 15.5261 167.69 9.94364 165.706L5.2113 164.023L8.23871 168.028C10.141 170.543 12.3336 172.822 15.0061 174.887C21.3962 179.824 28.4019 180.645 35.471 179.516C42.4679 178.398 49.6542 175.346 56.5059 172.448L56.506 172.449C57.7923 171.905 59.0522 171.37 60.292 170.858L61.5259 170.353C84.9385 160.86 110.051 161.631 130.435 172.369C138.898 176.828 146.764 182.566 154.473 188.19C165.04 195.899 175.228 203.344 187.111 207.843L188.267 208.269C223.881 221.045 253.323 201.638 279.818 181.3C314.717 154.509 363.583 148.979 429.612 164.905C440.473 167.525 451.511 170.547 462.211 173.479C485.63 179.894 509.98 186.566 533.988 189.374C558.383 192.226 581.99 188.367 605.639 177.64L604.602 174.837C604.562 174.849 604.524 174.861 604.5 174.868C604.477 174.876 604.464 174.88 604.454 174.883C597.13 177.004 589.329 178.171 581.093 178.377C571.606 178.614 561.54 177.576 550.972 175.25L549.383 174.891C541.426 173.048 533.297 170.483 525.197 167.257C517.401 164.154 509.454 160.804 501.756 157.559C486.167 150.988 469.981 144.166 453.761 138.838C439.254 134.072 424.401 130.89 409.609 129.382C384.436 126.816 358.711 129.042 333.152 135.99C321.012 139.291 308.521 143.876 296.023 149.612C293.17 150.92 290.369 152.276 287.607 153.611C274.227 160.083 261.88 165.999 246.794 166.146L245.562 166.144C232.833 165.979 220.384 161.536 208.523 152.837C203.796 149.37 199.537 144.984 195.322 140.635L195.321 140.635C189.614 134.75 184.016 128.956 177.232 125.473L176.842 125.278C172.776 123.291 167.919 122.443 163.241 122.642Z" fill="white" stroke="#ECE1D5" stroke-width="3"/>
<path d="M249.118 76.5819C233.358 75.2817 217.232 84.589 209.842 99.1534C206.901 104.95 205.145 111.832 204.588 119.58L204.556 120.109C204.277 125.635 205.71 133.162 208.537 140.03C211.442 147.086 215.966 153.8 222.013 156.828C222.109 156.878 222.2 156.935 222.284 157.001L222.423 157.112L222.585 157.186C230.439 160.82 238.521 162.664 246.736 162.592C261.252 162.472 273.649 156.474 286.334 150.332C289.138 148.976 291.945 147.616 294.805 146.303L294.806 146.303C307.462 140.487 320.108 135.845 332.386 132.504C358.302 125.449 384.373 123.2 409.868 125.804C424.857 127.335 439.914 130.561 454.619 135.397C470.933 140.761 487.12 147.589 502.838 154.222L502.838 154.223C510.508 157.458 518.452 160.81 526.228 163.909C534.713 167.292 543.234 169.939 551.556 171.772C570.727 175.996 588.269 175.915 603.658 171.449C608.15 170.147 612.684 168.335 617.273 166.341L616.529 163.473C612.139 163.933 607.708 164.232 603.243 164.344C587.118 164.747 570.524 162.884 553.897 158.735C532.714 153.451 513.865 142.062 495.419 130.903C474.523 118.264 454.502 106.134 430.925 102.135C399.955 96.8806 370.569 98.8472 341.117 108.157L341.117 108.157C330.116 111.636 318.728 116.485 304.221 123.85C301.206 125.38 298.251 127.098 295.171 128.887C287.466 133.365 279.76 137.827 271.128 139.439L271.127 139.439C265.797 140.438 258.595 140.135 252.18 137.916C245.771 135.697 240.364 131.652 238.18 125.324L238.016 124.813C236.413 119.476 237.873 112.294 241.5 108.026L241.501 108.025C242.56 106.778 244.251 105.702 246.208 105.022C248.161 104.343 250.245 104.104 252.019 104.396L252.018 104.397C254.531 104.813 256.375 106.258 257.316 108.477L257.317 108.478C257.697 109.376 257.336 110.356 256.652 110.782L256.511 110.86L256.509 110.861C255.792 111.206 254.86 110.91 254.473 109.991L254.47 109.987C254.391 109.8 254.185 109.305 253.68 108.843C253.173 108.379 252.478 108.048 251.565 107.896L251.56 107.896C250.038 107.649 248.404 107.962 247.078 108.438C245.789 108.9 244.496 109.624 243.78 110.467C242.287 112.224 241.287 114.597 240.818 116.981C240.35 119.36 240.381 121.912 241.121 124.051L241.12 124.052C243.072 129.716 248.475 133.124 254.225 134.878L254.762 135.042L255.276 134.812C255.463 134.728 255.644 134.685 255.822 134.681C262.282 134.519 267.574 132.203 271.388 127.712C275.875 122.429 278.064 114.264 277.445 105.917C276.352 91.1763 263.462 77.7559 249.118 76.5828L249.118 76.5819Z" fill="white" stroke="#ECE1D5" stroke-width="3"/>
</svg>
