<svg width="40" height="62" viewBox="0 0 40 62" fill="none" xmlns="http://www.w3.org/2000/svg">
<path d="M17.7669 15.6602L15.7046 17.5811L22.7639 24.1561L24.8262 22.2352L17.7669 15.6602Z" fill="#D9B881"/>
<path d="M11.4295 13.0849C11.6716 13.6418 12.0375 14.1658 12.5192 14.6138L12.8586 14.93L14.921 13.0089L14.5817 12.6928C14.3795 12.5046 14.2322 12.2917 14.1327 12.0638C14.0345 11.838 13.9844 11.5967 13.9835 11.3545V11.3539L13.9831 11.3471C13.9831 11.3439 13.9838 11.3404 13.9838 11.3372C13.985 11.0955 14.0348 10.8548 14.133 10.6299C14.2325 10.402 14.3798 10.1894 14.582 10.0009C14.7841 9.81262 15.0123 9.67539 15.2573 9.58272C15.5022 9.49006 15.7642 9.44343 16.0274 9.44343C16.2903 9.44343 16.5522 9.49035 16.7972 9.58272C17.0418 9.67539 17.27 9.81262 17.4725 10.0009L17.8909 10.3906L22.7645 14.93L24.827 13.0089L19.9534 8.46958L19.5507 8.09453L19.535 8.07987C19.0539 7.6315 18.4913 7.29076 17.8934 7.06496C17.2949 6.83887 16.6611 6.72656 16.0274 6.72656C15.3939 6.72656 14.7598 6.83887 14.1613 7.06496C13.5635 7.29046 13.0009 7.63121 12.5198 8.07987C12.0384 8.52794 11.6726 9.05196 11.4305 9.60882C11.1877 10.1663 11.0671 10.7566 11.0671 11.3469C11.0665 11.9369 11.1871 12.5274 11.4295 13.0849Z" fill="#D9B881"/>
<path d="M25.3344 17.072L25.4141 16.9978C25.6455 16.7823 25.8649 16.5782 26.0658 16.392C26.5125 15.9779 26.8793 15.6413 27.135 15.4117C27.2218 15.3334 27.2955 15.2686 27.3528 15.2184L27.3667 15.2064L27.384 15.1994L27.4218 15.1838L28.0335 14.6143C28.5149 14.166 28.8807 13.6422 29.1231 13.0854C29.3659 12.5279 29.4865 11.9373 29.4865 11.3473C29.4865 10.7573 29.3659 10.1668 29.1231 9.60931C28.881 9.05245 28.5152 8.52843 28.0335 8.08035C27.5521 7.6317 26.9898 7.29124 26.3916 7.06545C25.7931 6.83936 25.159 6.72705 24.5256 6.72705C23.8921 6.72705 23.2581 6.83936 22.6596 7.06545C22.0617 7.29095 21.4991 7.6317 21.018 8.08035L20.6786 8.39647L22.7411 10.3175L23.0805 10.0014C23.2826 9.81311 23.5109 9.67587 23.7558 9.58321C24.0005 9.49055 24.2627 9.44392 24.5256 9.44392C24.7885 9.44392 25.0507 9.49084 25.2954 9.58321C25.54 9.67587 25.7683 9.81311 25.9707 10.0014C26.1728 10.1896 26.3202 10.4022 26.4196 10.6304C26.5191 10.8585 26.5692 11.1028 26.5692 11.3473C26.5692 11.5919 26.5191 11.8362 26.4196 12.0643C26.3202 12.2922 26.1725 12.5048 25.9707 12.6933L25.6237 13.0165L25.6196 13.0197C25.5746 13.054 25.5387 13.083 25.501 13.1141L25.5013 13.1138C25.4178 13.1836 25.3256 13.264 25.2119 13.3651C25.0149 13.5408 24.7589 13.7739 24.4494 14.0586C23.538 14.8979 22.1637 16.1855 20.616 17.6388L22.687 19.5519L22.7213 19.5197L22.7361 19.5334C23.1205 19.1742 23.753 18.5754 24.3115 18.0455C24.7705 17.6101 25.1726 17.2277 25.3347 17.0734L25.3344 17.072Z" fill="#D9B881"/>
<path d="M28.0339 25.1667L27.6945 24.8506L25.632 26.7716L25.9714 27.0877C26.1735 27.276 26.3209 27.4886 26.4203 27.7167C26.5198 27.9449 26.5699 28.1888 26.5699 28.4337C26.5699 28.6785 26.5198 28.9228 26.4203 29.1507C26.3209 29.3785 26.1732 29.5911 25.9714 29.7797C25.7693 29.9679 25.541 30.1052 25.2961 30.1978C25.0511 30.2902 24.7892 30.3371 24.5263 30.3371C24.2634 30.3371 24.0011 30.2902 23.7562 30.1978C23.5116 30.1052 23.2833 29.9679 23.0809 29.7797L22.6625 29.3899L17.7888 24.8506L15.7263 26.7716L20.6 31.311L21.0184 31.7007C21.4995 32.149 22.0621 32.4898 22.6599 32.7156C23.2584 32.9417 23.8922 33.054 24.526 33.054C25.1594 33.054 25.7935 32.9417 26.392 32.7156C26.9899 32.4901 27.5525 32.1493 28.0339 31.7007C28.5156 31.2523 28.8811 30.7286 29.1235 30.1714C29.3663 29.614 29.4868 29.0234 29.4868 28.4334C29.4868 27.8434 29.3663 27.2528 29.1235 26.6954C28.8811 26.1388 28.5156 25.6148 28.0339 25.1667Z" fill="#D9B881"/>
<path d="M27.4324 20.5018L20.6643 26.8057L22.7267 28.7266L29.4948 22.4227L27.4324 20.5018Z" fill="#D9B881"/>
<path d="M19.9365 22.1421L17.8655 20.229L17.8312 20.2613L17.8164 20.2475C17.432 20.607 16.7995 21.2055 16.241 21.7354C15.7794 22.1735 15.3755 22.5573 15.2152 22.7098L15.2162 22.7107L15.1391 22.7828C14.9076 22.9984 14.6882 23.2025 14.4873 23.3887C14.0406 23.8027 13.6738 24.1394 13.4182 24.369C13.3309 24.4473 13.2576 24.5121 13.2003 24.5622L13.1864 24.5742L13.1691 24.5813L13.1313 24.5968L12.5196 25.1666C12.0382 25.6147 11.6724 26.1387 11.43 26.6958C11.1872 27.2533 11.0667 27.8436 11.0667 28.4339C11.0667 29.0239 11.1872 29.6145 11.43 30.1719C11.6721 30.7288 12.0379 31.2528 12.5196 31.7012C13.0007 32.1495 13.5633 32.4903 14.1615 32.7161C14.76 32.9421 15.3938 33.0545 16.0275 33.0545C16.661 33.0545 17.295 32.9421 17.8935 32.7161C18.4914 32.4906 19.054 32.1498 19.5351 31.7012L19.8745 31.385L17.812 29.464L17.4726 29.7801C17.2705 29.9684 17.0419 30.1059 16.7973 30.1986C16.5523 30.291 16.2904 30.3379 16.0275 30.3379C15.7646 30.3379 15.5024 30.291 15.2574 30.1986C15.0128 30.1059 14.7845 29.9687 14.5821 29.7804C14.38 29.5922 14.2326 29.3793 14.1332 29.1514C14.0349 28.9256 13.9849 28.6843 13.9839 28.4418V28.4412L13.9836 28.4345C13.9836 28.4312 13.9842 28.4277 13.9842 28.4245C13.9855 28.1829 14.0352 27.9424 14.1335 27.7172C14.233 27.4893 14.3803 27.2767 14.5824 27.0882L14.9291 26.765L14.9335 26.7618C14.9785 26.7275 15.0144 26.6985 15.0522 26.6674L15.0518 26.6677C15.1353 26.5979 15.2275 26.5175 15.3412 26.4164C15.5383 26.2407 15.7942 26.0076 16.1037 25.7229C17.0145 24.883 18.3888 23.5954 19.9365 22.1421Z" fill="#D9B881"/>
<path d="M39.3647 18.4262C39.1222 17.8693 38.7567 17.3453 38.275 16.8972C37.7939 16.4489 37.2313 16.1081 36.6335 15.8823C36.035 15.6563 35.4009 15.5439 34.7674 15.5439C34.134 15.5439 33.4999 15.6563 32.9014 15.8823C32.3035 16.1078 31.7409 16.4486 31.2598 16.8972L30.8414 17.287L30.2143 17.8711L32.2768 19.7921L32.9039 19.208L33.3223 18.8183C33.5245 18.63 33.7527 18.4928 33.9976 18.4001C34.2426 18.3077 34.5045 18.2608 34.7674 18.2608C35.0303 18.2608 35.2923 18.3077 35.5372 18.4001C35.7818 18.4928 36.0101 18.63 36.2125 18.8183C36.3136 18.9124 36.4008 19.0127 36.4754 19.118C36.55 19.2232 36.6117 19.3332 36.6615 19.4473L36.6476 19.4153L36.6618 19.4476C36.7562 19.6643 36.8047 19.8956 36.8094 20.1282L36.8113 20.1305V20.1648C36.8113 20.4097 36.761 20.654 36.6618 20.8821C36.5623 21.1099 36.415 21.3225 36.2128 21.5111C36.0107 21.6994 35.7821 21.8366 35.5375 21.9293C35.2926 22.0216 35.0306 22.0685 34.7677 22.0685C34.5048 22.0685 34.2426 22.0216 33.9976 21.9293C33.753 21.8366 33.5248 21.6994 33.3223 21.5111L32.9741 21.1868L32.971 21.183L32.9559 21.1662C32.9102 21.1158 32.8712 21.0756 32.8239 21.0275C32.737 20.9396 32.6294 20.834 32.4959 20.7053C32.0312 20.2572 31.2586 19.5323 30.333 18.6708C29.4316 17.8315 28.3882 16.8656 27.3597 15.9155L25.3057 17.8444C26.6362 19.0737 27.9915 20.329 29.0248 21.2956C29.5515 21.7882 29.9951 22.2064 30.3049 22.5034C30.4337 22.6269 30.5379 22.7283 30.6132 22.8028L30.6264 22.8157L30.6343 22.8321L30.6487 22.8623L31.2605 23.4318C31.7415 23.8802 32.3041 24.2209 32.9023 24.4467C33.5008 24.6728 34.1346 24.7851 34.7684 24.7851C35.4018 24.7851 36.0359 24.6725 36.6344 24.4467C37.2307 24.2218 37.7917 23.8819 38.2719 23.4353L38.4671 23.1966V23.2374C38.7973 22.8928 39.0681 22.5131 39.2689 22.1102C39.3029 22.0416 39.3354 21.9727 39.3656 21.9029C39.6083 21.3454 39.7289 20.7548 39.7289 20.1648C39.728 19.5739 39.6074 18.9834 39.3647 18.4262Z" fill="#D9B881"/>
<path d="M7.23087 20.9627C7.02843 21.1509 6.80018 21.2881 6.55555 21.3808C6.31061 21.4732 6.04867 21.5201 5.78578 21.5201C5.52289 21.5201 5.26063 21.4732 5.01569 21.3808C4.77106 21.2881 4.54281 21.1509 4.34068 20.9627L4.33911 20.9612L4.33722 20.9591C4.29724 20.9216 4.26197 20.8838 4.22892 20.8477C4.08409 20.6894 3.97138 20.5172 3.89141 20.3334C3.79318 20.1076 3.74312 19.8662 3.74218 19.6237V19.6231L3.74186 19.6164C3.74186 19.4138 3.77807 19.2126 3.84576 19.0208C3.85898 18.983 3.87315 18.9419 3.89141 18.8991C3.91408 18.8469 3.9399 18.7965 3.96729 18.7472L3.9739 18.7337L3.97516 18.7314C4.06803 18.5666 4.18893 18.4118 4.34037 18.2704C4.54249 18.0822 4.77075 17.9449 5.01569 17.8523C5.26063 17.7599 5.52258 17.713 5.78578 17.713C6.04867 17.713 6.31061 17.7599 6.55555 17.8523C6.80018 17.9449 7.02843 18.0824 7.23087 18.2704L7.5794 18.595L7.58255 18.5988L7.59766 18.6156C7.64331 18.666 7.68235 18.7062 7.72989 18.7543C7.81678 18.8422 7.92446 18.9478 8.05795 19.0765C8.52264 19.5246 9.29525 20.2495 10.2209 21.111C11.1222 21.9503 12.1659 22.9162 13.1942 23.8663L15.2482 21.9374C13.9177 20.7081 12.5623 19.4528 11.529 18.4862C11.0023 17.9936 10.5587 17.5754 10.2489 17.2784C10.1201 17.1546 10.0159 17.0535 9.94066 16.9787L9.92744 16.9658L9.91957 16.9494L9.9054 16.9192L9.29399 16.3494C8.81292 15.901 8.25031 15.5603 7.65244 15.3345C7.05394 15.1084 6.41986 14.9961 5.78641 14.9961C5.15296 14.9961 4.51888 15.1084 3.92038 15.3345C3.3225 15.56 2.75989 15.9007 2.27882 16.3494C2.19697 16.4256 2.1192 16.5054 2.0427 16.5872C1.96871 16.6664 1.89819 16.747 1.83113 16.8297C1.56509 17.157 1.34943 17.5103 1.18949 17.8786C0.946754 18.4361 0.826172 19.0267 0.826172 19.6167C0.826172 20.2067 0.946754 20.7973 1.18949 21.3547C1.36423 21.7565 1.60445 22.1409 1.90511 22.4925C1.92589 22.5168 1.94636 22.5406 1.96682 22.5635C2.03577 22.6412 2.10913 22.7171 2.185 22.7919C2.21806 22.8244 2.2486 22.8558 2.27914 22.8843C2.76021 23.3326 3.32282 23.6734 3.92069 23.8992C4.51919 24.1252 5.15327 24.2376 5.78672 24.2376C6.42017 24.2376 7.05425 24.1252 7.65275 23.8992C8.25063 23.6737 8.81324 23.3329 9.29431 22.8843L9.71272 22.4945L10.3399 21.9104L8.27739 19.9894L7.65024 20.5735L7.23087 20.9627Z" fill="#D9B881"/>
<path d="M17.8255 11.0531L11.0574 17.3569L13.1197 19.2778L19.8878 12.974L17.8255 11.0531Z" fill="#D9B881"/>
<path d="M21.9981 34.671C21.9981 35.5563 21.2274 36.2742 20.2769 36.2742C19.3264 36.2742 18.5557 35.5563 18.5557 34.671C18.5557 33.7854 19.3264 33.0679 20.2769 33.0679C21.2274 33.0679 21.9981 33.7854 21.9981 34.671Z" fill="#D9B881"/>
<path d="M21.1551 37.9878C21.1551 38.4394 20.7618 38.8056 20.277 38.8056C19.7922 38.8056 19.3989 38.4394 19.3989 37.9878C19.3989 37.5362 19.7922 37.1699 20.277 37.1699C20.7618 37.1699 21.1551 37.5362 21.1551 37.9878Z" fill="#D9B881"/>
<path d="M20.277 2.28413C20.762 2.28413 21.1551 1.91797 21.1551 1.46628C21.1551 1.0146 20.762 0.648438 20.277 0.648438C19.7921 0.648438 19.3989 1.0146 19.3989 1.46628C19.3989 1.91797 19.7921 2.28413 20.277 2.28413Z" fill="#D9B881"/>
<path d="M21.9981 5.10949C21.9981 5.99478 21.2274 6.71264 20.2769 6.71264C19.3264 6.71264 18.5557 5.99478 18.5557 5.10949C18.5557 4.2242 19.3264 3.50635 20.2769 3.50635C21.2274 3.50635 21.9981 4.2242 21.9981 5.10949Z" fill="#D9B881"/>
<path d="M20.2768 39.8647C18.5842 39.8647 17.2122 41.1427 17.2122 42.7191H23.3414C23.3414 41.1427 21.9693 39.8647 20.2768 39.8647Z" fill="#D9B881"/>
<path d="M18.517 43.7783H17.2126V62H18.517V43.7783Z" fill="#D9B881"/>
<path d="M20.9289 43.7783H19.6245V62H20.9289V43.7783Z" fill="#D9B881"/>
<path d="M23.3415 43.7783H22.0371V62H23.3415V43.7783Z" fill="#D9B881"/>
</svg>
