<svg width="75" height="122" viewBox="0 0 75 122" fill="none" xmlns="http://www.w3.org/2000/svg">
<path d="M32.5877 29.7308L28.6206 33.5352L42.1998 46.5572L46.1669 42.7529L32.5877 29.7308Z" fill="#E2C89F"/>
<path d="M20.3965 24.6304C20.8622 25.7333 21.566 26.7711 22.4926 27.6585L23.1454 28.2846L27.1128 24.48L26.46 23.8539C26.0711 23.4811 25.7877 23.0594 25.5963 22.6082C25.4074 22.161 25.3111 21.683 25.3093 21.2033V21.2021L25.3087 21.1888C25.3087 21.1824 25.3099 21.1754 25.3099 21.169C25.3123 20.6905 25.408 20.2137 25.597 19.7682C25.7883 19.317 26.0718 18.8959 26.4606 18.5225C26.8494 18.1496 27.2884 17.8778 27.7596 17.6943C28.2308 17.5108 28.7346 17.4184 29.2409 17.4184C29.7466 17.4184 30.2505 17.5113 30.7217 17.6943C31.1922 17.8778 31.6313 18.1496 32.0207 18.5225L32.8256 19.2943L42.2005 28.2846L46.1679 24.48L36.793 15.4897L36.0184 14.7469L35.9881 14.7178C35.0627 13.8299 33.9805 13.155 32.8304 12.7078C31.6791 12.26 30.46 12.0376 29.2409 12.0376C28.0224 12.0376 26.8027 12.26 25.6515 12.7078C24.5014 13.1544 23.4192 13.8293 22.4938 14.7178C21.5678 15.6053 20.8641 16.6431 20.3983 17.746C19.9314 18.85 19.6995 20.0191 19.6995 21.1882C19.6983 22.3567 19.9302 23.5264 20.3965 24.6304Z" fill="#E2C89F"/>
<path d="M47.1445 32.5264L47.2977 32.3795C47.7428 31.9527 48.1649 31.5484 48.5513 31.1796C49.4107 30.3596 50.1162 29.6929 50.608 29.2381C50.7751 29.0831 50.9169 28.9547 51.0271 28.8554L51.0537 28.8316L51.087 28.8177L51.1597 28.7869L52.3364 27.659C53.2624 26.771 53.9661 25.7338 54.4324 24.6309C54.8994 23.5269 55.1313 22.3572 55.1313 21.1887C55.1313 20.0202 54.8994 18.8505 54.4324 17.7465C53.9667 16.6436 53.263 15.6057 52.3364 14.7183C51.4104 13.8298 50.3288 13.1555 49.1781 12.7083C48.0269 12.2605 46.8071 12.0381 45.5886 12.0381C44.3701 12.0381 43.1504 12.2605 41.9992 12.7083C40.8491 13.1549 39.7669 13.8298 38.8415 14.7183L38.1886 15.3444L42.156 19.149L42.8089 18.5229C43.1977 18.1501 43.6367 17.8783 44.1079 17.6948C44.5785 17.5113 45.083 17.4189 45.5886 17.4189C46.0943 17.4189 46.5988 17.5118 47.0694 17.6948C47.5399 17.8783 47.979 18.1501 48.3684 18.5229C48.7572 18.8958 49.0407 19.3169 49.232 19.7687C49.4234 20.2205 49.5197 20.7043 49.5197 21.1887C49.5197 21.673 49.4234 22.1568 49.232 22.6087C49.0407 23.0599 48.7566 23.481 48.3684 23.8544L47.701 24.4944L47.6932 24.5008C47.6066 24.5688 47.5375 24.6263 47.4648 24.6878L47.4654 24.6872C47.305 24.8255 47.1275 24.9846 46.9089 25.1849C46.5298 25.5328 46.0374 25.9945 45.4421 26.5585C43.6888 28.2206 41.0453 30.7708 38.0681 33.6491L42.0519 37.438L42.1179 37.3741L42.1463 37.4014C42.8858 36.69 44.1025 35.504 45.1768 34.4546C46.0598 33.5922 46.8332 32.8348 47.1451 32.5294L47.1445 32.5264Z" fill="#E2C89F"/>
<path d="M52.3356 48.5582L51.6828 47.9321L47.7154 51.7367L48.3682 52.3628C48.757 52.7357 49.0404 53.1567 49.2318 53.6086C49.4232 54.0604 49.5195 54.5436 49.5195 55.0285C49.5195 55.5135 49.4232 55.9973 49.2318 56.4485C49.0404 56.8998 48.7564 57.3208 48.3682 57.6943C47.9794 58.0671 47.5403 58.3389 47.0692 58.5224C46.598 58.7054 46.0941 58.7983 45.5884 58.7983C45.0828 58.7983 44.5783 58.7054 44.1071 58.5224C43.6365 58.3389 43.1975 58.0671 42.8081 57.6943L42.0032 56.9224L32.6283 47.9321L28.6609 51.7367L38.0358 60.727L38.8407 61.4989C39.7661 62.3869 40.8483 63.0617 41.9984 63.5089C43.1496 63.9567 44.3687 64.1791 45.5878 64.1791C46.8063 64.1791 48.026 63.9567 49.1773 63.5089C50.3274 63.0623 51.4096 62.3875 52.3356 61.4989C53.2622 60.6109 53.9653 59.5736 54.4316 58.4702C54.8986 57.3661 55.1305 56.1965 55.1305 55.028C55.1305 53.8595 54.8986 52.6898 54.4316 51.5857C53.9653 50.4834 53.2622 49.4456 52.3356 48.5582Z" fill="#E2C89F"/>
<path d="M51.1787 39.3207L38.1597 51.8057L42.1268 55.61L55.1459 43.1251L51.1787 39.3207Z" fill="#E2C89F"/>
<path d="M36.7612 42.5682L32.7775 38.7793L32.7115 38.8432L32.683 38.8159C31.9436 39.5279 30.7269 40.7133 29.6525 41.7627C28.7647 42.6304 27.9877 43.3906 27.6794 43.6926L27.6812 43.6943L27.5329 43.8372C27.0877 44.2641 26.6656 44.6683 26.2792 45.0371C25.4199 45.8571 24.7143 46.5239 24.2226 46.9786C24.0548 47.1337 23.9137 47.262 23.8035 47.3613L23.7768 47.3851L23.7435 47.3991L23.6708 47.4299L22.4941 48.5583C21.5681 49.4457 20.8644 50.4835 20.3981 51.587C19.9312 52.691 19.6992 53.8601 19.6992 55.0292C19.6992 56.1977 19.9312 57.3674 20.3981 58.4714C20.8638 59.5743 21.5675 60.6121 22.4941 61.5001C23.4195 62.3881 24.5017 63.063 25.6524 63.5102C26.8037 63.958 28.0228 64.1804 29.2419 64.1804C30.4604 64.1804 31.6801 63.958 32.8314 63.5102C33.9814 63.0636 35.0637 62.3887 35.9891 61.5001L36.6419 60.8741L32.6745 57.0695L32.0217 57.6955C31.6329 58.0684 31.1932 58.3408 30.7226 58.5243C30.2515 58.7072 29.7476 58.8002 29.2419 58.8002C28.7362 58.8002 28.2317 58.7072 27.7606 58.5243C27.29 58.3408 26.8509 58.069 26.4615 57.6961C26.0727 57.3233 25.7893 56.9016 25.5979 56.4504C25.409 56.0032 25.3127 55.5252 25.3108 55.0449V55.0437L25.3102 55.0304C25.3102 55.024 25.3115 55.017 25.3115 55.0106C25.3139 54.5321 25.4096 54.0558 25.5985 53.6098C25.7899 53.1586 26.0733 52.7375 26.4621 52.3641L27.1289 51.7241L27.1374 51.7177C27.224 51.6497 27.293 51.5922 27.3657 51.5307L27.3651 51.5312C27.5256 51.393 27.703 51.2339 27.9217 51.0335C28.3008 50.6856 28.7931 50.2239 29.3885 49.66C31.1405 47.9967 33.784 45.4465 36.7612 42.5682Z" fill="#E2C89F"/>
<path d="M74.1319 35.2089C73.6656 34.106 72.9624 33.0682 72.0359 32.1807C71.1105 31.2927 70.0282 30.6179 68.8782 30.1707C67.7269 29.7229 66.5072 29.5005 65.2887 29.5005C64.0702 29.5005 62.8505 29.7229 61.6992 30.1707C60.5491 30.6173 59.4669 31.2922 58.5415 32.1807L57.7367 32.9526L56.5303 34.1095L60.4977 37.9141L61.7041 36.7572L62.5089 35.9854C62.8977 35.6125 63.3368 35.3407 63.808 35.1572C64.2791 34.9742 64.783 34.8813 65.2887 34.8813C65.7944 34.8813 66.2983 34.9742 66.7694 35.1572C67.24 35.3407 67.6791 35.6125 68.0685 35.9854C68.2629 36.1718 68.4306 36.3704 68.5742 36.5789C68.7177 36.7874 68.8364 37.0052 68.9321 37.2311L68.9054 37.1678L68.9327 37.2317C69.1144 37.6609 69.2076 38.1191 69.2167 38.5797L69.2204 38.5843V38.6522C69.2204 39.1372 69.1234 39.621 68.9327 40.0728C68.7413 40.5241 68.4579 40.9451 68.0691 41.3186C67.6803 41.6914 67.2406 41.9632 66.77 42.1467C66.2989 42.3297 65.795 42.4226 65.2893 42.4226C64.7836 42.4226 64.2791 42.3297 63.808 42.1467C63.3374 41.9632 62.8983 41.6914 62.5089 41.3186L61.8391 40.6762L61.8331 40.6687L61.804 40.6356C61.7162 40.5357 61.6411 40.4561 61.5502 40.3609C61.3831 40.1866 61.176 39.9776 60.9192 39.7226C60.0253 38.8352 58.5391 37.3995 56.7586 35.6932C55.0247 34.0311 53.0177 32.118 51.0392 30.2363L47.0881 34.0566C49.6475 36.4912 52.2546 38.9775 54.2423 40.8917C55.2555 41.8674 56.1088 42.6956 56.7047 43.2839C56.9524 43.5284 57.1529 43.7293 57.2976 43.8768L57.323 43.9024L57.3382 43.9349L57.366 43.9947L58.5427 45.1226C59.4681 46.0106 60.5504 46.6854 61.701 47.1326C62.8523 47.5804 64.0714 47.8028 65.2905 47.8028C66.509 47.8028 67.7287 47.5798 68.88 47.1326C70.027 46.6872 71.1062 46.0141 72.0298 45.1296L72.4053 44.6568V44.7375C73.0406 44.0551 73.5614 43.303 73.9478 42.5051C74.0132 42.3692 74.0756 42.2327 74.1337 42.0945C74.6006 40.9904 74.8326 39.8208 74.8326 38.6522C74.8308 37.482 74.5988 36.3123 74.1319 35.2089Z" fill="#E2C89F"/>
<path d="M12.32 40.2319C11.9306 40.6048 11.4916 40.8766 11.021 41.0601C10.5498 41.2431 10.0459 41.336 9.54026 41.336C9.03457 41.336 8.53009 41.2431 8.05892 41.0601C7.58836 40.8766 7.14929 40.6048 6.76048 40.2319L6.75746 40.229L6.75382 40.225C6.67691 40.1506 6.60908 40.0757 6.54549 40.0043C6.26691 39.6907 6.0501 39.3498 5.89627 38.9856C5.70732 38.5384 5.61103 38.0604 5.60921 37.5802V37.579L5.6086 37.5656C5.6086 37.1643 5.67825 36.7659 5.80846 36.3861C5.83389 36.3112 5.86115 36.2299 5.89627 36.1451C5.93988 36.0417 5.98953 35.9418 6.04222 35.8442L6.05494 35.8175L6.05736 35.8129C6.23602 35.4865 6.46858 35.1798 6.75988 34.8999C7.14868 34.527 7.58775 34.2553 8.05892 34.0717C8.53009 33.8888 9.03396 33.7959 9.54026 33.7959C10.0459 33.7959 10.5498 33.8888 11.021 34.0717C11.4916 34.2553 11.9306 34.5276 12.32 34.8999L12.9904 35.5428L12.9965 35.5504L13.0256 35.5835C13.1134 35.6834 13.1885 35.7629 13.2799 35.8582C13.4471 36.0324 13.6542 36.2415 13.911 36.4964C14.8049 37.3839 16.2911 38.8195 18.0716 40.5258C19.8054 42.188 21.8131 44.101 23.791 45.9827L27.742 42.1624C25.1827 39.7278 22.5755 37.2416 20.5879 35.3273C19.5747 34.3517 18.7214 33.5235 18.1255 32.9352C17.8778 32.6901 17.6773 32.4897 17.5326 32.3416L17.5071 32.3161L17.492 32.2835L17.4647 32.2237L16.2886 31.0953C15.3632 30.2073 14.281 29.5324 13.131 29.0852C11.9797 28.6375 10.76 28.415 9.54147 28.415C8.32297 28.415 7.10326 28.6375 5.95199 29.0852C4.80192 29.5319 3.71969 30.2067 2.79431 31.0953C2.63685 31.2463 2.48726 31.4043 2.3401 31.5663C2.19778 31.7231 2.06212 31.8828 1.93312 32.0466C1.42138 32.6947 1.00653 33.3945 0.69888 34.124C0.23195 35.228 0 36.3977 0 37.5662C0 38.7347 0.23195 39.9044 0.69888 41.0084C1.035 41.8041 1.49708 42.5655 2.07544 43.2618C2.11541 43.31 2.15478 43.3571 2.19414 43.4024C2.32677 43.5563 2.46788 43.7067 2.61384 43.8548C2.67743 43.9192 2.73617 43.9814 2.79491 44.0377C3.72029 44.9257 4.80253 45.6006 5.95259 46.0478C7.10387 46.4955 8.32358 46.718 9.54208 46.718C10.7606 46.718 11.9803 46.4955 13.1316 46.0478C14.2816 45.6012 15.3639 44.9263 16.2892 44.0377L17.0941 43.2659L18.3005 42.109L14.3331 38.3044L13.1267 39.4613L12.32 40.2319Z" fill="#E2C89F"/>
<path d="M32.6985 20.6069L19.6794 33.0918L23.6466 36.8962L36.6656 24.4112L32.6985 20.6069Z" fill="#E2C89F"/>
<path d="M40.7256 67.3821C40.7256 69.1354 39.243 70.5572 37.4147 70.5572C35.5863 70.5572 34.1038 69.1354 34.1038 67.3821C34.1038 65.6282 35.5863 64.207 37.4147 64.207C39.243 64.207 40.7256 65.6282 40.7256 67.3821Z" fill="#CDB28A"/>
<path d="M39.104 73.9501C39.104 74.8441 38.3475 75.5692 37.4149 75.5692C36.4822 75.5692 35.7258 74.8441 35.7258 73.9501C35.7258 73.0561 36.4822 72.3311 37.4149 72.3311C38.3475 72.3311 39.104 73.0561 39.104 73.9501Z" fill="#CDB28A"/>
<path d="M37.4149 3.23813C38.3477 3.23813 39.104 2.51325 39.104 1.61906C39.104 0.72488 38.3477 0 37.4149 0C36.482 0 35.7258 0.72488 35.7258 1.61906C35.7258 2.51325 36.482 3.23813 37.4149 3.23813Z" fill="#CDB28A"/>
<path d="M40.7256 8.83522C40.7256 10.5886 39.243 12.0103 37.4147 12.0103C35.5863 12.0103 34.1038 10.5886 34.1038 8.83522C34.1038 7.08188 35.5863 5.66016 37.4147 5.66016C39.243 5.66016 40.7256 7.08188 40.7256 8.83522Z" fill="#CDB28A"/>
<path d="M37.4141 77.6685C34.1583 77.6685 31.519 80.1994 31.519 83.3217H43.3092C43.3092 80.1994 40.6699 77.6685 37.4141 77.6685Z" fill="#CDB28A"/>
<path d="M34.0281 85.4194H31.519V121.508H34.0281V85.4194Z" fill="#CDB28A"/>
<path d="M38.6687 85.4194H36.1597V121.508H38.6687V85.4194Z" fill="#CDB28A"/>
<path d="M43.3089 85.4194H40.7998V121.508H43.3089V85.4194Z" fill="#CDB28A"/>
</svg>
