<svg width="1005" height="302" viewBox="0 0 1005 302" fill="none" xmlns="http://www.w3.org/2000/svg">
<g filter="url(#filter0_d_987_26457)">
<path d="M947.721 16C947.721 26.8295 964.882 35.6083 986.051 35.6084C987.043 35.6084 988.026 35.5896 988.999 35.5518V261.924C988.026 261.886 987.043 261.867 986.051 261.867C964.882 261.867 947.721 270.647 947.721 281.477C947.721 283.034 948.078 284.548 948.748 286H53.3037C53.9743 284.548 54.331 283.034 54.3311 281.477C54.3311 270.647 37.1701 261.867 16.001 261.867H16V35.6074L16.001 35.6084C36.8392 35.6083 53.7935 27.1016 54.3184 16.5059L54.3311 16H947.721Z" fill="white"/>
</g>
<defs>
<filter id="filter0_d_987_26457" x="0" y="0" width="1005" height="302" filterUnits="userSpaceOnUse" color-interpolation-filters="sRGB">
<feFlood flood-opacity="0" result="BackgroundImageFix"/>
<feColorMatrix in="SourceAlpha" type="matrix" values="0 0 0 0 0 0 0 0 0 0 0 0 0 0 0 0 0 0 127 0" result="hardAlpha"/>
<feOffset/>
<feGaussianBlur stdDeviation="8"/>
<feComposite in2="hardAlpha" operator="out"/>
<feColorMatrix type="matrix" values="0 0 0 0 0.44391 0 0 0 0 0.44391 0 0 0 0 0.44391 0 0 0 0.25 0"/>
<feBlend mode="normal" in2="BackgroundImageFix" result="effect1_dropShadow_987_26457"/>
<feBlend mode="normal" in="SourceGraphic" in2="effect1_dropShadow_987_26457" result="shape"/>
</filter>
</defs>
</svg>
