<svg width="649" height="150" viewBox="0 0 649 150" fill="none" xmlns="http://www.w3.org/2000/svg">
<path d="M170.587 14.8594C170.587 22.2788 162.67 30.0058 160.011 32.3922C159.763 32.5859 159.462 32.6906 159.152 32.6906C158.842 32.6906 158.541 32.5859 158.293 32.3922C155.634 30.0058 147.717 22.2788 147.717 14.8594C147.717 11.7066 148.922 8.68288 151.066 6.45351C153.211 4.22413 156.119 2.97168 159.152 2.97168C162.185 2.97168 165.093 4.22413 167.238 6.45351C169.383 8.68288 170.587 11.7066 170.587 14.8594Z" stroke="#A50000" stroke-width="2" stroke-linecap="round" stroke-linejoin="round"/>
<path d="M159.153 19.3181C161.522 19.3181 163.442 17.3223 163.442 14.8602C163.442 12.3982 161.522 10.4023 159.153 10.4023C156.785 10.4023 154.865 12.3982 154.865 14.8602C154.865 17.3223 156.785 19.3181 159.153 19.3181Z" stroke="#A50000" stroke-width="2" stroke-linecap="round" stroke-linejoin="round"/>
<path d="M161.772 137.977C162.067 138.118 162.4 138.15 162.715 138.068C163.03 137.986 163.309 137.795 163.506 137.526L164.013 136.835C164.28 136.466 164.625 136.167 165.022 135.96C165.419 135.754 165.857 135.647 166.3 135.647H170.589C171.347 135.647 172.074 135.96 172.61 136.517C173.146 137.074 173.448 137.83 173.448 138.619V143.076C173.448 143.865 173.146 144.621 172.61 145.178C172.074 145.735 171.347 146.048 170.589 146.048C163.765 146.048 157.221 143.23 152.395 138.214C147.57 133.198 144.859 126.395 144.859 119.301C144.859 118.513 145.161 117.757 145.697 117.2C146.233 116.642 146.96 116.329 147.718 116.329H152.006C152.765 116.329 153.492 116.642 154.028 117.2C154.564 117.757 154.865 118.513 154.865 119.301V123.759C154.865 124.22 154.762 124.675 154.563 125.088C154.365 125.501 154.077 125.86 153.722 126.136L153.053 126.658C152.79 126.866 152.605 127.163 152.529 127.497C152.453 127.831 152.491 128.182 152.635 128.49C154.589 132.615 157.802 135.951 161.772 137.977Z" stroke="#A50000" stroke-width="2" stroke-linecap="round" stroke-linejoin="round"/>
<line x1="-4.37114e-08" y1="69.5" x2="300" y2="69.5" stroke="#DCB68A"/>
<line x1="349" y1="69.5" x2="649" y2="69.5" stroke="#DCB68A"/>
<path d="M300.001 70.0191H313.147L318.933 75.7267L321.716 72.9805L323.756 74.9928L321.591 77.1292L324.501 80L327.411 77.1292L325.245 74.9928L327.285 72.9805L330.068 75.7267L335.854 70.0191H349V68.9809H335.853L330.068 63.2733L329.696 63.6405L327.284 66.0194L325.244 64.0072L327.41 61.8708L324.5 59L324.128 59.3672L321.59 61.8708L323.756 64.0072L321.716 66.0194L318.932 63.2733L318.56 63.6405L313.147 68.9809H300V70.0191H300.001ZM324.5 78.5317L323.078 77.1292L324.5 75.7267L325.922 77.1292L324.5 78.5317ZM324.5 74.2584L322.46 72.2461L324.5 70.2338L326.54 72.2461L324.5 74.2584ZM321.716 71.5123L319.677 69.5L321.716 67.4877L323.756 69.5L321.716 71.5123ZM325.244 69.5L327.284 67.4877L329.324 69.5L327.284 71.5123L325.244 69.5ZM330.068 64.7416L334.891 69.5L330.068 74.2584L328.028 72.2461L330.812 69.5L328.028 66.7539L330.068 64.7416ZM324.5 60.4688L325.922 61.8714L324.5 63.2739L323.078 61.8714L324.5 60.4688ZM324.5 64.7416L326.54 66.7539L324.5 68.7662L322.46 66.7539L324.5 64.7416ZM318.933 64.7416L320.973 66.7539L318.189 69.5L320.973 72.2461L318.933 74.2584L314.109 69.5L318.933 64.7416Z" fill="#D5B47B"/>
</svg>
