<svg width="360" height="150" viewBox="0 0 360 150" fill="none" xmlns="http://www.w3.org/2000/svg">
<path d="M28.5883 14.8594C28.5883 22.2788 20.6708 30.0058 18.0121 32.3922C17.7644 32.5859 17.4629 32.6906 17.153 32.6906C16.8431 32.6906 16.5416 32.5859 16.294 32.3922C13.6353 30.0058 5.71777 22.2788 5.71777 14.8594C5.71777 11.7066 6.92256 8.68288 9.06708 6.45351C11.2116 4.22413 14.1202 2.97168 17.153 2.97168C20.1859 2.97168 23.0945 4.22413 25.239 6.45351C27.3835 8.68288 28.5883 11.7066 28.5883 14.8594Z" stroke="#A50000" stroke-width="2" stroke-linecap="round" stroke-linejoin="round"/>
<path d="M17.153 19.3181C19.5213 19.3181 21.4412 17.3223 21.4412 14.8602C21.4412 12.3982 19.5213 10.4023 17.153 10.4023C14.7846 10.4023 12.8647 12.3982 12.8647 14.8602C12.8647 17.3223 14.7846 19.3181 17.153 19.3181Z" stroke="#A50000" stroke-width="2" stroke-linecap="round" stroke-linejoin="round"/>
<path d="M19.7714 137.977C20.0666 138.118 20.3992 138.15 20.7144 138.068C21.0295 137.986 21.3085 137.795 21.5053 137.526L22.0127 136.835C22.279 136.466 22.6243 136.167 23.0213 135.96C23.4182 135.754 23.8559 135.647 24.2998 135.647H28.588C29.3462 135.647 30.0733 135.96 30.6095 136.517C31.1456 137.074 31.4468 137.83 31.4468 138.619V143.076C31.4468 143.865 31.1456 144.621 30.6095 145.178C30.0733 145.735 29.3462 146.048 28.588 146.048C21.7641 146.048 15.2198 143.23 10.3946 138.214C5.5694 133.198 2.85864 126.395 2.85864 119.301C2.85864 118.513 3.15984 117.757 3.69597 117.2C4.2321 116.642 4.95925 116.329 5.71746 116.329H10.0057C10.7639 116.329 11.491 116.642 12.0272 117.2C12.5633 117.757 12.8645 118.513 12.8645 119.301V123.759C12.8645 124.22 12.7612 124.675 12.5627 125.088C12.3642 125.501 12.076 125.86 11.721 126.136L11.052 126.658C10.7896 126.866 10.6046 127.163 10.5285 127.497C10.4525 127.831 10.4899 128.182 10.6346 128.49C12.5882 132.615 15.8011 135.951 19.7714 137.977Z" stroke="#A50000" stroke-width="2" stroke-linecap="round" stroke-linejoin="round"/>
<g clip-path="url(#clip0_0_1)">
<line x1="-171" y1="67" x2="137" y2="67" stroke="#DCB68A" stroke-width="3"/>
<path d="M137.001 69.6617H166.783L179.889 82.4359L186.194 76.2898L190.815 80.7934L185.909 85.5749L192.501 92L199.093 85.5749L194.188 80.7934L198.808 76.2898L205.114 82.4359L218.22 69.6617H248V67.3383H218.219L205.113 54.5641L204.27 55.386L198.807 60.7102L194.186 56.2065L199.092 51.4251L192.5 45L191.657 45.8219L185.908 51.4251L190.814 56.2065L186.193 60.7102L179.887 54.5641L179.044 55.386L166.781 67.3383H137V69.6617H137.001ZM192.5 88.7139L189.279 85.5749L192.5 82.4359L195.721 85.5749L192.5 88.7139ZM192.5 79.1497L187.879 74.6461L192.5 70.1424L197.121 74.6461L192.5 79.1497ZM186.194 73.0036L181.574 68.5L186.194 63.9963L190.815 68.5L186.194 73.0036ZM194.186 68.5L198.807 63.9963L203.428 68.5L198.807 73.0036L194.186 68.5ZM205.113 57.8502L216.039 68.5L205.113 79.1497L200.492 74.6461L206.798 68.5L200.492 62.3539L205.113 57.8502ZM192.5 48.2874L195.721 51.4264L192.5 54.5654L189.279 51.4264L192.5 48.2874ZM192.5 57.8502L197.121 62.3539L192.5 66.8576L187.879 62.3539L192.5 57.8502ZM179.889 57.8502L184.509 62.3539L178.203 68.5L184.509 74.6461L179.889 79.1497L168.962 68.5L179.889 57.8502Z" fill="#D5B47B"/>
<line x1="248" y1="67" x2="534" y2="67" stroke="#DCB68A" stroke-width="3"/>
</g>
<defs>
<clipPath id="clip0_0_1">
<rect width="357" height="33" fill="white" transform="translate(3 52)"/>
</clipPath>
</defs>
</svg>
