<svg width="80" height="80" viewBox="0 0 80 80" fill="none" xmlns="http://www.w3.org/2000/svg">
<path d="M40.0911 0H39.9089C17.8678 0 0 17.8678 0 39.9089V40.0911C0 62.1322 17.8678 80 39.9089 80H40.0911C62.1322 80 80 62.1322 80 40.0911V39.9089C80 17.8678 62.1322 0 40.0911 0Z" fill="white"/>
<path d="M35.8972 49.1326V30H43.3257V40.5965C49.2685 39.8901 53.024 33.2378 54.1589 30H61.8969C60.9683 36.77 54.8295 41.9701 51.6827 43.54C56.9445 45.1589 63.4444 52.9591 63.4444 57.3743H55.3969C52.4256 49.839 46.1114 47.5627 43.3257 47.3665V57.3743C25.8379 58.5517 16.5523 44.7174 17.0166 30H24.7546C25.2189 43.8343 32.6473 47.9552 35.8972 49.1326Z" fill="#8C0000"/>
</svg>
