<svg width="80" height="80" viewBox="0 0 80 80" fill="none" xmlns="http://www.w3.org/2000/svg">
<path d="M40.0911 0H39.9089C17.8678 0 0 17.8678 0 39.9089V40.0911C0 62.1322 17.8678 80 39.9089 80H40.0911C62.1322 80 80 62.1322 80 40.0911V39.9089C80 17.8678 62.1322 0 40.0911 0Z" fill="white"/>
<path d="M47.7961 51.7C37.5575 51.7 29.2277 43.3673 29.2249 33.1287C29.2277 30.5334 31.341 28.4229 33.9307 28.4229C34.197 28.4229 34.4604 28.4453 34.7127 28.4901C35.2677 28.5826 35.7946 28.7704 36.2795 29.0535C36.3496 29.0955 36.3972 29.1628 36.4084 29.2413L37.4903 36.0604C37.5043 36.1389 37.4791 36.2202 37.4258 36.2791C36.8288 36.9405 36.0665 37.417 35.2172 37.6552L34.808 37.7702L34.9622 38.1653C36.3579 41.7193 39.2 44.5585 42.7567 45.9599L43.1519 46.1169L43.2668 45.7077C43.5051 44.8584 43.9815 44.0961 44.643 43.4991C44.6906 43.4542 44.7551 43.4318 44.8196 43.4318C44.8336 43.4318 44.8476 43.4318 44.8644 43.4346L51.6836 44.5165C51.7649 44.5305 51.8322 44.5753 51.8742 44.6454C52.1545 45.1303 52.3423 45.66 52.4376 46.215C52.4824 46.4616 52.502 46.7223 52.502 46.9941C52.502 49.5867 50.3915 51.6972 47.7961 51.7Z" fill="#A50000"/>
<path d="M65.9524 37.7527C65.4002 31.5137 62.5414 25.7259 57.9028 21.4573C53.2362 17.1634 47.1821 14.7979 40.8506 14.7979C26.9544 14.7979 15.648 26.1043 15.648 40.0005C15.648 44.6644 16.9344 49.2077 19.37 53.1652L13.9382 65.1892L31.3295 63.3365C34.3538 64.5754 37.5545 65.2032 40.8478 65.2032C41.7139 65.2032 42.6024 65.1583 43.4937 65.0659C44.2784 64.9818 45.0716 64.8585 45.8508 64.7015C57.488 62.35 65.9832 52.0217 66.0505 40.1351V40.0005C66.0505 39.2438 66.0169 38.487 65.9496 37.7555L65.9524 37.7527ZM31.9994 58.0589L22.3775 59.0847L25.2503 52.7196L24.6757 51.9488C24.6337 51.8927 24.5917 51.8367 24.544 51.7722C22.0495 48.3276 20.7322 44.258 20.7322 40.0033C20.7322 28.9099 29.7572 19.8849 40.8506 19.8849C51.2434 19.8849 60.0525 27.9934 60.9018 38.3441C60.9466 38.899 60.9718 39.4568 60.9718 40.0061C60.9718 40.1631 60.969 40.3172 60.9662 40.4826C60.7532 49.7626 54.2704 57.6441 45.2005 59.6509C44.5083 59.805 43.7991 59.9227 43.0928 59.9984C42.3585 60.0825 41.6046 60.1245 40.8562 60.1245C38.1908 60.1245 35.601 59.6088 33.1542 58.5886C32.8823 58.4793 32.616 58.3616 32.3666 58.2411L32.0022 58.0645L31.9994 58.0589Z" fill="#A50000"/>
</svg>
